<svg version="1.1" viewBox="0.0 0.0 600.0 371.0" fill="none" stroke="none" stroke-linecap="square" stroke-miterlimit="10" width="600" height="371" xmlns:xlink="http://www.w3.org/1999/xlink" xmlns="http://www.w3.org/2000/svg"><path fill="#ffffff" fill-opacity="0.0" d="M0 0L600.0 0L600.0 371.0L0 371.0L0 0Z" fill-rule="nonzero"/><path fill="#cc0000" d="M300.0 18.55C327.87787 18.55 355.31195 25.531042 379.799 38.856148L300.0 185.5Z" fill-rule="nonzero"/><path fill="#6d9eeb" d="M379.799 38.856148C410.62027 55.62812 435.3735 81.68492 450.5429 113.32569L300.0 185.5Z" fill-rule="nonzero"/><path fill="#fbbc04" d="M450.5429 113.32569C469.53204 152.93365 472.14676 198.42947 457.82037 239.95215L300.0 185.5Z" fill-rule="nonzero"/><path fill="#c27ba0" d="M136.38849 152.27992C152.18736 74.46919 220.60156 18.55 300.0 18.55L300.0 185.5Z" fill-rule="nonzero"/><path fill="#3d85c6" d="M276.82788 350.83408C231.22636 344.44287 190.28944 319.5009 163.69897 281.9071C137.1085 244.31334 127.22591 197.40633 136.38849 152.27992L300.0 185.5Z" fill-rule="nonzero"/><path fill="#6aa84f" d="M457.82037 239.95215C431.77386 315.44357 355.9134 361.91818 276.82788 350.83408L300.0 185.5Z" fill-rule="nonzero"/><path fill="#000000" d="M326.10968 56.102844L327.40656 55.99347Q327.54718 56.93097 328.0628 57.415344Q328.59406 57.884094 329.32843 57.884094Q330.21906 57.884094 330.82843 57.21222Q331.45343 56.540344 331.45343 55.446594Q331.45343 54.384094 330.85968 53.77472Q330.26593 53.165344 329.3128 53.165344Q328.71906 53.165344 328.23468 53.446594Q327.76593 53.71222 327.48468 54.134094L326.32843 53.99347L327.29718 48.83722L332.28156 48.83722L332.28156 50.02472L328.28156 50.02472L327.7503 52.71222Q328.65656 52.08722 329.64093 52.08722Q330.95343 52.08722 331.84406 52.99347Q332.7503 53.89972 332.7503 55.33722Q332.7503 56.696594 331.96906 57.68097Q331.0003 58.89972 329.32843 58.89972Q327.96906 58.89972 327.09406 58.134094Q326.23468 57.36847 326.10968 56.102844ZM338.7503 58.727844L337.51593 58.727844L337.51593 50.884094Q337.07843 51.30597 336.34406 51.74347Q335.6253 52.165344 335.0628 52.36847L335.0628 51.18097Q336.09406 50.696594 336.85968 50.009094Q337.64093 49.321594 337.95343 48.665344L338.7503 48.665344L338.7503 58.727844Z" fill-rule="nonzero"/><path fill="#000000" d="M394.6955 91.99987L393.47675 92.09362Q393.30487 91.359245 393.008 91.03112Q392.508 90.515495 391.77362 90.515495Q391.17987 90.515495 390.74237 90.84362Q390.16425 91.265495 389.8205 92.077995Q389.49237 92.890495 389.47675 94.390495Q389.91425 93.71862 390.55487 93.390495Q391.21112 93.06237 391.91425 93.06237Q393.14862 93.06237 394.008 93.96862Q394.86737 94.87487 394.86737 96.31237Q394.86737 97.24987 394.46112 98.06237Q394.05487 98.87487 393.33612 99.31237Q392.633 99.734245 391.72675 99.734245Q390.1955 99.734245 389.22675 98.609245Q388.258 97.46862 388.258 94.87487Q388.258 91.96862 389.3205 90.640495Q390.258 89.49987 391.85175 89.49987Q393.03925 89.49987 393.78925 90.171745Q394.53925 90.827995 394.6955 91.99987ZM389.66425 96.31237Q389.66425 96.952995 389.92987 97.53112Q390.21112 98.109245 390.6955 98.421745Q391.17987 98.71862 391.71112 98.71862Q392.49237 98.71862 393.05487 98.09362Q393.61737 97.46862 393.61737 96.390495Q393.61737 95.34362 393.05487 94.74987Q392.508 94.140495 391.66425 94.140495Q390.83612 94.140495 390.24237 94.74987Q389.66425 95.34362 389.66425 96.31237ZM400.258 99.56237L400.258 97.15612L395.89862 97.15612L395.89862 96.03112L400.47675 89.546745L401.47675 89.546745L401.47675 96.03112L402.83612 96.03112L402.83612 97.15612L401.47675 97.15612L401.47675 99.56237L400.258 99.56237ZM400.258 96.03112L400.258 91.515495L397.11737 96.03112L400.258 96.03112Z" fill-rule="nonzero"/><path fill="#000000" d="M411.79294 174.37517L411.79294 173.18767L418.29294 173.18767L418.29294 174.1408Q417.3242 175.15642 416.3867 176.84392Q415.4492 178.53142 414.93356 180.3283Q414.5742 181.5783 414.4648 183.0783L413.1992 183.0783Q413.2148 181.8908 413.6523 180.21892Q414.10544 178.54704 414.93356 177.00017Q415.7773 175.43767 416.7148 174.37517L411.79294 174.37517ZM419.9023 180.7658L421.0898 180.65642Q421.23044 181.48454 421.6523 181.85954Q422.0898 182.23454 422.74606 182.23454Q423.30856 182.23454 423.73044 181.98454Q424.16794 181.71892 424.43356 181.28142Q424.7148 180.84392 424.9023 180.10954Q425.0898 179.37517 425.0898 178.60954Q425.0898 178.53142 425.0742 178.35954Q424.7148 178.9533 424.0742 179.3283Q423.43356 179.68767 422.68356 179.68767Q421.43356 179.68767 420.5742 178.78142Q419.7148 177.87517 419.7148 176.40642Q419.7148 174.87517 420.60544 173.9533Q421.5117 173.0158 422.87106 173.0158Q423.8398 173.0158 424.6523 173.54704Q425.4648 174.06267 425.8867 175.04704Q426.30856 176.0158 426.30856 177.85954Q426.30856 179.78142 425.8867 180.92204Q425.48044 182.06267 424.6523 182.65642Q423.8242 183.25017 422.7148 183.25017Q421.54294 183.25017 420.79294 182.59392Q420.05856 181.93767 419.9023 180.7658ZM424.93356 176.34392Q424.93356 175.28142 424.37106 174.65642Q423.80856 174.03142 423.0273 174.03142Q422.1992 174.03142 421.5898 174.7033Q420.98044 175.37517 420.98044 176.43767Q420.98044 177.3908 421.55856 178.00017Q422.1367 178.59392 422.98044 178.59392Q423.8398 178.59392 424.3867 178.00017Q424.93356 177.3908 424.93356 176.34392ZM428.3867 183.0783L428.3867 181.67204L429.7773 181.67204L429.7773 183.0783Q429.7773 183.84392 429.49606 184.31267Q429.23044 184.79704 428.6367 185.06267L428.29294 184.53142Q428.68356 184.35954 428.87106 184.03142Q429.05856 183.7033 429.0742 183.0783L428.3867 183.0783ZM431.79294 174.37517L431.79294 173.18767L438.29294 173.18767L438.29294 174.1408Q437.3242 175.15642 436.3867 176.84392Q435.4492 178.53142 434.93356 180.3283Q434.5742 181.5783 434.4648 183.0783L433.1992 183.0783Q433.2148 181.8908 433.6523 180.21892Q434.10544 178.54704 434.93356 177.00017Q435.7773 175.43767 436.7148 174.37517L431.79294 174.37517ZM439.7148 180.4533L441.0117 180.34392Q441.1523 181.28142 441.66794 181.7658Q442.1992 182.23454 442.93356 182.23454Q443.8242 182.23454 444.43356 181.56267Q445.05856 180.8908 445.05856 179.79704Q445.05856 178.73454 444.4648 178.12517Q443.87106 177.5158 442.91794 177.5158Q442.3242 177.5158 441.8398 177.79704Q441.37106 178.06267 441.0898 178.48454L439.93356 178.34392L440.9023 173.18767L445.8867 173.18767L445.8867 174.37517L441.8867 174.37517L441.35544 177.06267Q442.2617 176.43767 443.24606 176.43767Q444.55856 176.43767 445.4492 177.34392Q446.35544 178.25017 446.35544 179.68767Q446.35544 181.04704 445.5742 182.03142Q444.60544 183.25017 442.93356 183.25017Q441.5742 183.25017 440.6992 182.48454Q439.8398 181.71892 439.7148 180.4533Z" fill-rule="nonzero"/><path fill="#000000" d="M361.3918 301.77884L360.15744 301.77884L360.15744 293.9351Q359.71994 294.35696 358.98557 294.79446Q358.2668 295.21634 357.7043 295.41946L357.7043 294.23196Q358.73557 293.7476 359.5012 293.0601Q360.28244 292.3726 360.59494 291.71634L361.3918 291.71634L361.3918 301.77884ZM368.7043 301.77884L368.7043 299.3726L364.34494 299.3726L364.34494 298.2476L368.92307 291.7632L369.92307 291.7632L369.92307 298.2476L371.28244 298.2476L371.28244 299.3726L369.92307 299.3726L369.92307 301.77884L368.7043 301.77884ZM368.7043 298.2476L368.7043 293.73196L365.5637 298.2476L368.7043 298.2476ZM377.3918 301.77884L376.15744 301.77884L376.15744 293.9351Q375.71994 294.35696 374.98557 294.79446Q374.2668 295.21634 373.7043 295.41946L373.7043 294.23196Q374.73557 293.7476 375.5012 293.0601Q376.28244 292.3726 376.59494 291.71634L377.3918 291.71634L377.3918 301.77884Z" fill-rule="nonzero"/><path fill="#000000" d="M187.71803 265.12173L186.48366 265.12173L186.48366 257.27798Q186.04616 257.69986 185.31178 258.13736Q184.59303 258.55923 184.03053 258.76236L184.03053 257.57486Q185.06178 257.09048 185.82741 256.40298Q186.60866 255.71548 186.92116 255.05923L187.71803 255.05923L187.71803 265.12173ZM197.46803 257.55923L196.24928 257.65298Q196.07741 256.9186 195.78053 256.59048Q195.28053 256.07486 194.54616 256.07486Q193.95241 256.07486 193.51491 256.40298Q192.93678 256.82486 192.59303 257.63736Q192.26491 258.44986 192.24928 259.94986Q192.68678 259.27798 193.32741 258.94986Q193.98366 258.62173 194.68678 258.62173Q195.92116 258.62173 196.78053 259.52798Q197.63991 260.43423 197.63991 261.87173Q197.63991 262.80923 197.23366 263.62173Q196.82741 264.43423 196.10866 264.87173Q195.40553 265.2936 194.49928 265.2936Q192.96803 265.2936 191.99928 264.1686Q191.03053 263.02798 191.03053 260.43423Q191.03053 257.52798 192.09303 256.19986Q193.03053 255.05923 194.62428 255.05923Q195.81178 255.05923 196.56178 255.73111Q197.31178 256.38736 197.46803 257.55923ZM192.43678 261.87173Q192.43678 262.51236 192.70241 263.09048Q192.98366 263.6686 193.46803 263.9811Q193.95241 264.27798 194.48366 264.27798Q195.26491 264.27798 195.82741 263.65298Q196.38991 263.02798 196.38991 261.94986Q196.38991 260.90298 195.82741 260.30923Q195.28053 259.69986 194.43678 259.69986Q193.60866 259.69986 193.01491 260.30923Q192.43678 260.90298 192.43678 261.87173ZM199.15553 256.4186L199.15553 255.23111L205.65553 255.23111L205.65553 256.18423Q204.68678 257.19986 203.74928 258.88736Q202.81178 260.57486 202.29616 262.37173Q201.93678 263.62173 201.82741 265.12173L200.56178 265.12173Q200.57741 263.93423 201.01491 262.26236Q201.46803 260.59048 202.29616 259.0436Q203.13991 257.4811 204.07741 256.4186L199.15553 256.4186Z" fill-rule="nonzero"/><path fill="#000000" d="M205.55147 95.478165L204.3171 95.478165L204.3171 87.634415Q203.8796 88.05629 203.14522 88.49379Q202.42647 88.915665 201.86397 89.11879L201.86397 87.93129Q202.89522 87.446915 203.66084 86.759415Q204.4421 86.071915 204.7546 85.415665L205.55147 85.415665L205.55147 95.478165ZM212.86397 95.478165L212.86397 93.071915L208.5046 93.071915L208.5046 91.946915L213.08272 85.46254L214.08272 85.46254L214.08272 91.946915L215.4421 91.946915L215.4421 93.071915L214.08272 93.071915L214.08272 95.478165L212.86397 95.478165ZM212.86397 91.946915L212.86397 87.43129L209.72334 91.946915L212.86397 91.946915ZM216.91084 90.540665Q216.91084 88.759415 217.27022 87.68129Q217.64522 86.58754 218.36397 86.009415Q219.08272 85.415665 220.17647 85.415665Q220.98897 85.415665 221.59834 85.74379Q222.20772 86.071915 222.59834 86.68129Q223.0046 87.290665 223.22334 88.165665Q223.4421 89.040665 223.4421 90.540665Q223.4421 92.30629 223.08272 93.384415Q222.72334 94.46254 222.0046 95.05629Q221.28584 95.65004 220.17647 95.65004Q218.73897 95.65004 217.91084 94.603165Q216.91084 93.353165 216.91084 90.540665ZM218.17647 90.540665Q218.17647 93.009415 218.7546 93.821915Q219.33272 94.634415 220.17647 94.634415Q221.03584 94.634415 221.61397 93.821915Q222.1921 92.99379 222.1921 90.540665Q222.1921 88.05629 221.61397 87.24379Q221.03584 86.43129 220.16084 86.43129Q219.3171 86.43129 218.8171 87.15004Q218.17647 88.071915 218.17647 90.540665ZM225.58272 95.478165L225.58272 94.071915L226.97334 94.071915L226.97334 95.478165Q226.97334 96.24379 226.6921 96.71254Q226.42647 97.196915 225.83272 97.46254L225.48897 96.93129Q225.8796 96.759415 226.0671 96.43129Q226.2546 96.103165 226.27022 95.478165L225.58272 95.478165ZM235.3796 94.290665L235.3796 95.478165L228.7546 95.478165Q228.73897 95.040665 228.89522 94.61879Q229.16084 93.946915 229.70772 93.290665Q230.27022 92.634415 231.3171 91.77504Q232.95772 90.43129 233.52022 89.65004Q234.09834 88.86879 234.09834 88.165665Q234.09834 87.43129 233.5671 86.93129Q233.05147 86.43129 232.22334 86.43129Q231.33272 86.43129 230.78584 86.96254Q230.2546 87.49379 230.2546 88.446915L228.98897 88.30629Q229.11397 86.90004 229.95772 86.165665Q230.8171 85.415665 232.23897 85.415665Q233.6921 85.415665 234.52022 86.21254Q235.36397 87.009415 235.36397 88.196915Q235.36397 88.80629 235.11397 89.384415Q234.8796 89.96254 234.30147 90.603165Q233.73897 91.24379 232.41084 92.36879Q231.30147 93.290665 230.98897 93.634415Q230.67647 93.96254 230.47334 94.290665L235.3796 94.290665ZM236.91084 92.853165L238.20772 92.74379Q238.34834 93.68129 238.86397 94.165665Q239.39522 94.634415 240.1296 94.634415Q241.02022 94.634415 241.6296 93.96254Q242.2546 93.290665 242.2546 92.196915Q242.2546 91.134415 241.66084 90.52504Q241.0671 89.915665 240.11397 89.915665Q239.52022 89.915665 239.03584 90.196915Q238.5671 90.46254 238.28584 90.884415L237.1296 90.74379L238.09834 85.58754L243.08272 85.58754L243.08272 86.77504L239.08272 86.77504L238.55147 89.46254Q239.45772 88.83754 240.4421 88.83754Q241.7546 88.83754 242.64522 89.74379Q243.55147 90.65004 243.55147 92.08754Q243.55147 93.446915 242.77022 94.43129Q241.80147 95.65004 240.1296 95.65004Q238.77022 95.65004 237.89522 94.884415Q237.03584 94.11879 236.91084 92.853165Z" fill-rule="nonzero"/><path stroke="#ffffff" stroke-width="1.0" stroke-linejoin="round" stroke-linecap="round" d="M300.0 185.5L300.0 18.55C327.87787 18.55 355.31195 25.531042 379.799 38.856148" fill-rule="nonzero"/><path stroke="#ffffff" stroke-width="1.0" stroke-linejoin="round" stroke-linecap="round" d="M300.0 185.5L379.799 38.856148C410.62027 55.62812 435.3735 81.68492 450.5429 113.32569" fill-rule="nonzero"/><path stroke="#ffffff" stroke-width="1.0" stroke-linejoin="round" stroke-linecap="round" d="M300.0 185.5L450.5429 113.32569C469.53204 152.93365 472.14676 198.42947 457.82037 239.95215" fill-rule="nonzero"/><path stroke="#ffffff" stroke-width="1.0" stroke-linejoin="round" stroke-linecap="round" d="M300.0 185.5L457.82037 239.95215C431.77386 315.44357 355.9134 361.91818 276.82788 350.83408" fill-rule="nonzero"/><path stroke="#ffffff" stroke-width="1.0" stroke-linejoin="round" stroke-linecap="round" d="M300.0 185.5L276.82788 350.83408C231.22636 344.44287 190.28944 319.5009 163.69897 281.9071C137.1085 244.31334 127.22591 197.40633 136.38849 152.27992" fill-rule="nonzero"/><path stroke="#ffffff" stroke-width="1.0" stroke-linejoin="round" stroke-linecap="round" d="M300.0 185.5L136.38849 152.27992C152.18736 74.46919 220.60156 18.55 300.0 18.55" fill-rule="nonzero"/><path fill="#000000" d="M22.4875 57.199142L18.6125 47.183517L20.05 47.183517L22.659374 54.464767Q22.971874 55.339767 23.175 56.105392Q23.409374 55.277267 23.721874 54.464767L26.425 47.183517L27.784374 47.183517L23.8625 57.199142L22.4875 57.199142ZM33.440624 54.855392L34.721874 55.011642Q34.409374 56.136642 33.596874 56.761642Q32.784374 57.371017 31.51875 57.371017Q29.925 57.371017 28.9875 56.386642Q28.065624 55.402267 28.065624 53.636642Q28.065624 51.792892 29.003124 50.792892Q29.95625 49.777267 31.45625 49.777267Q32.909374 49.777267 33.83125 50.777267Q34.753124 51.761642 34.753124 53.558517Q34.753124 53.667892 34.753124 53.886642L29.33125 53.886642Q29.409374 55.074142 30.003124 55.714767Q30.6125 56.355392 31.534374 56.355392Q32.20625 56.355392 32.675 55.996017Q33.159374 55.636642 33.440624 54.855392ZM29.409374 52.871017L33.45625 52.871017Q33.378124 51.949142 32.9875 51.496017Q32.409374 50.792892 31.471874 50.792892Q30.6125 50.792892 30.034374 51.355392Q29.471874 51.917892 29.409374 52.871017ZM36.45625 57.199142L36.45625 49.933517L37.565624 49.933517L37.565624 51.042892Q37.9875 50.261642 38.346874 50.027267Q38.70625 49.777267 39.14375 49.777267Q39.76875 49.777267 40.409374 50.167892L39.9875 51.308517Q39.534374 51.042892 39.08125 51.042892Q38.675 51.042892 38.346874 51.292892Q38.034374 51.527267 37.89375 51.964767Q37.690624 52.621017 37.690624 53.402267L37.690624 57.199142L36.45625 57.199142ZM41.4875 48.589767L41.4875 47.183517L42.70625 47.183517L42.70625 48.589767L41.4875 48.589767ZM41.4875 57.199142L41.4875 49.933517L42.70625 49.933517L42.70625 57.199142L41.4875 57.199142ZM44.76875 57.199142L44.76875 50.902267L43.675 50.902267L43.675 49.933517L44.76875 49.933517L44.76875 49.167892Q44.76875 48.433517 44.89375 48.074142Q45.08125 47.605392 45.51875 47.308517Q45.971874 47.011642 46.784374 47.011642Q47.3 47.011642 47.925 47.136642L47.7375 48.199142Q47.3625 48.136642 47.01875 48.136642Q46.45625 48.136642 46.221874 48.371017Q45.9875 48.605392 45.9875 49.261642L45.9875 49.933517L47.409374 49.933517L47.409374 50.902267L45.9875 50.902267L45.9875 57.199142L44.76875 57.199142ZM48.4875 48.589767L48.4875 47.183517L49.70625 47.183517L49.70625 48.589767L48.4875 48.589767ZM48.4875 57.199142L48.4875 49.933517L49.70625 49.933517L49.70625 57.199142L48.4875 57.199142ZM56.20625 54.542892L57.425 54.699142Q57.221874 55.949142 56.39375 56.667892Q55.58125 57.371017 54.39375 57.371017Q52.909374 57.371017 52.003124 56.402267Q51.096874 55.417892 51.096874 53.589767Q51.096874 52.417892 51.4875 51.542892Q51.878124 50.652267 52.675 50.214767Q53.471874 49.777267 54.409374 49.777267Q55.58125 49.777267 56.33125 50.371017Q57.096874 50.964767 57.3 52.074142L56.1125 52.261642Q55.940624 51.527267 55.503124 51.167892Q55.065624 50.792892 54.45625 50.792892Q53.51875 50.792892 52.940624 51.464767Q52.3625 52.121017 52.3625 53.558517Q52.3625 55.027267 52.925 55.699142Q53.4875 56.355392 54.378124 56.355392Q55.1125 56.355392 55.596874 55.917892Q56.08125 55.464767 56.20625 54.542892ZM63.20625 56.308517Q62.534374 56.886642 61.89375 57.136642Q61.26875 57.371017 60.534374 57.371017Q59.346874 57.371017 58.690624 56.792892Q58.05 56.199142 58.05 55.277267Q58.05 54.746017 58.284374 54.308517Q58.534374 53.871017 58.925 53.605392Q59.33125 53.339767 59.815624 53.199142Q60.175 53.105392 60.909374 53.011642Q62.409374 52.839767 63.1125 52.589767Q63.1125 52.339767 63.1125 52.277267Q63.1125 51.511642 62.76875 51.214767Q62.3 50.792892 61.3625 50.792892Q60.503124 50.792892 60.08125 51.105392Q59.675 51.402267 59.471874 52.167892L58.26875 52.011642Q58.425 51.230392 58.8 50.761642Q59.190624 50.292892 59.89375 50.042892Q60.6125 49.777267 61.55 49.777267Q62.471874 49.777267 63.05 49.996017Q63.628124 50.214767 63.89375 50.542892Q64.175 50.871017 64.28438 51.386642Q64.34688 51.699142 64.34688 52.511642L64.34688 54.152267Q64.34688 55.871017 64.425 56.324142Q64.50313 56.777267 64.7375 57.199142L63.45625 57.199142Q63.26875 56.808517 63.20625 56.308517ZM63.1125 53.558517Q62.440624 53.824142 61.096874 54.027267Q60.346874 54.136642 60.01875 54.277267Q59.70625 54.402267 59.534374 54.667892Q59.3625 54.933517 59.3625 55.246017Q59.3625 55.746017 59.7375 56.074142Q60.1125 56.402267 60.83125 56.402267Q61.55 56.402267 62.096874 56.089767Q62.64375 55.777267 62.909374 55.230392Q63.1125 54.824142 63.1125 54.011642L63.1125 53.558517ZM69.15938 56.105392L69.33125 57.183517Q68.81563 57.292892 68.40938 57.292892Q67.7375 57.292892 67.3625 57.089767Q67.00313 56.871017 66.84688 56.527267Q66.70625 56.183517 66.70625 55.074142L66.70625 50.902267L65.8 50.902267L65.8 49.933517L66.70625 49.933517L66.70625 48.136642L67.925 47.402267L67.925 49.933517L69.15938 49.933517L69.15938 50.902267L67.925 50.902267L67.925 55.136642Q67.925 55.667892 67.9875 55.824142Q68.05 55.964767 68.19063 56.058517Q68.34688 56.152267 68.6125 56.152267Q68.83125 56.152267 69.15938 56.105392ZM70.01875 53.574142Q70.01875 51.558517 71.14375 50.574142Q72.06563 49.777267 73.425 49.777267Q74.90938 49.777267 75.8625 50.761642Q76.81563 51.730392 76.81563 53.464767Q76.81563 54.871017 76.39375 55.683517Q75.97188 56.480392 75.15938 56.933517Q74.3625 57.371017 73.425 57.371017Q71.89375 57.371017 70.95625 56.386642Q70.01875 55.402267 70.01875 53.574142ZM71.28438 53.574142Q71.28438 54.964767 71.89375 55.667892Q72.50313 56.355392 73.425 56.355392Q74.33125 56.355392 74.94063 55.652267Q75.55 54.949142 75.55 53.527267Q75.55 52.183517 74.94063 51.496017Q74.33125 50.792892 73.425 50.792892Q72.50313 50.792892 71.89375 51.480392Q71.28438 52.167892 71.28438 53.574142ZM78.45625 57.199142L78.45625 49.933517L79.56563 49.933517L79.56563 51.042892Q79.9875 50.261642 80.34688 50.027267Q80.70625 49.777267 81.14375 49.777267Q81.76875 49.777267 82.40938 50.167892L81.9875 51.308517Q81.53438 51.042892 81.08125 51.042892Q80.675 51.042892 80.34688 51.292892Q80.03438 51.527267 79.89375 51.964767Q79.69063 52.621017 79.69063 53.402267L79.69063 57.199142L78.45625 57.199142ZM88.44063 54.855392L89.72188 55.011642Q89.40938 56.136642 88.59688 56.761642Q87.78438 57.371017 86.51875 57.371017Q84.925 57.371017 83.9875 56.386642Q83.06563 55.402267 83.06563 53.636642Q83.06563 51.792892 84.00313 50.792892Q84.95625 49.777267 86.45625 49.777267Q87.90938 49.777267 88.83125 50.777267Q89.75313 51.761642 89.75313 53.558517Q89.75313 53.667892 89.75313 53.886642L84.33125 53.886642Q84.40938 55.074142 85.00313 55.714767Q85.6125 56.355392 86.53438 56.355392Q87.20625 56.355392 87.675 55.996017Q88.15938 55.636642 88.44063 54.855392ZM84.40938 52.871017L88.45625 52.871017Q88.37813 51.949142 87.9875 51.496017Q87.40938 50.792892 86.47188 50.792892Q85.6125 50.792892 85.03438 51.355392Q84.47188 51.917892 84.40938 52.871017Z" fill-rule="nonzero"/><path fill="#9e9e9e" d="M25.596874 76.01164L25.596874 77.19914L18.971874 77.19914Q18.95625 76.76164 19.1125 76.33977Q19.378124 75.66789 19.925 75.01164Q20.4875 74.35539 21.534374 73.49602Q23.175 72.15227 23.7375 71.37102Q24.315624 70.58977 24.315624 69.88664Q24.315624 69.15227 23.784374 68.65227Q23.26875 68.15227 22.440624 68.15227Q21.55 68.15227 21.003124 68.68352Q20.471874 69.21477 20.471874 70.16789L19.20625 70.02727Q19.33125 68.62102 20.175 67.88664Q21.034374 67.13664 22.45625 67.13664Q23.909374 67.13664 24.7375 67.93352Q25.58125 68.73039 25.58125 69.91789Q25.58125 70.52727 25.33125 71.10539Q25.096874 71.68352 24.51875 72.32414Q23.95625 72.96477 22.628124 74.08977Q21.51875 75.01164 21.20625 75.35539Q20.89375 75.68352 20.690624 76.01164L25.596874 76.01164ZM31.76875 77.19914L30.534374 77.19914L30.534374 69.35539Q30.096874 69.77727 29.3625 70.21477Q28.64375 70.63664 28.08125 70.83977L28.08125 69.65227Q29.1125 69.16789 29.878124 68.48039Q30.659374 67.79289 30.971874 67.13664L31.76875 67.13664L31.76875 77.19914ZM35.8 77.19914L35.8 75.79289L37.190624 75.79289L37.190624 77.19914Q37.190624 77.96477 36.909374 78.43352Q36.64375 78.91789 36.05 79.18352L35.70625 78.65227Q36.096874 78.48039 36.284374 78.15227Q36.471874 77.82414 36.4875 77.19914L35.8 77.19914ZM41.01875 71.76164Q40.253124 71.48039 39.878124 70.96477Q39.51875 70.44914 39.51875 69.71477Q39.51875 68.62102 40.3 67.88664Q41.096874 67.13664 42.39375 67.13664Q43.70625 67.13664 44.503124 67.90227Q45.315624 68.66789 45.315624 69.76164Q45.315624 70.44914 44.940624 70.96477Q44.58125 71.48039 43.83125 71.76164Q44.753124 72.05852 45.2375 72.73039Q45.721874 73.40227 45.721874 74.33977Q45.721874 75.62102 44.815624 76.49602Q43.909374 77.37102 42.425 77.37102Q40.940624 77.37102 40.01875 76.49602Q39.1125 75.60539 39.1125 74.29289Q39.1125 73.32414 39.6125 72.66789Q40.1125 71.99602 41.01875 71.76164ZM40.784374 69.68352Q40.784374 70.38664 41.2375 70.83977Q41.690624 71.29289 42.425 71.29289Q43.14375 71.29289 43.596874 70.85539Q44.05 70.40227 44.05 69.74602Q44.05 69.07414 43.58125 68.62102Q43.1125 68.15227 42.409374 68.15227Q41.70625 68.15227 41.2375 68.60539Q40.784374 69.04289 40.784374 69.68352ZM40.378124 74.30852Q40.378124 74.83977 40.628124 75.33977Q40.878124 75.82414 41.3625 76.08977Q41.8625 76.35539 42.440624 76.35539Q43.315624 76.35539 43.878124 75.79289Q44.45625 75.23039 44.45625 74.35539Q44.45625 73.46477 43.8625 72.88664Q43.284374 72.29289 42.39375 72.29289Q41.51875 72.29289 40.940624 72.87102Q40.378124 73.44914 40.378124 74.30852ZM47.3625 69.58977Q47.3625 68.51164 47.89375 67.76164Q48.440624 67.01164 49.471874 67.01164Q50.409374 67.01164 51.01875 67.68352Q51.64375 68.35539 51.64375 69.65227Q51.64375 70.93352 51.01875 71.62102Q50.39375 72.30852 49.4875 72.30852Q48.58125 72.30852 47.971874 71.63664Q47.3625 70.94914 47.3625 69.58977ZM49.503124 67.85539Q49.05 67.85539 48.7375 68.26164Q48.440624 68.65227 48.440624 69.69914Q48.440624 70.66789 48.7375 71.05852Q49.05 71.44914 49.503124 71.44914Q49.971874 71.44914 50.26875 71.05852Q50.58125 70.66789 50.58125 69.60539Q50.58125 68.63664 50.26875 68.24602Q49.95625 67.85539 49.503124 67.85539ZM49.503124 77.57414L54.9875 67.01164L55.9875 67.01164L50.534374 77.57414L49.503124 77.57414ZM53.846874 74.83977Q53.846874 73.76164 54.378124 73.02727Q54.925 72.27727 55.95625 72.27727Q56.89375 72.27727 57.51875 72.94914Q58.14375 73.62102 58.14375 74.91789Q58.14375 76.19914 57.51875 76.88664Q56.89375 77.57414 55.95625 77.57414Q55.05 77.57414 54.440624 76.90227Q53.846874 76.21477 53.846874 74.83977ZM55.9875 73.12102Q55.51875 73.12102 55.221874 73.52727Q54.925 73.91789 54.925 74.96477Q54.925 75.93352 55.221874 76.32414Q55.534374 76.71477 55.9875 76.71477Q56.45625 76.71477 56.753124 76.32414Q57.065624 75.93352 57.065624 74.87102Q57.065624 73.90227 56.753124 73.51164Q56.45625 73.12102 55.9875 73.12102Z" fill-rule="nonzero"/><path stroke="#757575" stroke-width="1.0" stroke-linecap="butt" d="M18.55 62.699142L127.05 62.699142L199.62718 62.699142" fill-rule="nonzero"/><path fill="#9e9e9e" d="M201.62718 62.699142C201.62718 61.59457 200.73175 60.699142 199.62718 60.699142C198.52261 60.699142 197.62718 61.59457 197.62718 62.699142C197.62718 63.80371 198.52261 64.69914 199.62718 64.69914C200.73175 64.69914 201.62718 63.80371 201.62718 62.699142" fill-rule="nonzero"/><path fill="#000000" d="M19.628124 271.58676L19.628124 261.57114L23.409374 261.57114Q24.409374 261.57114 24.940624 261.6649Q25.675 261.7899 26.175 262.13364Q26.675 262.4774 26.971874 263.1024Q27.284374 263.71176 27.284374 264.46176Q27.284374 265.743 26.471874 266.63364Q25.659374 267.50864 23.534374 267.50864L20.95625 267.50864L20.95625 271.58676L19.628124 271.58676ZM20.95625 266.33676L23.55 266.33676Q24.83125 266.33676 25.3625 265.8524Q25.909374 265.368 25.909374 264.50864Q25.909374 263.868 25.596874 263.4305Q25.284374 262.9774 24.753124 262.83676Q24.425 262.743 23.51875 262.743L20.95625 262.743L20.95625 266.33676ZM28.45625 271.58676L28.45625 264.32114L29.565624 264.32114L29.565624 265.4305Q29.9875 264.64926 30.346874 264.4149Q30.70625 264.1649 31.14375 264.1649Q31.76875 264.1649 32.409374 264.5555L31.9875 265.69614Q31.534374 265.4305 31.08125 265.4305Q30.675 265.4305 30.346874 265.6805Q30.034374 265.9149 29.89375 266.3524Q29.690624 267.00864 29.690624 267.7899L29.690624 271.58676L28.45625 271.58676ZM33.01875 267.96176Q33.01875 265.94614 34.14375 264.96176Q35.065624 264.1649 36.425 264.1649Q37.909374 264.1649 38.8625 265.14926Q39.815624 266.118 39.815624 267.8524Q39.815624 269.25864 39.39375 270.07114Q38.971874 270.868 38.159374 271.32114Q37.3625 271.75864 36.425 271.75864Q34.89375 271.75864 33.95625 270.77426Q33.01875 269.7899 33.01875 267.96176ZM34.284374 267.96176Q34.284374 269.3524 34.89375 270.0555Q35.503124 270.743 36.425 270.743Q37.33125 270.743 37.940624 270.0399Q38.55 269.33676 38.55 267.9149Q38.55 266.57114 37.940624 265.88364Q37.33125 265.1805 36.425 265.1805Q35.503124 265.1805 34.89375 265.868Q34.284374 266.5555 34.284374 267.96176ZM41.253124 272.19614L42.440624 272.368Q42.51875 272.9149 42.8625 273.1805Q43.315624 273.50864 44.1125 273.50864Q44.971874 273.50864 45.425 273.1649Q45.89375 272.83676 46.065624 272.21176Q46.159374 271.83676 46.14375 270.63364Q45.346874 271.58676 44.14375 271.58676Q42.64375 271.58676 41.815624 270.50864Q41.003124 269.4305 41.003124 267.9149Q41.003124 266.88364 41.378124 266.00864Q41.753124 265.118 42.45625 264.64926Q43.175 264.1649 44.14375 264.1649Q45.425 264.1649 46.26875 265.19614L46.26875 264.32114L47.39375 264.32114L47.39375 270.6024Q47.39375 272.3055 47.05 273.00864Q46.70625 273.71176 45.95625 274.118Q45.20625 274.5399 44.1125 274.5399Q42.815624 274.5399 42.01875 273.94614Q41.221874 273.368 41.253124 272.19614ZM42.26875 267.82114Q42.26875 269.25864 42.83125 269.9149Q43.39375 270.57114 44.253124 270.57114Q45.096874 270.57114 45.675 269.9149Q46.253124 269.25864 46.253124 267.868Q46.253124 266.5399 45.659374 265.868Q45.065624 265.1805 44.2375 265.1805Q43.409374 265.1805 42.83125 265.8524Q42.26875 266.50864 42.26875 267.82114ZM49.45625 271.58676L49.45625 264.32114L50.565624 264.32114L50.565624 265.4305Q50.9875 264.64926 51.346874 264.4149Q51.70625 264.1649 52.14375 264.1649Q52.76875 264.1649 53.409374 264.5555L52.9875 265.69614Q52.534374 265.4305 52.08125 265.4305Q51.675 265.4305 51.346874 265.6805Q51.034374 265.9149 50.89375 266.3524Q50.690624 267.00864 50.690624 267.7899L50.690624 271.58676L49.45625 271.58676ZM59.20625 270.69614Q58.534374 271.27426 57.89375 271.52426Q57.26875 271.75864 56.534374 271.75864Q55.346874 271.75864 54.690624 271.1805Q54.05 270.58676 54.05 269.6649Q54.05 269.13364 54.284374 268.69614Q54.534374 268.25864 54.925 267.993Q55.33125 267.7274 55.815624 267.58676Q56.175 267.493 56.909374 267.39926Q58.409374 267.2274 59.1125 266.9774Q59.1125 266.7274 59.1125 266.6649Q59.1125 265.89926 58.76875 265.6024Q58.3 265.1805 57.3625 265.1805Q56.503124 265.1805 56.08125 265.493Q55.675 265.7899 55.471874 266.5555L54.26875 266.39926Q54.425 265.618 54.8 265.14926Q55.190624 264.6805 55.89375 264.4305Q56.6125 264.1649 57.55 264.1649Q58.471874 264.1649 59.05 264.38364Q59.628124 264.6024 59.89375 264.9305Q60.175 265.25864 60.284374 265.77426Q60.346874 266.08676 60.346874 266.89926L60.346874 268.5399Q60.346874 270.25864 60.425 270.71176Q60.503124 271.1649 60.7375 271.58676L59.45625 271.58676Q59.26875 271.19614 59.20625 270.69614ZM59.1125 267.94614Q58.440624 268.21176 57.096874 268.4149Q56.346874 268.52426 56.01875 268.6649Q55.70625 268.7899 55.534374 269.0555Q55.3625 269.32114 55.3625 269.63364Q55.3625 270.13364 55.7375 270.46176Q56.1125 270.7899 56.83125 270.7899Q57.55 270.7899 58.096874 270.4774Q58.64375 270.1649 58.909374 269.618Q59.1125 269.21176 59.1125 268.39926L59.1125 267.94614ZM62.471874 271.58676L62.471874 264.32114L63.58125 264.32114L63.58125 265.3524Q63.909374 264.8055 64.47188 264.493Q65.05 264.1649 65.76875 264.1649Q66.58125 264.1649 67.09688 264.50864Q67.6125 264.83676 67.83125 265.4305Q68.69063 264.1649 70.06563 264.1649Q71.14375 264.1649 71.72188 264.75864Q72.31563 265.3524 72.31563 266.6024L72.31563 271.58676L71.08125 271.58676L71.08125 267.00864Q71.08125 266.27426 70.95625 265.94614Q70.84688 265.618 70.53438 265.4305Q70.22188 265.2274 69.8 265.2274Q69.03438 265.2274 68.51875 265.743Q68.01875 266.243 68.01875 267.368L68.01875 271.58676L66.78438 271.58676L66.78438 266.868Q66.78438 266.0555 66.4875 265.64926Q66.19063 265.2274 65.50313 265.2274Q64.9875 265.2274 64.53438 265.50864Q64.09688 265.77426 63.89375 266.3055Q63.70625 266.82114 63.70625 267.82114L63.70625 271.58676L62.471874 271.58676ZM73.47188 271.58676L73.47188 264.32114L74.58125 264.32114L74.58125 265.3524Q74.90938 264.8055 75.47188 264.493Q76.05 264.1649 76.76875 264.1649Q77.58125 264.1649 78.09688 264.50864Q78.6125 264.83676 78.83125 265.4305Q79.69063 264.1649 81.06563 264.1649Q82.14375 264.1649 82.72188 264.75864Q83.31563 265.3524 83.31563 266.6024L83.31563 271.58676L82.08125 271.58676L82.08125 267.00864Q82.08125 266.27426 81.95625 265.94614Q81.84688 265.618 81.53438 265.4305Q81.22188 265.2274 80.8 265.2274Q80.03438 265.2274 79.51875 265.743Q79.01875 266.243 79.01875 267.368L79.01875 271.58676L77.78438 271.58676L77.78438 266.868Q77.78438 266.0555 77.4875 265.64926Q77.19063 265.2274 76.50313 265.2274Q75.9875 265.2274 75.53438 265.50864Q75.09688 265.77426 74.89375 266.3055Q74.70625 266.82114 74.70625 267.82114L74.70625 271.58676L73.47188 271.58676ZM89.20625 270.69614Q88.53438 271.27426 87.89375 271.52426Q87.26875 271.75864 86.53438 271.75864Q85.34688 271.75864 84.69063 271.1805Q84.05 270.58676 84.05 269.6649Q84.05 269.13364 84.28438 268.69614Q84.53438 268.25864 84.925 267.993Q85.33125 267.7274 85.81563 267.58676Q86.175 267.493 86.90938 267.39926Q88.40938 267.2274 89.1125 266.9774Q89.1125 266.7274 89.1125 266.6649Q89.1125 265.89926 88.76875 265.6024Q88.3 265.1805 87.3625 265.1805Q86.50313 265.1805 86.08125 265.493Q85.675 265.7899 85.47188 266.5555L84.26875 266.39926Q84.425 265.618 84.8 265.14926Q85.19063 264.6805 85.89375 264.4305Q86.6125 264.1649 87.55 264.1649Q88.47188 264.1649 89.05 264.38364Q89.62813 264.6024 89.89375 264.9305Q90.175 265.25864 90.28438 265.77426Q90.34688 266.08676 90.34688 266.89926L90.34688 268.5399Q90.34688 270.25864 90.425 270.71176Q90.50313 271.1649 90.7375 271.58676L89.45625 271.58676Q89.26875 271.19614 89.20625 270.69614ZM89.1125 267.94614Q88.44063 268.21176 87.09688 268.4149Q86.34688 268.52426 86.01875 268.6649Q85.70625 268.7899 85.53438 269.0555Q85.3625 269.32114 85.3625 269.63364Q85.3625 270.13364 85.7375 270.46176Q86.1125 270.7899 86.83125 270.7899Q87.55 270.7899 88.09688 270.4774Q88.64375 270.1649 88.90938 269.618Q89.1125 269.21176 89.1125 268.39926L89.1125 267.94614ZM95.15938 270.493L95.33125 271.57114Q94.81563 271.6805 94.40938 271.6805Q93.7375 271.6805 93.3625 271.4774Q93.00313 271.25864 92.84688 270.9149Q92.70625 270.57114 92.70625 269.46176L92.70625 265.2899L91.8 265.2899L91.8 264.32114L92.70625 264.32114L92.70625 262.52426L93.925 261.7899L93.925 264.32114L95.15938 264.32114L95.15938 265.2899L93.925 265.2899L93.925 269.52426Q93.925 270.0555 93.9875 270.21176Q94.05 270.3524 94.19063 270.44614Q94.34688 270.5399 94.6125 270.5399Q94.83125 270.5399 95.15938 270.493ZM96.01875 267.96176Q96.01875 265.94614 97.14375 264.96176Q98.06563 264.1649 99.425 264.1649Q100.90938 264.1649 101.8625 265.14926Q102.81563 266.118 102.81563 267.8524Q102.81563 269.25864 102.39375 270.07114Q101.97188 270.868 101.15938 271.32114Q100.3625 271.75864 99.425 271.75864Q97.89375 271.75864 96.95625 270.77426Q96.01875 269.7899 96.01875 267.96176ZM97.28438 267.96176Q97.28438 269.3524 97.89375 270.0555Q98.50313 270.743 99.425 270.743Q100.33125 270.743 100.94063 270.0399Q101.55 269.33676 101.55 267.9149Q101.55 266.57114 100.94063 265.88364Q100.33125 265.1805 99.425 265.1805Q98.50313 265.1805 97.89375 265.868Q97.28438 266.5555 97.28438 267.96176ZM104.45625 271.58676L104.45625 264.32114L105.56563 264.32114L105.56563 265.4305Q105.9875 264.64926 106.34688 264.4149Q106.70625 264.1649 107.14375 264.1649Q107.76875 264.1649 108.40938 264.5555L107.9875 265.69614Q107.53438 265.4305 107.08125 265.4305Q106.675 265.4305 106.34688 265.6805Q106.03438 265.9149 105.89375 266.3524Q105.69063 267.00864 105.69063 267.7899L105.69063 271.58676L104.45625 271.58676ZM114.44063 269.243L115.72188 269.39926Q115.40938 270.52426 114.59688 271.14926Q113.78438 271.75864 112.51875 271.75864Q110.925 271.75864 109.9875 270.77426Q109.06563 269.7899 109.06563 268.02426Q109.06563 266.1805 110.00313 265.1805Q110.95625 264.1649 112.45625 264.1649Q113.90938 264.1649 114.83125 265.1649Q115.75313 266.14926 115.75313 267.94614Q115.75313 268.0555 115.75313 268.27426L110.33125 268.27426Q110.40938 269.46176 111.00313 270.1024Q111.6125 270.743 112.53438 270.743Q113.20625 270.743 113.675 270.38364Q114.15938 270.02426 114.44063 269.243ZM110.40938 267.25864L114.45625 267.25864Q114.37813 266.33676 113.9875 265.88364Q113.40938 265.1805 112.47188 265.1805Q111.6125 265.1805 111.03438 265.743Q110.47188 266.3055 110.40938 267.25864Z" fill-rule="nonzero"/><path fill="#9e9e9e" d="M25.596874 290.39926L25.596874 291.58676L18.971874 291.58676Q18.95625 291.14926 19.1125 290.7274Q19.378124 290.0555 19.925 289.39926Q20.4875 288.743 21.534374 287.88364Q23.175 286.5399 23.7375 285.75864Q24.315624 284.9774 24.315624 284.27426Q24.315624 283.5399 23.784374 283.0399Q23.26875 282.5399 22.440624 282.5399Q21.55 282.5399 21.003124 283.07114Q20.471874 283.6024 20.471874 284.5555L19.20625 284.4149Q19.33125 283.00864 20.175 282.27426Q21.034374 281.52426 22.45625 281.52426Q23.909374 281.52426 24.7375 282.32114Q25.58125 283.118 25.58125 284.3055Q25.58125 284.9149 25.33125 285.493Q25.096874 286.07114 24.51875 286.71176Q23.95625 287.3524 22.628124 288.4774Q21.51875 289.39926 21.20625 289.743Q20.89375 290.07114 20.690624 290.39926L25.596874 290.39926ZM33.51875 284.02426L32.3 284.118Q32.128124 283.38364 31.83125 283.0555Q31.33125 282.5399 30.596874 282.5399Q30.003124 282.5399 29.565624 282.868Q28.9875 283.2899 28.64375 284.1024Q28.315624 284.9149 28.3 286.4149Q28.7375 285.743 29.378124 285.4149Q30.034374 285.08676 30.7375 285.08676Q31.971874 285.08676 32.83125 285.993Q33.690624 286.89926 33.690624 288.33676Q33.690624 289.27426 33.284374 290.08676Q32.878124 290.89926 32.159374 291.33676Q31.45625 291.75864 30.55 291.75864Q29.01875 291.75864 28.05 290.63364Q27.08125 289.493 27.08125 286.89926Q27.08125 283.993 28.14375 282.6649Q29.08125 281.52426 30.675 281.52426Q31.8625 281.52426 32.6125 282.19614Q33.3625 282.8524 33.51875 284.02426ZM28.4875 288.33676Q28.4875 288.9774 28.753124 289.5555Q29.034374 290.13364 29.51875 290.44614Q30.003124 290.743 30.534374 290.743Q31.315624 290.743 31.878124 290.118Q32.440624 289.493 32.440624 288.4149Q32.440624 287.368 31.878124 286.77426Q31.33125 286.1649 30.4875 286.1649Q29.659374 286.1649 29.065624 286.77426Q28.4875 287.368 28.4875 288.33676ZM35.8 291.58676L35.8 290.1805L37.190624 290.1805L37.190624 291.58676Q37.190624 292.3524 36.909374 292.82114Q36.64375 293.3055 36.05 293.57114L35.70625 293.0399Q36.096874 292.868 36.284374 292.5399Q36.471874 292.21176 36.4875 291.58676L35.8 291.58676ZM39.128124 286.64926Q39.128124 284.868 39.4875 283.7899Q39.8625 282.69614 40.58125 282.118Q41.3 281.52426 42.39375 281.52426Q43.20625 281.52426 43.815624 281.8524Q44.425 282.1805 44.815624 282.7899Q45.221874 283.39926 45.440624 284.27426Q45.659374 285.14926 45.659374 286.64926Q45.659374 288.4149 45.3 289.493Q44.940624 290.57114 44.221874 291.1649Q43.503124 291.75864 42.39375 291.75864Q40.95625 291.75864 40.128124 290.71176Q39.128124 289.46176 39.128124 286.64926ZM40.39375 286.64926Q40.39375 289.118 40.971874 289.9305Q41.55 290.743 42.39375 290.743Q43.253124 290.743 43.83125 289.9305Q44.409374 289.1024 44.409374 286.64926Q44.409374 284.1649 43.83125 283.3524Q43.253124 282.5399 42.378124 282.5399Q41.534374 282.5399 41.034374 283.25864Q40.39375 284.1805 40.39375 286.64926ZM47.3625 283.9774Q47.3625 282.89926 47.89375 282.14926Q48.440624 281.39926 49.471874 281.39926Q50.409374 281.39926 51.01875 282.07114Q51.64375 282.743 51.64375 284.0399Q51.64375 285.32114 51.01875 286.00864Q50.39375 286.69614 49.4875 286.69614Q48.58125 286.69614 47.971874 286.02426Q47.3625 285.33676 47.3625 283.9774ZM49.503124 282.243Q49.05 282.243 48.7375 282.64926Q48.440624 283.0399 48.440624 284.08676Q48.440624 285.0555 48.7375 285.44614Q49.05 285.83676 49.503124 285.83676Q49.971874 285.83676 50.26875 285.44614Q50.58125 285.0555 50.58125 283.993Q50.58125 283.02426 50.26875 282.63364Q49.95625 282.243 49.503124 282.243ZM49.503124 291.96176L54.9875 281.39926L55.9875 281.39926L50.534374 291.96176L49.503124 291.96176ZM53.846874 289.2274Q53.846874 288.14926 54.378124 287.4149Q54.925 286.6649 55.95625 286.6649Q56.89375 286.6649 57.51875 287.33676Q58.14375 288.00864 58.14375 289.3055Q58.14375 290.58676 57.51875 291.27426Q56.89375 291.96176 55.95625 291.96176Q55.05 291.96176 54.440624 291.2899Q53.846874 290.6024 53.846874 289.2274ZM55.9875 287.50864Q55.51875 287.50864 55.221874 287.9149Q54.925 288.3055 54.925 289.3524Q54.925 290.32114 55.221874 290.71176Q55.534374 291.1024 55.9875 291.1024Q56.45625 291.1024 56.753124 290.71176Q57.065624 290.32114 57.065624 289.25864Q57.065624 288.2899 56.753124 287.89926Q56.45625 287.50864 55.9875 287.50864Z" fill-rule="nonzero"/><path stroke="#757575" stroke-width="1.0" stroke-linecap="butt" d="M18.55 277.08676L127.05 277.08676L170.51402 277.08676" fill-rule="nonzero"/><path fill="#9e9e9e" d="M172.51402 277.08676C172.51402 275.98218 171.61859 275.08676 170.51402 275.08676C169.40945 275.08676 168.51402 275.98218 168.51402 277.08676C168.51402 278.19135 169.40945 279.08676 170.51402 279.08676C171.61859 279.08676 172.51402 278.19135 172.51402 277.08676" fill-rule="nonzero"/><path fill="#000000" d="M496.54376 31.55L496.54376 21.534374L500.9969 21.534374Q502.34064 21.534374 503.02814 21.8Q503.73126 22.065624 504.1375 22.753124Q504.5594 23.440624 504.5594 24.26875Q504.5594 25.33125 503.8719 26.065624Q503.1844 26.784374 501.7469 26.9875Q502.2625 27.2375 502.54376 27.4875Q503.1219 28.01875 503.6375 28.815624L505.3875 31.55L503.71564 31.55L502.3875 29.471874Q501.8094 28.565624 501.4344 28.096874Q501.0594 27.6125 500.7625 27.425Q500.46564 27.221874 500.15314 27.14375Q499.9344 27.096874 499.41876 27.096874L497.8719 27.096874L497.8719 31.55L496.54376 31.55ZM497.8719 25.95625L500.73126 25.95625Q501.6375 25.95625 502.15314 25.76875Q502.66876 25.58125 502.9344 25.175Q503.2 24.753124 503.2 24.26875Q503.2 23.55 502.6844 23.096874Q502.16876 22.628124 501.04376 22.628124L497.8719 22.628124L497.8719 25.95625ZM511.34064 29.20625L512.6219 29.3625Q512.3094 30.4875 511.4969 31.1125Q510.6844 31.721874 509.41876 31.721874Q507.825 31.721874 506.8875 30.7375Q505.96564 29.753124 505.96564 27.9875Q505.96564 26.14375 506.90314 25.14375Q507.85626 24.128124 509.35626 24.128124Q510.8094 24.128124 511.73126 25.128124Q512.65314 26.1125 512.65314 27.909374Q512.65314 28.01875 512.65314 28.2375L507.23126 28.2375Q507.3094 29.425 507.90314 30.065624Q508.5125 30.70625 509.4344 30.70625Q510.10626 30.70625 510.575 30.346874Q511.0594 29.9875 511.34064 29.20625ZM507.3094 27.221874L511.35626 27.221874Q511.27814 26.3 510.8875 25.846874Q510.3094 25.14375 509.3719 25.14375Q508.5125 25.14375 507.9344 25.70625Q507.3719 26.26875 507.3094 27.221874ZM513.8875 29.378124L515.09064 29.190624Q515.2 29.925 515.66876 30.315624Q516.1375 30.70625 516.98126 30.70625Q517.825 30.70625 518.23126 30.3625Q518.65314 30.01875 518.65314 29.55Q518.65314 29.128124 518.27814 28.89375Q518.02814 28.721874 517.02814 28.471874Q515.66876 28.128124 515.1375 27.878124Q514.6219 27.628124 514.35626 27.190624Q514.09064 26.753124 514.09064 26.221874Q514.09064 25.7375 514.3094 25.33125Q514.52814 24.909374 514.91876 24.628124Q515.2 24.425 515.6844 24.284374Q516.1844 24.128124 516.7625 24.128124Q517.60626 24.128124 518.2469 24.378124Q518.90314 24.6125 519.21564 25.034374Q519.52814 25.45625 519.6375 26.159374L518.4344 26.33125Q518.35626 25.76875 517.95 25.45625Q517.5594 25.14375 516.84064 25.14375Q515.9969 25.14375 515.6375 25.425Q515.27814 25.690624 515.27814 26.08125Q515.27814 26.315624 515.41876 26.503124Q515.575 26.70625 515.90314 26.83125Q516.075 26.89375 516.98126 27.14375Q518.29376 27.503124 518.8094 27.721874Q519.325 27.940624 519.60626 28.3625Q519.90314 28.784374 519.90314 29.409374Q519.90314 30.034374 519.54376 30.58125Q519.2 31.1125 518.5125 31.425Q517.84064 31.721874 516.98126 31.721874Q515.575 31.721874 514.825 31.128124Q514.09064 30.534374 513.8875 29.378124ZM521.3719 34.33125L521.3719 24.284374L522.4969 24.284374L522.4969 25.2375Q522.8875 24.675 523.3875 24.409374Q523.8875 24.128124 524.60626 24.128124Q525.52814 24.128124 526.23126 24.6125Q526.95 25.08125 527.3094 25.95625Q527.66876 26.83125 527.66876 27.8625Q527.66876 28.971874 527.2625 29.878124Q526.8719 30.76875 526.10626 31.253124Q525.35626 31.721874 524.5125 31.721874Q523.90314 31.721874 523.40314 31.45625Q522.91876 31.190624 522.60626 30.8L522.60626 34.33125L521.3719 34.33125ZM522.48126 27.95625Q522.48126 29.3625 523.04376 30.034374Q523.6219 30.70625 524.4344 30.70625Q525.2469 30.70625 525.825 30.01875Q526.41876 29.315624 526.41876 27.8625Q526.41876 26.471874 525.84064 25.784374Q525.27814 25.096874 524.48126 25.096874Q523.7 25.096874 523.09064 25.83125Q522.48126 26.565624 522.48126 27.95625ZM528.91876 27.925Q528.91876 25.909374 530.04376 24.925Q530.96564 24.128124 532.325 24.128124Q533.8094 24.128124 534.7625 25.1125Q535.71564 26.08125 535.71564 27.815624Q535.71564 29.221874 535.29376 30.034374Q534.8719 30.83125 534.0594 31.284374Q533.2625 31.721874 532.325 31.721874Q530.79376 31.721874 529.85626 30.7375Q528.91876 29.753124 528.91876 27.925ZM530.1844 27.925Q530.1844 29.315624 530.79376 30.01875Q531.40314 30.70625 532.325 30.70625Q533.23126 30.70625 533.84064 30.003124Q534.45 29.3 534.45 27.878124Q534.45 26.534374 533.84064 25.846874Q533.23126 25.14375 532.325 25.14375Q531.40314 25.14375 530.79376 25.83125Q530.1844 26.51875 530.1844 27.925ZM537.3719 31.55L537.3719 24.284374L538.48126 24.284374L538.48126 25.315624Q539.27814 24.128124 540.79376 24.128124Q541.45 24.128124 541.9969 24.3625Q542.54376 24.596874 542.8094 24.9875Q543.09064 25.3625 543.2 25.89375Q543.27814 26.2375 543.27814 27.08125L543.27814 31.55L542.04376 31.55L542.04376 27.128124Q542.04376 26.378124 541.90314 26.01875Q541.7625 25.64375 541.3875 25.425Q541.02814 25.190624 540.52814 25.190624Q539.7469 25.190624 539.16876 25.690624Q538.60626 26.190624 538.60626 27.58125L538.60626 31.55L537.3719 31.55ZM544.8875 29.378124L546.09064 29.190624Q546.2 29.925 546.66876 30.315624Q547.1375 30.70625 547.98126 30.70625Q548.825 30.70625 549.23126 30.3625Q549.65314 30.01875 549.65314 29.55Q549.65314 29.128124 549.27814 28.89375Q549.02814 28.721874 548.02814 28.471874Q546.66876 28.128124 546.1375 27.878124Q545.6219 27.628124 545.35626 27.190624Q545.09064 26.753124 545.09064 26.221874Q545.09064 25.7375 545.3094 25.33125Q545.52814 24.909374 545.91876 24.628124Q546.2 24.425 546.6844 24.284374Q547.1844 24.128124 547.7625 24.128124Q548.60626 24.128124 549.2469 24.378124Q549.90314 24.6125 550.21564 25.034374Q550.52814 25.45625 550.6375 26.159374L549.4344 26.33125Q549.35626 25.76875 548.95 25.45625Q548.5594 25.14375 547.84064 25.14375Q546.9969 25.14375 546.6375 25.425Q546.27814 25.690624 546.27814 26.08125Q546.27814 26.315624 546.41876 26.503124Q546.575 26.70625 546.90314 26.83125Q547.075 26.89375 547.98126 27.14375Q549.29376 27.503124 549.8094 27.721874Q550.325 27.940624 550.60626 28.3625Q550.90314 28.784374 550.90314 29.409374Q550.90314 30.034374 550.54376 30.58125Q550.2 31.1125 549.5125 31.425Q548.84064 31.721874 547.98126 31.721874Q546.575 31.721874 545.825 31.128124Q545.09064 30.534374 544.8875 29.378124ZM557.10626 30.659374Q556.4344 31.2375 555.79376 31.4875Q555.16876 31.721874 554.4344 31.721874Q553.2469 31.721874 552.59064 31.14375Q551.95 30.55 551.95 29.628124Q551.95 29.096874 552.1844 28.659374Q552.4344 28.221874 552.825 27.95625Q553.23126 27.690624 553.71564 27.55Q554.075 27.45625 554.8094 27.3625Q556.3094 27.190624 557.0125 26.940624Q557.0125 26.690624 557.0125 26.628124Q557.0125 25.8625 556.66876 25.565624Q556.2 25.14375 555.2625 25.14375Q554.40314 25.14375 553.98126 25.45625Q553.575 25.753124 553.3719 26.51875L552.16876 26.3625Q552.325 25.58125 552.7 25.1125Q553.09064 24.64375 553.79376 24.39375Q554.5125 24.128124 555.45 24.128124Q556.3719 24.128124 556.95 24.346874Q557.52814 24.565624 557.79376 24.89375Q558.075 25.221874 558.1844 25.7375Q558.2469 26.05 558.2469 26.8625L558.2469 28.503124Q558.2469 30.221874 558.325 30.675Q558.40314 31.128124 558.6375 31.55L557.35626 31.55Q557.16876 31.159374 557.10626 30.659374ZM557.0125 27.909374Q556.34064 28.175 554.9969 28.378124Q554.2469 28.4875 553.91876 28.628124Q553.60626 28.753124 553.4344 29.01875Q553.2625 29.284374 553.2625 29.596874Q553.2625 30.096874 553.6375 30.425Q554.0125 30.753124 554.73126 30.753124Q555.45 30.753124 555.9969 30.440624Q556.54376 30.128124 556.8094 29.58125Q557.0125 29.175 557.0125 28.3625L557.0125 27.909374ZM561.5125 31.55L560.3719 31.55L560.3719 21.534374L561.59064 21.534374L561.59064 25.096874Q562.3719 24.128124 563.59064 24.128124Q564.2625 24.128124 564.85626 24.39375Q565.45 24.659374 565.84064 25.159374Q566.23126 25.64375 566.45 26.33125Q566.66876 27.01875 566.66876 27.815624Q566.66876 29.675 565.73126 30.70625Q564.8094 31.721874 563.52814 31.721874Q562.2469 31.721874 561.5125 30.64375L561.5125 31.55ZM561.4969 27.8625Q561.4969 29.175 561.85626 29.753124Q562.4344 30.70625 563.41876 30.70625Q564.23126 30.70625 564.8094 30.003124Q565.40314 29.3 565.40314 27.909374Q565.40314 26.4875 564.84064 25.815624Q564.27814 25.14375 563.48126 25.14375Q562.66876 25.14375 562.075 25.846874Q561.4969 26.534374 561.4969 27.8625ZM568.3875 22.940624L568.3875 21.534374L569.60626 21.534374L569.60626 22.940624L568.3875 22.940624ZM568.3875 31.55L568.3875 24.284374L569.60626 24.284374L569.60626 31.55L568.3875 31.55ZM571.34064 31.55L571.34064 21.534374L572.575 21.534374L572.575 31.55L571.34064 31.55ZM579.34064 29.20625L580.6219 29.3625Q580.3094 30.4875 579.4969 31.1125Q578.6844 31.721874 577.41876 31.721874Q575.825 31.721874 574.8875 30.7375Q573.96564 29.753124 573.96564 27.9875Q573.96564 26.14375 574.90314 25.14375Q575.85626 24.128124 577.35626 24.128124Q578.8094 24.128124 579.73126 25.128124Q580.65314 26.1125 580.65314 27.909374Q580.65314 28.01875 580.65314 28.2375L575.23126 28.2375Q575.3094 29.425 575.90314 30.065624Q576.5125 30.70625 577.4344 30.70625Q578.10626 30.70625 578.575 30.346874Q579.0594 29.9875 579.34064 29.20625ZM575.3094 27.221874L579.35626 27.221874Q579.27814 26.3 578.8875 25.846874Q578.3094 25.14375 577.3719 25.14375Q576.5125 25.14375 575.9344 25.70625Q575.3719 26.26875 575.3094 27.221874Z" fill-rule="nonzero"/><path fill="#9e9e9e" d="M550.10626 42.846874L550.10626 41.659374L556.60626 41.659374L556.60626 42.6125Q555.6375 43.628124 554.7 45.315624Q553.7625 47.003124 553.2469 48.8Q552.8875 50.05 552.77814 51.55L551.5125 51.55Q551.52814 50.3625 551.96564 48.690624Q552.41876 47.01875 553.2469 45.471874Q554.09064 43.909374 555.02814 42.846874L550.10626 42.846874ZM558.7 51.55L558.7 50.14375L560.09064 50.14375L560.09064 51.55Q560.09064 52.315624 559.8094 52.784374Q559.54376 53.26875 558.95 53.534374L558.60626 53.003124Q558.9969 52.83125 559.1844 52.503124Q559.3719 52.175 559.3875 51.55L558.7 51.55ZM562.21564 49.2375L563.40314 49.128124Q563.54376 49.95625 563.96564 50.33125Q564.40314 50.70625 565.0594 50.70625Q565.6219 50.70625 566.04376 50.45625Q566.48126 50.190624 566.7469 49.753124Q567.02814 49.315624 567.21564 48.58125Q567.40314 47.846874 567.40314 47.08125Q567.40314 47.003124 567.3875 46.83125Q567.02814 47.425 566.3875 47.8Q565.7469 48.159374 564.9969 48.159374Q563.7469 48.159374 562.8875 47.253124Q562.02814 46.346874 562.02814 44.878124Q562.02814 43.346874 562.91876 42.425Q563.825 41.4875 565.1844 41.4875Q566.15314 41.4875 566.96564 42.01875Q567.77814 42.534374 568.2 43.51875Q568.6219 44.4875 568.6219 46.33125Q568.6219 48.253124 568.2 49.39375Q567.79376 50.534374 566.96564 51.128124Q566.1375 51.721874 565.02814 51.721874Q563.85626 51.721874 563.10626 51.065624Q562.3719 50.409374 562.21564 49.2375ZM567.2469 44.815624Q567.2469 43.753124 566.6844 43.128124Q566.1219 42.503124 565.34064 42.503124Q564.5125 42.503124 563.90314 43.175Q563.29376 43.846874 563.29376 44.909374Q563.29376 45.8625 563.8719 46.471874Q564.45 47.065624 565.29376 47.065624Q566.15314 47.065624 566.7 46.471874Q567.2469 45.8625 567.2469 44.815624ZM570.2625 43.940624Q570.2625 42.8625 570.79376 42.1125Q571.34064 41.3625 572.3719 41.3625Q573.3094 41.3625 573.91876 42.034374Q574.54376 42.70625 574.54376 44.003124Q574.54376 45.284374 573.91876 45.971874Q573.29376 46.659374 572.3875 46.659374Q571.48126 46.659374 570.8719 45.9875Q570.2625 45.3 570.2625 43.940624ZM572.40314 42.20625Q571.95 42.20625 571.6375 42.6125Q571.34064 43.003124 571.34064 44.05Q571.34064 45.01875 571.6375 45.409374Q571.95 45.8 572.40314 45.8Q572.8719 45.8 573.16876 45.409374Q573.48126 45.01875 573.48126 43.95625Q573.48126 42.9875 573.16876 42.596874Q572.85626 42.20625 572.40314 42.20625ZM572.40314 51.925L577.8875 41.3625L578.8875 41.3625L573.4344 51.925L572.40314 51.925ZM576.7469 49.190624Q576.7469 48.1125 577.27814 47.378124Q577.825 46.628124 578.85626 46.628124Q579.79376 46.628124 580.41876 47.3Q581.04376 47.971874 581.04376 49.26875Q581.04376 50.55 580.41876 51.2375Q579.79376 51.925 578.85626 51.925Q577.95 51.925 577.34064 51.253124Q576.7469 50.565624 576.7469 49.190624ZM578.8875 47.471874Q578.41876 47.471874 578.1219 47.878124Q577.825 48.26875 577.825 49.315624Q577.825 50.284374 578.1219 50.675Q578.4344 51.065624 578.8875 51.065624Q579.35626 51.065624 579.65314 50.675Q579.96564 50.284374 579.96564 49.221874Q579.96564 48.253124 579.65314 47.8625Q579.35626 47.471874 578.8875 47.471874Z" fill-rule="nonzero"/><path stroke="#757575" stroke-width="1.0" stroke-linecap="butt" d="M581.45 37.05L472.95 37.05L339.1125 31.79585" fill-rule="nonzero"/><path fill="#9e9e9e" d="M341.1125 31.79585C341.1125 30.691282 340.21707 29.79585 339.1125 29.79585C338.00793 29.79585 337.1125 30.691282 337.1125 31.79585C337.1125 32.90042 338.00793 33.795853 339.1125 33.795853C340.21707 33.795853 341.1125 32.90042 341.1125 31.79585" fill-rule="nonzero"/><path fill="#000000" d="M487.4344 70.764366L491.27814 60.74874L492.7 60.74874L496.8094 70.764366L495.29376 70.764366L494.1219 67.733116L489.9344 67.733116L488.84064 70.764366L487.4344 70.764366ZM490.325 66.65499L493.71564 66.65499L492.66876 63.87374Q492.2 62.608116 491.96564 61.795616Q491.77814 62.764366 491.41876 63.701866L490.325 66.65499ZM497.3719 70.764366L497.3719 63.49874L498.48126 63.49874L498.48126 64.52999Q498.8094 63.983116 499.3719 63.670616Q499.95 63.34249 500.66876 63.34249Q501.48126 63.34249 501.9969 63.68624Q502.5125 64.014366 502.73126 64.608116Q503.59064 63.34249 504.96564 63.34249Q506.04376 63.34249 506.6219 63.93624Q507.21564 64.52999 507.21564 65.77999L507.21564 70.764366L505.98126 70.764366L505.98126 66.18624Q505.98126 65.451866 505.85626 65.12374Q505.7469 64.795616 505.4344 64.608116Q505.1219 64.40499 504.7 64.40499Q503.9344 64.40499 503.41876 64.920616Q502.91876 65.420616 502.91876 66.545616L502.91876 70.764366L501.6844 70.764366L501.6844 66.045616Q501.6844 65.233116 501.3875 64.826866Q501.09064 64.40499 500.40314 64.40499Q499.8875 64.40499 499.4344 64.68624Q498.9969 64.951866 498.79376 65.483116Q498.60626 65.99874 498.60626 66.99874L498.60626 70.764366L497.3719 70.764366ZM508.3719 70.764366L508.3719 63.49874L509.48126 63.49874L509.48126 64.52999Q509.8094 63.983116 510.3719 63.670616Q510.95 63.34249 511.66876 63.34249Q512.48126 63.34249 512.9969 63.68624Q513.5125 64.014366 513.73126 64.608116Q514.59064 63.34249 515.96564 63.34249Q517.04376 63.34249 517.6219 63.93624Q518.21564 64.52999 518.21564 65.77999L518.21564 70.764366L516.98126 70.764366L516.98126 66.18624Q516.98126 65.451866 516.85626 65.12374Q516.7469 64.795616 516.4344 64.608116Q516.1219 64.40499 515.7 64.40499Q514.9344 64.40499 514.41876 64.920616Q513.91876 65.420616 513.91876 66.545616L513.91876 70.764366L512.6844 70.764366L512.6844 66.045616Q512.6844 65.233116 512.3875 64.826866Q512.09064 64.40499 511.40314 64.40499Q510.8875 64.40499 510.4344 64.68624Q509.9969 64.951866 509.79376 65.483116Q509.60626 65.99874 509.60626 66.99874L509.60626 70.764366L508.3719 70.764366ZM519.3875 62.15499L519.3875 60.74874L520.60626 60.74874L520.60626 62.15499L519.3875 62.15499ZM519.3875 70.764366L519.3875 63.49874L520.60626 63.49874L520.60626 70.764366L519.3875 70.764366ZM522.3719 70.764366L522.3719 63.49874L523.48126 63.49874L523.48126 64.52999Q524.27814 63.34249 525.79376 63.34249Q526.45 63.34249 526.9969 63.576866Q527.54376 63.81124 527.8094 64.201866Q528.09064 64.576866 528.2 65.108116Q528.27814 65.451866 528.27814 66.295616L528.27814 70.764366L527.04376 70.764366L527.04376 66.34249Q527.04376 65.59249 526.90314 65.233116Q526.7625 64.858116 526.3875 64.639366Q526.02814 64.40499 525.52814 64.40499Q524.7469 64.40499 524.16876 64.90499Q523.60626 65.40499 523.60626 66.795616L523.60626 70.764366L522.3719 70.764366ZM530.3875 62.15499L530.3875 60.74874L531.60626 60.74874L531.60626 62.15499L530.3875 62.15499ZM530.3875 70.764366L530.3875 63.49874L531.60626 63.49874L531.60626 70.764366L530.3875 70.764366ZM532.8875 68.59249L534.09064 68.40499Q534.2 69.139366 534.66876 69.52999Q535.1375 69.920616 535.98126 69.920616Q536.825 69.920616 537.23126 69.576866Q537.65314 69.233116 537.65314 68.764366Q537.65314 68.34249 537.27814 68.108116Q537.02814 67.93624 536.02814 67.68624Q534.66876 67.34249 534.1375 67.09249Q533.6219 66.84249 533.35626 66.40499Q533.09064 65.96749 533.09064 65.43624Q533.09064 64.951866 533.3094 64.545616Q533.52814 64.12374 533.91876 63.84249Q534.2 63.639366 534.6844 63.49874Q535.1844 63.34249 535.7625 63.34249Q536.60626 63.34249 537.2469 63.59249Q537.90314 63.826866 538.21564 64.24874Q538.52814 64.670616 538.6375 65.37374L537.4344 65.545616Q537.35626 64.983116 536.95 64.670616Q536.5594 64.358116 535.84064 64.358116Q534.9969 64.358116 534.6375 64.639366Q534.27814 64.90499 534.27814 65.295616Q534.27814 65.52999 534.41876 65.71749Q534.575 65.920616 534.90314 66.045616Q535.075 66.108116 535.98126 66.358116Q537.29376 66.71749 537.8094 66.93624Q538.325 67.15499 538.60626 67.576866Q538.90314 67.99874 538.90314 68.62374Q538.90314 69.24874 538.54376 69.795616Q538.2 70.326866 537.5125 70.639366Q536.84064 70.93624 535.98126 70.93624Q534.575 70.93624 533.825 70.34249Q533.09064 69.74874 532.8875 68.59249ZM543.0594 69.670616L543.23126 70.74874Q542.71564 70.858116 542.3094 70.858116Q541.6375 70.858116 541.2625 70.65499Q540.90314 70.43624 540.7469 70.09249Q540.60626 69.74874 540.60626 68.639366L540.60626 64.46749L539.7 64.46749L539.7 63.49874L540.60626 63.49874L540.60626 61.701866L541.825 60.96749L541.825 63.49874L543.0594 63.49874L543.0594 64.46749L541.825 64.46749L541.825 68.701866Q541.825 69.233116 541.8875 69.389366Q541.95 69.52999 542.09064 69.62374Q542.2469 69.71749 542.5125 69.71749Q542.73126 69.71749 543.0594 69.670616ZM544.35626 70.764366L544.35626 63.49874L545.46564 63.49874L545.46564 64.608116Q545.8875 63.826866 546.2469 63.59249Q546.60626 63.34249 547.04376 63.34249Q547.66876 63.34249 548.3094 63.733116L547.8875 64.87374Q547.4344 64.608116 546.98126 64.608116Q546.575 64.608116 546.2469 64.858116Q545.9344 65.09249 545.79376 65.52999Q545.59064 66.18624 545.59064 66.96749L545.59064 70.764366L544.35626 70.764366ZM554.10626 69.87374Q553.4344 70.451866 552.79376 70.701866Q552.16876 70.93624 551.4344 70.93624Q550.2469 70.93624 549.59064 70.358116Q548.95 69.764366 548.95 68.84249Q548.95 68.31124 549.1844 67.87374Q549.4344 67.43624 549.825 67.170616Q550.23126 66.90499 550.71564 66.764366Q551.075 66.670616 551.8094 66.576866Q553.3094 66.40499 554.0125 66.15499Q554.0125 65.90499 554.0125 65.84249Q554.0125 65.076866 553.66876 64.77999Q553.2 64.358116 552.2625 64.358116Q551.40314 64.358116 550.98126 64.670616Q550.575 64.96749 550.3719 65.733116L549.16876 65.576866Q549.325 64.795616 549.7 64.326866Q550.09064 63.858116 550.79376 63.608116Q551.5125 63.34249 552.45 63.34249Q553.3719 63.34249 553.95 63.56124Q554.52814 63.77999 554.79376 64.108116Q555.075 64.43624 555.1844 64.951866Q555.2469 65.264366 555.2469 66.076866L555.2469 67.71749Q555.2469 69.43624 555.325 69.889366Q555.40314 70.34249 555.6375 70.764366L554.35626 70.764366Q554.16876 70.37374 554.10626 69.87374ZM554.0125 67.12374Q553.34064 67.389366 551.9969 67.59249Q551.2469 67.701866 550.91876 67.84249Q550.60626 67.96749 550.4344 68.233116Q550.2625 68.49874 550.2625 68.81124Q550.2625 69.31124 550.6375 69.639366Q551.0125 69.96749 551.73126 69.96749Q552.45 69.96749 552.9969 69.65499Q553.54376 69.34249 553.8094 68.795616Q554.0125 68.389366 554.0125 67.576866L554.0125 67.12374ZM560.0594 69.670616L560.23126 70.74874Q559.71564 70.858116 559.3094 70.858116Q558.6375 70.858116 558.2625 70.65499Q557.90314 70.43624 557.7469 70.09249Q557.60626 69.74874 557.60626 68.639366L557.60626 64.46749L556.7 64.46749L556.7 63.49874L557.60626 63.49874L557.60626 61.701866L558.825 60.96749L558.825 63.49874L560.0594 63.49874L560.0594 64.46749L558.825 64.46749L558.825 68.701866Q558.825 69.233116 558.8875 69.389366Q558.95 69.52999 559.09064 69.62374Q559.2469 69.71749 559.5125 69.71749Q559.73126 69.71749 560.0594 69.670616ZM560.91876 67.139366Q560.91876 65.12374 562.04376 64.139366Q562.96564 63.34249 564.325 63.34249Q565.8094 63.34249 566.7625 64.326866Q567.71564 65.295616 567.71564 67.02999Q567.71564 68.43624 567.29376 69.24874Q566.8719 70.045616 566.0594 70.49874Q565.2625 70.93624 564.325 70.93624Q562.79376 70.93624 561.85626 69.951866Q560.91876 68.96749 560.91876 67.139366ZM562.1844 67.139366Q562.1844 68.52999 562.79376 69.233116Q563.40314 69.920616 564.325 69.920616Q565.23126 69.920616 565.84064 69.21749Q566.45 68.514366 566.45 67.09249Q566.45 65.74874 565.84064 65.06124Q565.23126 64.358116 564.325 64.358116Q563.40314 64.358116 562.79376 65.045616Q562.1844 65.733116 562.1844 67.139366ZM569.35626 70.764366L569.35626 63.49874L570.46564 63.49874L570.46564 64.608116Q570.8875 63.826866 571.2469 63.59249Q571.60626 63.34249 572.04376 63.34249Q572.66876 63.34249 573.3094 63.733116L572.8875 64.87374Q572.4344 64.608116 571.98126 64.608116Q571.575 64.608116 571.2469 64.858116Q570.9344 65.09249 570.79376 65.52999Q570.59064 66.18624 570.59064 66.96749L570.59064 70.764366L569.35626 70.764366ZM579.34064 68.420616L580.6219 68.576866Q580.3094 69.701866 579.4969 70.326866Q578.6844 70.93624 577.41876 70.93624Q575.825 70.93624 574.8875 69.951866Q573.96564 68.96749 573.96564 67.201866Q573.96564 65.358116 574.90314 64.358116Q575.85626 63.34249 577.35626 63.34249Q578.8094 63.34249 579.73126 64.34249Q580.65314 65.326866 580.65314 67.12374Q580.65314 67.233116 580.65314 67.451866L575.23126 67.451866Q575.3094 68.639366 575.90314 69.27999Q576.5125 69.920616 577.4344 69.920616Q578.10626 69.920616 578.575 69.56124Q579.0594 69.201866 579.34064 68.420616ZM575.3094 66.43624L579.35626 66.43624Q579.27814 65.514366 578.8875 65.06124Q578.3094 64.358116 577.3719 64.358116Q576.5125 64.358116 575.9344 64.920616Q575.3719 65.483116 575.3094 66.43624Z" fill-rule="nonzero"/><path fill="#9e9e9e" d="M546.66876 90.764366L545.4344 90.764366L545.4344 82.920616Q544.9969 83.34249 544.2625 83.77999Q543.54376 84.201866 542.98126 84.40499L542.98126 83.21749Q544.0125 82.733116 544.77814 82.045616Q545.5594 81.358116 545.8719 80.701866L546.66876 80.701866L546.66876 90.764366ZM550.02814 85.826866Q550.02814 84.045616 550.3875 82.96749Q550.7625 81.87374 551.48126 81.295616Q552.2 80.701866 553.29376 80.701866Q554.10626 80.701866 554.71564 81.02999Q555.325 81.358116 555.71564 81.96749Q556.1219 82.576866 556.34064 83.451866Q556.5594 84.326866 556.5594 85.826866Q556.5594 87.59249 556.2 88.670616Q555.84064 89.74874 555.1219 90.34249Q554.40314 90.93624 553.29376 90.93624Q551.85626 90.93624 551.02814 89.889366Q550.02814 88.639366 550.02814 85.826866ZM551.29376 85.826866Q551.29376 88.295616 551.8719 89.108116Q552.45 89.920616 553.29376 89.920616Q554.15314 89.920616 554.73126 89.108116Q555.3094 88.27999 555.3094 85.826866Q555.3094 83.34249 554.73126 82.52999Q554.15314 81.71749 553.27814 81.71749Q552.4344 81.71749 551.9344 82.43624Q551.29376 83.358116 551.29376 85.826866ZM558.7 90.764366L558.7 89.358116L560.09064 89.358116L560.09064 90.764366Q560.09064 91.52999 559.8094 91.99874Q559.54376 92.483116 558.95 92.74874L558.60626 92.21749Q558.9969 92.045616 559.1844 91.71749Q559.3719 91.389366 559.3875 90.764366L558.7 90.764366ZM562.02814 85.826866Q562.02814 84.045616 562.3875 82.96749Q562.7625 81.87374 563.48126 81.295616Q564.2 80.701866 565.29376 80.701866Q566.10626 80.701866 566.71564 81.02999Q567.325 81.358116 567.71564 81.96749Q568.1219 82.576866 568.34064 83.451866Q568.5594 84.326866 568.5594 85.826866Q568.5594 87.59249 568.2 88.670616Q567.84064 89.74874 567.1219 90.34249Q566.40314 90.93624 565.29376 90.93624Q563.85626 90.93624 563.02814 89.889366Q562.02814 88.639366 562.02814 85.826866ZM563.29376 85.826866Q563.29376 88.295616 563.8719 89.108116Q564.45 89.920616 565.29376 89.920616Q566.15314 89.920616 566.73126 89.108116Q567.3094 88.27999 567.3094 85.826866Q567.3094 83.34249 566.73126 82.52999Q566.15314 81.71749 565.27814 81.71749Q564.4344 81.71749 563.9344 82.43624Q563.29376 83.358116 563.29376 85.826866ZM570.2625 83.15499Q570.2625 82.076866 570.79376 81.326866Q571.34064 80.576866 572.3719 80.576866Q573.3094 80.576866 573.91876 81.24874Q574.54376 81.920616 574.54376 83.21749Q574.54376 84.49874 573.91876 85.18624Q573.29376 85.87374 572.3875 85.87374Q571.48126 85.87374 570.8719 85.201866Q570.2625 84.514366 570.2625 83.15499ZM572.40314 81.420616Q571.95 81.420616 571.6375 81.826866Q571.34064 82.21749 571.34064 83.264366Q571.34064 84.233116 571.6375 84.62374Q571.95 85.014366 572.40314 85.014366Q572.8719 85.014366 573.16876 84.62374Q573.48126 84.233116 573.48126 83.170616Q573.48126 82.201866 573.16876 81.81124Q572.85626 81.420616 572.40314 81.420616ZM572.40314 91.139366L577.8875 80.576866L578.8875 80.576866L573.4344 91.139366L572.40314 91.139366ZM576.7469 88.40499Q576.7469 87.326866 577.27814 86.59249Q577.825 85.84249 578.85626 85.84249Q579.79376 85.84249 580.41876 86.514366Q581.04376 87.18624 581.04376 88.483116Q581.04376 89.764366 580.41876 90.451866Q579.79376 91.139366 578.85626 91.139366Q577.95 91.139366 577.34064 90.46749Q576.7469 89.77999 576.7469 88.40499ZM578.8875 86.68624Q578.41876 86.68624 578.1219 87.09249Q577.825 87.483116 577.825 88.52999Q577.825 89.49874 578.1219 89.889366Q578.4344 90.27999 578.8875 90.27999Q579.35626 90.27999 579.65314 89.889366Q579.96564 89.49874 579.96564 88.43624Q579.96564 87.46749 579.65314 87.076866Q579.35626 86.68624 578.8875 86.68624Z" fill-rule="nonzero"/><path stroke="#757575" stroke-width="1.0" stroke-linecap="butt" d="M581.45 76.264366L472.95 76.264366L414.98837 76.264366" fill-rule="nonzero"/><path fill="#9e9e9e" d="M416.98837 76.264366C416.98837 75.1598 416.09296 74.264366 414.98837 74.264366C413.88382 74.264366 412.98837 75.1598 412.98837 76.264366C412.98837 77.368935 413.88382 78.264366 414.98837 78.264366C416.09296 78.264366 416.98837 77.368935 416.98837 76.264366" fill-rule="nonzero"/><path fill="#000000" d="M531.4344 170.89986L535.27814 160.88423L536.7 160.88423L540.8094 170.89986L539.29376 170.89986L538.1219 167.8686L533.9344 167.8686L532.84064 170.89986L531.4344 170.89986ZM534.325 166.79048L537.71564 166.79048L536.66876 164.00923Q536.2 162.7436 535.96564 161.9311Q535.77814 162.89986 535.41876 163.83736L534.325 166.79048ZM541.3719 170.89986L541.3719 163.63423L542.48126 163.63423L542.48126 164.66548Q543.27814 163.47798 544.79376 163.47798Q545.45 163.47798 545.9969 163.71236Q546.54376 163.94673 546.8094 164.33736Q547.09064 164.71236 547.2 165.2436Q547.27814 165.58736 547.27814 166.4311L547.27814 170.89986L546.04376 170.89986L546.04376 166.47798Q546.04376 165.72798 545.90314 165.3686Q545.7625 164.9936 545.3875 164.77486Q545.02814 164.54048 544.52814 164.54048Q543.7469 164.54048 543.16876 165.04048Q542.60626 165.54048 542.60626 166.9311L542.60626 170.89986L541.3719 170.89986ZM554.10626 170.00923Q553.4344 170.58736 552.79376 170.83736Q552.16876 171.07173 551.4344 171.07173Q550.2469 171.07173 549.59064 170.4936Q548.95 169.89986 548.95 168.97798Q548.95 168.44673 549.1844 168.00923Q549.4344 167.57173 549.825 167.3061Q550.23126 167.04048 550.71564 166.89986Q551.075 166.8061 551.8094 166.71236Q553.3094 166.54048 554.0125 166.29048Q554.0125 166.04048 554.0125 165.97798Q554.0125 165.21236 553.66876 164.91548Q553.2 164.4936 552.2625 164.4936Q551.40314 164.4936 550.98126 164.8061Q550.575 165.10298 550.3719 165.8686L549.16876 165.71236Q549.325 164.9311 549.7 164.46236Q550.09064 163.9936 550.79376 163.7436Q551.5125 163.47798 552.45 163.47798Q553.3719 163.47798 553.95 163.69673Q554.52814 163.91548 554.79376 164.2436Q555.075 164.57173 555.1844 165.08736Q555.2469 165.39986 555.2469 166.21236L555.2469 167.85298Q555.2469 169.57173 555.325 170.02486Q555.40314 170.47798 555.6375 170.89986L554.35626 170.89986Q554.16876 170.50923 554.10626 170.00923ZM554.0125 167.25923Q553.34064 167.52486 551.9969 167.72798Q551.2469 167.83736 550.91876 167.97798Q550.60626 168.10298 550.4344 168.3686Q550.2625 168.63423 550.2625 168.94673Q550.2625 169.44673 550.6375 169.77486Q551.0125 170.10298 551.73126 170.10298Q552.45 170.10298 552.9969 169.79048Q553.54376 169.47798 553.8094 168.9311Q554.0125 168.52486 554.0125 167.71236L554.0125 167.25923ZM557.34064 170.89986L557.34064 160.88423L558.575 160.88423L558.575 170.89986L557.34064 170.89986ZM560.3875 162.29048L560.3875 160.88423L561.60626 160.88423L561.60626 162.29048L560.3875 162.29048ZM560.3875 170.89986L560.3875 163.63423L561.60626 163.63423L561.60626 170.89986L560.3875 170.89986ZM562.8875 168.72798L564.09064 168.54048Q564.2 169.27486 564.66876 169.66548Q565.1375 170.0561 565.98126 170.0561Q566.825 170.0561 567.23126 169.71236Q567.65314 169.3686 567.65314 168.89986Q567.65314 168.47798 567.27814 168.2436Q567.02814 168.07173 566.02814 167.82173Q564.66876 167.47798 564.1375 167.22798Q563.6219 166.97798 563.35626 166.54048Q563.09064 166.10298 563.09064 165.57173Q563.09064 165.08736 563.3094 164.6811Q563.52814 164.25923 563.91876 163.97798Q564.2 163.77486 564.6844 163.63423Q565.1844 163.47798 565.7625 163.47798Q566.60626 163.47798 567.2469 163.72798Q567.90314 163.96236 568.21564 164.38423Q568.52814 164.8061 568.6375 165.50923L567.4344 165.6811Q567.35626 165.1186 566.95 164.8061Q566.5594 164.4936 565.84064 164.4936Q564.9969 164.4936 564.6375 164.77486Q564.27814 165.04048 564.27814 165.4311Q564.27814 165.66548 564.41876 165.85298Q564.575 166.0561 564.90314 166.1811Q565.075 166.2436 565.98126 166.4936Q567.29376 166.85298 567.8094 167.07173Q568.325 167.29048 568.60626 167.71236Q568.90314 168.13423 568.90314 168.75923Q568.90314 169.38423 568.54376 169.9311Q568.2 170.46236 567.5125 170.77486Q566.84064 171.07173 565.98126 171.07173Q564.575 171.07173 563.825 170.47798Q563.09064 169.88423 562.8875 168.72798ZM573.0594 169.8061L573.23126 170.88423Q572.71564 170.9936 572.3094 170.9936Q571.6375 170.9936 571.2625 170.79048Q570.90314 170.57173 570.7469 170.22798Q570.60626 169.88423 570.60626 168.77486L570.60626 164.60298L569.7 164.60298L569.7 163.63423L570.60626 163.63423L570.60626 161.83736L571.825 161.10298L571.825 163.63423L573.0594 163.63423L573.0594 164.60298L571.825 164.60298L571.825 168.83736Q571.825 169.3686 571.8875 169.52486Q571.95 169.66548 572.09064 169.75923Q572.2469 169.85298 572.5125 169.85298Q572.73126 169.85298 573.0594 169.8061ZM579.10626 170.00923Q578.4344 170.58736 577.79376 170.83736Q577.16876 171.07173 576.4344 171.07173Q575.2469 171.07173 574.59064 170.4936Q573.95 169.89986 573.95 168.97798Q573.95 168.44673 574.1844 168.00923Q574.4344 167.57173 574.825 167.3061Q575.23126 167.04048 575.71564 166.89986Q576.075 166.8061 576.8094 166.71236Q578.3094 166.54048 579.0125 166.29048Q579.0125 166.04048 579.0125 165.97798Q579.0125 165.21236 578.66876 164.91548Q578.2 164.4936 577.2625 164.4936Q576.40314 164.4936 575.98126 164.8061Q575.575 165.10298 575.3719 165.8686L574.16876 165.71236Q574.325 164.9311 574.7 164.46236Q575.09064 163.9936 575.79376 163.7436Q576.5125 163.47798 577.45 163.47798Q578.3719 163.47798 578.95 163.69673Q579.52814 163.91548 579.79376 164.2436Q580.075 164.57173 580.1844 165.08736Q580.2469 165.39986 580.2469 166.21236L580.2469 167.85298Q580.2469 169.57173 580.325 170.02486Q580.40314 170.47798 580.6375 170.89986L579.35626 170.89986Q579.16876 170.50923 579.10626 170.00923ZM579.0125 167.25923Q578.34064 167.52486 576.9969 167.72798Q576.2469 167.83736 575.91876 167.97798Q575.60626 168.10298 575.4344 168.3686Q575.2625 168.63423 575.2625 168.94673Q575.2625 169.44673 575.6375 169.77486Q576.0125 170.10298 576.73126 170.10298Q577.45 170.10298 577.9969 169.79048Q578.54376 169.47798 578.8094 168.9311Q579.0125 168.52486 579.0125 167.71236L579.0125 167.25923Z" fill-rule="nonzero"/><path fill="#9e9e9e" d="M546.66876 190.89986L545.4344 190.89986L545.4344 183.0561Q544.9969 183.47798 544.2625 183.91548Q543.54376 184.33736 542.98126 184.54048L542.98126 183.35298Q544.0125 182.8686 544.77814 182.1811Q545.5594 181.4936 545.8719 180.83736L546.66876 180.83736L546.66876 190.89986ZM556.4969 189.71236L556.4969 190.89986L549.8719 190.89986Q549.85626 190.46236 550.0125 190.04048Q550.27814 189.3686 550.825 188.71236Q551.3875 188.0561 552.4344 187.19673Q554.075 185.85298 554.6375 185.07173Q555.21564 184.29048 555.21564 183.58736Q555.21564 182.85298 554.6844 182.35298Q554.16876 181.85298 553.34064 181.85298Q552.45 181.85298 551.90314 182.38423Q551.3719 182.91548 551.3719 183.8686L550.10626 183.72798Q550.23126 182.32173 551.075 181.58736Q551.9344 180.83736 553.35626 180.83736Q554.8094 180.83736 555.6375 181.63423Q556.48126 182.4311 556.48126 183.6186Q556.48126 184.22798 556.23126 184.8061Q555.9969 185.38423 555.41876 186.02486Q554.85626 186.66548 553.52814 187.79048Q552.41876 188.71236 552.10626 189.0561Q551.79376 189.38423 551.59064 189.71236L556.4969 189.71236ZM558.7 190.89986L558.7 189.4936L560.09064 189.4936L560.09064 190.89986Q560.09064 191.66548 559.8094 192.13423Q559.54376 192.6186 558.95 192.88423L558.60626 192.35298Q558.9969 192.1811 559.1844 191.85298Q559.3719 191.52486 559.3875 190.89986L558.7 190.89986ZM565.98126 190.89986L565.98126 188.4936L561.6219 188.4936L561.6219 187.3686L566.2 180.88423L567.2 180.88423L567.2 187.3686L568.5594 187.3686L568.5594 188.4936L567.2 188.4936L567.2 190.89986L565.98126 190.89986ZM565.98126 187.3686L565.98126 182.85298L562.84064 187.3686L565.98126 187.3686ZM570.2625 183.29048Q570.2625 182.21236 570.79376 181.46236Q571.34064 180.71236 572.3719 180.71236Q573.3094 180.71236 573.91876 181.38423Q574.54376 182.0561 574.54376 183.35298Q574.54376 184.63423 573.91876 185.32173Q573.29376 186.00923 572.3875 186.00923Q571.48126 186.00923 570.8719 185.33736Q570.2625 184.64986 570.2625 183.29048ZM572.40314 181.5561Q571.95 181.5561 571.6375 181.96236Q571.34064 182.35298 571.34064 183.39986Q571.34064 184.3686 571.6375 184.75923Q571.95 185.14986 572.40314 185.14986Q572.8719 185.14986 573.16876 184.75923Q573.48126 184.3686 573.48126 183.3061Q573.48126 182.33736 573.16876 181.94673Q572.85626 181.5561 572.40314 181.5561ZM572.40314 191.27486L577.8875 180.71236L578.8875 180.71236L573.4344 191.27486L572.40314 191.27486ZM576.7469 188.54048Q576.7469 187.46236 577.27814 186.72798Q577.825 185.97798 578.85626 185.97798Q579.79376 185.97798 580.41876 186.64986Q581.04376 187.32173 581.04376 188.6186Q581.04376 189.89986 580.41876 190.58736Q579.79376 191.27486 578.85626 191.27486Q577.95 191.27486 577.34064 190.60298Q576.7469 189.91548 576.7469 188.54048ZM578.8875 186.82173Q578.41876 186.82173 578.1219 187.22798Q577.825 187.6186 577.825 188.66548Q577.825 189.63423 578.1219 190.02486Q578.4344 190.41548 578.8875 190.41548Q579.35626 190.41548 579.65314 190.02486Q579.96564 189.63423 579.96564 188.57173Q579.96564 187.60298 579.65314 187.21236Q579.35626 186.82173 578.8875 186.82173Z" fill-rule="nonzero"/><path stroke="#757575" stroke-width="1.0" stroke-linecap="butt" d="M581.45 176.39986L472.95 176.39986L458.34122 176.39986" fill-rule="nonzero"/><path fill="#9e9e9e" d="M460.34122 176.39986C460.34122 175.29529 459.44577 174.39986 458.34122 174.39986C457.23663 174.39986 456.34122 175.29529 456.34122 176.39986C456.34122 177.50443 457.23663 178.39986 458.34122 178.39986C459.44577 178.39986 460.34122 177.50443 460.34122 176.39986" fill-rule="nonzero"/><path fill="#000000" d="M514.52814 315.241L514.52814 305.22537L518.3094 305.22537Q519.3094 305.22537 519.84064 305.31912Q520.575 305.44412 521.075 305.78787Q521.575 306.13162 521.8719 306.75662Q522.1844 307.366 522.1844 308.116Q522.1844 309.39725 521.3719 310.28787Q520.5594 311.16287 518.4344 311.16287L515.85626 311.16287L515.85626 315.241L514.52814 315.241ZM515.85626 309.991L518.45 309.991Q519.73126 309.991 520.2625 309.50662Q520.8094 309.02225 520.8094 308.16287Q520.8094 307.52225 520.4969 307.08475Q520.1844 306.63162 519.65314 306.491Q519.325 306.39725 518.41876 306.39725L515.85626 306.39725L515.85626 309.991ZM523.35626 315.241L523.35626 307.97537L524.46564 307.97537L524.46564 309.08475Q524.8875 308.3035 525.2469 308.06912Q525.60626 307.81912 526.04376 307.81912Q526.66876 307.81912 527.3094 308.20975L526.8875 309.35037Q526.4344 309.08475 525.98126 309.08475Q525.575 309.08475 525.2469 309.33475Q524.9344 309.56912 524.79376 310.00662Q524.59064 310.66287 524.59064 311.44412L524.59064 315.241L523.35626 315.241ZM527.91876 311.616Q527.91876 309.60037 529.04376 308.616Q529.96564 307.81912 531.325 307.81912Q532.8094 307.81912 533.7625 308.8035Q534.71564 309.77225 534.71564 311.50662Q534.71564 312.91287 534.29376 313.72537Q533.8719 314.52225 533.0594 314.97537Q532.2625 315.41287 531.325 315.41287Q529.79376 315.41287 528.85626 314.4285Q527.91876 313.44412 527.91876 311.616ZM529.1844 311.616Q529.1844 313.00662 529.79376 313.70975Q530.40314 314.39725 531.325 314.39725Q532.23126 314.39725 532.84064 313.69412Q533.45 312.991 533.45 311.56912Q533.45 310.22537 532.84064 309.53787Q532.23126 308.83475 531.325 308.83475Q530.40314 308.83475 529.79376 309.52225Q529.1844 310.20975 529.1844 311.616ZM536.15314 315.85037L537.34064 316.02225Q537.41876 316.56912 537.7625 316.83475Q538.21564 317.16287 539.0125 317.16287Q539.8719 317.16287 540.325 316.81912Q540.79376 316.491 540.96564 315.866Q541.0594 315.491 541.04376 314.28787Q540.2469 315.241 539.04376 315.241Q537.54376 315.241 536.71564 314.16287Q535.90314 313.08475 535.90314 311.56912Q535.90314 310.53787 536.27814 309.66287Q536.65314 308.77225 537.35626 308.3035Q538.075 307.81912 539.04376 307.81912Q540.325 307.81912 541.16876 308.85037L541.16876 307.97537L542.29376 307.97537L542.29376 314.25662Q542.29376 315.95975 541.95 316.66287Q541.60626 317.366 540.85626 317.77225Q540.10626 318.19412 539.0125 318.19412Q537.71564 318.19412 536.91876 317.60037Q536.1219 317.02225 536.15314 315.85037ZM537.16876 311.47537Q537.16876 312.91287 537.73126 313.56912Q538.29376 314.22537 539.15314 314.22537Q539.9969 314.22537 540.575 313.56912Q541.15314 312.91287 541.15314 311.52225Q541.15314 310.19412 540.5594 309.52225Q539.96564 308.83475 539.1375 308.83475Q538.3094 308.83475 537.73126 309.50662Q537.16876 310.16287 537.16876 311.47537ZM549.34064 312.89725L550.6219 313.0535Q550.3094 314.1785 549.4969 314.8035Q548.6844 315.41287 547.41876 315.41287Q545.825 315.41287 544.8875 314.4285Q543.96564 313.44412 543.96564 311.6785Q543.96564 309.83475 544.90314 308.83475Q545.85626 307.81912 547.35626 307.81912Q548.8094 307.81912 549.73126 308.81912Q550.65314 309.8035 550.65314 311.60037Q550.65314 311.70975 550.65314 311.9285L545.23126 311.9285Q545.3094 313.116 545.90314 313.75662Q546.5125 314.39725 547.4344 314.39725Q548.10626 314.39725 548.575 314.03787Q549.0594 313.6785 549.34064 312.89725ZM545.3094 310.91287L549.35626 310.91287Q549.27814 309.991 548.8875 309.53787Q548.3094 308.83475 547.3719 308.83475Q546.5125 308.83475 545.9344 309.39725Q545.3719 309.95975 545.3094 310.91287ZM555.0594 314.14725L555.23126 315.22537Q554.71564 315.33475 554.3094 315.33475Q553.6375 315.33475 553.2625 315.13162Q552.90314 314.91287 552.7469 314.56912Q552.60626 314.22537 552.60626 313.116L552.60626 308.94412L551.7 308.94412L551.7 307.97537L552.60626 307.97537L552.60626 306.1785L553.825 305.44412L553.825 307.97537L555.0594 307.97537L555.0594 308.94412L553.825 308.94412L553.825 313.1785Q553.825 313.70975 553.8875 313.866Q553.95 314.00662 554.09064 314.10037Q554.2469 314.19412 554.5125 314.19412Q554.73126 314.19412 555.0594 314.14725ZM559.0594 314.14725L559.23126 315.22537Q558.71564 315.33475 558.3094 315.33475Q557.6375 315.33475 557.2625 315.13162Q556.90314 314.91287 556.7469 314.56912Q556.60626 314.22537 556.60626 313.116L556.60626 308.94412L555.7 308.94412L555.7 307.97537L556.60626 307.97537L556.60626 306.1785L557.825 305.44412L557.825 307.97537L559.0594 307.97537L559.0594 308.94412L557.825 308.94412L557.825 313.1785Q557.825 313.70975 557.8875 313.866Q557.95 314.00662 558.09064 314.10037Q558.2469 314.19412 558.5125 314.19412Q558.73126 314.19412 559.0594 314.14725ZM560.3875 306.63162L560.3875 305.22537L561.60626 305.22537L561.60626 306.63162L560.3875 306.63162ZM560.3875 315.241L560.3875 307.97537L561.60626 307.97537L561.60626 315.241L560.3875 315.241ZM562.8875 313.06912L564.09064 312.88162Q564.2 313.616 564.66876 314.00662Q565.1375 314.39725 565.98126 314.39725Q566.825 314.39725 567.23126 314.0535Q567.65314 313.70975 567.65314 313.241Q567.65314 312.81912 567.27814 312.58475Q567.02814 312.41287 566.02814 312.16287Q564.66876 311.81912 564.1375 311.56912Q563.6219 311.31912 563.35626 310.88162Q563.09064 310.44412 563.09064 309.91287Q563.09064 309.4285 563.3094 309.02225Q563.52814 308.60037 563.91876 308.31912Q564.2 308.116 564.6844 307.97537Q565.1844 307.81912 565.7625 307.81912Q566.60626 307.81912 567.2469 308.06912Q567.90314 308.3035 568.21564 308.72537Q568.52814 309.14725 568.6375 309.85037L567.4344 310.02225Q567.35626 309.45975 566.95 309.14725Q566.5594 308.83475 565.84064 308.83475Q564.9969 308.83475 564.6375 309.116Q564.27814 309.38162 564.27814 309.77225Q564.27814 310.00662 564.41876 310.19412Q564.575 310.39725 564.90314 310.52225Q565.075 310.58475 565.98126 310.83475Q567.29376 311.19412 567.8094 311.41287Q568.325 311.63162 568.60626 312.0535Q568.90314 312.47537 568.90314 313.10037Q568.90314 313.72537 568.54376 314.27225Q568.2 314.8035 567.5125 315.116Q566.84064 315.41287 565.98126 315.41287Q564.575 315.41287 563.825 314.81912Q563.09064 314.22537 562.8875 313.06912ZM573.0594 314.14725L573.23126 315.22537Q572.71564 315.33475 572.3094 315.33475Q571.6375 315.33475 571.2625 315.13162Q570.90314 314.91287 570.7469 314.56912Q570.60626 314.22537 570.60626 313.116L570.60626 308.94412L569.7 308.94412L569.7 307.97537L570.60626 307.97537L570.60626 306.1785L571.825 305.44412L571.825 307.97537L573.0594 307.97537L573.0594 308.94412L571.825 308.94412L571.825 313.1785Q571.825 313.70975 571.8875 313.866Q571.95 314.00662 572.09064 314.10037Q572.2469 314.19412 572.5125 314.19412Q572.73126 314.19412 573.0594 314.14725ZM579.10626 314.35037Q578.4344 314.9285 577.79376 315.1785Q577.16876 315.41287 576.4344 315.41287Q575.2469 315.41287 574.59064 314.83475Q573.95 314.241 573.95 313.31912Q573.95 312.78787 574.1844 312.35037Q574.4344 311.91287 574.825 311.64725Q575.23126 311.38162 575.71564 311.241Q576.075 311.14725 576.8094 311.0535Q578.3094 310.88162 579.0125 310.63162Q579.0125 310.38162 579.0125 310.31912Q579.0125 309.5535 578.66876 309.25662Q578.2 308.83475 577.2625 308.83475Q576.40314 308.83475 575.98126 309.14725Q575.575 309.44412 575.3719 310.20975L574.16876 310.0535Q574.325 309.27225 574.7 308.8035Q575.09064 308.33475 575.79376 308.08475Q576.5125 307.81912 577.45 307.81912Q578.3719 307.81912 578.95 308.03787Q579.52814 308.25662 579.79376 308.58475Q580.075 308.91287 580.1844 309.4285Q580.2469 309.741 580.2469 310.5535L580.2469 312.19412Q580.2469 313.91287 580.325 314.366Q580.40314 314.81912 580.6375 315.241L579.35626 315.241Q579.16876 314.85037 579.10626 314.35037ZM579.0125 311.60037Q578.34064 311.866 576.9969 312.06912Q576.2469 312.1785 575.91876 312.31912Q575.60626 312.44412 575.4344 312.70975Q575.2625 312.97537 575.2625 313.28787Q575.2625 313.78787 575.6375 314.116Q576.0125 314.44412 576.73126 314.44412Q577.45 314.44412 577.9969 314.13162Q578.54376 313.81912 578.8094 313.27225Q579.0125 312.866 579.0125 312.0535L579.0125 311.60037Z" fill-rule="nonzero"/><path fill="#9e9e9e" d="M548.4969 334.0535L548.4969 335.241L541.8719 335.241Q541.85626 334.8035 542.0125 334.38162Q542.27814 333.70975 542.825 333.0535Q543.3875 332.39725 544.4344 331.53787Q546.075 330.19412 546.6375 329.41287Q547.21564 328.63162 547.21564 327.9285Q547.21564 327.19412 546.6844 326.69412Q546.16876 326.19412 545.34064 326.19412Q544.45 326.19412 543.90314 326.72537Q543.3719 327.25662 543.3719 328.20975L542.10626 328.06912Q542.23126 326.66287 543.075 325.9285Q543.9344 325.1785 545.35626 325.1785Q546.8094 325.1785 547.6375 325.97537Q548.48126 326.77225 548.48126 327.95975Q548.48126 328.56912 548.23126 329.14725Q547.9969 329.72537 547.41876 330.366Q546.85626 331.00662 545.52814 332.13162Q544.41876 333.0535 544.10626 333.39725Q543.79376 333.72537 543.59064 334.0535L548.4969 334.0535ZM554.66876 335.241L553.4344 335.241L553.4344 327.39725Q552.9969 327.81912 552.2625 328.25662Q551.54376 328.6785 550.98126 328.88162L550.98126 327.69412Q552.0125 327.20975 552.77814 326.52225Q553.5594 325.83475 553.8719 325.1785L554.66876 325.1785L554.66876 335.241ZM558.7 335.241L558.7 333.83475L560.09064 333.83475L560.09064 335.241Q560.09064 336.00662 559.8094 336.47537Q559.54376 336.95975 558.95 337.22537L558.60626 336.69412Q558.9969 336.52225 559.1844 336.19412Q559.3719 335.866 559.3875 335.241L558.7 335.241ZM562.21564 332.9285L563.40314 332.81912Q563.54376 333.64725 563.96564 334.02225Q564.40314 334.39725 565.0594 334.39725Q565.6219 334.39725 566.04376 334.14725Q566.48126 333.88162 566.7469 333.44412Q567.02814 333.00662 567.21564 332.27225Q567.40314 331.53787 567.40314 330.77225Q567.40314 330.69412 567.3875 330.52225Q567.02814 331.116 566.3875 331.491Q565.7469 331.85037 564.9969 331.85037Q563.7469 331.85037 562.8875 330.94412Q562.02814 330.03787 562.02814 328.56912Q562.02814 327.03787 562.91876 326.116Q563.825 325.1785 565.1844 325.1785Q566.15314 325.1785 566.96564 325.70975Q567.77814 326.22537 568.2 327.20975Q568.6219 328.1785 568.6219 330.02225Q568.6219 331.94412 568.2 333.08475Q567.79376 334.22537 566.96564 334.81912Q566.1375 335.41287 565.02814 335.41287Q563.85626 335.41287 563.10626 334.75662Q562.3719 334.10037 562.21564 332.9285ZM567.2469 328.50662Q567.2469 327.44412 566.6844 326.81912Q566.1219 326.19412 565.34064 326.19412Q564.5125 326.19412 563.90314 326.866Q563.29376 327.53787 563.29376 328.60037Q563.29376 329.5535 563.8719 330.16287Q564.45 330.75662 565.29376 330.75662Q566.15314 330.75662 566.7 330.16287Q567.2469 329.5535 567.2469 328.50662ZM570.2625 327.63162Q570.2625 326.5535 570.79376 325.8035Q571.34064 325.0535 572.3719 325.0535Q573.3094 325.0535 573.91876 325.72537Q574.54376 326.39725 574.54376 327.69412Q574.54376 328.97537 573.91876 329.66287Q573.29376 330.35037 572.3875 330.35037Q571.48126 330.35037 570.8719 329.6785Q570.2625 328.991 570.2625 327.63162ZM572.40314 325.89725Q571.95 325.89725 571.6375 326.3035Q571.34064 326.69412 571.34064 327.741Q571.34064 328.70975 571.6375 329.10037Q571.95 329.491 572.40314 329.491Q572.8719 329.491 573.16876 329.10037Q573.48126 328.70975 573.48126 327.64725Q573.48126 326.6785 573.16876 326.28787Q572.85626 325.89725 572.40314 325.89725ZM572.40314 335.616L577.8875 325.0535L578.8875 325.0535L573.4344 335.616L572.40314 335.616ZM576.7469 332.88162Q576.7469 331.8035 577.27814 331.06912Q577.825 330.31912 578.85626 330.31912Q579.79376 330.31912 580.41876 330.991Q581.04376 331.66287 581.04376 332.95975Q581.04376 334.241 580.41876 334.9285Q579.79376 335.616 578.85626 335.616Q577.95 335.616 577.34064 334.94412Q576.7469 334.25662 576.7469 332.88162ZM578.8875 331.16287Q578.41876 331.16287 578.1219 331.56912Q577.825 331.95975 577.825 333.00662Q577.825 333.97537 578.1219 334.366Q578.4344 334.75662 578.8875 334.75662Q579.35626 334.75662 579.65314 334.366Q579.96564 333.97537 579.96564 332.91287Q579.96564 331.94412 579.65314 331.5535Q579.35626 331.16287 578.8875 331.16287Z" fill-rule="nonzero"/><path stroke="#757575" stroke-width="1.0" stroke-linecap="butt" d="M581.45 320.741L472.95 320.741L382.85306 320.741" fill-rule="nonzero"/><path fill="#9e9e9e" d="M384.85306 320.741C384.85306 319.6364 383.95764 318.741 382.85306 318.741C381.7485 318.741 380.85306 319.6364 380.85306 320.741C380.85306 321.84555 381.7485 322.741 382.85306 322.741C383.95764 322.741 384.85306 321.84555 384.85306 320.741" fill-rule="nonzero"/></svg>