<?plantuml 1.2026.2?><svg xmlns="http://www.w3.org/2000/svg" xmlns:xlink="http://www.w3.org/1999/xlink" contentStyleType="text/css" data-diagram-type="CLASS" height="686px" preserveAspectRatio="none" style="width:1099px;height:686px;background:#FFFFFF;" version="1.1" viewBox="0 0 1099 686" width="1099px" zoomAndPan="magnify"><title>Admin Module - Tenants Submodule</title><defs/><g><g class="title" data-source-line="1"><text fill="#000000" font-family="sans-serif" font-size="14" font-weight="bold" lengthAdjust="spacing" textLength="285.3594" x="399.8203" y="22.9951">Admin Module - Tenants Submodule</text></g><!--cluster Admin--><g class="cluster" data-qualified-name="Admin" data-source-line="29" id="ent0002"><rect fill="none" height="636" rx="2.5" ry="2.5" style="stroke:#181818;stroke-width:1;" width="1086" x="7" y="44.2969"/><text fill="#000000" font-family="sans-serif" font-size="10" font-weight="bold" lengthAdjust="spacing" textLength="35.8643" x="532.0679" y="55.5791">Admin</text></g><!--class TenantsStatus--><g class="entity" data-qualified-name="Admin.TenantsStatus" data-source-line="30" id="ent0003"><rect fill="#E8F4FD" height="67.2813" rx="2.5" ry="2.5" style="stroke:#2196F3;stroke-width:0.5;" width="100.0605" x="171" y="86.2969"/><ellipse cx="184" cy="100.2969" fill="#EB937F" rx="9" ry="9" style="stroke:#181818;stroke-width:1;"/><path d="M185.8594,103.7969 L181.3281,103.7969 L181.3281,96.5 L185.8594,96.5 L185.8594,97.7813 L182.7656,97.7813 L182.7656,99.3438 L185.5625,99.3438 L185.5625,100.625 L182.7656,100.625 L182.7656,102.5313 L185.8594,102.5313 L185.8594,103.7969 Z " fill="#000000"/><text fill="#000000" font-family="sans-serif" font-size="10" lengthAdjust="spacing" textLength="72.0605" x="196" y="103.7588">TenantsStatus</text><line style="stroke:#2196F3;stroke-width:0.5;" x1="172" x2="270.0605" y1="114.2969" y2="114.2969"/><text fill="#000000" font-family="sans-serif" font-size="10" lengthAdjust="spacing" textLength="31.1084" x="177" y="127.5791">Active</text><text fill="#000000" font-family="sans-serif" font-size="10" lengthAdjust="spacing" textLength="55.5811" x="177" y="139.2197">Suspended</text><line style="stroke:#2196F3;stroke-width:0.5;" x1="172" x2="270.0605" y1="145.5781" y2="145.5781"/></g><!--class CreateTenantRequestDto--><g class="entity" data-qualified-name="Admin.CreateTenantRequestDto" data-source-line="37" id="ent0004"><rect fill="#E8F4FD" height="90.5625" rx="2.5" ry="2.5" style="stroke:#2196F3;stroke-width:0.5;" width="162.3223" x="394" y="74.2969"/><ellipse cx="410.1865" cy="88.2969" fill="#ADD1B2" rx="9" ry="9" style="stroke:#181818;stroke-width:1;"/><path d="M411.4677,91.5938 Q411.124,91.7656 410.749,91.8438 Q410.374,91.9375 409.9521,91.9375 Q408.4833,91.9375 407.7021,90.9688 Q406.9365,90 406.9365,88.1563 Q406.9365,86.3125 407.7021,85.3438 Q408.4833,84.375 409.9521,84.375 Q410.374,84.375 410.749,84.4688 Q411.1396,84.5469 411.4677,84.7188 L411.4677,86.3281 Q411.0927,85.9844 410.7333,85.8281 Q410.3896,85.6719 410.0302,85.6719 Q409.2333,85.6719 408.8271,86.2969 Q408.4208,86.9219 408.4208,88.1563 Q408.4208,89.3906 408.8271,90.0156 Q409.2333,90.6406 410.0302,90.6406 Q410.3896,90.6406 410.7333,90.4844 Q411.0927,90.3281 411.4677,89.9844 L411.4677,91.5938 Z " fill="#000000"/><text fill="#000000" font-family="sans-serif" font-size="10" lengthAdjust="spacing" textLength="127.2412" x="422.8946" y="91.7588">CreateTenantRequestDto</text><line style="stroke:#2196F3;stroke-width:0.5;" x1="395" x2="555.3223" y1="102.2969" y2="102.2969"/><text fill="#000000" font-family="sans-serif" font-size="10" lengthAdjust="spacing" textLength="73.1299" x="400" y="115.5791">+name: String</text><text fill="#000000" font-family="sans-serif" font-size="10" lengthAdjust="spacing" textLength="103.8477" x="400" y="127.2197">+adminEmail: String</text><text fill="#000000" font-family="sans-serif" font-size="10" lengthAdjust="spacing" textLength="127.2559" x="400" y="138.8604">+adminUsername: String</text><text fill="#000000" font-family="sans-serif" font-size="10" lengthAdjust="spacing" textLength="150.3223" x="400" y="150.501">+adminPassword: String[0..1]</text><line style="stroke:#2196F3;stroke-width:0.5;" x1="395" x2="555.3223" y1="156.8594" y2="156.8594"/></g><!--class TenantsResponseDto--><g class="entity" data-qualified-name="Admin.TenantsResponseDto" data-source-line="44" id="ent0005"><rect fill="#E8F4FD" height="90.5625" rx="2.5" ry="2.5" style="stroke:#2196F3;stroke-width:0.5;" width="134.4111" x="656" y="74.2969"/><ellipse cx="669" cy="88.2969" fill="#ADD1B2" rx="9" ry="9" style="stroke:#181818;stroke-width:1;"/><path d="M670.2813,91.5938 Q669.9375,91.7656 669.5625,91.8438 Q669.1875,91.9375 668.7656,91.9375 Q667.2969,91.9375 666.5156,90.9688 Q665.75,90 665.75,88.1563 Q665.75,86.3125 666.5156,85.3438 Q667.2969,84.375 668.7656,84.375 Q669.1875,84.375 669.5625,84.4688 Q669.9531,84.5469 670.2813,84.7188 L670.2813,86.3281 Q669.9063,85.9844 669.5469,85.8281 Q669.2031,85.6719 668.8438,85.6719 Q668.0469,85.6719 667.6406,86.2969 Q667.2344,86.9219 667.2344,88.1563 Q667.2344,89.3906 667.6406,90.0156 Q668.0469,90.6406 668.8438,90.6406 Q669.2031,90.6406 669.5469,90.4844 Q669.9063,90.3281 670.2813,89.9844 L670.2813,91.5938 Z " fill="#000000"/><text fill="#000000" font-family="sans-serif" font-size="10" lengthAdjust="spacing" textLength="106.4111" x="681" y="91.7588">TenantsResponseDto</text><line style="stroke:#2196F3;stroke-width:0.5;" x1="657" x2="789.4111" y1="102.2969" y2="102.2969"/><text fill="#000000" font-family="sans-serif" font-size="10" lengthAdjust="spacing" textLength="53.8965" x="662" y="115.5791">+id: String</text><text fill="#000000" font-family="sans-serif" font-size="10" lengthAdjust="spacing" textLength="73.1299" x="662" y="127.2197">+name: String</text><text fill="#000000" font-family="sans-serif" font-size="10" lengthAdjust="spacing" textLength="117.7148" x="662" y="138.8604">+status: TenantsStatus</text><text fill="#000000" font-family="sans-serif" font-size="10" lengthAdjust="spacing" textLength="93.8428" x="662" y="150.501">+createdAt: String</text><line style="stroke:#2196F3;stroke-width:0.5;" x1="657" x2="789.4111" y1="156.8594" y2="156.8594"/></g><!--class CreateTenantInput--><g class="entity" data-qualified-name="Admin.CreateTenantInput" data-source-line="53" id="ent0006"><rect fill="#E8F4FD" height="90.5625" rx="2.5" ry="2.5" style="stroke:#2196F3;stroke-width:0.5;" width="162.3223" x="895" y="225.2969"/><ellipse cx="925.9982" cy="239.2969" fill="#B4A7E5" rx="9" ry="9" style="stroke:#181818;stroke-width:1;"/><path d="M923.842,236.7813 L923.842,235.5 L928.1857,235.5 L928.1857,236.7813 L926.7326,236.7813 L926.7326,241.5313 L928.1857,241.5313 L928.1857,242.7969 L923.842,242.7969 L923.842,241.5313 L925.2951,241.5313 L925.2951,236.7813 L923.842,236.7813 Z " fill="#000000"/><text fill="#000000" font-family="sans-serif" font-size="10" font-style="italic" lengthAdjust="spacing" textLength="94.3262" x="941.9979" y="242.7588">CreateTenantInput</text><line style="stroke:#2196F3;stroke-width:0.5;" x1="896" x2="1056.3223" y1="253.2969" y2="253.2969"/><text fill="#000000" font-family="sans-serif" font-size="10" lengthAdjust="spacing" textLength="73.1299" x="901" y="266.5791">+name: String</text><text fill="#000000" font-family="sans-serif" font-size="10" lengthAdjust="spacing" textLength="103.8477" x="901" y="278.2197">+adminEmail: String</text><text fill="#000000" font-family="sans-serif" font-size="10" lengthAdjust="spacing" textLength="127.2559" x="901" y="289.8604">+adminUsername: String</text><text fill="#000000" font-family="sans-serif" font-size="10" lengthAdjust="spacing" textLength="150.3223" x="901" y="301.501">+adminPassword: String[0..1]</text><line style="stroke:#2196F3;stroke-width:0.5;" x1="896" x2="1056.3223" y1="307.8594" y2="307.8594"/></g><!--class CreateTenantPersistenceInput--><g class="entity" data-qualified-name="Admin.CreateTenantPersistenceInput" data-source-line="60" id="ent0007"><rect fill="#E8F4FD" height="55.6406" rx="2.5" ry="2.5" style="stroke:#2196F3;stroke-width:0.5;" width="179.8799" x="877" y="405.2969"/><ellipse cx="890" cy="419.2969" fill="#B4A7E5" rx="9" ry="9" style="stroke:#181818;stroke-width:1;"/><path d="M887.8438,416.7813 L887.8438,415.5 L892.1875,415.5 L892.1875,416.7813 L890.7344,416.7813 L890.7344,421.5313 L892.1875,421.5313 L892.1875,422.7969 L887.8438,422.7969 L887.8438,421.5313 L889.2969,421.5313 L889.2969,416.7813 L887.8438,416.7813 Z " fill="#000000"/><text fill="#000000" font-family="sans-serif" font-size="10" font-style="italic" lengthAdjust="spacing" textLength="151.8799" x="902" y="422.7588">CreateTenantPersistenceInput</text><line style="stroke:#2196F3;stroke-width:0.5;" x1="878" x2="1055.8799" y1="433.2969" y2="433.2969"/><text fill="#000000" font-family="sans-serif" font-size="10" lengthAdjust="spacing" textLength="73.1299" x="883" y="446.5791">+name: String</text><line style="stroke:#2196F3;stroke-width:0.5;" x1="878" x2="1055.8799" y1="452.9375" y2="452.9375"/></g><!--class TenantsEntity--><g class="entity" data-qualified-name="Admin.TenantsEntity" data-source-line="64" id="ent0008"><rect fill="#E8F4FD" height="113.8438" rx="2.5" ry="2.5" style="stroke:#2196F3;stroke-width:0.5;" width="181.541" x="895" y="550.2969"/><ellipse cx="947.3257" cy="564.2969" fill="#ADD1B2" rx="9" ry="9" style="stroke:#181818;stroke-width:1;"/><path d="M948.6069,567.5938 Q948.2632,567.7656 947.8882,567.8438 Q947.5132,567.9375 947.0913,567.9375 Q945.6226,567.9375 944.8413,566.9688 Q944.0757,566 944.0757,564.1563 Q944.0757,562.3125 944.8413,561.3438 Q945.6226,560.375 947.0913,560.375 Q947.5132,560.375 947.8882,560.4688 Q948.2788,560.5469 948.6069,560.7188 L948.6069,562.3281 Q948.2319,561.9844 947.8726,561.8281 Q947.5288,561.6719 947.1694,561.6719 Q946.3726,561.6719 945.9663,562.2969 Q945.5601,562.9219 945.5601,564.1563 Q945.5601,565.3906 945.9663,566.0156 Q946.3726,566.6406 947.1694,566.6406 Q947.5288,566.6406 947.8726,566.4844 Q948.2319,566.3281 948.6069,565.9844 L948.6069,567.5938 Z " fill="#000000"/><text fill="#000000" font-family="sans-serif" font-size="10" lengthAdjust="spacing" textLength="69.3896" x="964.8257" y="567.7588">TenantsEntity</text><line style="stroke:#2196F3;stroke-width:0.5;" x1="896" x2="1075.541" y1="578.2969" y2="578.2969"/><text fill="#000000" font-family="sans-serif" font-size="10" lengthAdjust="spacing" textLength="49.126" x="901" y="591.5791">-id: String</text><text fill="#000000" font-family="sans-serif" font-size="10" lengthAdjust="spacing" textLength="68.3594" x="901" y="603.2197">-name: String</text><text fill="#000000" font-family="sans-serif" font-size="10" lengthAdjust="spacing" textLength="107.7344" x="901" y="614.8604">-status: TenantStatus</text><text fill="#000000" font-family="sans-serif" font-size="10" lengthAdjust="spacing" textLength="169.541" x="901" y="626.501">-suspensionIntervalDays: Int[0..1]</text><text fill="#000000" font-family="sans-serif" font-size="10" lengthAdjust="spacing" textLength="89.0723" x="901" y="638.1416">-createdAt: String</text><text fill="#000000" font-family="sans-serif" font-size="10" lengthAdjust="spacing" textLength="92.3438" x="901" y="649.7822">-updatedAt: String</text><line style="stroke:#2196F3;stroke-width:0.5;" x1="896" x2="1075.541" y1="656.1406" y2="656.1406"/></g><!--class TenantsController--><g class="entity" data-qualified-name="Admin.TenantsController" data-source-line="73" id="ent0009"><rect fill="#E8F4FD" height="78.9219" rx="2.5" ry="2.5" style="stroke:#2196F3;stroke-width:0.5;" width="392.2295" x="403" y="231.2969"/><ellipse cx="550.5625" cy="245.2969" fill="#ADD1B2" rx="9" ry="9" style="stroke:#181818;stroke-width:1;"/><path d="M551.8438,248.5938 Q551.5,248.7656 551.125,248.8438 Q550.75,248.9375 550.3281,248.9375 Q548.8594,248.9375 548.0781,247.9688 Q547.3125,247 547.3125,245.1563 Q547.3125,243.3125 548.0781,242.3438 Q548.8594,241.375 550.3281,241.375 Q550.75,241.375 551.125,241.4688 Q551.5156,241.5469 551.8438,241.7188 L551.8438,243.3281 Q551.4688,242.9844 551.1094,242.8281 Q550.7656,242.6719 550.4063,242.6719 Q549.6094,242.6719 549.2031,243.2969 Q548.7969,243.9219 548.7969,245.1563 Q548.7969,246.3906 549.2031,247.0156 Q549.6094,247.6406 550.4063,247.6406 Q550.7656,247.6406 551.1094,247.4844 Q551.4688,247.3281 551.8438,246.9844 L551.8438,248.5938 Z " fill="#000000"/><text fill="#000000" font-family="sans-serif" font-size="10" lengthAdjust="spacing" textLength="89.6045" x="568.0625" y="248.7588">TenantsController</text><line style="stroke:#2196F3;stroke-width:0.5;" x1="404" x2="794.2295" y1="259.2969" y2="259.2969"/><text fill="#000000" font-family="sans-serif" font-size="10" lengthAdjust="spacing" textLength="96.4404" x="409" y="272.5791">-ts: TenantsService</text><line style="stroke:#2196F3;stroke-width:0.5;" x1="404" x2="794.2295" y1="278.9375" y2="278.9375"/><text fill="#000000" font-family="sans-serif" font-size="10" lengthAdjust="spacing" textLength="275.9814" x="409" y="292.2197">+getTenants(): Promise&lt;TenantsResponseDto[]&gt;[0..*]</text><text fill="#000000" font-family="sans-serif" font-size="10" lengthAdjust="spacing" textLength="380.2295" x="409" y="303.8604">+createTenant(CreateTenantRequestDto): Promise&lt;TenantsResponseDto&gt;</text></g><!--class TenantsService--><g class="entity" data-qualified-name="Admin.TenantsService" data-source-line="79" id="ent0010"><rect fill="#E8F4FD" height="78.9219" rx="2.5" ry="2.5" style="stroke:#2196F3;stroke-width:0.5;" width="317.9131" x="459" y="393.7969"/><ellipse cx="575.6299" cy="407.7969" fill="#ADD1B2" rx="9" ry="9" style="stroke:#181818;stroke-width:1;"/><path d="M576.9111,411.0938 Q576.5674,411.2656 576.1924,411.3438 Q575.8174,411.4375 575.3955,411.4375 Q573.9268,411.4375 573.1455,410.4688 Q572.3799,409.5 572.3799,407.6563 Q572.3799,405.8125 573.1455,404.8438 Q573.9268,403.875 575.3955,403.875 Q575.8174,403.875 576.1924,403.9688 Q576.583,404.0469 576.9111,404.2188 L576.9111,405.8281 Q576.5361,405.4844 576.1768,405.3281 Q575.833,405.1719 575.4736,405.1719 Q574.6768,405.1719 574.2705,405.7969 Q573.8643,406.4219 573.8643,407.6563 Q573.8643,408.8906 574.2705,409.5156 Q574.6768,410.1406 575.4736,410.1406 Q575.833,410.1406 576.1768,409.9844 Q576.5361,409.8281 576.9111,409.4844 L576.9111,411.0938 Z " fill="#000000"/><text fill="#000000" font-family="sans-serif" font-size="10" lengthAdjust="spacing" textLength="77.1533" x="593.1299" y="411.2588">TenantsService</text><line style="stroke:#2196F3;stroke-width:0.5;" x1="460" x2="775.9131" y1="421.7969" y2="421.7969"/><text fill="#000000" font-family="sans-serif" font-size="10" lengthAdjust="spacing" textLength="155.1318" x="465" y="435.0791">-tps: TenantPersistenceService</text><line style="stroke:#2196F3;stroke-width:0.5;" x1="460" x2="775.9131" y1="441.4375" y2="441.4375"/><text fill="#000000" font-family="sans-serif" font-size="10" lengthAdjust="spacing" textLength="234.5801" x="465" y="454.7197">+getTenants(): Promise&lt;TenantModel[]&gt;[0..*]</text><text fill="#000000" font-family="sans-serif" font-size="10" lengthAdjust="spacing" textLength="305.9131" x="465" y="466.3604">+createTenant(CreateTenantInput): Promise&lt;TenantModel&gt;</text></g><!--class TenantsPersistenceService--><g class="entity" data-qualified-name="Admin.TenantsPersistenceService" data-source-line="84" id="ent0011"><rect fill="#E8F4FD" height="78.9219" rx="2.5" ry="2.5" style="stroke:#2196F3;stroke-width:0.5;" width="374.6367" x="419.5" y="567.7969"/><ellipse cx="535.7148" cy="581.7969" fill="#ADD1B2" rx="9" ry="9" style="stroke:#181818;stroke-width:1;"/><path d="M536.9961,585.0938 Q536.6523,585.2656 536.2773,585.3438 Q535.9023,585.4375 535.4805,585.4375 Q534.0117,585.4375 533.2305,584.4688 Q532.4648,583.5 532.4648,581.6563 Q532.4648,579.8125 533.2305,578.8438 Q534.0117,577.875 535.4805,577.875 Q535.9023,577.875 536.2773,577.9688 Q536.668,578.0469 536.9961,578.2188 L536.9961,579.8281 Q536.6211,579.4844 536.2617,579.3281 Q535.918,579.1719 535.5586,579.1719 Q534.7617,579.1719 534.3555,579.7969 Q533.9492,580.4219 533.9492,581.6563 Q533.9492,582.8906 534.3555,583.5156 Q534.7617,584.1406 535.5586,584.1406 Q535.918,584.1406 536.2617,583.9844 Q536.6211,583.8281 536.9961,583.4844 L536.9961,585.0938 Z " fill="#000000"/><text fill="#000000" font-family="sans-serif" font-size="10" lengthAdjust="spacing" textLength="134.707" x="553.2148" y="585.2588">TenantsPersistenceService</text><line style="stroke:#2196F3;stroke-width:0.5;" x1="420.5" x2="793.1367" y1="595.7969" y2="595.7969"/><text fill="#000000" font-family="sans-serif" font-size="10" lengthAdjust="spacing" textLength="148.8281" x="425.5" y="609.0791">-r: Repository&lt;TenantEntity&gt;</text><line style="stroke:#2196F3;stroke-width:0.5;" x1="420.5" x2="793.1367" y1="615.4375" y2="615.4375"/><text fill="#000000" font-family="sans-serif" font-size="10" lengthAdjust="spacing" textLength="362.6367" x="425.5" y="628.7197">+createTenant(CreateTenantPersistenceInput): Promise&lt;TenantEntity&gt;</text><text fill="#000000" font-family="sans-serif" font-size="10" lengthAdjust="spacing" textLength="233.75" x="425.5" y="640.3604">+getTenants(): Promise&lt;TenantEntity[]&gt;[0..*]</text></g><!--class TenantsMapper--><g class="entity" data-qualified-name="Admin.TenantsMapper" data-source-line="91" id="ent0012"><rect fill="#E8F4FD" height="67.2813" rx="2.5" ry="2.5" style="stroke:#2196F3;stroke-width:0.5;" width="287.6152" x="31" y="573.7969"/><ellipse cx="132.1025" cy="587.7969" fill="#ADD1B2" rx="9" ry="9" style="stroke:#181818;stroke-width:1;"/><path d="M133.3838,591.0938 Q133.04,591.2656 132.665,591.3438 Q132.29,591.4375 131.8682,591.4375 Q130.3994,591.4375 129.6182,590.4688 Q128.8525,589.5 128.8525,587.6563 Q128.8525,585.8125 129.6182,584.8438 Q130.3994,583.875 131.8682,583.875 Q132.29,583.875 132.665,583.9688 Q133.0557,584.0469 133.3838,584.2188 L133.3838,585.8281 Q133.0088,585.4844 132.6494,585.3281 Q132.3057,585.1719 131.9463,585.1719 Q131.1494,585.1719 130.7432,585.7969 Q130.3369,586.4219 130.3369,587.6563 Q130.3369,588.8906 130.7432,589.5156 Q131.1494,590.1406 131.9463,590.1406 Q132.3057,590.1406 132.6494,589.9844 Q133.0088,589.8281 133.3838,589.4844 L133.3838,591.0938 Z " fill="#000000"/><text fill="#000000" font-family="sans-serif" font-size="10" lengthAdjust="spacing" textLength="77.9102" x="149.6025" y="591.2588">TenantsMapper</text><line style="stroke:#2196F3;stroke-width:0.5;" x1="32" x2="317.6152" y1="601.7969" y2="601.7969"/><line style="stroke:#2196F3;stroke-width:0.5;" x1="32" x2="317.6152" y1="609.7969" y2="609.7969"/><text fill="#000000" font-family="sans-serif" font-size="10" lengthAdjust="spacing" textLength="202.4023" x="37" y="623.0791">+toModel(TenantsEntity): TenantsModel</text><text fill="#000000" font-family="sans-serif" font-size="10" lengthAdjust="spacing" textLength="275.6152" x="37" y="634.7197">+toResponseDto(TenantsModel): TenantsResponseDto</text></g><!--class TenantsModel--><g class="entity" data-qualified-name="Admin.TenantsModel" data-source-line="96" id="ent0013"><rect fill="#E8F4FD" height="113.8438" rx="2.5" ry="2.5" style="stroke:#2196F3;stroke-width:0.5;" width="186.3115" x="71" y="376.2969"/><ellipse cx="125.2959" cy="390.2969" fill="#ADD1B2" rx="9" ry="9" style="stroke:#181818;stroke-width:1;"/><path d="M126.5771,393.5938 Q126.2334,393.7656 125.8584,393.8438 Q125.4834,393.9375 125.0615,393.9375 Q123.5928,393.9375 122.8115,392.9688 Q122.0459,392 122.0459,390.1563 Q122.0459,388.3125 122.8115,387.3438 Q123.5928,386.375 125.0615,386.375 Q125.4834,386.375 125.8584,386.4688 Q126.249,386.5469 126.5771,386.7188 L126.5771,388.3281 Q126.2021,387.9844 125.8428,387.8281 Q125.499,387.6719 125.1396,387.6719 Q124.3428,387.6719 123.9365,388.2969 Q123.5303,388.9219 123.5303,390.1563 Q123.5303,391.3906 123.9365,392.0156 Q124.3428,392.6406 125.1396,392.6406 Q125.499,392.6406 125.8428,392.4844 Q126.2021,392.3281 126.5771,391.9844 L126.5771,393.5938 Z " fill="#000000"/><text fill="#000000" font-family="sans-serif" font-size="10" lengthAdjust="spacing" textLength="70.2197" x="142.7959" y="393.7588">TenantsModel</text><line style="stroke:#2196F3;stroke-width:0.5;" x1="72" x2="256.3115" y1="404.2969" y2="404.2969"/><text fill="#000000" font-family="sans-serif" font-size="10" lengthAdjust="spacing" textLength="53.8965" x="77" y="417.5791">+id: String</text><text fill="#000000" font-family="sans-serif" font-size="10" lengthAdjust="spacing" textLength="73.1299" x="77" y="429.2197">+name: String</text><text fill="#000000" font-family="sans-serif" font-size="10" lengthAdjust="spacing" textLength="112.5049" x="77" y="440.8604">+status: TenantStatus</text><text fill="#000000" font-family="sans-serif" font-size="10" lengthAdjust="spacing" textLength="174.3115" x="77" y="452.501">+suspensionIntervalDays: Int[0..1]</text><text fill="#000000" font-family="sans-serif" font-size="10" lengthAdjust="spacing" textLength="93.8428" x="77" y="464.1416">+createdAt: String</text><text fill="#000000" font-family="sans-serif" font-size="10" lengthAdjust="spacing" textLength="97.1143" x="77" y="475.7822">+updatedAt: String</text><line style="stroke:#2196F3;stroke-width:0.5;" x1="72" x2="256.3115" y1="482.1406" y2="482.1406"/></g><!--reverse link CreateTenantRequestDto to TenantsController--><g class="link" data-entity-1="ent0004" data-entity-2="ent0009" data-link-type="dependency" data-source-line="105" id="lnk15"><path codeLine="105" d="M479.5,171.5069 C479.5,192.3469 479.5,210.7769 479.5,230.8669" fill="none" id="CreateTenantRequestDto-backto-TenantsController" style="stroke:#1976D2;stroke-width:1;"/><polygon fill="#1976D2" points="479.5,165.5069,475.5,174.5069,479.5,170.5069,483.5,174.5069,479.5,165.5069" style="stroke:#1976D2;stroke-width:1;"/></g><!--reverse link TenantsResponseDto to TenantsController--><g class="link" data-entity-1="ent0005" data-entity-2="ent0009" data-link-type="dependency" data-source-line="106" id="lnk17"><path codeLine="106" d="M723,171.5069 C723,192.3469 723,210.7769 723,230.8669" fill="none" id="TenantsResponseDto-backto-TenantsController" style="stroke:#1976D2;stroke-width:1;"/><polygon fill="#1976D2" points="723,165.5069,719,174.5069,723,170.5069,727,174.5069,723,165.5069" style="stroke:#1976D2;stroke-width:1;"/></g><!--link TenantsController to TenantsService--><g class="link" data-entity-1="ent0009" data-entity-2="ent0010" data-link-type="dependency" data-source-line="107" id="lnk18"><path codeLine="107" d="M618,310.5469 C618,335.8269 618,362.4269 618,387.6769" fill="none" id="TenantsController-to-TenantsService" style="stroke:#1976D2;stroke-width:1;stroke-dasharray:7,7;"/><polygon fill="#1976D2" points="618,393.6769,622,384.6769,618,388.6769,614,384.6769,618,393.6769" style="stroke:#1976D2;stroke-width:1;"/><text fill="#000000" font-family="sans-serif" font-size="10" lengthAdjust="spacing" textLength="22.9102" x="595" y="349.3891">uses</text></g><!--link TenantsController to TenantsMapper--><g class="link" data-entity-1="ent0009" data-entity-2="ent0012" data-link-type="dependency" data-source-line="108" id="lnk19"><path codeLine="108" d="M414,310.3869 C414,399.3369 414,607.2969 414,607.2969 C414,607.2969 375.67,607.2969 325.2,607.2969" fill="none" id="TenantsController-to-TenantsMapper" style="stroke:#1976D2;stroke-width:1;stroke-dasharray:7,7;"/><polygon fill="#1976D2" points="319.2,607.2969,328.2,611.2969,324.2,607.2969,328.2,603.2969,319.2,607.2969" style="stroke:#1976D2;stroke-width:1;"/><text fill="#000000" font-family="sans-serif" font-size="10" lengthAdjust="spacing" textLength="22.9102" x="391" y="503.5291">uses</text></g><!--reverse link CreateTenantInput to TenantsController--><g class="link" data-entity-1="ent0006" data-entity-2="ent0009" data-link-type="dependency" data-source-line="109" id="lnk21"><path codeLine="109" d="M888.66,271.2969 C859.11,271.2969 830.31,271.2969 795.14,271.2969" fill="none" id="CreateTenantInput-backto-TenantsController" style="stroke:#1976D2;stroke-width:1;"/><polygon fill="#1976D2" points="894.66,271.2969,885.66,267.2969,889.66,271.2969,885.66,275.2969,894.66,271.2969" style="stroke:#1976D2;stroke-width:1;"/></g><!--link TenantsController to TenantsModel--><g class="link" data-entity-1="ent0009" data-entity-2="ent0013" data-link-type="dependency" data-source-line="110" id="lnk22"><path codeLine="110" d="M408.5,310.5269 C408.5,343.5969 408.5,385.2969 408.5,385.2969 C408.5,385.2969 332.23,385.2969 263.13,385.2969" fill="none" id="TenantsController-to-TenantsModel" style="stroke:#1976D2;stroke-width:1;"/><polygon fill="#1976D2" points="257.13,385.2969,266.13,389.2969,262.13,385.2969,266.13,381.2969,257.13,385.2969" style="stroke:#1976D2;stroke-width:1;"/></g><!--link TenantsService to TenantsModel--><g class="link" data-entity-1="ent0010" data-entity-2="ent0013" data-link-type="dependency" data-source-line="111" id="lnk23"><path codeLine="111" d="M458.89,420.2969 C391.42,420.2969 321.12,420.2969 263.04,420.2969" fill="none" id="TenantsService-to-TenantsModel" style="stroke:#1976D2;stroke-width:1;"/><polygon fill="#1976D2" points="257.04,420.2969,266.04,424.2969,262.04,420.2969,266.04,416.2969,257.04,420.2969" style="stroke:#1976D2;stroke-width:1;"/></g><!--link TenantsService to TenantsPersistenceService--><g class="link" data-entity-1="ent0010" data-entity-2="ent0011" data-link-type="dependency" data-source-line="112" id="lnk24"><path codeLine="112" d="M618,473.2169 C618,501.5069 618,533.3069 618,561.5669" fill="none" id="TenantsService-to-TenantsPersistenceService" style="stroke:#1976D2;stroke-width:1;stroke-dasharray:7,7;"/><polygon fill="#1976D2" points="618,567.5669,622,558.5669,618,562.5669,614,558.5669,618,567.5669" style="stroke:#1976D2;stroke-width:1;"/><text fill="#000000" font-family="sans-serif" font-size="10" lengthAdjust="spacing" textLength="22.9102" x="595" y="517.6691">uses</text></g><!--link TenantsService to TenantsMapper--><g class="link" data-entity-1="ent0010" data-entity-2="ent0012" data-link-type="dependency" data-source-line="113" id="lnk25"><path codeLine="113" d="M458.87,447.2969 C377.33,447.2969 295,447.2969 295,447.2969 C295,447.2969 295,520.8369 295,567.7569" fill="none" id="TenantsService-to-TenantsMapper" style="stroke:#1976D2;stroke-width:1;stroke-dasharray:7,7;"/><polygon fill="#1976D2" points="295,573.7569,299,564.7569,295,568.7569,291,564.7569,295,573.7569" style="stroke:#1976D2;stroke-width:1;"/><text fill="#000000" font-family="sans-serif" font-size="10" lengthAdjust="spacing" textLength="22.9102" x="290.7" y="444.5791">uses</text></g><!--reverse link CreateTenantInput to TenantsService--><g class="link" data-entity-1="ent0006" data-entity-2="ent0010" data-link-type="dependency" data-source-line="114" id="lnk27"><path codeLine="114" d="M976,322.4569 C976,359.7369 976,400.2969 976,400.2969 C976,400.2969 872.72,400.2969 777.11,400.2969" fill="none" id="CreateTenantInput-backto-TenantsService" style="stroke:#1976D2;stroke-width:1;"/><polygon fill="#1976D2" points="976,316.4569,972,325.4569,976,321.4569,980,325.4569,976,316.4569" style="stroke:#1976D2;stroke-width:1;"/></g><!--reverse link CreateTenantPersistenceInput to TenantsService--><g class="link" data-entity-1="ent0007" data-entity-2="ent0010" data-link-type="dependency" data-source-line="115" id="lnk29"><path codeLine="115" d="M870.67,424.2969 C840.27,424.2969 811.4,424.2969 777.3,424.2969" fill="none" id="CreateTenantPersistenceInput-backto-TenantsService" style="stroke:#1976D2;stroke-width:1;"/><polygon fill="#1976D2" points="876.67,424.2969,867.67,420.2969,871.67,424.2969,867.67,428.2969,876.67,424.2969" style="stroke:#1976D2;stroke-width:1;"/></g><!--reverse link CreateTenantPersistenceInput to TenantsPersistenceService--><g class="link" data-entity-1="ent0007" data-entity-2="ent0011" data-link-type="dependency" data-source-line="117" id="lnk31"><path codeLine="117" d="M870.91,443.2969 C825.42,443.2969 785.75,443.2969 785.75,443.2969 C785.75,443.2969 785.75,519.0569 785.75,567.5969" fill="none" id="CreateTenantPersistenceInput-backto-TenantsPersistenceService" style="stroke:#1976D2;stroke-width:1;"/><polygon fill="#1976D2" points="876.91,443.2969,867.91,439.2969,871.91,443.2969,867.91,447.2969,876.91,443.2969" style="stroke:#1976D2;stroke-width:1;"/></g><!--link TenantsPersistenceService to TenantsEntity--><g class="link" data-entity-1="ent0011" data-entity-2="ent0008" data-link-type="dependency" data-source-line="118" id="lnk32"><path codeLine="118" d="M794.56,607.2969 C829.4,607.2969 858.33,607.2969 888.63,607.2969" fill="none" id="TenantsPersistenceService-to-TenantsEntity" style="stroke:#1976D2;stroke-width:1;"/><polygon fill="#1976D2" points="894.63,607.2969,885.63,603.2969,889.63,607.2969,885.63,611.2969,894.63,607.2969" style="stroke:#1976D2;stroke-width:1;"/></g><!--reverse link CreateTenantPersistenceInput to TenantsEntity--><!--reverse link TenantsModel to TenantsMapper--><?plantuml-src lLLDR-8m4BtdLrZiXIuAWdRLRL65HFcGUgXKGVTKSJ395Am6EsjFscLN_FSrZWDEubAsXqKGaV5yl7dp9a662P11l6QSt8iuqpSXUGHEEIeoonPhOmlK2-CfbNHDeeGgDK2KR94Xt4M2pzXl81t79OPdcYNu2BzmaB0bNmD74kaBICThGQENfHGPZuSY4P9ycPXFFSz4S3GrkXt_eOtlc4yLAlaJ479RhJM-cdoRZ7OdGiOWhVMyUtqvkT3MWPJYpHgxrzylH-V1raaCF5lxy-e6BiQTQjx9vFfA8tDJi1qRppI2J-1pyt0HWu9KS-DsdZ0Ek4c128ahuHoakX1TmWmtUj0I8gHyMHel5_XFa2QtmyxvI4D2aH8KP24GXPuEsoLdWWU1BKaQHcGDSdCpBUhs-wQKeRDXHJT3Yfbg4Af8oM8yzMHqrbSmVsUPIe774EkxRQ0l-ejY2RW2cJld0cWC9L24FDiKVcQWS8J2bF0VsLejJjVG8pEjTRxCBNJNmtXDMUAn_r0Wtmbvq43UD6_5qLEdtUxE2-0Mf-rt2YeLN461iMukyB6uNAfUN1dkUcKgywF8j1uFq8dOsjyEr46XBabtFCtmV_FZX_80KZ65m2CuXifXsB8mviXmOzt32ebX3M5O9j7XC5H6Wahh_6u7yPKc8xhHdlfktu5syr6jpLaQUoRWIBYiYw5-r4cH921TMHoiHKFep5jZOb6-BYsTrfgRPpto8CMQARYfg-jftj-1_pftTPAxDVtxSZHTtwzo2wsqwBbftqUwRyGPzSajwRSP9AVsOWJaJz6tEr71NuVajb8_BRgIFJA5L2Y6GcvidLoG_GymLlLUWrjASuoQtD7bPXjiAq_FShVtD4tBkiijnSwXC5mrInjsjjUXEImy7MqqtVE3k-FXNM3Z_jc7eFiCF6r_M_xzRVdtD__LjrElUzX_vuLp9C1BITsvtUvNrwX7CWNAxotPSeM743lC8n5X0izOmMzKwFSs-G_eY_bN49xerex56p-0zUnM5VW-yhG-ztW-RlAOQtL1WqEO1_D96OucgB2NBzqXnBxcmgSLYsFWyvh-tgzcUIg7beQq3Vu2?></g></svg>