<?plantuml 1.2026.2?><svg xmlns="http://www.w3.org/2000/svg" xmlns:xlink="http://www.w3.org/1999/xlink" contentStyleType="text/css" data-diagram-type="CLASS" height="634px" preserveAspectRatio="none" style="width:2487px;height:634px;background:#FFFFFF;" version="1.1" viewBox="0 0 2487 634" width="2487px" zoomAndPan="magnify"><title>NOTIP Management API - Architecture (1/3)</title><defs/><g><g class="title" data-source-line="1"><text fill="#000000" font-family="sans-serif" font-size="14" font-weight="bold" lengthAdjust="spacing" textLength="343.916" x="1064.854" y="22.9951">NOTIP Management API - Architecture (1/3)</text></g><!--cluster NOTIP Management API--><g class="cluster" data-qualified-name="NOTIP Management API" data-source-line="9" id="ent0002"><rect fill="none" height="584" rx="2.5" ry="2.5" style="stroke:#181818;stroke-width:1;" width="2070" x="233.5" y="44.2969"/><text fill="#000000" font-family="sans-serif" font-size="10" font-weight="bold" lengthAdjust="spacing" textLength="134.1016" x="1201.4492" y="55.5791">NOTIP Management API</text></g><!--cluster AuthModule--><g class="cluster" data-qualified-name="NOTIP Management API.AuthModule" data-source-line="31" id="ent0008"><rect fill="none" height="263" rx="2.5" ry="2.5" style="stroke:#000000;stroke-width:1.5;" width="772" x="1499.5" y="320.7969"/><text fill="#000000" font-family="sans-serif" font-size="10" font-weight="bold" lengthAdjust="spacing" textLength="71.5479" x="1849.7261" y="332.0791">Auth Module</text></g><!--cluster AdminModule--><g class="cluster" data-qualified-name="NOTIP Management API.AdminModule" data-source-line="41" id="ent0016"><rect fill="none" height="336.5" rx="2.5" ry="2.5" style="stroke:#000000;stroke-width:1.5;" width="612" x="731.5" y="82.2969"/><text fill="#000000" font-family="sans-serif" font-size="10" font-weight="bold" lengthAdjust="spacing" textLength="80.6543" x="997.1729" y="93.5791">Admin Module</text></g><!--cluster MetricsModule--><g class="cluster" data-qualified-name="NOTIP Management API.MetricsModule" data-source-line="51" id="ent0024"><rect fill="none" height="206.5" rx="2.5" ry="2.5" style="stroke:#000000;stroke-width:1.5;" width="146" x="388.5" y="82.2969"/><text fill="#000000" font-family="sans-serif" font-size="10" font-weight="bold" lengthAdjust="spacing" textLength="86.543" x="418.2285" y="93.5791">Metrics Module</text></g><!--class TenantEntity--><g class="entity" data-qualified-name="NOTIP Management API.TenantEntity" data-source-line="11" id="ent0003"><rect fill="#F1F1F1" height="148.7656" rx="2.5" ry="2.5" style="stroke:#181818;stroke-width:0.5;" width="188.8682" x="974" y="463.2969"/><ellipse cx="1032.5942" cy="477.2969" fill="#ADD1B2" rx="9" ry="9" style="stroke:#181818;stroke-width:1;"/><path d="M1033.8755,480.5938 Q1033.5317,480.7656 1033.1567,480.8438 Q1032.7817,480.9375 1032.3599,480.9375 Q1030.8911,480.9375 1030.1099,479.9688 Q1029.3442,479 1029.3442,477.1563 Q1029.3442,475.3125 1030.1099,474.3438 Q1030.8911,473.375 1032.3599,473.375 Q1032.7817,473.375 1033.1567,473.4688 Q1033.5474,473.5469 1033.8755,473.7188 L1033.8755,475.3281 Q1033.5005,474.9844 1033.1411,474.8281 Q1032.7974,474.6719 1032.438,474.6719 Q1031.6411,474.6719 1031.2349,475.2969 Q1030.8286,475.9219 1030.8286,477.1563 Q1030.8286,478.3906 1031.2349,479.0156 Q1031.6411,479.6406 1032.438,479.6406 Q1032.7974,479.6406 1033.1411,479.4844 Q1033.5005,479.3281 1033.8755,478.9844 L1033.8755,480.5938 Z " fill="#000000"/><text fill="#000000" font-family="sans-serif" font-size="10" lengthAdjust="spacing" textLength="64.1797" x="1050.0942" y="480.7588">TenantEntity</text><line style="stroke:#181818;stroke-width:0.5;" x1="975" x2="1161.8682" y1="491.2969" y2="491.2969"/><g data-visibility-modifier="PUBLIC_FIELD"><ellipse cx="985" cy="502.6172" fill="none" rx="3" ry="3" style="stroke:#038048;stroke-width:1;"/></g><text fill="#000000" font-family="sans-serif" font-size="10" lengthAdjust="spacing" textLength="44.3799" x="992" y="504.5791">id: string</text><g data-visibility-modifier="PUBLIC_FIELD"><ellipse cx="985" cy="514.2578" fill="none" rx="3" ry="3" style="stroke:#038048;stroke-width:1;"/></g><text fill="#000000" font-family="sans-serif" font-size="10" lengthAdjust="spacing" textLength="63.6133" x="992" y="516.2197">name: string</text><g data-visibility-modifier="PUBLIC_FIELD"><ellipse cx="985" cy="525.8984" fill="none" rx="3" ry="3" style="stroke:#038048;stroke-width:1;"/></g><text fill="#000000" font-family="sans-serif" font-size="10" lengthAdjust="spacing" textLength="104.126" x="992" y="527.8604">status: TenantStatus</text><g data-visibility-modifier="PUBLIC_FIELD"><ellipse cx="985" cy="537.5391" fill="none" rx="3" ry="3" style="stroke:#038048;stroke-width:1;"/></g><text fill="#000000" font-family="sans-serif" font-size="10" lengthAdjust="spacing" textLength="164.8682" x="992" y="539.501">suspensionIntervalDays: number</text><g data-visibility-modifier="PUBLIC_FIELD"><ellipse cx="985" cy="549.1797" fill="none" rx="3" ry="3" style="stroke:#038048;stroke-width:1;"/></g><text fill="#000000" font-family="sans-serif" font-size="10" lengthAdjust="spacing" textLength="109.624" x="992" y="551.1416">suspensionUntil: Date</text><g data-visibility-modifier="PUBLIC_FIELD"><ellipse cx="985" cy="560.8203" fill="none" rx="3" ry="3" style="stroke:#038048;stroke-width:1;"/></g><text fill="#000000" font-family="sans-serif" font-size="10" lengthAdjust="spacing" textLength="79.5215" x="992" y="562.7822">createdAt: Date</text><g data-visibility-modifier="PUBLIC_FIELD"><ellipse cx="985" cy="572.4609" fill="none" rx="3" ry="3" style="stroke:#038048;stroke-width:1;"/></g><text fill="#000000" font-family="sans-serif" font-size="10" lengthAdjust="spacing" textLength="82.793" x="992" y="574.4229">updatedAt: Date</text><g data-visibility-modifier="PUBLIC_FIELD"><ellipse cx="985" cy="584.1016" fill="none" rx="3" ry="3" style="stroke:#038048;stroke-width:1;"/></g><text fill="#000000" font-family="sans-serif" font-size="10" lengthAdjust="spacing" textLength="93.3594" x="992" y="586.0635">users: UserEntity[]</text><g data-visibility-modifier="PUBLIC_FIELD"><ellipse cx="985" cy="595.7422" fill="none" rx="3" ry="3" style="stroke:#038048;stroke-width:1;"/></g><text fill="#000000" font-family="sans-serif" font-size="10" lengthAdjust="spacing" textLength="135.7031" x="992" y="597.7041">gateways: GatewayEntity[]</text><line style="stroke:#181818;stroke-width:0.5;" x1="975" x2="1161.8682" y1="604.0625" y2="604.0625"/></g><!--class EnvValidation--><g class="entity" data-qualified-name="NOTIP Management API.EnvValidation" data-source-line="23" id="ent0004"><rect fill="#F1F1F1" height="55.6406" rx="2.5" ry="2.5" style="stroke:#181818;stroke-width:0.5;" width="160.7236" x="554" y="106.2969"/><ellipse cx="596.2466" cy="120.2969" fill="#ADD1B2" rx="9" ry="9" style="stroke:#181818;stroke-width:1;"/><path d="M597.5278,123.5938 Q597.1841,123.7656 596.8091,123.8438 Q596.4341,123.9375 596.0122,123.9375 Q594.5435,123.9375 593.7622,122.9688 Q592.9966,122 592.9966,120.1563 Q592.9966,118.3125 593.7622,117.3438 Q594.5435,116.375 596.0122,116.375 Q596.4341,116.375 596.8091,116.4688 Q597.1997,116.5469 597.5278,116.7188 L597.5278,118.3281 Q597.1528,117.9844 596.7935,117.8281 Q596.4497,117.6719 596.0903,117.6719 Q595.2935,117.6719 594.8872,118.2969 Q594.481,118.9219 594.481,120.1563 Q594.481,121.3906 594.8872,122.0156 Q595.2935,122.6406 596.0903,122.6406 Q596.4497,122.6406 596.7935,122.4844 Q597.1528,122.3281 597.5278,121.9844 L597.5278,123.5938 Z " fill="#000000"/><text fill="#000000" font-family="sans-serif" font-size="10" lengthAdjust="spacing" textLength="68.7305" x="613.7466" y="123.7588">EnvValidation</text><line style="stroke:#181818;stroke-width:0.5;" x1="555" x2="713.7236" y1="134.2969" y2="134.2969"/><line style="stroke:#181818;stroke-width:0.5;" x1="555" x2="713.7236" y1="142.2969" y2="142.2969"/><g data-visibility-modifier="PUBLIC_METHOD"><ellipse cx="565" cy="153.6172" fill="#84BE84" rx="3" ry="3" style="stroke:#038048;stroke-width:1;"/></g><text fill="#000000" font-family="sans-serif" font-size="10" lengthAdjust="spacing" textLength="136.7236" x="572" y="155.5791">validate(config): AppConfig</text></g><!--class MetricsInterceptor--><g class="entity" data-qualified-name="NOTIP Management API.MetricsInterceptor" data-source-line="27" id="ent0005"><rect fill="#F1F1F1" height="44" rx="2.5" ry="2.5" style="stroke:#181818;stroke-width:0.5;" width="119.9189" x="249.5" y="112.2969"/><ellipse cx="262.5" cy="126.2969" fill="#ADD1B2" rx="9" ry="9" style="stroke:#181818;stroke-width:1;"/><path d="M263.7813,129.5938 Q263.4375,129.7656 263.0625,129.8438 Q262.6875,129.9375 262.2656,129.9375 Q260.7969,129.9375 260.0156,128.9688 Q259.25,128 259.25,126.1563 Q259.25,124.3125 260.0156,123.3438 Q260.7969,122.375 262.2656,122.375 Q262.6875,122.375 263.0625,122.4688 Q263.4531,122.5469 263.7813,122.7188 L263.7813,124.3281 Q263.4063,123.9844 263.0469,123.8281 Q262.7031,123.6719 262.3438,123.6719 Q261.5469,123.6719 261.1406,124.2969 Q260.7344,124.9219 260.7344,126.1563 Q260.7344,127.3906 261.1406,128.0156 Q261.5469,128.6406 262.3438,128.6406 Q262.7031,128.6406 263.0469,128.4844 Q263.4063,128.3281 263.7813,127.9844 L263.7813,129.5938 Z " fill="#000000"/><text fill="#000000" font-family="sans-serif" font-size="10" lengthAdjust="spacing" textLength="91.9189" x="274.5" y="129.7588">MetricsInterceptor</text><line style="stroke:#181818;stroke-width:0.5;" x1="250.5" x2="368.4189" y1="140.2969" y2="140.2969"/><line style="stroke:#181818;stroke-width:0.5;" x1="250.5" x2="368.4189" y1="148.2969" y2="148.2969"/></g><!--class LastAccessInterceptor--><g class="entity" data-qualified-name="NOTIP Management API.LastAccessInterceptor" data-source-line="28" id="ent0006"><rect fill="#F1F1F1" height="44" rx="2.5" ry="2.5" style="stroke:#181818;stroke-width:0.5;" width="138.8594" x="573" y="358.7969"/><ellipse cx="586" cy="372.7969" fill="#ADD1B2" rx="9" ry="9" style="stroke:#181818;stroke-width:1;"/><path d="M587.2813,376.0938 Q586.9375,376.2656 586.5625,376.3438 Q586.1875,376.4375 585.7656,376.4375 Q584.2969,376.4375 583.5156,375.4688 Q582.75,374.5 582.75,372.6563 Q582.75,370.8125 583.5156,369.8438 Q584.2969,368.875 585.7656,368.875 Q586.1875,368.875 586.5625,368.9688 Q586.9531,369.0469 587.2813,369.2188 L587.2813,370.8281 Q586.9063,370.4844 586.5469,370.3281 Q586.2031,370.1719 585.8438,370.1719 Q585.0469,370.1719 584.6406,370.7969 Q584.2344,371.4219 584.2344,372.6563 Q584.2344,373.8906 584.6406,374.5156 Q585.0469,375.1406 585.8438,375.1406 Q586.2031,375.1406 586.5469,374.9844 Q586.9063,374.8281 587.2813,374.4844 L587.2813,376.0938 Z " fill="#000000"/><text fill="#000000" font-family="sans-serif" font-size="10" lengthAdjust="spacing" textLength="110.8594" x="598" y="376.2588">LastAccessInterceptor</text><line style="stroke:#181818;stroke-width:0.5;" x1="574" x2="710.8594" y1="386.7969" y2="386.7969"/><line style="stroke:#181818;stroke-width:0.5;" x1="574" x2="710.8594" y1="394.7969" y2="394.7969"/></g><!--class AuditInterceptor--><g class="entity" data-qualified-name="NOTIP Management API.AuditInterceptor" data-source-line="29" id="ent0007"><rect fill="#F1F1F1" height="44" rx="2.5" ry="2.5" style="stroke:#181818;stroke-width:0.5;" width="109.8457" x="1362.5" y="358.7969"/><ellipse cx="1375.5" cy="372.7969" fill="#ADD1B2" rx="9" ry="9" style="stroke:#181818;stroke-width:1;"/><path d="M1376.7813,376.0938 Q1376.4375,376.2656 1376.0625,376.3438 Q1375.6875,376.4375 1375.2656,376.4375 Q1373.7969,376.4375 1373.0156,375.4688 Q1372.25,374.5 1372.25,372.6563 Q1372.25,370.8125 1373.0156,369.8438 Q1373.7969,368.875 1375.2656,368.875 Q1375.6875,368.875 1376.0625,368.9688 Q1376.4531,369.0469 1376.7813,369.2188 L1376.7813,370.8281 Q1376.4063,370.4844 1376.0469,370.3281 Q1375.7031,370.1719 1375.3438,370.1719 Q1374.5469,370.1719 1374.1406,370.7969 Q1373.7344,371.4219 1373.7344,372.6563 Q1373.7344,373.8906 1374.1406,374.5156 Q1374.5469,375.1406 1375.3438,375.1406 Q1375.7031,375.1406 1376.0469,374.9844 Q1376.4063,374.8281 1376.7813,374.4844 L1376.7813,376.0938 Z " fill="#000000"/><text fill="#000000" font-family="sans-serif" font-size="10" lengthAdjust="spacing" textLength="81.8457" x="1387.5" y="376.2588">AuditInterceptor</text><line style="stroke:#181818;stroke-width:0.5;" x1="1363.5" x2="1471.3457" y1="386.7969" y2="386.7969"/><line style="stroke:#181818;stroke-width:0.5;" x1="1363.5" x2="1471.3457" y1="394.7969" y2="394.7969"/></g><!--class UserEntity--><g class="entity" data-qualified-name="NOTIP Management API.UserEntity" data-source-line="58" id="ent0028"><rect fill="#F1F1F1" height="44" rx="2.5" ry="2.5" style="stroke:#181818;stroke-width:0.5;" width="79.9873" x="730.5" y="515.7969"/><ellipse cx="743.5" cy="529.7969" fill="#ADD1B2" rx="9" ry="9" style="stroke:#181818;stroke-width:1;"/><path d="M744.7813,533.0938 Q744.4375,533.2656 744.0625,533.3438 Q743.6875,533.4375 743.2656,533.4375 Q741.7969,533.4375 741.0156,532.4688 Q740.25,531.5 740.25,529.6563 Q740.25,527.8125 741.0156,526.8438 Q741.7969,525.875 743.2656,525.875 Q743.6875,525.875 744.0625,525.9688 Q744.4531,526.0469 744.7813,526.2188 L744.7813,527.8281 Q744.4063,527.4844 744.0469,527.3281 Q743.7031,527.1719 743.3438,527.1719 Q742.5469,527.1719 742.1406,527.7969 Q741.7344,528.4219 741.7344,529.6563 Q741.7344,530.8906 742.1406,531.5156 Q742.5469,532.1406 743.3438,532.1406 Q743.7031,532.1406 744.0469,531.9844 Q744.4063,531.8281 744.7813,531.4844 L744.7813,533.0938 Z " fill="#000000"/><text fill="#000000" font-family="sans-serif" font-size="10" lengthAdjust="spacing" textLength="51.9873" x="755.5" y="533.2588">UserEntity</text><line style="stroke:#181818;stroke-width:0.5;" x1="731.5" x2="809.4873" y1="543.7969" y2="543.7969"/><line style="stroke:#181818;stroke-width:0.5;" x1="731.5" x2="809.4873" y1="551.7969" y2="551.7969"/></g><!--class AuditLogService--><g class="entity" data-qualified-name="NOTIP Management API.AuditLogService" data-source-line="59" id="ent0030"><rect fill="#F1F1F1" height="44" rx="2.5" ry="2.5" style="stroke:#181818;stroke-width:0.5;" width="109.2207" x="1364" y="515.7969"/><ellipse cx="1377" cy="529.7969" fill="#ADD1B2" rx="9" ry="9" style="stroke:#181818;stroke-width:1;"/><path d="M1378.2813,533.0938 Q1377.9375,533.2656 1377.5625,533.3438 Q1377.1875,533.4375 1376.7656,533.4375 Q1375.2969,533.4375 1374.5156,532.4688 Q1373.75,531.5 1373.75,529.6563 Q1373.75,527.8125 1374.5156,526.8438 Q1375.2969,525.875 1376.7656,525.875 Q1377.1875,525.875 1377.5625,525.9688 Q1377.9531,526.0469 1378.2813,526.2188 L1378.2813,527.8281 Q1377.9063,527.4844 1377.5469,527.3281 Q1377.2031,527.1719 1376.8438,527.1719 Q1376.0469,527.1719 1375.6406,527.7969 Q1375.2344,528.4219 1375.2344,529.6563 Q1375.2344,530.8906 1375.6406,531.5156 Q1376.0469,532.1406 1376.8438,532.1406 Q1377.2031,532.1406 1377.5469,531.9844 Q1377.9063,531.8281 1378.2813,531.4844 L1378.2813,533.0938 Z " fill="#000000"/><text fill="#000000" font-family="sans-serif" font-size="10" lengthAdjust="spacing" textLength="81.2207" x="1389" y="533.2588">AuditLogService</text><line style="stroke:#181818;stroke-width:0.5;" x1="1365" x2="1472.2207" y1="543.7969" y2="543.7969"/><line style="stroke:#181818;stroke-width:0.5;" x1="1365" x2="1472.2207" y1="551.7969" y2="551.7969"/></g><!--class JwtStrategy--><g class="entity" data-qualified-name="NOTIP Management API.AuthModule.JwtStrategy" data-source-line="32" id="ent0009"><rect fill="#F1F1F1" height="44" rx="2.5" ry="2.5" style="stroke:#181818;stroke-width:0.5;" width="85.8955" x="2029.5" y="358.7969"/><ellipse cx="2042.5" cy="372.7969" fill="#ADD1B2" rx="9" ry="9" style="stroke:#181818;stroke-width:1;"/><path d="M2043.7813,376.0938 Q2043.4375,376.2656 2043.0625,376.3438 Q2042.6875,376.4375 2042.2656,376.4375 Q2040.7969,376.4375 2040.0156,375.4688 Q2039.25,374.5 2039.25,372.6563 Q2039.25,370.8125 2040.0156,369.8438 Q2040.7969,368.875 2042.2656,368.875 Q2042.6875,368.875 2043.0625,368.9688 Q2043.4531,369.0469 2043.7813,369.2188 L2043.7813,370.8281 Q2043.4063,370.4844 2043.0469,370.3281 Q2042.7031,370.1719 2042.3438,370.1719 Q2041.5469,370.1719 2041.1406,370.7969 Q2040.7344,371.4219 2040.7344,372.6563 Q2040.7344,373.8906 2041.1406,374.5156 Q2041.5469,375.1406 2042.3438,375.1406 Q2042.7031,375.1406 2043.0469,374.9844 Q2043.4063,374.8281 2043.7813,374.4844 L2043.7813,376.0938 Z " fill="#000000"/><text fill="#000000" font-family="sans-serif" font-size="10" lengthAdjust="spacing" textLength="57.8955" x="2054.5" y="376.2588">JwtStrategy</text><line style="stroke:#181818;stroke-width:0.5;" x1="2030.5" x2="2114.3955" y1="386.7969" y2="386.7969"/><line style="stroke:#181818;stroke-width:0.5;" x1="2030.5" x2="2114.3955" y1="394.7969" y2="394.7969"/></g><!--class AuthController--><g class="entity" data-qualified-name="NOTIP Management API.AuthModule.AuthController" data-source-line="33" id="ent0010"><rect fill="#F1F1F1" height="44" rx="2.5" ry="2.5" style="stroke:#181818;stroke-width:0.5;" width="100.8467" x="1893" y="358.7969"/><ellipse cx="1906" cy="372.7969" fill="#ADD1B2" rx="9" ry="9" style="stroke:#181818;stroke-width:1;"/><path d="M1907.2813,376.0938 Q1906.9375,376.2656 1906.5625,376.3438 Q1906.1875,376.4375 1905.7656,376.4375 Q1904.2969,376.4375 1903.5156,375.4688 Q1902.75,374.5 1902.75,372.6563 Q1902.75,370.8125 1903.5156,369.8438 Q1904.2969,368.875 1905.7656,368.875 Q1906.1875,368.875 1906.5625,368.9688 Q1906.9531,369.0469 1907.2813,369.2188 L1907.2813,370.8281 Q1906.9063,370.4844 1906.5469,370.3281 Q1906.2031,370.1719 1905.8438,370.1719 Q1905.0469,370.1719 1904.6406,370.7969 Q1904.2344,371.4219 1904.2344,372.6563 Q1904.2344,373.8906 1904.6406,374.5156 Q1905.0469,375.1406 1905.8438,375.1406 Q1906.2031,375.1406 1906.5469,374.9844 Q1906.9063,374.8281 1907.2813,374.4844 L1907.2813,376.0938 Z " fill="#000000"/><text fill="#000000" font-family="sans-serif" font-size="10" lengthAdjust="spacing" textLength="72.8467" x="1918" y="376.2588">AuthController</text><line style="stroke:#181818;stroke-width:0.5;" x1="1894" x2="1992.8467" y1="386.7969" y2="386.7969"/><line style="stroke:#181818;stroke-width:0.5;" x1="1894" x2="1992.8467" y1="394.7969" y2="394.7969"/></g><!--class ImpersonationService--><g class="entity" data-qualified-name="NOTIP Management API.AuthModule.ImpersonationService" data-source-line="34" id="ent0011"><rect fill="#F1F1F1" height="44" rx="2.5" ry="2.5" style="stroke:#181818;stroke-width:0.5;" width="137.209" x="1866" y="515.7969"/><ellipse cx="1879" cy="529.7969" fill="#ADD1B2" rx="9" ry="9" style="stroke:#181818;stroke-width:1;"/><path d="M1880.2813,533.0938 Q1879.9375,533.2656 1879.5625,533.3438 Q1879.1875,533.4375 1878.7656,533.4375 Q1877.2969,533.4375 1876.5156,532.4688 Q1875.75,531.5 1875.75,529.6563 Q1875.75,527.8125 1876.5156,526.8438 Q1877.2969,525.875 1878.7656,525.875 Q1879.1875,525.875 1879.5625,525.9688 Q1879.9531,526.0469 1880.2813,526.2188 L1880.2813,527.8281 Q1879.9063,527.4844 1879.5469,527.3281 Q1879.2031,527.1719 1878.8438,527.1719 Q1878.0469,527.1719 1877.6406,527.7969 Q1877.2344,528.4219 1877.2344,529.6563 Q1877.2344,530.8906 1877.6406,531.5156 Q1878.0469,532.1406 1878.8438,532.1406 Q1879.2031,532.1406 1879.5469,531.9844 Q1879.9063,531.8281 1880.2813,531.4844 L1880.2813,533.0938 Z " fill="#000000"/><text fill="#000000" font-family="sans-serif" font-size="10" lengthAdjust="spacing" textLength="109.209" x="1891" y="533.2588">ImpersonationService</text><line style="stroke:#181818;stroke-width:0.5;" x1="1867" x2="2002.209" y1="543.7969" y2="543.7969"/><line style="stroke:#181818;stroke-width:0.5;" x1="1867" x2="2002.209" y1="551.7969" y2="551.7969"/></g><!--class JwtAuthGuard--><g class="entity" data-qualified-name="NOTIP Management API.AuthModule.JwtAuthGuard" data-source-line="35" id="ent0012"><rect fill="#F1F1F1" height="44" rx="2.5" ry="2.5" style="stroke:#181818;stroke-width:0.5;" width="97.1602" x="2151" y="358.7969"/><ellipse cx="2164" cy="372.7969" fill="#ADD1B2" rx="9" ry="9" style="stroke:#181818;stroke-width:1;"/><path d="M2165.2813,376.0938 Q2164.9375,376.2656 2164.5625,376.3438 Q2164.1875,376.4375 2163.7656,376.4375 Q2162.2969,376.4375 2161.5156,375.4688 Q2160.75,374.5 2160.75,372.6563 Q2160.75,370.8125 2161.5156,369.8438 Q2162.2969,368.875 2163.7656,368.875 Q2164.1875,368.875 2164.5625,368.9688 Q2164.9531,369.0469 2165.2813,369.2188 L2165.2813,370.8281 Q2164.9063,370.4844 2164.5469,370.3281 Q2164.2031,370.1719 2163.8438,370.1719 Q2163.0469,370.1719 2162.6406,370.7969 Q2162.2344,371.4219 2162.2344,372.6563 Q2162.2344,373.8906 2162.6406,374.5156 Q2163.0469,375.1406 2163.8438,375.1406 Q2164.2031,375.1406 2164.5469,374.9844 Q2164.9063,374.8281 2165.2813,374.4844 L2165.2813,376.0938 Z " fill="#000000"/><text fill="#000000" font-family="sans-serif" font-size="10" lengthAdjust="spacing" textLength="69.1602" x="2176" y="376.2588">JwtAuthGuard</text><line style="stroke:#181818;stroke-width:0.5;" x1="2152" x2="2247.1602" y1="386.7969" y2="386.7969"/><line style="stroke:#181818;stroke-width:0.5;" x1="2152" x2="2247.1602" y1="394.7969" y2="394.7969"/></g><!--class RolesGuard--><g class="entity" data-qualified-name="NOTIP Management API.AuthModule.RolesGuard" data-source-line="36" id="ent0013"><rect fill="#F1F1F1" height="44" rx="2.5" ry="2.5" style="stroke:#181818;stroke-width:0.5;" width="85.8809" x="2038.5" y="515.7969"/><ellipse cx="2051.5" cy="529.7969" fill="#ADD1B2" rx="9" ry="9" style="stroke:#181818;stroke-width:1;"/><path d="M2052.7813,533.0938 Q2052.4375,533.2656 2052.0625,533.3438 Q2051.6875,533.4375 2051.2656,533.4375 Q2049.7969,533.4375 2049.0156,532.4688 Q2048.25,531.5 2048.25,529.6563 Q2048.25,527.8125 2049.0156,526.8438 Q2049.7969,525.875 2051.2656,525.875 Q2051.6875,525.875 2052.0625,525.9688 Q2052.4531,526.0469 2052.7813,526.2188 L2052.7813,527.8281 Q2052.4063,527.4844 2052.0469,527.3281 Q2051.7031,527.1719 2051.3438,527.1719 Q2050.5469,527.1719 2050.1406,527.7969 Q2049.7344,528.4219 2049.7344,529.6563 Q2049.7344,530.8906 2050.1406,531.5156 Q2050.5469,532.1406 2051.3438,532.1406 Q2051.7031,532.1406 2052.0469,531.9844 Q2052.4063,531.8281 2052.7813,531.4844 L2052.7813,533.0938 Z " fill="#000000"/><text fill="#000000" font-family="sans-serif" font-size="10" lengthAdjust="spacing" textLength="57.8809" x="2063.5" y="533.2588">RolesGuard</text><line style="stroke:#181818;stroke-width:0.5;" x1="2039.5" x2="2123.3809" y1="543.7969" y2="543.7969"/><line style="stroke:#181818;stroke-width:0.5;" x1="2039.5" x2="2123.3809" y1="551.7969" y2="551.7969"/></g><!--class AccessPolicyGuard--><g class="entity" data-qualified-name="NOTIP Management API.AuthModule.AccessPolicyGuard" data-source-line="37" id="ent0014"><rect fill="#F1F1F1" height="44" rx="2.5" ry="2.5" style="stroke:#181818;stroke-width:0.5;" width="122.2041" x="1542.5" y="358.7969"/><ellipse cx="1555.5" cy="372.7969" fill="#ADD1B2" rx="9" ry="9" style="stroke:#181818;stroke-width:1;"/><path d="M1556.7813,376.0938 Q1556.4375,376.2656 1556.0625,376.3438 Q1555.6875,376.4375 1555.2656,376.4375 Q1553.7969,376.4375 1553.0156,375.4688 Q1552.25,374.5 1552.25,372.6563 Q1552.25,370.8125 1553.0156,369.8438 Q1553.7969,368.875 1555.2656,368.875 Q1555.6875,368.875 1556.0625,368.9688 Q1556.4531,369.0469 1556.7813,369.2188 L1556.7813,370.8281 Q1556.4063,370.4844 1556.0469,370.3281 Q1555.7031,370.1719 1555.3438,370.1719 Q1554.5469,370.1719 1554.1406,370.7969 Q1553.7344,371.4219 1553.7344,372.6563 Q1553.7344,373.8906 1554.1406,374.5156 Q1554.5469,375.1406 1555.3438,375.1406 Q1555.7031,375.1406 1556.0469,374.9844 Q1556.4063,374.8281 1556.7813,374.4844 L1556.7813,376.0938 Z " fill="#000000"/><text fill="#000000" font-family="sans-serif" font-size="10" lengthAdjust="spacing" textLength="94.2041" x="1567.5" y="376.2588">AccessPolicyGuard</text><line style="stroke:#181818;stroke-width:0.5;" x1="1543.5" x2="1663.7041" y1="386.7969" y2="386.7969"/><line style="stroke:#181818;stroke-width:0.5;" x1="1543.5" x2="1663.7041" y1="394.7969" y2="394.7969"/></g><!--class BlockImpersonationGuard--><g class="entity" data-qualified-name="NOTIP Management API.AuthModule.BlockImpersonationGuard" data-source-line="38" id="ent0015"><rect fill="#F1F1F1" height="44" rx="2.5" ry="2.5" style="stroke:#181818;stroke-width:0.5;" width="157.9707" x="1699.5" y="358.7969"/><ellipse cx="1712.5" cy="372.7969" fill="#ADD1B2" rx="9" ry="9" style="stroke:#181818;stroke-width:1;"/><path d="M1713.7813,376.0938 Q1713.4375,376.2656 1713.0625,376.3438 Q1712.6875,376.4375 1712.2656,376.4375 Q1710.7969,376.4375 1710.0156,375.4688 Q1709.25,374.5 1709.25,372.6563 Q1709.25,370.8125 1710.0156,369.8438 Q1710.7969,368.875 1712.2656,368.875 Q1712.6875,368.875 1713.0625,368.9688 Q1713.4531,369.0469 1713.7813,369.2188 L1713.7813,370.8281 Q1713.4063,370.4844 1713.0469,370.3281 Q1712.7031,370.1719 1712.3438,370.1719 Q1711.5469,370.1719 1711.1406,370.7969 Q1710.7344,371.4219 1710.7344,372.6563 Q1710.7344,373.8906 1711.1406,374.5156 Q1711.5469,375.1406 1712.3438,375.1406 Q1712.7031,375.1406 1713.0469,374.9844 Q1713.4063,374.8281 1713.7813,374.4844 L1713.7813,376.0938 Z " fill="#000000"/><text fill="#000000" font-family="sans-serif" font-size="10" lengthAdjust="spacing" textLength="129.9707" x="1724.5" y="376.2588">BlockImpersonationGuard</text><line style="stroke:#181818;stroke-width:0.5;" x1="1700.5" x2="1856.4707" y1="386.7969" y2="386.7969"/><line style="stroke:#181818;stroke-width:0.5;" x1="1700.5" x2="1856.4707" y1="394.7969" y2="394.7969"/></g><!--class TenantsController--><g class="entity" data-qualified-name="NOTIP Management API.AdminModule.TenantsController" data-source-line="42" id="ent0017"><rect fill="#F1F1F1" height="44" rx="2.5" ry="2.5" style="stroke:#181818;stroke-width:0.5;" width="117.6045" x="1103.5" y="112.2969"/><ellipse cx="1116.5" cy="126.2969" fill="#ADD1B2" rx="9" ry="9" style="stroke:#181818;stroke-width:1;"/><path d="M1117.7813,129.5938 Q1117.4375,129.7656 1117.0625,129.8438 Q1116.6875,129.9375 1116.2656,129.9375 Q1114.7969,129.9375 1114.0156,128.9688 Q1113.25,128 1113.25,126.1563 Q1113.25,124.3125 1114.0156,123.3438 Q1114.7969,122.375 1116.2656,122.375 Q1116.6875,122.375 1117.0625,122.4688 Q1117.4531,122.5469 1117.7813,122.7188 L1117.7813,124.3281 Q1117.4063,123.9844 1117.0469,123.8281 Q1116.7031,123.6719 1116.3438,123.6719 Q1115.5469,123.6719 1115.1406,124.2969 Q1114.7344,124.9219 1114.7344,126.1563 Q1114.7344,127.3906 1115.1406,128.0156 Q1115.5469,128.6406 1116.3438,128.6406 Q1116.7031,128.6406 1117.0469,128.4844 Q1117.4063,128.3281 1117.7813,127.9844 L1117.7813,129.5938 Z " fill="#000000"/><text fill="#000000" font-family="sans-serif" font-size="10" lengthAdjust="spacing" textLength="89.6045" x="1128.5" y="129.7588">TenantsController</text><line style="stroke:#181818;stroke-width:0.5;" x1="1104.5" x2="1220.1045" y1="140.2969" y2="140.2969"/><line style="stroke:#181818;stroke-width:0.5;" x1="1104.5" x2="1220.1045" y1="148.2969" y2="148.2969"/></g><!--class TenantsService--><g class="entity" data-qualified-name="NOTIP Management API.AdminModule.TenantsService" data-source-line="43" id="ent0018"><rect fill="#F1F1F1" height="44" rx="2.5" ry="2.5" style="stroke:#181818;stroke-width:0.5;" width="105.1533" x="1110" y="228.7969"/><ellipse cx="1123" cy="242.7969" fill="#ADD1B2" rx="9" ry="9" style="stroke:#181818;stroke-width:1;"/><path d="M1124.2813,246.0938 Q1123.9375,246.2656 1123.5625,246.3438 Q1123.1875,246.4375 1122.7656,246.4375 Q1121.2969,246.4375 1120.5156,245.4688 Q1119.75,244.5 1119.75,242.6563 Q1119.75,240.8125 1120.5156,239.8438 Q1121.2969,238.875 1122.7656,238.875 Q1123.1875,238.875 1123.5625,238.9688 Q1123.9531,239.0469 1124.2813,239.2188 L1124.2813,240.8281 Q1123.9063,240.4844 1123.5469,240.3281 Q1123.2031,240.1719 1122.8438,240.1719 Q1122.0469,240.1719 1121.6406,240.7969 Q1121.2344,241.4219 1121.2344,242.6563 Q1121.2344,243.8906 1121.6406,244.5156 Q1122.0469,245.1406 1122.8438,245.1406 Q1123.2031,245.1406 1123.5469,244.9844 Q1123.9063,244.8281 1124.2813,244.4844 L1124.2813,246.0938 Z " fill="#000000"/><text fill="#000000" font-family="sans-serif" font-size="10" lengthAdjust="spacing" textLength="77.1533" x="1135" y="246.2588">TenantsService</text><line style="stroke:#181818;stroke-width:0.5;" x1="1111" x2="1214.1533" y1="256.7969" y2="256.7969"/><line style="stroke:#181818;stroke-width:0.5;" x1="1111" x2="1214.1533" y1="264.7969" y2="264.7969"/></g><!--class TenantsPersistenceService--><g class="entity" data-qualified-name="NOTIP Management API.AdminModule.TenantsPersistenceService" data-source-line="44" id="ent0019"><rect fill="#F1F1F1" height="44" rx="2.5" ry="2.5" style="stroke:#181818;stroke-width:0.5;" width="162.707" x="987" y="358.7969"/><ellipse cx="1000" cy="372.7969" fill="#ADD1B2" rx="9" ry="9" style="stroke:#181818;stroke-width:1;"/><path d="M1001.2813,376.0938 Q1000.9375,376.2656 1000.5625,376.3438 Q1000.1875,376.4375 999.7656,376.4375 Q998.2969,376.4375 997.5156,375.4688 Q996.75,374.5 996.75,372.6563 Q996.75,370.8125 997.5156,369.8438 Q998.2969,368.875 999.7656,368.875 Q1000.1875,368.875 1000.5625,368.9688 Q1000.9531,369.0469 1001.2813,369.2188 L1001.2813,370.8281 Q1000.9063,370.4844 1000.5469,370.3281 Q1000.2031,370.1719 999.8438,370.1719 Q999.0469,370.1719 998.6406,370.7969 Q998.2344,371.4219 998.2344,372.6563 Q998.2344,373.8906 998.6406,374.5156 Q999.0469,375.1406 999.8438,375.1406 Q1000.2031,375.1406 1000.5469,374.9844 Q1000.9063,374.8281 1001.2813,374.4844 L1001.2813,376.0938 Z " fill="#000000"/><text fill="#000000" font-family="sans-serif" font-size="10" lengthAdjust="spacing" textLength="134.707" x="1012" y="376.2588">TenantsPersistenceService</text><line style="stroke:#181818;stroke-width:0.5;" x1="988" x2="1148.707" y1="386.7969" y2="386.7969"/><line style="stroke:#181818;stroke-width:0.5;" x1="988" x2="1148.707" y1="394.7969" y2="394.7969"/></g><!--class KeycloakAdminService--><g class="entity" data-qualified-name="NOTIP Management API.AdminModule.KeycloakAdminService" data-source-line="45" id="ent0020"><rect fill="#F1F1F1" height="44" rx="2.5" ry="2.5" style="stroke:#181818;stroke-width:0.5;" width="141.9453" x="1185.5" y="358.7969"/><ellipse cx="1198.5" cy="372.7969" fill="#ADD1B2" rx="9" ry="9" style="stroke:#181818;stroke-width:1;"/><path d="M1199.7813,376.0938 Q1199.4375,376.2656 1199.0625,376.3438 Q1198.6875,376.4375 1198.2656,376.4375 Q1196.7969,376.4375 1196.0156,375.4688 Q1195.25,374.5 1195.25,372.6563 Q1195.25,370.8125 1196.0156,369.8438 Q1196.7969,368.875 1198.2656,368.875 Q1198.6875,368.875 1199.0625,368.9688 Q1199.4531,369.0469 1199.7813,369.2188 L1199.7813,370.8281 Q1199.4063,370.4844 1199.0469,370.3281 Q1198.7031,370.1719 1198.3438,370.1719 Q1197.5469,370.1719 1197.1406,370.7969 Q1196.7344,371.4219 1196.7344,372.6563 Q1196.7344,373.8906 1197.1406,374.5156 Q1197.5469,375.1406 1198.3438,375.1406 Q1198.7031,375.1406 1199.0469,374.9844 Q1199.4063,374.8281 1199.7813,374.4844 L1199.7813,376.0938 Z " fill="#000000"/><text fill="#000000" font-family="sans-serif" font-size="10" lengthAdjust="spacing" textLength="113.9453" x="1210.5" y="376.2588">KeycloakAdminService</text><line style="stroke:#181818;stroke-width:0.5;" x1="1186.5" x2="1326.4453" y1="386.7969" y2="386.7969"/><line style="stroke:#181818;stroke-width:0.5;" x1="1186.5" x2="1326.4453" y1="394.7969" y2="394.7969"/></g><!--class AdminGatewaysController--><g class="entity" data-qualified-name="NOTIP Management API.AdminModule.AdminGatewaysController" data-source-line="46" id="ent0021"><rect fill="#F1F1F1" height="44" rx="2.5" ry="2.5" style="stroke:#181818;stroke-width:0.5;" width="158.8398" x="770" y="112.2969"/><ellipse cx="783" cy="126.2969" fill="#ADD1B2" rx="9" ry="9" style="stroke:#181818;stroke-width:1;"/><path d="M784.2813,129.5938 Q783.9375,129.7656 783.5625,129.8438 Q783.1875,129.9375 782.7656,129.9375 Q781.2969,129.9375 780.5156,128.9688 Q779.75,128 779.75,126.1563 Q779.75,124.3125 780.5156,123.3438 Q781.2969,122.375 782.7656,122.375 Q783.1875,122.375 783.5625,122.4688 Q783.9531,122.5469 784.2813,122.7188 L784.2813,124.3281 Q783.9063,123.9844 783.5469,123.8281 Q783.2031,123.6719 782.8438,123.6719 Q782.0469,123.6719 781.6406,124.2969 Q781.2344,124.9219 781.2344,126.1563 Q781.2344,127.3906 781.6406,128.0156 Q782.0469,128.6406 782.8438,128.6406 Q783.2031,128.6406 783.5469,128.4844 Q783.9063,128.3281 784.2813,127.9844 L784.2813,129.5938 Z " fill="#000000"/><text fill="#000000" font-family="sans-serif" font-size="10" lengthAdjust="spacing" textLength="130.8398" x="795" y="129.7588">AdminGatewaysController</text><line style="stroke:#181818;stroke-width:0.5;" x1="771" x2="927.8398" y1="140.2969" y2="140.2969"/><line style="stroke:#181818;stroke-width:0.5;" x1="771" x2="927.8398" y1="148.2969" y2="148.2969"/></g><!--class AdminGatewaysService--><g class="entity" data-qualified-name="NOTIP Management API.AdminModule.AdminGatewaysService" data-source-line="47" id="ent0022"><rect fill="#F1F1F1" height="44" rx="2.5" ry="2.5" style="stroke:#181818;stroke-width:0.5;" width="146.3887" x="776.5" y="228.7969"/><ellipse cx="789.5" cy="242.7969" fill="#ADD1B2" rx="9" ry="9" style="stroke:#181818;stroke-width:1;"/><path d="M790.7813,246.0938 Q790.4375,246.2656 790.0625,246.3438 Q789.6875,246.4375 789.2656,246.4375 Q787.7969,246.4375 787.0156,245.4688 Q786.25,244.5 786.25,242.6563 Q786.25,240.8125 787.0156,239.8438 Q787.7969,238.875 789.2656,238.875 Q789.6875,238.875 790.0625,238.9688 Q790.4531,239.0469 790.7813,239.2188 L790.7813,240.8281 Q790.4063,240.4844 790.0469,240.3281 Q789.7031,240.1719 789.3438,240.1719 Q788.5469,240.1719 788.1406,240.7969 Q787.7344,241.4219 787.7344,242.6563 Q787.7344,243.8906 788.1406,244.5156 Q788.5469,245.1406 789.3438,245.1406 Q789.7031,245.1406 790.0469,244.9844 Q790.4063,244.8281 790.7813,244.4844 L790.7813,246.0938 Z " fill="#000000"/><text fill="#000000" font-family="sans-serif" font-size="10" lengthAdjust="spacing" textLength="118.3887" x="801.5" y="246.2588">AdminGatewaysService</text><line style="stroke:#181818;stroke-width:0.5;" x1="777.5" x2="921.8887" y1="256.7969" y2="256.7969"/><line style="stroke:#181818;stroke-width:0.5;" x1="777.5" x2="921.8887" y1="264.7969" y2="264.7969"/></g><!--class AdminGatewaysPersistenceService--><g class="entity" data-qualified-name="NOTIP Management API.AdminModule.AdminGatewaysPersistenceService" data-source-line="48" id="ent0023"><rect fill="#F1F1F1" height="44" rx="2.5" ry="2.5" style="stroke:#181818;stroke-width:0.5;" width="203.9424" x="747.5" y="358.7969"/><ellipse cx="760.5" cy="372.7969" fill="#ADD1B2" rx="9" ry="9" style="stroke:#181818;stroke-width:1;"/><path d="M761.7813,376.0938 Q761.4375,376.2656 761.0625,376.3438 Q760.6875,376.4375 760.2656,376.4375 Q758.7969,376.4375 758.0156,375.4688 Q757.25,374.5 757.25,372.6563 Q757.25,370.8125 758.0156,369.8438 Q758.7969,368.875 760.2656,368.875 Q760.6875,368.875 761.0625,368.9688 Q761.4531,369.0469 761.7813,369.2188 L761.7813,370.8281 Q761.4063,370.4844 761.0469,370.3281 Q760.7031,370.1719 760.3438,370.1719 Q759.5469,370.1719 759.1406,370.7969 Q758.7344,371.4219 758.7344,372.6563 Q758.7344,373.8906 759.1406,374.5156 Q759.5469,375.1406 760.3438,375.1406 Q760.7031,375.1406 761.0469,374.9844 Q761.4063,374.8281 761.7813,374.4844 L761.7813,376.0938 Z " fill="#000000"/><text fill="#000000" font-family="sans-serif" font-size="10" lengthAdjust="spacing" textLength="175.9424" x="772.5" y="376.2588">AdminGatewaysPersistenceService</text><line style="stroke:#181818;stroke-width:0.5;" x1="748.5" x2="950.4424" y1="386.7969" y2="386.7969"/><line style="stroke:#181818;stroke-width:0.5;" x1="748.5" x2="950.4424" y1="394.7969" y2="394.7969"/></g><!--class MetricsController--><g class="entity" data-qualified-name="NOTIP Management API.MetricsModule.MetricsController" data-source-line="52" id="ent0025"><rect fill="#F1F1F1" height="44" rx="2.5" ry="2.5" style="stroke:#181818;stroke-width:0.5;" width="113.708" x="404.5" y="112.2969"/><ellipse cx="417.5" cy="126.2969" fill="#ADD1B2" rx="9" ry="9" style="stroke:#181818;stroke-width:1;"/><path d="M418.7813,129.5938 Q418.4375,129.7656 418.0625,129.8438 Q417.6875,129.9375 417.2656,129.9375 Q415.7969,129.9375 415.0156,128.9688 Q414.25,128 414.25,126.1563 Q414.25,124.3125 415.0156,123.3438 Q415.7969,122.375 417.2656,122.375 Q417.6875,122.375 418.0625,122.4688 Q418.4531,122.5469 418.7813,122.7188 L418.7813,124.3281 Q418.4063,123.9844 418.0469,123.8281 Q417.7031,123.6719 417.3438,123.6719 Q416.5469,123.6719 416.1406,124.2969 Q415.7344,124.9219 415.7344,126.1563 Q415.7344,127.3906 416.1406,128.0156 Q416.5469,128.6406 417.3438,128.6406 Q417.7031,128.6406 418.0469,128.4844 Q418.4063,128.3281 418.7813,127.9844 L418.7813,129.5938 Z " fill="#000000"/><text fill="#000000" font-family="sans-serif" font-size="10" lengthAdjust="spacing" textLength="85.708" x="429.5" y="129.7588">MetricsController</text><line style="stroke:#181818;stroke-width:0.5;" x1="405.5" x2="517.208" y1="140.2969" y2="140.2969"/><line style="stroke:#181818;stroke-width:0.5;" x1="405.5" x2="517.208" y1="148.2969" y2="148.2969"/></g><!--class MetricsService--><g class="entity" data-qualified-name="NOTIP Management API.MetricsModule.MetricsService" data-source-line="53" id="ent0026"><rect fill="#F1F1F1" height="44" rx="2.5" ry="2.5" style="stroke:#181818;stroke-width:0.5;" width="101.2568" x="408" y="228.7969"/><ellipse cx="421" cy="242.7969" fill="#ADD1B2" rx="9" ry="9" style="stroke:#181818;stroke-width:1;"/><path d="M422.2813,246.0938 Q421.9375,246.2656 421.5625,246.3438 Q421.1875,246.4375 420.7656,246.4375 Q419.2969,246.4375 418.5156,245.4688 Q417.75,244.5 417.75,242.6563 Q417.75,240.8125 418.5156,239.8438 Q419.2969,238.875 420.7656,238.875 Q421.1875,238.875 421.5625,238.9688 Q421.9531,239.0469 422.2813,239.2188 L422.2813,240.8281 Q421.9063,240.4844 421.5469,240.3281 Q421.2031,240.1719 420.8438,240.1719 Q420.0469,240.1719 419.6406,240.7969 Q419.2344,241.4219 419.2344,242.6563 Q419.2344,243.8906 419.6406,244.5156 Q420.0469,245.1406 420.8438,245.1406 Q421.2031,245.1406 421.5469,244.9844 Q421.9063,244.8281 422.2813,244.4844 L422.2813,246.0938 Z " fill="#000000"/><text fill="#000000" font-family="sans-serif" font-size="10" lengthAdjust="spacing" textLength="73.2568" x="433" y="246.2588">MetricsService</text><line style="stroke:#181818;stroke-width:0.5;" x1="409" x2="508.2568" y1="256.7969" y2="256.7969"/><line style="stroke:#181818;stroke-width:0.5;" x1="409" x2="508.2568" y1="264.7969" y2="264.7969"/></g><g class="entity" data-qualified-name="GMN43" data-source-line="80" id="ent0044"><path d="M6,358.2969 L6,403.2188 L216.9561,403.2188 L216.9561,368.2969 L206.9561,358.2969 L6,358.2969" fill="#FEFFDD" style="stroke:#181818;stroke-width:0.5;"/><path d="M206.9561,358.2969 L206.9561,368.2969 L216.9561,368.2969 L206.9561,358.2969" fill="#FEFFDD" style="stroke:#181818;stroke-width:1;"/><text fill="#000000" font-family="sans-serif" font-size="10" lengthAdjust="spacing" textLength="174.3555" x="12" y="372.5791">Core entity shared across modules</text><text fill="#000000" font-family="sans-serif" font-size="10" lengthAdjust="spacing" textLength="189.9561" x="12" y="384.2197">ManyToOne/OneToMany relationships</text><text fill="#000000" font-family="sans-serif" font-size="10" lengthAdjust="spacing" textLength="168.6182" x="12" y="395.8604">with Users, Gateways, Alerts, etc.</text></g><g class="entity" data-qualified-name="GMN46" data-source-line="86" id="ent0047"><path d="M2320,222.2969 L2320,278.8594 L2480.624,278.8594 L2480.624,232.2969 L2470.624,222.2969 L2320,222.2969" fill="#FEFFDD" style="stroke:#181818;stroke-width:0.5;"/><path d="M2470.624,222.2969 L2470.624,232.2969 L2480.624,232.2969 L2470.624,222.2969" fill="#FEFFDD" style="stroke:#181818;stroke-width:1;"/><text fill="#000000" font-family="sans-serif" font-size="10" lengthAdjust="spacing" textLength="138.4717" x="2326" y="236.5791">Handles JWT authentication</text><text fill="#000000" font-family="sans-serif" font-size="10" lengthAdjust="spacing" textLength="130.7275" x="2326" y="248.2197">Role-based access control</text><text fill="#000000" font-family="sans-serif" font-size="10" lengthAdjust="spacing" textLength="131.8701" x="2326" y="259.8604">Tenant suspension checks</text><text fill="#000000" font-family="sans-serif" font-size="10" lengthAdjust="spacing" textLength="139.624" x="2326" y="271.501">User impersonation support</text></g><!--link MetricsInterceptor to MetricsService--><g class="link" data-entity-1="ent0005" data-entity-2="ent0026" data-link-type="dependency" data-source-line="57" id="lnk27"><path codeLine="57" d="M309.5,156.3069 C309.5,190.1969 309.5,251.2969 309.5,251.2969 C309.5,251.2969 358.48,251.2969 401.64,251.2969" fill="none" id="MetricsInterceptor-to-MetricsService" style="stroke:#181818;stroke-width:1;"/><polygon fill="#181818" points="407.64,251.2969,398.64,247.2969,402.64,251.2969,398.64,255.2969,407.64,251.2969" style="stroke:#181818;stroke-width:1;"/></g><!--link LastAccessInterceptor to UserEntity--><g class="link" data-entity-1="ent0006" data-entity-2="ent0028" data-link-type="dependency" data-source-line="58" id="lnk29"><path codeLine="58" d="M712.12,381.2969 C727.34,381.2969 739,381.2969 739,381.2969 C739,381.2969 739,466.5669 739,509.7069" fill="none" id="LastAccessInterceptor-to-UserEntity" style="stroke:#181818;stroke-width:1;stroke-dasharray:7,7;"/><polygon fill="#181818" points="739,515.7069,743,506.7069,739,510.7069,735,506.7069,739,515.7069" style="stroke:#181818;stroke-width:1;"/></g><!--link AuditInterceptor to AuditLogService--><g class="link" data-entity-1="ent0007" data-entity-2="ent0030" data-link-type="dependency" data-source-line="59" id="lnk31"><path codeLine="59" d="M1418.25,402.9569 C1418.25,432.8769 1418.25,479.8869 1418.25,509.7469" fill="none" id="AuditInterceptor-to-AuditLogService" style="stroke:#181818;stroke-width:1;"/><polygon fill="#181818" points="1418.25,515.7469,1422.25,506.7469,1418.25,510.7469,1414.25,506.7469,1418.25,515.7469" style="stroke:#181818;stroke-width:1;"/></g><!--link AuthController to ImpersonationService--><g class="link" data-entity-1="ent0010" data-entity-2="ent0011" data-link-type="dependency" data-source-line="62" id="lnk32"><path codeLine="62" d="M1943.5,402.9569 C1943.5,432.8769 1943.5,479.8869 1943.5,509.7469" fill="none" id="AuthController-to-ImpersonationService" style="stroke:#181818;stroke-width:1;stroke-dasharray:7,7;"/><polygon fill="#181818" points="1943.5,515.7469,1947.5,506.7469,1943.5,510.7469,1939.5,506.7469,1943.5,515.7469" style="stroke:#181818;stroke-width:1;"/></g><!--link BlockImpersonationGuard to AuditLogService--><g class="link" data-entity-1="ent0015" data-entity-2="ent0030" data-link-type="dependency" data-source-line="63" id="lnk33"><path codeLine="63" d="M1778.5,403.0269 C1778.5,446.4469 1778.5,538.2969 1778.5,538.2969 C1778.5,538.2969 1579.89,538.2969 1479.18,538.2969" fill="none" id="BlockImpersonationGuard-to-AuditLogService" style="stroke:#181818;stroke-width:1;"/><polygon fill="#181818" points="1473.18,538.2969,1482.18,542.2969,1478.18,538.2969,1482.18,534.2969,1473.18,538.2969" style="stroke:#181818;stroke-width:1;"/></g><!--link AccessPolicyGuard to TenantEntity--><g class="link" data-entity-1="ent0014" data-entity-2="ent0003" data-link-type="dependency" data-source-line="64" id="lnk34"><path codeLine="64" d="M1603.5,402.9569 C1603.5,434.9569 1603.5,490.2969 1603.5,490.2969 C1603.5,490.2969 1322.89,490.2969 1169.22,490.2969" fill="none" id="AccessPolicyGuard-to-TenantEntity" style="stroke:#181818;stroke-width:1;stroke-dasharray:7,7;"/><polygon fill="#181818" points="1163.22,490.2969,1172.22,494.2969,1168.22,490.2969,1172.22,486.2969,1163.22,490.2969" style="stroke:#181818;stroke-width:1;"/></g><!--link TenantsController to TenantsService--><g class="link" data-entity-1="ent0017" data-entity-2="ent0018" data-link-type="dependency" data-source-line="67" id="lnk35"><path codeLine="67" d="M1162.5,156.4869 C1162.5,177.2169 1162.5,201.9869 1162.5,222.6969" fill="none" id="TenantsController-to-TenantsService" style="stroke:#181818;stroke-width:1;"/><polygon fill="#181818" points="1162.5,228.6969,1166.5,219.6969,1162.5,223.6969,1158.5,219.6969,1162.5,228.6969" style="stroke:#181818;stroke-width:1;"/></g><!--link TenantsService to TenantsPersistenceService--><g class="link" data-entity-1="ent0018" data-entity-2="ent0019" data-link-type="dependency" data-source-line="68" id="lnk36"><path codeLine="68" d="M1130,272.8469 C1130,296.7569 1130,328.6869 1130,352.6369" fill="none" id="TenantsService-to-TenantsPersistenceService" style="stroke:#181818;stroke-width:1;"/><polygon fill="#181818" points="1130,358.6369,1134,349.6369,1130,353.6369,1126,349.6369,1130,358.6369" style="stroke:#181818;stroke-width:1;"/></g><!--link TenantsService to KeycloakAdminService--><g class="link" data-entity-1="ent0018" data-entity-2="ent0020" data-link-type="dependency" data-source-line="69" id="lnk37"><path codeLine="69" d="M1200.25,272.8469 C1200.25,296.7569 1200.25,328.6869 1200.25,352.6369" fill="none" id="TenantsService-to-KeycloakAdminService" style="stroke:#181818;stroke-width:1;"/><polygon fill="#181818" points="1200.25,358.6369,1204.25,349.6369,1200.25,353.6369,1196.25,349.6369,1200.25,358.6369" style="stroke:#181818;stroke-width:1;"/></g><!--link TenantsPersistenceService to TenantEntity--><g class="link" data-entity-1="ent0019" data-entity-2="ent0003" data-link-type="dependency" data-source-line="70" id="lnk38"><path codeLine="70" d="M1068.5,402.9569 C1068.5,418.8469 1068.5,435.2469 1068.5,457.2369" fill="none" id="TenantsPersistenceService-to-TenantEntity" style="stroke:#181818;stroke-width:1;"/><polygon fill="#181818" points="1068.5,463.2369,1072.5,454.2369,1068.5,458.2369,1064.5,454.2369,1068.5,463.2369" style="stroke:#181818;stroke-width:1;"/></g><!--link TenantsPersistenceService to UserEntity--><g class="link" data-entity-1="ent0019" data-entity-2="ent0028" data-link-type="dependency" data-source-line="71" id="lnk39"><path codeLine="71" d="M986.75,381.2969 C972.82,381.2969 962.75,381.2969 962.75,381.2969 C962.75,381.2969 962.75,538.2969 962.75,538.2969 C962.75,538.2969 873.18,538.2969 816.8,538.2969" fill="none" id="TenantsPersistenceService-to-UserEntity" style="stroke:#181818;stroke-width:1;"/><polygon fill="#181818" points="810.8,538.2969,819.8,542.2969,815.8,538.2969,819.8,534.2969,810.8,538.2969" style="stroke:#181818;stroke-width:1;"/></g><!--link AdminGatewaysController to AdminGatewaysService--><g class="link" data-entity-1="ent0021" data-entity-2="ent0022" data-link-type="dependency" data-source-line="72" id="lnk40"><path codeLine="72" d="M849.5,156.4869 C849.5,177.2169 849.5,201.9869 849.5,222.6969" fill="none" id="AdminGatewaysController-to-AdminGatewaysService" style="stroke:#181818;stroke-width:1;"/><polygon fill="#181818" points="849.5,228.6969,853.5,219.6969,849.5,223.6969,845.5,219.6969,849.5,228.6969" style="stroke:#181818;stroke-width:1;"/></g><!--link AdminGatewaysService to AdminGatewaysPersistenceService--><g class="link" data-entity-1="ent0022" data-entity-2="ent0023" data-link-type="dependency" data-source-line="73" id="lnk41"><path codeLine="73" d="M849.5,272.8469 C849.5,296.7569 849.5,328.6869 849.5,352.6369" fill="none" id="AdminGatewaysService-to-AdminGatewaysPersistenceService" style="stroke:#181818;stroke-width:1;"/><polygon fill="#181818" points="849.5,358.6369,853.5,349.6369,849.5,353.6369,845.5,349.6369,849.5,358.6369" style="stroke:#181818;stroke-width:1;"/></g><!--link MetricsController to MetricsService--><g class="link" data-entity-1="ent0025" data-entity-2="ent0026" data-link-type="dependency" data-source-line="76" id="lnk42"><path codeLine="76" d="M458.5,156.4869 C458.5,177.2169 458.5,201.9869 458.5,222.6969" fill="none" id="MetricsController-to-MetricsService" style="stroke:#181818;stroke-width:1;"/><polygon fill="#181818" points="458.5,228.6969,462.5,219.6969,458.5,223.6969,454.5,219.6969,458.5,228.6969" style="stroke:#181818;stroke-width:1;"/></g><!--link GMN43 to TenantEntity--><g class="link" data-entity-1="ent0044" data-entity-2="ent0003" data-link-type="association" data-source-line="80" id="lnk45"><path d="M111.5,403.4869 C111.5,435.5569 111.5,490.2969 111.5,490.2969 C111.5,490.2969 731.93,490.2969 973.68,490.2969" fill="none" id="GMN43-TenantEntity" style="stroke:#181818;stroke-width:1;stroke-dasharray:7,7;"/></g><!--link GMN46 to AuthModule--><g class="link" data-entity-1="ent0047" data-entity-2="ent0008" data-link-type="association" data-source-line="86" id="lnk48"><path d="M2319.68,251.2969 C2099.86,251.2969 1507.5,251.2969 1507.5,251.2969 C1507.5,251.2969 1507.5,281.6794 1507.5,313.0119 C1507.5,314.9702 1507.5,316.9321 1507.5,318.8907 C1507.5,319.3803 1507.5,319.8697 1507.5,320.3588" fill="none" id="GMN46-AuthModule" style="stroke:#181818;stroke-width:1;stroke-dasharray:7,7;"/></g><?plantuml-src XLPDRzim3BtdLn3TOHssz0Ex1KK0hrzBrwv1asw7OGTLPXqXYcH8Sejis7yVBJknRCkRWI3suoFrI96odN0IuUlzSZQ7EwPOXXjK3fBv3CQG6BuI3hah3CBXwV77TwEHNGkLCyCsyCJuEZEwKEcvbjh0coj_1OmKdraXtPLMRY5-8PoUn8sr_uc_0eeK2jqsHz36hNHWo6bfahfmMn9lI21JcSJHgCRX89RG0PoTFUouqody7eq0k6JMmi4I5LFkKZdXjWV0B8G0CO6kzoATW7L6gAnwLco3RSGwvWexgRqN_gcs53P7POLMC-NGl31vmRR4LCNc2KsNyqZhoWbSC8ULYHka-pHn8LZaQGIqQ2Zk8_rLwd_yh0mPKLxzcjVLNM3-4vJYKhryOr9GQ1BYQz52TiLugH0yv5ezY-pT198yF_VtdO1tI1NYrkVDCNVQ-AXzk76vPTObdAFjUKKjZMDIfC9rVRfWgMtVAKdXLd2dqq9YJNQhwh7Ej8vyyqhxQIZXh6gGu3cabUvK1MUqb6Zs4Hie9CysEMsMLhwm2-eAmIiHCKD7J1drkc0ctQdP0o7nGKkq3QrvR6dszPnhAVYsuVRGqEMJr7pTKjau3jXsNT5KFjq8rIfz2SHgNusJxTIrXqPSmgAseGXvJeg5TQWuHlpwrZ345znogTdQvn1wnmojufTuFP7T30TiW-xXkZ73eED0vl_Xz7Qq7kbmJsiejgkrgPDp3usuX1hRq4xIMpZNfdmrID-0TYNoyY3kdpam7a_xCQAd31mTJODpbMZTWyK7y-2jpdRHl1f_odJLj0y67tvWy0T6AheUz2VNXmxVQBKeFu1TLRsnyglqXgSDX9neeqJe0vCn62LOOxy3_oQtDoi-J5KDuyCIW_lyIBw-lBjf66Z2ZeHE3r8NA-qGdCv1FtVJzisDrSU9NJ63AJ1kD8t8nW-QNuQfxLBVApoctrANZpqfhuBQigoI_R3xAg2xX3Gv-aV7ZqQeKYYLjFKqRqcAyfcfbDQ4c-zBO6GeXN6_3XdBLyxuYLaliUnBu5NY-zs3vhi7-0hvkbHMYW8HTZpHyfm-11j5Vm40?></g></svg>