<?plantuml 1.2026.2?><svg xmlns="http://www.w3.org/2000/svg" xmlns:xlink="http://www.w3.org/1999/xlink" contentStyleType="text/css" data-diagram-type="CLASS" height="719px" preserveAspectRatio="none" style="width:2441px;height:719px;background:#FFFFFF;" version="1.1" viewBox="0 0 2441 719" width="2441px" zoomAndPan="magnify"><title>NOTIP Management API - Architecture (1/3)</title><defs/><g><g class="title" data-source-line="1"><text fill="#000000" font-family="sans-serif" font-size="14" font-weight="bold" lengthAdjust="spacing" textLength="343.916" x="1041.854" y="22.9951">NOTIP Management API - Architecture (1/3)</text></g><!--cluster NOTIP Management API--><g class="cluster" data-qualified-name="NOTIP Management API" data-source-line="9" id="ent0002"><rect fill="none" height="609" rx="2.5" ry="2.5" style="stroke:#181818;stroke-width:1;" width="2024" x="233.5" y="104.2969"/><text fill="#000000" font-family="sans-serif" font-size="10" font-weight="bold" lengthAdjust="spacing" textLength="134.1016" x="1178.4492" y="115.5791">NOTIP Management API</text></g><!--cluster CommonModule--><g class="cluster" data-qualified-name="NOTIP Management API.CommonModule" data-source-line="11" id="ent0003"><rect fill="none" height="90" rx="2.5" ry="2.5" style="stroke:#000000;stroke-width:1.5;" width="731" x="689.5" y="495.2969"/><text fill="#000000" font-family="sans-serif" font-size="10" font-weight="bold" lengthAdjust="spacing" textLength="93.8281" x="1008.0859" y="506.5791">Common Module</text></g><!--cluster AuthModule--><g class="cluster" data-qualified-name="NOTIP Management API.AuthModule" data-source-line="19" id="ent0009"><rect fill="none" height="220" rx="2.5" ry="2.5" style="stroke:#000000;stroke-width:1.5;" width="773" x="1452.5" y="373.2969"/><text fill="#000000" font-family="sans-serif" font-size="10" font-weight="bold" lengthAdjust="spacing" textLength="71.5479" x="1803.2261" y="384.5791">Auth Module</text></g><!--cluster AdminModule--><g class="cluster" data-qualified-name="NOTIP Management API.AdminModule" data-source-line="29" id="ent0017"><rect fill="none" height="313" rx="2.5" ry="2.5" style="stroke:#000000;stroke-width:1.5;" width="580" x="631.5" y="158.2969"/><text fill="#000000" font-family="sans-serif" font-size="10" font-weight="bold" lengthAdjust="spacing" textLength="80.6543" x="881.1729" y="169.5791">Admin Module</text></g><!--cluster MetricsModule--><g class="cluster" data-qualified-name="NOTIP Management API.MetricsModule" data-source-line="39" id="ent0025"><rect fill="none" height="194" rx="2.5" ry="2.5" style="stroke:#000000;stroke-width:1.5;" width="146" x="519.5" y="495.2969"/><text fill="#000000" font-family="sans-serif" font-size="10" font-weight="bold" lengthAdjust="spacing" textLength="86.543" x="549.2285" y="506.5791">Metrics Module</text></g><!--cluster ApiClientModule--><g class="cluster" data-qualified-name="NOTIP Management API.ApiClientModule" data-source-line="44" id="ent0028"><rect fill="none" height="443" rx="2.5" ry="2.5" style="stroke:#000000;stroke-width:1.5;" width="222" x="265.5" y="150.2969"/><text fill="#000000" font-family="sans-serif" font-size="10" font-weight="bold" lengthAdjust="spacing" textLength="100.1416" x="326.4292" y="161.5791">Api-Client Module</text></g><!--class UserEntity--><g class="entity" data-qualified-name="NOTIP Management API.UserEntity" data-source-line="53" id="ent0034"><rect fill="#F1F1F1" height="44" rx="2.5" ry="2.5" style="stroke:#181818;stroke-width:0.5;" width="79.9873" x="890.5" y="629.2969"/><ellipse cx="903.5" cy="643.2969" fill="#ADD1B2" rx="9" ry="9" style="stroke:#181818;stroke-width:1;"/><path d="M904.7813,646.5938 Q904.4375,646.7656 904.0625,646.8438 Q903.6875,646.9375 903.2656,646.9375 Q901.7969,646.9375 901.0156,645.9688 Q900.25,645 900.25,643.1563 Q900.25,641.3125 901.0156,640.3438 Q901.7969,639.375 903.2656,639.375 Q903.6875,639.375 904.0625,639.4688 Q904.4531,639.5469 904.7813,639.7188 L904.7813,641.3281 Q904.4063,640.9844 904.0469,640.8281 Q903.7031,640.6719 903.3438,640.6719 Q902.5469,640.6719 902.1406,641.2969 Q901.7344,641.9219 901.7344,643.1563 Q901.7344,644.3906 902.1406,645.0156 Q902.5469,645.6406 903.3438,645.6406 Q903.7031,645.6406 904.0469,645.4844 Q904.4063,645.3281 904.7813,644.9844 L904.7813,646.5938 Z " fill="#000000"/><text fill="#000000" font-family="sans-serif" font-size="10" lengthAdjust="spacing" textLength="51.9873" x="915.5" y="646.7588">UserEntity</text><line style="stroke:#181818;stroke-width:0.5;" x1="891.5" x2="969.4873" y1="657.2969" y2="657.2969"/><line style="stroke:#181818;stroke-width:0.5;" x1="891.5" x2="969.4873" y1="665.2969" y2="665.2969"/></g><!--class AuditLogService--><g class="entity" data-qualified-name="NOTIP Management API.AuditLogService" data-source-line="54" id="ent0036"><rect fill="#F1F1F1" height="44" rx="2.5" ry="2.5" style="stroke:#181818;stroke-width:0.5;" width="109.2207" x="1503" y="629.2969"/><ellipse cx="1516" cy="643.2969" fill="#ADD1B2" rx="9" ry="9" style="stroke:#181818;stroke-width:1;"/><path d="M1517.2813,646.5938 Q1516.9375,646.7656 1516.5625,646.8438 Q1516.1875,646.9375 1515.7656,646.9375 Q1514.2969,646.9375 1513.5156,645.9688 Q1512.75,645 1512.75,643.1563 Q1512.75,641.3125 1513.5156,640.3438 Q1514.2969,639.375 1515.7656,639.375 Q1516.1875,639.375 1516.5625,639.4688 Q1516.9531,639.5469 1517.2813,639.7188 L1517.2813,641.3281 Q1516.9063,640.9844 1516.5469,640.8281 Q1516.2031,640.6719 1515.8438,640.6719 Q1515.0469,640.6719 1514.6406,641.2969 Q1514.2344,641.9219 1514.2344,643.1563 Q1514.2344,644.3906 1514.6406,645.0156 Q1515.0469,645.6406 1515.8438,645.6406 Q1516.2031,645.6406 1516.5469,645.4844 Q1516.9063,645.3281 1517.2813,644.9844 L1517.2813,646.5938 Z " fill="#000000"/><text fill="#000000" font-family="sans-serif" font-size="10" lengthAdjust="spacing" textLength="81.2207" x="1528" y="646.7588">AuditLogService</text><line style="stroke:#181818;stroke-width:0.5;" x1="1504" x2="1611.2207" y1="657.2969" y2="657.2969"/><line style="stroke:#181818;stroke-width:0.5;" x1="1504" x2="1611.2207" y1="665.2969" y2="665.2969"/></g><!--class EnvValidation--><g class="entity" data-qualified-name="NOTIP Management API.CommonModule.EnvValidation" data-source-line="12" id="ent0004"><rect fill="#F1F1F1" height="44" rx="2.5" ry="2.5" style="stroke:#181818;stroke-width:0.5;" width="96.7305" x="1308" y="525.2969"/><ellipse cx="1321" cy="539.2969" fill="#ADD1B2" rx="9" ry="9" style="stroke:#181818;stroke-width:1;"/><path d="M1322.2813,542.5938 Q1321.9375,542.7656 1321.5625,542.8438 Q1321.1875,542.9375 1320.7656,542.9375 Q1319.2969,542.9375 1318.5156,541.9688 Q1317.75,541 1317.75,539.1563 Q1317.75,537.3125 1318.5156,536.3438 Q1319.2969,535.375 1320.7656,535.375 Q1321.1875,535.375 1321.5625,535.4688 Q1321.9531,535.5469 1322.2813,535.7188 L1322.2813,537.3281 Q1321.9063,536.9844 1321.5469,536.8281 Q1321.2031,536.6719 1320.8438,536.6719 Q1320.0469,536.6719 1319.6406,537.2969 Q1319.2344,537.9219 1319.2344,539.1563 Q1319.2344,540.3906 1319.6406,541.0156 Q1320.0469,541.6406 1320.8438,541.6406 Q1321.2031,541.6406 1321.5469,541.4844 Q1321.9063,541.3281 1322.2813,540.9844 L1322.2813,542.5938 Z " fill="#000000"/><text fill="#000000" font-family="sans-serif" font-size="10" lengthAdjust="spacing" textLength="68.7305" x="1333" y="542.7588">EnvValidation</text><line style="stroke:#181818;stroke-width:0.5;" x1="1309" x2="1403.7305" y1="553.2969" y2="553.2969"/><line style="stroke:#181818;stroke-width:0.5;" x1="1309" x2="1403.7305" y1="561.2969" y2="561.2969"/></g><!--class TenantEntity--><g class="entity" data-qualified-name="NOTIP Management API.CommonModule.TenantEntity" data-source-line="13" id="ent0005"><rect fill="#F1F1F1" height="44" rx="2.5" ry="2.5" style="stroke:#181818;stroke-width:0.5;" width="92.1797" x="1180.5" y="525.2969"/><ellipse cx="1193.5" cy="539.2969" fill="#ADD1B2" rx="9" ry="9" style="stroke:#181818;stroke-width:1;"/><path d="M1194.7813,542.5938 Q1194.4375,542.7656 1194.0625,542.8438 Q1193.6875,542.9375 1193.2656,542.9375 Q1191.7969,542.9375 1191.0156,541.9688 Q1190.25,541 1190.25,539.1563 Q1190.25,537.3125 1191.0156,536.3438 Q1191.7969,535.375 1193.2656,535.375 Q1193.6875,535.375 1194.0625,535.4688 Q1194.4531,535.5469 1194.7813,535.7188 L1194.7813,537.3281 Q1194.4063,536.9844 1194.0469,536.8281 Q1193.7031,536.6719 1193.3438,536.6719 Q1192.5469,536.6719 1192.1406,537.2969 Q1191.7344,537.9219 1191.7344,539.1563 Q1191.7344,540.3906 1192.1406,541.0156 Q1192.5469,541.6406 1193.3438,541.6406 Q1193.7031,541.6406 1194.0469,541.4844 Q1194.4063,541.3281 1194.7813,540.9844 L1194.7813,542.5938 Z " fill="#000000"/><text fill="#000000" font-family="sans-serif" font-size="10" lengthAdjust="spacing" textLength="64.1797" x="1205.5" y="542.7588">TenantEntity</text><line style="stroke:#181818;stroke-width:0.5;" x1="1181.5" x2="1271.6797" y1="553.2969" y2="553.2969"/><line style="stroke:#181818;stroke-width:0.5;" x1="1181.5" x2="1271.6797" y1="561.2969" y2="561.2969"/></g><!--class MetricsInterceptor--><g class="entity" data-qualified-name="NOTIP Management API.CommonModule.MetricsInterceptor" data-source-line="14" id="ent0006"><rect fill="#F1F1F1" height="44" rx="2.5" ry="2.5" style="stroke:#181818;stroke-width:0.5;" width="119.9189" x="705.5" y="525.2969"/><ellipse cx="718.5" cy="539.2969" fill="#ADD1B2" rx="9" ry="9" style="stroke:#181818;stroke-width:1;"/><path d="M719.7813,542.5938 Q719.4375,542.7656 719.0625,542.8438 Q718.6875,542.9375 718.2656,542.9375 Q716.7969,542.9375 716.0156,541.9688 Q715.25,541 715.25,539.1563 Q715.25,537.3125 716.0156,536.3438 Q716.7969,535.375 718.2656,535.375 Q718.6875,535.375 719.0625,535.4688 Q719.4531,535.5469 719.7813,535.7188 L719.7813,537.3281 Q719.4063,536.9844 719.0469,536.8281 Q718.7031,536.6719 718.3438,536.6719 Q717.5469,536.6719 717.1406,537.2969 Q716.7344,537.9219 716.7344,539.1563 Q716.7344,540.3906 717.1406,541.0156 Q717.5469,541.6406 718.3438,541.6406 Q718.7031,541.6406 719.0469,541.4844 Q719.4063,541.3281 719.7813,540.9844 L719.7813,542.5938 Z " fill="#000000"/><text fill="#000000" font-family="sans-serif" font-size="10" lengthAdjust="spacing" textLength="91.9189" x="730.5" y="542.7588">MetricsInterceptor</text><line style="stroke:#181818;stroke-width:0.5;" x1="706.5" x2="824.4189" y1="553.2969" y2="553.2969"/><line style="stroke:#181818;stroke-width:0.5;" x1="706.5" x2="824.4189" y1="561.2969" y2="561.2969"/></g><!--class LastAccessInterceptor--><g class="entity" data-qualified-name="NOTIP Management API.CommonModule.LastAccessInterceptor" data-source-line="15" id="ent0007"><rect fill="#F1F1F1" height="44" rx="2.5" ry="2.5" style="stroke:#181818;stroke-width:0.5;" width="138.8594" x="861" y="525.2969"/><ellipse cx="874" cy="539.2969" fill="#ADD1B2" rx="9" ry="9" style="stroke:#181818;stroke-width:1;"/><path d="M875.2813,542.5938 Q874.9375,542.7656 874.5625,542.8438 Q874.1875,542.9375 873.7656,542.9375 Q872.2969,542.9375 871.5156,541.9688 Q870.75,541 870.75,539.1563 Q870.75,537.3125 871.5156,536.3438 Q872.2969,535.375 873.7656,535.375 Q874.1875,535.375 874.5625,535.4688 Q874.9531,535.5469 875.2813,535.7188 L875.2813,537.3281 Q874.9063,536.9844 874.5469,536.8281 Q874.2031,536.6719 873.8438,536.6719 Q873.0469,536.6719 872.6406,537.2969 Q872.2344,537.9219 872.2344,539.1563 Q872.2344,540.3906 872.6406,541.0156 Q873.0469,541.6406 873.8438,541.6406 Q874.2031,541.6406 874.5469,541.4844 Q874.9063,541.3281 875.2813,540.9844 L875.2813,542.5938 Z " fill="#000000"/><text fill="#000000" font-family="sans-serif" font-size="10" lengthAdjust="spacing" textLength="110.8594" x="886" y="542.7588">LastAccessInterceptor</text><line style="stroke:#181818;stroke-width:0.5;" x1="862" x2="998.8594" y1="553.2969" y2="553.2969"/><line style="stroke:#181818;stroke-width:0.5;" x1="862" x2="998.8594" y1="561.2969" y2="561.2969"/></g><!--class AuditInterceptor--><g class="entity" data-qualified-name="NOTIP Management API.CommonModule.AuditInterceptor" data-source-line="16" id="ent0008"><rect fill="#F1F1F1" height="44" rx="2.5" ry="2.5" style="stroke:#181818;stroke-width:0.5;" width="109.8457" x="1035.5" y="525.2969"/><ellipse cx="1048.5" cy="539.2969" fill="#ADD1B2" rx="9" ry="9" style="stroke:#181818;stroke-width:1;"/><path d="M1049.7813,542.5938 Q1049.4375,542.7656 1049.0625,542.8438 Q1048.6875,542.9375 1048.2656,542.9375 Q1046.7969,542.9375 1046.0156,541.9688 Q1045.25,541 1045.25,539.1563 Q1045.25,537.3125 1046.0156,536.3438 Q1046.7969,535.375 1048.2656,535.375 Q1048.6875,535.375 1049.0625,535.4688 Q1049.4531,535.5469 1049.7813,535.7188 L1049.7813,537.3281 Q1049.4063,536.9844 1049.0469,536.8281 Q1048.7031,536.6719 1048.3438,536.6719 Q1047.5469,536.6719 1047.1406,537.2969 Q1046.7344,537.9219 1046.7344,539.1563 Q1046.7344,540.3906 1047.1406,541.0156 Q1047.5469,541.6406 1048.3438,541.6406 Q1048.7031,541.6406 1049.0469,541.4844 Q1049.4063,541.3281 1049.7813,540.9844 L1049.7813,542.5938 Z " fill="#000000"/><text fill="#000000" font-family="sans-serif" font-size="10" lengthAdjust="spacing" textLength="81.8457" x="1060.5" y="542.7588">AuditInterceptor</text><line style="stroke:#181818;stroke-width:0.5;" x1="1036.5" x2="1144.3457" y1="553.2969" y2="553.2969"/><line style="stroke:#181818;stroke-width:0.5;" x1="1036.5" x2="1144.3457" y1="561.2969" y2="561.2969"/></g><!--class AuthController--><g class="entity" data-qualified-name="NOTIP Management API.AuthModule.AuthController" data-source-line="20" id="ent0010"><rect fill="#F1F1F1" height="44" rx="2.5" ry="2.5" style="stroke:#181818;stroke-width:0.5;" width="100.8467" x="1653" y="411.2969"/><ellipse cx="1666" cy="425.2969" fill="#ADD1B2" rx="9" ry="9" style="stroke:#181818;stroke-width:1;"/><path d="M1667.2813,428.5938 Q1666.9375,428.7656 1666.5625,428.8438 Q1666.1875,428.9375 1665.7656,428.9375 Q1664.2969,428.9375 1663.5156,427.9688 Q1662.75,427 1662.75,425.1563 Q1662.75,423.3125 1663.5156,422.3438 Q1664.2969,421.375 1665.7656,421.375 Q1666.1875,421.375 1666.5625,421.4688 Q1666.9531,421.5469 1667.2813,421.7188 L1667.2813,423.3281 Q1666.9063,422.9844 1666.5469,422.8281 Q1666.2031,422.6719 1665.8438,422.6719 Q1665.0469,422.6719 1664.6406,423.2969 Q1664.2344,423.9219 1664.2344,425.1563 Q1664.2344,426.3906 1664.6406,427.0156 Q1665.0469,427.6406 1665.8438,427.6406 Q1666.2031,427.6406 1666.5469,427.4844 Q1666.9063,427.3281 1667.2813,426.9844 L1667.2813,428.5938 Z " fill="#000000"/><text fill="#000000" font-family="sans-serif" font-size="10" lengthAdjust="spacing" textLength="72.8467" x="1678" y="428.7588">AuthController</text><line style="stroke:#181818;stroke-width:0.5;" x1="1654" x2="1752.8467" y1="439.2969" y2="439.2969"/><line style="stroke:#181818;stroke-width:0.5;" x1="1654" x2="1752.8467" y1="447.2969" y2="447.2969"/></g><!--class JwtStrategy--><g class="entity" data-qualified-name="NOTIP Management API.AuthModule.JwtStrategy" data-source-line="21" id="ent0011"><rect fill="#F1F1F1" height="44" rx="2.5" ry="2.5" style="stroke:#181818;stroke-width:0.5;" width="85.8955" x="1789.5" y="411.2969"/><ellipse cx="1802.5" cy="425.2969" fill="#ADD1B2" rx="9" ry="9" style="stroke:#181818;stroke-width:1;"/><path d="M1803.7813,428.5938 Q1803.4375,428.7656 1803.0625,428.8438 Q1802.6875,428.9375 1802.2656,428.9375 Q1800.7969,428.9375 1800.0156,427.9688 Q1799.25,427 1799.25,425.1563 Q1799.25,423.3125 1800.0156,422.3438 Q1800.7969,421.375 1802.2656,421.375 Q1802.6875,421.375 1803.0625,421.4688 Q1803.4531,421.5469 1803.7813,421.7188 L1803.7813,423.3281 Q1803.4063,422.9844 1803.0469,422.8281 Q1802.7031,422.6719 1802.3438,422.6719 Q1801.5469,422.6719 1801.1406,423.2969 Q1800.7344,423.9219 1800.7344,425.1563 Q1800.7344,426.3906 1801.1406,427.0156 Q1801.5469,427.6406 1802.3438,427.6406 Q1802.7031,427.6406 1803.0469,427.4844 Q1803.4063,427.3281 1803.7813,426.9844 L1803.7813,428.5938 Z " fill="#000000"/><text fill="#000000" font-family="sans-serif" font-size="10" lengthAdjust="spacing" textLength="57.8955" x="1814.5" y="428.7588">JwtStrategy</text><line style="stroke:#181818;stroke-width:0.5;" x1="1790.5" x2="1874.3955" y1="439.2969" y2="439.2969"/><line style="stroke:#181818;stroke-width:0.5;" x1="1790.5" x2="1874.3955" y1="447.2969" y2="447.2969"/></g><!--class ImpersonationService--><g class="entity" data-qualified-name="NOTIP Management API.AuthModule.ImpersonationService" data-source-line="22" id="ent0012"><rect fill="#F1F1F1" height="44" rx="2.5" ry="2.5" style="stroke:#181818;stroke-width:0.5;" width="137.209" x="1626" y="525.2969"/><ellipse cx="1639" cy="539.2969" fill="#ADD1B2" rx="9" ry="9" style="stroke:#181818;stroke-width:1;"/><path d="M1640.2813,542.5938 Q1639.9375,542.7656 1639.5625,542.8438 Q1639.1875,542.9375 1638.7656,542.9375 Q1637.2969,542.9375 1636.5156,541.9688 Q1635.75,541 1635.75,539.1563 Q1635.75,537.3125 1636.5156,536.3438 Q1637.2969,535.375 1638.7656,535.375 Q1639.1875,535.375 1639.5625,535.4688 Q1639.9531,535.5469 1640.2813,535.7188 L1640.2813,537.3281 Q1639.9063,536.9844 1639.5469,536.8281 Q1639.2031,536.6719 1638.8438,536.6719 Q1638.0469,536.6719 1637.6406,537.2969 Q1637.2344,537.9219 1637.2344,539.1563 Q1637.2344,540.3906 1637.6406,541.0156 Q1638.0469,541.6406 1638.8438,541.6406 Q1639.2031,541.6406 1639.5469,541.4844 Q1639.9063,541.3281 1640.2813,540.9844 L1640.2813,542.5938 Z " fill="#000000"/><text fill="#000000" font-family="sans-serif" font-size="10" lengthAdjust="spacing" textLength="109.209" x="1651" y="542.7588">ImpersonationService</text><line style="stroke:#181818;stroke-width:0.5;" x1="1627" x2="1762.209" y1="553.2969" y2="553.2969"/><line style="stroke:#181818;stroke-width:0.5;" x1="1627" x2="1762.209" y1="561.2969" y2="561.2969"/></g><!--class JwtAuthGuard--><g class="entity" data-qualified-name="NOTIP Management API.AuthModule.JwtAuthGuard" data-source-line="23" id="ent0013"><rect fill="#F1F1F1" height="44" rx="2.5" ry="2.5" style="stroke:#181818;stroke-width:0.5;" width="97.1602" x="1911" y="411.2969"/><ellipse cx="1924" cy="425.2969" fill="#ADD1B2" rx="9" ry="9" style="stroke:#181818;stroke-width:1;"/><path d="M1925.2813,428.5938 Q1924.9375,428.7656 1924.5625,428.8438 Q1924.1875,428.9375 1923.7656,428.9375 Q1922.2969,428.9375 1921.5156,427.9688 Q1920.75,427 1920.75,425.1563 Q1920.75,423.3125 1921.5156,422.3438 Q1922.2969,421.375 1923.7656,421.375 Q1924.1875,421.375 1924.5625,421.4688 Q1924.9531,421.5469 1925.2813,421.7188 L1925.2813,423.3281 Q1924.9063,422.9844 1924.5469,422.8281 Q1924.2031,422.6719 1923.8438,422.6719 Q1923.0469,422.6719 1922.6406,423.2969 Q1922.2344,423.9219 1922.2344,425.1563 Q1922.2344,426.3906 1922.6406,427.0156 Q1923.0469,427.6406 1923.8438,427.6406 Q1924.2031,427.6406 1924.5469,427.4844 Q1924.9063,427.3281 1925.2813,426.9844 L1925.2813,428.5938 Z " fill="#000000"/><text fill="#000000" font-family="sans-serif" font-size="10" lengthAdjust="spacing" textLength="69.1602" x="1936" y="428.7588">JwtAuthGuard</text><line style="stroke:#181818;stroke-width:0.5;" x1="1912" x2="2007.1602" y1="439.2969" y2="439.2969"/><line style="stroke:#181818;stroke-width:0.5;" x1="1912" x2="2007.1602" y1="447.2969" y2="447.2969"/></g><!--class RolesGuard--><g class="entity" data-qualified-name="NOTIP Management API.AuthModule.RolesGuard" data-source-line="24" id="ent0014"><rect fill="#F1F1F1" height="44" rx="2.5" ry="2.5" style="stroke:#181818;stroke-width:0.5;" width="85.8809" x="1798.5" y="525.2969"/><ellipse cx="1811.5" cy="539.2969" fill="#ADD1B2" rx="9" ry="9" style="stroke:#181818;stroke-width:1;"/><path d="M1812.7813,542.5938 Q1812.4375,542.7656 1812.0625,542.8438 Q1811.6875,542.9375 1811.2656,542.9375 Q1809.7969,542.9375 1809.0156,541.9688 Q1808.25,541 1808.25,539.1563 Q1808.25,537.3125 1809.0156,536.3438 Q1809.7969,535.375 1811.2656,535.375 Q1811.6875,535.375 1812.0625,535.4688 Q1812.4531,535.5469 1812.7813,535.7188 L1812.7813,537.3281 Q1812.4063,536.9844 1812.0469,536.8281 Q1811.7031,536.6719 1811.3438,536.6719 Q1810.5469,536.6719 1810.1406,537.2969 Q1809.7344,537.9219 1809.7344,539.1563 Q1809.7344,540.3906 1810.1406,541.0156 Q1810.5469,541.6406 1811.3438,541.6406 Q1811.7031,541.6406 1812.0469,541.4844 Q1812.4063,541.3281 1812.7813,540.9844 L1812.7813,542.5938 Z " fill="#000000"/><text fill="#000000" font-family="sans-serif" font-size="10" lengthAdjust="spacing" textLength="57.8809" x="1823.5" y="542.7588">RolesGuard</text><line style="stroke:#181818;stroke-width:0.5;" x1="1799.5" x2="1883.3809" y1="553.2969" y2="553.2969"/><line style="stroke:#181818;stroke-width:0.5;" x1="1799.5" x2="1883.3809" y1="561.2969" y2="561.2969"/></g><!--class AccessPolicyGuard--><g class="entity" data-qualified-name="NOTIP Management API.AuthModule.AccessPolicyGuard" data-source-line="25" id="ent0015"><rect fill="#F1F1F1" height="44" rx="2.5" ry="2.5" style="stroke:#181818;stroke-width:0.5;" width="122.2041" x="1495.5" y="411.2969"/><ellipse cx="1508.5" cy="425.2969" fill="#ADD1B2" rx="9" ry="9" style="stroke:#181818;stroke-width:1;"/><path d="M1509.7813,428.5938 Q1509.4375,428.7656 1509.0625,428.8438 Q1508.6875,428.9375 1508.2656,428.9375 Q1506.7969,428.9375 1506.0156,427.9688 Q1505.25,427 1505.25,425.1563 Q1505.25,423.3125 1506.0156,422.3438 Q1506.7969,421.375 1508.2656,421.375 Q1508.6875,421.375 1509.0625,421.4688 Q1509.4531,421.5469 1509.7813,421.7188 L1509.7813,423.3281 Q1509.4063,422.9844 1509.0469,422.8281 Q1508.7031,422.6719 1508.3438,422.6719 Q1507.5469,422.6719 1507.1406,423.2969 Q1506.7344,423.9219 1506.7344,425.1563 Q1506.7344,426.3906 1507.1406,427.0156 Q1507.5469,427.6406 1508.3438,427.6406 Q1508.7031,427.6406 1509.0469,427.4844 Q1509.4063,427.3281 1509.7813,426.9844 L1509.7813,428.5938 Z " fill="#000000"/><text fill="#000000" font-family="sans-serif" font-size="10" lengthAdjust="spacing" textLength="94.2041" x="1520.5" y="428.7588">AccessPolicyGuard</text><line style="stroke:#181818;stroke-width:0.5;" x1="1496.5" x2="1616.7041" y1="439.2969" y2="439.2969"/><line style="stroke:#181818;stroke-width:0.5;" x1="1496.5" x2="1616.7041" y1="447.2969" y2="447.2969"/></g><!--class BlockImpersonationGuard--><g class="entity" data-qualified-name="NOTIP Management API.AuthModule.BlockImpersonationGuard" data-source-line="26" id="ent0016"><rect fill="#F1F1F1" height="44" rx="2.5" ry="2.5" style="stroke:#181818;stroke-width:0.5;" width="157.9707" x="2043.5" y="411.2969"/><ellipse cx="2056.5" cy="425.2969" fill="#ADD1B2" rx="9" ry="9" style="stroke:#181818;stroke-width:1;"/><path d="M2057.7813,428.5938 Q2057.4375,428.7656 2057.0625,428.8438 Q2056.6875,428.9375 2056.2656,428.9375 Q2054.7969,428.9375 2054.0156,427.9688 Q2053.25,427 2053.25,425.1563 Q2053.25,423.3125 2054.0156,422.3438 Q2054.7969,421.375 2056.2656,421.375 Q2056.6875,421.375 2057.0625,421.4688 Q2057.4531,421.5469 2057.7813,421.7188 L2057.7813,423.3281 Q2057.4063,422.9844 2057.0469,422.8281 Q2056.7031,422.6719 2056.3438,422.6719 Q2055.5469,422.6719 2055.1406,423.2969 Q2054.7344,423.9219 2054.7344,425.1563 Q2054.7344,426.3906 2055.1406,427.0156 Q2055.5469,427.6406 2056.3438,427.6406 Q2056.7031,427.6406 2057.0469,427.4844 Q2057.4063,427.3281 2057.7813,426.9844 L2057.7813,428.5938 Z " fill="#000000"/><text fill="#000000" font-family="sans-serif" font-size="10" lengthAdjust="spacing" textLength="129.9707" x="2068.5" y="428.7588">BlockImpersonationGuard</text><line style="stroke:#181818;stroke-width:0.5;" x1="2044.5" x2="2200.4707" y1="439.2969" y2="439.2969"/><line style="stroke:#181818;stroke-width:0.5;" x1="2044.5" x2="2200.4707" y1="447.2969" y2="447.2969"/></g><!--class TenantsController--><g class="entity" data-qualified-name="NOTIP Management API.AdminModule.TenantsController" data-source-line="30" id="ent0018"><rect fill="#F1F1F1" height="44" rx="2.5" ry="2.5" style="stroke:#181818;stroke-width:0.5;" width="117.6045" x="1031.5" y="188.2969"/><ellipse cx="1044.5" cy="202.2969" fill="#ADD1B2" rx="9" ry="9" style="stroke:#181818;stroke-width:1;"/><path d="M1045.7813,205.5938 Q1045.4375,205.7656 1045.0625,205.8438 Q1044.6875,205.9375 1044.2656,205.9375 Q1042.7969,205.9375 1042.0156,204.9688 Q1041.25,204 1041.25,202.1563 Q1041.25,200.3125 1042.0156,199.3438 Q1042.7969,198.375 1044.2656,198.375 Q1044.6875,198.375 1045.0625,198.4688 Q1045.4531,198.5469 1045.7813,198.7188 L1045.7813,200.3281 Q1045.4063,199.9844 1045.0469,199.8281 Q1044.7031,199.6719 1044.3438,199.6719 Q1043.5469,199.6719 1043.1406,200.2969 Q1042.7344,200.9219 1042.7344,202.1563 Q1042.7344,203.3906 1043.1406,204.0156 Q1043.5469,204.6406 1044.3438,204.6406 Q1044.7031,204.6406 1045.0469,204.4844 Q1045.4063,204.3281 1045.7813,203.9844 L1045.7813,205.5938 Z " fill="#000000"/><text fill="#000000" font-family="sans-serif" font-size="10" lengthAdjust="spacing" textLength="89.6045" x="1056.5" y="205.7588">TenantsController</text><line style="stroke:#181818;stroke-width:0.5;" x1="1032.5" x2="1148.1045" y1="216.2969" y2="216.2969"/><line style="stroke:#181818;stroke-width:0.5;" x1="1032.5" x2="1148.1045" y1="224.2969" y2="224.2969"/></g><!--class TenantsService--><g class="entity" data-qualified-name="NOTIP Management API.AdminModule.TenantsService" data-source-line="31" id="ent0019"><rect fill="#F1F1F1" height="44" rx="2.5" ry="2.5" style="stroke:#181818;stroke-width:0.5;" width="105.1533" x="1038" y="298.7969"/><ellipse cx="1051" cy="312.7969" fill="#ADD1B2" rx="9" ry="9" style="stroke:#181818;stroke-width:1;"/><path d="M1052.2813,316.0938 Q1051.9375,316.2656 1051.5625,316.3438 Q1051.1875,316.4375 1050.7656,316.4375 Q1049.2969,316.4375 1048.5156,315.4688 Q1047.75,314.5 1047.75,312.6563 Q1047.75,310.8125 1048.5156,309.8438 Q1049.2969,308.875 1050.7656,308.875 Q1051.1875,308.875 1051.5625,308.9688 Q1051.9531,309.0469 1052.2813,309.2188 L1052.2813,310.8281 Q1051.9063,310.4844 1051.5469,310.3281 Q1051.2031,310.1719 1050.8438,310.1719 Q1050.0469,310.1719 1049.6406,310.7969 Q1049.2344,311.4219 1049.2344,312.6563 Q1049.2344,313.8906 1049.6406,314.5156 Q1050.0469,315.1406 1050.8438,315.1406 Q1051.2031,315.1406 1051.5469,314.9844 Q1051.9063,314.8281 1052.2813,314.4844 L1052.2813,316.0938 Z " fill="#000000"/><text fill="#000000" font-family="sans-serif" font-size="10" lengthAdjust="spacing" textLength="77.1533" x="1063" y="316.2588">TenantsService</text><line style="stroke:#181818;stroke-width:0.5;" x1="1039" x2="1142.1533" y1="326.7969" y2="326.7969"/><line style="stroke:#181818;stroke-width:0.5;" x1="1039" x2="1142.1533" y1="334.7969" y2="334.7969"/></g><!--class TenantsPersistenceService--><g class="entity" data-qualified-name="NOTIP Management API.AdminModule.TenantsPersistenceService" data-source-line="32" id="ent0020"><rect fill="#F1F1F1" height="44" rx="2.5" ry="2.5" style="stroke:#181818;stroke-width:0.5;" width="162.707" x="1032" y="411.2969"/><ellipse cx="1045" cy="425.2969" fill="#ADD1B2" rx="9" ry="9" style="stroke:#181818;stroke-width:1;"/><path d="M1046.2813,428.5938 Q1045.9375,428.7656 1045.5625,428.8438 Q1045.1875,428.9375 1044.7656,428.9375 Q1043.2969,428.9375 1042.5156,427.9688 Q1041.75,427 1041.75,425.1563 Q1041.75,423.3125 1042.5156,422.3438 Q1043.2969,421.375 1044.7656,421.375 Q1045.1875,421.375 1045.5625,421.4688 Q1045.9531,421.5469 1046.2813,421.7188 L1046.2813,423.3281 Q1045.9063,422.9844 1045.5469,422.8281 Q1045.2031,422.6719 1044.8438,422.6719 Q1044.0469,422.6719 1043.6406,423.2969 Q1043.2344,423.9219 1043.2344,425.1563 Q1043.2344,426.3906 1043.6406,427.0156 Q1044.0469,427.6406 1044.8438,427.6406 Q1045.2031,427.6406 1045.5469,427.4844 Q1045.9063,427.3281 1046.2813,426.9844 L1046.2813,428.5938 Z " fill="#000000"/><text fill="#000000" font-family="sans-serif" font-size="10" lengthAdjust="spacing" textLength="134.707" x="1057" y="428.7588">TenantsPersistenceService</text><line style="stroke:#181818;stroke-width:0.5;" x1="1033" x2="1193.707" y1="439.2969" y2="439.2969"/><line style="stroke:#181818;stroke-width:0.5;" x1="1033" x2="1193.707" y1="447.2969" y2="447.2969"/></g><!--class KeycloakAdminService--><g class="entity" data-qualified-name="NOTIP Management API.AdminModule.KeycloakAdminService" data-source-line="33" id="ent0021"><rect fill="#F1F1F1" height="44" rx="2.5" ry="2.5" style="stroke:#181818;stroke-width:0.5;" width="141.9453" x="647.5" y="411.2969"/><ellipse cx="660.5" cy="425.2969" fill="#ADD1B2" rx="9" ry="9" style="stroke:#181818;stroke-width:1;"/><path d="M661.7813,428.5938 Q661.4375,428.7656 661.0625,428.8438 Q660.6875,428.9375 660.2656,428.9375 Q658.7969,428.9375 658.0156,427.9688 Q657.25,427 657.25,425.1563 Q657.25,423.3125 658.0156,422.3438 Q658.7969,421.375 660.2656,421.375 Q660.6875,421.375 661.0625,421.4688 Q661.4531,421.5469 661.7813,421.7188 L661.7813,423.3281 Q661.4063,422.9844 661.0469,422.8281 Q660.7031,422.6719 660.3438,422.6719 Q659.5469,422.6719 659.1406,423.2969 Q658.7344,423.9219 658.7344,425.1563 Q658.7344,426.3906 659.1406,427.0156 Q659.5469,427.6406 660.3438,427.6406 Q660.7031,427.6406 661.0469,427.4844 Q661.4063,427.3281 661.7813,426.9844 L661.7813,428.5938 Z " fill="#000000"/><text fill="#000000" font-family="sans-serif" font-size="10" lengthAdjust="spacing" textLength="113.9453" x="672.5" y="428.7588">KeycloakAdminService</text><line style="stroke:#181818;stroke-width:0.5;" x1="648.5" x2="788.4453" y1="439.2969" y2="439.2969"/><line style="stroke:#181818;stroke-width:0.5;" x1="648.5" x2="788.4453" y1="447.2969" y2="447.2969"/></g><!--class AdminGatewaysController--><g class="entity" data-qualified-name="NOTIP Management API.AdminModule.AdminGatewaysController" data-source-line="34" id="ent0022"><rect fill="#F1F1F1" height="44" rx="2.5" ry="2.5" style="stroke:#181818;stroke-width:0.5;" width="126.7939" x="847" y="188.2969"/><ellipse cx="860" cy="202.2969" fill="#ADD1B2" rx="9" ry="9" style="stroke:#181818;stroke-width:1;"/><path d="M861.2813,205.5938 Q860.9375,205.7656 860.5625,205.8438 Q860.1875,205.9375 859.7656,205.9375 Q858.2969,205.9375 857.5156,204.9688 Q856.75,204 856.75,202.1563 Q856.75,200.3125 857.5156,199.3438 Q858.2969,198.375 859.7656,198.375 Q860.1875,198.375 860.5625,198.4688 Q860.9531,198.5469 861.2813,198.7188 L861.2813,200.3281 Q860.9063,199.9844 860.5469,199.8281 Q860.2031,199.6719 859.8438,199.6719 Q859.0469,199.6719 858.6406,200.2969 Q858.2344,200.9219 858.2344,202.1563 Q858.2344,203.3906 858.6406,204.0156 Q859.0469,204.6406 859.8438,204.6406 Q860.2031,204.6406 860.5469,204.4844 Q860.9063,204.3281 861.2813,203.9844 L861.2813,205.5938 Z " fill="#000000"/><text fill="#000000" font-family="sans-serif" font-size="10" lengthAdjust="spacing" textLength="98.7939" x="872" y="205.7588">GatewaysController</text><line style="stroke:#181818;stroke-width:0.5;" x1="848" x2="972.7939" y1="216.2969" y2="216.2969"/><line style="stroke:#181818;stroke-width:0.5;" x1="848" x2="972.7939" y1="224.2969" y2="224.2969"/></g><!--class AdminGatewaysService--><g class="entity" data-qualified-name="NOTIP Management API.AdminModule.AdminGatewaysService" data-source-line="35" id="ent0023"><rect fill="#F1F1F1" height="44" rx="2.5" ry="2.5" style="stroke:#181818;stroke-width:0.5;" width="114.3428" x="853.5" y="298.7969"/><ellipse cx="866.5" cy="312.7969" fill="#ADD1B2" rx="9" ry="9" style="stroke:#181818;stroke-width:1;"/><path d="M867.7813,316.0938 Q867.4375,316.2656 867.0625,316.3438 Q866.6875,316.4375 866.2656,316.4375 Q864.7969,316.4375 864.0156,315.4688 Q863.25,314.5 863.25,312.6563 Q863.25,310.8125 864.0156,309.8438 Q864.7969,308.875 866.2656,308.875 Q866.6875,308.875 867.0625,308.9688 Q867.4531,309.0469 867.7813,309.2188 L867.7813,310.8281 Q867.4063,310.4844 867.0469,310.3281 Q866.7031,310.1719 866.3438,310.1719 Q865.5469,310.1719 865.1406,310.7969 Q864.7344,311.4219 864.7344,312.6563 Q864.7344,313.8906 865.1406,314.5156 Q865.5469,315.1406 866.3438,315.1406 Q866.7031,315.1406 867.0469,314.9844 Q867.4063,314.8281 867.7813,314.4844 L867.7813,316.0938 Z " fill="#000000"/><text fill="#000000" font-family="sans-serif" font-size="10" lengthAdjust="spacing" textLength="86.3428" x="878.5" y="316.2588">GatewaysService</text><line style="stroke:#181818;stroke-width:0.5;" x1="854.5" x2="966.8428" y1="326.7969" y2="326.7969"/><line style="stroke:#181818;stroke-width:0.5;" x1="854.5" x2="966.8428" y1="334.7969" y2="334.7969"/></g><!--class AdminGatewaysPersistenceService--><g class="entity" data-qualified-name="NOTIP Management API.AdminModule.AdminGatewaysPersistenceService" data-source-line="36" id="ent0024"><rect fill="#F1F1F1" height="44" rx="2.5" ry="2.5" style="stroke:#181818;stroke-width:0.5;" width="171.8965" x="824.5" y="411.2969"/><ellipse cx="837.5" cy="425.2969" fill="#ADD1B2" rx="9" ry="9" style="stroke:#181818;stroke-width:1;"/><path d="M838.7813,428.5938 Q838.4375,428.7656 838.0625,428.8438 Q837.6875,428.9375 837.2656,428.9375 Q835.7969,428.9375 835.0156,427.9688 Q834.25,427 834.25,425.1563 Q834.25,423.3125 835.0156,422.3438 Q835.7969,421.375 837.2656,421.375 Q837.6875,421.375 838.0625,421.4688 Q838.4531,421.5469 838.7813,421.7188 L838.7813,423.3281 Q838.4063,422.9844 838.0469,422.8281 Q837.7031,422.6719 837.3438,422.6719 Q836.5469,422.6719 836.1406,423.2969 Q835.7344,423.9219 835.7344,425.1563 Q835.7344,426.3906 836.1406,427.0156 Q836.5469,427.6406 837.3438,427.6406 Q837.7031,427.6406 838.0469,427.4844 Q838.4063,427.3281 838.7813,426.9844 L838.7813,428.5938 Z " fill="#000000"/><text fill="#000000" font-family="sans-serif" font-size="10" lengthAdjust="spacing" textLength="143.8965" x="849.5" y="428.7588">GatewaysPersistenceService</text><line style="stroke:#181818;stroke-width:0.5;" x1="825.5" x2="995.3965" y1="439.2969" y2="439.2969"/><line style="stroke:#181818;stroke-width:0.5;" x1="825.5" x2="995.3965" y1="447.2969" y2="447.2969"/></g><!--class MetricsController--><g class="entity" data-qualified-name="NOTIP Management API.MetricsModule.MetricsController" data-source-line="40" id="ent0026"><rect fill="#F1F1F1" height="44" rx="2.5" ry="2.5" style="stroke:#181818;stroke-width:0.5;" width="113.708" x="535.5" y="525.2969"/><ellipse cx="548.5" cy="539.2969" fill="#ADD1B2" rx="9" ry="9" style="stroke:#181818;stroke-width:1;"/><path d="M549.7813,542.5938 Q549.4375,542.7656 549.0625,542.8438 Q548.6875,542.9375 548.2656,542.9375 Q546.7969,542.9375 546.0156,541.9688 Q545.25,541 545.25,539.1563 Q545.25,537.3125 546.0156,536.3438 Q546.7969,535.375 548.2656,535.375 Q548.6875,535.375 549.0625,535.4688 Q549.4531,535.5469 549.7813,535.7188 L549.7813,537.3281 Q549.4063,536.9844 549.0469,536.8281 Q548.7031,536.6719 548.3438,536.6719 Q547.5469,536.6719 547.1406,537.2969 Q546.7344,537.9219 546.7344,539.1563 Q546.7344,540.3906 547.1406,541.0156 Q547.5469,541.6406 548.3438,541.6406 Q548.7031,541.6406 549.0469,541.4844 Q549.4063,541.3281 549.7813,540.9844 L549.7813,542.5938 Z " fill="#000000"/><text fill="#000000" font-family="sans-serif" font-size="10" lengthAdjust="spacing" textLength="85.708" x="560.5" y="542.7588">MetricsController</text><line style="stroke:#181818;stroke-width:0.5;" x1="536.5" x2="648.208" y1="553.2969" y2="553.2969"/><line style="stroke:#181818;stroke-width:0.5;" x1="536.5" x2="648.208" y1="561.2969" y2="561.2969"/></g><!--class MetricsService--><g class="entity" data-qualified-name="NOTIP Management API.MetricsModule.MetricsService" data-source-line="41" id="ent0027"><rect fill="#F1F1F1" height="44" rx="2.5" ry="2.5" style="stroke:#181818;stroke-width:0.5;" width="101.2568" x="545" y="629.2969"/><ellipse cx="558" cy="643.2969" fill="#ADD1B2" rx="9" ry="9" style="stroke:#181818;stroke-width:1;"/><path d="M559.2813,646.5938 Q558.9375,646.7656 558.5625,646.8438 Q558.1875,646.9375 557.7656,646.9375 Q556.2969,646.9375 555.5156,645.9688 Q554.75,645 554.75,643.1563 Q554.75,641.3125 555.5156,640.3438 Q556.2969,639.375 557.7656,639.375 Q558.1875,639.375 558.5625,639.4688 Q558.9531,639.5469 559.2813,639.7188 L559.2813,641.3281 Q558.9063,640.9844 558.5469,640.8281 Q558.2031,640.6719 557.8438,640.6719 Q557.0469,640.6719 556.6406,641.2969 Q556.2344,641.9219 556.2344,643.1563 Q556.2344,644.3906 556.6406,645.0156 Q557.0469,645.6406 557.8438,645.6406 Q558.2031,645.6406 558.5469,645.4844 Q558.9063,645.3281 559.2813,644.9844 L559.2813,646.5938 Z " fill="#000000"/><text fill="#000000" font-family="sans-serif" font-size="10" lengthAdjust="spacing" textLength="73.2568" x="570" y="646.7588">MetricsService</text><line style="stroke:#181818;stroke-width:0.5;" x1="546" x2="645.2568" y1="657.2969" y2="657.2969"/><line style="stroke:#181818;stroke-width:0.5;" x1="546" x2="645.2568" y1="665.2969" y2="665.2969"/></g><!--class ApiClientController--><g class="entity" data-qualified-name="NOTIP Management API.ApiClientModule.ApiClientController" data-source-line="45" id="ent0029"><rect fill="#F1F1F1" height="44" rx="2.5" ry="2.5" style="stroke:#181818;stroke-width:0.5;" width="122.3262" x="330.5" y="188.2969"/><ellipse cx="343.5" cy="202.2969" fill="#ADD1B2" rx="9" ry="9" style="stroke:#181818;stroke-width:1;"/><path d="M344.7813,205.5938 Q344.4375,205.7656 344.0625,205.8438 Q343.6875,205.9375 343.2656,205.9375 Q341.7969,205.9375 341.0156,204.9688 Q340.25,204 340.25,202.1563 Q340.25,200.3125 341.0156,199.3438 Q341.7969,198.375 343.2656,198.375 Q343.6875,198.375 344.0625,198.4688 Q344.4531,198.5469 344.7813,198.7188 L344.7813,200.3281 Q344.4063,199.9844 344.0469,199.8281 Q343.7031,199.6719 343.3438,199.6719 Q342.5469,199.6719 342.1406,200.2969 Q341.7344,200.9219 341.7344,202.1563 Q341.7344,203.3906 342.1406,204.0156 Q342.5469,204.6406 343.3438,204.6406 Q343.7031,204.6406 344.0469,204.4844 Q344.4063,204.3281 344.7813,203.9844 L344.7813,205.5938 Z " fill="#000000"/><text fill="#000000" font-family="sans-serif" font-size="10" lengthAdjust="spacing" textLength="94.3262" x="355.5" y="205.7588">ApiClientController</text><line style="stroke:#181818;stroke-width:0.5;" x1="331.5" x2="451.8262" y1="216.2969" y2="216.2969"/><line style="stroke:#181818;stroke-width:0.5;" x1="331.5" x2="451.8262" y1="224.2969" y2="224.2969"/></g><!--class ApiClientService--><g class="entity" data-qualified-name="NOTIP Management API.ApiClientModule.ApiClientService" data-source-line="46" id="ent0030"><rect fill="#F1F1F1" height="44" rx="2.5" ry="2.5" style="stroke:#181818;stroke-width:0.5;" width="109.875" x="336.5" y="298.7969"/><ellipse cx="349.5" cy="312.7969" fill="#ADD1B2" rx="9" ry="9" style="stroke:#181818;stroke-width:1;"/><path d="M350.7813,316.0938 Q350.4375,316.2656 350.0625,316.3438 Q349.6875,316.4375 349.2656,316.4375 Q347.7969,316.4375 347.0156,315.4688 Q346.25,314.5 346.25,312.6563 Q346.25,310.8125 347.0156,309.8438 Q347.7969,308.875 349.2656,308.875 Q349.6875,308.875 350.0625,308.9688 Q350.4531,309.0469 350.7813,309.2188 L350.7813,310.8281 Q350.4063,310.4844 350.0469,310.3281 Q349.7031,310.1719 349.3438,310.1719 Q348.5469,310.1719 348.1406,310.7969 Q347.7344,311.4219 347.7344,312.6563 Q347.7344,313.8906 348.1406,314.5156 Q348.5469,315.1406 349.3438,315.1406 Q349.7031,315.1406 350.0469,314.9844 Q350.4063,314.8281 350.7813,314.4844 L350.7813,316.0938 Z " fill="#000000"/><text fill="#000000" font-family="sans-serif" font-size="10" lengthAdjust="spacing" textLength="81.875" x="361.5" y="316.2588">ApiClientService</text><line style="stroke:#181818;stroke-width:0.5;" x1="337.5" x2="445.375" y1="326.7969" y2="326.7969"/><line style="stroke:#181818;stroke-width:0.5;" x1="337.5" x2="445.375" y1="334.7969" y2="334.7969"/></g><!--class ApiClientPersistenceService--><g class="entity" data-qualified-name="NOTIP Management API.ApiClientModule.ApiClientPersistenceService" data-source-line="47" id="ent0031"><rect fill="#F1F1F1" height="44" rx="2.5" ry="2.5" style="stroke:#181818;stroke-width:0.5;" width="167.4287" x="297" y="411.2969"/><ellipse cx="310" cy="425.2969" fill="#ADD1B2" rx="9" ry="9" style="stroke:#181818;stroke-width:1;"/><path d="M311.2813,428.5938 Q310.9375,428.7656 310.5625,428.8438 Q310.1875,428.9375 309.7656,428.9375 Q308.2969,428.9375 307.5156,427.9688 Q306.75,427 306.75,425.1563 Q306.75,423.3125 307.5156,422.3438 Q308.2969,421.375 309.7656,421.375 Q310.1875,421.375 310.5625,421.4688 Q310.9531,421.5469 311.2813,421.7188 L311.2813,423.3281 Q310.9063,422.9844 310.5469,422.8281 Q310.2031,422.6719 309.8438,422.6719 Q309.0469,422.6719 308.6406,423.2969 Q308.2344,423.9219 308.2344,425.1563 Q308.2344,426.3906 308.6406,427.0156 Q309.0469,427.6406 309.8438,427.6406 Q310.2031,427.6406 310.5469,427.4844 Q310.9063,427.3281 311.2813,426.9844 L311.2813,428.5938 Z " fill="#000000"/><text fill="#000000" font-family="sans-serif" font-size="10" lengthAdjust="spacing" textLength="139.4287" x="322" y="428.7588">ApiClientPersistenceService</text><line style="stroke:#181818;stroke-width:0.5;" x1="298" x2="463.4287" y1="439.2969" y2="439.2969"/><line style="stroke:#181818;stroke-width:0.5;" x1="298" x2="463.4287" y1="447.2969" y2="447.2969"/></g><!--class ApiClientEntity--><g class="entity" data-qualified-name="NOTIP Management API.ApiClientModule.ApiClientEntity" data-source-line="48" id="ent0032"><rect fill="#F1F1F1" height="44" rx="2.5" ry="2.5" style="stroke:#181818;stroke-width:0.5;" width="102.1113" x="329.5" y="525.2969"/><ellipse cx="342.5" cy="539.2969" fill="#ADD1B2" rx="9" ry="9" style="stroke:#181818;stroke-width:1;"/><path d="M343.7813,542.5938 Q343.4375,542.7656 343.0625,542.8438 Q342.6875,542.9375 342.2656,542.9375 Q340.7969,542.9375 340.0156,541.9688 Q339.25,541 339.25,539.1563 Q339.25,537.3125 340.0156,536.3438 Q340.7969,535.375 342.2656,535.375 Q342.6875,535.375 343.0625,535.4688 Q343.4531,535.5469 343.7813,535.7188 L343.7813,537.3281 Q343.4063,536.9844 343.0469,536.8281 Q342.7031,536.6719 342.3438,536.6719 Q341.5469,536.6719 341.1406,537.2969 Q340.7344,537.9219 340.7344,539.1563 Q340.7344,540.3906 341.1406,541.0156 Q341.5469,541.6406 342.3438,541.6406 Q342.7031,541.6406 343.0469,541.4844 Q343.4063,541.3281 343.7813,540.9844 L343.7813,542.5938 Z " fill="#000000"/><text fill="#000000" font-family="sans-serif" font-size="10" lengthAdjust="spacing" textLength="74.1113" x="354.5" y="542.7588">ApiClientEntity</text><line style="stroke:#181818;stroke-width:0.5;" x1="330.5" x2="430.6113" y1="553.2969" y2="553.2969"/><line style="stroke:#181818;stroke-width:0.5;" x1="330.5" x2="430.6113" y1="561.2969" y2="561.2969"/></g><g class="entity" data-qualified-name="GMN52" data-source-line="80" id="ent0053"><path d="M6,410.7969 L6,455.7188 L216.9561,455.7188 L216.9561,420.7969 L206.9561,410.7969 L6,410.7969" fill="#FEFFDD" style="stroke:#181818;stroke-width:0.5;"/><path d="M206.9561,410.7969 L206.9561,420.7969 L216.9561,420.7969 L206.9561,410.7969" fill="#FEFFDD" style="stroke:#181818;stroke-width:1;"/><text fill="#000000" font-family="sans-serif" font-size="10" lengthAdjust="spacing" textLength="174.3555" x="12" y="425.0791">Core entity shared across modules</text><text fill="#000000" font-family="sans-serif" font-size="10" lengthAdjust="spacing" textLength="189.9561" x="12" y="436.7197">ManyToOne/OneToMany relationships</text><text fill="#000000" font-family="sans-serif" font-size="10" lengthAdjust="spacing" textLength="168.6182" x="12" y="448.3604">with Users, Gateways, Alerts, etc.</text></g><g class="entity" data-qualified-name="GMN55" data-source-line="86" id="ent0056"><path d="M2274,292.2969 L2274,348.8594 L2434.624,348.8594 L2434.624,302.2969 L2424.624,292.2969 L2274,292.2969" fill="#FEFFDD" style="stroke:#181818;stroke-width:0.5;"/><path d="M2424.624,292.2969 L2424.624,302.2969 L2434.624,302.2969 L2424.624,292.2969" fill="#FEFFDD" style="stroke:#181818;stroke-width:1;"/><text fill="#000000" font-family="sans-serif" font-size="10" lengthAdjust="spacing" textLength="138.4717" x="2280" y="306.5791">Handles JWT authentication</text><text fill="#000000" font-family="sans-serif" font-size="10" lengthAdjust="spacing" textLength="130.7275" x="2280" y="318.2197">Role-based access control</text><text fill="#000000" font-family="sans-serif" font-size="10" lengthAdjust="spacing" textLength="131.8701" x="2280" y="329.8604">Tenant suspension checks</text><text fill="#000000" font-family="sans-serif" font-size="10" lengthAdjust="spacing" textLength="139.624" x="2280" y="341.501">User impersonation support</text></g><g class="entity" data-qualified-name="GMN58" data-source-line="93" id="ent0059"><path d="M161.5,43.2969 L161.5,88.2188 L385.2832,88.2188 L385.2832,53.2969 L375.2832,43.2969 L161.5,43.2969" fill="#FEFFDD" style="stroke:#181818;stroke-width:0.5;"/><path d="M375.2832,43.2969 L375.2832,53.2969 L385.2832,53.2969 L375.2832,43.2969" fill="#FEFFDD" style="stroke:#181818;stroke-width:1;"/><text fill="#000000" font-family="sans-serif" font-size="10" lengthAdjust="spacing" textLength="140.6348" x="167.5" y="57.5791">Manages OAuth2 API clients</text><text fill="#000000" font-family="sans-serif" font-size="10" lengthAdjust="spacing" textLength="202.7832" x="167.5" y="69.2197">Sync with Keycloak for client credentials</text><text fill="#000000" font-family="sans-serif" font-size="10" lengthAdjust="spacing" textLength="133.3398" x="167.5" y="80.8604">Client secret management</text></g><!--link MetricsInterceptor to MetricsService--><g class="link" data-entity-1="ent0006" data-entity-2="ent0027" data-link-type="dependency" data-source-line="52" id="lnk33"><path codeLine="52" d="M765.5,569.3569 C765.5,599.8769 765.5,651.2969 765.5,651.2969 C765.5,651.2969 702.16,651.2969 652.05,651.2969" fill="none" id="MetricsInterceptor-to-MetricsService" style="stroke:#181818;stroke-width:1;"/><polygon fill="#181818" points="646.05,651.2969,655.05,655.2969,651.05,651.2969,655.05,647.2969,646.05,651.2969" style="stroke:#181818;stroke-width:1;"/></g><!--link LastAccessInterceptor to UserEntity--><g class="link" data-entity-1="ent0007" data-entity-2="ent0034" data-link-type="dependency" data-source-line="53" id="lnk35"><path codeLine="53" d="M930.5,569.3569 C930.5,586.9969 930.5,605.6369 930.5,623.2769" fill="none" id="LastAccessInterceptor-to-UserEntity" style="stroke:#181818;stroke-width:1;stroke-dasharray:7,7;"/><polygon fill="#181818" points="930.5,629.2769,934.5,620.2769,930.5,624.2769,926.5,620.2769,930.5,629.2769" style="stroke:#181818;stroke-width:1;"/></g><!--link AuditInterceptor to AuditLogService--><g class="link" data-entity-1="ent0008" data-entity-2="ent0036" data-link-type="dependency" data-source-line="54" id="lnk37"><path codeLine="54" d="M1090.5,569.3569 C1090.5,599.8769 1090.5,651.2969 1090.5,651.2969 C1090.5,651.2969 1373.11,651.2969 1496.56,651.2969" fill="none" id="AuditInterceptor-to-AuditLogService" style="stroke:#181818;stroke-width:1;"/><polygon fill="#181818" points="1502.56,651.2969,1493.56,647.2969,1497.56,651.2969,1493.56,655.2969,1502.56,651.2969" style="stroke:#181818;stroke-width:1;"/></g><!--link AuthController to ImpersonationService--><g class="link" data-entity-1="ent0010" data-entity-2="ent0012" data-link-type="dependency" data-source-line="57" id="lnk38"><path codeLine="57" d="M1703.5,455.5469 C1703.5,475.6369 1703.5,499.0369 1703.5,519.1069" fill="none" id="AuthController-to-ImpersonationService" style="stroke:#181818;stroke-width:1;stroke-dasharray:7,7;"/><polygon fill="#181818" points="1703.5,525.1069,1707.5,516.1069,1703.5,520.1069,1699.5,516.1069,1703.5,525.1069" style="stroke:#181818;stroke-width:1;"/></g><!--link BlockImpersonationGuard to AuditLogService--><g class="link" data-entity-1="ent0016" data-entity-2="ent0036" data-link-type="dependency" data-source-line="58" id="lnk39"><path codeLine="58" d="M2122.5,455.3969 C2122.5,510.8169 2122.5,651.2969 2122.5,651.2969 C2122.5,651.2969 1759.98,651.2969 1618.19,651.2969" fill="none" id="BlockImpersonationGuard-to-AuditLogService" style="stroke:#181818;stroke-width:1;"/><polygon fill="#181818" points="1612.19,651.2969,1621.19,655.2969,1617.19,651.2969,1621.19,647.2969,1612.19,651.2969" style="stroke:#181818;stroke-width:1;"/></g><!--link AccessPolicyGuard to TenantEntity--><g class="link" data-entity-1="ent0015" data-entity-2="ent0005" data-link-type="dependency" data-source-line="59" id="lnk40"><path codeLine="59" d="M1495.41,445.2969 C1401.85,445.2969 1233.75,445.2969 1233.75,445.2969 C1233.75,445.2969 1233.75,489.1669 1233.75,519.1669" fill="none" id="AccessPolicyGuard-to-TenantEntity" style="stroke:#181818;stroke-width:1;stroke-dasharray:7,7;"/><polygon fill="#181818" points="1233.75,525.1669,1237.75,516.1669,1233.75,520.1669,1229.75,516.1669,1233.75,525.1669" style="stroke:#181818;stroke-width:1;"/></g><!--link TenantsController to TenantsService--><g class="link" data-entity-1="ent0018" data-entity-2="ent0019" data-link-type="dependency" data-source-line="62" id="lnk41"><path codeLine="62" d="M1090.5,232.3969 C1090.5,251.6669 1090.5,273.4769 1090.5,292.7369" fill="none" id="TenantsController-to-TenantsService" style="stroke:#181818;stroke-width:1;"/><polygon fill="#181818" points="1090.5,298.7369,1094.5,289.7369,1090.5,293.7369,1086.5,289.7369,1090.5,298.7369" style="stroke:#181818;stroke-width:1;"/></g><!--link TenantsService to TenantsPersistenceService--><g class="link" data-entity-1="ent0019" data-entity-2="ent0020" data-link-type="dependency" data-source-line="63" id="lnk42"><path codeLine="63" d="M1108,343.0269 C1108,362.7469 1108,385.4069 1108,405.1169" fill="none" id="TenantsService-to-TenantsPersistenceService" style="stroke:#181818;stroke-width:1;"/><polygon fill="#181818" points="1108,411.1169,1112,402.1169,1108,406.1169,1104,402.1169,1108,411.1169" style="stroke:#181818;stroke-width:1;"/></g><!--link TenantsService to KeycloakAdminService--><g class="link" data-entity-1="ent0019" data-entity-2="ent0021" data-link-type="dependency" data-source-line="64" id="lnk43"><path codeLine="64" d="M1073,342.9569 C1073,359.8669 1073,380.2969 1073,380.2969 C1073,380.2969 742.17,380.2969 742.17,380.2969 C742.17,380.2969 742.17,390.6069 742.17,405.1269" fill="none" id="TenantsService-to-KeycloakAdminService" style="stroke:#181818;stroke-width:1;"/><polygon fill="#181818" points="742.17,411.1269,746.17,402.1269,742.17,406.1269,738.17,402.1269,742.17,411.1269" style="stroke:#181818;stroke-width:1;"/></g><!--link TenantsPersistenceService to TenantEntity--><g class="link" data-entity-1="ent0020" data-entity-2="ent0005" data-link-type="dependency" data-source-line="65" id="lnk44"><path codeLine="65" d="M1190.17,455.5469 C1190.17,475.6369 1190.17,499.0369 1190.17,519.1069" fill="none" id="TenantsPersistenceService-to-TenantEntity" style="stroke:#181818;stroke-width:1;"/><polygon fill="#181818" points="1190.17,525.1069,1194.17,516.1069,1190.17,520.1069,1186.17,516.1069,1190.17,525.1069" style="stroke:#181818;stroke-width:1;"/></g><!--link AdminGatewaysController to AdminGatewaysService--><g class="link" data-entity-1="ent0022" data-entity-2="ent0023" data-link-type="dependency" data-source-line="66" id="lnk45"><path codeLine="66" d="M910.5,232.3969 C910.5,251.6669 910.5,273.4769 910.5,292.7369" fill="none" id="AdminGatewaysController-to-AdminGatewaysService" style="stroke:#181818;stroke-width:1;"/><polygon fill="#181818" points="910.5,298.7369,914.5,289.7369,910.5,293.7369,906.5,289.7369,910.5,298.7369" style="stroke:#181818;stroke-width:1;"/></g><!--link AdminGatewaysService to AdminGatewaysPersistenceService--><g class="link" data-entity-1="ent0023" data-entity-2="ent0024" data-link-type="dependency" data-source-line="67" id="lnk46"><path codeLine="67" d="M910.5,343.0269 C910.5,362.7469 910.5,385.4069 910.5,405.1169" fill="none" id="AdminGatewaysService-to-AdminGatewaysPersistenceService" style="stroke:#181818;stroke-width:1;"/><polygon fill="#181818" points="910.5,411.1169,914.5,402.1169,910.5,406.1169,906.5,402.1169,910.5,411.1169" style="stroke:#181818;stroke-width:1;"/></g><!--link MetricsController to MetricsService--><g class="link" data-entity-1="ent0026" data-entity-2="ent0027" data-link-type="dependency" data-source-line="70" id="lnk47"><path codeLine="70" d="M595.5,569.3569 C595.5,586.9969 595.5,605.6369 595.5,623.2769" fill="none" id="MetricsController-to-MetricsService" style="stroke:#181818;stroke-width:1;"/><polygon fill="#181818" points="595.5,629.2769,599.5,620.2769,595.5,624.2769,591.5,620.2769,595.5,629.2769" style="stroke:#181818;stroke-width:1;"/></g><!--link ApiClientController to ApiClientService--><g class="link" data-entity-1="ent0029" data-entity-2="ent0030" data-link-type="dependency" data-source-line="73" id="lnk48"><path codeLine="73" d="M391.5,232.3969 C391.5,251.6669 391.5,273.4769 391.5,292.7369" fill="none" id="ApiClientController-to-ApiClientService" style="stroke:#181818;stroke-width:1;"/><polygon fill="#181818" points="391.5,298.7369,395.5,289.7369,391.5,293.7369,387.5,289.7369,391.5,298.7369" style="stroke:#181818;stroke-width:1;"/></g><!--link ApiClientService to ApiClientPersistenceService--><g class="link" data-entity-1="ent0030" data-entity-2="ent0031" data-link-type="dependency" data-source-line="74" id="lnk49"><path codeLine="74" d="M391.5,343.0269 C391.5,362.7469 391.5,385.4069 391.5,405.1169" fill="none" id="ApiClientService-to-ApiClientPersistenceService" style="stroke:#181818;stroke-width:1;"/><polygon fill="#181818" points="391.5,411.1169,395.5,402.1169,391.5,406.1169,387.5,402.1169,391.5,411.1169" style="stroke:#181818;stroke-width:1;"/></g><!--link ApiClientService to KeycloakAdminService--><g class="link" data-entity-1="ent0030" data-entity-2="ent0021" data-link-type="dependency" data-source-line="75" id="lnk50"><path codeLine="75" d="M446.78,321.2969 C534.28,321.2969 694.83,321.2969 694.83,321.2969 C694.83,321.2969 694.83,372.5269 694.83,405.1669" fill="none" id="ApiClientService-to-KeycloakAdminService" style="stroke:#181818;stroke-width:1;"/><polygon fill="#181818" points="694.83,411.1669,698.83,402.1669,694.83,406.1669,690.83,402.1669,694.83,411.1669" style="stroke:#181818;stroke-width:1;"/></g><!--link ApiClientPersistenceService to ApiClientEntity--><g class="link" data-entity-1="ent0031" data-entity-2="ent0032" data-link-type="dependency" data-source-line="76" id="lnk51"><path codeLine="76" d="M380.5,455.5469 C380.5,475.6369 380.5,499.0369 380.5,519.1069" fill="none" id="ApiClientPersistenceService-to-ApiClientEntity" style="stroke:#181818;stroke-width:1;"/><polygon fill="#181818" points="380.5,525.1069,384.5,516.1069,380.5,520.1069,376.5,516.1069,380.5,525.1069" style="stroke:#181818;stroke-width:1;"/></g><!--link GMN52 to TenantEntity--><g class="link" data-entity-1="ent0053" data-entity-2="ent0005" data-link-type="association" data-source-line="80" id="lnk54"><path d="M111.5,455.8869 C111.5,472.1769 111.5,491.2969 111.5,491.2969 C111.5,491.2969 1185.33,491.2969 1185.33,491.2969 C1185.33,491.2969 1185.33,509.5069 1185.33,525.1669" fill="none" id="GMN52-TenantEntity" style="stroke:#181818;stroke-width:1;stroke-dasharray:7,7;"/></g><!--link GMN55 to AuthModule--><g class="link" data-entity-1="ent0056" data-entity-2="ent0009" data-link-type="association" data-source-line="86" id="lnk57"><path d="M2273.98,321.2969 C2054.23,321.2969 1460.5,321.2969 1460.5,321.2969 C1460.5,321.2969 1460.5,327.6563 1460.5,337.3442 C1460.5,342.1882 1460.5,347.8643 1460.5,353.9938 C1460.5,357.0585 1460.5,360.2365 1460.5,363.4805 C1460.5,365.1025 1460.5,366.741 1460.5,368.3901 C1460.5,369.2146 1460.5,370.0418 1460.5,370.8709 C1460.5,371.2855 1460.5,371.7005 1460.5,372.1159 C1460.5,372.3236 1460.5,372.5314 1460.5,372.7392" fill="none" id="GMN55-AuthModule" style="stroke:#181818;stroke-width:1;stroke-dasharray:7,7;"/></g><!--link GMN58 to ApiClientModule--><g class="link" data-entity-1="ent0059" data-entity-2="ent0028" data-link-type="association" data-source-line="93" id="lnk60"><path d="M273.5,88.3769 C273.5,98.0594 273.5,110.05 273.5,122.6991 C273.5,129.0236 273.5,135.5127 273.5,141.9603 C273.5,143.5722 273.5,145.1814 273.5,146.7849 C273.5,147.5866 273.5,148.3869 273.5,149.1853 C273.5,149.3849 273.5,149.5844 273.5,149.7838" fill="none" id="GMN58-ApiClientModule" style="stroke:#181818;stroke-width:1;stroke-dasharray:7,7;"/></g><?plantuml-src VLRVRziW47xFNt7g7hP9JNzihrMaB6gxTEqQDTdsJF4rGS5W0LwLJVlV1zYEmU1QYY9_zztnSSUTCSnmXE-Fc-KA7eWWMonH69YlbZ25kQ8xPf2QMY5yk3p__74oqNicAg982S-4xhTArg9OI2uLlBlnJy0ey8NKtDn8OTRi3yBbHTxO-b_u9w1m9j0SAWIfp4u6XiekRQMkpS6ALrOW4LkEaqcBmqbkGoTmTVNKSMSp-3kP01mz5h8ifO07MTGSJu1eQ906i6Im3-L4QpYv5hz_4iuAOfWKdXiX8NM3WWXpBGmp1yyC0GYP3sWKetef32gAbP7AyrCuTBedsimfHPtuPIsXwxmkc1bw3K7hy2zAqxmskp19xZsN8eSlR6cLv1pLaTf38VdkrQoD8WQtJOw2zv2sB2jKMWgVv3Mgtums8dA6GNot-6rDLD4jS0H2ufFag7jQ_nfjpMTr9JcZXvwReA7B5oxfFbBPEuxOqimN9OlEfmTokM-Ec1waFq4pBc5IOoX3Nbd5J1iK53D-gJKCyGqFb4kozti8lNE6qF7MdefNSXXkpjDJMyupN2roUsEraQr6xjaDnoLiUpaiOWlbojYQ1ZjDq8nBg366qbDLiUc2CpSYmwDLiGRCjdPd7DOWnRDkKGO7ODPXBFlZzcoOO0WFi2uhx-tCL-w3mdqVwXshj8NJ4GpJwIpDR7RamjdP37veLCUbXZFM1_FWlTnsqRmQFso7Qk8nwiEFpB-HoP9T3z81vaE7dwjMb9z3GrN9TF6h93Ca1a9EjeWP-iY068qIhD5N83yjciJaHq8EJlcPJVYSTOq_Sh864WO7gybwtwV9WKZxhb6MzjOGYddP4cHTHehmHgHufROIjkc4D0X6LY1VXbNolOZDHKdlYC8225NIzdJffv9F8167ZNmKU6v_6-bUa_oyCjj5hWFrANI5EeMvJPEn_sZesGH50Kv9hAU_szWeNuaex9fmzsi3n1gSCDfTzzn5OVfCj9VesWXeKulZoGHTwmg5jdoWEwHxfyo90XOsgALLbRtjZYcAvtAJ03l7DJmwiP_ylPrwXek_FWZQRByh6BpOUTCGWDgCkbqGxhZjuT9eOGFbyURSA_aF?></g></svg>