<?plantuml 1.2026.2?><svg xmlns="http://www.w3.org/2000/svg" xmlns:xlink="http://www.w3.org/1999/xlink" contentStyleType="text/css" data-diagram-type="CLASS" height="693px" preserveAspectRatio="none" style="width:1793px;height:693px;background:#FFFFFF;" version="1.1" viewBox="0 0 1793 693" width="1793px" zoomAndPan="magnify"><title>NOTIP Management API - Architecture (3/3)</title><defs/><g><g class="title" data-source-line="1"><text fill="#000000" font-family="sans-serif" font-size="14" font-weight="bold" lengthAdjust="spacing" textLength="343.916" x="717.542" y="22.9951">NOTIP Management API - Architecture (3/3)</text></g><!--cluster NOTIP Management API--><g class="cluster" data-qualified-name="NOTIP Management API" data-source-line="9" id="ent0002"><rect fill="none" height="560" rx="2.5" ry="2.5" style="stroke:#181818;stroke-width:1;" width="1722" x="65" y="127.2969"/><text fill="#000000" font-family="sans-serif" font-size="10" font-weight="bold" lengthAdjust="spacing" textLength="134.1016" x="858.9492" y="138.5791">NOTIP Management API</text></g><!--cluster KeysModule--><g class="cluster" data-qualified-name="NOTIP Management API.KeysModule" data-source-line="10" id="ent0003"><rect fill="none" height="418" rx="2.5" ry="2.5" style="stroke:#000000;stroke-width:1.5;" width="586" x="97" y="173.2969"/><text fill="#000000" font-family="sans-serif" font-size="10" font-weight="bold" lengthAdjust="spacing" textLength="71.792" x="354.104" y="184.5791">Keys Module</text></g><!--cluster UsersModule--><g class="cluster" data-qualified-name="NOTIP Management API.UsersModule" data-source-line="20" id="ent0011"><rect fill="none" height="418" rx="2.5" ry="2.5" style="stroke:#000000;stroke-width:1.5;" width="208" x="845" y="173.2969"/><text fill="#000000" font-family="sans-serif" font-size="10" font-weight="bold" lengthAdjust="spacing" textLength="76.5283" x="910.7358" y="184.5791">Users Module</text></g><!--cluster ThresholdsModule--><g class="cluster" data-qualified-name="NOTIP Management API.ThresholdsModule" data-source-line="27" id="ent0016"><rect fill="none" height="418" rx="2.5" ry="2.5" style="stroke:#000000;stroke-width:1.5;" width="232" x="1093" y="173.2969"/><text fill="#000000" font-family="sans-serif" font-size="10" font-weight="bold" lengthAdjust="spacing" textLength="106.9238" x="1155.5381" y="184.5791">Thresholds Module</text></g><!--cluster AuditLogModule--><g class="cluster" data-qualified-name="NOTIP Management API.AuditLogModule" data-source-line="34" id="ent0021"><rect fill="none" height="418" rx="2.5" ry="2.5" style="stroke:#000000;stroke-width:1.5;" width="390" x="1365" y="173.2969"/><text fill="#000000" font-family="sans-serif" font-size="10" font-weight="bold" lengthAdjust="spacing" textLength="99.5654" x="1510.2173" y="184.5791">Audit-Log Module</text></g><!--class GatewaysService--><g class="entity" data-qualified-name="NOTIP Management API.GatewaysService" data-source-line="48" id="ent0032"><rect fill="#F1F1F1" height="44" rx="2.5" ry="2.5" style="stroke:#181818;stroke-width:0.5;" width="114.3428" x="707" y="419.2969"/><ellipse cx="720" cy="433.2969" fill="#ADD1B2" rx="9" ry="9" style="stroke:#181818;stroke-width:1;"/><path d="M721.2813,436.5938 Q720.9375,436.7656 720.5625,436.8438 Q720.1875,436.9375 719.7656,436.9375 Q718.2969,436.9375 717.5156,435.9688 Q716.75,435 716.75,433.1563 Q716.75,431.3125 717.5156,430.3438 Q718.2969,429.375 719.7656,429.375 Q720.1875,429.375 720.5625,429.4688 Q720.9531,429.5469 721.2813,429.7188 L721.2813,431.3281 Q720.9063,430.9844 720.5469,430.8281 Q720.2031,430.6719 719.8438,430.6719 Q719.0469,430.6719 718.6406,431.2969 Q718.2344,431.9219 718.2344,433.1563 Q718.2344,434.3906 718.6406,435.0156 Q719.0469,435.6406 719.8438,435.6406 Q720.2031,435.6406 720.5469,435.4844 Q720.9063,435.3281 721.2813,434.9844 L721.2813,436.5938 Z " fill="#000000"/><text fill="#000000" font-family="sans-serif" font-size="10" lengthAdjust="spacing" textLength="86.3428" x="732" y="436.7588">GatewaysService</text><line style="stroke:#181818;stroke-width:0.5;" x1="708" x2="820.3428" y1="447.2969" y2="447.2969"/><line style="stroke:#181818;stroke-width:0.5;" x1="708" x2="820.3428" y1="455.2969" y2="455.2969"/></g><!--class GatewayEntity--><g class="entity" data-qualified-name="NOTIP Management API.GatewayEntity" data-source-line="50" id="ent0035"><rect fill="#F1F1F1" height="44" rx="2.5" ry="2.5" style="stroke:#181818;stroke-width:0.5;" width="101.3691" x="298.5" y="627.2969"/><ellipse cx="311.5" cy="641.2969" fill="#ADD1B2" rx="9" ry="9" style="stroke:#181818;stroke-width:1;"/><path d="M312.7813,644.5938 Q312.4375,644.7656 312.0625,644.8438 Q311.6875,644.9375 311.2656,644.9375 Q309.7969,644.9375 309.0156,643.9688 Q308.25,643 308.25,641.1563 Q308.25,639.3125 309.0156,638.3438 Q309.7969,637.375 311.2656,637.375 Q311.6875,637.375 312.0625,637.4688 Q312.4531,637.5469 312.7813,637.7188 L312.7813,639.3281 Q312.4063,638.9844 312.0469,638.8281 Q311.7031,638.6719 311.3438,638.6719 Q310.5469,638.6719 310.1406,639.2969 Q309.7344,639.9219 309.7344,641.1563 Q309.7344,642.3906 310.1406,643.0156 Q310.5469,643.6406 311.3438,643.6406 Q311.7031,643.6406 312.0469,643.4844 Q312.4063,643.3281 312.7813,642.9844 L312.7813,644.5938 Z " fill="#000000"/><text fill="#000000" font-family="sans-serif" font-size="10" lengthAdjust="spacing" textLength="73.3691" x="323.5" y="644.7588">GatewayEntity</text><line style="stroke:#181818;stroke-width:0.5;" x1="299.5" x2="398.8691" y1="655.2969" y2="655.2969"/><line style="stroke:#181818;stroke-width:0.5;" x1="299.5" x2="398.8691" y1="663.2969" y2="663.2969"/></g><!--class TenantEntity--><g class="entity" data-qualified-name="NOTIP Management API.TenantEntity" data-source-line="56" id="ent0040"><rect fill="#F1F1F1" height="44" rx="2.5" ry="2.5" style="stroke:#181818;stroke-width:0.5;" width="92.1797" x="1167" y="627.2969"/><ellipse cx="1180" cy="641.2969" fill="#ADD1B2" rx="9" ry="9" style="stroke:#181818;stroke-width:1;"/><path d="M1181.2813,644.5938 Q1180.9375,644.7656 1180.5625,644.8438 Q1180.1875,644.9375 1179.7656,644.9375 Q1178.2969,644.9375 1177.5156,643.9688 Q1176.75,643 1176.75,641.1563 Q1176.75,639.3125 1177.5156,638.3438 Q1178.2969,637.375 1179.7656,637.375 Q1180.1875,637.375 1180.5625,637.4688 Q1180.9531,637.5469 1181.2813,637.7188 L1181.2813,639.3281 Q1180.9063,638.9844 1180.5469,638.8281 Q1180.2031,638.6719 1179.8438,638.6719 Q1179.0469,638.6719 1178.6406,639.2969 Q1178.2344,639.9219 1178.2344,641.1563 Q1178.2344,642.3906 1178.6406,643.0156 Q1179.0469,643.6406 1179.8438,643.6406 Q1180.2031,643.6406 1180.5469,643.4844 Q1180.9063,643.3281 1181.2813,642.9844 L1181.2813,644.5938 Z " fill="#000000"/><text fill="#000000" font-family="sans-serif" font-size="10" lengthAdjust="spacing" textLength="64.1797" x="1192" y="644.7588">TenantEntity</text><line style="stroke:#181818;stroke-width:0.5;" x1="1168" x2="1258.1797" y1="655.2969" y2="655.2969"/><line style="stroke:#181818;stroke-width:0.5;" x1="1168" x2="1258.1797" y1="663.2969" y2="663.2969"/></g><!--class KeysController--><g class="entity" data-qualified-name="NOTIP Management API.KeysModule.KeysController" data-source-line="11" id="ent0004"><rect fill="#F1F1F1" height="44" rx="2.5" ry="2.5" style="stroke:#181818;stroke-width:0.5;" width="101.2471" x="428.5" y="211.2969"/><ellipse cx="441.5" cy="225.2969" fill="#ADD1B2" rx="9" ry="9" style="stroke:#181818;stroke-width:1;"/><path d="M442.7813,228.5938 Q442.4375,228.7656 442.0625,228.8438 Q441.6875,228.9375 441.2656,228.9375 Q439.7969,228.9375 439.0156,227.9688 Q438.25,227 438.25,225.1563 Q438.25,223.3125 439.0156,222.3438 Q439.7969,221.375 441.2656,221.375 Q441.6875,221.375 442.0625,221.4688 Q442.4531,221.5469 442.7813,221.7188 L442.7813,223.3281 Q442.4063,222.9844 442.0469,222.8281 Q441.7031,222.6719 441.3438,222.6719 Q440.5469,222.6719 440.1406,223.2969 Q439.7344,223.9219 439.7344,225.1563 Q439.7344,226.3906 440.1406,227.0156 Q440.5469,227.6406 441.3438,227.6406 Q441.7031,227.6406 442.0469,227.4844 Q442.4063,227.3281 442.7813,226.9844 L442.7813,228.5938 Z " fill="#000000"/><text fill="#000000" font-family="sans-serif" font-size="10" lengthAdjust="spacing" textLength="73.2471" x="453.5" y="228.7588">KeysController</text><line style="stroke:#181818;stroke-width:0.5;" x1="429.5" x2="528.7471" y1="239.2969" y2="239.2969"/><line style="stroke:#181818;stroke-width:0.5;" x1="429.5" x2="528.7471" y1="247.2969" y2="247.2969"/></g><!--class ProvisioningController--><g class="entity" data-qualified-name="NOTIP Management API.KeysModule.ProvisioningController" data-source-line="12" id="ent0005"><rect fill="#F1F1F1" height="44" rx="2.5" ry="2.5" style="stroke:#181818;stroke-width:0.5;" width="138.2734" x="255" y="211.2969"/><ellipse cx="268" cy="225.2969" fill="#ADD1B2" rx="9" ry="9" style="stroke:#181818;stroke-width:1;"/><path d="M269.2813,228.5938 Q268.9375,228.7656 268.5625,228.8438 Q268.1875,228.9375 267.7656,228.9375 Q266.2969,228.9375 265.5156,227.9688 Q264.75,227 264.75,225.1563 Q264.75,223.3125 265.5156,222.3438 Q266.2969,221.375 267.7656,221.375 Q268.1875,221.375 268.5625,221.4688 Q268.9531,221.5469 269.2813,221.7188 L269.2813,223.3281 Q268.9063,222.9844 268.5469,222.8281 Q268.2031,222.6719 267.8438,222.6719 Q267.0469,222.6719 266.6406,223.2969 Q266.2344,223.9219 266.2344,225.1563 Q266.2344,226.3906 266.6406,227.0156 Q267.0469,227.6406 267.8438,227.6406 Q268.2031,227.6406 268.5469,227.4844 Q268.9063,227.3281 269.2813,226.9844 L269.2813,228.5938 Z " fill="#000000"/><text fill="#000000" font-family="sans-serif" font-size="10" lengthAdjust="spacing" textLength="110.2734" x="280" y="228.7588">ProvisioningController</text><line style="stroke:#181818;stroke-width:0.5;" x1="256" x2="392.2734" y1="239.2969" y2="239.2969"/><line style="stroke:#181818;stroke-width:0.5;" x1="256" x2="392.2734" y1="247.2969" y2="247.2969"/></g><!--class KeysService--><g class="entity" data-qualified-name="NOTIP Management API.KeysModule.KeysService" data-source-line="13" id="ent0006"><rect fill="#F1F1F1" height="44" rx="2.5" ry="2.5" style="stroke:#181818;stroke-width:0.5;" width="88.7959" x="356.5" y="315.2969"/><ellipse cx="369.5" cy="329.2969" fill="#ADD1B2" rx="9" ry="9" style="stroke:#181818;stroke-width:1;"/><path d="M370.7813,332.5938 Q370.4375,332.7656 370.0625,332.8438 Q369.6875,332.9375 369.2656,332.9375 Q367.7969,332.9375 367.0156,331.9688 Q366.25,331 366.25,329.1563 Q366.25,327.3125 367.0156,326.3438 Q367.7969,325.375 369.2656,325.375 Q369.6875,325.375 370.0625,325.4688 Q370.4531,325.5469 370.7813,325.7188 L370.7813,327.3281 Q370.4063,326.9844 370.0469,326.8281 Q369.7031,326.6719 369.3438,326.6719 Q368.5469,326.6719 368.1406,327.2969 Q367.7344,327.9219 367.7344,329.1563 Q367.7344,330.3906 368.1406,331.0156 Q368.5469,331.6406 369.3438,331.6406 Q369.7031,331.6406 370.0469,331.4844 Q370.4063,331.3281 370.7813,330.9844 L370.7813,332.5938 Z " fill="#000000"/><text fill="#000000" font-family="sans-serif" font-size="10" lengthAdjust="spacing" textLength="60.7959" x="381.5" y="332.7588">KeysService</text><line style="stroke:#181818;stroke-width:0.5;" x1="357.5" x2="444.2959" y1="343.2969" y2="343.2969"/><line style="stroke:#181818;stroke-width:0.5;" x1="357.5" x2="444.2959" y1="351.2969" y2="351.2969"/></g><!--class KeysNatsService--><g class="entity" data-qualified-name="NOTIP Management API.KeysModule.KeysNatsService" data-source-line="14" id="ent0007"><rect fill="#F1F1F1" height="44" rx="2.5" ry="2.5" style="stroke:#181818;stroke-width:0.5;" width="111.5352" x="129" y="419.2969"/><ellipse cx="142" cy="433.2969" fill="#ADD1B2" rx="9" ry="9" style="stroke:#181818;stroke-width:1;"/><path d="M143.2813,436.5938 Q142.9375,436.7656 142.5625,436.8438 Q142.1875,436.9375 141.7656,436.9375 Q140.2969,436.9375 139.5156,435.9688 Q138.75,435 138.75,433.1563 Q138.75,431.3125 139.5156,430.3438 Q140.2969,429.375 141.7656,429.375 Q142.1875,429.375 142.5625,429.4688 Q142.9531,429.5469 143.2813,429.7188 L143.2813,431.3281 Q142.9063,430.9844 142.5469,430.8281 Q142.2031,430.6719 141.8438,430.6719 Q141.0469,430.6719 140.6406,431.2969 Q140.2344,431.9219 140.2344,433.1563 Q140.2344,434.3906 140.6406,435.0156 Q141.0469,435.6406 141.8438,435.6406 Q142.2031,435.6406 142.5469,435.4844 Q142.9063,435.3281 143.2813,434.9844 L143.2813,436.5938 Z " fill="#000000"/><text fill="#000000" font-family="sans-serif" font-size="10" lengthAdjust="spacing" textLength="83.5352" x="154" y="436.7588">KeysNatsService</text><line style="stroke:#181818;stroke-width:0.5;" x1="130" x2="239.5352" y1="447.2969" y2="447.2969"/><line style="stroke:#181818;stroke-width:0.5;" x1="130" x2="239.5352" y1="455.2969" y2="455.2969"/></g><!--class KeysPersistenceService--><g class="entity" data-qualified-name="NOTIP Management API.KeysModule.KeysPersistenceService" data-source-line="15" id="ent0008"><rect fill="#F1F1F1" height="44" rx="2.5" ry="2.5" style="stroke:#181818;stroke-width:0.5;" width="146.3496" x="276" y="419.2969"/><ellipse cx="289" cy="433.2969" fill="#ADD1B2" rx="9" ry="9" style="stroke:#181818;stroke-width:1;"/><path d="M290.2813,436.5938 Q289.9375,436.7656 289.5625,436.8438 Q289.1875,436.9375 288.7656,436.9375 Q287.2969,436.9375 286.5156,435.9688 Q285.75,435 285.75,433.1563 Q285.75,431.3125 286.5156,430.3438 Q287.2969,429.375 288.7656,429.375 Q289.1875,429.375 289.5625,429.4688 Q289.9531,429.5469 290.2813,429.7188 L290.2813,431.3281 Q289.9063,430.9844 289.5469,430.8281 Q289.2031,430.6719 288.8438,430.6719 Q288.0469,430.6719 287.6406,431.2969 Q287.2344,431.9219 287.2344,433.1563 Q287.2344,434.3906 287.6406,435.0156 Q288.0469,435.6406 288.8438,435.6406 Q289.2031,435.6406 289.5469,435.4844 Q289.9063,435.3281 290.2813,434.9844 L290.2813,436.5938 Z " fill="#000000"/><text fill="#000000" font-family="sans-serif" font-size="10" lengthAdjust="spacing" textLength="118.3496" x="301" y="436.7588">KeysPersistenceService</text><line style="stroke:#181818;stroke-width:0.5;" x1="277" x2="421.3496" y1="447.2969" y2="447.2969"/><line style="stroke:#181818;stroke-width:0.5;" x1="277" x2="421.3496" y1="455.2969" y2="455.2969"/></g><!--class ProvisioningNatsResponderService--><g class="entity" data-qualified-name="NOTIP Management API.KeysModule.ProvisioningNatsResponderService" data-source-line="16" id="ent0009"><rect fill="#F1F1F1" height="44" rx="2.5" ry="2.5" style="stroke:#181818;stroke-width:0.5;" width="202.2871" x="457" y="419.2969"/><ellipse cx="470" cy="433.2969" fill="#ADD1B2" rx="9" ry="9" style="stroke:#181818;stroke-width:1;"/><path d="M471.2813,436.5938 Q470.9375,436.7656 470.5625,436.8438 Q470.1875,436.9375 469.7656,436.9375 Q468.2969,436.9375 467.5156,435.9688 Q466.75,435 466.75,433.1563 Q466.75,431.3125 467.5156,430.3438 Q468.2969,429.375 469.7656,429.375 Q470.1875,429.375 470.5625,429.4688 Q470.9531,429.5469 471.2813,429.7188 L471.2813,431.3281 Q470.9063,430.9844 470.5469,430.8281 Q470.2031,430.6719 469.8438,430.6719 Q469.0469,430.6719 468.6406,431.2969 Q468.2344,431.9219 468.2344,433.1563 Q468.2344,434.3906 468.6406,435.0156 Q469.0469,435.6406 469.8438,435.6406 Q470.2031,435.6406 470.5469,435.4844 Q470.9063,435.3281 471.2813,434.9844 L471.2813,436.5938 Z " fill="#000000"/><text fill="#000000" font-family="sans-serif" font-size="10" lengthAdjust="spacing" textLength="174.2871" x="482" y="436.7588">ProvisioningNatsResponderService</text><line style="stroke:#181818;stroke-width:0.5;" x1="458" x2="658.2871" y1="447.2969" y2="447.2969"/><line style="stroke:#181818;stroke-width:0.5;" x1="458" x2="658.2871" y1="455.2969" y2="455.2969"/></g><!--class KeyEntity--><g class="entity" data-qualified-name="NOTIP Management API.KeysModule.KeyEntity" data-source-line="17" id="ent0010"><rect fill="#F1F1F1" height="44" rx="2.5" ry="2.5" style="stroke:#181818;stroke-width:0.5;" width="75.8223" x="311" y="523.2969"/><ellipse cx="324" cy="537.2969" fill="#ADD1B2" rx="9" ry="9" style="stroke:#181818;stroke-width:1;"/><path d="M325.2813,540.5938 Q324.9375,540.7656 324.5625,540.8438 Q324.1875,540.9375 323.7656,540.9375 Q322.2969,540.9375 321.5156,539.9688 Q320.75,539 320.75,537.1563 Q320.75,535.3125 321.5156,534.3438 Q322.2969,533.375 323.7656,533.375 Q324.1875,533.375 324.5625,533.4688 Q324.9531,533.5469 325.2813,533.7188 L325.2813,535.3281 Q324.9063,534.9844 324.5469,534.8281 Q324.2031,534.6719 323.8438,534.6719 Q323.0469,534.6719 322.6406,535.2969 Q322.2344,535.9219 322.2344,537.1563 Q322.2344,538.3906 322.6406,539.0156 Q323.0469,539.6406 323.8438,539.6406 Q324.2031,539.6406 324.5469,539.4844 Q324.9063,539.3281 325.2813,538.9844 L325.2813,540.5938 Z " fill="#000000"/><text fill="#000000" font-family="sans-serif" font-size="10" lengthAdjust="spacing" textLength="47.8223" x="336" y="540.7588">KeyEntity</text><line style="stroke:#181818;stroke-width:0.5;" x1="312" x2="385.8223" y1="551.2969" y2="551.2969"/><line style="stroke:#181818;stroke-width:0.5;" x1="312" x2="385.8223" y1="559.2969" y2="559.2969"/></g><!--class UsersController--><g class="entity" data-qualified-name="NOTIP Management API.UsersModule.UsersController" data-source-line="21" id="ent0012"><rect fill="#F1F1F1" height="44" rx="2.5" ry="2.5" style="stroke:#181818;stroke-width:0.5;" width="105.4121" x="900.5" y="211.2969"/><ellipse cx="913.5" cy="225.2969" fill="#ADD1B2" rx="9" ry="9" style="stroke:#181818;stroke-width:1;"/><path d="M914.7813,228.5938 Q914.4375,228.7656 914.0625,228.8438 Q913.6875,228.9375 913.2656,228.9375 Q911.7969,228.9375 911.0156,227.9688 Q910.25,227 910.25,225.1563 Q910.25,223.3125 911.0156,222.3438 Q911.7969,221.375 913.2656,221.375 Q913.6875,221.375 914.0625,221.4688 Q914.4531,221.5469 914.7813,221.7188 L914.7813,223.3281 Q914.4063,222.9844 914.0469,222.8281 Q913.7031,222.6719 913.3438,222.6719 Q912.5469,222.6719 912.1406,223.2969 Q911.7344,223.9219 911.7344,225.1563 Q911.7344,226.3906 912.1406,227.0156 Q912.5469,227.6406 913.3438,227.6406 Q913.7031,227.6406 914.0469,227.4844 Q914.4063,227.3281 914.7813,226.9844 L914.7813,228.5938 Z " fill="#000000"/><text fill="#000000" font-family="sans-serif" font-size="10" lengthAdjust="spacing" textLength="77.4121" x="925.5" y="228.7588">UsersController</text><line style="stroke:#181818;stroke-width:0.5;" x1="901.5" x2="1004.9121" y1="239.2969" y2="239.2969"/><line style="stroke:#181818;stroke-width:0.5;" x1="901.5" x2="1004.9121" y1="247.2969" y2="247.2969"/></g><!--class UsersService--><g class="entity" data-qualified-name="NOTIP Management API.UsersModule.UsersService" data-source-line="22" id="ent0013"><rect fill="#F1F1F1" height="44" rx="2.5" ry="2.5" style="stroke:#181818;stroke-width:0.5;" width="92.9609" x="906.5" y="315.2969"/><ellipse cx="919.5" cy="329.2969" fill="#ADD1B2" rx="9" ry="9" style="stroke:#181818;stroke-width:1;"/><path d="M920.7813,332.5938 Q920.4375,332.7656 920.0625,332.8438 Q919.6875,332.9375 919.2656,332.9375 Q917.7969,332.9375 917.0156,331.9688 Q916.25,331 916.25,329.1563 Q916.25,327.3125 917.0156,326.3438 Q917.7969,325.375 919.2656,325.375 Q919.6875,325.375 920.0625,325.4688 Q920.4531,325.5469 920.7813,325.7188 L920.7813,327.3281 Q920.4063,326.9844 920.0469,326.8281 Q919.7031,326.6719 919.3438,326.6719 Q918.5469,326.6719 918.1406,327.2969 Q917.7344,327.9219 917.7344,329.1563 Q917.7344,330.3906 918.1406,331.0156 Q918.5469,331.6406 919.3438,331.6406 Q919.7031,331.6406 920.0469,331.4844 Q920.4063,331.3281 920.7813,330.9844 L920.7813,332.5938 Z " fill="#000000"/><text fill="#000000" font-family="sans-serif" font-size="10" lengthAdjust="spacing" textLength="64.9609" x="931.5" y="332.7588">UsersService</text><line style="stroke:#181818;stroke-width:0.5;" x1="907.5" x2="998.4609" y1="343.2969" y2="343.2969"/><line style="stroke:#181818;stroke-width:0.5;" x1="907.5" x2="998.4609" y1="351.2969" y2="351.2969"/></g><!--class UsersPersistenceService--><g class="entity" data-qualified-name="NOTIP Management API.UsersModule.UsersPersistenceService" data-source-line="23" id="ent0014"><rect fill="#F1F1F1" height="44" rx="2.5" ry="2.5" style="stroke:#181818;stroke-width:0.5;" width="150.5146" x="877.5" y="419.2969"/><ellipse cx="890.5" cy="433.2969" fill="#ADD1B2" rx="9" ry="9" style="stroke:#181818;stroke-width:1;"/><path d="M891.7813,436.5938 Q891.4375,436.7656 891.0625,436.8438 Q890.6875,436.9375 890.2656,436.9375 Q888.7969,436.9375 888.0156,435.9688 Q887.25,435 887.25,433.1563 Q887.25,431.3125 888.0156,430.3438 Q888.7969,429.375 890.2656,429.375 Q890.6875,429.375 891.0625,429.4688 Q891.4531,429.5469 891.7813,429.7188 L891.7813,431.3281 Q891.4063,430.9844 891.0469,430.8281 Q890.7031,430.6719 890.3438,430.6719 Q889.5469,430.6719 889.1406,431.2969 Q888.7344,431.9219 888.7344,433.1563 Q888.7344,434.3906 889.1406,435.0156 Q889.5469,435.6406 890.3438,435.6406 Q890.7031,435.6406 891.0469,435.4844 Q891.4063,435.3281 891.7813,434.9844 L891.7813,436.5938 Z " fill="#000000"/><text fill="#000000" font-family="sans-serif" font-size="10" lengthAdjust="spacing" textLength="122.5146" x="902.5" y="436.7588">UsersPersistenceService</text><line style="stroke:#181818;stroke-width:0.5;" x1="878.5" x2="1027.0146" y1="447.2969" y2="447.2969"/><line style="stroke:#181818;stroke-width:0.5;" x1="878.5" x2="1027.0146" y1="455.2969" y2="455.2969"/></g><!--class UserEntity--><g class="entity" data-qualified-name="NOTIP Management API.UsersModule.UserEntity" data-source-line="24" id="ent0015"><rect fill="#F1F1F1" height="44" rx="2.5" ry="2.5" style="stroke:#181818;stroke-width:0.5;" width="79.9873" x="931" y="523.2969"/><ellipse cx="944" cy="537.2969" fill="#ADD1B2" rx="9" ry="9" style="stroke:#181818;stroke-width:1;"/><path d="M945.2813,540.5938 Q944.9375,540.7656 944.5625,540.8438 Q944.1875,540.9375 943.7656,540.9375 Q942.2969,540.9375 941.5156,539.9688 Q940.75,539 940.75,537.1563 Q940.75,535.3125 941.5156,534.3438 Q942.2969,533.375 943.7656,533.375 Q944.1875,533.375 944.5625,533.4688 Q944.9531,533.5469 945.2813,533.7188 L945.2813,535.3281 Q944.9063,534.9844 944.5469,534.8281 Q944.2031,534.6719 943.8438,534.6719 Q943.0469,534.6719 942.6406,535.2969 Q942.2344,535.9219 942.2344,537.1563 Q942.2344,538.3906 942.6406,539.0156 Q943.0469,539.6406 943.8438,539.6406 Q944.2031,539.6406 944.5469,539.4844 Q944.9063,539.3281 945.2813,538.9844 L945.2813,540.5938 Z " fill="#000000"/><text fill="#000000" font-family="sans-serif" font-size="10" lengthAdjust="spacing" textLength="51.9873" x="956" y="540.7588">UserEntity</text><line style="stroke:#181818;stroke-width:0.5;" x1="932" x2="1009.9873" y1="551.2969" y2="551.2969"/><line style="stroke:#181818;stroke-width:0.5;" x1="932" x2="1009.9873" y1="559.2969" y2="559.2969"/></g><!--class ThresholdsController--><g class="entity" data-qualified-name="NOTIP Management API.ThresholdsModule.ThresholdsController" data-source-line="28" id="ent0017"><rect fill="#F1F1F1" height="44" rx="2.5" ry="2.5" style="stroke:#181818;stroke-width:0.5;" width="132.1211" x="1147" y="211.2969"/><ellipse cx="1160" cy="225.2969" fill="#ADD1B2" rx="9" ry="9" style="stroke:#181818;stroke-width:1;"/><path d="M1161.2813,228.5938 Q1160.9375,228.7656 1160.5625,228.8438 Q1160.1875,228.9375 1159.7656,228.9375 Q1158.2969,228.9375 1157.5156,227.9688 Q1156.75,227 1156.75,225.1563 Q1156.75,223.3125 1157.5156,222.3438 Q1158.2969,221.375 1159.7656,221.375 Q1160.1875,221.375 1160.5625,221.4688 Q1160.9531,221.5469 1161.2813,221.7188 L1161.2813,223.3281 Q1160.9063,222.9844 1160.5469,222.8281 Q1160.2031,222.6719 1159.8438,222.6719 Q1159.0469,222.6719 1158.6406,223.2969 Q1158.2344,223.9219 1158.2344,225.1563 Q1158.2344,226.3906 1158.6406,227.0156 Q1159.0469,227.6406 1159.8438,227.6406 Q1160.2031,227.6406 1160.5469,227.4844 Q1160.9063,227.3281 1161.2813,226.9844 L1161.2813,228.5938 Z " fill="#000000"/><text fill="#000000" font-family="sans-serif" font-size="10" lengthAdjust="spacing" textLength="104.1211" x="1172" y="228.7588">ThresholdsController</text><line style="stroke:#181818;stroke-width:0.5;" x1="1148" x2="1278.1211" y1="239.2969" y2="239.2969"/><line style="stroke:#181818;stroke-width:0.5;" x1="1148" x2="1278.1211" y1="247.2969" y2="247.2969"/></g><!--class ThresholdsService--><g class="entity" data-qualified-name="NOTIP Management API.ThresholdsModule.ThresholdsService" data-source-line="29" id="ent0018"><rect fill="#F1F1F1" height="44" rx="2.5" ry="2.5" style="stroke:#181818;stroke-width:0.5;" width="119.6699" x="1153" y="315.2969"/><ellipse cx="1166" cy="329.2969" fill="#ADD1B2" rx="9" ry="9" style="stroke:#181818;stroke-width:1;"/><path d="M1167.2813,332.5938 Q1166.9375,332.7656 1166.5625,332.8438 Q1166.1875,332.9375 1165.7656,332.9375 Q1164.2969,332.9375 1163.5156,331.9688 Q1162.75,331 1162.75,329.1563 Q1162.75,327.3125 1163.5156,326.3438 Q1164.2969,325.375 1165.7656,325.375 Q1166.1875,325.375 1166.5625,325.4688 Q1166.9531,325.5469 1167.2813,325.7188 L1167.2813,327.3281 Q1166.9063,326.9844 1166.5469,326.8281 Q1166.2031,326.6719 1165.8438,326.6719 Q1165.0469,326.6719 1164.6406,327.2969 Q1164.2344,327.9219 1164.2344,329.1563 Q1164.2344,330.3906 1164.6406,331.0156 Q1165.0469,331.6406 1165.8438,331.6406 Q1166.2031,331.6406 1166.5469,331.4844 Q1166.9063,331.3281 1167.2813,330.9844 L1167.2813,332.5938 Z " fill="#000000"/><text fill="#000000" font-family="sans-serif" font-size="10" lengthAdjust="spacing" textLength="91.6699" x="1178" y="332.7588">ThresholdsService</text><line style="stroke:#181818;stroke-width:0.5;" x1="1154" x2="1271.6699" y1="343.2969" y2="343.2969"/><line style="stroke:#181818;stroke-width:0.5;" x1="1154" x2="1271.6699" y1="351.2969" y2="351.2969"/></g><!--class ThresholdsPersistenceService--><g class="entity" data-qualified-name="NOTIP Management API.ThresholdsModule.ThresholdsPersistenceService" data-source-line="30" id="ent0019"><rect fill="#F1F1F1" height="44" rx="2.5" ry="2.5" style="stroke:#181818;stroke-width:0.5;" width="177.2236" x="1124.5" y="419.2969"/><ellipse cx="1137.5" cy="433.2969" fill="#ADD1B2" rx="9" ry="9" style="stroke:#181818;stroke-width:1;"/><path d="M1138.7813,436.5938 Q1138.4375,436.7656 1138.0625,436.8438 Q1137.6875,436.9375 1137.2656,436.9375 Q1135.7969,436.9375 1135.0156,435.9688 Q1134.25,435 1134.25,433.1563 Q1134.25,431.3125 1135.0156,430.3438 Q1135.7969,429.375 1137.2656,429.375 Q1137.6875,429.375 1138.0625,429.4688 Q1138.4531,429.5469 1138.7813,429.7188 L1138.7813,431.3281 Q1138.4063,430.9844 1138.0469,430.8281 Q1137.7031,430.6719 1137.3438,430.6719 Q1136.5469,430.6719 1136.1406,431.2969 Q1135.7344,431.9219 1135.7344,433.1563 Q1135.7344,434.3906 1136.1406,435.0156 Q1136.5469,435.6406 1137.3438,435.6406 Q1137.7031,435.6406 1138.0469,435.4844 Q1138.4063,435.3281 1138.7813,434.9844 L1138.7813,436.5938 Z " fill="#000000"/><text fill="#000000" font-family="sans-serif" font-size="10" lengthAdjust="spacing" textLength="149.2236" x="1149.5" y="436.7588">ThresholdsPersistenceService</text><line style="stroke:#181818;stroke-width:0.5;" x1="1125.5" x2="1300.7236" y1="447.2969" y2="447.2969"/><line style="stroke:#181818;stroke-width:0.5;" x1="1125.5" x2="1300.7236" y1="455.2969" y2="455.2969"/></g><!--class ThresholdEntity--><g class="entity" data-qualified-name="NOTIP Management API.ThresholdsModule.ThresholdEntity" data-source-line="31" id="ent0020"><rect fill="#F1F1F1" height="44" rx="2.5" ry="2.5" style="stroke:#181818;stroke-width:0.5;" width="106.6963" x="1159.5" y="523.2969"/><ellipse cx="1172.5" cy="537.2969" fill="#ADD1B2" rx="9" ry="9" style="stroke:#181818;stroke-width:1;"/><path d="M1173.7813,540.5938 Q1173.4375,540.7656 1173.0625,540.8438 Q1172.6875,540.9375 1172.2656,540.9375 Q1170.7969,540.9375 1170.0156,539.9688 Q1169.25,539 1169.25,537.1563 Q1169.25,535.3125 1170.0156,534.3438 Q1170.7969,533.375 1172.2656,533.375 Q1172.6875,533.375 1173.0625,533.4688 Q1173.4531,533.5469 1173.7813,533.7188 L1173.7813,535.3281 Q1173.4063,534.9844 1173.0469,534.8281 Q1172.7031,534.6719 1172.3438,534.6719 Q1171.5469,534.6719 1171.1406,535.2969 Q1170.7344,535.9219 1170.7344,537.1563 Q1170.7344,538.3906 1171.1406,539.0156 Q1171.5469,539.6406 1172.3438,539.6406 Q1172.7031,539.6406 1173.0469,539.4844 Q1173.4063,539.3281 1173.7813,538.9844 L1173.7813,540.5938 Z " fill="#000000"/><text fill="#000000" font-family="sans-serif" font-size="10" lengthAdjust="spacing" textLength="78.6963" x="1184.5" y="540.7588">ThresholdEntity</text><line style="stroke:#181818;stroke-width:0.5;" x1="1160.5" x2="1265.1963" y1="551.2969" y2="551.2969"/><line style="stroke:#181818;stroke-width:0.5;" x1="1160.5" x2="1265.1963" y1="559.2969" y2="559.2969"/></g><!--class AuditLogController--><g class="entity" data-qualified-name="NOTIP Management API.AuditLogModule.AuditLogController" data-source-line="35" id="ent0022"><rect fill="#F1F1F1" height="44" rx="2.5" ry="2.5" style="stroke:#181818;stroke-width:0.5;" width="121.6719" x="1609" y="211.2969"/><ellipse cx="1622" cy="225.2969" fill="#ADD1B2" rx="9" ry="9" style="stroke:#181818;stroke-width:1;"/><path d="M1623.2813,228.5938 Q1622.9375,228.7656 1622.5625,228.8438 Q1622.1875,228.9375 1621.7656,228.9375 Q1620.2969,228.9375 1619.5156,227.9688 Q1618.75,227 1618.75,225.1563 Q1618.75,223.3125 1619.5156,222.3438 Q1620.2969,221.375 1621.7656,221.375 Q1622.1875,221.375 1622.5625,221.4688 Q1622.9531,221.5469 1623.2813,221.7188 L1623.2813,223.3281 Q1622.9063,222.9844 1622.5469,222.8281 Q1622.2031,222.6719 1621.8438,222.6719 Q1621.0469,222.6719 1620.6406,223.2969 Q1620.2344,223.9219 1620.2344,225.1563 Q1620.2344,226.3906 1620.6406,227.0156 Q1621.0469,227.6406 1621.8438,227.6406 Q1622.2031,227.6406 1622.5469,227.4844 Q1622.9063,227.3281 1623.2813,226.9844 L1623.2813,228.5938 Z " fill="#000000"/><text fill="#000000" font-family="sans-serif" font-size="10" lengthAdjust="spacing" textLength="93.6719" x="1634" y="228.7588">AuditLogController</text><line style="stroke:#181818;stroke-width:0.5;" x1="1610" x2="1729.6719" y1="239.2969" y2="239.2969"/><line style="stroke:#181818;stroke-width:0.5;" x1="1610" x2="1729.6719" y1="247.2969" y2="247.2969"/></g><!--class AuditLogService--><g class="entity" data-qualified-name="NOTIP Management API.AuditLogModule.AuditLogService" data-source-line="36" id="ent0023"><rect fill="#F1F1F1" height="44" rx="2.5" ry="2.5" style="stroke:#181818;stroke-width:0.5;" width="109.2207" x="1436.5" y="315.2969"/><ellipse cx="1449.5" cy="329.2969" fill="#ADD1B2" rx="9" ry="9" style="stroke:#181818;stroke-width:1;"/><path d="M1450.7813,332.5938 Q1450.4375,332.7656 1450.0625,332.8438 Q1449.6875,332.9375 1449.2656,332.9375 Q1447.7969,332.9375 1447.0156,331.9688 Q1446.25,331 1446.25,329.1563 Q1446.25,327.3125 1447.0156,326.3438 Q1447.7969,325.375 1449.2656,325.375 Q1449.6875,325.375 1450.0625,325.4688 Q1450.4531,325.5469 1450.7813,325.7188 L1450.7813,327.3281 Q1450.4063,326.9844 1450.0469,326.8281 Q1449.7031,326.6719 1449.3438,326.6719 Q1448.5469,326.6719 1448.1406,327.2969 Q1447.7344,327.9219 1447.7344,329.1563 Q1447.7344,330.3906 1448.1406,331.0156 Q1448.5469,331.6406 1449.3438,331.6406 Q1449.7031,331.6406 1450.0469,331.4844 Q1450.4063,331.3281 1450.7813,330.9844 L1450.7813,332.5938 Z " fill="#000000"/><text fill="#000000" font-family="sans-serif" font-size="10" lengthAdjust="spacing" textLength="81.2207" x="1461.5" y="332.7588">AuditLogService</text><line style="stroke:#181818;stroke-width:0.5;" x1="1437.5" x2="1544.7207" y1="343.2969" y2="343.2969"/><line style="stroke:#181818;stroke-width:0.5;" x1="1437.5" x2="1544.7207" y1="351.2969" y2="351.2969"/></g><!--class AuditLogPersistenceService--><g class="entity" data-qualified-name="NOTIP Management API.AuditLogModule.AuditLogPersistenceService" data-source-line="37" id="ent0024"><rect fill="#F1F1F1" height="44" rx="2.5" ry="2.5" style="stroke:#181818;stroke-width:0.5;" width="166.7744" x="1407.5" y="419.2969"/><ellipse cx="1420.5" cy="433.2969" fill="#ADD1B2" rx="9" ry="9" style="stroke:#181818;stroke-width:1;"/><path d="M1421.7813,436.5938 Q1421.4375,436.7656 1421.0625,436.8438 Q1420.6875,436.9375 1420.2656,436.9375 Q1418.7969,436.9375 1418.0156,435.9688 Q1417.25,435 1417.25,433.1563 Q1417.25,431.3125 1418.0156,430.3438 Q1418.7969,429.375 1420.2656,429.375 Q1420.6875,429.375 1421.0625,429.4688 Q1421.4531,429.5469 1421.7813,429.7188 L1421.7813,431.3281 Q1421.4063,430.9844 1421.0469,430.8281 Q1420.7031,430.6719 1420.3438,430.6719 Q1419.5469,430.6719 1419.1406,431.2969 Q1418.7344,431.9219 1418.7344,433.1563 Q1418.7344,434.3906 1419.1406,435.0156 Q1419.5469,435.6406 1420.3438,435.6406 Q1420.7031,435.6406 1421.0469,435.4844 Q1421.4063,435.3281 1421.7813,434.9844 L1421.7813,436.5938 Z " fill="#000000"/><text fill="#000000" font-family="sans-serif" font-size="10" lengthAdjust="spacing" textLength="138.7744" x="1432.5" y="436.7588">AuditLogPersistenceService</text><line style="stroke:#181818;stroke-width:0.5;" x1="1408.5" x2="1573.2744" y1="447.2969" y2="447.2969"/><line style="stroke:#181818;stroke-width:0.5;" x1="1408.5" x2="1573.2744" y1="455.2969" y2="455.2969"/></g><!--class ProvisioningAuditConsumer--><g class="entity" data-qualified-name="NOTIP Management API.AuditLogModule.ProvisioningAuditConsumer" data-source-line="38" id="ent0025"><rect fill="#F1F1F1" height="44" rx="2.5" ry="2.5" style="stroke:#181818;stroke-width:0.5;" width="166.0811" x="1408" y="211.2969"/><ellipse cx="1421" cy="225.2969" fill="#ADD1B2" rx="9" ry="9" style="stroke:#181818;stroke-width:1;"/><path d="M1422.2813,228.5938 Q1421.9375,228.7656 1421.5625,228.8438 Q1421.1875,228.9375 1420.7656,228.9375 Q1419.2969,228.9375 1418.5156,227.9688 Q1417.75,227 1417.75,225.1563 Q1417.75,223.3125 1418.5156,222.3438 Q1419.2969,221.375 1420.7656,221.375 Q1421.1875,221.375 1421.5625,221.4688 Q1421.9531,221.5469 1422.2813,221.7188 L1422.2813,223.3281 Q1421.9063,222.9844 1421.5469,222.8281 Q1421.2031,222.6719 1420.8438,222.6719 Q1420.0469,222.6719 1419.6406,223.2969 Q1419.2344,223.9219 1419.2344,225.1563 Q1419.2344,226.3906 1419.6406,227.0156 Q1420.0469,227.6406 1420.8438,227.6406 Q1421.2031,227.6406 1421.5469,227.4844 Q1421.9063,227.3281 1422.2813,226.9844 L1422.2813,228.5938 Z " fill="#000000"/><text fill="#000000" font-family="sans-serif" font-size="10" lengthAdjust="spacing" textLength="138.0811" x="1433" y="228.7588">ProvisioningAuditConsumer</text><line style="stroke:#181818;stroke-width:0.5;" x1="1409" x2="1573.0811" y1="239.2969" y2="239.2969"/><line style="stroke:#181818;stroke-width:0.5;" x1="1409" x2="1573.0811" y1="247.2969" y2="247.2969"/></g><!--class AuditLogEntity--><g class="entity" data-qualified-name="NOTIP Management API.AuditLogModule.AuditLogEntity" data-source-line="39" id="ent0026"><rect fill="#F1F1F1" height="44" rx="2.5" ry="2.5" style="stroke:#181818;stroke-width:0.5;" width="101.457" x="1424.5" y="523.2969"/><ellipse cx="1437.5" cy="537.2969" fill="#ADD1B2" rx="9" ry="9" style="stroke:#181818;stroke-width:1;"/><path d="M1438.7813,540.5938 Q1438.4375,540.7656 1438.0625,540.8438 Q1437.6875,540.9375 1437.2656,540.9375 Q1435.7969,540.9375 1435.0156,539.9688 Q1434.25,539 1434.25,537.1563 Q1434.25,535.3125 1435.0156,534.3438 Q1435.7969,533.375 1437.2656,533.375 Q1437.6875,533.375 1438.0625,533.4688 Q1438.4531,533.5469 1438.7813,533.7188 L1438.7813,535.3281 Q1438.4063,534.9844 1438.0469,534.8281 Q1437.7031,534.6719 1437.3438,534.6719 Q1436.5469,534.6719 1436.1406,535.2969 Q1435.7344,535.9219 1435.7344,537.1563 Q1435.7344,538.3906 1436.1406,539.0156 Q1436.5469,539.6406 1437.3438,539.6406 Q1437.7031,539.6406 1438.0469,539.4844 Q1438.4063,539.3281 1438.7813,538.9844 L1438.7813,540.5938 Z " fill="#000000"/><text fill="#000000" font-family="sans-serif" font-size="10" lengthAdjust="spacing" textLength="73.457" x="1449.5" y="540.7588">AuditLogEntity</text><line style="stroke:#181818;stroke-width:0.5;" x1="1425.5" x2="1524.957" y1="551.2969" y2="551.2969"/><line style="stroke:#181818;stroke-width:0.5;" x1="1425.5" x2="1524.957" y1="559.2969" y2="559.2969"/></g><g class="entity" data-qualified-name="GMN51" data-source-line="73" id="ent0052"><path d="M6,43.2969 L6,111.5 L204.0605,111.5 L204.0605,53.2969 L194.0605,43.2969 L6,43.2969" fill="#FEFFDD" style="stroke:#181818;stroke-width:0.5;"/><path d="M194.0605,43.2969 L194.0605,53.2969 L204.0605,53.2969 L194.0605,43.2969" fill="#FEFFDD" style="stroke:#181818;stroke-width:1;"/><text fill="#000000" font-family="sans-serif" font-size="10" lengthAdjust="spacing" textLength="177.0605" x="12" y="57.5791">Handles AES-256 key management</text><text fill="#000000" font-family="sans-serif" font-size="10" lengthAdjust="spacing" textLength="154.0234" x="12" y="69.2197">Factory key validation (bcrypt)</text><text fill="#000000" font-family="sans-serif" font-size="10" lengthAdjust="spacing" textLength="150.1367" x="12" y="80.8604">Provisioning with transactions</text><text fill="#000000" font-family="sans-serif" font-size="10" lengthAdjust="spacing" textLength="109.4678" x="12" y="92.501">Gateway key lifecycle</text><text fill="#000000" font-family="sans-serif" font-size="10" lengthAdjust="spacing" textLength="159.7266" x="12" y="104.1416">NATS integration for key events</text></g><g class="entity" data-qualified-name="GMN54" data-source-line="81" id="ent0055"><path d="M759,48.7969 L759,105.3594 L947.1631,105.3594 L947.1631,58.7969 L937.1631,48.7969 L759,48.7969" fill="#FEFFDD" style="stroke:#181818;stroke-width:0.5;"/><path d="M937.1631,48.7969 L937.1631,58.7969 L947.1631,58.7969 L937.1631,48.7969" fill="#FEFFDD" style="stroke:#181818;stroke-width:1;"/><text fill="#000000" font-family="sans-serif" font-size="10" lengthAdjust="spacing" textLength="167.1631" x="765" y="63.0791">CRUD operations on tenant users</text><text fill="#000000" font-family="sans-serif" font-size="10" lengthAdjust="spacing" textLength="118.2129" x="765" y="74.7197">Sync with Keycloak IAM</text><text fill="#000000" font-family="sans-serif" font-size="10" lengthAdjust="spacing" textLength="92.1631" x="765" y="86.3604">Role management</text><text fill="#000000" font-family="sans-serif" font-size="10" lengthAdjust="spacing" textLength="98.0225" x="765" y="98.001">Bulk delete support</text></g><g class="entity" data-qualified-name="GMN57" data-source-line="88" id="ent0058"><path d="M1008,54.7969 L1008,99.7188 L1194.1465,99.7188 L1194.1465,64.7969 L1184.1465,54.7969 L1008,54.7969" fill="#FEFFDD" style="stroke:#181818;stroke-width:0.5;"/><path d="M1184.1465,54.7969 L1184.1465,64.7969 L1194.1465,64.7969 L1184.1465,54.7969" fill="#FEFFDD" style="stroke:#181818;stroke-width:1;"/><text fill="#000000" font-family="sans-serif" font-size="10" lengthAdjust="spacing" textLength="136.9531" x="1014" y="69.0791">Manages sensor thresholds</text><text fill="#000000" font-family="sans-serif" font-size="10" lengthAdjust="spacing" textLength="165.1465" x="1014" y="80.7197">Default and per-sensor overrides</text><text fill="#000000" font-family="sans-serif" font-size="10" lengthAdjust="spacing" textLength="125.791" x="1014" y="92.3604">Used for alert generation</text></g><g class="entity" data-qualified-name="GMN60" data-source-line="94" id="ent0061"><path d="M1263.5,43.2969 L1263.5,111.5 L1482.1221,111.5 L1482.1221,53.2969 L1472.1221,43.2969 L1263.5,43.2969" fill="#FEFFDD" style="stroke:#181818;stroke-width:0.5;"/><path d="M1472.1221,43.2969 L1472.1221,53.2969 L1482.1221,53.2969 L1472.1221,43.2969" fill="#FEFFDD" style="stroke:#181818;stroke-width:1;"/><text fill="#000000" font-family="sans-serif" font-size="10" lengthAdjust="spacing" textLength="139.79" x="1269.5" y="57.5791">Audit logging for operations</text><text fill="#000000" font-family="sans-serif" font-size="10" lengthAdjust="spacing" textLength="142.2412" x="1269.5" y="69.2197">Provisioning audit consumer</text><text fill="#000000" font-family="sans-serif" font-size="10" lengthAdjust="spacing" textLength="197.6221" x="1269.5" y="80.8604">NATS consumer for provisioning events</text><text fill="#000000" font-family="sans-serif" font-size="10" lengthAdjust="spacing" textLength="97.7344" x="1269.5" y="92.501">Time-range queries</text><text fill="#000000" font-family="sans-serif" font-size="10" lengthAdjust="spacing" textLength="111.1426" x="1269.5" y="104.1416">Tenant-scoped access</text></g><!--link KeysController to KeysService--><g class="link" data-entity-1="ent0004" data-entity-2="ent0006" data-link-type="dependency" data-source-line="43" id="lnk27"><path codeLine="43" d="M437,255.3569 C437,272.9969 437,291.6369 437,309.2769" fill="none" id="KeysController-to-KeysService" style="stroke:#181818;stroke-width:1;"/><polygon fill="#181818" points="437,315.2769,441,306.2769,437,310.2769,433,306.2769,437,315.2769" style="stroke:#181818;stroke-width:1;"/></g><!--link ProvisioningController to KeysService--><g class="link" data-entity-1="ent0005" data-entity-2="ent0006" data-link-type="dependency" data-source-line="44" id="lnk28"><path codeLine="44" d="M374.75,255.3569 C374.75,272.9969 374.75,291.6369 374.75,309.2769" fill="none" id="ProvisioningController-to-KeysService" style="stroke:#181818;stroke-width:1;"/><polygon fill="#181818" points="374.75,315.2769,378.75,306.2769,374.75,310.2769,370.75,306.2769,374.75,315.2769" style="stroke:#181818;stroke-width:1;"/></g><!--link KeysService to KeysPersistenceService--><g class="link" data-entity-1="ent0006" data-entity-2="ent0008" data-link-type="dependency" data-source-line="45" id="lnk29"><path codeLine="45" d="M389.25,359.3569 C389.25,376.9969 389.25,395.6369 389.25,413.2769" fill="none" id="KeysService-to-KeysPersistenceService" style="stroke:#181818;stroke-width:1;"/><polygon fill="#181818" points="389.25,419.2769,393.25,410.2769,389.25,414.2769,385.25,410.2769,389.25,419.2769" style="stroke:#181818;stroke-width:1;"/></g><!--link KeysService to KeysNatsService--><g class="link" data-entity-1="ent0006" data-entity-2="ent0007" data-link-type="dependency" data-source-line="46" id="lnk30"><path codeLine="46" d="M356.42,337.2969 C303.55,337.2969 222.5,337.2969 222.5,337.2969 C222.5,337.2969 222.5,382.7169 222.5,413.2369" fill="none" id="KeysService-to-KeysNatsService" style="stroke:#181818;stroke-width:1;"/><polygon fill="#181818" points="222.5,419.2369,226.5,410.2369,222.5,414.2369,218.5,410.2369,222.5,419.2369" style="stroke:#181818;stroke-width:1;"/></g><!--link KeysService to ProvisioningNatsResponderService--><g class="link" data-entity-1="ent0006" data-entity-2="ent0009" data-link-type="dependency" data-source-line="47" id="lnk31"><path codeLine="47" d="M433.75,359.3569 C433.75,389.8769 433.75,441.2969 433.75,441.2969 C433.75,441.2969 437.17,441.2969 450.83,441.2969" fill="none" id="KeysService-to-ProvisioningNatsResponderService" style="stroke:#181818;stroke-width:1;"/><polygon fill="#181818" points="456.83,441.2969,447.83,437.2969,451.83,441.2969,447.83,445.2969,456.83,441.2969" style="stroke:#181818;stroke-width:1;"/></g><!--link KeysService to GatewaysService--><g class="link" data-entity-1="ent0006" data-entity-2="ent0032" data-link-type="dependency" data-source-line="48" id="lnk33"><path codeLine="48" d="M445.77,337.2969 C536.4,337.2969 733,337.2969 733,337.2969 C733,337.2969 733,382.7169 733,413.2369" fill="none" id="KeysService-to-GatewaysService" style="stroke:#181818;stroke-width:1;"/><polygon fill="#181818" points="733,419.2369,737,410.2369,733,414.2369,729,410.2369,733,419.2369" style="stroke:#181818;stroke-width:1;"/></g><!--link KeysPersistenceService to KeyEntity--><g class="link" data-entity-1="ent0008" data-entity-2="ent0010" data-link-type="dependency" data-source-line="49" id="lnk34"><path codeLine="49" d="M349,463.3569 C349,480.9969 349,499.6369 349,517.2769" fill="none" id="KeysPersistenceService-to-KeyEntity" style="stroke:#181818;stroke-width:1;"/><polygon fill="#181818" points="349,523.2769,353,514.2769,349,518.2769,345,514.2769,349,523.2769" style="stroke:#181818;stroke-width:1;"/></g><!--link KeyEntity to GatewayEntity--><g class="link" data-entity-1="ent0010" data-entity-2="ent0035" data-link-type="dependency" data-source-line="50" id="lnk36"><path codeLine="50" d="M349,567.3569 C349,584.9969 349,603.6369 349,621.2769" fill="none" id="KeyEntity-to-GatewayEntity" style="stroke:#181818;stroke-width:1;"/><polygon fill="#181818" points="349,627.2769,353,618.2769,349,622.2769,345,618.2769,349,627.2769" style="stroke:#181818;stroke-width:1;"/></g><!--link UsersController to UsersService--><g class="link" data-entity-1="ent0012" data-entity-2="ent0013" data-link-type="dependency" data-source-line="53" id="lnk37"><path codeLine="53" d="M953,255.3569 C953,272.9969 953,291.6369 953,309.2769" fill="none" id="UsersController-to-UsersService" style="stroke:#181818;stroke-width:1;"/><polygon fill="#181818" points="953,315.2769,957,306.2769,953,310.2769,949,306.2769,953,315.2769" style="stroke:#181818;stroke-width:1;"/></g><!--link UsersService to UsersPersistenceService--><g class="link" data-entity-1="ent0013" data-entity-2="ent0014" data-link-type="dependency" data-source-line="54" id="lnk38"><path codeLine="54" d="M953,359.3569 C953,376.9969 953,395.6369 953,413.2769" fill="none" id="UsersService-to-UsersPersistenceService" style="stroke:#181818;stroke-width:1;"/><polygon fill="#181818" points="953,419.2769,957,410.2769,953,414.2769,949,410.2769,953,419.2769" style="stroke:#181818;stroke-width:1;"/></g><!--link UsersPersistenceService to UserEntity--><g class="link" data-entity-1="ent0014" data-entity-2="ent0015" data-link-type="dependency" data-source-line="55" id="lnk39"><path codeLine="55" d="M971,463.3569 C971,480.9969 971,499.6369 971,517.2769" fill="none" id="UsersPersistenceService-to-UserEntity" style="stroke:#181818;stroke-width:1;"/><polygon fill="#181818" points="971,523.2769,975,514.2769,971,518.2769,967,514.2769,971,523.2769" style="stroke:#181818;stroke-width:1;"/></g><!--link UserEntity to TenantEntity--><g class="link" data-entity-1="ent0015" data-entity-2="ent0040" data-link-type="dependency" data-source-line="56" id="lnk41"><path codeLine="56" d="M971,567.3569 C971,597.8769 971,649.2969 971,649.2969 C971,649.2969 1090.7,649.2969 1160.91,649.2969" fill="none" id="UserEntity-to-TenantEntity" style="stroke:#181818;stroke-width:1;"/><polygon fill="#181818" points="1166.91,649.2969,1157.91,645.2969,1161.91,649.2969,1157.91,653.2969,1166.91,649.2969" style="stroke:#181818;stroke-width:1;"/></g><!--link ThresholdsController to ThresholdsService--><g class="link" data-entity-1="ent0017" data-entity-2="ent0018" data-link-type="dependency" data-source-line="59" id="lnk42"><path codeLine="59" d="M1213,255.3569 C1213,272.9969 1213,291.6369 1213,309.2769" fill="none" id="ThresholdsController-to-ThresholdsService" style="stroke:#181818;stroke-width:1;"/><polygon fill="#181818" points="1213,315.2769,1217,306.2769,1213,310.2769,1209,306.2769,1213,315.2769" style="stroke:#181818;stroke-width:1;"/></g><!--link ThresholdsService to ThresholdsPersistenceService--><g class="link" data-entity-1="ent0018" data-entity-2="ent0019" data-link-type="dependency" data-source-line="60" id="lnk43"><path codeLine="60" d="M1213,359.3569 C1213,376.9969 1213,395.6369 1213,413.2769" fill="none" id="ThresholdsService-to-ThresholdsPersistenceService" style="stroke:#181818;stroke-width:1;"/><polygon fill="#181818" points="1213,419.2769,1217,410.2769,1213,414.2769,1209,410.2769,1213,419.2769" style="stroke:#181818;stroke-width:1;"/></g><!--link ThresholdsPersistenceService to ThresholdEntity--><g class="link" data-entity-1="ent0019" data-entity-2="ent0020" data-link-type="dependency" data-source-line="61" id="lnk44"><path codeLine="61" d="M1213,463.3569 C1213,480.9969 1213,499.6369 1213,517.2769" fill="none" id="ThresholdsPersistenceService-to-ThresholdEntity" style="stroke:#181818;stroke-width:1;"/><polygon fill="#181818" points="1213,523.2769,1217,514.2769,1213,518.2769,1209,514.2769,1213,523.2769" style="stroke:#181818;stroke-width:1;"/></g><!--link ThresholdEntity to TenantEntity--><g class="link" data-entity-1="ent0020" data-entity-2="ent0040" data-link-type="dependency" data-source-line="62" id="lnk45"><path codeLine="62" d="M1213,567.3569 C1213,584.9969 1213,603.6369 1213,621.2769" fill="none" id="ThresholdEntity-to-TenantEntity" style="stroke:#181818;stroke-width:1;"/><polygon fill="#181818" points="1213,627.2769,1217,618.2769,1213,622.2769,1209,618.2769,1213,627.2769" style="stroke:#181818;stroke-width:1;"/></g><!--link AuditLogController to AuditLogService--><g class="link" data-entity-1="ent0022" data-entity-2="ent0023" data-link-type="dependency" data-source-line="65" id="lnk46"><path codeLine="65" d="M1670,255.3569 C1670,285.8769 1670,337.2969 1670,337.2969 C1670,337.2969 1604.32,337.2969 1551.68,337.2969" fill="none" id="AuditLogController-to-AuditLogService" style="stroke:#181818;stroke-width:1;"/><polygon fill="#181818" points="1545.68,337.2969,1554.68,341.2969,1550.68,337.2969,1554.68,333.2969,1545.68,337.2969" style="stroke:#181818;stroke-width:1;"/></g><!--link AuditLogService to AuditLogPersistenceService--><g class="link" data-entity-1="ent0023" data-entity-2="ent0024" data-link-type="dependency" data-source-line="66" id="lnk47"><path codeLine="66" d="M1491,359.3569 C1491,376.9969 1491,395.6369 1491,413.2769" fill="none" id="AuditLogService-to-AuditLogPersistenceService" style="stroke:#181818;stroke-width:1;"/><polygon fill="#181818" points="1491,419.2769,1495,410.2769,1491,414.2769,1487,410.2769,1491,419.2769" style="stroke:#181818;stroke-width:1;"/></g><!--link AuditLogPersistenceService to AuditLogEntity--><g class="link" data-entity-1="ent0024" data-entity-2="ent0026" data-link-type="dependency" data-source-line="67" id="lnk48"><path codeLine="67" d="M1475,463.3569 C1475,480.9969 1475,499.6369 1475,517.2769" fill="none" id="AuditLogPersistenceService-to-AuditLogEntity" style="stroke:#181818;stroke-width:1;"/><polygon fill="#181818" points="1475,523.2769,1479,514.2769,1475,518.2769,1471,514.2769,1475,523.2769" style="stroke:#181818;stroke-width:1;"/></g><!--link AuditLogEntity to TenantEntity--><g class="link" data-entity-1="ent0026" data-entity-2="ent0040" data-link-type="dependency" data-source-line="68" id="lnk49"><path codeLine="68" d="M1475,567.3569 C1475,597.8769 1475,649.2969 1475,649.2969 C1475,649.2969 1340.45,649.2969 1265.24,649.2969" fill="none" id="AuditLogEntity-to-TenantEntity" style="stroke:#181818;stroke-width:1;"/><polygon fill="#181818" points="1259.24,649.2969,1268.24,653.2969,1264.24,649.2969,1268.24,645.2969,1259.24,649.2969" style="stroke:#181818;stroke-width:1;"/></g><!--link ProvisioningAuditConsumer to AuditLogService--><g class="link" data-entity-1="ent0025" data-entity-2="ent0023" data-link-type="dependency" data-source-line="69" id="lnk50"><path codeLine="69" d="M1491,255.3569 C1491,272.9969 1491,291.6369 1491,309.2769" fill="none" id="ProvisioningAuditConsumer-to-AuditLogService" style="stroke:#181818;stroke-width:1;"/><polygon fill="#181818" points="1491,315.2769,1495,306.2769,1491,310.2769,1487,306.2769,1491,315.2769" style="stroke:#181818;stroke-width:1;"/></g><!--link GMN51 to KeysModule--><g class="link" data-entity-1="ent0052" data-entity-2="ent0003" data-link-type="association" data-source-line="73" id="lnk53"><path d="M105,111.5269 C105,122.4694 105,135.1113 105,148.0213 C105,154.4763 105,160.9983 105,167.4084 C105,169.011 105,170.6065 105,172.1923 C105,172.3905 105,172.5886 105,172.7865" fill="none" id="GMN51-KeysModule" style="stroke:#181818;stroke-width:1;stroke-dasharray:7,7;"/></g><!--link GMN54 to UsersModule--><g class="link" data-entity-1="ent0055" data-entity-2="ent0011" data-link-type="association" data-source-line="81" id="lnk56"><path d="M853,105.9069 C853,116.6394 853,129.49 853,142.84 C853,149.515 853,156.3148 853,163.0372 C853,166.3984 853,169.7402 853,173.0373" fill="none" id="GMN54-UsersModule" style="stroke:#181818;stroke-width:1;stroke-dasharray:7,7;"/></g><!--link GMN57 to ThresholdsModule--><g class="link" data-entity-1="ent0058" data-entity-2="ent0016" data-link-type="association" data-source-line="88" id="lnk59"><path d="M1101,99.9769 C1101,110.2869 1101,123.2531 1101,137.0244 C1101,143.91 1101,150.9969 1101,158.0536 C1101,161.582 1101,165.1028 1101,168.5871 C1101,169.4582 1101,170.327 1101,171.1931 C1101,171.6261 1101,172.0585 1101,172.4901 C1101,172.7059 1101,172.9216 1101,173.137" fill="none" id="GMN57-ThresholdsModule" style="stroke:#181818;stroke-width:1;stroke-dasharray:7,7;"/></g><!--link GMN60 to AuditLogModule--><g class="link" data-entity-1="ent0061" data-entity-2="ent0021" data-link-type="association" data-source-line="94" id="lnk62"><path d="M1373,111.5269 C1373,122.4694 1373,135.1113 1373,148.0213 C1373,154.4763 1373,160.9983 1373,167.4084 C1373,169.011 1373,170.6065 1373,172.1923 C1373,172.3905 1373,172.5886 1373,172.7865" fill="none" id="GMN60-AuditLogModule" style="stroke:#181818;stroke-width:1;stroke-dasharray:7,7;"/></g><?plantuml-src ZLPDSzCm4BtdL-oK0-t1Gw43fqvdGZ-W0osP9Fq1ghrnD54a8ydf68R_pbfsR5cM2pb5-zwktpvPQrbk1SBZZ_Nz0XwOP3dkKLgOB-uXWRbEjznYQakDS7hnxk9iDZCxBWkcsHwUMRhBjIfbTgs4ql3cplqyHeORLWfxfwHTyLy8xy_ZO9j_xduUHN29jYeGbBPRvG45FPgahcn5uZK9P38NE9krSJY9DNG2bvVB8_Vg2dxF0Bg4RrWPU51PAV04c85wtImT3o0Lp9Y6TqsIjH82TKVjGpvveTM16wuabtcG58V29wrG7tZQAshN8UsHsH7LYuNq1Mh3ZKMPOfWrXgRwgUilqHHAPgZzClyY1MfkfUMsEWfeLaJvC_DtvycGBdzxN22sFmu8l0vY8xgltW-CY1F6JM1XkjTflnorkjvgD5ibia6_VJJMT8y6dSU0UABVpoWQJvbmupL2j93dIn0RcJClCswJxohtlN51YiMSEMA1B-DmBCdlAeZ5w1D-JCDJHyjba3HJxYFJOe36T7X-3aD7Ez-weqvpKp1BDSsM5uR2mpa6IN8Lp9pup8eGlLM7HjkF4OU3AsJyntG9KxumYoyir3VMSrJGcTNzzykqgBEn6KkXZy6uSSd1MF6NFHwrQ0BfiZgr_S9XQvHCMb-jDrb2oR4vqLI9Z89HB616stWD7kPt3GMHYQxwaH0sDJxahiJu90UH0IlQp3GuoEqw6GR6ZS3q0OzAfbCibKMmgW2ryUugLEahavb0Elgtg-J3nq-mmmhstJs827SijKfN3ZWmmJDd6fm-fxegx5aW1bwutOBLJ1hAgzqbGdiKN0d1DvXMgNlsutoz0Yujvhefkg5hNKt20ptRp51cK0iVolU-vLJZUlbq0wh0fe81gcATLr3MF6AiAfasigZnL2YsW_lv0m5BHUD_qEldKkpeeYcGdcRAeg1xv8I8y0DBoStjqO11QQWFsp48ksakhq1c0sbDMeuweDOymtOCPCu0Hc-UXHnbszE4Wk5dxFZMW51vNkz3NQct9TmbvhXf_rLmMt5Sk-J2vxSRGeUCxp6XtQMlwyyIDNVIcvSpCIazC0EMfcYypViB?></g></svg>