<?plantuml 1.2026.2?><svg xmlns="http://www.w3.org/2000/svg" xmlns:xlink="http://www.w3.org/1999/xlink" contentStyleType="text/css" data-diagram-type="CLASS" height="945px" preserveAspectRatio="none" style="width:2769px;height:945px;background:#FFFFFF;" version="1.1" viewBox="0 0 2769 945" width="2769px" zoomAndPan="magnify"><title>NOTIP Management API - Architecture (2/3)</title><defs/><g><g class="title" data-source-line="1"><text fill="#000000" font-family="sans-serif" font-size="14" font-weight="bold" lengthAdjust="spacing" textLength="343.916" x="1205.6089" y="22.9951">NOTIP Management API - Architecture (2/3)</text></g><!--cluster NOTIP Management API--><g class="cluster" data-qualified-name="NOTIP Management API" data-source-line="9" id="ent0002"><rect fill="none" height="835" rx="2.5" ry="2.5" style="stroke:#181818;stroke-width:1;" width="2079" x="215.5" y="104.2969"/><text fill="#000000" font-family="sans-serif" font-size="10" font-weight="bold" lengthAdjust="spacing" textLength="134.1016" x="1187.9492" y="115.5791">NOTIP Management API</text></g><!--cluster GatewaysModule--><g class="cluster" data-qualified-name="NOTIP Management API.GatewaysModule" data-source-line="10" id="ent0003"><rect fill="none" height="522" rx="2.5" ry="2.5" style="stroke:#000000;stroke-width:1.5;" width="619" x="247.5" y="385.2969"/><text fill="#000000" font-family="sans-serif" font-size="10" font-weight="bold" lengthAdjust="spacing" textLength="99.7656" x="507.1172" y="396.5791">Gateways Module</text></g><!--cluster AlertsModule--><g class="cluster" data-qualified-name="NOTIP Management API.AlertsModule" data-source-line="20" id="ent0011"><rect fill="none" height="426.5" rx="2.5" ry="2.5" style="stroke:#000000;stroke-width:1.5;" width="406" x="1856.5" y="272.7969"/><text fill="#000000" font-family="sans-serif" font-size="10" font-weight="bold" lengthAdjust="spacing" textLength="78.4033" x="2020.2983" y="284.0791">Alerts Module</text></g><!--cluster CommandModule--><g class="cluster" data-qualified-name="NOTIP Management API.CommandModule" data-source-line="30" id="ent0019"><rect fill="none" height="426.5" rx="2.5" ry="2.5" style="stroke:#000000;stroke-width:1.5;" width="664" x="906.5" y="272.7969"/><text fill="#000000" font-family="sans-serif" font-size="10" font-weight="bold" lengthAdjust="spacing" textLength="100.8643" x="1188.0679" y="284.0791">Command Module</text></g><!--cluster CostsModule--><g class="cluster" data-qualified-name="NOTIP Management API.CostsModule" data-source-line="39" id="ent0026"><rect fill="none" height="341" rx="2.5" ry="2.5" style="stroke:#000000;stroke-width:1.5;" width="206" x="1610.5" y="150.2969"/><text fill="#000000" font-family="sans-serif" font-size="10" font-weight="bold" lengthAdjust="spacing" textLength="75.6836" x="1675.6582" y="161.5791">Costs Module</text></g><!--class TenantEntity--><g class="entity" data-qualified-name="NOTIP Management API.TenantEntity" data-source-line="50" id="ent0034"><rect fill="#F1F1F1" height="44" rx="2.5" ry="2.5" style="stroke:#181818;stroke-width:0.5;" width="92.1797" x="1186.5" y="735.2969"/><ellipse cx="1199.5" cy="749.2969" fill="#ADD1B2" rx="9" ry="9" style="stroke:#181818;stroke-width:1;"/><path d="M1200.7813,752.5938 Q1200.4375,752.7656 1200.0625,752.8438 Q1199.6875,752.9375 1199.2656,752.9375 Q1197.7969,752.9375 1197.0156,751.9688 Q1196.25,751 1196.25,749.1563 Q1196.25,747.3125 1197.0156,746.3438 Q1197.7969,745.375 1199.2656,745.375 Q1199.6875,745.375 1200.0625,745.4688 Q1200.4531,745.5469 1200.7813,745.7188 L1200.7813,747.3281 Q1200.4063,746.9844 1200.0469,746.8281 Q1199.7031,746.6719 1199.3438,746.6719 Q1198.5469,746.6719 1198.1406,747.2969 Q1197.7344,747.9219 1197.7344,749.1563 Q1197.7344,750.3906 1198.1406,751.0156 Q1198.5469,751.6406 1199.3438,751.6406 Q1199.7031,751.6406 1200.0469,751.4844 Q1200.4063,751.3281 1200.7813,750.9844 L1200.7813,752.5938 Z " fill="#000000"/><text fill="#000000" font-family="sans-serif" font-size="10" lengthAdjust="spacing" textLength="64.1797" x="1211.5" y="752.7588">TenantEntity</text><line style="stroke:#181818;stroke-width:0.5;" x1="1187.5" x2="1277.6797" y1="763.2969" y2="763.2969"/><line style="stroke:#181818;stroke-width:0.5;" x1="1187.5" x2="1277.6797" y1="771.2969" y2="771.2969"/></g><!--class GatewaysController--><g class="entity" data-qualified-name="NOTIP Management API.GatewaysModule.GatewaysController" data-source-line="11" id="ent0004"><rect fill="#F1F1F1" height="44" rx="2.5" ry="2.5" style="stroke:#181818;stroke-width:0.5;" width="126.7939" x="715" y="423.2969"/><ellipse cx="728" cy="437.2969" fill="#ADD1B2" rx="9" ry="9" style="stroke:#181818;stroke-width:1;"/><path d="M729.2813,440.5938 Q728.9375,440.7656 728.5625,440.8438 Q728.1875,440.9375 727.7656,440.9375 Q726.2969,440.9375 725.5156,439.9688 Q724.75,439 724.75,437.1563 Q724.75,435.3125 725.5156,434.3438 Q726.2969,433.375 727.7656,433.375 Q728.1875,433.375 728.5625,433.4688 Q728.9531,433.5469 729.2813,433.7188 L729.2813,435.3281 Q728.9063,434.9844 728.5469,434.8281 Q728.2031,434.6719 727.8438,434.6719 Q727.0469,434.6719 726.6406,435.2969 Q726.2344,435.9219 726.2344,437.1563 Q726.2344,438.3906 726.6406,439.0156 Q727.0469,439.6406 727.8438,439.6406 Q728.2031,439.6406 728.5469,439.4844 Q728.9063,439.3281 729.2813,438.9844 L729.2813,440.5938 Z " fill="#000000"/><text fill="#000000" font-family="sans-serif" font-size="10" lengthAdjust="spacing" textLength="98.7939" x="740" y="440.7588">GatewaysController</text><line style="stroke:#181818;stroke-width:0.5;" x1="716" x2="840.7939" y1="451.2969" y2="451.2969"/><line style="stroke:#181818;stroke-width:0.5;" x1="716" x2="840.7939" y1="459.2969" y2="459.2969"/></g><!--class GatewaysService--><g class="entity" data-qualified-name="NOTIP Management API.GatewaysModule.GatewaysService" data-source-line="12" id="ent0005"><rect fill="#F1F1F1" height="44" rx="2.5" ry="2.5" style="stroke:#181818;stroke-width:0.5;" width="114.3428" x="710.5" y="527.2969"/><ellipse cx="723.5" cy="541.2969" fill="#ADD1B2" rx="9" ry="9" style="stroke:#181818;stroke-width:1;"/><path d="M724.7813,544.5938 Q724.4375,544.7656 724.0625,544.8438 Q723.6875,544.9375 723.2656,544.9375 Q721.7969,544.9375 721.0156,543.9688 Q720.25,543 720.25,541.1563 Q720.25,539.3125 721.0156,538.3438 Q721.7969,537.375 723.2656,537.375 Q723.6875,537.375 724.0625,537.4688 Q724.4531,537.5469 724.7813,537.7188 L724.7813,539.3281 Q724.4063,538.9844 724.0469,538.8281 Q723.7031,538.6719 723.3438,538.6719 Q722.5469,538.6719 722.1406,539.2969 Q721.7344,539.9219 721.7344,541.1563 Q721.7344,542.3906 722.1406,543.0156 Q722.5469,543.6406 723.3438,543.6406 Q723.7031,543.6406 724.0469,543.4844 Q724.4063,543.3281 724.7813,542.9844 L724.7813,544.5938 Z " fill="#000000"/><text fill="#000000" font-family="sans-serif" font-size="10" lengthAdjust="spacing" textLength="86.3428" x="735.5" y="544.7588">GatewaysService</text><line style="stroke:#181818;stroke-width:0.5;" x1="711.5" x2="823.8428" y1="555.2969" y2="555.2969"/><line style="stroke:#181818;stroke-width:0.5;" x1="711.5" x2="823.8428" y1="563.2969" y2="563.2969"/></g><!--class GatewaysPersistenceService--><g class="entity" data-qualified-name="NOTIP Management API.GatewaysModule.GatewaysPersistenceService" data-source-line="13" id="ent0006"><rect fill="#F1F1F1" height="44" rx="2.5" ry="2.5" style="stroke:#181818;stroke-width:0.5;" width="171.8965" x="670.5" y="631.2969"/><ellipse cx="683.5" cy="645.2969" fill="#ADD1B2" rx="9" ry="9" style="stroke:#181818;stroke-width:1;"/><path d="M684.7813,648.5938 Q684.4375,648.7656 684.0625,648.8438 Q683.6875,648.9375 683.2656,648.9375 Q681.7969,648.9375 681.0156,647.9688 Q680.25,647 680.25,645.1563 Q680.25,643.3125 681.0156,642.3438 Q681.7969,641.375 683.2656,641.375 Q683.6875,641.375 684.0625,641.4688 Q684.4531,641.5469 684.7813,641.7188 L684.7813,643.3281 Q684.4063,642.9844 684.0469,642.8281 Q683.7031,642.6719 683.3438,642.6719 Q682.5469,642.6719 682.1406,643.2969 Q681.7344,643.9219 681.7344,645.1563 Q681.7344,646.3906 682.1406,647.0156 Q682.5469,647.6406 683.3438,647.6406 Q683.7031,647.6406 684.0469,647.4844 Q684.4063,647.3281 684.7813,646.9844 L684.7813,648.5938 Z " fill="#000000"/><text fill="#000000" font-family="sans-serif" font-size="10" lengthAdjust="spacing" textLength="143.8965" x="695.5" y="648.7588">GatewaysPersistenceService</text><line style="stroke:#181818;stroke-width:0.5;" x1="671.5" x2="841.3965" y1="659.2969" y2="659.2969"/><line style="stroke:#181818;stroke-width:0.5;" x1="671.5" x2="841.3965" y1="667.2969" y2="667.2969"/></g><!--class GatewaysNatsService--><g class="entity" data-qualified-name="NOTIP Management API.GatewaysModule.GatewaysNatsService" data-source-line="14" id="ent0007"><rect fill="#F1F1F1" height="44" rx="2.5" ry="2.5" style="stroke:#181818;stroke-width:0.5;" width="137.082" x="543" y="423.2969"/><ellipse cx="556" cy="437.2969" fill="#ADD1B2" rx="9" ry="9" style="stroke:#181818;stroke-width:1;"/><path d="M557.2813,440.5938 Q556.9375,440.7656 556.5625,440.8438 Q556.1875,440.9375 555.7656,440.9375 Q554.2969,440.9375 553.5156,439.9688 Q552.75,439 552.75,437.1563 Q552.75,435.3125 553.5156,434.3438 Q554.2969,433.375 555.7656,433.375 Q556.1875,433.375 556.5625,433.4688 Q556.9531,433.5469 557.2813,433.7188 L557.2813,435.3281 Q556.9063,434.9844 556.5469,434.8281 Q556.2031,434.6719 555.8438,434.6719 Q555.0469,434.6719 554.6406,435.2969 Q554.2344,435.9219 554.2344,437.1563 Q554.2344,438.3906 554.6406,439.0156 Q555.0469,439.6406 555.8438,439.6406 Q556.2031,439.6406 556.5469,439.4844 Q556.9063,439.3281 557.2813,438.9844 L557.2813,440.5938 Z " fill="#000000"/><text fill="#000000" font-family="sans-serif" font-size="10" lengthAdjust="spacing" textLength="109.082" x="568" y="440.7588">GatewaysNatsService</text><line style="stroke:#181818;stroke-width:0.5;" x1="544" x2="679.082" y1="451.2969" y2="451.2969"/><line style="stroke:#181818;stroke-width:0.5;" x1="544" x2="679.082" y1="459.2969" y2="459.2969"/></g><!--class GatewayStatusNatsResponderService--><g class="entity" data-qualified-name="NOTIP Management API.GatewaysModule.GatewayStatusNatsResponderService" data-source-line="15" id="ent0008"><rect fill="#F1F1F1" height="44" rx="2.5" ry="2.5" style="stroke:#181818;stroke-width:0.5;" width="217.4629" x="291" y="423.2969"/><ellipse cx="304" cy="437.2969" fill="#ADD1B2" rx="9" ry="9" style="stroke:#181818;stroke-width:1;"/><path d="M305.2813,440.5938 Q304.9375,440.7656 304.5625,440.8438 Q304.1875,440.9375 303.7656,440.9375 Q302.2969,440.9375 301.5156,439.9688 Q300.75,439 300.75,437.1563 Q300.75,435.3125 301.5156,434.3438 Q302.2969,433.375 303.7656,433.375 Q304.1875,433.375 304.5625,433.4688 Q304.9531,433.5469 305.2813,433.7188 L305.2813,435.3281 Q304.9063,434.9844 304.5469,434.8281 Q304.2031,434.6719 303.8438,434.6719 Q303.0469,434.6719 302.6406,435.2969 Q302.2344,435.9219 302.2344,437.1563 Q302.2344,438.3906 302.6406,439.0156 Q303.0469,439.6406 303.8438,439.6406 Q304.2031,439.6406 304.5469,439.4844 Q304.9063,439.3281 305.2813,438.9844 L305.2813,440.5938 Z " fill="#000000"/><text fill="#000000" font-family="sans-serif" font-size="10" lengthAdjust="spacing" textLength="189.4629" x="316" y="440.7588">GatewayStatusNatsResponderService</text><line style="stroke:#181818;stroke-width:0.5;" x1="292" x2="507.4629" y1="451.2969" y2="451.2969"/><line style="stroke:#181818;stroke-width:0.5;" x1="292" x2="507.4629" y1="459.2969" y2="459.2969"/></g><!--class GatewayEntity--><g class="entity" data-qualified-name="NOTIP Management API.GatewaysModule.GatewayEntity" data-source-line="16" id="ent0009"><rect fill="#F1F1F1" height="44" rx="2.5" ry="2.5" style="stroke:#181818;stroke-width:0.5;" width="101.3691" x="741" y="735.2969"/><ellipse cx="754" cy="749.2969" fill="#ADD1B2" rx="9" ry="9" style="stroke:#181818;stroke-width:1;"/><path d="M755.2813,752.5938 Q754.9375,752.7656 754.5625,752.8438 Q754.1875,752.9375 753.7656,752.9375 Q752.2969,752.9375 751.5156,751.9688 Q750.75,751 750.75,749.1563 Q750.75,747.3125 751.5156,746.3438 Q752.2969,745.375 753.7656,745.375 Q754.1875,745.375 754.5625,745.4688 Q754.9531,745.5469 755.2813,745.7188 L755.2813,747.3281 Q754.9063,746.9844 754.5469,746.8281 Q754.2031,746.6719 753.8438,746.6719 Q753.0469,746.6719 752.6406,747.2969 Q752.2344,747.9219 752.2344,749.1563 Q752.2344,750.3906 752.6406,751.0156 Q753.0469,751.6406 753.8438,751.6406 Q754.2031,751.6406 754.5469,751.4844 Q754.9063,751.3281 755.2813,750.9844 L755.2813,752.5938 Z " fill="#000000"/><text fill="#000000" font-family="sans-serif" font-size="10" lengthAdjust="spacing" textLength="73.3691" x="766" y="752.7588">GatewayEntity</text><line style="stroke:#181818;stroke-width:0.5;" x1="742" x2="841.3691" y1="763.2969" y2="763.2969"/><line style="stroke:#181818;stroke-width:0.5;" x1="742" x2="841.3691" y1="771.2969" y2="771.2969"/></g><!--class GatewayMetadataEntity--><g class="entity" data-qualified-name="NOTIP Management API.GatewaysModule.GatewayMetadataEntity" data-source-line="17" id="ent0010"><rect fill="#F1F1F1" height="44" rx="2.5" ry="2.5" style="stroke:#181818;stroke-width:0.5;" width="148.7227" x="694" y="839.2969"/><ellipse cx="707" cy="853.2969" fill="#ADD1B2" rx="9" ry="9" style="stroke:#181818;stroke-width:1;"/><path d="M708.2813,856.5938 Q707.9375,856.7656 707.5625,856.8438 Q707.1875,856.9375 706.7656,856.9375 Q705.2969,856.9375 704.5156,855.9688 Q703.75,855 703.75,853.1563 Q703.75,851.3125 704.5156,850.3438 Q705.2969,849.375 706.7656,849.375 Q707.1875,849.375 707.5625,849.4688 Q707.9531,849.5469 708.2813,849.7188 L708.2813,851.3281 Q707.9063,850.9844 707.5469,850.8281 Q707.2031,850.6719 706.8438,850.6719 Q706.0469,850.6719 705.6406,851.2969 Q705.2344,851.9219 705.2344,853.1563 Q705.2344,854.3906 705.6406,855.0156 Q706.0469,855.6406 706.8438,855.6406 Q707.2031,855.6406 707.5469,855.4844 Q707.9063,855.3281 708.2813,854.9844 L708.2813,856.5938 Z " fill="#000000"/><text fill="#000000" font-family="sans-serif" font-size="10" lengthAdjust="spacing" textLength="120.7227" x="719" y="856.7588">GatewayMetadataEntity</text><line style="stroke:#181818;stroke-width:0.5;" x1="695" x2="841.7227" y1="867.2969" y2="867.2969"/><line style="stroke:#181818;stroke-width:0.5;" x1="695" x2="841.7227" y1="875.2969" y2="875.2969"/></g><!--class AlertsController--><g class="entity" data-qualified-name="NOTIP Management API.AlertsModule.AlertsController" data-source-line="21" id="ent0012"><rect fill="#F1F1F1" height="44" rx="2.5" ry="2.5" style="stroke:#181818;stroke-width:0.5;" width="106.4229" x="2132.5" y="310.7969"/><ellipse cx="2145.5" cy="324.7969" fill="#ADD1B2" rx="9" ry="9" style="stroke:#181818;stroke-width:1;"/><path d="M2146.7813,328.0938 Q2146.4375,328.2656 2146.0625,328.3438 Q2145.6875,328.4375 2145.2656,328.4375 Q2143.7969,328.4375 2143.0156,327.4688 Q2142.25,326.5 2142.25,324.6563 Q2142.25,322.8125 2143.0156,321.8438 Q2143.7969,320.875 2145.2656,320.875 Q2145.6875,320.875 2146.0625,320.9688 Q2146.4531,321.0469 2146.7813,321.2188 L2146.7813,322.8281 Q2146.4063,322.4844 2146.0469,322.3281 Q2145.7031,322.1719 2145.3438,322.1719 Q2144.5469,322.1719 2144.1406,322.7969 Q2143.7344,323.4219 2143.7344,324.6563 Q2143.7344,325.8906 2144.1406,326.5156 Q2144.5469,327.1406 2145.3438,327.1406 Q2145.7031,327.1406 2146.0469,326.9844 Q2146.4063,326.8281 2146.7813,326.4844 L2146.7813,328.0938 Z " fill="#000000"/><text fill="#000000" font-family="sans-serif" font-size="10" lengthAdjust="spacing" textLength="78.4229" x="2157.5" y="328.2588">AlertsController</text><line style="stroke:#181818;stroke-width:0.5;" x1="2133.5" x2="2237.9229" y1="338.7969" y2="338.7969"/><line style="stroke:#181818;stroke-width:0.5;" x1="2133.5" x2="2237.9229" y1="346.7969" y2="346.7969"/></g><!--class AlertsService--><g class="entity" data-qualified-name="NOTIP Management API.AlertsModule.AlertsService" data-source-line="22" id="ent0013"><rect fill="#F1F1F1" height="44" rx="2.5" ry="2.5" style="stroke:#181818;stroke-width:0.5;" width="93.9717" x="2123.5" y="423.2969"/><ellipse cx="2136.5" cy="437.2969" fill="#ADD1B2" rx="9" ry="9" style="stroke:#181818;stroke-width:1;"/><path d="M2137.7813,440.5938 Q2137.4375,440.7656 2137.0625,440.8438 Q2136.6875,440.9375 2136.2656,440.9375 Q2134.7969,440.9375 2134.0156,439.9688 Q2133.25,439 2133.25,437.1563 Q2133.25,435.3125 2134.0156,434.3438 Q2134.7969,433.375 2136.2656,433.375 Q2136.6875,433.375 2137.0625,433.4688 Q2137.4531,433.5469 2137.7813,433.7188 L2137.7813,435.3281 Q2137.4063,434.9844 2137.0469,434.8281 Q2136.7031,434.6719 2136.3438,434.6719 Q2135.5469,434.6719 2135.1406,435.2969 Q2134.7344,435.9219 2134.7344,437.1563 Q2134.7344,438.3906 2135.1406,439.0156 Q2135.5469,439.6406 2136.3438,439.6406 Q2136.7031,439.6406 2137.0469,439.4844 Q2137.4063,439.3281 2137.7813,438.9844 L2137.7813,440.5938 Z " fill="#000000"/><text fill="#000000" font-family="sans-serif" font-size="10" lengthAdjust="spacing" textLength="65.9717" x="2148.5" y="440.7588">AlertsService</text><line style="stroke:#181818;stroke-width:0.5;" x1="2124.5" x2="2216.4717" y1="451.2969" y2="451.2969"/><line style="stroke:#181818;stroke-width:0.5;" x1="2124.5" x2="2216.4717" y1="459.2969" y2="459.2969"/></g><!--class AlertsPersistenceService--><g class="entity" data-qualified-name="NOTIP Management API.AlertsModule.AlertsPersistenceService" data-source-line="23" id="ent0014"><rect fill="#F1F1F1" height="44" rx="2.5" ry="2.5" style="stroke:#181818;stroke-width:0.5;" width="151.5254" x="1916.5" y="527.2969"/><ellipse cx="1929.5" cy="541.2969" fill="#ADD1B2" rx="9" ry="9" style="stroke:#181818;stroke-width:1;"/><path d="M1930.7813,544.5938 Q1930.4375,544.7656 1930.0625,544.8438 Q1929.6875,544.9375 1929.2656,544.9375 Q1927.7969,544.9375 1927.0156,543.9688 Q1926.25,543 1926.25,541.1563 Q1926.25,539.3125 1927.0156,538.3438 Q1927.7969,537.375 1929.2656,537.375 Q1929.6875,537.375 1930.0625,537.4688 Q1930.4531,537.5469 1930.7813,537.7188 L1930.7813,539.3281 Q1930.4063,538.9844 1930.0469,538.8281 Q1929.7031,538.6719 1929.3438,538.6719 Q1928.5469,538.6719 1928.1406,539.2969 Q1927.7344,539.9219 1927.7344,541.1563 Q1927.7344,542.3906 1928.1406,543.0156 Q1928.5469,543.6406 1929.3438,543.6406 Q1929.7031,543.6406 1930.0469,543.4844 Q1930.4063,543.3281 1930.7813,542.9844 L1930.7813,544.5938 Z " fill="#000000"/><text fill="#000000" font-family="sans-serif" font-size="10" lengthAdjust="spacing" textLength="123.5254" x="1941.5" y="544.7588">AlertsPersistenceService</text><line style="stroke:#181818;stroke-width:0.5;" x1="1917.5" x2="2067.0254" y1="555.2969" y2="555.2969"/><line style="stroke:#181818;stroke-width:0.5;" x1="1917.5" x2="2067.0254" y1="563.2969" y2="563.2969"/></g><!--class AlertsNatsService--><g class="entity" data-qualified-name="NOTIP Management API.AlertsModule.AlertsNatsService" data-source-line="24" id="ent0015"><rect fill="#F1F1F1" height="44" rx="2.5" ry="2.5" style="stroke:#181818;stroke-width:0.5;" width="116.7109" x="2112" y="527.2969"/><ellipse cx="2125" cy="541.2969" fill="#ADD1B2" rx="9" ry="9" style="stroke:#181818;stroke-width:1;"/><path d="M2126.2813,544.5938 Q2125.9375,544.7656 2125.5625,544.8438 Q2125.1875,544.9375 2124.7656,544.9375 Q2123.2969,544.9375 2122.5156,543.9688 Q2121.75,543 2121.75,541.1563 Q2121.75,539.3125 2122.5156,538.3438 Q2123.2969,537.375 2124.7656,537.375 Q2125.1875,537.375 2125.5625,537.4688 Q2125.9531,537.5469 2126.2813,537.7188 L2126.2813,539.3281 Q2125.9063,538.9844 2125.5469,538.8281 Q2125.2031,538.6719 2124.8438,538.6719 Q2124.0469,538.6719 2123.6406,539.2969 Q2123.2344,539.9219 2123.2344,541.1563 Q2123.2344,542.3906 2123.6406,543.0156 Q2124.0469,543.6406 2124.8438,543.6406 Q2125.2031,543.6406 2125.5469,543.4844 Q2125.9063,543.3281 2126.2813,542.9844 L2126.2813,544.5938 Z " fill="#000000"/><text fill="#000000" font-family="sans-serif" font-size="10" lengthAdjust="spacing" textLength="88.7109" x="2137" y="544.7588">AlertsNatsService</text><line style="stroke:#181818;stroke-width:0.5;" x1="2113" x2="2227.7109" y1="555.2969" y2="555.2969"/><line style="stroke:#181818;stroke-width:0.5;" x1="2113" x2="2227.7109" y1="563.2969" y2="563.2969"/></g><!--class AlertConfigNatsResponderService--><g class="entity" data-qualified-name="NOTIP Management API.AlertsModule.AlertConfigNatsResponderService" data-source-line="25" id="ent0016"><rect fill="#F1F1F1" height="44" rx="2.5" ry="2.5" style="stroke:#181818;stroke-width:0.5;" width="197.3115" x="1900" y="310.7969"/><ellipse cx="1913" cy="324.7969" fill="#ADD1B2" rx="9" ry="9" style="stroke:#181818;stroke-width:1;"/><path d="M1914.2813,328.0938 Q1913.9375,328.2656 1913.5625,328.3438 Q1913.1875,328.4375 1912.7656,328.4375 Q1911.2969,328.4375 1910.5156,327.4688 Q1909.75,326.5 1909.75,324.6563 Q1909.75,322.8125 1910.5156,321.8438 Q1911.2969,320.875 1912.7656,320.875 Q1913.1875,320.875 1913.5625,320.9688 Q1913.9531,321.0469 1914.2813,321.2188 L1914.2813,322.8281 Q1913.9063,322.4844 1913.5469,322.3281 Q1913.2031,322.1719 1912.8438,322.1719 Q1912.0469,322.1719 1911.6406,322.7969 Q1911.2344,323.4219 1911.2344,324.6563 Q1911.2344,325.8906 1911.6406,326.5156 Q1912.0469,327.1406 1912.8438,327.1406 Q1913.2031,327.1406 1913.5469,326.9844 Q1913.9063,326.8281 1914.2813,326.4844 L1914.2813,328.0938 Z " fill="#000000"/><text fill="#000000" font-family="sans-serif" font-size="10" lengthAdjust="spacing" textLength="169.3115" x="1925" y="328.2588">AlertConfigNatsResponderService</text><line style="stroke:#181818;stroke-width:0.5;" x1="1901" x2="2096.3115" y1="338.7969" y2="338.7969"/><line style="stroke:#181818;stroke-width:0.5;" x1="1901" x2="2096.3115" y1="346.7969" y2="346.7969"/></g><!--class AlertsEntity--><g class="entity" data-qualified-name="NOTIP Management API.AlertsModule.AlertsEntity" data-source-line="26" id="ent0017"><rect fill="#F1F1F1" height="44" rx="2.5" ry="2.5" style="stroke:#181818;stroke-width:0.5;" width="86.208" x="2052.5" y="631.2969"/><ellipse cx="2065.5" cy="645.2969" fill="#ADD1B2" rx="9" ry="9" style="stroke:#181818;stroke-width:1;"/><path d="M2066.7813,648.5938 Q2066.4375,648.7656 2066.0625,648.8438 Q2065.6875,648.9375 2065.2656,648.9375 Q2063.7969,648.9375 2063.0156,647.9688 Q2062.25,647 2062.25,645.1563 Q2062.25,643.3125 2063.0156,642.3438 Q2063.7969,641.375 2065.2656,641.375 Q2065.6875,641.375 2066.0625,641.4688 Q2066.4531,641.5469 2066.7813,641.7188 L2066.7813,643.3281 Q2066.4063,642.9844 2066.0469,642.8281 Q2065.7031,642.6719 2065.3438,642.6719 Q2064.5469,642.6719 2064.1406,643.2969 Q2063.7344,643.9219 2063.7344,645.1563 Q2063.7344,646.3906 2064.1406,647.0156 Q2064.5469,647.6406 2065.3438,647.6406 Q2065.7031,647.6406 2066.0469,647.4844 Q2066.4063,647.3281 2066.7813,646.9844 L2066.7813,648.5938 Z " fill="#000000"/><text fill="#000000" font-family="sans-serif" font-size="10" lengthAdjust="spacing" textLength="58.208" x="2077.5" y="648.7588">AlertsEntity</text><line style="stroke:#181818;stroke-width:0.5;" x1="2053.5" x2="2137.708" y1="659.2969" y2="659.2969"/><line style="stroke:#181818;stroke-width:0.5;" x1="2053.5" x2="2137.708" y1="667.2969" y2="667.2969"/></g><!--class AlertsConfigEntity--><g class="entity" data-qualified-name="NOTIP Management API.AlertsModule.AlertsConfigEntity" data-source-line="27" id="ent0018"><rect fill="#F1F1F1" height="44" rx="2.5" ry="2.5" style="stroke:#181818;stroke-width:0.5;" width="118.293" x="1899.5" y="631.2969"/><ellipse cx="1912.5" cy="645.2969" fill="#ADD1B2" rx="9" ry="9" style="stroke:#181818;stroke-width:1;"/><path d="M1913.7813,648.5938 Q1913.4375,648.7656 1913.0625,648.8438 Q1912.6875,648.9375 1912.2656,648.9375 Q1910.7969,648.9375 1910.0156,647.9688 Q1909.25,647 1909.25,645.1563 Q1909.25,643.3125 1910.0156,642.3438 Q1910.7969,641.375 1912.2656,641.375 Q1912.6875,641.375 1913.0625,641.4688 Q1913.4531,641.5469 1913.7813,641.7188 L1913.7813,643.3281 Q1913.4063,642.9844 1913.0469,642.8281 Q1912.7031,642.6719 1912.3438,642.6719 Q1911.5469,642.6719 1911.1406,643.2969 Q1910.7344,643.9219 1910.7344,645.1563 Q1910.7344,646.3906 1911.1406,647.0156 Q1911.5469,647.6406 1912.3438,647.6406 Q1912.7031,647.6406 1913.0469,647.4844 Q1913.4063,647.3281 1913.7813,646.9844 L1913.7813,648.5938 Z " fill="#000000"/><text fill="#000000" font-family="sans-serif" font-size="10" lengthAdjust="spacing" textLength="90.293" x="1924.5" y="648.7588">AlertsConfigEntity</text><line style="stroke:#181818;stroke-width:0.5;" x1="1900.5" x2="2016.793" y1="659.2969" y2="659.2969"/><line style="stroke:#181818;stroke-width:0.5;" x1="1900.5" x2="2016.793" y1="667.2969" y2="667.2969"/></g><!--class CommandController--><g class="entity" data-qualified-name="NOTIP Management API.CommandModule.CommandController" data-source-line="31" id="ent0020"><rect fill="#F1F1F1" height="44" rx="2.5" ry="2.5" style="stroke:#181818;stroke-width:0.5;" width="128.8057" x="1168" y="310.7969"/><ellipse cx="1181" cy="324.7969" fill="#ADD1B2" rx="9" ry="9" style="stroke:#181818;stroke-width:1;"/><path d="M1182.2813,328.0938 Q1181.9375,328.2656 1181.5625,328.3438 Q1181.1875,328.4375 1180.7656,328.4375 Q1179.2969,328.4375 1178.5156,327.4688 Q1177.75,326.5 1177.75,324.6563 Q1177.75,322.8125 1178.5156,321.8438 Q1179.2969,320.875 1180.7656,320.875 Q1181.1875,320.875 1181.5625,320.9688 Q1181.9531,321.0469 1182.2813,321.2188 L1182.2813,322.8281 Q1181.9063,322.4844 1181.5469,322.3281 Q1181.2031,322.1719 1180.8438,322.1719 Q1180.0469,322.1719 1179.6406,322.7969 Q1179.2344,323.4219 1179.2344,324.6563 Q1179.2344,325.8906 1179.6406,326.5156 Q1180.0469,327.1406 1180.8438,327.1406 Q1181.2031,327.1406 1181.5469,326.9844 Q1181.9063,326.8281 1182.2813,326.4844 L1182.2813,328.0938 Z " fill="#000000"/><text fill="#000000" font-family="sans-serif" font-size="10" lengthAdjust="spacing" textLength="100.8057" x="1193" y="328.2588">CommandController</text><line style="stroke:#181818;stroke-width:0.5;" x1="1169" x2="1295.8057" y1="338.7969" y2="338.7969"/><line style="stroke:#181818;stroke-width:0.5;" x1="1169" x2="1295.8057" y1="346.7969" y2="346.7969"/></g><!--class CommandService--><g class="entity" data-qualified-name="NOTIP Management API.CommandModule.CommandService" data-source-line="32" id="ent0021"><rect fill="#F1F1F1" height="44" rx="2.5" ry="2.5" style="stroke:#181818;stroke-width:0.5;" width="116.3545" x="1174.5" y="423.2969"/><ellipse cx="1187.5" cy="437.2969" fill="#ADD1B2" rx="9" ry="9" style="stroke:#181818;stroke-width:1;"/><path d="M1188.7813,440.5938 Q1188.4375,440.7656 1188.0625,440.8438 Q1187.6875,440.9375 1187.2656,440.9375 Q1185.7969,440.9375 1185.0156,439.9688 Q1184.25,439 1184.25,437.1563 Q1184.25,435.3125 1185.0156,434.3438 Q1185.7969,433.375 1187.2656,433.375 Q1187.6875,433.375 1188.0625,433.4688 Q1188.4531,433.5469 1188.7813,433.7188 L1188.7813,435.3281 Q1188.4063,434.9844 1188.0469,434.8281 Q1187.7031,434.6719 1187.3438,434.6719 Q1186.5469,434.6719 1186.1406,435.2969 Q1185.7344,435.9219 1185.7344,437.1563 Q1185.7344,438.3906 1186.1406,439.0156 Q1186.5469,439.6406 1187.3438,439.6406 Q1187.7031,439.6406 1188.0469,439.4844 Q1188.4063,439.3281 1188.7813,438.9844 L1188.7813,440.5938 Z " fill="#000000"/><text fill="#000000" font-family="sans-serif" font-size="10" lengthAdjust="spacing" textLength="88.3545" x="1199.5" y="440.7588">CommandService</text><line style="stroke:#181818;stroke-width:0.5;" x1="1175.5" x2="1289.8545" y1="451.2969" y2="451.2969"/><line style="stroke:#181818;stroke-width:0.5;" x1="1175.5" x2="1289.8545" y1="459.2969" y2="459.2969"/></g><!--class CommandPersistenceService--><g class="entity" data-qualified-name="NOTIP Management API.CommandModule.CommandPersistenceService" data-source-line="33" id="ent0022"><rect fill="#F1F1F1" height="44" rx="2.5" ry="2.5" style="stroke:#181818;stroke-width:0.5;" width="173.9082" x="1372.5" y="527.2969"/><ellipse cx="1385.5" cy="541.2969" fill="#ADD1B2" rx="9" ry="9" style="stroke:#181818;stroke-width:1;"/><path d="M1386.7813,544.5938 Q1386.4375,544.7656 1386.0625,544.8438 Q1385.6875,544.9375 1385.2656,544.9375 Q1383.7969,544.9375 1383.0156,543.9688 Q1382.25,543 1382.25,541.1563 Q1382.25,539.3125 1383.0156,538.3438 Q1383.7969,537.375 1385.2656,537.375 Q1385.6875,537.375 1386.0625,537.4688 Q1386.4531,537.5469 1386.7813,537.7188 L1386.7813,539.3281 Q1386.4063,538.9844 1386.0469,538.8281 Q1385.7031,538.6719 1385.3438,538.6719 Q1384.5469,538.6719 1384.1406,539.2969 Q1383.7344,539.9219 1383.7344,541.1563 Q1383.7344,542.3906 1384.1406,543.0156 Q1384.5469,543.6406 1385.3438,543.6406 Q1385.7031,543.6406 1386.0469,543.4844 Q1386.4063,543.3281 1386.7813,542.9844 L1386.7813,544.5938 Z " fill="#000000"/><text fill="#000000" font-family="sans-serif" font-size="10" lengthAdjust="spacing" textLength="145.9082" x="1397.5" y="544.7588">CommandPersistenceService</text><line style="stroke:#181818;stroke-width:0.5;" x1="1373.5" x2="1545.4082" y1="555.2969" y2="555.2969"/><line style="stroke:#181818;stroke-width:0.5;" x1="1373.5" x2="1545.4082" y1="563.2969" y2="563.2969"/></g><!--class CommandWritingPersistenceService--><g class="entity" data-qualified-name="NOTIP Management API.CommandModule.CommandWritingPersistenceService" data-source-line="34" id="ent0023"><rect fill="#F1F1F1" height="44" rx="2.5" ry="2.5" style="stroke:#181818;stroke-width:0.5;" width="210.0703" x="1127.5" y="527.2969"/><ellipse cx="1140.5" cy="541.2969" fill="#ADD1B2" rx="9" ry="9" style="stroke:#181818;stroke-width:1;"/><path d="M1141.7813,544.5938 Q1141.4375,544.7656 1141.0625,544.8438 Q1140.6875,544.9375 1140.2656,544.9375 Q1138.7969,544.9375 1138.0156,543.9688 Q1137.25,543 1137.25,541.1563 Q1137.25,539.3125 1138.0156,538.3438 Q1138.7969,537.375 1140.2656,537.375 Q1140.6875,537.375 1141.0625,537.4688 Q1141.4531,537.5469 1141.7813,537.7188 L1141.7813,539.3281 Q1141.4063,538.9844 1141.0469,538.8281 Q1140.7031,538.6719 1140.3438,538.6719 Q1139.5469,538.6719 1139.1406,539.2969 Q1138.7344,539.9219 1138.7344,541.1563 Q1138.7344,542.3906 1139.1406,543.0156 Q1139.5469,543.6406 1140.3438,543.6406 Q1140.7031,543.6406 1141.0469,543.4844 Q1141.4063,543.3281 1141.7813,542.9844 L1141.7813,544.5938 Z " fill="#000000"/><text fill="#000000" font-family="sans-serif" font-size="10" lengthAdjust="spacing" textLength="182.0703" x="1152.5" y="544.7588">CommandWritingPersistenceService</text><line style="stroke:#181818;stroke-width:0.5;" x1="1128.5" x2="1336.5703" y1="555.2969" y2="555.2969"/><line style="stroke:#181818;stroke-width:0.5;" x1="1128.5" x2="1336.5703" y1="563.2969" y2="563.2969"/></g><!--class CommandsAckConsumer--><g class="entity" data-qualified-name="NOTIP Management API.CommandModule.CommandsAckConsumer" data-source-line="35" id="ent0024"><rect fill="#F1F1F1" height="44" rx="2.5" ry="2.5" style="stroke:#181818;stroke-width:0.5;" width="153.7275" x="938.5" y="527.2969"/><ellipse cx="951.5" cy="541.2969" fill="#ADD1B2" rx="9" ry="9" style="stroke:#181818;stroke-width:1;"/><path d="M952.7813,544.5938 Q952.4375,544.7656 952.0625,544.8438 Q951.6875,544.9375 951.2656,544.9375 Q949.7969,544.9375 949.0156,543.9688 Q948.25,543 948.25,541.1563 Q948.25,539.3125 949.0156,538.3438 Q949.7969,537.375 951.2656,537.375 Q951.6875,537.375 952.0625,537.4688 Q952.4531,537.5469 952.7813,537.7188 L952.7813,539.3281 Q952.4063,538.9844 952.0469,538.8281 Q951.7031,538.6719 951.3438,538.6719 Q950.5469,538.6719 950.1406,539.2969 Q949.7344,539.9219 949.7344,541.1563 Q949.7344,542.3906 950.1406,543.0156 Q950.5469,543.6406 951.3438,543.6406 Q951.7031,543.6406 952.0469,543.4844 Q952.4063,543.3281 952.7813,542.9844 L952.7813,544.5938 Z " fill="#000000"/><text fill="#000000" font-family="sans-serif" font-size="10" lengthAdjust="spacing" textLength="125.7275" x="963.5" y="544.7588">CommandsAckConsumer</text><line style="stroke:#181818;stroke-width:0.5;" x1="939.5" x2="1091.2275" y1="555.2969" y2="555.2969"/><line style="stroke:#181818;stroke-width:0.5;" x1="939.5" x2="1091.2275" y1="563.2969" y2="563.2969"/></g><!--class CommandEntity--><g class="entity" data-qualified-name="NOTIP Management API.CommandModule.CommandEntity" data-source-line="36" id="ent0025"><rect fill="#F1F1F1" height="44" rx="2.5" ry="2.5" style="stroke:#181818;stroke-width:0.5;" width="108.5908" x="1178" y="631.2969"/><ellipse cx="1191" cy="645.2969" fill="#ADD1B2" rx="9" ry="9" style="stroke:#181818;stroke-width:1;"/><path d="M1192.2813,648.5938 Q1191.9375,648.7656 1191.5625,648.8438 Q1191.1875,648.9375 1190.7656,648.9375 Q1189.2969,648.9375 1188.5156,647.9688 Q1187.75,647 1187.75,645.1563 Q1187.75,643.3125 1188.5156,642.3438 Q1189.2969,641.375 1190.7656,641.375 Q1191.1875,641.375 1191.5625,641.4688 Q1191.9531,641.5469 1192.2813,641.7188 L1192.2813,643.3281 Q1191.9063,642.9844 1191.5469,642.8281 Q1191.2031,642.6719 1190.8438,642.6719 Q1190.0469,642.6719 1189.6406,643.2969 Q1189.2344,643.9219 1189.2344,645.1563 Q1189.2344,646.3906 1189.6406,647.0156 Q1190.0469,647.6406 1190.8438,647.6406 Q1191.2031,647.6406 1191.5469,647.4844 Q1191.9063,647.3281 1192.2813,646.9844 L1192.2813,648.5938 Z " fill="#000000"/><text fill="#000000" font-family="sans-serif" font-size="10" lengthAdjust="spacing" textLength="80.5908" x="1203" y="648.7588">CommandEntity</text><line style="stroke:#181818;stroke-width:0.5;" x1="1179" x2="1285.5908" y1="659.2969" y2="659.2969"/><line style="stroke:#181818;stroke-width:0.5;" x1="1179" x2="1285.5908" y1="667.2969" y2="667.2969"/></g><!--class CostsController--><g class="entity" data-qualified-name="NOTIP Management API.CostsModule.CostsController" data-source-line="40" id="ent0027"><rect fill="#F1F1F1" height="44" rx="2.5" ry="2.5" style="stroke:#181818;stroke-width:0.5;" width="104.8506" x="1665" y="188.2969"/><ellipse cx="1678" cy="202.2969" fill="#ADD1B2" rx="9" ry="9" style="stroke:#181818;stroke-width:1;"/><path d="M1679.2813,205.5938 Q1678.9375,205.7656 1678.5625,205.8438 Q1678.1875,205.9375 1677.7656,205.9375 Q1676.2969,205.9375 1675.5156,204.9688 Q1674.75,204 1674.75,202.1563 Q1674.75,200.3125 1675.5156,199.3438 Q1676.2969,198.375 1677.7656,198.375 Q1678.1875,198.375 1678.5625,198.4688 Q1678.9531,198.5469 1679.2813,198.7188 L1679.2813,200.3281 Q1678.9063,199.9844 1678.5469,199.8281 Q1678.2031,199.6719 1677.8438,199.6719 Q1677.0469,199.6719 1676.6406,200.2969 Q1676.2344,200.9219 1676.2344,202.1563 Q1676.2344,203.3906 1676.6406,204.0156 Q1677.0469,204.6406 1677.8438,204.6406 Q1678.2031,204.6406 1678.5469,204.4844 Q1678.9063,204.3281 1679.2813,203.9844 L1679.2813,205.5938 Z " fill="#000000"/><text fill="#000000" font-family="sans-serif" font-size="10" lengthAdjust="spacing" textLength="76.8506" x="1690" y="205.7588">CostsController</text><line style="stroke:#181818;stroke-width:0.5;" x1="1666" x2="1768.8506" y1="216.2969" y2="216.2969"/><line style="stroke:#181818;stroke-width:0.5;" x1="1666" x2="1768.8506" y1="224.2969" y2="224.2969"/></g><!--class CostsService--><g class="entity" data-qualified-name="NOTIP Management API.CostsModule.CostsService" data-source-line="41" id="ent0028"><rect fill="#F1F1F1" height="44" rx="2.5" ry="2.5" style="stroke:#181818;stroke-width:0.5;" width="92.3994" x="1671.5" y="310.7969"/><ellipse cx="1684.5" cy="324.7969" fill="#ADD1B2" rx="9" ry="9" style="stroke:#181818;stroke-width:1;"/><path d="M1685.7813,328.0938 Q1685.4375,328.2656 1685.0625,328.3438 Q1684.6875,328.4375 1684.2656,328.4375 Q1682.7969,328.4375 1682.0156,327.4688 Q1681.25,326.5 1681.25,324.6563 Q1681.25,322.8125 1682.0156,321.8438 Q1682.7969,320.875 1684.2656,320.875 Q1684.6875,320.875 1685.0625,320.9688 Q1685.4531,321.0469 1685.7813,321.2188 L1685.7813,322.8281 Q1685.4063,322.4844 1685.0469,322.3281 Q1684.7031,322.1719 1684.3438,322.1719 Q1683.5469,322.1719 1683.1406,322.7969 Q1682.7344,323.4219 1682.7344,324.6563 Q1682.7344,325.8906 1683.1406,326.5156 Q1683.5469,327.1406 1684.3438,327.1406 Q1684.7031,327.1406 1685.0469,326.9844 Q1685.4063,326.8281 1685.7813,326.4844 L1685.7813,328.0938 Z " fill="#000000"/><text fill="#000000" font-family="sans-serif" font-size="10" lengthAdjust="spacing" textLength="64.3994" x="1696.5" y="328.2588">CostsService</text><line style="stroke:#181818;stroke-width:0.5;" x1="1672.5" x2="1762.8994" y1="338.7969" y2="338.7969"/><line style="stroke:#181818;stroke-width:0.5;" x1="1672.5" x2="1762.8994" y1="346.7969" y2="346.7969"/></g><!--class CostsPersistenceService--><g class="entity" data-qualified-name="NOTIP Management API.CostsModule.CostsPersistenceService" data-source-line="42" id="ent0029"><rect fill="#F1F1F1" height="44" rx="2.5" ry="2.5" style="stroke:#181818;stroke-width:0.5;" width="149.9531" x="1642.5" y="423.2969"/><ellipse cx="1655.5" cy="437.2969" fill="#ADD1B2" rx="9" ry="9" style="stroke:#181818;stroke-width:1;"/><path d="M1656.7813,440.5938 Q1656.4375,440.7656 1656.0625,440.8438 Q1655.6875,440.9375 1655.2656,440.9375 Q1653.7969,440.9375 1653.0156,439.9688 Q1652.25,439 1652.25,437.1563 Q1652.25,435.3125 1653.0156,434.3438 Q1653.7969,433.375 1655.2656,433.375 Q1655.6875,433.375 1656.0625,433.4688 Q1656.4531,433.5469 1656.7813,433.7188 L1656.7813,435.3281 Q1656.4063,434.9844 1656.0469,434.8281 Q1655.7031,434.6719 1655.3438,434.6719 Q1654.5469,434.6719 1654.1406,435.2969 Q1653.7344,435.9219 1653.7344,437.1563 Q1653.7344,438.3906 1654.1406,439.0156 Q1654.5469,439.6406 1655.3438,439.6406 Q1655.7031,439.6406 1656.0469,439.4844 Q1656.4063,439.3281 1656.7813,438.9844 L1656.7813,440.5938 Z " fill="#000000"/><text fill="#000000" font-family="sans-serif" font-size="10" lengthAdjust="spacing" textLength="121.9531" x="1667.5" y="440.7588">CostsPersistenceService</text><line style="stroke:#181818;stroke-width:0.5;" x1="1643.5" x2="1791.4531" y1="451.2969" y2="451.2969"/><line style="stroke:#181818;stroke-width:0.5;" x1="1643.5" x2="1791.4531" y1="459.2969" y2="459.2969"/></g><g class="entity" data-qualified-name="GMN60" data-source-line="84" id="ent0061"><path d="M6,304.2969 L6,360.8594 L198.7188,360.8594 L198.7188,314.2969 L188.7188,304.2969 L6,304.2969" fill="#FEFFDD" style="stroke:#181818;stroke-width:0.5;"/><path d="M188.7188,304.2969 L188.7188,314.2969 L198.7188,314.2969 L188.7188,304.2969" fill="#FEFFDD" style="stroke:#181818;stroke-width:1;"/><text fill="#000000" font-family="sans-serif" font-size="10" lengthAdjust="spacing" textLength="132.7051" x="12" y="318.5791">Gateway CRUD operations</text><text fill="#000000" font-family="sans-serif" font-size="10" lengthAdjust="spacing" textLength="119.7461" x="12" y="330.2197">Runtime status updates</text><text fill="#000000" font-family="sans-serif" font-size="10" lengthAdjust="spacing" textLength="153.8428" x="12" y="341.8604">NATS integration for telemetry</text><text fill="#000000" font-family="sans-serif" font-size="10" lengthAdjust="spacing" textLength="171.7188" x="12" y="353.501">Gateway decommissioning events</text></g><g class="entity" data-qualified-name="GMN63" data-source-line="91" id="ent0064"><path d="M2529,176.2969 L2529,244.5 L2762.1338,244.5 L2762.1338,186.2969 L2752.1338,176.2969 L2529,176.2969" fill="#FEFFDD" style="stroke:#181818;stroke-width:0.5;"/><path d="M2752.1338,176.2969 L2752.1338,186.2969 L2762.1338,186.2969 L2752.1338,176.2969" fill="#FEFFDD" style="stroke:#181818;stroke-width:1;"/><text fill="#000000" font-family="sans-serif" font-size="10" lengthAdjust="spacing" textLength="163.4814" x="2535" y="190.5791">Alert configuration management</text><text fill="#000000" font-family="sans-serif" font-size="10" lengthAdjust="spacing" textLength="128.9648" x="2535" y="202.2197">Gateway offline detection</text><text fill="#000000" font-family="sans-serif" font-size="10" lengthAdjust="spacing" textLength="172.0605" x="2535" y="213.8604">Default and per-gateway timeouts</text><text fill="#000000" font-family="sans-serif" font-size="10" lengthAdjust="spacing" textLength="153.0225" x="2535" y="225.501">NATS request-reply for configs</text><text fill="#000000" font-family="sans-serif" font-size="10" lengthAdjust="spacing" textLength="212.1338" x="2535" y="237.1416">NATS JetStream consumer for alert events</text></g><g class="entity" data-qualified-name="GMN66" data-source-line="99" id="ent0067"><path d="M2311,181.7969 L2311,238.3594 L2493.5234,238.3594 L2493.5234,191.7969 L2483.5234,181.7969 L2311,181.7969" fill="#FEFFDD" style="stroke:#181818;stroke-width:0.5;"/><path d="M2483.5234,181.7969 L2483.5234,191.7969 L2493.5234,191.7969 L2483.5234,181.7969" fill="#FEFFDD" style="stroke:#181818;stroke-width:1;"/><text fill="#000000" font-family="sans-serif" font-size="10" lengthAdjust="spacing" textLength="161.5234" x="2317" y="196.0791">Command dispatch to gateways</text><text fill="#000000" font-family="sans-serif" font-size="10" lengthAdjust="spacing" textLength="90.5762" x="2317" y="207.7197">Firmware updates</text><text fill="#000000" font-family="sans-serif" font-size="10" lengthAdjust="spacing" textLength="113.0078" x="2317" y="219.3604">Configuration changes</text><text fill="#000000" font-family="sans-serif" font-size="10" lengthAdjust="spacing" textLength="146.5479" x="2317" y="231.001">NATS JetStream ack handling</text></g><g class="entity" data-qualified-name="GMN69" data-source-line="106" id="ent0070"><path d="M1508,43.2969 L1508,88.2188 L1729.1123,88.2188 L1729.1123,53.2969 L1719.1123,43.2969 L1508,43.2969" fill="#FEFFDD" style="stroke:#181818;stroke-width:0.5;"/><path d="M1719.1123,43.2969 L1719.1123,53.2969 L1729.1123,53.2969 L1719.1123,43.2969" fill="#FEFFDD" style="stroke:#181818;stroke-width:1;"/><text fill="#000000" font-family="sans-serif" font-size="10" lengthAdjust="spacing" textLength="200.1123" x="1514" y="57.5791">Calculates storage and bandwidth costs</text><text fill="#000000" font-family="sans-serif" font-size="10" lengthAdjust="spacing" textLength="189.5947" x="1514" y="69.2197">Integrates with Alerts and Commands</text><text fill="#000000" font-family="sans-serif" font-size="10" lengthAdjust="spacing" textLength="133.1934" x="1514" y="80.8604">Used for tenant billing info</text></g><!--link GatewaysController to GatewaysService--><g class="link" data-entity-1="ent0004" data-entity-2="ent0005" data-link-type="dependency" data-source-line="46" id="lnk30"><path codeLine="46" d="M769.75,467.3569 C769.75,484.9969 769.75,503.6369 769.75,521.2769" fill="none" id="GatewaysController-to-GatewaysService" style="stroke:#181818;stroke-width:1;"/><polygon fill="#181818" points="769.75,527.2769,773.75,518.2769,769.75,522.2769,765.75,518.2769,769.75,527.2769" style="stroke:#181818;stroke-width:1;"/></g><!--link GatewaysService to GatewaysPersistenceService--><g class="link" data-entity-1="ent0005" data-entity-2="ent0006" data-link-type="dependency" data-source-line="47" id="lnk31"><path codeLine="47" d="M767.5,571.3569 C767.5,588.9969 767.5,607.6369 767.5,625.2769" fill="none" id="GatewaysService-to-GatewaysPersistenceService" style="stroke:#181818;stroke-width:1;"/><polygon fill="#181818" points="767.5,631.2769,771.5,622.2769,767.5,626.2769,763.5,622.2769,767.5,631.2769" style="stroke:#181818;stroke-width:1;"/></g><!--link GatewaysPersistenceService to GatewayEntity--><g class="link" data-entity-1="ent0006" data-entity-2="ent0009" data-link-type="dependency" data-source-line="48" id="lnk32"><path codeLine="48" d="M766.25,675.3569 C766.25,692.9969 766.25,711.6369 766.25,729.2769" fill="none" id="GatewaysPersistenceService-to-GatewayEntity" style="stroke:#181818;stroke-width:1;"/><polygon fill="#181818" points="766.25,735.2769,770.25,726.2769,766.25,730.2769,762.25,726.2769,766.25,735.2769" style="stroke:#181818;stroke-width:1;"/></g><!--link GatewaysPersistenceService to GatewayMetadataEntity--><g class="link" data-entity-1="ent0006" data-entity-2="ent0010" data-link-type="dependency" data-source-line="49" id="lnk33"><path codeLine="49" d="M717.5,675.5569 C717.5,715.5869 717.5,793.2769 717.5,833.1969" fill="none" id="GatewaysPersistenceService-to-GatewayMetadataEntity" style="stroke:#181818;stroke-width:1;"/><polygon fill="#181818" points="717.5,839.1969,721.5,830.1969,717.5,834.1969,713.5,830.1969,717.5,839.1969" style="stroke:#181818;stroke-width:1;"/></g><!--link GatewayEntity to TenantEntity--><g class="link" data-entity-1="ent0009" data-entity-2="ent0034" data-link-type="dependency" data-source-line="50" id="lnk35"><path codeLine="50" d="M842.09,768.2969 C928.51,768.2969 1097.3,768.2969 1180.49,768.2969" fill="none" id="GatewayEntity-to-TenantEntity" style="stroke:#181818;stroke-width:1;"/><polygon fill="#181818" points="1186.49,768.2969,1177.49,764.2969,1181.49,768.2969,1177.49,772.2969,1186.49,768.2969" style="stroke:#181818;stroke-width:1;"/></g><!--link GatewayEntity to GatewayMetadataEntity--><g class="link" data-entity-1="ent0009" data-entity-2="ent0010" data-link-type="dependency" data-source-line="51" id="lnk36"><path codeLine="51" d="M791.5,779.3569 C791.5,796.9969 791.5,815.6369 791.5,833.2769" fill="none" id="GatewayEntity-to-GatewayMetadataEntity" style="stroke:#181818;stroke-width:1;"/><polygon fill="#181818" points="791.5,839.2769,795.5,830.2769,791.5,834.2769,787.5,830.2769,791.5,839.2769" style="stroke:#181818;stroke-width:1;"/></g><!--link AlertsController to AlertsService--><g class="link" data-entity-1="ent0012" data-entity-2="ent0013" data-link-type="dependency" data-source-line="54" id="lnk37"><path codeLine="54" d="M2175,355.0269 C2175,374.7469 2175,397.4069 2175,417.1169" fill="none" id="AlertsController-to-AlertsService" style="stroke:#181818;stroke-width:1;"/><polygon fill="#181818" points="2175,423.1169,2179,414.1169,2175,418.1169,2171,414.1169,2175,423.1169" style="stroke:#181818;stroke-width:1;"/></g><!--link AlertsService to AlertsPersistenceService--><g class="link" data-entity-1="ent0013" data-entity-2="ent0014" data-link-type="dependency" data-source-line="55" id="lnk38"><path codeLine="55" d="M2123.27,445.2969 C2070.53,445.2969 1992.5,445.2969 1992.5,445.2969 C1992.5,445.2969 1992.5,490.7169 1992.5,521.2369" fill="none" id="AlertsService-to-AlertsPersistenceService" style="stroke:#181818;stroke-width:1;"/><polygon fill="#181818" points="1992.5,527.2369,1996.5,518.2369,1992.5,522.2369,1988.5,518.2369,1992.5,527.2369" style="stroke:#181818;stroke-width:1;"/></g><!--link AlertsService to AlertsNatsService--><g class="link" data-entity-1="ent0013" data-entity-2="ent0015" data-link-type="dependency" data-source-line="56" id="lnk39"><path codeLine="56" d="M2170.5,467.3569 C2170.5,484.9969 2170.5,503.6369 2170.5,521.2769" fill="none" id="AlertsService-to-AlertsNatsService" style="stroke:#181818;stroke-width:1;"/><polygon fill="#181818" points="2170.5,527.2769,2174.5,518.2769,2170.5,522.2769,2166.5,518.2769,2170.5,527.2769" style="stroke:#181818;stroke-width:1;"/></g><!--link AlertsPersistenceService to AlertsEntity--><g class="link" data-entity-1="ent0014" data-entity-2="ent0017" data-link-type="dependency" data-source-line="57" id="lnk40"><path codeLine="57" d="M2060.5,571.3569 C2060.5,588.9969 2060.5,607.6369 2060.5,625.2769" fill="none" id="AlertsPersistenceService-to-AlertsEntity" style="stroke:#181818;stroke-width:1;"/><polygon fill="#181818" points="2060.5,631.2769,2064.5,622.2769,2060.5,626.2769,2056.5,622.2769,2060.5,631.2769" style="stroke:#181818;stroke-width:1;"/></g><!--link AlertsPersistenceService to AlertsConfigEntity--><g class="link" data-entity-1="ent0014" data-entity-2="ent0018" data-link-type="dependency" data-source-line="58" id="lnk41"><path codeLine="58" d="M1967,571.3569 C1967,588.9969 1967,607.6369 1967,625.2769" fill="none" id="AlertsPersistenceService-to-AlertsConfigEntity" style="stroke:#181818;stroke-width:1;"/><polygon fill="#181818" points="1967,631.2769,1971,622.2769,1967,626.2769,1963,622.2769,1967,631.2769" style="stroke:#181818;stroke-width:1;"/></g><!--link AlertsConfigEntity to TenantEntity--><g class="link" data-entity-1="ent0018" data-entity-2="ent0034" data-link-type="dependency" data-source-line="59" id="lnk42"><path codeLine="59" d="M1978.17,675.3069 C1978.17,703.9269 1978.17,750.2969 1978.17,750.2969 C1978.17,750.2969 1447.15,750.2969 1284.58,750.2969" fill="none" id="AlertsConfigEntity-to-TenantEntity" style="stroke:#181818;stroke-width:1;"/><polygon fill="#181818" points="1278.58,750.2969,1287.58,754.2969,1283.58,750.2969,1287.58,746.2969,1278.58,750.2969" style="stroke:#181818;stroke-width:1;"/></g><!--link TenantEntity to GatewayMetadataEntity--><!--link AlertsConfigEntity to GatewayEntity--><g class="link" data-entity-1="ent0018" data-entity-2="ent0009" data-link-type="dependency" data-source-line="61" id="lnk44"><path codeLine="61" d="M1938.83,675.7769 C1938.83,685.7569 1938.83,695.2969 1938.83,695.2969 C1938.83,695.2969 791.5,695.2969 791.5,695.2969 C791.5,695.2969 791.5,711.4469 791.5,729.2669" fill="none" id="AlertsConfigEntity-to-GatewayEntity" style="stroke:#181818;stroke-width:1;"/><polygon fill="#181818" points="791.5,735.2669,795.5,726.2669,791.5,730.2669,787.5,726.2669,791.5,735.2669" style="stroke:#181818;stroke-width:1;"/></g><!--link AlertsEntity to TenantEntity--><g class="link" data-entity-1="ent0017" data-entity-2="ent0034" data-link-type="dependency" data-source-line="62" id="lnk45"><path codeLine="62" d="M2109.83,675.4269 C2109.83,708.0669 2109.83,765.2969 2109.83,765.2969 C2109.83,765.2969 1465.69,765.2969 1284.74,765.2969" fill="none" id="AlertsEntity-to-TenantEntity" style="stroke:#181818;stroke-width:1;"/><polygon fill="#181818" points="1278.74,765.2969,1287.74,769.2969,1283.74,765.2969,1287.74,761.2969,1278.74,765.2969" style="stroke:#181818;stroke-width:1;"/></g><!--link AlertsEntity to GatewayEntity--><g class="link" data-entity-1="ent0017" data-entity-2="ent0009" data-link-type="dependency" data-source-line="63" id="lnk46"><path codeLine="63" d="M2081.17,675.3269 C2081.17,693.1469 2081.17,715.2969 2081.17,715.2969 C2081.17,715.2969 816.75,715.2969 816.75,715.2969 C816.75,715.2969 816.75,718.8369 816.75,728.8169" fill="none" id="AlertsEntity-to-GatewayEntity" style="stroke:#181818;stroke-width:1;"/><polygon fill="#181818" points="816.75,734.8169,820.75,725.8169,816.75,729.8169,812.75,725.8169,816.75,734.8169" style="stroke:#181818;stroke-width:1;"/></g><!--link CommandController to CommandService--><g class="link" data-entity-1="ent0020" data-entity-2="ent0021" data-link-type="dependency" data-source-line="66" id="lnk47"><path codeLine="66" d="M1232.5,355.0269 C1232.5,374.7469 1232.5,397.4069 1232.5,417.1169" fill="none" id="CommandController-to-CommandService" style="stroke:#181818;stroke-width:1;"/><polygon fill="#181818" points="1232.5,423.1169,1236.5,414.1169,1232.5,418.1169,1228.5,414.1169,1232.5,423.1169" style="stroke:#181818;stroke-width:1;"/></g><!--link CommandService to CommandPersistenceService--><g class="link" data-entity-1="ent0021" data-entity-2="ent0022" data-link-type="dependency" data-source-line="67" id="lnk48"><path codeLine="67" d="M1290.65,453.2969 C1352.11,453.2969 1440.25,453.2969 1440.25,453.2969 C1440.25,453.2969 1440.25,492.6769 1440.25,521.0269" fill="none" id="CommandService-to-CommandPersistenceService" style="stroke:#181818;stroke-width:1;"/><polygon fill="#181818" points="1440.25,527.0269,1444.25,518.0269,1440.25,522.0269,1436.25,518.0269,1440.25,527.0269" style="stroke:#181818;stroke-width:1;"/></g><!--link CommandService to CommandWritingPersistenceService--><g class="link" data-entity-1="ent0021" data-entity-2="ent0023" data-link-type="dependency" data-source-line="68" id="lnk49"><path codeLine="68" d="M1232.5,467.3569 C1232.5,484.9969 1232.5,503.6369 1232.5,521.2769" fill="none" id="CommandService-to-CommandWritingPersistenceService" style="stroke:#181818;stroke-width:1;"/><polygon fill="#181818" points="1232.5,527.2769,1236.5,518.2769,1232.5,522.2769,1228.5,518.2769,1232.5,527.2769" style="stroke:#181818;stroke-width:1;"/></g><!--link CommandService to CommandsAckConsumer--><g class="link" data-entity-1="ent0021" data-entity-2="ent0024" data-link-type="dependency" data-source-line="69" id="lnk50"><path codeLine="69" d="M1174.35,445.2969 C1110.07,445.2969 1015.5,445.2969 1015.5,445.2969 C1015.5,445.2969 1015.5,490.7169 1015.5,521.2369" fill="none" id="CommandService-to-CommandsAckConsumer" style="stroke:#181818;stroke-width:1;"/><polygon fill="#181818" points="1015.5,527.2369,1019.5,518.2369,1015.5,522.2369,1011.5,518.2369,1015.5,527.2369" style="stroke:#181818;stroke-width:1;"/></g><!--link CommandPersistenceService to CommandEntity--><g class="link" data-entity-1="ent0022" data-entity-2="ent0025" data-link-type="dependency" data-source-line="70" id="lnk51"><path codeLine="70" d="M1459.5,571.3569 C1459.5,601.8769 1459.5,653.2969 1459.5,653.2969 C1459.5,653.2969 1360.33,653.2969 1293.16,653.2969" fill="none" id="CommandPersistenceService-to-CommandEntity" style="stroke:#181818;stroke-width:1;"/><polygon fill="#181818" points="1287.16,653.2969,1296.16,657.2969,1292.16,653.2969,1296.16,649.2969,1287.16,653.2969" style="stroke:#181818;stroke-width:1;"/></g><!--link CommandWritingPersistenceService to CommandEntity--><g class="link" data-entity-1="ent0023" data-entity-2="ent0025" data-link-type="dependency" data-source-line="71" id="lnk52"><path codeLine="71" d="M1232.5,571.3569 C1232.5,588.9969 1232.5,607.6369 1232.5,625.2769" fill="none" id="CommandWritingPersistenceService-to-CommandEntity" style="stroke:#181818;stroke-width:1;"/><polygon fill="#181818" points="1232.5,631.2769,1236.5,622.2769,1232.5,626.2769,1228.5,622.2769,1232.5,631.2769" style="stroke:#181818;stroke-width:1;"/></g><!--link CommandWritingPersistenceService to GatewayEntity--><g class="link" data-entity-1="ent0023" data-entity-2="ent0009" data-link-type="dependency" data-source-line="72" id="lnk53"><path codeLine="72" d="M1152.75,571.5169 C1152.75,623.0369 1152.75,746.2969 1152.75,746.2969 C1152.75,746.2969 947.53,746.2969 848.11,746.2969" fill="none" id="CommandWritingPersistenceService-to-GatewayEntity" style="stroke:#181818;stroke-width:1;"/><polygon fill="#181818" points="842.11,746.2969,851.11,750.2969,847.11,746.2969,851.11,742.2969,842.11,746.2969" style="stroke:#181818;stroke-width:1;"/></g><!--link CommandEntity to GatewayEntity--><g class="link" data-entity-1="ent0025" data-entity-2="ent0009" data-link-type="dependency" data-source-line="73" id="lnk54"><path codeLine="73" d="M1182.25,675.3569 C1182.25,705.8769 1182.25,757.2969 1182.25,757.2969 C1182.25,757.2969 953.91,757.2969 848.18,757.2969" fill="none" id="CommandEntity-to-GatewayEntity" style="stroke:#181818;stroke-width:1;"/><polygon fill="#181818" points="842.18,757.2969,851.18,761.2969,847.18,757.2969,851.18,753.2969,842.18,757.2969" style="stroke:#181818;stroke-width:1;"/></g><!--link CommandEntity to TenantEntity--><g class="link" data-entity-1="ent0025" data-entity-2="ent0034" data-link-type="dependency" data-source-line="74" id="lnk55"><path codeLine="74" d="M1232.5,675.3569 C1232.5,692.9969 1232.5,711.6369 1232.5,729.2769" fill="none" id="CommandEntity-to-TenantEntity" style="stroke:#181818;stroke-width:1;"/><polygon fill="#181818" points="1232.5,735.2769,1236.5,726.2769,1232.5,730.2769,1228.5,726.2769,1232.5,735.2769" style="stroke:#181818;stroke-width:1;"/></g><!--link CostsController to CostsService--><g class="link" data-entity-1="ent0027" data-entity-2="ent0028" data-link-type="dependency" data-source-line="77" id="lnk56"><path codeLine="77" d="M1717.5,232.4769 C1717.5,254.6769 1717.5,282.6369 1717.5,304.7769" fill="none" id="CostsController-to-CostsService" style="stroke:#181818;stroke-width:1;"/><polygon fill="#181818" points="1717.5,310.7769,1721.5,301.7769,1717.5,305.7769,1713.5,301.7769,1717.5,310.7769" style="stroke:#181818;stroke-width:1;"/></g><!--link CostsService to CostsPersistenceService--><g class="link" data-entity-1="ent0028" data-entity-2="ent0029" data-link-type="dependency" data-source-line="78" id="lnk57"><path codeLine="78" d="M1717.5,355.0269 C1717.5,374.7469 1717.5,397.4069 1717.5,417.1169" fill="none" id="CostsService-to-CostsPersistenceService" style="stroke:#181818;stroke-width:1;"/><polygon fill="#181818" points="1717.5,423.1169,1721.5,414.1169,1717.5,418.1169,1713.5,414.1169,1717.5,423.1169" style="stroke:#181818;stroke-width:1;"/></g><!--link CostsPersistenceService to AlertsPersistenceService--><g class="link" data-entity-1="ent0029" data-entity-2="ent0014" data-link-type="dependency" data-source-line="79" id="lnk58"><path codeLine="79" d="M1717.5,467.3569 C1717.5,497.8769 1717.5,549.2969 1717.5,549.2969 C1717.5,549.2969 1828.88,549.2969 1910.26,549.2969" fill="none" id="CostsPersistenceService-to-AlertsPersistenceService" style="stroke:#181818;stroke-width:1;stroke-dasharray:7,7;"/><polygon fill="#181818" points="1916.26,549.2969,1907.26,545.2969,1911.26,549.2969,1907.26,553.2969,1916.26,549.2969" style="stroke:#181818;stroke-width:1;"/></g><!--link CostsPersistenceService to CommandPersistenceService--><g class="link" data-entity-1="ent0029" data-entity-2="ent0022" data-link-type="dependency" data-source-line="80" id="lnk59"><path codeLine="80" d="M1642.31,438.2969 C1589.13,438.2969 1527.25,438.2969 1527.25,438.2969 C1527.25,438.2969 1527.25,488.7069 1527.25,521.0969" fill="none" id="CostsPersistenceService-to-CommandPersistenceService" style="stroke:#181818;stroke-width:1;stroke-dasharray:7,7;"/><polygon fill="#181818" points="1527.25,527.0969,1531.25,518.0969,1527.25,522.0969,1523.25,518.0969,1527.25,527.0969" style="stroke:#181818;stroke-width:1;"/></g><!--link GMN60 to GatewaysModule--><g class="link" data-entity-1="ent0061" data-entity-2="ent0003" data-link-type="association" data-source-line="84" id="lnk62"><path d="M199.4,344.2969 C229.76,344.2969 255.5,344.2969 255.5,344.2969 C255.5,344.2969 255.5,350.0313 255.5,358.7673 C255.5,363.1354 255.5,368.2539 255.5,373.7812 C255.5,376.5449 255.5,379.4107 255.5,382.3361 C255.5,383.0675 255.5,383.8025 255.5,384.5406 C255.5,384.7252 255.5,384.9099 255.5,385.0948" fill="none" id="GMN60-GatewaysModule" style="stroke:#181818;stroke-width:1;stroke-dasharray:7,7;"/></g><!--link GMN63 to AlertsModule--><g class="link" data-entity-1="ent0064" data-entity-2="ent0011" data-link-type="association" data-source-line="91" id="lnk65"><path d="M2645.5,244.6969 C2645.5,264.0169 2645.5,284.2969 2645.5,284.2969 C2645.5,284.2969 2596.6875,284.2969 2523.4688,284.2969 C2486.8594,284.2969 2444.1484,284.2969 2398.3867,284.2969 C2375.5059,284.2969 2351.8623,284.2969 2327.8374,284.2969 C2315.825,284.2969 2303.7172,284.2969 2291.5617,284.2969 C2285.484,284.2969 2279.3943,284.2969 2273.2987,284.2969 C2270.2509,284.2969 2267.2016,284.2969 2264.1516,284.2969" fill="none" id="GMN63-AlertsModule" style="stroke:#181818;stroke-width:1;stroke-dasharray:7,7;"/></g><!--link GMN66 to CommandModule--><g class="link" data-entity-1="ent0067" data-entity-2="ent0019" data-link-type="association" data-source-line="99" id="lnk68"><path d="M2402.5,238.8769 C2402.5,251.8269 2402.5,264.2969 2402.5,264.2969 C2402.5,264.2969 914.5,264.2969 914.5,264.2969 C914.5,264.2969 914.5,265.2692 914.5,266.9822 C914.5,267.8387 914.5,268.8804 914.5,270.0782 C914.5,270.6771 914.5,271.3151 914.5,271.9885 C914.5,272.1569 914.5,272.3274 914.5,272.5002 C914.5,272.5865 914.5,272.6734 914.5,272.7609" fill="none" id="GMN66-CommandModule" style="stroke:#181818;stroke-width:1;stroke-dasharray:7,7;"/></g><!--link GMN69 to CostsModule--><g class="link" data-entity-1="ent0070" data-entity-2="ent0026" data-link-type="association" data-source-line="106" id="lnk71"><path d="M1618.5,88.3769 C1618.5,98.0594 1618.5,110.05 1618.5,122.6991 C1618.5,129.0236 1618.5,135.5127 1618.5,141.9603 C1618.5,143.5722 1618.5,145.1814 1618.5,146.7849 C1618.5,147.5866 1618.5,148.3869 1618.5,149.1853 C1618.5,149.3849 1618.5,149.5844 1618.5,149.7838" fill="none" id="GMN69-CostsModule" style="stroke:#181818;stroke-width:1;stroke-dasharray:7,7;"/></g><?plantuml-src dLTDRnCn4BtdLupA0JYa5BYYIb5AKP5QggGL1yJ1tPqaLZVsOiys2eZ_pgopsTXhEwt88TBElFbyExCsIQeGRhxTNTt2jL1YYMjK19FRAnZ3n1GhILXGOn3UV7ZtyUreP1-bgeKHQtWGnUFIw4QLKrrf0wyktSz3bBWGJKMNMj5S_aPuVvPMTlPdxkT1AgcGjZM2DhJIdgBcq9pgdBQSlE44XLfME1frSZX95NG2dpxDzjZpS_Wp0kWDlWZ2ZTXQkDPbK-4920jxsKxay0159QmzuAUSlj5LXIOmEOXJHdCqJx88WtIo5FmMZPMMK1MOiepLAIStWf9nFNd2R4w26eUPeQsrAj4adEHH2PUV5KdQ-kOxIG9wZIHAGI8s2JLi-dVaipdXnbF0vKwIOdAd6V0u5CO6VXi2IGpDy9TJnWw6t4NIo8GpNyXbbhTdC7467WE-8Db7TXh1VN74rbIlrqALFbsTACLNfneG5aaJ9du7Gb42d24jgqsu-6uaIRKyxYaBIZYqa-AHAxJDEgpQboVCF3O2IO886qwD4wH9iD7C36GHF2pU9bzU9yysp6R6nLNnkbzf_4Me14bko4hMbbNnLeRn-3onUWUI09MCd5VwjdsxNmQFbblWnY7lK0b5Hm1fLwvDtN8SDccuyfoRuMOBdZr4iZavSBYuSWuyWxxE5s07coOMflhdFyBunqgM9QgVkJP2tk-GS3__LE187pfmVEtNuv2mQEKv1z5Y2mK-9abQ7dviK-Mj1hif6zgtwTlpNEJ_DneI5JXv8IBWigFA9YPhi1Yxf8C5w3yUz9bM9pLmUdfq68-PvTy7tgnA4mBf6lHYS28-B1wOpkulGDTeTeMpPjPmNzO8rfqDeQbvVh1Lt4pkvY0LuN87XWMV_GahFgUJyPOPNn0ApajQoo0c4l293_9sX3mARKvXPlxvRZzNKBZnRBeuw_usu0NHYqLxo-1WxJs7OQoxsDrCe1qwBccyxB1jFRgXlWY3lngqD3POLrjNnYvW3_YAD2U3V64fkWbmAE6IErfESFuvl7nGIbiBAbQCWowjDjgbDEkDu4lQeStJeFPYnRSUJ2J6dtvWNSbDM6PpiLvdfw8gcgeDmjHgqvuRsiGU-6yZIrfngTQrwAgZc84RoVBkizE2zwk1KVSMo-uDQ8S97cJLfi8lo48Vyla7?></g></svg>