<?plantuml 1.2026.2?><svg xmlns="http://www.w3.org/2000/svg" xmlns:xlink="http://www.w3.org/1999/xlink" contentStyleType="text/css" data-diagram-type="CLASS" height="788px" preserveAspectRatio="none" style="width:2548px;height:788px;background:#FFFFFF;" version="1.1" viewBox="0 0 2548 788" width="2548px" zoomAndPan="magnify"><title>NOTIP Management API - Architecture (1/3)</title><defs/><g><g class="title" data-source-line="1"><text fill="#000000" font-family="sans-serif" font-size="14" font-weight="bold" lengthAdjust="spacing" textLength="343.916" x="1095.27" y="22.9951">NOTIP Management API - Architecture (1/3)</text></g><!--cluster NOTIP Management API--><g class="cluster" data-qualified-name="NOTIP Management API" data-source-line="11" id="ent0002"><rect fill="none" height="666.36" rx="2.5" ry="2.5" style="stroke:#181818;stroke-width:1;" width="2307" x="7" y="116.2969"/><text fill="#000000" font-family="sans-serif" font-size="10" font-weight="bold" lengthAdjust="spacing" textLength="134.1016" x="1093.4492" y="127.5791">NOTIP Management API</text></g><!--cluster AuthModule--><g class="cluster" data-qualified-name="NOTIP Management API.AuthModule" data-source-line="48" id="ent0011"><rect fill="none" height="147.86" rx="2.5" ry="2.5" style="stroke:#000000;stroke-width:1.5;" width="884" x="1398" y="261.2969"/><text fill="#000000" font-family="sans-serif" font-size="10" font-weight="bold" lengthAdjust="spacing" textLength="71.5479" x="1804.2261" y="272.5791">Auth Module</text></g><!--cluster AdminModule--><g class="cluster" data-qualified-name="NOTIP Management API.AdminModule" data-source-line="58" id="ent0019"><rect fill="none" height="332.36" rx="2.5" ry="2.5" style="stroke:#000000;stroke-width:1.5;" width="574" x="336" y="261.2969"/><text fill="#000000" font-family="sans-serif" font-size="10" font-weight="bold" lengthAdjust="spacing" textLength="80.6543" x="582.6729" y="272.5791">Admin Module</text></g><!--cluster MetricsModule--><g class="cluster" data-qualified-name="NOTIP Management API.MetricsModule" data-source-line="68" id="ent0027"><rect fill="none" height="239.86" rx="2.5" ry="2.5" style="stroke:#000000;stroke-width:1.5;" width="162" x="1078" y="261.2969"/><text fill="#000000" font-family="sans-serif" font-size="10" font-weight="bold" lengthAdjust="spacing" textLength="86.543" x="1115.7285" y="272.5791">Metrics Module</text></g><!--class AppModule--><g class="entity" data-qualified-name="NOTIP Management API.AppModule" data-source-line="12" id="ent0003"><rect fill="#F1F1F1" height="90.5625" rx="2.5" ry="2.5" style="stroke:#181818;stroke-width:0.5;" width="413.5215" x="697" y="146.2969"/><ellipse cx="872.0615" cy="160.2969" fill="#ADD1B2" rx="9" ry="9" style="stroke:#181818;stroke-width:1;"/><path d="M873.3428,163.5938 Q872.999,163.7656 872.624,163.8438 Q872.249,163.9375 871.8271,163.9375 Q870.3584,163.9375 869.5771,162.9688 Q868.8115,162 868.8115,160.1563 Q868.8115,158.3125 869.5771,157.3438 Q870.3584,156.375 871.8271,156.375 Q872.249,156.375 872.624,156.4688 Q873.0146,156.5469 873.3428,156.7188 L873.3428,158.3281 Q872.9678,157.9844 872.6084,157.8281 Q872.2646,157.6719 871.9053,157.6719 Q871.1084,157.6719 870.7021,158.2969 Q870.2959,158.9219 870.2959,160.1563 Q870.2959,161.3906 870.7021,162.0156 Q871.1084,162.6406 871.9053,162.6406 Q872.2646,162.6406 872.6084,162.4844 Q872.9678,162.3281 873.3428,161.9844 L873.3428,163.5938 Z " fill="#000000"/><text fill="#000000" font-family="sans-serif" font-size="10" lengthAdjust="spacing" textLength="55.8984" x="889.5615" y="163.7588">AppModule</text><line style="stroke:#181818;stroke-width:0.5;" x1="698" x2="1109.5215" y1="174.2969" y2="174.2969"/><g data-visibility-modifier="PUBLIC_FIELD"><ellipse cx="708" cy="185.6172" fill="none" rx="3" ry="3" style="stroke:#038048;stroke-width:1;"/></g><text fill="#000000" font-family="sans-serif" font-size="10" lengthAdjust="spacing" textLength="389.5215" x="715" y="187.5791">imports: ConfigModule, EventEmitterModule, MetricsModule, TypeOrmModule</text><g data-visibility-modifier="PUBLIC_FIELD"><ellipse cx="708" cy="197.2578" fill="none" rx="3" ry="3" style="stroke:#038048;stroke-width:1;"/></g><text fill="#000000" font-family="sans-serif" font-size="10" lengthAdjust="spacing" textLength="343.1787" x="715" y="199.2197">imports: AuthModule, AdminModule, GatewaysModule, AlertsModule</text><g data-visibility-modifier="PUBLIC_FIELD"><ellipse cx="708" cy="208.8984" fill="none" rx="3" ry="3" style="stroke:#038048;stroke-width:1;"/></g><text fill="#000000" font-family="sans-serif" font-size="10" lengthAdjust="spacing" textLength="380.6299" x="715" y="210.8604">imports: ThresholdsModule, AuditLogModule, ApiClientModule, CostsModule</text><g data-visibility-modifier="PUBLIC_FIELD"><ellipse cx="708" cy="220.5391" fill="none" rx="3" ry="3" style="stroke:#038048;stroke-width:1;"/></g><text fill="#000000" font-family="sans-serif" font-size="10" lengthAdjust="spacing" textLength="269.8145" x="715" y="222.501">imports: KeysModule, UsersModule, CommandModule</text><line style="stroke:#181818;stroke-width:0.5;" x1="698" x2="1109.5215" y1="228.8594" y2="228.8594"/></g><!--class AppController--><g class="entity" data-qualified-name="NOTIP Management API.AppController" data-source-line="19" id="ent0004"><rect fill="#F1F1F1" height="67.2813" rx="2.5" ry="2.5" style="stroke:#181818;stroke-width:0.5;" width="131.0605" x="170.5" y="250.1569"/><ellipse cx="198.8519" cy="264.1569" fill="#ADD1B2" rx="9" ry="9" style="stroke:#181818;stroke-width:1;"/><path d="M200.1331,267.4538 Q199.7894,267.6256 199.4144,267.7038 Q199.0394,267.7975 198.6175,267.7975 Q197.1487,267.7975 196.3675,266.8288 Q195.6019,265.86 195.6019,264.0163 Q195.6019,262.1725 196.3675,261.2038 Q197.1487,260.235 198.6175,260.235 Q199.0394,260.235 199.4144,260.3288 Q199.805,260.4069 200.1331,260.5788 L200.1331,262.1881 Q199.7581,261.8444 199.3987,261.6881 Q199.055,261.5319 198.6956,261.5319 Q197.8987,261.5319 197.4925,262.1569 Q197.0862,262.7819 197.0862,264.0163 Q197.0862,265.2506 197.4925,265.8756 Q197.8987,266.5006 198.6956,266.5006 Q199.055,266.5006 199.3987,266.3444 Q199.7581,266.1881 200.1331,265.8444 L200.1331,267.4538 Z " fill="#000000"/><text fill="#000000" font-family="sans-serif" font-size="10" lengthAdjust="spacing" textLength="68.9453" x="214.2634" y="267.6188">AppController</text><line style="stroke:#181818;stroke-width:0.5;" x1="171.5" x2="300.5605" y1="278.1569" y2="278.1569"/><line style="stroke:#181818;stroke-width:0.5;" x1="171.5" x2="300.5605" y1="286.1569" y2="286.1569"/><g data-visibility-modifier="PUBLIC_METHOD"><ellipse cx="181.5" cy="297.4772" fill="#84BE84" rx="3" ry="3" style="stroke:#038048;stroke-width:1;"/></g><text fill="#000000" font-family="sans-serif" font-size="10" lengthAdjust="spacing" textLength="84.8242" x="188.5" y="299.4391">getHello(): string</text><g data-visibility-modifier="PUBLIC_METHOD"><ellipse cx="181.5" cy="309.1178" fill="#84BE84" rx="3" ry="3" style="stroke:#038048;stroke-width:1;"/></g><text fill="#000000" font-family="sans-serif" font-size="10" lengthAdjust="spacing" textLength="107.0605" x="188.5" y="311.0797">getHealth(): {status}</text></g><!--class AppService--><g class="entity" data-qualified-name="NOTIP Management API.AppService" data-source-line="24" id="ent0005"><rect fill="#F1F1F1" height="55.6406" rx="2.5" ry="2.5" style="stroke:#181818;stroke-width:0.5;" width="108.8242" x="191.5" y="335.1569"/><ellipse cx="215.4485" cy="349.1569" fill="#ADD1B2" rx="9" ry="9" style="stroke:#181818;stroke-width:1;"/><path d="M216.7298,352.4538 Q216.386,352.6256 216.011,352.7038 Q215.636,352.7975 215.2142,352.7975 Q213.7454,352.7975 212.9642,351.8288 Q212.1985,350.86 212.1985,349.0163 Q212.1985,347.1725 212.9642,346.2038 Q213.7454,345.235 215.2142,345.235 Q215.636,345.235 216.011,345.3288 Q216.4017,345.4069 216.7298,345.5788 L216.7298,347.1881 Q216.3548,346.8444 215.9954,346.6881 Q215.6517,346.5319 215.2923,346.5319 Q214.4954,346.5319 214.0892,347.1569 Q213.6829,347.7819 213.6829,349.0163 Q213.6829,350.2506 214.0892,350.8756 Q214.4954,351.5006 215.2923,351.5006 Q215.6517,351.5006 215.9954,351.3444 Q216.3548,351.1881 216.7298,350.8444 L216.7298,352.4538 Z " fill="#000000"/><text fill="#000000" font-family="sans-serif" font-size="10" lengthAdjust="spacing" textLength="56.4941" x="229.8815" y="352.6188">AppService</text><line style="stroke:#181818;stroke-width:0.5;" x1="192.5" x2="299.3242" y1="363.1569" y2="363.1569"/><line style="stroke:#181818;stroke-width:0.5;" x1="192.5" x2="299.3242" y1="371.1569" y2="371.1569"/><g data-visibility-modifier="PUBLIC_METHOD"><ellipse cx="202.5" cy="382.4772" fill="#84BE84" rx="3" ry="3" style="stroke:#038048;stroke-width:1;"/></g><text fill="#000000" font-family="sans-serif" font-size="10" lengthAdjust="spacing" textLength="84.8242" x="209.5" y="384.4391">getHello(): string</text></g><!--class TenantEntity--><g class="entity" data-qualified-name="NOTIP Management API.TenantEntity" data-source-line="28" id="ent0006"><rect fill="#F1F1F1" height="148.7656" rx="2.5" ry="2.5" style="stroke:#181818;stroke-width:0.5;" width="188.8682" x="1554.5" y="617.6569"/><ellipse cx="1613.0942" cy="631.6569" fill="#ADD1B2" rx="9" ry="9" style="stroke:#181818;stroke-width:1;"/><path d="M1614.3755,634.9538 Q1614.0317,635.1256 1613.6567,635.2038 Q1613.2817,635.2975 1612.8599,635.2975 Q1611.3911,635.2975 1610.6099,634.3288 Q1609.8442,633.36 1609.8442,631.5163 Q1609.8442,629.6725 1610.6099,628.7038 Q1611.3911,627.735 1612.8599,627.735 Q1613.2817,627.735 1613.6567,627.8288 Q1614.0474,627.9069 1614.3755,628.0788 L1614.3755,629.6881 Q1614.0005,629.3444 1613.6411,629.1881 Q1613.2974,629.0319 1612.938,629.0319 Q1612.1411,629.0319 1611.7349,629.6569 Q1611.3286,630.2819 1611.3286,631.5163 Q1611.3286,632.7506 1611.7349,633.3756 Q1612.1411,634.0006 1612.938,634.0006 Q1613.2974,634.0006 1613.6411,633.8444 Q1614.0005,633.6881 1614.3755,633.3444 L1614.3755,634.9538 Z " fill="#000000"/><text fill="#000000" font-family="sans-serif" font-size="10" lengthAdjust="spacing" textLength="64.1797" x="1630.5942" y="635.1188">TenantEntity</text><line style="stroke:#181818;stroke-width:0.5;" x1="1555.5" x2="1742.3682" y1="645.6569" y2="645.6569"/><g data-visibility-modifier="PUBLIC_FIELD"><ellipse cx="1565.5" cy="656.9772" fill="none" rx="3" ry="3" style="stroke:#038048;stroke-width:1;"/></g><text fill="#000000" font-family="sans-serif" font-size="10" lengthAdjust="spacing" textLength="44.3799" x="1572.5" y="658.9391">id: string</text><g data-visibility-modifier="PUBLIC_FIELD"><ellipse cx="1565.5" cy="668.6178" fill="none" rx="3" ry="3" style="stroke:#038048;stroke-width:1;"/></g><text fill="#000000" font-family="sans-serif" font-size="10" lengthAdjust="spacing" textLength="63.6133" x="1572.5" y="670.5797">name: string</text><g data-visibility-modifier="PUBLIC_FIELD"><ellipse cx="1565.5" cy="680.2584" fill="none" rx="3" ry="3" style="stroke:#038048;stroke-width:1;"/></g><text fill="#000000" font-family="sans-serif" font-size="10" lengthAdjust="spacing" textLength="104.126" x="1572.5" y="682.2204">status: TenantStatus</text><g data-visibility-modifier="PUBLIC_FIELD"><ellipse cx="1565.5" cy="691.8991" fill="none" rx="3" ry="3" style="stroke:#038048;stroke-width:1;"/></g><text fill="#000000" font-family="sans-serif" font-size="10" lengthAdjust="spacing" textLength="164.8682" x="1572.5" y="693.861">suspensionIntervalDays: number</text><g data-visibility-modifier="PUBLIC_FIELD"><ellipse cx="1565.5" cy="703.5397" fill="none" rx="3" ry="3" style="stroke:#038048;stroke-width:1;"/></g><text fill="#000000" font-family="sans-serif" font-size="10" lengthAdjust="spacing" textLength="109.624" x="1572.5" y="705.5016">suspensionUntil: Date</text><g data-visibility-modifier="PUBLIC_FIELD"><ellipse cx="1565.5" cy="715.1803" fill="none" rx="3" ry="3" style="stroke:#038048;stroke-width:1;"/></g><text fill="#000000" font-family="sans-serif" font-size="10" lengthAdjust="spacing" textLength="79.5215" x="1572.5" y="717.1422">createdAt: Date</text><g data-visibility-modifier="PUBLIC_FIELD"><ellipse cx="1565.5" cy="726.8209" fill="none" rx="3" ry="3" style="stroke:#038048;stroke-width:1;"/></g><text fill="#000000" font-family="sans-serif" font-size="10" lengthAdjust="spacing" textLength="82.793" x="1572.5" y="728.7829">updatedAt: Date</text><g data-visibility-modifier="PUBLIC_FIELD"><ellipse cx="1565.5" cy="738.4616" fill="none" rx="3" ry="3" style="stroke:#038048;stroke-width:1;"/></g><text fill="#000000" font-family="sans-serif" font-size="10" lengthAdjust="spacing" textLength="93.3594" x="1572.5" y="740.4235">users: UserEntity[]</text><g data-visibility-modifier="PUBLIC_FIELD"><ellipse cx="1565.5" cy="750.1022" fill="none" rx="3" ry="3" style="stroke:#038048;stroke-width:1;"/></g><text fill="#000000" font-family="sans-serif" font-size="10" lengthAdjust="spacing" textLength="135.7031" x="1572.5" y="752.0641">gateways: GatewayEntity[]</text><line style="stroke:#181818;stroke-width:0.5;" x1="1555.5" x2="1742.3682" y1="758.4225" y2="758.4225"/></g><!--class EnvValidation--><g class="entity" data-qualified-name="NOTIP Management API.EnvValidation" data-source-line="40" id="ent0007"><rect fill="#F1F1F1" height="55.6406" rx="2.5" ry="2.5" style="stroke:#181818;stroke-width:0.5;" width="160.7236" x="400.5" y="163.7969"/><ellipse cx="442.7466" cy="177.7969" fill="#ADD1B2" rx="9" ry="9" style="stroke:#181818;stroke-width:1;"/><path d="M444.0278,181.0938 Q443.6841,181.2656 443.3091,181.3438 Q442.9341,181.4375 442.5122,181.4375 Q441.0435,181.4375 440.2622,180.4688 Q439.4966,179.5 439.4966,177.6563 Q439.4966,175.8125 440.2622,174.8438 Q441.0435,173.875 442.5122,173.875 Q442.9341,173.875 443.3091,173.9688 Q443.6997,174.0469 444.0278,174.2188 L444.0278,175.8281 Q443.6528,175.4844 443.2935,175.3281 Q442.9497,175.1719 442.5903,175.1719 Q441.7935,175.1719 441.3872,175.7969 Q440.981,176.4219 440.981,177.6563 Q440.981,178.8906 441.3872,179.5156 Q441.7935,180.1406 442.5903,180.1406 Q442.9497,180.1406 443.2935,179.9844 Q443.6528,179.8281 444.0278,179.4844 L444.0278,181.0938 Z " fill="#000000"/><text fill="#000000" font-family="sans-serif" font-size="10" lengthAdjust="spacing" textLength="68.7305" x="460.2466" y="181.2588">EnvValidation</text><line style="stroke:#181818;stroke-width:0.5;" x1="401.5" x2="560.2236" y1="191.7969" y2="191.7969"/><line style="stroke:#181818;stroke-width:0.5;" x1="401.5" x2="560.2236" y1="199.7969" y2="199.7969"/><g data-visibility-modifier="PUBLIC_METHOD"><ellipse cx="411.5" cy="211.1172" fill="#84BE84" rx="3" ry="3" style="stroke:#038048;stroke-width:1;"/></g><text fill="#000000" font-family="sans-serif" font-size="10" lengthAdjust="spacing" textLength="136.7236" x="418.5" y="213.0791">validate(config): AppConfig</text></g><!--class MetricsInterceptor--><g class="entity" data-qualified-name="NOTIP Management API.MetricsInterceptor" data-source-line="44" id="ent0008"><rect fill="#F1F1F1" height="44" rx="2.5" ry="2.5" style="stroke:#181818;stroke-width:0.5;" width="119.9189" x="934" y="261.6569"/><ellipse cx="947" cy="275.6569" fill="#ADD1B2" rx="9" ry="9" style="stroke:#181818;stroke-width:1;"/><path d="M948.2813,278.9538 Q947.9375,279.1256 947.5625,279.2038 Q947.1875,279.2975 946.7656,279.2975 Q945.2969,279.2975 944.5156,278.3288 Q943.75,277.36 943.75,275.5163 Q943.75,273.6725 944.5156,272.7038 Q945.2969,271.735 946.7656,271.735 Q947.1875,271.735 947.5625,271.8288 Q947.9531,271.9069 948.2813,272.0788 L948.2813,273.6881 Q947.9063,273.3444 947.5469,273.1881 Q947.2031,273.0319 946.8438,273.0319 Q946.0469,273.0319 945.6406,273.6569 Q945.2344,274.2819 945.2344,275.5163 Q945.2344,276.7506 945.6406,277.3756 Q946.0469,278.0006 946.8438,278.0006 Q947.2031,278.0006 947.5469,277.8444 Q947.9063,277.6881 948.2813,277.3444 L948.2813,278.9538 Z " fill="#000000"/><text fill="#000000" font-family="sans-serif" font-size="10" lengthAdjust="spacing" textLength="91.9189" x="959" y="279.1188">MetricsInterceptor</text><line style="stroke:#181818;stroke-width:0.5;" x1="935" x2="1052.9189" y1="289.6569" y2="289.6569"/><line style="stroke:#181818;stroke-width:0.5;" x1="935" x2="1052.9189" y1="297.6569" y2="297.6569"/></g><!--class LastAccessInterceptor--><g class="entity" data-qualified-name="NOTIP Management API.LastAccessInterceptor" data-source-line="45" id="ent0009"><rect fill="#F1F1F1" height="44" rx="2.5" ry="2.5" style="stroke:#181818;stroke-width:0.5;" width="138.8594" x="23.5" y="261.6569"/><ellipse cx="36.5" cy="275.6569" fill="#ADD1B2" rx="9" ry="9" style="stroke:#181818;stroke-width:1;"/><path d="M37.7813,278.9538 Q37.4375,279.1256 37.0625,279.2038 Q36.6875,279.2975 36.2656,279.2975 Q34.7969,279.2975 34.0156,278.3288 Q33.25,277.36 33.25,275.5163 Q33.25,273.6725 34.0156,272.7038 Q34.7969,271.735 36.2656,271.735 Q36.6875,271.735 37.0625,271.8288 Q37.4531,271.9069 37.7813,272.0788 L37.7813,273.6881 Q37.4063,273.3444 37.0469,273.1881 Q36.7031,273.0319 36.3438,273.0319 Q35.5469,273.0319 35.1406,273.6569 Q34.7344,274.2819 34.7344,275.5163 Q34.7344,276.7506 35.1406,277.3756 Q35.5469,278.0006 36.3438,278.0006 Q36.7031,278.0006 37.0469,277.8444 Q37.4063,277.6881 37.7813,277.3444 L37.7813,278.9538 Z " fill="#000000"/><text fill="#000000" font-family="sans-serif" font-size="10" lengthAdjust="spacing" textLength="110.8594" x="48.5" y="279.1188">LastAccessInterceptor</text><line style="stroke:#181818;stroke-width:0.5;" x1="24.5" x2="161.3594" y1="289.6569" y2="289.6569"/><line style="stroke:#181818;stroke-width:0.5;" x1="24.5" x2="161.3594" y1="297.6569" y2="297.6569"/></g><!--class AuditInterceptor--><g class="entity" data-qualified-name="NOTIP Management API.AuditInterceptor" data-source-line="46" id="ent0010"><rect fill="#F1F1F1" height="44" rx="2.5" ry="2.5" style="stroke:#181818;stroke-width:0.5;" width="109.8457" x="1264" y="341.1569"/><ellipse cx="1277" cy="355.1569" fill="#ADD1B2" rx="9" ry="9" style="stroke:#181818;stroke-width:1;"/><path d="M1278.2813,358.4538 Q1277.9375,358.6256 1277.5625,358.7038 Q1277.1875,358.7975 1276.7656,358.7975 Q1275.2969,358.7975 1274.5156,357.8288 Q1273.75,356.86 1273.75,355.0163 Q1273.75,353.1725 1274.5156,352.2038 Q1275.2969,351.235 1276.7656,351.235 Q1277.1875,351.235 1277.5625,351.3288 Q1277.9531,351.4069 1278.2813,351.5788 L1278.2813,353.1881 Q1277.9063,352.8444 1277.5469,352.6881 Q1277.2031,352.5319 1276.8438,352.5319 Q1276.0469,352.5319 1275.6406,353.1569 Q1275.2344,353.7819 1275.2344,355.0163 Q1275.2344,356.2506 1275.6406,356.8756 Q1276.0469,357.5006 1276.8438,357.5006 Q1277.2031,357.5006 1277.5469,357.3444 Q1277.9063,357.1881 1278.2813,356.8444 L1278.2813,358.4538 Z " fill="#000000"/><text fill="#000000" font-family="sans-serif" font-size="10" lengthAdjust="spacing" textLength="81.8457" x="1289" y="358.6188">AuditInterceptor</text><line style="stroke:#181818;stroke-width:0.5;" x1="1265" x2="1372.8457" y1="369.1569" y2="369.1569"/><line style="stroke:#181818;stroke-width:0.5;" x1="1265" x2="1372.8457" y1="377.1569" y2="377.1569"/></g><!--class UserEntity--><g class="entity" data-qualified-name="NOTIP Management API.UserEntity" data-source-line="81" id="ent0037"><rect fill="#F1F1F1" height="44" rx="2.5" ry="2.5" style="stroke:#181818;stroke-width:0.5;" width="79.9873" x="354" y="670.1569"/><ellipse cx="367" cy="684.1569" fill="#ADD1B2" rx="9" ry="9" style="stroke:#181818;stroke-width:1;"/><path d="M368.2813,687.4538 Q367.9375,687.6256 367.5625,687.7038 Q367.1875,687.7975 366.7656,687.7975 Q365.2969,687.7975 364.5156,686.8288 Q363.75,685.86 363.75,684.0163 Q363.75,682.1725 364.5156,681.2038 Q365.2969,680.235 366.7656,680.235 Q367.1875,680.235 367.5625,680.3288 Q367.9531,680.4069 368.2813,680.5788 L368.2813,682.1881 Q367.9063,681.8444 367.5469,681.6881 Q367.2031,681.5319 366.8438,681.5319 Q366.0469,681.5319 365.6406,682.1569 Q365.2344,682.7819 365.2344,684.0163 Q365.2344,685.2506 365.6406,685.8756 Q366.0469,686.5006 366.8438,686.5006 Q367.2031,686.5006 367.5469,686.3444 Q367.9063,686.1881 368.2813,685.8444 L368.2813,687.4538 Z " fill="#000000"/><text fill="#000000" font-family="sans-serif" font-size="10" lengthAdjust="spacing" textLength="51.9873" x="379" y="687.6188">UserEntity</text><line style="stroke:#181818;stroke-width:0.5;" x1="355" x2="432.9873" y1="698.1569" y2="698.1569"/><line style="stroke:#181818;stroke-width:0.5;" x1="355" x2="432.9873" y1="706.1569" y2="706.1569"/></g><!--class AuditLogService--><g class="entity" data-qualified-name="NOTIP Management API.AuditLogService" data-source-line="82" id="ent0039"><rect fill="#F1F1F1" height="44" rx="2.5" ry="2.5" style="stroke:#181818;stroke-width:0.5;" width="109.2207" x="1355.5" y="433.1569"/><ellipse cx="1368.5" cy="447.1569" fill="#ADD1B2" rx="9" ry="9" style="stroke:#181818;stroke-width:1;"/><path d="M1369.7813,450.4538 Q1369.4375,450.6256 1369.0625,450.7038 Q1368.6875,450.7975 1368.2656,450.7975 Q1366.7969,450.7975 1366.0156,449.8288 Q1365.25,448.86 1365.25,447.0163 Q1365.25,445.1725 1366.0156,444.2038 Q1366.7969,443.235 1368.2656,443.235 Q1368.6875,443.235 1369.0625,443.3288 Q1369.4531,443.4069 1369.7813,443.5788 L1369.7813,445.1881 Q1369.4063,444.8444 1369.0469,444.6881 Q1368.7031,444.5319 1368.3438,444.5319 Q1367.5469,444.5319 1367.1406,445.1569 Q1366.7344,445.7819 1366.7344,447.0163 Q1366.7344,448.2506 1367.1406,448.8756 Q1367.5469,449.5006 1368.3438,449.5006 Q1368.7031,449.5006 1369.0469,449.3444 Q1369.4063,449.1881 1369.7813,448.8444 L1369.7813,450.4538 Z " fill="#000000"/><text fill="#000000" font-family="sans-serif" font-size="10" lengthAdjust="spacing" textLength="81.2207" x="1380.5" y="450.6188">AuditLogService</text><line style="stroke:#181818;stroke-width:0.5;" x1="1356.5" x2="1463.7207" y1="461.1569" y2="461.1569"/><line style="stroke:#181818;stroke-width:0.5;" x1="1356.5" x2="1463.7207" y1="469.1569" y2="469.1569"/></g><!--class JwtStrategy--><g class="entity" data-qualified-name="NOTIP Management API.AuthModule.JwtStrategy" data-source-line="49" id="ent0012"><rect fill="#F1F1F1" height="44" rx="2.5" ry="2.5" style="stroke:#181818;stroke-width:0.5;" width="85.8955" x="2172" y="341.1569"/><ellipse cx="2185" cy="355.1569" fill="#ADD1B2" rx="9" ry="9" style="stroke:#181818;stroke-width:1;"/><path d="M2186.2813,358.4538 Q2185.9375,358.6256 2185.5625,358.7038 Q2185.1875,358.7975 2184.7656,358.7975 Q2183.2969,358.7975 2182.5156,357.8288 Q2181.75,356.86 2181.75,355.0163 Q2181.75,353.1725 2182.5156,352.2038 Q2183.2969,351.235 2184.7656,351.235 Q2185.1875,351.235 2185.5625,351.3288 Q2185.9531,351.4069 2186.2813,351.5788 L2186.2813,353.1881 Q2185.9063,352.8444 2185.5469,352.6881 Q2185.2031,352.5319 2184.8438,352.5319 Q2184.0469,352.5319 2183.6406,353.1569 Q2183.2344,353.7819 2183.2344,355.0163 Q2183.2344,356.2506 2183.6406,356.8756 Q2184.0469,357.5006 2184.8438,357.5006 Q2185.2031,357.5006 2185.5469,357.3444 Q2185.9063,357.1881 2186.2813,356.8444 L2186.2813,358.4538 Z " fill="#000000"/><text fill="#000000" font-family="sans-serif" font-size="10" lengthAdjust="spacing" textLength="57.8955" x="2197" y="358.6188">JwtStrategy</text><line style="stroke:#181818;stroke-width:0.5;" x1="2173" x2="2256.8955" y1="369.1569" y2="369.1569"/><line style="stroke:#181818;stroke-width:0.5;" x1="2173" x2="2256.8955" y1="377.1569" y2="377.1569"/></g><!--class AuthController--><g class="entity" data-qualified-name="NOTIP Management API.AuthModule.AuthController" data-source-line="50" id="ent0013"><rect fill="#F1F1F1" height="44" rx="2.5" ry="2.5" style="stroke:#181818;stroke-width:0.5;" width="100.8467" x="2062.5" y="341.1569"/><ellipse cx="2075.5" cy="355.1569" fill="#ADD1B2" rx="9" ry="9" style="stroke:#181818;stroke-width:1;"/><path d="M2076.7813,358.4538 Q2076.4375,358.6256 2076.0625,358.7038 Q2075.6875,358.7975 2075.2656,358.7975 Q2073.7969,358.7975 2073.0156,357.8288 Q2072.25,356.86 2072.25,355.0163 Q2072.25,353.1725 2073.0156,352.2038 Q2073.7969,351.235 2075.2656,351.235 Q2075.6875,351.235 2076.0625,351.3288 Q2076.4531,351.4069 2076.7813,351.5788 L2076.7813,353.1881 Q2076.4063,352.8444 2076.0469,352.6881 Q2075.7031,352.5319 2075.3438,352.5319 Q2074.5469,352.5319 2074.1406,353.1569 Q2073.7344,353.7819 2073.7344,355.0163 Q2073.7344,356.2506 2074.1406,356.8756 Q2074.5469,357.5006 2075.3438,357.5006 Q2075.7031,357.5006 2076.0469,357.3444 Q2076.4063,357.1881 2076.7813,356.8444 L2076.7813,358.4538 Z " fill="#000000"/><text fill="#000000" font-family="sans-serif" font-size="10" lengthAdjust="spacing" textLength="72.8467" x="2087.5" y="358.6188">AuthController</text><line style="stroke:#181818;stroke-width:0.5;" x1="2063.5" x2="2162.3467" y1="369.1569" y2="369.1569"/><line style="stroke:#181818;stroke-width:0.5;" x1="2063.5" x2="2162.3467" y1="377.1569" y2="377.1569"/></g><!--class ImpersonationService--><g class="entity" data-qualified-name="NOTIP Management API.AuthModule.ImpersonationService" data-source-line="51" id="ent0014"><rect fill="#F1F1F1" height="44" rx="2.5" ry="2.5" style="stroke:#181818;stroke-width:0.5;" width="137.209" x="1917.5" y="341.1569"/><ellipse cx="1930.5" cy="355.1569" fill="#ADD1B2" rx="9" ry="9" style="stroke:#181818;stroke-width:1;"/><path d="M1931.7813,358.4538 Q1931.4375,358.6256 1931.0625,358.7038 Q1930.6875,358.7975 1930.2656,358.7975 Q1928.7969,358.7975 1928.0156,357.8288 Q1927.25,356.86 1927.25,355.0163 Q1927.25,353.1725 1928.0156,352.2038 Q1928.7969,351.235 1930.2656,351.235 Q1930.6875,351.235 1931.0625,351.3288 Q1931.4531,351.4069 1931.7813,351.5788 L1931.7813,353.1881 Q1931.4063,352.8444 1931.0469,352.6881 Q1930.7031,352.5319 1930.3438,352.5319 Q1929.5469,352.5319 1929.1406,353.1569 Q1928.7344,353.7819 1928.7344,355.0163 Q1928.7344,356.2506 1929.1406,356.8756 Q1929.5469,357.5006 1930.3438,357.5006 Q1930.7031,357.5006 1931.0469,357.3444 Q1931.4063,357.1881 1931.7813,356.8444 L1931.7813,358.4538 Z " fill="#000000"/><text fill="#000000" font-family="sans-serif" font-size="10" lengthAdjust="spacing" textLength="109.209" x="1942.5" y="358.6188">ImpersonationService</text><line style="stroke:#181818;stroke-width:0.5;" x1="1918.5" x2="2053.709" y1="369.1569" y2="369.1569"/><line style="stroke:#181818;stroke-width:0.5;" x1="1918.5" x2="2053.709" y1="377.1569" y2="377.1569"/></g><!--class JwtAuthGuard--><g class="entity" data-qualified-name="NOTIP Management API.AuthModule.JwtAuthGuard" data-source-line="52" id="ent0015"><rect fill="#F1F1F1" height="44" rx="2.5" ry="2.5" style="stroke:#181818;stroke-width:0.5;" width="97.1602" x="1812.5" y="341.1569"/><ellipse cx="1825.5" cy="355.1569" fill="#ADD1B2" rx="9" ry="9" style="stroke:#181818;stroke-width:1;"/><path d="M1826.7813,358.4538 Q1826.4375,358.6256 1826.0625,358.7038 Q1825.6875,358.7975 1825.2656,358.7975 Q1823.7969,358.7975 1823.0156,357.8288 Q1822.25,356.86 1822.25,355.0163 Q1822.25,353.1725 1823.0156,352.2038 Q1823.7969,351.235 1825.2656,351.235 Q1825.6875,351.235 1826.0625,351.3288 Q1826.4531,351.4069 1826.7813,351.5788 L1826.7813,353.1881 Q1826.4063,352.8444 1826.0469,352.6881 Q1825.7031,352.5319 1825.3438,352.5319 Q1824.5469,352.5319 1824.1406,353.1569 Q1823.7344,353.7819 1823.7344,355.0163 Q1823.7344,356.2506 1824.1406,356.8756 Q1824.5469,357.5006 1825.3438,357.5006 Q1825.7031,357.5006 1826.0469,357.3444 Q1826.4063,357.1881 1826.7813,356.8444 L1826.7813,358.4538 Z " fill="#000000"/><text fill="#000000" font-family="sans-serif" font-size="10" lengthAdjust="spacing" textLength="69.1602" x="1837.5" y="358.6188">JwtAuthGuard</text><line style="stroke:#181818;stroke-width:0.5;" x1="1813.5" x2="1908.6602" y1="369.1569" y2="369.1569"/><line style="stroke:#181818;stroke-width:0.5;" x1="1813.5" x2="1908.6602" y1="377.1569" y2="377.1569"/></g><!--class RolesGuard--><g class="entity" data-qualified-name="NOTIP Management API.AuthModule.RolesGuard" data-source-line="53" id="ent0016"><rect fill="#F1F1F1" height="44" rx="2.5" ry="2.5" style="stroke:#181818;stroke-width:0.5;" width="85.8809" x="1718" y="341.1569"/><ellipse cx="1731" cy="355.1569" fill="#ADD1B2" rx="9" ry="9" style="stroke:#181818;stroke-width:1;"/><path d="M1732.2813,358.4538 Q1731.9375,358.6256 1731.5625,358.7038 Q1731.1875,358.7975 1730.7656,358.7975 Q1729.2969,358.7975 1728.5156,357.8288 Q1727.75,356.86 1727.75,355.0163 Q1727.75,353.1725 1728.5156,352.2038 Q1729.2969,351.235 1730.7656,351.235 Q1731.1875,351.235 1731.5625,351.3288 Q1731.9531,351.4069 1732.2813,351.5788 L1732.2813,353.1881 Q1731.9063,352.8444 1731.5469,352.6881 Q1731.2031,352.5319 1730.8438,352.5319 Q1730.0469,352.5319 1729.6406,353.1569 Q1729.2344,353.7819 1729.2344,355.0163 Q1729.2344,356.2506 1729.6406,356.8756 Q1730.0469,357.5006 1730.8438,357.5006 Q1731.2031,357.5006 1731.5469,357.3444 Q1731.9063,357.1881 1732.2813,356.8444 L1732.2813,358.4538 Z " fill="#000000"/><text fill="#000000" font-family="sans-serif" font-size="10" lengthAdjust="spacing" textLength="57.8809" x="1743" y="358.6188">RolesGuard</text><line style="stroke:#181818;stroke-width:0.5;" x1="1719" x2="1802.8809" y1="369.1569" y2="369.1569"/><line style="stroke:#181818;stroke-width:0.5;" x1="1719" x2="1802.8809" y1="377.1569" y2="377.1569"/></g><!--class AccessPolicyGuard--><g class="entity" data-qualified-name="NOTIP Management API.AuthModule.AccessPolicyGuard" data-source-line="54" id="ent0017"><rect fill="#F1F1F1" height="44" rx="2.5" ry="2.5" style="stroke:#181818;stroke-width:0.5;" width="122.2041" x="1588" y="341.1569"/><ellipse cx="1601" cy="355.1569" fill="#ADD1B2" rx="9" ry="9" style="stroke:#181818;stroke-width:1;"/><path d="M1602.2813,358.4538 Q1601.9375,358.6256 1601.5625,358.7038 Q1601.1875,358.7975 1600.7656,358.7975 Q1599.2969,358.7975 1598.5156,357.8288 Q1597.75,356.86 1597.75,355.0163 Q1597.75,353.1725 1598.5156,352.2038 Q1599.2969,351.235 1600.7656,351.235 Q1601.1875,351.235 1601.5625,351.3288 Q1601.9531,351.4069 1602.2813,351.5788 L1602.2813,353.1881 Q1601.9063,352.8444 1601.5469,352.6881 Q1601.2031,352.5319 1600.8438,352.5319 Q1600.0469,352.5319 1599.6406,353.1569 Q1599.2344,353.7819 1599.2344,355.0163 Q1599.2344,356.2506 1599.6406,356.8756 Q1600.0469,357.5006 1600.8438,357.5006 Q1601.2031,357.5006 1601.5469,357.3444 Q1601.9063,357.1881 1602.2813,356.8444 L1602.2813,358.4538 Z " fill="#000000"/><text fill="#000000" font-family="sans-serif" font-size="10" lengthAdjust="spacing" textLength="94.2041" x="1613" y="358.6188">AccessPolicyGuard</text><line style="stroke:#181818;stroke-width:0.5;" x1="1589" x2="1709.2041" y1="369.1569" y2="369.1569"/><line style="stroke:#181818;stroke-width:0.5;" x1="1589" x2="1709.2041" y1="377.1569" y2="377.1569"/></g><!--class BlockImpersonationGuard--><g class="entity" data-qualified-name="NOTIP Management API.AuthModule.BlockImpersonationGuard" data-source-line="55" id="ent0018"><rect fill="#F1F1F1" height="44" rx="2.5" ry="2.5" style="stroke:#181818;stroke-width:0.5;" width="157.9707" x="1422" y="341.1569"/><ellipse cx="1435" cy="355.1569" fill="#ADD1B2" rx="9" ry="9" style="stroke:#181818;stroke-width:1;"/><path d="M1436.2813,358.4538 Q1435.9375,358.6256 1435.5625,358.7038 Q1435.1875,358.7975 1434.7656,358.7975 Q1433.2969,358.7975 1432.5156,357.8288 Q1431.75,356.86 1431.75,355.0163 Q1431.75,353.1725 1432.5156,352.2038 Q1433.2969,351.235 1434.7656,351.235 Q1435.1875,351.235 1435.5625,351.3288 Q1435.9531,351.4069 1436.2813,351.5788 L1436.2813,353.1881 Q1435.9063,352.8444 1435.5469,352.6881 Q1435.2031,352.5319 1434.8438,352.5319 Q1434.0469,352.5319 1433.6406,353.1569 Q1433.2344,353.7819 1433.2344,355.0163 Q1433.2344,356.2506 1433.6406,356.8756 Q1434.0469,357.5006 1434.8438,357.5006 Q1435.2031,357.5006 1435.5469,357.3444 Q1435.9063,357.1881 1436.2813,356.8444 L1436.2813,358.4538 Z " fill="#000000"/><text fill="#000000" font-family="sans-serif" font-size="10" lengthAdjust="spacing" textLength="129.9707" x="1447" y="358.6188">BlockImpersonationGuard</text><line style="stroke:#181818;stroke-width:0.5;" x1="1423" x2="1578.9707" y1="369.1569" y2="369.1569"/><line style="stroke:#181818;stroke-width:0.5;" x1="1423" x2="1578.9707" y1="377.1569" y2="377.1569"/></g><!--class TenantsController--><g class="entity" data-qualified-name="NOTIP Management API.AdminModule.TenantsController" data-source-line="59" id="ent0020"><rect fill="#F1F1F1" height="44" rx="2.5" ry="2.5" style="stroke:#181818;stroke-width:0.5;" width="117.6045" x="675" y="341.1569"/><ellipse cx="688" cy="355.1569" fill="#ADD1B2" rx="9" ry="9" style="stroke:#181818;stroke-width:1;"/><path d="M689.2813,358.4538 Q688.9375,358.6256 688.5625,358.7038 Q688.1875,358.7975 687.7656,358.7975 Q686.2969,358.7975 685.5156,357.8288 Q684.75,356.86 684.75,355.0163 Q684.75,353.1725 685.5156,352.2038 Q686.2969,351.235 687.7656,351.235 Q688.1875,351.235 688.5625,351.3288 Q688.9531,351.4069 689.2813,351.5788 L689.2813,353.1881 Q688.9063,352.8444 688.5469,352.6881 Q688.2031,352.5319 687.8438,352.5319 Q687.0469,352.5319 686.6406,353.1569 Q686.2344,353.7819 686.2344,355.0163 Q686.2344,356.2506 686.6406,356.8756 Q687.0469,357.5006 687.8438,357.5006 Q688.2031,357.5006 688.5469,357.3444 Q688.9063,357.1881 689.2813,356.8444 L689.2813,358.4538 Z " fill="#000000"/><text fill="#000000" font-family="sans-serif" font-size="10" lengthAdjust="spacing" textLength="89.6045" x="700" y="358.6188">TenantsController</text><line style="stroke:#181818;stroke-width:0.5;" x1="676" x2="791.6045" y1="369.1569" y2="369.1569"/><line style="stroke:#181818;stroke-width:0.5;" x1="676" x2="791.6045" y1="377.1569" y2="377.1569"/></g><!--class TenantsService--><g class="entity" data-qualified-name="NOTIP Management API.AdminModule.TenantsService" data-source-line="60" id="ent0021"><rect fill="#F1F1F1" height="44" rx="2.5" ry="2.5" style="stroke:#181818;stroke-width:0.5;" width="105.1533" x="681.5" y="433.1569"/><ellipse cx="694.5" cy="447.1569" fill="#ADD1B2" rx="9" ry="9" style="stroke:#181818;stroke-width:1;"/><path d="M695.7813,450.4538 Q695.4375,450.6256 695.0625,450.7038 Q694.6875,450.7975 694.2656,450.7975 Q692.7969,450.7975 692.0156,449.8288 Q691.25,448.86 691.25,447.0163 Q691.25,445.1725 692.0156,444.2038 Q692.7969,443.235 694.2656,443.235 Q694.6875,443.235 695.0625,443.3288 Q695.4531,443.4069 695.7813,443.5788 L695.7813,445.1881 Q695.4063,444.8444 695.0469,444.6881 Q694.7031,444.5319 694.3438,444.5319 Q693.5469,444.5319 693.1406,445.1569 Q692.7344,445.7819 692.7344,447.0163 Q692.7344,448.2506 693.1406,448.8756 Q693.5469,449.5006 694.3438,449.5006 Q694.7031,449.5006 695.0469,449.3444 Q695.4063,449.1881 695.7813,448.8444 L695.7813,450.4538 Z " fill="#000000"/><text fill="#000000" font-family="sans-serif" font-size="10" lengthAdjust="spacing" textLength="77.1533" x="706.5" y="450.6188">TenantsService</text><line style="stroke:#181818;stroke-width:0.5;" x1="682.5" x2="785.6533" y1="461.1569" y2="461.1569"/><line style="stroke:#181818;stroke-width:0.5;" x1="682.5" x2="785.6533" y1="469.1569" y2="469.1569"/></g><!--class TenantsPersistenceService--><g class="entity" data-qualified-name="NOTIP Management API.AdminModule.TenantsPersistenceService" data-source-line="61" id="ent0022"><rect fill="#F1F1F1" height="44" rx="2.5" ry="2.5" style="stroke:#181818;stroke-width:0.5;" width="162.707" x="572.5" y="525.6569"/><ellipse cx="585.5" cy="539.6569" fill="#ADD1B2" rx="9" ry="9" style="stroke:#181818;stroke-width:1;"/><path d="M586.7813,542.9538 Q586.4375,543.1256 586.0625,543.2038 Q585.6875,543.2975 585.2656,543.2975 Q583.7969,543.2975 583.0156,542.3288 Q582.25,541.36 582.25,539.5163 Q582.25,537.6725 583.0156,536.7038 Q583.7969,535.735 585.2656,535.735 Q585.6875,535.735 586.0625,535.8288 Q586.4531,535.9069 586.7813,536.0788 L586.7813,537.6881 Q586.4063,537.3444 586.0469,537.1881 Q585.7031,537.0319 585.3438,537.0319 Q584.5469,537.0319 584.1406,537.6569 Q583.7344,538.2819 583.7344,539.5163 Q583.7344,540.7506 584.1406,541.3756 Q584.5469,542.0006 585.3438,542.0006 Q585.7031,542.0006 586.0469,541.8444 Q586.4063,541.6881 586.7813,541.3444 L586.7813,542.9538 Z " fill="#000000"/><text fill="#000000" font-family="sans-serif" font-size="10" lengthAdjust="spacing" textLength="134.707" x="597.5" y="543.1188">TenantsPersistenceService</text><line style="stroke:#181818;stroke-width:0.5;" x1="573.5" x2="734.207" y1="553.6569" y2="553.6569"/><line style="stroke:#181818;stroke-width:0.5;" x1="573.5" x2="734.207" y1="561.6569" y2="561.6569"/></g><!--class KeycloakAdminService--><g class="entity" data-qualified-name="NOTIP Management API.AdminModule.KeycloakAdminService" data-source-line="62" id="ent0023"><rect fill="#F1F1F1" height="44" rx="2.5" ry="2.5" style="stroke:#181818;stroke-width:0.5;" width="141.9453" x="744" y="525.6569"/><ellipse cx="757" cy="539.6569" fill="#ADD1B2" rx="9" ry="9" style="stroke:#181818;stroke-width:1;"/><path d="M758.2813,542.9538 Q757.9375,543.1256 757.5625,543.2038 Q757.1875,543.2975 756.7656,543.2975 Q755.2969,543.2975 754.5156,542.3288 Q753.75,541.36 753.75,539.5163 Q753.75,537.6725 754.5156,536.7038 Q755.2969,535.735 756.7656,535.735 Q757.1875,535.735 757.5625,535.8288 Q757.9531,535.9069 758.2813,536.0788 L758.2813,537.6881 Q757.9063,537.3444 757.5469,537.1881 Q757.2031,537.0319 756.8438,537.0319 Q756.0469,537.0319 755.6406,537.6569 Q755.2344,538.2819 755.2344,539.5163 Q755.2344,540.7506 755.6406,541.3756 Q756.0469,542.0006 756.8438,542.0006 Q757.2031,542.0006 757.5469,541.8444 Q757.9063,541.6881 758.2813,541.3444 L758.2813,542.9538 Z " fill="#000000"/><text fill="#000000" font-family="sans-serif" font-size="10" lengthAdjust="spacing" textLength="113.9453" x="769" y="543.1188">KeycloakAdminService</text><line style="stroke:#181818;stroke-width:0.5;" x1="745" x2="884.9453" y1="553.6569" y2="553.6569"/><line style="stroke:#181818;stroke-width:0.5;" x1="745" x2="884.9453" y1="561.6569" y2="561.6569"/></g><!--class AdminGatewaysController--><g class="entity" data-qualified-name="NOTIP Management API.AdminModule.AdminGatewaysController" data-source-line="63" id="ent0024"><rect fill="#F1F1F1" height="44" rx="2.5" ry="2.5" style="stroke:#181818;stroke-width:0.5;" width="158.8398" x="485.5" y="341.1569"/><ellipse cx="498.5" cy="355.1569" fill="#ADD1B2" rx="9" ry="9" style="stroke:#181818;stroke-width:1;"/><path d="M499.7813,358.4538 Q499.4375,358.6256 499.0625,358.7038 Q498.6875,358.7975 498.2656,358.7975 Q496.7969,358.7975 496.0156,357.8288 Q495.25,356.86 495.25,355.0163 Q495.25,353.1725 496.0156,352.2038 Q496.7969,351.235 498.2656,351.235 Q498.6875,351.235 499.0625,351.3288 Q499.4531,351.4069 499.7813,351.5788 L499.7813,353.1881 Q499.4063,352.8444 499.0469,352.6881 Q498.7031,352.5319 498.3438,352.5319 Q497.5469,352.5319 497.1406,353.1569 Q496.7344,353.7819 496.7344,355.0163 Q496.7344,356.2506 497.1406,356.8756 Q497.5469,357.5006 498.3438,357.5006 Q498.7031,357.5006 499.0469,357.3444 Q499.4063,357.1881 499.7813,356.8444 L499.7813,358.4538 Z " fill="#000000"/><text fill="#000000" font-family="sans-serif" font-size="10" lengthAdjust="spacing" textLength="130.8398" x="510.5" y="358.6188">AdminGatewaysController</text><line style="stroke:#181818;stroke-width:0.5;" x1="486.5" x2="643.3398" y1="369.1569" y2="369.1569"/><line style="stroke:#181818;stroke-width:0.5;" x1="486.5" x2="643.3398" y1="377.1569" y2="377.1569"/></g><!--class AdminGatewaysService--><g class="entity" data-qualified-name="NOTIP Management API.AdminModule.AdminGatewaysService" data-source-line="64" id="ent0025"><rect fill="#F1F1F1" height="44" rx="2.5" ry="2.5" style="stroke:#181818;stroke-width:0.5;" width="146.3887" x="440" y="433.1569"/><ellipse cx="453" cy="447.1569" fill="#ADD1B2" rx="9" ry="9" style="stroke:#181818;stroke-width:1;"/><path d="M454.2813,450.4538 Q453.9375,450.6256 453.5625,450.7038 Q453.1875,450.7975 452.7656,450.7975 Q451.2969,450.7975 450.5156,449.8288 Q449.75,448.86 449.75,447.0163 Q449.75,445.1725 450.5156,444.2038 Q451.2969,443.235 452.7656,443.235 Q453.1875,443.235 453.5625,443.3288 Q453.9531,443.4069 454.2813,443.5788 L454.2813,445.1881 Q453.9063,444.8444 453.5469,444.6881 Q453.2031,444.5319 452.8438,444.5319 Q452.0469,444.5319 451.6406,445.1569 Q451.2344,445.7819 451.2344,447.0163 Q451.2344,448.2506 451.6406,448.8756 Q452.0469,449.5006 452.8438,449.5006 Q453.2031,449.5006 453.5469,449.3444 Q453.9063,449.1881 454.2813,448.8444 L454.2813,450.4538 Z " fill="#000000"/><text fill="#000000" font-family="sans-serif" font-size="10" lengthAdjust="spacing" textLength="118.3887" x="465" y="450.6188">AdminGatewaysService</text><line style="stroke:#181818;stroke-width:0.5;" x1="441" x2="585.3887" y1="461.1569" y2="461.1569"/><line style="stroke:#181818;stroke-width:0.5;" x1="441" x2="585.3887" y1="469.1569" y2="469.1569"/></g><!--class AdminGatewaysPersistenceService--><g class="entity" data-qualified-name="NOTIP Management API.AdminModule.AdminGatewaysPersistenceService" data-source-line="65" id="ent0026"><rect fill="#F1F1F1" height="44" rx="2.5" ry="2.5" style="stroke:#181818;stroke-width:0.5;" width="203.9424" x="360" y="525.6569"/><ellipse cx="373" cy="539.6569" fill="#ADD1B2" rx="9" ry="9" style="stroke:#181818;stroke-width:1;"/><path d="M374.2813,542.9538 Q373.9375,543.1256 373.5625,543.2038 Q373.1875,543.2975 372.7656,543.2975 Q371.2969,543.2975 370.5156,542.3288 Q369.75,541.36 369.75,539.5163 Q369.75,537.6725 370.5156,536.7038 Q371.2969,535.735 372.7656,535.735 Q373.1875,535.735 373.5625,535.8288 Q373.9531,535.9069 374.2813,536.0788 L374.2813,537.6881 Q373.9063,537.3444 373.5469,537.1881 Q373.2031,537.0319 372.8438,537.0319 Q372.0469,537.0319 371.6406,537.6569 Q371.2344,538.2819 371.2344,539.5163 Q371.2344,540.7506 371.6406,541.3756 Q372.0469,542.0006 372.8438,542.0006 Q373.2031,542.0006 373.5469,541.8444 Q373.9063,541.6881 374.2813,541.3444 L374.2813,542.9538 Z " fill="#000000"/><text fill="#000000" font-family="sans-serif" font-size="10" lengthAdjust="spacing" textLength="175.9424" x="385" y="543.1188">AdminGatewaysPersistenceService</text><line style="stroke:#181818;stroke-width:0.5;" x1="361" x2="562.9424" y1="553.6569" y2="553.6569"/><line style="stroke:#181818;stroke-width:0.5;" x1="361" x2="562.9424" y1="561.6569" y2="561.6569"/></g><!--class MetricsController--><g class="entity" data-qualified-name="NOTIP Management API.MetricsModule.MetricsController" data-source-line="69" id="ent0028"><rect fill="#F1F1F1" height="44" rx="2.5" ry="2.5" style="stroke:#181818;stroke-width:0.5;" width="113.708" x="1102" y="341.1569"/><ellipse cx="1115" cy="355.1569" fill="#ADD1B2" rx="9" ry="9" style="stroke:#181818;stroke-width:1;"/><path d="M1116.2813,358.4538 Q1115.9375,358.6256 1115.5625,358.7038 Q1115.1875,358.7975 1114.7656,358.7975 Q1113.2969,358.7975 1112.5156,357.8288 Q1111.75,356.86 1111.75,355.0163 Q1111.75,353.1725 1112.5156,352.2038 Q1113.2969,351.235 1114.7656,351.235 Q1115.1875,351.235 1115.5625,351.3288 Q1115.9531,351.4069 1116.2813,351.5788 L1116.2813,353.1881 Q1115.9063,352.8444 1115.5469,352.6881 Q1115.2031,352.5319 1114.8438,352.5319 Q1114.0469,352.5319 1113.6406,353.1569 Q1113.2344,353.7819 1113.2344,355.0163 Q1113.2344,356.2506 1113.6406,356.8756 Q1114.0469,357.5006 1114.8438,357.5006 Q1115.2031,357.5006 1115.5469,357.3444 Q1115.9063,357.1881 1116.2813,356.8444 L1116.2813,358.4538 Z " fill="#000000"/><text fill="#000000" font-family="sans-serif" font-size="10" lengthAdjust="spacing" textLength="85.708" x="1127" y="358.6188">MetricsController</text><line style="stroke:#181818;stroke-width:0.5;" x1="1103" x2="1214.708" y1="369.1569" y2="369.1569"/><line style="stroke:#181818;stroke-width:0.5;" x1="1103" x2="1214.708" y1="377.1569" y2="377.1569"/></g><!--class MetricsService--><g class="entity" data-qualified-name="NOTIP Management API.MetricsModule.MetricsService" data-source-line="70" id="ent0029"><rect fill="#F1F1F1" height="44" rx="2.5" ry="2.5" style="stroke:#181818;stroke-width:0.5;" width="101.2568" x="1108.5" y="433.1569"/><ellipse cx="1121.5" cy="447.1569" fill="#ADD1B2" rx="9" ry="9" style="stroke:#181818;stroke-width:1;"/><path d="M1122.7813,450.4538 Q1122.4375,450.6256 1122.0625,450.7038 Q1121.6875,450.7975 1121.2656,450.7975 Q1119.7969,450.7975 1119.0156,449.8288 Q1118.25,448.86 1118.25,447.0163 Q1118.25,445.1725 1119.0156,444.2038 Q1119.7969,443.235 1121.2656,443.235 Q1121.6875,443.235 1122.0625,443.3288 Q1122.4531,443.4069 1122.7813,443.5788 L1122.7813,445.1881 Q1122.4063,444.8444 1122.0469,444.6881 Q1121.7031,444.5319 1121.3438,444.5319 Q1120.5469,444.5319 1120.1406,445.1569 Q1119.7344,445.7819 1119.7344,447.0163 Q1119.7344,448.2506 1120.1406,448.8756 Q1120.5469,449.5006 1121.3438,449.5006 Q1121.7031,449.5006 1122.0469,449.3444 Q1122.4063,449.1881 1122.7813,448.8444 L1122.7813,450.4538 Z " fill="#000000"/><text fill="#000000" font-family="sans-serif" font-size="10" lengthAdjust="spacing" textLength="73.2568" x="1133.5" y="450.6188">MetricsService</text><line style="stroke:#181818;stroke-width:0.5;" x1="1109.5" x2="1208.7568" y1="461.1569" y2="461.1569"/><line style="stroke:#181818;stroke-width:0.5;" x1="1109.5" x2="1208.7568" y1="469.1569" y2="469.1569"/></g><g class="entity" data-qualified-name="GMN63" data-source-line="114" id="ent0064"><path d="M795.5,43.2969 L795.5,99.8594 A0,0 0 0 0 795.5,99.8594 L900,99.8594 L904,145.9469 L908,99.8594 L1012.9648,99.8594 A0,0 0 0 0 1012.9648,99.8594 L1012.9648,53.2969 L1002.9648,43.2969 L795.5,43.2969 A0,0 0 0 0 795.5,43.2969" fill="#FEFFDD" style="stroke:#181818;stroke-width:0.5;"/><path d="M1002.9648,43.2969 L1002.9648,53.2969 L1012.9648,53.2969 L1002.9648,43.2969" fill="#FEFFDD" style="stroke:#181818;stroke-width:0.5;"/><text fill="#000000" font-family="sans-serif" font-size="10" lengthAdjust="spacing" textLength="122.8662" x="801.5" y="57.5791">Main application module</text><text fill="#000000" font-family="sans-serif" font-size="10" lengthAdjust="spacing" textLength="164.8535" x="801.5" y="69.2197">Orchestrates all feature modules</text><text fill="#000000" font-family="sans-serif" font-size="10" lengthAdjust="spacing" textLength="151.4111" x="801.5" y="80.8604">Configures global interceptors</text><text fill="#000000" font-family="sans-serif" font-size="10" lengthAdjust="spacing" textLength="196.4648" x="801.5" y="92.501">Sets up TypeORM database connection</text></g><g class="entity" data-qualified-name="GMN66" data-source-line="121" id="ent0067"><path d="M2330.5,525.1569 L2330.5,570.0788 L2541.4561,570.0788 L2541.4561,535.1569 L2531.4561,525.1569 L2330.5,525.1569" fill="#FEFFDD" style="stroke:#181818;stroke-width:0.5;"/><path d="M2531.4561,525.1569 L2531.4561,535.1569 L2541.4561,535.1569 L2531.4561,525.1569" fill="#FEFFDD" style="stroke:#181818;stroke-width:1;"/><text fill="#000000" font-family="sans-serif" font-size="10" lengthAdjust="spacing" textLength="174.3555" x="2336.5" y="539.4391">Core entity shared across modules</text><text fill="#000000" font-family="sans-serif" font-size="10" lengthAdjust="spacing" textLength="189.9561" x="2336.5" y="551.0797">ManyToOne/OneToMany relationships</text><text fill="#000000" font-family="sans-serif" font-size="10" lengthAdjust="spacing" textLength="168.6182" x="2336.5" y="562.7204">with Users, Gateways, Alerts, etc.</text></g><g class="entity" data-qualified-name="GMN69" data-source-line="127" id="ent0070"><path d="M2330.5,163.2969 L2330.5,219.8594 L2491.124,219.8594 L2491.124,173.2969 L2481.124,163.2969 L2330.5,163.2969" fill="#FEFFDD" style="stroke:#181818;stroke-width:0.5;"/><path d="M2481.124,163.2969 L2481.124,173.2969 L2491.124,173.2969 L2481.124,163.2969" fill="#FEFFDD" style="stroke:#181818;stroke-width:1;"/><text fill="#000000" font-family="sans-serif" font-size="10" lengthAdjust="spacing" textLength="138.4717" x="2336.5" y="177.5791">Handles JWT authentication</text><text fill="#000000" font-family="sans-serif" font-size="10" lengthAdjust="spacing" textLength="130.7275" x="2336.5" y="189.2197">Role-based access control</text><text fill="#000000" font-family="sans-serif" font-size="10" lengthAdjust="spacing" textLength="131.8701" x="2336.5" y="200.8604">Tenant suspension checks</text><text fill="#000000" font-family="sans-serif" font-size="10" lengthAdjust="spacing" textLength="139.624" x="2336.5" y="212.501">User impersonation support</text></g><!--link AppController to AppService--><g class="link" data-entity-1="ent0004" data-entity-2="ent0005" data-link-type="dependency" data-source-line="74" id="lnk30"><path codeLine="74" d="M246,317.3769 C246,323.2969 246,323.4069 246,329.1569" fill="none" id="AppController-to-AppService" style="stroke:#181818;stroke-width:1;"/><polygon fill="#181818" points="246,335.1569,250,326.1569,246,330.1569,242,326.1569,246,335.1569" style="stroke:#181818;stroke-width:1;"/></g><!--link AppModule to AppController--><g class="link" data-entity-1="ent0003" data-entity-2="ent0004" data-link-type="dependency" data-source-line="75" id="lnk31"><path codeLine="75" d="M715,237.5469 C715,248.2769 715,256.6569 715,256.6569 C715,256.6569 438.78,256.6569 307.6,256.6569" fill="none" id="AppModule-to-AppController" style="stroke:#181818;stroke-width:1;"/><polygon fill="#181818" points="301.6,256.6569,310.6,260.6569,306.6,256.6569,310.6,252.6569,301.6,256.6569" style="stroke:#181818;stroke-width:1;"/></g><!--link AppModule to AppService--><g class="link" data-entity-1="ent0003" data-entity-2="ent0005" data-link-type="dependency" data-source-line="76" id="lnk32"><path codeLine="76" d="M696.94,231.6569 C582.3,231.6569 462.75,231.6569 462.75,231.6569 C462.75,231.6569 462.75,363.6569 462.75,363.6569 C462.75,363.6569 370.91,363.6569 306.7,363.6569" fill="none" id="AppModule-to-AppService" style="stroke:#181818;stroke-width:1;"/><polygon fill="#181818" points="300.7,363.6569,309.7,367.6569,305.7,363.6569,309.7,359.6569,300.7,363.6569" style="stroke:#181818;stroke-width:1;"/></g><!--link AppModule to MetricsInterceptor--><g class="link" data-entity-1="ent0003" data-entity-2="ent0008" data-link-type="dependency" data-source-line="77" id="lnk33"><path codeLine="77" d="M994,237.4569 C994,245.7469 994,248.0369 994,255.2669" fill="none" id="AppModule-to-MetricsInterceptor" style="stroke:#181818;stroke-width:1;"/><polygon fill="#181818" points="994,261.2669,998,252.2669,994,256.2669,990,252.2669,994,261.2669" style="stroke:#181818;stroke-width:1;"/></g><!--link AppModule to LastAccessInterceptor--><g class="link" data-entity-1="ent0003" data-entity-2="ent0009" data-link-type="dependency" data-source-line="78" id="lnk34"><path codeLine="78" d="M696.99,225.6569 C456.71,225.6569 93,225.6569 93,225.6569 C93,225.6569 93,239.0469 93,255.3969" fill="none" id="AppModule-to-LastAccessInterceptor" style="stroke:#181818;stroke-width:1;"/><polygon fill="#181818" points="93,261.3969,97,252.3969,93,256.3969,89,252.3969,93,261.3969" style="stroke:#181818;stroke-width:1;"/></g><!--link AppModule to AuditInterceptor--><g class="link" data-entity-1="ent0003" data-entity-2="ent0010" data-link-type="dependency" data-source-line="79" id="lnk35"><path codeLine="79" d="M1111.2,224.6569 C1215.05,224.6569 1319,224.6569 1319,224.6569 C1319,224.6569 1319,295.7569 1319,334.9069" fill="none" id="AppModule-to-AuditInterceptor" style="stroke:#181818;stroke-width:1;"/><polygon fill="#181818" points="1319,340.9069,1323,331.9069,1319,335.9069,1315,331.9069,1319,340.9069" style="stroke:#181818;stroke-width:1;"/></g><!--link MetricsInterceptor to MetricsService--><g class="link" data-entity-1="ent0008" data-entity-2="ent0029" data-link-type="dependency" data-source-line="80" id="lnk36"><path codeLine="80" d="M994,305.9669 C994,353.9469 994,462.6569 994,462.6569 C994,462.6569 1053.67,462.6569 1102.15,462.6569" fill="none" id="MetricsInterceptor-to-MetricsService" style="stroke:#181818;stroke-width:1;"/><polygon fill="#181818" points="1108.15,462.6569,1099.15,458.6569,1103.15,462.6569,1099.15,466.6569,1108.15,462.6569" style="stroke:#181818;stroke-width:1;"/></g><!--link LastAccessInterceptor to UserEntity--><g class="link" data-entity-1="ent0009" data-entity-2="ent0037" data-link-type="dependency" data-source-line="81" id="lnk38"><path codeLine="81" d="M93,305.9369 C93,391.2869 93,692.6569 93,692.6569 C93,692.6569 265.7,692.6569 347.72,692.6569" fill="none" id="LastAccessInterceptor-to-UserEntity" style="stroke:#181818;stroke-width:1;stroke-dasharray:7,7;"/><polygon fill="#181818" points="353.72,692.6569,344.72,688.6569,348.72,692.6569,344.72,696.6569,353.72,692.6569" style="stroke:#181818;stroke-width:1;"/></g><!--link AuditInterceptor to AuditLogService--><g class="link" data-entity-1="ent0010" data-entity-2="ent0039" data-link-type="dependency" data-source-line="82" id="lnk40"><path codeLine="82" d="M1364.75,385.4269 C1364.75,399.8969 1364.75,412.6669 1364.75,427.0869" fill="none" id="AuditInterceptor-to-AuditLogService" style="stroke:#181818;stroke-width:1;"/><polygon fill="#181818" points="1364.75,433.0869,1368.75,424.0869,1364.75,428.0869,1360.75,424.0869,1364.75,433.0869" style="stroke:#181818;stroke-width:1;"/></g><!--link AppModule to AuthModule--><g class="link" data-entity-1="ent0003" data-entity-2="ent0011" data-link-type="dependency" data-source-line="85" id="lnk41"><path codeLine="85" d="M1111.15,229.6569 C1154.82,229.6569 1188,229.6569 1188,229.6569 C1188,229.6569 1188,283.6569 1188,283.6569 C1188,283.6569 1222.7019,283.6569 1275.0258,283.6569 C1301.1877,283.6569 1331.7552,283.6569 1364.5932,283.6569 C1372.8027,283.6569 1381.1541,283.6569 1389.614,283.6569 C1391.729,283.6569 1387.8508,283.6569 1389.9788,283.6569" fill="none" id="AppModule-to-AuthModule" style="stroke:#181818;stroke-width:1;"/><polygon fill="#181818" points="1395.9788,283.6569,1386.9788,279.6569,1390.9788,283.6569,1386.9788,287.6569,1395.9788,283.6569" style="stroke:#181818;stroke-width:1;"/></g><!--link AuthModule to JwtStrategy--><g class="link" data-entity-1="ent0011" data-entity-2="ent0012" data-link-type="dependency" data-source-line="86" id="lnk42"><path codeLine="86" d="M1761.74,283.6569 C1782.03,283.6569 2215,283.6569 2215,283.6569 C2215,283.6569 2215,311.4869 2215,335.0069" fill="none" id="AuthModule-to-JwtStrategy" style="stroke:#181818;stroke-width:1;"/><polygon fill="#181818" points="2215,341.0069,2219,332.0069,2215,336.0069,2211,332.0069,2215,341.0069" style="stroke:#181818;stroke-width:1;"/></g><!--link AuthModule to JwtAuthGuard--><g class="link" data-entity-1="ent0011" data-entity-2="ent0015" data-link-type="dependency" data-source-line="87" id="lnk43"><path codeLine="87" d="M1761.07,284.6569 C1764.1,284.6569 1861,284.6569 1861,284.6569 C1861,284.6569 1861,311.6669 1861,334.8769" fill="none" id="AuthModule-to-JwtAuthGuard" style="stroke:#181818;stroke-width:1;"/><polygon fill="#181818" points="1861,340.8769,1865,331.8769,1861,335.8769,1857,331.8769,1861,340.8769" style="stroke:#181818;stroke-width:1;"/></g><!--link AuthModule to RolesGuard--><g class="link" data-entity-1="ent0011" data-entity-2="ent0016" data-link-type="dependency" data-source-line="88" id="lnk44"><path codeLine="88" d="M1761,284.1669 C1761,288.4469 1761,312.9469 1761,334.7569" fill="none" id="AuthModule-to-RolesGuard" style="stroke:#181818;stroke-width:1;"/><polygon fill="#181818" points="1761,340.7569,1765,331.7569,1761,335.7569,1757,331.7569,1761,340.7569" style="stroke:#181818;stroke-width:1;"/></g><!--link AuthModule to AccessPolicyGuard--><g class="link" data-entity-1="ent0011" data-entity-2="ent0017" data-link-type="dependency" data-source-line="89" id="lnk45"><path codeLine="89" d="M1760.92,284.6569 C1757.53,284.6569 1649,284.6569 1649,284.6569 C1649,284.6569 1649,311.6669 1649,334.8769" fill="none" id="AuthModule-to-AccessPolicyGuard" style="stroke:#181818;stroke-width:1;"/><polygon fill="#181818" points="1649,340.8769,1653,331.8769,1649,335.8769,1645,331.8769,1649,340.8769" style="stroke:#181818;stroke-width:1;"/></g><!--link AuthModule to BlockImpersonationGuard--><g class="link" data-entity-1="ent0011" data-entity-2="ent0018" data-link-type="dependency" data-source-line="90" id="lnk46"><path codeLine="90" d="M1760.67,283.1869 C1760.67,281.0769 1760.67,272.6569 1760.67,272.6569 C1760.67,272.6569 1501,272.6569 1501,272.6569 C1501,272.6569 1501,307.9869 1501,334.7869" fill="none" id="AuthModule-to-BlockImpersonationGuard" style="stroke:#181818;stroke-width:1;"/><polygon fill="#181818" points="1501,340.7869,1505,331.7869,1501,335.7869,1497,331.7869,1501,340.7869" style="stroke:#181818;stroke-width:1;"/></g><!--link BlockImpersonationGuard to AuditLogService--><g class="link" data-entity-1="ent0018" data-entity-2="ent0039" data-link-type="dependency" data-source-line="91" id="lnk47"><path codeLine="91" d="M1443.25,385.4269 C1443.25,399.8969 1443.25,412.6669 1443.25,427.0869" fill="none" id="BlockImpersonationGuard-to-AuditLogService" style="stroke:#181818;stroke-width:1;"/><polygon fill="#181818" points="1443.25,433.0869,1447.25,424.0869,1443.25,428.0869,1439.25,424.0869,1443.25,433.0869" style="stroke:#181818;stroke-width:1;"/></g><!--link AccessPolicyGuard to TenantEntity--><g class="link" data-entity-1="ent0017" data-entity-2="ent0006" data-link-type="dependency" data-source-line="92" id="lnk48"><path codeLine="92" d="M1649,385.2569 C1649,432.0069 1649,536.7769 1649,611.6369" fill="none" id="AccessPolicyGuard-to-TenantEntity" style="stroke:#181818;stroke-width:1;stroke-dasharray:7,7;"/><polygon fill="#181818" points="1649,617.6369,1653,608.6369,1649,612.6369,1645,608.6369,1649,617.6369" style="stroke:#181818;stroke-width:1;"/></g><!--link AppModule to AdminModule--><g class="link" data-entity-1="ent0003" data-entity-2="ent0019" data-link-type="dependency" data-source-line="95" id="lnk49"><path codeLine="95" d="M734,237.4569 C734,242.6794 734,247.9069 734,252.8691 C734,255.3502 734,257.7649 734,260.0796 C734,260.3689 734,260.6567 734,260.9428 C734,261.0143 734,255.0858 734,255.1571" fill="none" id="AppModule-to-AdminModule" style="stroke:#181818;stroke-width:1;"/><polygon fill="#181818" points="734,261.1571,738,252.1571,734,256.1571,730,252.1571,734,261.1571" style="stroke:#181818;stroke-width:1;"/></g><!--link AdminModule to TenantsController--><g class="link" data-entity-1="ent0019" data-entity-2="ent0020" data-link-type="dependency" data-source-line="96" id="lnk50"><path codeLine="96" d="M734,284.1669 C734,288.4469 734,312.9469 734,334.7569" fill="none" id="AdminModule-to-TenantsController" style="stroke:#181818;stroke-width:1;"/><polygon fill="#181818" points="734,340.7569,738,331.7569,734,335.7569,730,331.7569,734,340.7569" style="stroke:#181818;stroke-width:1;"/></g><!--link TenantsController to TenantsService--><g class="link" data-entity-1="ent0020" data-entity-2="ent0021" data-link-type="dependency" data-source-line="97" id="lnk51"><path codeLine="97" d="M734,385.4269 C734,399.8969 734,412.6669 734,427.0869" fill="none" id="TenantsController-to-TenantsService" style="stroke:#181818;stroke-width:1;"/><polygon fill="#181818" points="734,433.0869,738,424.0869,734,428.0869,730,424.0869,734,433.0869" style="stroke:#181818;stroke-width:1;"/></g><!--link TenantsService to TenantsPersistenceService--><g class="link" data-entity-1="ent0021" data-entity-2="ent0022" data-link-type="dependency" data-source-line="98" id="lnk52"><path codeLine="98" d="M708.5,477.5469 C708.5,492.0869 708.5,504.9669 708.5,519.4669" fill="none" id="TenantsService-to-TenantsPersistenceService" style="stroke:#181818;stroke-width:1;"/><polygon fill="#181818" points="708.5,525.4669,712.5,516.4669,708.5,520.4669,704.5,516.4669,708.5,525.4669" style="stroke:#181818;stroke-width:1;"/></g><!--link TenantsService to KeycloakAdminService--><g class="link" data-entity-1="ent0021" data-entity-2="ent0023" data-link-type="dependency" data-source-line="99" id="lnk53"><path codeLine="99" d="M765.25,477.5469 C765.25,492.0869 765.25,504.9669 765.25,519.4669" fill="none" id="TenantsService-to-KeycloakAdminService" style="stroke:#181818;stroke-width:1;"/><polygon fill="#181818" points="765.25,525.4669,769.25,516.4669,765.25,520.4669,761.25,516.4669,765.25,525.4669" style="stroke:#181818;stroke-width:1;"/></g><!--link TenantsPersistenceService to TenantEntity--><g class="link" data-entity-1="ent0022" data-entity-2="ent0006" data-link-type="dependency" data-source-line="100" id="lnk54"><path codeLine="100" d="M681.17,569.6669 C681.17,598.2869 681.17,644.6569 681.17,644.6569 C681.17,644.6569 1304.91,644.6569 1548.44,644.6569" fill="none" id="TenantsPersistenceService-to-TenantEntity" style="stroke:#181818;stroke-width:1;"/><polygon fill="#181818" points="1554.44,644.6569,1545.44,640.6569,1549.44,644.6569,1545.44,648.6569,1554.44,644.6569" style="stroke:#181818;stroke-width:1;"/></g><!--link TenantsPersistenceService to UserEntity--><g class="link" data-entity-1="ent0022" data-entity-2="ent0037" data-link-type="dependency" data-source-line="101" id="lnk55"><path codeLine="101" d="M626.83,569.6769 C626.83,610.2469 626.83,692.6569 626.83,692.6569 C626.83,692.6569 506.6,692.6569 440.03,692.6569" fill="none" id="TenantsPersistenceService-to-UserEntity" style="stroke:#181818;stroke-width:1;"/><polygon fill="#181818" points="434.03,692.6569,443.03,696.6569,439.03,692.6569,443.03,688.6569,434.03,692.6569" style="stroke:#181818;stroke-width:1;"/></g><!--link AdminModule to AdminGatewaysController--><g class="link" data-entity-1="ent0019" data-entity-2="ent0024" data-link-type="dependency" data-source-line="102" id="lnk56"><path codeLine="102" d="M733.62,283.6569 C725.94,283.6569 603,283.6569 603,283.6569 C603,283.6569 603,311.4869 603,335.0069" fill="none" id="AdminModule-to-AdminGatewaysController" style="stroke:#181818;stroke-width:1;"/><polygon fill="#181818" points="603,341.0069,607,332.0069,603,336.0069,599,332.0069,603,341.0069" style="stroke:#181818;stroke-width:1;"/></g><!--link AdminGatewaysController to AdminGatewaysService--><g class="link" data-entity-1="ent0024" data-entity-2="ent0025" data-link-type="dependency" data-source-line="103" id="lnk57"><path codeLine="103" d="M535.75,385.4269 C535.75,399.8969 535.75,412.6669 535.75,427.0869" fill="none" id="AdminGatewaysController-to-AdminGatewaysService" style="stroke:#181818;stroke-width:1;"/><polygon fill="#181818" points="535.75,433.0869,539.75,424.0869,535.75,428.0869,531.75,424.0869,535.75,433.0869" style="stroke:#181818;stroke-width:1;"/></g><!--link AdminGatewaysService to AdminGatewaysPersistenceService--><g class="link" data-entity-1="ent0025" data-entity-2="ent0026" data-link-type="dependency" data-source-line="104" id="lnk58"><path codeLine="104" d="M502,477.5469 C502,492.0869 502,504.9669 502,519.4669" fill="none" id="AdminGatewaysService-to-AdminGatewaysPersistenceService" style="stroke:#181818;stroke-width:1;"/><polygon fill="#181818" points="502,525.4669,506,516.4669,502,520.4669,498,516.4669,502,525.4669" style="stroke:#181818;stroke-width:1;"/></g><!--link AppModule to MetricsModule--><g class="link" data-entity-1="ent0003" data-entity-2="ent0027" data-link-type="dependency" data-source-line="107" id="lnk59"><path codeLine="107" d="M1111.04,233.6569 C1139.39,233.6569 1159,233.6569 1159,233.6569 C1159,233.6569 1159,244.6444 1159,256.3181 C1159,257.7773 1159,259.2473 1159,260.7078 C1159,260.8904 1159,255.0728 1159,255.2551" fill="none" id="AppModule-to-MetricsModule" style="stroke:#181818;stroke-width:1;"/><polygon fill="#181818" points="1159,261.2551,1163,252.2551,1159,256.2551,1155,252.2551,1159,261.2551" style="stroke:#181818;stroke-width:1;"/></g><!--link MetricsModule to MetricsController--><g class="link" data-entity-1="ent0027" data-entity-2="ent0028" data-link-type="dependency" data-source-line="108" id="lnk60"><path codeLine="108" d="M1159,284.1669 C1159,288.4469 1159,312.9469 1159,334.7569" fill="none" id="MetricsModule-to-MetricsController" style="stroke:#181818;stroke-width:1;"/><polygon fill="#181818" points="1159,340.7569,1163,331.7569,1159,335.7569,1155,331.7569,1159,340.7569" style="stroke:#181818;stroke-width:1;"/></g><!--link MetricsModule to MetricsService--><g class="link" data-entity-1="ent0027" data-entity-2="ent0029" data-link-type="dependency" data-source-line="109" id="lnk61"><path codeLine="109" d="M1158.48,283.6569 C1151.58,283.6569 1078,283.6569 1078,283.6569 C1078,283.6569 1078,448.6569 1078,448.6569 C1078,448.6569 1085.89,448.6569 1102.16,448.6569" fill="none" id="MetricsModule-to-MetricsService" style="stroke:#181818;stroke-width:1;"/><polygon fill="#181818" points="1108.16,448.6569,1099.16,444.6569,1103.16,448.6569,1099.16,452.6569,1108.16,448.6569" style="stroke:#181818;stroke-width:1;"/></g><!--link MetricsController to MetricsService--><g class="link" data-entity-1="ent0028" data-entity-2="ent0029" data-link-type="dependency" data-source-line="110" id="lnk62"><path codeLine="110" d="M1159,385.4269 C1159,399.8969 1159,412.6669 1159,427.0869" fill="none" id="MetricsController-to-MetricsService" style="stroke:#181818;stroke-width:1;"/><polygon fill="#181818" points="1159,433.0869,1163,424.0869,1159,428.0869,1155,424.0869,1159,433.0869" style="stroke:#181818;stroke-width:1;"/></g><!--link GMN66 to TenantEntity--><g class="link" data-entity-1="ent0067" data-entity-2="ent0006" data-link-type="association" data-source-line="121" id="lnk68"><path d="M2330.42,547.6569 C2133.68,547.6569 1730.75,547.6569 1730.75,547.6569 C1730.75,547.6569 1730.75,582.1069 1730.75,617.3669" fill="none" id="GMN66-TenantEntity" style="stroke:#181818;stroke-width:1;stroke-dasharray:7,7;"/></g><!--link GMN69 to AuthModule--><g class="link" data-entity-1="ent0070" data-entity-2="ent0011" data-link-type="association" data-source-line="127" id="lnk71"><path d="M2330.36,192.6569 C2156.37,192.6569 1761.33,192.6569 1761.33,192.6569 C1761.33,192.6569 1761.33,214.0069 1761.33,236.0244 C1761.33,241.5288 1761.33,247.0748 1761.33,252.3395 C1761.33,254.9718 1761.33,257.5338 1761.33,259.985 C1761.33,260.2914 1761.33,260.5961 1761.33,260.8989" fill="none" id="GMN69-AuthModule" style="stroke:#181818;stroke-width:1;stroke-dasharray:7,7;"/></g><?plantuml-src XLTBRnit4BxhLmpSGnqqTXBqKWY10TLn4gTnRLXASYXwe7V74Y4kkI2vCjGW_xr3xeFaBjSHOC2S5xzvy5lISYiG_hxTND_13PDiYnLA2wkxQpY3bIvst69X6urm-kRLxoyM2xFdicQQLV30YlrMgqQMbqee3R-yzx_8eiH7rWZxNacxvlyXl7cTLtR-h_qlCf6gH8Cr_179D9FxiKnmYVPO8oXjTofIr0IHKbhR8oMfAH4cjm8NYquE9xd4J-3js_lUzk82lYy02i6CWPDLNT-eiX5u0ip0iF8c0B_ngYO4PWcNIZxoRQjy2LS7YdnLSMjHzx8Rj9eNfbzk2FsjhjhbADYgiRlURbLMNFQB3ypY4piEGLO2oI4ROxFJQ7PAbC6uARdzh0QGgvfV2av0Uy6bCZF1_iAmvnU3sWINgcAo79n-B9BIKLMiLe9GzkKBahw4MxGVKGXr-c89Xaeajv6S2RjpYk_6CjkO7zCjrgWFl1ZQqosV3Hv7sA1ar2ffkJtw6B5Ww7APGfEimbJImbjstck_wZIDgL4QhkIrf6auCF6E6hW4sLGFgCSsNsXViOHtrETMLMYa_ykLZOLDNMQ4hYzBtvuM_J__TZNeXcRPZq-aZajn9GzVcU0Kce3uMYIIlXY7LeAdXHzvAcpRLlf_5B2RU9ztWRLLxHHCnS7bCpDsLHHe9bvPJJG9RhZ7FcEXmpOGWJja49_juT1rcNQHFprHFpKbl6q795h7PivzFEw9A3Q-hcfgbfA-iF44vnGZC2xgXuRfiaSp26B3UoNG1BEmJ33xUjufmOjZi9r8OvS_XIhs2ShWEAFhfo9Ktb5QKlh0SMdjs-DaHdMTI3CkSL5JKSRuZX1pOr4McF6RQkCGH8s5K6plSuYzSuga-4xU4_fuSlAwMVU413EAMSUPp7zYC-beTwJZdYQVkxIhdMgKyqIQSOanfg8Uqg_qITBkoo_y09eThnqHfr-UixEBw5lHgZkWdIf1CT7EEMQPBJMPex7H7cFYWapiUCk0ABi1d9zVH5y6jzzeXx0jtH3wQBwUdYSpzKpWzjJf8myywdGfNKwLCNkDj0bfZNGvaXgPpDFHZ2PR0vXkvQiPtnEwGdbQ-qcb0jCvNSHxJfiZjeaijWmWKq5iaps-6VCPlfgD4kqnJDNpnka0ZdAVfxmPpTGhQbb6FBNFLCOticUpvrkP45mue5EB99bPgm1-ufOp8xAJoY9OLODw3D2SFwCnP7LDyzfUtAfUSqklEpJ-D1fWGi0ZNIxTIw-rS3cs5pcI6TWAzS04y40Ipc2Dra1Jj--N-nkWgo1xO0Q1heEItb2quG9b2GvTYd4qAvwdiRrdcntJM08hj2As3sZecNRSg5k9h-XleznoqfKdJlpa7oNXVTI_Z5u2sk9y1a_2MX_f5KDxmgTl6s2aSC3Qyf7I4T6PIz91T6JWadND6KOUmXKUgCR5tY5pe837D4DcjNjI1KJ_0m00?></g></svg>