<?plantuml 1.2026.2?><svg xmlns="http://www.w3.org/2000/svg" xmlns:xlink="http://www.w3.org/1999/xlink" contentStyleType="text/css" data-diagram-type="CLASS" height="523px" preserveAspectRatio="none" style="width:1593px;height:523px;background:#FFFFFF;" version="1.1" viewBox="0 0 1593 523" width="1593px" zoomAndPan="magnify"><title>NOTIP Management API - Architecture (3/3)</title><defs/><g><g class="title" data-source-line="1"><text fill="#000000" font-family="sans-serif" font-size="14" font-weight="bold" lengthAdjust="spacing" textLength="343.916" x="617.542" y="22.9951">NOTIP Management API - Architecture (3/3)</text></g><!--cluster NOTIP Management API--><g class="cluster" data-qualified-name="NOTIP Management API" data-source-line="11" id="ent0002"><rect fill="none" height="400.72" rx="2.5" ry="2.5" style="stroke:#181818;stroke-width:1;" width="1580" x="7" y="116.2969"/><text fill="#000000" font-family="sans-serif" font-size="10" font-weight="bold" lengthAdjust="spacing" textLength="134.1016" x="729.9492" y="127.5791">NOTIP Management API</text></g><!--cluster KeysModule--><g class="cluster" data-qualified-name="NOTIP Management API.KeysModule" data-source-line="12" id="ent0003"><rect fill="none" height="270.72" rx="2.5" ry="2.5" style="stroke:#000000;stroke-width:1.5;" width="506" x="39" y="162.2969"/><text fill="#000000" font-family="sans-serif" font-size="10" font-weight="bold" lengthAdjust="spacing" textLength="71.792" x="256.104" y="173.5791">Keys Module</text></g><!--cluster UsersModule--><g class="cluster" data-qualified-name="NOTIP Management API.UsersModule" data-source-line="21" id="ent0010"><rect fill="none" height="270.72" rx="2.5" ry="2.5" style="stroke:#000000;stroke-width:1.5;" width="200" x="707" y="162.2969"/><text fill="#000000" font-family="sans-serif" font-size="10" font-weight="bold" lengthAdjust="spacing" textLength="76.5283" x="768.7358" y="173.5791">Users Module</text></g><!--cluster ThresholdsModule--><g class="cluster" data-qualified-name="NOTIP Management API.ThresholdsModule" data-source-line="28" id="ent0015"><rect fill="none" height="270.72" rx="2.5" ry="2.5" style="stroke:#000000;stroke-width:1.5;" width="224" x="947" y="162.2969"/><text fill="#000000" font-family="sans-serif" font-size="10" font-weight="bold" lengthAdjust="spacing" textLength="106.9238" x="1005.5381" y="173.5791">Thresholds Module</text></g><!--cluster AuditLogModule--><g class="cluster" data-qualified-name="NOTIP Management API.AuditLogModule" data-source-line="35" id="ent0020"><rect fill="none" height="270.72" rx="2.5" ry="2.5" style="stroke:#000000;stroke-width:1.5;" width="344" x="1211" y="162.2969"/><text fill="#000000" font-family="sans-serif" font-size="10" font-weight="bold" lengthAdjust="spacing" textLength="99.5654" x="1333.2173" y="173.5791">Audit-Log Module</text></g><!--class GatewaysService--><g class="entity" data-qualified-name="NOTIP Management API.GatewaysService" data-source-line="49" id="ent0031"><rect fill="#F1F1F1" height="44" rx="2.5" ry="2.5" style="stroke:#181818;stroke-width:0.5;" width="114.3428" x="569" y="313.0169"/><ellipse cx="582" cy="327.0169" fill="#ADD1B2" rx="9" ry="9" style="stroke:#181818;stroke-width:1;"/><path d="M583.2813,330.3138 Q582.9375,330.4856 582.5625,330.5638 Q582.1875,330.6575 581.7656,330.6575 Q580.2969,330.6575 579.5156,329.6888 Q578.75,328.72 578.75,326.8763 Q578.75,325.0325 579.5156,324.0638 Q580.2969,323.095 581.7656,323.095 Q582.1875,323.095 582.5625,323.1888 Q582.9531,323.2669 583.2813,323.4388 L583.2813,325.0481 Q582.9063,324.7044 582.5469,324.5481 Q582.2031,324.3919 581.8438,324.3919 Q581.0469,324.3919 580.6406,325.0169 Q580.2344,325.6419 580.2344,326.8763 Q580.2344,328.1106 580.6406,328.7356 Q581.0469,329.3606 581.8438,329.3606 Q582.2031,329.3606 582.5469,329.2044 Q582.9063,329.0481 583.2813,328.7044 L583.2813,330.3138 Z " fill="#000000"/><text fill="#000000" font-family="sans-serif" font-size="10" lengthAdjust="spacing" textLength="86.3428" x="594" y="330.4788">GatewaysService</text><line style="stroke:#181818;stroke-width:0.5;" x1="570" x2="682.3428" y1="341.0169" y2="341.0169"/><line style="stroke:#181818;stroke-width:0.5;" x1="570" x2="682.3428" y1="349.0169" y2="349.0169"/></g><!--class GatewayEntity--><g class="entity" data-qualified-name="NOTIP Management API.GatewayEntity" data-source-line="51" id="ent0034"><rect fill="#F1F1F1" height="44" rx="2.5" ry="2.5" style="stroke:#181818;stroke-width:0.5;" width="101.3691" x="372.5" y="457.0169"/><ellipse cx="385.5" cy="471.0169" fill="#ADD1B2" rx="9" ry="9" style="stroke:#181818;stroke-width:1;"/><path d="M386.7813,474.3138 Q386.4375,474.4856 386.0625,474.5638 Q385.6875,474.6575 385.2656,474.6575 Q383.7969,474.6575 383.0156,473.6888 Q382.25,472.72 382.25,470.8763 Q382.25,469.0325 383.0156,468.0638 Q383.7969,467.095 385.2656,467.095 Q385.6875,467.095 386.0625,467.1888 Q386.4531,467.2669 386.7813,467.4388 L386.7813,469.0481 Q386.4063,468.7044 386.0469,468.5481 Q385.7031,468.3919 385.3438,468.3919 Q384.5469,468.3919 384.1406,469.0169 Q383.7344,469.6419 383.7344,470.8763 Q383.7344,472.1106 384.1406,472.7356 Q384.5469,473.3606 385.3438,473.3606 Q385.7031,473.3606 386.0469,473.2044 Q386.4063,473.0481 386.7813,472.7044 L386.7813,474.3138 Z " fill="#000000"/><text fill="#000000" font-family="sans-serif" font-size="10" lengthAdjust="spacing" textLength="73.3691" x="397.5" y="474.4788">GatewayEntity</text><line style="stroke:#181818;stroke-width:0.5;" x1="373.5" x2="472.8691" y1="485.0169" y2="485.0169"/><line style="stroke:#181818;stroke-width:0.5;" x1="373.5" x2="472.8691" y1="493.0169" y2="493.0169"/></g><!--class TenantEntity--><g class="entity" data-qualified-name="NOTIP Management API.TenantEntity" data-source-line="58" id="ent0040"><rect fill="#F1F1F1" height="44" rx="2.5" ry="2.5" style="stroke:#181818;stroke-width:0.5;" width="92.1797" x="1013" y="457.0169"/><ellipse cx="1026" cy="471.0169" fill="#ADD1B2" rx="9" ry="9" style="stroke:#181818;stroke-width:1;"/><path d="M1027.2813,474.3138 Q1026.9375,474.4856 1026.5625,474.5638 Q1026.1875,474.6575 1025.7656,474.6575 Q1024.2969,474.6575 1023.5156,473.6888 Q1022.75,472.72 1022.75,470.8763 Q1022.75,469.0325 1023.5156,468.0638 Q1024.2969,467.095 1025.7656,467.095 Q1026.1875,467.095 1026.5625,467.1888 Q1026.9531,467.2669 1027.2813,467.4388 L1027.2813,469.0481 Q1026.9063,468.7044 1026.5469,468.5481 Q1026.2031,468.3919 1025.8438,468.3919 Q1025.0469,468.3919 1024.6406,469.0169 Q1024.2344,469.6419 1024.2344,470.8763 Q1024.2344,472.1106 1024.6406,472.7356 Q1025.0469,473.3606 1025.8438,473.3606 Q1026.2031,473.3606 1026.5469,473.2044 Q1026.9063,473.0481 1027.2813,472.7044 L1027.2813,474.3138 Z " fill="#000000"/><text fill="#000000" font-family="sans-serif" font-size="10" lengthAdjust="spacing" textLength="64.1797" x="1038" y="474.4788">TenantEntity</text><line style="stroke:#181818;stroke-width:0.5;" x1="1014" x2="1104.1797" y1="485.0169" y2="485.0169"/><line style="stroke:#181818;stroke-width:0.5;" x1="1014" x2="1104.1797" y1="493.0169" y2="493.0169"/></g><!--class KeysController--><g class="entity" data-qualified-name="NOTIP Management API.KeysModule.KeysController" data-source-line="13" id="ent0004"><rect fill="#F1F1F1" height="44" rx="2.5" ry="2.5" style="stroke:#181818;stroke-width:0.5;" width="101.2471" x="419.5" y="209.0169"/><ellipse cx="432.5" cy="223.0169" fill="#ADD1B2" rx="9" ry="9" style="stroke:#181818;stroke-width:1;"/><path d="M433.7813,226.3138 Q433.4375,226.4856 433.0625,226.5638 Q432.6875,226.6575 432.2656,226.6575 Q430.7969,226.6575 430.0156,225.6888 Q429.25,224.72 429.25,222.8763 Q429.25,221.0325 430.0156,220.0638 Q430.7969,219.095 432.2656,219.095 Q432.6875,219.095 433.0625,219.1888 Q433.4531,219.2669 433.7813,219.4388 L433.7813,221.0481 Q433.4063,220.7044 433.0469,220.5481 Q432.7031,220.3919 432.3438,220.3919 Q431.5469,220.3919 431.1406,221.0169 Q430.7344,221.6419 430.7344,222.8763 Q430.7344,224.1106 431.1406,224.7356 Q431.5469,225.3606 432.3438,225.3606 Q432.7031,225.3606 433.0469,225.2044 Q433.4063,225.0481 433.7813,224.7044 L433.7813,226.3138 Z " fill="#000000"/><text fill="#000000" font-family="sans-serif" font-size="10" lengthAdjust="spacing" textLength="73.2471" x="444.5" y="226.4788">KeysController</text><line style="stroke:#181818;stroke-width:0.5;" x1="420.5" x2="519.7471" y1="237.0169" y2="237.0169"/><line style="stroke:#181818;stroke-width:0.5;" x1="420.5" x2="519.7471" y1="245.0169" y2="245.0169"/></g><!--class ProvisioningController--><g class="entity" data-qualified-name="NOTIP Management API.KeysModule.ProvisioningController" data-source-line="14" id="ent0005"><rect fill="#F1F1F1" height="44" rx="2.5" ry="2.5" style="stroke:#181818;stroke-width:0.5;" width="138.2734" x="273" y="209.0169"/><ellipse cx="286" cy="223.0169" fill="#ADD1B2" rx="9" ry="9" style="stroke:#181818;stroke-width:1;"/><path d="M287.2813,226.3138 Q286.9375,226.4856 286.5625,226.5638 Q286.1875,226.6575 285.7656,226.6575 Q284.2969,226.6575 283.5156,225.6888 Q282.75,224.72 282.75,222.8763 Q282.75,221.0325 283.5156,220.0638 Q284.2969,219.095 285.7656,219.095 Q286.1875,219.095 286.5625,219.1888 Q286.9531,219.2669 287.2813,219.4388 L287.2813,221.0481 Q286.9063,220.7044 286.5469,220.5481 Q286.2031,220.3919 285.8438,220.3919 Q285.0469,220.3919 284.6406,221.0169 Q284.2344,221.6419 284.2344,222.8763 Q284.2344,224.1106 284.6406,224.7356 Q285.0469,225.3606 285.8438,225.3606 Q286.2031,225.3606 286.5469,225.2044 Q286.9063,225.0481 287.2813,224.7044 L287.2813,226.3138 Z " fill="#000000"/><text fill="#000000" font-family="sans-serif" font-size="10" lengthAdjust="spacing" textLength="110.2734" x="298" y="226.4788">ProvisioningController</text><line style="stroke:#181818;stroke-width:0.5;" x1="274" x2="410.2734" y1="237.0169" y2="237.0169"/><line style="stroke:#181818;stroke-width:0.5;" x1="274" x2="410.2734" y1="245.0169" y2="245.0169"/></g><!--class KeysService--><g class="entity" data-qualified-name="NOTIP Management API.KeysModule.KeysService" data-source-line="15" id="ent0006"><rect fill="#F1F1F1" height="44" rx="2.5" ry="2.5" style="stroke:#181818;stroke-width:0.5;" width="88.7959" x="401.5" y="261.0169"/><ellipse cx="414.5" cy="275.0169" fill="#ADD1B2" rx="9" ry="9" style="stroke:#181818;stroke-width:1;"/><path d="M415.7813,278.3138 Q415.4375,278.4856 415.0625,278.5638 Q414.6875,278.6575 414.2656,278.6575 Q412.7969,278.6575 412.0156,277.6888 Q411.25,276.72 411.25,274.8763 Q411.25,273.0325 412.0156,272.0638 Q412.7969,271.095 414.2656,271.095 Q414.6875,271.095 415.0625,271.1888 Q415.4531,271.2669 415.7813,271.4388 L415.7813,273.0481 Q415.4063,272.7044 415.0469,272.5481 Q414.7031,272.3919 414.3438,272.3919 Q413.5469,272.3919 413.1406,273.0169 Q412.7344,273.6419 412.7344,274.8763 Q412.7344,276.1106 413.1406,276.7356 Q413.5469,277.3606 414.3438,277.3606 Q414.7031,277.3606 415.0469,277.2044 Q415.4063,277.0481 415.7813,276.7044 L415.7813,278.3138 Z " fill="#000000"/><text fill="#000000" font-family="sans-serif" font-size="10" lengthAdjust="spacing" textLength="60.7959" x="426.5" y="278.4788">KeysService</text><line style="stroke:#181818;stroke-width:0.5;" x1="402.5" x2="489.2959" y1="289.0169" y2="289.0169"/><line style="stroke:#181818;stroke-width:0.5;" x1="402.5" x2="489.2959" y1="297.0169" y2="297.0169"/></g><!--class GatewaysKeysPersistenceService--><g class="entity" data-qualified-name="NOTIP Management API.KeysModule.GatewaysKeysPersistenceService" data-source-line="16" id="ent0007"><rect fill="#F1F1F1" height="44" rx="2.5" ry="2.5" style="stroke:#181818;stroke-width:0.5;" width="195.7344" x="325" y="313.0169"/><ellipse cx="338" cy="327.0169" fill="#ADD1B2" rx="9" ry="9" style="stroke:#181818;stroke-width:1;"/><path d="M339.2813,330.3138 Q338.9375,330.4856 338.5625,330.5638 Q338.1875,330.6575 337.7656,330.6575 Q336.2969,330.6575 335.5156,329.6888 Q334.75,328.72 334.75,326.8763 Q334.75,325.0325 335.5156,324.0638 Q336.2969,323.095 337.7656,323.095 Q338.1875,323.095 338.5625,323.1888 Q338.9531,323.2669 339.2813,323.4388 L339.2813,325.0481 Q338.9063,324.7044 338.5469,324.5481 Q338.2031,324.3919 337.8438,324.3919 Q337.0469,324.3919 336.6406,325.0169 Q336.2344,325.6419 336.2344,326.8763 Q336.2344,328.1106 336.6406,328.7356 Q337.0469,329.3606 337.8438,329.3606 Q338.2031,329.3606 338.5469,329.2044 Q338.9063,329.0481 339.2813,328.7044 L339.2813,330.3138 Z " fill="#000000"/><text fill="#000000" font-family="sans-serif" font-size="10" lengthAdjust="spacing" textLength="167.7344" x="350" y="330.4788">GatewaysKeysPersistenceService</text><line style="stroke:#181818;stroke-width:0.5;" x1="326" x2="519.7344" y1="341.0169" y2="341.0169"/><line style="stroke:#181818;stroke-width:0.5;" x1="326" x2="519.7344" y1="349.0169" y2="349.0169"/></g><!--class ProvisioningNatsResponderService--><g class="entity" data-qualified-name="NOTIP Management API.KeysModule.ProvisioningNatsResponderService" data-source-line="17" id="ent0008"><rect fill="#F1F1F1" height="44" rx="2.5" ry="2.5" style="stroke:#181818;stroke-width:0.5;" width="202.2871" x="63" y="209.0169"/><ellipse cx="76" cy="223.0169" fill="#ADD1B2" rx="9" ry="9" style="stroke:#181818;stroke-width:1;"/><path d="M77.2813,226.3138 Q76.9375,226.4856 76.5625,226.5638 Q76.1875,226.6575 75.7656,226.6575 Q74.2969,226.6575 73.5156,225.6888 Q72.75,224.72 72.75,222.8763 Q72.75,221.0325 73.5156,220.0638 Q74.2969,219.095 75.7656,219.095 Q76.1875,219.095 76.5625,219.1888 Q76.9531,219.2669 77.2813,219.4388 L77.2813,221.0481 Q76.9063,220.7044 76.5469,220.5481 Q76.2031,220.3919 75.8438,220.3919 Q75.0469,220.3919 74.6406,221.0169 Q74.2344,221.6419 74.2344,222.8763 Q74.2344,224.1106 74.6406,224.7356 Q75.0469,225.3606 75.8438,225.3606 Q76.2031,225.3606 76.5469,225.2044 Q76.9063,225.0481 77.2813,224.7044 L77.2813,226.3138 Z " fill="#000000"/><text fill="#000000" font-family="sans-serif" font-size="10" lengthAdjust="spacing" textLength="174.2871" x="88" y="226.4788">ProvisioningNatsResponderService</text><line style="stroke:#181818;stroke-width:0.5;" x1="64" x2="264.2871" y1="237.0169" y2="237.0169"/><line style="stroke:#181818;stroke-width:0.5;" x1="64" x2="264.2871" y1="245.0169" y2="245.0169"/></g><!--class KeyEntity--><g class="entity" data-qualified-name="NOTIP Management API.KeysModule.KeyEntity" data-source-line="18" id="ent0009"><rect fill="#F1F1F1" height="44" rx="2.5" ry="2.5" style="stroke:#181818;stroke-width:0.5;" width="75.8223" x="385" y="365.0169"/><ellipse cx="398" cy="379.0169" fill="#ADD1B2" rx="9" ry="9" style="stroke:#181818;stroke-width:1;"/><path d="M399.2813,382.3138 Q398.9375,382.4856 398.5625,382.5638 Q398.1875,382.6575 397.7656,382.6575 Q396.2969,382.6575 395.5156,381.6888 Q394.75,380.72 394.75,378.8763 Q394.75,377.0325 395.5156,376.0638 Q396.2969,375.095 397.7656,375.095 Q398.1875,375.095 398.5625,375.1888 Q398.9531,375.2669 399.2813,375.4388 L399.2813,377.0481 Q398.9063,376.7044 398.5469,376.5481 Q398.2031,376.3919 397.8438,376.3919 Q397.0469,376.3919 396.6406,377.0169 Q396.2344,377.6419 396.2344,378.8763 Q396.2344,380.1106 396.6406,380.7356 Q397.0469,381.3606 397.8438,381.3606 Q398.2031,381.3606 398.5469,381.2044 Q398.9063,381.0481 399.2813,380.7044 L399.2813,382.3138 Z " fill="#000000"/><text fill="#000000" font-family="sans-serif" font-size="10" lengthAdjust="spacing" textLength="47.8223" x="410" y="382.4788">KeyEntity</text><line style="stroke:#181818;stroke-width:0.5;" x1="386" x2="459.8223" y1="393.0169" y2="393.0169"/><line style="stroke:#181818;stroke-width:0.5;" x1="386" x2="459.8223" y1="401.0169" y2="401.0169"/></g><!--class UsersController--><g class="entity" data-qualified-name="NOTIP Management API.UsersModule.UsersController" data-source-line="22" id="ent0011"><rect fill="#F1F1F1" height="44" rx="2.5" ry="2.5" style="stroke:#181818;stroke-width:0.5;" width="105.4121" x="754.5" y="209.0169"/><ellipse cx="767.5" cy="223.0169" fill="#ADD1B2" rx="9" ry="9" style="stroke:#181818;stroke-width:1;"/><path d="M768.7813,226.3138 Q768.4375,226.4856 768.0625,226.5638 Q767.6875,226.6575 767.2656,226.6575 Q765.7969,226.6575 765.0156,225.6888 Q764.25,224.72 764.25,222.8763 Q764.25,221.0325 765.0156,220.0638 Q765.7969,219.095 767.2656,219.095 Q767.6875,219.095 768.0625,219.1888 Q768.4531,219.2669 768.7813,219.4388 L768.7813,221.0481 Q768.4063,220.7044 768.0469,220.5481 Q767.7031,220.3919 767.3438,220.3919 Q766.5469,220.3919 766.1406,221.0169 Q765.7344,221.6419 765.7344,222.8763 Q765.7344,224.1106 766.1406,224.7356 Q766.5469,225.3606 767.3438,225.3606 Q767.7031,225.3606 768.0469,225.2044 Q768.4063,225.0481 768.7813,224.7044 L768.7813,226.3138 Z " fill="#000000"/><text fill="#000000" font-family="sans-serif" font-size="10" lengthAdjust="spacing" textLength="77.4121" x="779.5" y="226.4788">UsersController</text><line style="stroke:#181818;stroke-width:0.5;" x1="755.5" x2="858.9121" y1="237.0169" y2="237.0169"/><line style="stroke:#181818;stroke-width:0.5;" x1="755.5" x2="858.9121" y1="245.0169" y2="245.0169"/></g><!--class UsersService--><g class="entity" data-qualified-name="NOTIP Management API.UsersModule.UsersService" data-source-line="23" id="ent0012"><rect fill="#F1F1F1" height="44" rx="2.5" ry="2.5" style="stroke:#181818;stroke-width:0.5;" width="92.9609" x="760.5" y="261.0169"/><ellipse cx="773.5" cy="275.0169" fill="#ADD1B2" rx="9" ry="9" style="stroke:#181818;stroke-width:1;"/><path d="M774.7813,278.3138 Q774.4375,278.4856 774.0625,278.5638 Q773.6875,278.6575 773.2656,278.6575 Q771.7969,278.6575 771.0156,277.6888 Q770.25,276.72 770.25,274.8763 Q770.25,273.0325 771.0156,272.0638 Q771.7969,271.095 773.2656,271.095 Q773.6875,271.095 774.0625,271.1888 Q774.4531,271.2669 774.7813,271.4388 L774.7813,273.0481 Q774.4063,272.7044 774.0469,272.5481 Q773.7031,272.3919 773.3438,272.3919 Q772.5469,272.3919 772.1406,273.0169 Q771.7344,273.6419 771.7344,274.8763 Q771.7344,276.1106 772.1406,276.7356 Q772.5469,277.3606 773.3438,277.3606 Q773.7031,277.3606 774.0469,277.2044 Q774.4063,277.0481 774.7813,276.7044 L774.7813,278.3138 Z " fill="#000000"/><text fill="#000000" font-family="sans-serif" font-size="10" lengthAdjust="spacing" textLength="64.9609" x="785.5" y="278.4788">UsersService</text><line style="stroke:#181818;stroke-width:0.5;" x1="761.5" x2="852.4609" y1="289.0169" y2="289.0169"/><line style="stroke:#181818;stroke-width:0.5;" x1="761.5" x2="852.4609" y1="297.0169" y2="297.0169"/></g><!--class UsersPersistenceService--><g class="entity" data-qualified-name="NOTIP Management API.UsersModule.UsersPersistenceService" data-source-line="24" id="ent0013"><rect fill="#F1F1F1" height="44" rx="2.5" ry="2.5" style="stroke:#181818;stroke-width:0.5;" width="150.5146" x="731.5" y="313.0169"/><ellipse cx="744.5" cy="327.0169" fill="#ADD1B2" rx="9" ry="9" style="stroke:#181818;stroke-width:1;"/><path d="M745.7813,330.3138 Q745.4375,330.4856 745.0625,330.5638 Q744.6875,330.6575 744.2656,330.6575 Q742.7969,330.6575 742.0156,329.6888 Q741.25,328.72 741.25,326.8763 Q741.25,325.0325 742.0156,324.0638 Q742.7969,323.095 744.2656,323.095 Q744.6875,323.095 745.0625,323.1888 Q745.4531,323.2669 745.7813,323.4388 L745.7813,325.0481 Q745.4063,324.7044 745.0469,324.5481 Q744.7031,324.3919 744.3438,324.3919 Q743.5469,324.3919 743.1406,325.0169 Q742.7344,325.6419 742.7344,326.8763 Q742.7344,328.1106 743.1406,328.7356 Q743.5469,329.3606 744.3438,329.3606 Q744.7031,329.3606 745.0469,329.2044 Q745.4063,329.0481 745.7813,328.7044 L745.7813,330.3138 Z " fill="#000000"/><text fill="#000000" font-family="sans-serif" font-size="10" lengthAdjust="spacing" textLength="122.5146" x="756.5" y="330.4788">UsersPersistenceService</text><line style="stroke:#181818;stroke-width:0.5;" x1="732.5" x2="881.0146" y1="341.0169" y2="341.0169"/><line style="stroke:#181818;stroke-width:0.5;" x1="732.5" x2="881.0146" y1="349.0169" y2="349.0169"/></g><!--class UserEntity--><g class="entity" data-qualified-name="NOTIP Management API.UsersModule.UserEntity" data-source-line="25" id="ent0014"><rect fill="#F1F1F1" height="44" rx="2.5" ry="2.5" style="stroke:#181818;stroke-width:0.5;" width="79.9873" x="785" y="365.0169"/><ellipse cx="798" cy="379.0169" fill="#ADD1B2" rx="9" ry="9" style="stroke:#181818;stroke-width:1;"/><path d="M799.2813,382.3138 Q798.9375,382.4856 798.5625,382.5638 Q798.1875,382.6575 797.7656,382.6575 Q796.2969,382.6575 795.5156,381.6888 Q794.75,380.72 794.75,378.8763 Q794.75,377.0325 795.5156,376.0638 Q796.2969,375.095 797.7656,375.095 Q798.1875,375.095 798.5625,375.1888 Q798.9531,375.2669 799.2813,375.4388 L799.2813,377.0481 Q798.9063,376.7044 798.5469,376.5481 Q798.2031,376.3919 797.8438,376.3919 Q797.0469,376.3919 796.6406,377.0169 Q796.2344,377.6419 796.2344,378.8763 Q796.2344,380.1106 796.6406,380.7356 Q797.0469,381.3606 797.8438,381.3606 Q798.2031,381.3606 798.5469,381.2044 Q798.9063,381.0481 799.2813,380.7044 L799.2813,382.3138 Z " fill="#000000"/><text fill="#000000" font-family="sans-serif" font-size="10" lengthAdjust="spacing" textLength="51.9873" x="810" y="382.4788">UserEntity</text><line style="stroke:#181818;stroke-width:0.5;" x1="786" x2="863.9873" y1="393.0169" y2="393.0169"/><line style="stroke:#181818;stroke-width:0.5;" x1="786" x2="863.9873" y1="401.0169" y2="401.0169"/></g><!--class ThresholdsController--><g class="entity" data-qualified-name="NOTIP Management API.ThresholdsModule.ThresholdsController" data-source-line="29" id="ent0016"><rect fill="#F1F1F1" height="44" rx="2.5" ry="2.5" style="stroke:#181818;stroke-width:0.5;" width="132.1211" x="993" y="209.0169"/><ellipse cx="1006" cy="223.0169" fill="#ADD1B2" rx="9" ry="9" style="stroke:#181818;stroke-width:1;"/><path d="M1007.2813,226.3138 Q1006.9375,226.4856 1006.5625,226.5638 Q1006.1875,226.6575 1005.7656,226.6575 Q1004.2969,226.6575 1003.5156,225.6888 Q1002.75,224.72 1002.75,222.8763 Q1002.75,221.0325 1003.5156,220.0638 Q1004.2969,219.095 1005.7656,219.095 Q1006.1875,219.095 1006.5625,219.1888 Q1006.9531,219.2669 1007.2813,219.4388 L1007.2813,221.0481 Q1006.9063,220.7044 1006.5469,220.5481 Q1006.2031,220.3919 1005.8438,220.3919 Q1005.0469,220.3919 1004.6406,221.0169 Q1004.2344,221.6419 1004.2344,222.8763 Q1004.2344,224.1106 1004.6406,224.7356 Q1005.0469,225.3606 1005.8438,225.3606 Q1006.2031,225.3606 1006.5469,225.2044 Q1006.9063,225.0481 1007.2813,224.7044 L1007.2813,226.3138 Z " fill="#000000"/><text fill="#000000" font-family="sans-serif" font-size="10" lengthAdjust="spacing" textLength="104.1211" x="1018" y="226.4788">ThresholdsController</text><line style="stroke:#181818;stroke-width:0.5;" x1="994" x2="1124.1211" y1="237.0169" y2="237.0169"/><line style="stroke:#181818;stroke-width:0.5;" x1="994" x2="1124.1211" y1="245.0169" y2="245.0169"/></g><!--class ThresholdsService--><g class="entity" data-qualified-name="NOTIP Management API.ThresholdsModule.ThresholdsService" data-source-line="30" id="ent0017"><rect fill="#F1F1F1" height="44" rx="2.5" ry="2.5" style="stroke:#181818;stroke-width:0.5;" width="119.6699" x="999" y="261.0169"/><ellipse cx="1012" cy="275.0169" fill="#ADD1B2" rx="9" ry="9" style="stroke:#181818;stroke-width:1;"/><path d="M1013.2813,278.3138 Q1012.9375,278.4856 1012.5625,278.5638 Q1012.1875,278.6575 1011.7656,278.6575 Q1010.2969,278.6575 1009.5156,277.6888 Q1008.75,276.72 1008.75,274.8763 Q1008.75,273.0325 1009.5156,272.0638 Q1010.2969,271.095 1011.7656,271.095 Q1012.1875,271.095 1012.5625,271.1888 Q1012.9531,271.2669 1013.2813,271.4388 L1013.2813,273.0481 Q1012.9063,272.7044 1012.5469,272.5481 Q1012.2031,272.3919 1011.8438,272.3919 Q1011.0469,272.3919 1010.6406,273.0169 Q1010.2344,273.6419 1010.2344,274.8763 Q1010.2344,276.1106 1010.6406,276.7356 Q1011.0469,277.3606 1011.8438,277.3606 Q1012.2031,277.3606 1012.5469,277.2044 Q1012.9063,277.0481 1013.2813,276.7044 L1013.2813,278.3138 Z " fill="#000000"/><text fill="#000000" font-family="sans-serif" font-size="10" lengthAdjust="spacing" textLength="91.6699" x="1024" y="278.4788">ThresholdsService</text><line style="stroke:#181818;stroke-width:0.5;" x1="1000" x2="1117.6699" y1="289.0169" y2="289.0169"/><line style="stroke:#181818;stroke-width:0.5;" x1="1000" x2="1117.6699" y1="297.0169" y2="297.0169"/></g><!--class ThresholdsPersistenceService--><g class="entity" data-qualified-name="NOTIP Management API.ThresholdsModule.ThresholdsPersistenceService" data-source-line="31" id="ent0018"><rect fill="#F1F1F1" height="44" rx="2.5" ry="2.5" style="stroke:#181818;stroke-width:0.5;" width="177.2236" x="970.5" y="313.0169"/><ellipse cx="983.5" cy="327.0169" fill="#ADD1B2" rx="9" ry="9" style="stroke:#181818;stroke-width:1;"/><path d="M984.7813,330.3138 Q984.4375,330.4856 984.0625,330.5638 Q983.6875,330.6575 983.2656,330.6575 Q981.7969,330.6575 981.0156,329.6888 Q980.25,328.72 980.25,326.8763 Q980.25,325.0325 981.0156,324.0638 Q981.7969,323.095 983.2656,323.095 Q983.6875,323.095 984.0625,323.1888 Q984.4531,323.2669 984.7813,323.4388 L984.7813,325.0481 Q984.4063,324.7044 984.0469,324.5481 Q983.7031,324.3919 983.3438,324.3919 Q982.5469,324.3919 982.1406,325.0169 Q981.7344,325.6419 981.7344,326.8763 Q981.7344,328.1106 982.1406,328.7356 Q982.5469,329.3606 983.3438,329.3606 Q983.7031,329.3606 984.0469,329.2044 Q984.4063,329.0481 984.7813,328.7044 L984.7813,330.3138 Z " fill="#000000"/><text fill="#000000" font-family="sans-serif" font-size="10" lengthAdjust="spacing" textLength="149.2236" x="995.5" y="330.4788">ThresholdsPersistenceService</text><line style="stroke:#181818;stroke-width:0.5;" x1="971.5" x2="1146.7236" y1="341.0169" y2="341.0169"/><line style="stroke:#181818;stroke-width:0.5;" x1="971.5" x2="1146.7236" y1="349.0169" y2="349.0169"/></g><!--class ThresholdEntity--><g class="entity" data-qualified-name="NOTIP Management API.ThresholdsModule.ThresholdEntity" data-source-line="32" id="ent0019"><rect fill="#F1F1F1" height="44" rx="2.5" ry="2.5" style="stroke:#181818;stroke-width:0.5;" width="106.6963" x="1005.5" y="365.0169"/><ellipse cx="1018.5" cy="379.0169" fill="#ADD1B2" rx="9" ry="9" style="stroke:#181818;stroke-width:1;"/><path d="M1019.7813,382.3138 Q1019.4375,382.4856 1019.0625,382.5638 Q1018.6875,382.6575 1018.2656,382.6575 Q1016.7969,382.6575 1016.0156,381.6888 Q1015.25,380.72 1015.25,378.8763 Q1015.25,377.0325 1016.0156,376.0638 Q1016.7969,375.095 1018.2656,375.095 Q1018.6875,375.095 1019.0625,375.1888 Q1019.4531,375.2669 1019.7813,375.4388 L1019.7813,377.0481 Q1019.4063,376.7044 1019.0469,376.5481 Q1018.7031,376.3919 1018.3438,376.3919 Q1017.5469,376.3919 1017.1406,377.0169 Q1016.7344,377.6419 1016.7344,378.8763 Q1016.7344,380.1106 1017.1406,380.7356 Q1017.5469,381.3606 1018.3438,381.3606 Q1018.7031,381.3606 1019.0469,381.2044 Q1019.4063,381.0481 1019.7813,380.7044 L1019.7813,382.3138 Z " fill="#000000"/><text fill="#000000" font-family="sans-serif" font-size="10" lengthAdjust="spacing" textLength="78.6963" x="1030.5" y="382.4788">ThresholdEntity</text><line style="stroke:#181818;stroke-width:0.5;" x1="1006.5" x2="1111.1963" y1="393.0169" y2="393.0169"/><line style="stroke:#181818;stroke-width:0.5;" x1="1006.5" x2="1111.1963" y1="401.0169" y2="401.0169"/></g><!--class AuditLogController--><g class="entity" data-qualified-name="NOTIP Management API.AuditLogModule.AuditLogController" data-source-line="36" id="ent0021"><rect fill="#F1F1F1" height="44" rx="2.5" ry="2.5" style="stroke:#181818;stroke-width:0.5;" width="121.6719" x="1409" y="209.0169"/><ellipse cx="1422" cy="223.0169" fill="#ADD1B2" rx="9" ry="9" style="stroke:#181818;stroke-width:1;"/><path d="M1423.2813,226.3138 Q1422.9375,226.4856 1422.5625,226.5638 Q1422.1875,226.6575 1421.7656,226.6575 Q1420.2969,226.6575 1419.5156,225.6888 Q1418.75,224.72 1418.75,222.8763 Q1418.75,221.0325 1419.5156,220.0638 Q1420.2969,219.095 1421.7656,219.095 Q1422.1875,219.095 1422.5625,219.1888 Q1422.9531,219.2669 1423.2813,219.4388 L1423.2813,221.0481 Q1422.9063,220.7044 1422.5469,220.5481 Q1422.2031,220.3919 1421.8438,220.3919 Q1421.0469,220.3919 1420.6406,221.0169 Q1420.2344,221.6419 1420.2344,222.8763 Q1420.2344,224.1106 1420.6406,224.7356 Q1421.0469,225.3606 1421.8438,225.3606 Q1422.2031,225.3606 1422.5469,225.2044 Q1422.9063,225.0481 1423.2813,224.7044 L1423.2813,226.3138 Z " fill="#000000"/><text fill="#000000" font-family="sans-serif" font-size="10" lengthAdjust="spacing" textLength="93.6719" x="1434" y="226.4788">AuditLogController</text><line style="stroke:#181818;stroke-width:0.5;" x1="1410" x2="1529.6719" y1="237.0169" y2="237.0169"/><line style="stroke:#181818;stroke-width:0.5;" x1="1410" x2="1529.6719" y1="245.0169" y2="245.0169"/></g><!--class AuditLogService--><g class="entity" data-qualified-name="NOTIP Management API.AuditLogModule.AuditLogService" data-source-line="37" id="ent0022"><rect fill="#F1F1F1" height="44" rx="2.5" ry="2.5" style="stroke:#181818;stroke-width:0.5;" width="109.2207" x="1263.5" y="261.0169"/><ellipse cx="1276.5" cy="275.0169" fill="#ADD1B2" rx="9" ry="9" style="stroke:#181818;stroke-width:1;"/><path d="M1277.7813,278.3138 Q1277.4375,278.4856 1277.0625,278.5638 Q1276.6875,278.6575 1276.2656,278.6575 Q1274.7969,278.6575 1274.0156,277.6888 Q1273.25,276.72 1273.25,274.8763 Q1273.25,273.0325 1274.0156,272.0638 Q1274.7969,271.095 1276.2656,271.095 Q1276.6875,271.095 1277.0625,271.1888 Q1277.4531,271.2669 1277.7813,271.4388 L1277.7813,273.0481 Q1277.4063,272.7044 1277.0469,272.5481 Q1276.7031,272.3919 1276.3438,272.3919 Q1275.5469,272.3919 1275.1406,273.0169 Q1274.7344,273.6419 1274.7344,274.8763 Q1274.7344,276.1106 1275.1406,276.7356 Q1275.5469,277.3606 1276.3438,277.3606 Q1276.7031,277.3606 1277.0469,277.2044 Q1277.4063,277.0481 1277.7813,276.7044 L1277.7813,278.3138 Z " fill="#000000"/><text fill="#000000" font-family="sans-serif" font-size="10" lengthAdjust="spacing" textLength="81.2207" x="1288.5" y="278.4788">AuditLogService</text><line style="stroke:#181818;stroke-width:0.5;" x1="1264.5" x2="1371.7207" y1="289.0169" y2="289.0169"/><line style="stroke:#181818;stroke-width:0.5;" x1="1264.5" x2="1371.7207" y1="297.0169" y2="297.0169"/></g><!--class AuditLogPersistenceService--><g class="entity" data-qualified-name="NOTIP Management API.AuditLogModule.AuditLogPersistenceService" data-source-line="38" id="ent0023"><rect fill="#F1F1F1" height="44" rx="2.5" ry="2.5" style="stroke:#181818;stroke-width:0.5;" width="166.7744" x="1234.5" y="313.0169"/><ellipse cx="1247.5" cy="327.0169" fill="#ADD1B2" rx="9" ry="9" style="stroke:#181818;stroke-width:1;"/><path d="M1248.7813,330.3138 Q1248.4375,330.4856 1248.0625,330.5638 Q1247.6875,330.6575 1247.2656,330.6575 Q1245.7969,330.6575 1245.0156,329.6888 Q1244.25,328.72 1244.25,326.8763 Q1244.25,325.0325 1245.0156,324.0638 Q1245.7969,323.095 1247.2656,323.095 Q1247.6875,323.095 1248.0625,323.1888 Q1248.4531,323.2669 1248.7813,323.4388 L1248.7813,325.0481 Q1248.4063,324.7044 1248.0469,324.5481 Q1247.7031,324.3919 1247.3438,324.3919 Q1246.5469,324.3919 1246.1406,325.0169 Q1245.7344,325.6419 1245.7344,326.8763 Q1245.7344,328.1106 1246.1406,328.7356 Q1246.5469,329.3606 1247.3438,329.3606 Q1247.7031,329.3606 1248.0469,329.2044 Q1248.4063,329.0481 1248.7813,328.7044 L1248.7813,330.3138 Z " fill="#000000"/><text fill="#000000" font-family="sans-serif" font-size="10" lengthAdjust="spacing" textLength="138.7744" x="1259.5" y="330.4788">AuditLogPersistenceService</text><line style="stroke:#181818;stroke-width:0.5;" x1="1235.5" x2="1400.2744" y1="341.0169" y2="341.0169"/><line style="stroke:#181818;stroke-width:0.5;" x1="1235.5" x2="1400.2744" y1="349.0169" y2="349.0169"/></g><!--class ProvisioningAuditConsumer--><g class="entity" data-qualified-name="NOTIP Management API.AuditLogModule.ProvisioningAuditConsumer" data-source-line="39" id="ent0024"><rect fill="#F1F1F1" height="44" rx="2.5" ry="2.5" style="stroke:#181818;stroke-width:0.5;" width="166.0811" x="1235" y="209.0169"/><ellipse cx="1248" cy="223.0169" fill="#ADD1B2" rx="9" ry="9" style="stroke:#181818;stroke-width:1;"/><path d="M1249.2813,226.3138 Q1248.9375,226.4856 1248.5625,226.5638 Q1248.1875,226.6575 1247.7656,226.6575 Q1246.2969,226.6575 1245.5156,225.6888 Q1244.75,224.72 1244.75,222.8763 Q1244.75,221.0325 1245.5156,220.0638 Q1246.2969,219.095 1247.7656,219.095 Q1248.1875,219.095 1248.5625,219.1888 Q1248.9531,219.2669 1249.2813,219.4388 L1249.2813,221.0481 Q1248.9063,220.7044 1248.5469,220.5481 Q1248.2031,220.3919 1247.8438,220.3919 Q1247.0469,220.3919 1246.6406,221.0169 Q1246.2344,221.6419 1246.2344,222.8763 Q1246.2344,224.1106 1246.6406,224.7356 Q1247.0469,225.3606 1247.8438,225.3606 Q1248.2031,225.3606 1248.5469,225.2044 Q1248.9063,225.0481 1249.2813,224.7044 L1249.2813,226.3138 Z " fill="#000000"/><text fill="#000000" font-family="sans-serif" font-size="10" lengthAdjust="spacing" textLength="138.0811" x="1260" y="226.4788">ProvisioningAuditConsumer</text><line style="stroke:#181818;stroke-width:0.5;" x1="1236" x2="1400.0811" y1="237.0169" y2="237.0169"/><line style="stroke:#181818;stroke-width:0.5;" x1="1236" x2="1400.0811" y1="245.0169" y2="245.0169"/></g><!--class AuditLogEntity--><g class="entity" data-qualified-name="NOTIP Management API.AuditLogModule.AuditLogEntity" data-source-line="40" id="ent0025"><rect fill="#F1F1F1" height="44" rx="2.5" ry="2.5" style="stroke:#181818;stroke-width:0.5;" width="101.457" x="1251.5" y="365.0169"/><ellipse cx="1264.5" cy="379.0169" fill="#ADD1B2" rx="9" ry="9" style="stroke:#181818;stroke-width:1;"/><path d="M1265.7813,382.3138 Q1265.4375,382.4856 1265.0625,382.5638 Q1264.6875,382.6575 1264.2656,382.6575 Q1262.7969,382.6575 1262.0156,381.6888 Q1261.25,380.72 1261.25,378.8763 Q1261.25,377.0325 1262.0156,376.0638 Q1262.7969,375.095 1264.2656,375.095 Q1264.6875,375.095 1265.0625,375.1888 Q1265.4531,375.2669 1265.7813,375.4388 L1265.7813,377.0481 Q1265.4063,376.7044 1265.0469,376.5481 Q1264.7031,376.3919 1264.3438,376.3919 Q1263.5469,376.3919 1263.1406,377.0169 Q1262.7344,377.6419 1262.7344,378.8763 Q1262.7344,380.1106 1263.1406,380.7356 Q1263.5469,381.3606 1264.3438,381.3606 Q1264.7031,381.3606 1265.0469,381.2044 Q1265.4063,381.0481 1265.7813,380.7044 L1265.7813,382.3138 Z " fill="#000000"/><text fill="#000000" font-family="sans-serif" font-size="10" lengthAdjust="spacing" textLength="73.457" x="1276.5" y="382.4788">AuditLogEntity</text><line style="stroke:#181818;stroke-width:0.5;" x1="1252.5" x2="1351.957" y1="393.0169" y2="393.0169"/><line style="stroke:#181818;stroke-width:0.5;" x1="1252.5" x2="1351.957" y1="401.0169" y2="401.0169"/></g><g class="entity" data-qualified-name="GMN54" data-source-line="78" id="ent0055"><path d="M307,43.2969 L307,99.8594 L505.0605,99.8594 L505.0605,53.2969 L495.0605,43.2969 L307,43.2969" fill="#FEFFDD" style="stroke:#181818;stroke-width:0.5;"/><path d="M495.0605,43.2969 L495.0605,53.2969 L505.0605,53.2969 L495.0605,43.2969" fill="#FEFFDD" style="stroke:#181818;stroke-width:1;"/><text fill="#000000" font-family="sans-serif" font-size="10" lengthAdjust="spacing" textLength="177.0605" x="313" y="57.5791">Handles AES-256 key management</text><text fill="#000000" font-family="sans-serif" font-size="10" lengthAdjust="spacing" textLength="154.0234" x="313" y="69.2197">Factory key validation (bcrypt)</text><text fill="#000000" font-family="sans-serif" font-size="10" lengthAdjust="spacing" textLength="150.1367" x="313" y="80.8604">Provisioning with transactions</text><text fill="#000000" font-family="sans-serif" font-size="10" lengthAdjust="spacing" textLength="109.4678" x="313" y="92.501">Gateway key lifecycle</text></g><g class="entity" data-qualified-name="GMN57" data-source-line="85" id="ent0058"><path d="M713,43.2969 L713,99.8594 L901.1631,99.8594 L901.1631,53.2969 L891.1631,43.2969 L713,43.2969" fill="#FEFFDD" style="stroke:#181818;stroke-width:0.5;"/><path d="M891.1631,43.2969 L891.1631,53.2969 L901.1631,53.2969 L891.1631,43.2969" fill="#FEFFDD" style="stroke:#181818;stroke-width:1;"/><text fill="#000000" font-family="sans-serif" font-size="10" lengthAdjust="spacing" textLength="167.1631" x="719" y="57.5791">CRUD operations on tenant users</text><text fill="#000000" font-family="sans-serif" font-size="10" lengthAdjust="spacing" textLength="118.2129" x="719" y="69.2197">Sync with Keycloak IAM</text><text fill="#000000" font-family="sans-serif" font-size="10" lengthAdjust="spacing" textLength="92.1631" x="719" y="80.8604">Role management</text><text fill="#000000" font-family="sans-serif" font-size="10" lengthAdjust="spacing" textLength="98.0225" x="719" y="92.501">Bulk delete support</text></g><g class="entity" data-qualified-name="GMN60" data-source-line="92" id="ent0061"><path d="M966,49.2969 L966,94.2188 L1152.1465,94.2188 L1152.1465,59.2969 L1142.1465,49.2969 L966,49.2969" fill="#FEFFDD" style="stroke:#181818;stroke-width:0.5;"/><path d="M1142.1465,49.2969 L1142.1465,59.2969 L1152.1465,59.2969 L1142.1465,49.2969" fill="#FEFFDD" style="stroke:#181818;stroke-width:1;"/><text fill="#000000" font-family="sans-serif" font-size="10" lengthAdjust="spacing" textLength="136.9531" x="972" y="63.5791">Manages sensor thresholds</text><text fill="#000000" font-family="sans-serif" font-size="10" lengthAdjust="spacing" textLength="165.1465" x="972" y="75.2197">Default and per-sensor overrides</text><text fill="#000000" font-family="sans-serif" font-size="10" lengthAdjust="spacing" textLength="125.791" x="972" y="86.8604">Used for alert generation</text></g><g class="entity" data-qualified-name="GMN63" data-source-line="98" id="ent0064"><path d="M1312.5,43.2969 L1312.5,99.8594 L1475.7412,99.8594 L1475.7412,53.2969 L1465.7412,43.2969 L1312.5,43.2969" fill="#FEFFDD" style="stroke:#181818;stroke-width:0.5;"/><path d="M1465.7412,43.2969 L1465.7412,53.2969 L1475.7412,53.2969 L1465.7412,43.2969" fill="#FEFFDD" style="stroke:#181818;stroke-width:1;"/><text fill="#000000" font-family="sans-serif" font-size="10" lengthAdjust="spacing" textLength="139.79" x="1318.5" y="57.5791">Audit logging for operations</text><text fill="#000000" font-family="sans-serif" font-size="10" lengthAdjust="spacing" textLength="142.2412" x="1318.5" y="69.2197">Provisioning audit consumer</text><text fill="#000000" font-family="sans-serif" font-size="10" lengthAdjust="spacing" textLength="97.7344" x="1318.5" y="80.8604">Time-range queries</text><text fill="#000000" font-family="sans-serif" font-size="10" lengthAdjust="spacing" textLength="111.1426" x="1318.5" y="92.501">Tenant-scoped access</text></g><!--link KeysModule to KeysController--><g class="link" data-entity-1="ent0003" data-entity-2="ent0004" data-link-type="dependency" data-source-line="44" id="lnk26"><path codeLine="44" d="M406.16,185.0169 C409.46,185.0169 462.25,185.0169 462.25,185.0169 C462.25,185.0169 462.25,191.0669 462.25,202.8269" fill="none" id="KeysModule-to-KeysController" style="stroke:#181818;stroke-width:1;"/><polygon fill="#181818" points="462.25,208.8269,466.25,199.8269,462.25,203.8269,458.25,199.8269,462.25,208.8269" style="stroke:#181818;stroke-width:1;"/></g><!--link KeysModule to ProvisioningController--><g class="link" data-entity-1="ent0003" data-entity-2="ent0005" data-link-type="dependency" data-source-line="45" id="lnk27"><path codeLine="45" d="M406,185.1769 C406,187.6469 406,192.4769 406,202.9869" fill="none" id="KeysModule-to-ProvisioningController" style="stroke:#181818;stroke-width:1;"/><polygon fill="#181818" points="406,208.9869,410,199.9869,406,203.9869,402,199.9869,406,208.9869" style="stroke:#181818;stroke-width:1;"/></g><!--link KeysController to KeysService--><g class="link" data-entity-1="ent0004" data-entity-2="ent0006" data-link-type="dependency" data-source-line="46" id="lnk28"><path codeLine="46" d="M455,253.0669 C455,255.6169 455,252.2169 455,254.7669" fill="none" id="KeysController-to-KeysService" style="stroke:#181818;stroke-width:1;"/><polygon fill="#181818" points="455,260.7669,459,251.7669,455,255.7669,451,251.7669,455,260.7669" style="stroke:#181818;stroke-width:1;"/></g><!--link ProvisioningController to KeysService--><g class="link" data-entity-1="ent0005" data-entity-2="ent0006" data-link-type="dependency" data-source-line="47" id="lnk29"><path codeLine="47" d="M406.25,253.0669 C406.25,255.6169 406.25,252.2169 406.25,254.7669" fill="none" id="ProvisioningController-to-KeysService" style="stroke:#181818;stroke-width:1;"/><polygon fill="#181818" points="406.25,260.7669,410.25,251.7669,406.25,255.7669,402.25,251.7669,406.25,260.7669" style="stroke:#181818;stroke-width:1;"/></g><!--link KeysService to GatewaysKeysPersistenceService--><g class="link" data-entity-1="ent0006" data-entity-2="ent0007" data-link-type="dependency" data-source-line="48" id="lnk30"><path codeLine="48" d="M446,305.0669 C446,307.6169 446,304.2169 446,306.7669" fill="none" id="KeysService-to-GatewaysKeysPersistenceService" style="stroke:#181818;stroke-width:1;"/><polygon fill="#181818" points="446,312.7669,450,303.7669,446,307.7669,442,303.7669,446,312.7669" style="stroke:#181818;stroke-width:1;"/></g><!--link KeysService to GatewaysService--><g class="link" data-entity-1="ent0006" data-entity-2="ent0031" data-link-type="dependency" data-source-line="49" id="lnk32"><path codeLine="49" d="M490.96,283.0169 C544.27,283.0169 626,283.0169 626,283.0169 C626,283.0169 626,292.7869 626,306.9669" fill="none" id="KeysService-to-GatewaysService" style="stroke:#181818;stroke-width:1;"/><polygon fill="#181818" points="626,312.9669,630,303.9669,626,307.9669,622,303.9669,626,312.9669" style="stroke:#181818;stroke-width:1;"/></g><!--link GatewaysKeysPersistenceService to KeyEntity--><g class="link" data-entity-1="ent0007" data-entity-2="ent0009" data-link-type="dependency" data-source-line="50" id="lnk33"><path codeLine="50" d="M423,357.0669 C423,359.6169 423,356.2169 423,358.7669" fill="none" id="GatewaysKeysPersistenceService-to-KeyEntity" style="stroke:#181818;stroke-width:1;"/><polygon fill="#181818" points="423,364.7669,427,355.7669,423,359.7669,419,355.7669,423,364.7669" style="stroke:#181818;stroke-width:1;"/></g><!--link KeyEntity to GatewayEntity--><g class="link" data-entity-1="ent0009" data-entity-2="ent0034" data-link-type="dependency" data-source-line="51" id="lnk35"><path codeLine="51" d="M423,409.2869 C423,423.7569 423,436.5269 423,450.9469" fill="none" id="KeyEntity-to-GatewayEntity" style="stroke:#181818;stroke-width:1;"/><polygon fill="#181818" points="423,456.9469,427,447.9469,423,451.9469,419,447.9469,423,456.9469" style="stroke:#181818;stroke-width:1;"/></g><!--link UsersModule to UsersController--><g class="link" data-entity-1="ent0010" data-entity-2="ent0011" data-link-type="dependency" data-source-line="54" id="lnk36"><path codeLine="54" d="M807,185.1769 C807,187.6469 807,192.4769 807,202.9869" fill="none" id="UsersModule-to-UsersController" style="stroke:#181818;stroke-width:1;"/><polygon fill="#181818" points="807,208.9869,811,199.9869,807,203.9869,803,199.9869,807,208.9869" style="stroke:#181818;stroke-width:1;"/></g><!--link UsersController to UsersService--><g class="link" data-entity-1="ent0011" data-entity-2="ent0012" data-link-type="dependency" data-source-line="55" id="lnk37"><path codeLine="55" d="M807,253.0669 C807,255.6169 807,252.2169 807,254.7669" fill="none" id="UsersController-to-UsersService" style="stroke:#181818;stroke-width:1;"/><polygon fill="#181818" points="807,260.7669,811,251.7669,807,255.7669,803,251.7669,807,260.7669" style="stroke:#181818;stroke-width:1;"/></g><!--link UsersService to UsersPersistenceService--><g class="link" data-entity-1="ent0012" data-entity-2="ent0013" data-link-type="dependency" data-source-line="56" id="lnk38"><path codeLine="56" d="M807,305.0669 C807,307.6169 807,304.2169 807,306.7669" fill="none" id="UsersService-to-UsersPersistenceService" style="stroke:#181818;stroke-width:1;"/><polygon fill="#181818" points="807,312.7669,811,303.7669,807,307.7669,803,303.7669,807,312.7669" style="stroke:#181818;stroke-width:1;"/></g><!--link UsersPersistenceService to UserEntity--><g class="link" data-entity-1="ent0013" data-entity-2="ent0014" data-link-type="dependency" data-source-line="57" id="lnk39"><path codeLine="57" d="M825,357.0669 C825,359.6169 825,356.2169 825,358.7669" fill="none" id="UsersPersistenceService-to-UserEntity" style="stroke:#181818;stroke-width:1;"/><polygon fill="#181818" points="825,364.7669,829,355.7669,825,359.7669,821,355.7669,825,364.7669" style="stroke:#181818;stroke-width:1;"/></g><!--link UserEntity to TenantEntity--><g class="link" data-entity-1="ent0014" data-entity-2="ent0040" data-link-type="dependency" data-source-line="58" id="lnk41"><path codeLine="58" d="M825,409.2869 C825,436.5169 825,479.0169 825,479.0169 C825,479.0169 938.57,479.0169 1006.77,479.0169" fill="none" id="UserEntity-to-TenantEntity" style="stroke:#181818;stroke-width:1;"/><polygon fill="#181818" points="1012.77,479.0169,1003.77,475.0169,1007.77,479.0169,1003.77,483.0169,1012.77,479.0169" style="stroke:#181818;stroke-width:1;"/></g><!--link ThresholdsModule to ThresholdsController--><g class="link" data-entity-1="ent0015" data-entity-2="ent0016" data-link-type="dependency" data-source-line="61" id="lnk42"><path codeLine="61" d="M1059,185.1769 C1059,187.6469 1059,192.4769 1059,202.9869" fill="none" id="ThresholdsModule-to-ThresholdsController" style="stroke:#181818;stroke-width:1;"/><polygon fill="#181818" points="1059,208.9869,1063,199.9869,1059,203.9869,1055,199.9869,1059,208.9869" style="stroke:#181818;stroke-width:1;"/></g><!--link ThresholdsController to ThresholdsService--><g class="link" data-entity-1="ent0016" data-entity-2="ent0017" data-link-type="dependency" data-source-line="62" id="lnk43"><path codeLine="62" d="M1059,253.0669 C1059,255.6169 1059,252.2169 1059,254.7669" fill="none" id="ThresholdsController-to-ThresholdsService" style="stroke:#181818;stroke-width:1;"/><polygon fill="#181818" points="1059,260.7669,1063,251.7669,1059,255.7669,1055,251.7669,1059,260.7669" style="stroke:#181818;stroke-width:1;"/></g><!--link ThresholdsService to ThresholdsPersistenceService--><g class="link" data-entity-1="ent0017" data-entity-2="ent0018" data-link-type="dependency" data-source-line="63" id="lnk44"><path codeLine="63" d="M1059,305.0669 C1059,307.6169 1059,304.2169 1059,306.7669" fill="none" id="ThresholdsService-to-ThresholdsPersistenceService" style="stroke:#181818;stroke-width:1;"/><polygon fill="#181818" points="1059,312.7669,1063,303.7669,1059,307.7669,1055,303.7669,1059,312.7669" style="stroke:#181818;stroke-width:1;"/></g><!--link ThresholdsPersistenceService to ThresholdEntity--><g class="link" data-entity-1="ent0018" data-entity-2="ent0019" data-link-type="dependency" data-source-line="64" id="lnk45"><path codeLine="64" d="M1059,357.0669 C1059,359.6169 1059,356.2169 1059,358.7669" fill="none" id="ThresholdsPersistenceService-to-ThresholdEntity" style="stroke:#181818;stroke-width:1;"/><polygon fill="#181818" points="1059,364.7669,1063,355.7669,1059,359.7669,1055,355.7669,1059,364.7669" style="stroke:#181818;stroke-width:1;"/></g><!--link ThresholdEntity to TenantEntity--><g class="link" data-entity-1="ent0019" data-entity-2="ent0040" data-link-type="dependency" data-source-line="65" id="lnk46"><path codeLine="65" d="M1059,409.2869 C1059,423.7569 1059,436.5269 1059,450.9469" fill="none" id="ThresholdEntity-to-TenantEntity" style="stroke:#181818;stroke-width:1;"/><polygon fill="#181818" points="1059,456.9469,1063,447.9469,1059,451.9469,1055,447.9469,1059,456.9469" style="stroke:#181818;stroke-width:1;"/></g><!--link AuditLogModule to AuditLogController--><g class="link" data-entity-1="ent0020" data-entity-2="ent0021" data-link-type="dependency" data-source-line="68" id="lnk47"><path codeLine="68" d="M1394.14,185.0169 C1396.97,185.0169 1442.25,185.0169 1442.25,185.0169 C1442.25,185.0169 1442.25,191.0669 1442.25,202.8269" fill="none" id="AuditLogModule-to-AuditLogController" style="stroke:#181818;stroke-width:1;"/><polygon fill="#181818" points="1442.25,208.8269,1446.25,199.8269,1442.25,203.8269,1438.25,199.8269,1442.25,208.8269" style="stroke:#181818;stroke-width:1;"/></g><!--link AuditLogController to AuditLogService--><g class="link" data-entity-1="ent0021" data-entity-2="ent0022" data-link-type="dependency" data-source-line="69" id="lnk48"><path codeLine="69" d="M1470,253.0669 C1470,267.2469 1470,283.0169 1470,283.0169 C1470,283.0169 1422.41,283.0169 1378.88,283.0169" fill="none" id="AuditLogController-to-AuditLogService" style="stroke:#181818;stroke-width:1;"/><polygon fill="#181818" points="1372.88,283.0169,1381.88,287.0169,1377.88,283.0169,1381.88,279.0169,1372.88,283.0169" style="stroke:#181818;stroke-width:1;"/></g><!--link AuditLogService to AuditLogPersistenceService--><g class="link" data-entity-1="ent0022" data-entity-2="ent0023" data-link-type="dependency" data-source-line="70" id="lnk49"><path codeLine="70" d="M1318,305.0669 C1318,307.6169 1318,304.2169 1318,306.7669" fill="none" id="AuditLogService-to-AuditLogPersistenceService" style="stroke:#181818;stroke-width:1;"/><polygon fill="#181818" points="1318,312.7669,1322,303.7669,1318,307.7669,1314,303.7669,1318,312.7669" style="stroke:#181818;stroke-width:1;"/></g><!--link AuditLogModule to ProvisioningAuditConsumer--><g class="link" data-entity-1="ent0020" data-entity-2="ent0024" data-link-type="dependency" data-source-line="71" id="lnk50"><path codeLine="71" d="M1394,185.1769 C1394,187.6469 1394,192.4769 1394,202.9869" fill="none" id="AuditLogModule-to-ProvisioningAuditConsumer" style="stroke:#181818;stroke-width:1;"/><polygon fill="#181818" points="1394,208.9869,1398,199.9869,1394,203.9869,1390,199.9869,1394,208.9869" style="stroke:#181818;stroke-width:1;"/></g><!--link AuditLogPersistenceService to AuditLogEntity--><g class="link" data-entity-1="ent0023" data-entity-2="ent0025" data-link-type="dependency" data-source-line="72" id="lnk51"><path codeLine="72" d="M1302,357.0669 C1302,359.6169 1302,356.2169 1302,358.7669" fill="none" id="AuditLogPersistenceService-to-AuditLogEntity" style="stroke:#181818;stroke-width:1;"/><polygon fill="#181818" points="1302,364.7669,1306,355.7669,1302,359.7669,1298,355.7669,1302,364.7669" style="stroke:#181818;stroke-width:1;"/></g><!--link AuditLogEntity to TenantEntity--><g class="link" data-entity-1="ent0025" data-entity-2="ent0040" data-link-type="dependency" data-source-line="73" id="lnk52"><path codeLine="73" d="M1302,409.2869 C1302,436.5169 1302,479.0169 1302,479.0169 C1302,479.0169 1181.78,479.0169 1111.28,479.0169" fill="none" id="AuditLogEntity-to-TenantEntity" style="stroke:#181818;stroke-width:1;"/><polygon fill="#181818" points="1105.28,479.0169,1114.28,483.0169,1110.28,479.0169,1114.28,475.0169,1105.28,479.0169" style="stroke:#181818;stroke-width:1;"/></g><!--link ProvisioningAuditConsumer to AuditLogService--><g class="link" data-entity-1="ent0024" data-entity-2="ent0022" data-link-type="dependency" data-source-line="74" id="lnk53"><path codeLine="74" d="M1318,253.0669 C1318,255.6169 1318,252.2169 1318,254.7669" fill="none" id="ProvisioningAuditConsumer-to-AuditLogService" style="stroke:#181818;stroke-width:1;"/><polygon fill="#181818" points="1318,260.7669,1322,251.7669,1318,255.7669,1314,251.7669,1318,260.7669" style="stroke:#181818;stroke-width:1;"/></g><!--link GMN54 to KeysModule--><g class="link" data-entity-1="ent0055" data-entity-2="ent0003" data-link-type="association" data-source-line="78" id="lnk56"><path d="M406,100.5669 C406,116.2419 406,135.6994 406,151.9481 C406,153.9792 406,155.9602 406,157.8773 C406,158.8359 406,159.7786 406,160.7035 C406,161.166 406,161.6241 406,162.0776" fill="none" id="GMN54-KeysModule" style="stroke:#181818;stroke-width:1;stroke-dasharray:7,7;"/></g><!--link GMN57 to UsersModule--><g class="link" data-entity-1="ent0058" data-entity-2="ent0010" data-link-type="association" data-source-line="85" id="lnk59"><path d="M807,100.5669 C807,116.2419 807,135.6994 807,151.9481 C807,153.9792 807,155.9602 807,157.8773 C807,158.8359 807,159.7786 807,160.7035 C807,161.166 807,161.6241 807,162.0776" fill="none" id="GMN57-UsersModule" style="stroke:#181818;stroke-width:1;stroke-dasharray:7,7;"/></g><!--link GMN60 to ThresholdsModule--><g class="link" data-entity-1="ent0061" data-entity-2="ent0015" data-link-type="association" data-source-line="92" id="lnk62"><path d="M1059,94.3669 C1059,109.8019 1059,130.6069 1059,148.3556 C1059,152.7928 1059,157.039 1059,160.9625 C1059,161.2077 1059,161.4517 1059,161.6943 C1059,161.8157 1059,161.9367 1059,162.0573" fill="none" id="GMN60-ThresholdsModule" style="stroke:#181818;stroke-width:1;stroke-dasharray:7,7;"/></g><!--link GMN63 to AuditLogModule--><g class="link" data-entity-1="ent0064" data-entity-2="ent0020" data-link-type="association" data-source-line="98" id="lnk65"><path d="M1394,100.5669 C1394,116.2419 1394,135.6994 1394,151.9481 C1394,153.9792 1394,155.9602 1394,157.8773 C1394,158.8359 1394,159.7786 1394,160.7035 C1394,161.166 1394,161.6241 1394,162.0776" fill="none" id="GMN63-AuditLogModule" style="stroke:#181818;stroke-width:1;stroke-dasharray:7,7;"/></g><?plantuml-src XLRBRjim4BpxAnRfeSb1QDgWHGz103UFDcZJ6hRp0OoqjWdJf4fI2TIY_zuLPOiKHJa-XREpovqXjQ7bLY3y_BMydy43asoDEvGMfhDxo62gymstcDjA8vnUlBiucqpCbikIQRQ39vPlrrfLihXMGcbuS-T-0QF05Qk4lLFIBlWVXFVdwU0-_zpz0efK1HeiuNE0QIQtCIQuH5kN24hRZGe29RL8aXQs9f6QX32v5ZYPx74uIGa_WSlB-O5xTGL_9m1TmdUi3JoeeX9u0in0iswNZWUG2sPCoxicQLe9WRgZUYWapxHwveOhoUKwIag7ufqMg9zvxZlQhqFQLsRnXTMc2SzG6suioXp3pEEKiOP_CclcQ4eb2zHXkTT8aOXRQRcj3nBQ5L7-JKBx7mtr5VhlWDG1k41aPeGDw67t8J0WZXWu4elJ0wL-EP2wt6Wq6oMAdbwFfaJxQAGy5KWdXde6Q3fbn8rZX6IXm9S86vWphGfkinzg7NhZGC9IpXnYaIz3E9KKgegm57t4Z_7msAVbCgWrK-qIuw0NJVKH-Dc73dQ-TSE21gDWbcgQ3IyDmS5CoxAhuToAugCZgf_OrVAYqva9Oh1oqLSdrLY2PnmlSUYXywlxEootZpedsyaKMncEfoPnE84YnBDyg-7InvEwHo9TLgV7BrniYP996-e9nayiQZ23N8NqX4d14TztFy0YPbBoiN0_lnCV8ICE-1aJ6n0DcYOzEKY6O8_hDKH8ZvKKdUZWs6WOhzNRgZEe3mpzWV7TaWffsaXb4QmgGQs20KALlZ5P2AGHTRl8Fdpy15kiOTSzo8XmntAhTEq2pqpmmfq5d3xbkYxjMTGCl72x0KlFH4DvpQ7vZzsL47o5UPtJtYWBQDhgDnTyifHvFN-y0LMYRYy0qCRMEG5LmoF6efPvkod9oeLYMxYVFb1WhkXaUag-L69Bxrw1j9kfofAUgoDDn9yO9RUFL0C6fQ7NikqO5Bjftz90LWBrckqvwXcrvlI6RZ_u0bO4Chg65jOezvf6EkZViCET0A7MwyRbffAt9Ju3vhYvlu1BliECpeJ-T_-kK7FNKdkbCfDJeG9OdgCnlfl_?></g></svg>