<?plantuml 1.2026.2?><svg xmlns="http://www.w3.org/2000/svg" xmlns:xlink="http://www.w3.org/1999/xlink" contentStyleType="text/css" data-diagram-type="CLASS" height="682px" preserveAspectRatio="none" style="width:1786px;height:682px;background:#FFFFFF;" version="1.1" viewBox="0 0 1786 682" width="1786px" zoomAndPan="magnify"><title>NOTIP Management API - Architecture (3/3)</title><defs/><g><g class="title" data-source-line="1"><text fill="#000000" font-family="sans-serif" font-size="14" font-weight="bold" lengthAdjust="spacing" textLength="343.916" x="714.042" y="22.9951">NOTIP Management API - Architecture (3/3)</text></g><!--cluster NOTIP Management API--><g class="cluster" data-qualified-name="NOTIP Management API" data-source-line="9" id="ent0002"><rect fill="none" height="560" rx="2.5" ry="2.5" style="stroke:#181818;stroke-width:1;" width="1715" x="65" y="116.2969"/><text fill="#000000" font-family="sans-serif" font-size="10" font-weight="bold" lengthAdjust="spacing" textLength="134.1016" x="855.4492" y="127.5791">NOTIP Management API</text></g><!--cluster KeysModule--><g class="cluster" data-qualified-name="NOTIP Management API.KeysModule" data-source-line="10" id="ent0003"><rect fill="none" height="418" rx="2.5" ry="2.5" style="stroke:#000000;stroke-width:1.5;" width="579" x="97" y="162.2969"/><text fill="#000000" font-family="sans-serif" font-size="10" font-weight="bold" lengthAdjust="spacing" textLength="71.792" x="350.604" y="173.5791">Keys Module</text></g><!--cluster UsersModule--><g class="cluster" data-qualified-name="NOTIP Management API.UsersModule" data-source-line="19" id="ent0010"><rect fill="none" height="418" rx="2.5" ry="2.5" style="stroke:#000000;stroke-width:1.5;" width="208" x="838" y="162.2969"/><text fill="#000000" font-family="sans-serif" font-size="10" font-weight="bold" lengthAdjust="spacing" textLength="76.5283" x="903.7358" y="173.5791">Users Module</text></g><!--cluster ThresholdsModule--><g class="cluster" data-qualified-name="NOTIP Management API.ThresholdsModule" data-source-line="26" id="ent0015"><rect fill="none" height="418" rx="2.5" ry="2.5" style="stroke:#000000;stroke-width:1.5;" width="232" x="1086" y="162.2969"/><text fill="#000000" font-family="sans-serif" font-size="10" font-weight="bold" lengthAdjust="spacing" textLength="106.9238" x="1148.5381" y="173.5791">Thresholds Module</text></g><!--cluster AuditLogModule--><g class="cluster" data-qualified-name="NOTIP Management API.AuditLogModule" data-source-line="33" id="ent0020"><rect fill="none" height="418" rx="2.5" ry="2.5" style="stroke:#000000;stroke-width:1.5;" width="390" x="1358" y="162.2969"/><text fill="#000000" font-family="sans-serif" font-size="10" font-weight="bold" lengthAdjust="spacing" textLength="99.5654" x="1503.2173" y="173.5791">Audit-Log Module</text></g><!--class GatewaysService--><g class="entity" data-qualified-name="NOTIP Management API.GatewaysService" data-source-line="45" id="ent0029"><rect fill="#F1F1F1" height="44" rx="2.5" ry="2.5" style="stroke:#181818;stroke-width:0.5;" width="114.3428" x="700" y="408.2969"/><ellipse cx="713" cy="422.2969" fill="#ADD1B2" rx="9" ry="9" style="stroke:#181818;stroke-width:1;"/><path d="M714.2813,425.5938 Q713.9375,425.7656 713.5625,425.8438 Q713.1875,425.9375 712.7656,425.9375 Q711.2969,425.9375 710.5156,424.9688 Q709.75,424 709.75,422.1563 Q709.75,420.3125 710.5156,419.3438 Q711.2969,418.375 712.7656,418.375 Q713.1875,418.375 713.5625,418.4688 Q713.9531,418.5469 714.2813,418.7188 L714.2813,420.3281 Q713.9063,419.9844 713.5469,419.8281 Q713.2031,419.6719 712.8438,419.6719 Q712.0469,419.6719 711.6406,420.2969 Q711.2344,420.9219 711.2344,422.1563 Q711.2344,423.3906 711.6406,424.0156 Q712.0469,424.6406 712.8438,424.6406 Q713.2031,424.6406 713.5469,424.4844 Q713.9063,424.3281 714.2813,423.9844 L714.2813,425.5938 Z " fill="#000000"/><text fill="#000000" font-family="sans-serif" font-size="10" lengthAdjust="spacing" textLength="86.3428" x="725" y="425.7588">GatewaysService</text><line style="stroke:#181818;stroke-width:0.5;" x1="701" x2="813.3428" y1="436.2969" y2="436.2969"/><line style="stroke:#181818;stroke-width:0.5;" x1="701" x2="813.3428" y1="444.2969" y2="444.2969"/></g><!--class GatewayEntity--><g class="entity" data-qualified-name="NOTIP Management API.GatewayEntity" data-source-line="47" id="ent0032"><rect fill="#F1F1F1" height="44" rx="2.5" ry="2.5" style="stroke:#181818;stroke-width:0.5;" width="101.3691" x="503.5" y="616.2969"/><ellipse cx="516.5" cy="630.2969" fill="#ADD1B2" rx="9" ry="9" style="stroke:#181818;stroke-width:1;"/><path d="M517.7813,633.5938 Q517.4375,633.7656 517.0625,633.8438 Q516.6875,633.9375 516.2656,633.9375 Q514.7969,633.9375 514.0156,632.9688 Q513.25,632 513.25,630.1563 Q513.25,628.3125 514.0156,627.3438 Q514.7969,626.375 516.2656,626.375 Q516.6875,626.375 517.0625,626.4688 Q517.4531,626.5469 517.7813,626.7188 L517.7813,628.3281 Q517.4063,627.9844 517.0469,627.8281 Q516.7031,627.6719 516.3438,627.6719 Q515.5469,627.6719 515.1406,628.2969 Q514.7344,628.9219 514.7344,630.1563 Q514.7344,631.3906 515.1406,632.0156 Q515.5469,632.6406 516.3438,632.6406 Q516.7031,632.6406 517.0469,632.4844 Q517.4063,632.3281 517.7813,631.9844 L517.7813,633.5938 Z " fill="#000000"/><text fill="#000000" font-family="sans-serif" font-size="10" lengthAdjust="spacing" textLength="73.3691" x="528.5" y="633.7588">GatewayEntity</text><line style="stroke:#181818;stroke-width:0.5;" x1="504.5" x2="603.8691" y1="644.2969" y2="644.2969"/><line style="stroke:#181818;stroke-width:0.5;" x1="504.5" x2="603.8691" y1="652.2969" y2="652.2969"/></g><!--class TenantEntity--><g class="entity" data-qualified-name="NOTIP Management API.TenantEntity" data-source-line="53" id="ent0037"><rect fill="#F1F1F1" height="44" rx="2.5" ry="2.5" style="stroke:#181818;stroke-width:0.5;" width="92.1797" x="1160" y="616.2969"/><ellipse cx="1173" cy="630.2969" fill="#ADD1B2" rx="9" ry="9" style="stroke:#181818;stroke-width:1;"/><path d="M1174.2813,633.5938 Q1173.9375,633.7656 1173.5625,633.8438 Q1173.1875,633.9375 1172.7656,633.9375 Q1171.2969,633.9375 1170.5156,632.9688 Q1169.75,632 1169.75,630.1563 Q1169.75,628.3125 1170.5156,627.3438 Q1171.2969,626.375 1172.7656,626.375 Q1173.1875,626.375 1173.5625,626.4688 Q1173.9531,626.5469 1174.2813,626.7188 L1174.2813,628.3281 Q1173.9063,627.9844 1173.5469,627.8281 Q1173.2031,627.6719 1172.8438,627.6719 Q1172.0469,627.6719 1171.6406,628.2969 Q1171.2344,628.9219 1171.2344,630.1563 Q1171.2344,631.3906 1171.6406,632.0156 Q1172.0469,632.6406 1172.8438,632.6406 Q1173.2031,632.6406 1173.5469,632.4844 Q1173.9063,632.3281 1174.2813,631.9844 L1174.2813,633.5938 Z " fill="#000000"/><text fill="#000000" font-family="sans-serif" font-size="10" lengthAdjust="spacing" textLength="64.1797" x="1185" y="633.7588">TenantEntity</text><line style="stroke:#181818;stroke-width:0.5;" x1="1161" x2="1251.1797" y1="644.2969" y2="644.2969"/><line style="stroke:#181818;stroke-width:0.5;" x1="1161" x2="1251.1797" y1="652.2969" y2="652.2969"/></g><!--class KeysController--><g class="entity" data-qualified-name="NOTIP Management API.KeysModule.KeysController" data-source-line="11" id="ent0004"><rect fill="#F1F1F1" height="44" rx="2.5" ry="2.5" style="stroke:#181818;stroke-width:0.5;" width="101.2471" x="550.5" y="200.2969"/><ellipse cx="563.5" cy="214.2969" fill="#ADD1B2" rx="9" ry="9" style="stroke:#181818;stroke-width:1;"/><path d="M564.7813,217.5938 Q564.4375,217.7656 564.0625,217.8438 Q563.6875,217.9375 563.2656,217.9375 Q561.7969,217.9375 561.0156,216.9688 Q560.25,216 560.25,214.1563 Q560.25,212.3125 561.0156,211.3438 Q561.7969,210.375 563.2656,210.375 Q563.6875,210.375 564.0625,210.4688 Q564.4531,210.5469 564.7813,210.7188 L564.7813,212.3281 Q564.4063,211.9844 564.0469,211.8281 Q563.7031,211.6719 563.3438,211.6719 Q562.5469,211.6719 562.1406,212.2969 Q561.7344,212.9219 561.7344,214.1563 Q561.7344,215.3906 562.1406,216.0156 Q562.5469,216.6406 563.3438,216.6406 Q563.7031,216.6406 564.0469,216.4844 Q564.4063,216.3281 564.7813,215.9844 L564.7813,217.5938 Z " fill="#000000"/><text fill="#000000" font-family="sans-serif" font-size="10" lengthAdjust="spacing" textLength="73.2471" x="575.5" y="217.7588">KeysController</text><line style="stroke:#181818;stroke-width:0.5;" x1="551.5" x2="650.7471" y1="228.2969" y2="228.2969"/><line style="stroke:#181818;stroke-width:0.5;" x1="551.5" x2="650.7471" y1="236.2969" y2="236.2969"/></g><!--class ProvisioningController--><g class="entity" data-qualified-name="NOTIP Management API.KeysModule.ProvisioningController" data-source-line="12" id="ent0005"><rect fill="#F1F1F1" height="44" rx="2.5" ry="2.5" style="stroke:#181818;stroke-width:0.5;" width="138.2734" x="377" y="200.2969"/><ellipse cx="390" cy="214.2969" fill="#ADD1B2" rx="9" ry="9" style="stroke:#181818;stroke-width:1;"/><path d="M391.2813,217.5938 Q390.9375,217.7656 390.5625,217.8438 Q390.1875,217.9375 389.7656,217.9375 Q388.2969,217.9375 387.5156,216.9688 Q386.75,216 386.75,214.1563 Q386.75,212.3125 387.5156,211.3438 Q388.2969,210.375 389.7656,210.375 Q390.1875,210.375 390.5625,210.4688 Q390.9531,210.5469 391.2813,210.7188 L391.2813,212.3281 Q390.9063,211.9844 390.5469,211.8281 Q390.2031,211.6719 389.8438,211.6719 Q389.0469,211.6719 388.6406,212.2969 Q388.2344,212.9219 388.2344,214.1563 Q388.2344,215.3906 388.6406,216.0156 Q389.0469,216.6406 389.8438,216.6406 Q390.2031,216.6406 390.5469,216.4844 Q390.9063,216.3281 391.2813,215.9844 L391.2813,217.5938 Z " fill="#000000"/><text fill="#000000" font-family="sans-serif" font-size="10" lengthAdjust="spacing" textLength="110.2734" x="402" y="217.7588">ProvisioningController</text><line style="stroke:#181818;stroke-width:0.5;" x1="378" x2="514.2734" y1="228.2969" y2="228.2969"/><line style="stroke:#181818;stroke-width:0.5;" x1="378" x2="514.2734" y1="236.2969" y2="236.2969"/></g><!--class KeysService--><g class="entity" data-qualified-name="NOTIP Management API.KeysModule.KeysService" data-source-line="13" id="ent0006"><rect fill="#F1F1F1" height="44" rx="2.5" ry="2.5" style="stroke:#181818;stroke-width:0.5;" width="88.7959" x="532.5" y="304.2969"/><ellipse cx="545.5" cy="318.2969" fill="#ADD1B2" rx="9" ry="9" style="stroke:#181818;stroke-width:1;"/><path d="M546.7813,321.5938 Q546.4375,321.7656 546.0625,321.8438 Q545.6875,321.9375 545.2656,321.9375 Q543.7969,321.9375 543.0156,320.9688 Q542.25,320 542.25,318.1563 Q542.25,316.3125 543.0156,315.3438 Q543.7969,314.375 545.2656,314.375 Q545.6875,314.375 546.0625,314.4688 Q546.4531,314.5469 546.7813,314.7188 L546.7813,316.3281 Q546.4063,315.9844 546.0469,315.8281 Q545.7031,315.6719 545.3438,315.6719 Q544.5469,315.6719 544.1406,316.2969 Q543.7344,316.9219 543.7344,318.1563 Q543.7344,319.3906 544.1406,320.0156 Q544.5469,320.6406 545.3438,320.6406 Q545.7031,320.6406 546.0469,320.4844 Q546.4063,320.3281 546.7813,319.9844 L546.7813,321.5938 Z " fill="#000000"/><text fill="#000000" font-family="sans-serif" font-size="10" lengthAdjust="spacing" textLength="60.7959" x="557.5" y="321.7588">KeysService</text><line style="stroke:#181818;stroke-width:0.5;" x1="533.5" x2="620.2959" y1="332.2969" y2="332.2969"/><line style="stroke:#181818;stroke-width:0.5;" x1="533.5" x2="620.2959" y1="340.2969" y2="340.2969"/></g><!--class GatewaysKeysPersistenceService--><g class="entity" data-qualified-name="NOTIP Management API.KeysModule.GatewaysKeysPersistenceService" data-source-line="14" id="ent0007"><rect fill="#F1F1F1" height="44" rx="2.5" ry="2.5" style="stroke:#181818;stroke-width:0.5;" width="195.7344" x="456" y="408.2969"/><ellipse cx="469" cy="422.2969" fill="#ADD1B2" rx="9" ry="9" style="stroke:#181818;stroke-width:1;"/><path d="M470.2813,425.5938 Q469.9375,425.7656 469.5625,425.8438 Q469.1875,425.9375 468.7656,425.9375 Q467.2969,425.9375 466.5156,424.9688 Q465.75,424 465.75,422.1563 Q465.75,420.3125 466.5156,419.3438 Q467.2969,418.375 468.7656,418.375 Q469.1875,418.375 469.5625,418.4688 Q469.9531,418.5469 470.2813,418.7188 L470.2813,420.3281 Q469.9063,419.9844 469.5469,419.8281 Q469.2031,419.6719 468.8438,419.6719 Q468.0469,419.6719 467.6406,420.2969 Q467.2344,420.9219 467.2344,422.1563 Q467.2344,423.3906 467.6406,424.0156 Q468.0469,424.6406 468.8438,424.6406 Q469.2031,424.6406 469.5469,424.4844 Q469.9063,424.3281 470.2813,423.9844 L470.2813,425.5938 Z " fill="#000000"/><text fill="#000000" font-family="sans-serif" font-size="10" lengthAdjust="spacing" textLength="167.7344" x="481" y="425.7588">GatewaysKeysPersistenceService</text><line style="stroke:#181818;stroke-width:0.5;" x1="457" x2="650.7344" y1="436.2969" y2="436.2969"/><line style="stroke:#181818;stroke-width:0.5;" x1="457" x2="650.7344" y1="444.2969" y2="444.2969"/></g><!--class ProvisioningNatsResponderService--><g class="entity" data-qualified-name="NOTIP Management API.KeysModule.ProvisioningNatsResponderService" data-source-line="15" id="ent0008"><rect fill="#F1F1F1" height="44" rx="2.5" ry="2.5" style="stroke:#181818;stroke-width:0.5;" width="202.2871" x="140" y="200.2969"/><ellipse cx="153" cy="214.2969" fill="#ADD1B2" rx="9" ry="9" style="stroke:#181818;stroke-width:1;"/><path d="M154.2813,217.5938 Q153.9375,217.7656 153.5625,217.8438 Q153.1875,217.9375 152.7656,217.9375 Q151.2969,217.9375 150.5156,216.9688 Q149.75,216 149.75,214.1563 Q149.75,212.3125 150.5156,211.3438 Q151.2969,210.375 152.7656,210.375 Q153.1875,210.375 153.5625,210.4688 Q153.9531,210.5469 154.2813,210.7188 L154.2813,212.3281 Q153.9063,211.9844 153.5469,211.8281 Q153.2031,211.6719 152.8438,211.6719 Q152.0469,211.6719 151.6406,212.2969 Q151.2344,212.9219 151.2344,214.1563 Q151.2344,215.3906 151.6406,216.0156 Q152.0469,216.6406 152.8438,216.6406 Q153.2031,216.6406 153.5469,216.4844 Q153.9063,216.3281 154.2813,215.9844 L154.2813,217.5938 Z " fill="#000000"/><text fill="#000000" font-family="sans-serif" font-size="10" lengthAdjust="spacing" textLength="174.2871" x="165" y="217.7588">ProvisioningNatsResponderService</text><line style="stroke:#181818;stroke-width:0.5;" x1="141" x2="341.2871" y1="228.2969" y2="228.2969"/><line style="stroke:#181818;stroke-width:0.5;" x1="141" x2="341.2871" y1="236.2969" y2="236.2969"/></g><!--class KeyEntity--><g class="entity" data-qualified-name="NOTIP Management API.KeysModule.KeyEntity" data-source-line="16" id="ent0009"><rect fill="#F1F1F1" height="44" rx="2.5" ry="2.5" style="stroke:#181818;stroke-width:0.5;" width="75.8223" x="516" y="512.2969"/><ellipse cx="529" cy="526.2969" fill="#ADD1B2" rx="9" ry="9" style="stroke:#181818;stroke-width:1;"/><path d="M530.2813,529.5938 Q529.9375,529.7656 529.5625,529.8438 Q529.1875,529.9375 528.7656,529.9375 Q527.2969,529.9375 526.5156,528.9688 Q525.75,528 525.75,526.1563 Q525.75,524.3125 526.5156,523.3438 Q527.2969,522.375 528.7656,522.375 Q529.1875,522.375 529.5625,522.4688 Q529.9531,522.5469 530.2813,522.7188 L530.2813,524.3281 Q529.9063,523.9844 529.5469,523.8281 Q529.2031,523.6719 528.8438,523.6719 Q528.0469,523.6719 527.6406,524.2969 Q527.2344,524.9219 527.2344,526.1563 Q527.2344,527.3906 527.6406,528.0156 Q528.0469,528.6406 528.8438,528.6406 Q529.2031,528.6406 529.5469,528.4844 Q529.9063,528.3281 530.2813,527.9844 L530.2813,529.5938 Z " fill="#000000"/><text fill="#000000" font-family="sans-serif" font-size="10" lengthAdjust="spacing" textLength="47.8223" x="541" y="529.7588">KeyEntity</text><line style="stroke:#181818;stroke-width:0.5;" x1="517" x2="590.8223" y1="540.2969" y2="540.2969"/><line style="stroke:#181818;stroke-width:0.5;" x1="517" x2="590.8223" y1="548.2969" y2="548.2969"/></g><!--class UsersController--><g class="entity" data-qualified-name="NOTIP Management API.UsersModule.UsersController" data-source-line="20" id="ent0011"><rect fill="#F1F1F1" height="44" rx="2.5" ry="2.5" style="stroke:#181818;stroke-width:0.5;" width="105.4121" x="893.5" y="200.2969"/><ellipse cx="906.5" cy="214.2969" fill="#ADD1B2" rx="9" ry="9" style="stroke:#181818;stroke-width:1;"/><path d="M907.7813,217.5938 Q907.4375,217.7656 907.0625,217.8438 Q906.6875,217.9375 906.2656,217.9375 Q904.7969,217.9375 904.0156,216.9688 Q903.25,216 903.25,214.1563 Q903.25,212.3125 904.0156,211.3438 Q904.7969,210.375 906.2656,210.375 Q906.6875,210.375 907.0625,210.4688 Q907.4531,210.5469 907.7813,210.7188 L907.7813,212.3281 Q907.4063,211.9844 907.0469,211.8281 Q906.7031,211.6719 906.3438,211.6719 Q905.5469,211.6719 905.1406,212.2969 Q904.7344,212.9219 904.7344,214.1563 Q904.7344,215.3906 905.1406,216.0156 Q905.5469,216.6406 906.3438,216.6406 Q906.7031,216.6406 907.0469,216.4844 Q907.4063,216.3281 907.7813,215.9844 L907.7813,217.5938 Z " fill="#000000"/><text fill="#000000" font-family="sans-serif" font-size="10" lengthAdjust="spacing" textLength="77.4121" x="918.5" y="217.7588">UsersController</text><line style="stroke:#181818;stroke-width:0.5;" x1="894.5" x2="997.9121" y1="228.2969" y2="228.2969"/><line style="stroke:#181818;stroke-width:0.5;" x1="894.5" x2="997.9121" y1="236.2969" y2="236.2969"/></g><!--class UsersService--><g class="entity" data-qualified-name="NOTIP Management API.UsersModule.UsersService" data-source-line="21" id="ent0012"><rect fill="#F1F1F1" height="44" rx="2.5" ry="2.5" style="stroke:#181818;stroke-width:0.5;" width="92.9609" x="899.5" y="304.2969"/><ellipse cx="912.5" cy="318.2969" fill="#ADD1B2" rx="9" ry="9" style="stroke:#181818;stroke-width:1;"/><path d="M913.7813,321.5938 Q913.4375,321.7656 913.0625,321.8438 Q912.6875,321.9375 912.2656,321.9375 Q910.7969,321.9375 910.0156,320.9688 Q909.25,320 909.25,318.1563 Q909.25,316.3125 910.0156,315.3438 Q910.7969,314.375 912.2656,314.375 Q912.6875,314.375 913.0625,314.4688 Q913.4531,314.5469 913.7813,314.7188 L913.7813,316.3281 Q913.4063,315.9844 913.0469,315.8281 Q912.7031,315.6719 912.3438,315.6719 Q911.5469,315.6719 911.1406,316.2969 Q910.7344,316.9219 910.7344,318.1563 Q910.7344,319.3906 911.1406,320.0156 Q911.5469,320.6406 912.3438,320.6406 Q912.7031,320.6406 913.0469,320.4844 Q913.4063,320.3281 913.7813,319.9844 L913.7813,321.5938 Z " fill="#000000"/><text fill="#000000" font-family="sans-serif" font-size="10" lengthAdjust="spacing" textLength="64.9609" x="924.5" y="321.7588">UsersService</text><line style="stroke:#181818;stroke-width:0.5;" x1="900.5" x2="991.4609" y1="332.2969" y2="332.2969"/><line style="stroke:#181818;stroke-width:0.5;" x1="900.5" x2="991.4609" y1="340.2969" y2="340.2969"/></g><!--class UsersPersistenceService--><g class="entity" data-qualified-name="NOTIP Management API.UsersModule.UsersPersistenceService" data-source-line="22" id="ent0013"><rect fill="#F1F1F1" height="44" rx="2.5" ry="2.5" style="stroke:#181818;stroke-width:0.5;" width="150.5146" x="870.5" y="408.2969"/><ellipse cx="883.5" cy="422.2969" fill="#ADD1B2" rx="9" ry="9" style="stroke:#181818;stroke-width:1;"/><path d="M884.7813,425.5938 Q884.4375,425.7656 884.0625,425.8438 Q883.6875,425.9375 883.2656,425.9375 Q881.7969,425.9375 881.0156,424.9688 Q880.25,424 880.25,422.1563 Q880.25,420.3125 881.0156,419.3438 Q881.7969,418.375 883.2656,418.375 Q883.6875,418.375 884.0625,418.4688 Q884.4531,418.5469 884.7813,418.7188 L884.7813,420.3281 Q884.4063,419.9844 884.0469,419.8281 Q883.7031,419.6719 883.3438,419.6719 Q882.5469,419.6719 882.1406,420.2969 Q881.7344,420.9219 881.7344,422.1563 Q881.7344,423.3906 882.1406,424.0156 Q882.5469,424.6406 883.3438,424.6406 Q883.7031,424.6406 884.0469,424.4844 Q884.4063,424.3281 884.7813,423.9844 L884.7813,425.5938 Z " fill="#000000"/><text fill="#000000" font-family="sans-serif" font-size="10" lengthAdjust="spacing" textLength="122.5146" x="895.5" y="425.7588">UsersPersistenceService</text><line style="stroke:#181818;stroke-width:0.5;" x1="871.5" x2="1020.0146" y1="436.2969" y2="436.2969"/><line style="stroke:#181818;stroke-width:0.5;" x1="871.5" x2="1020.0146" y1="444.2969" y2="444.2969"/></g><!--class UserEntity--><g class="entity" data-qualified-name="NOTIP Management API.UsersModule.UserEntity" data-source-line="23" id="ent0014"><rect fill="#F1F1F1" height="44" rx="2.5" ry="2.5" style="stroke:#181818;stroke-width:0.5;" width="79.9873" x="924" y="512.2969"/><ellipse cx="937" cy="526.2969" fill="#ADD1B2" rx="9" ry="9" style="stroke:#181818;stroke-width:1;"/><path d="M938.2813,529.5938 Q937.9375,529.7656 937.5625,529.8438 Q937.1875,529.9375 936.7656,529.9375 Q935.2969,529.9375 934.5156,528.9688 Q933.75,528 933.75,526.1563 Q933.75,524.3125 934.5156,523.3438 Q935.2969,522.375 936.7656,522.375 Q937.1875,522.375 937.5625,522.4688 Q937.9531,522.5469 938.2813,522.7188 L938.2813,524.3281 Q937.9063,523.9844 937.5469,523.8281 Q937.2031,523.6719 936.8438,523.6719 Q936.0469,523.6719 935.6406,524.2969 Q935.2344,524.9219 935.2344,526.1563 Q935.2344,527.3906 935.6406,528.0156 Q936.0469,528.6406 936.8438,528.6406 Q937.2031,528.6406 937.5469,528.4844 Q937.9063,528.3281 938.2813,527.9844 L938.2813,529.5938 Z " fill="#000000"/><text fill="#000000" font-family="sans-serif" font-size="10" lengthAdjust="spacing" textLength="51.9873" x="949" y="529.7588">UserEntity</text><line style="stroke:#181818;stroke-width:0.5;" x1="925" x2="1002.9873" y1="540.2969" y2="540.2969"/><line style="stroke:#181818;stroke-width:0.5;" x1="925" x2="1002.9873" y1="548.2969" y2="548.2969"/></g><!--class ThresholdsController--><g class="entity" data-qualified-name="NOTIP Management API.ThresholdsModule.ThresholdsController" data-source-line="27" id="ent0016"><rect fill="#F1F1F1" height="44" rx="2.5" ry="2.5" style="stroke:#181818;stroke-width:0.5;" width="132.1211" x="1140" y="200.2969"/><ellipse cx="1153" cy="214.2969" fill="#ADD1B2" rx="9" ry="9" style="stroke:#181818;stroke-width:1;"/><path d="M1154.2813,217.5938 Q1153.9375,217.7656 1153.5625,217.8438 Q1153.1875,217.9375 1152.7656,217.9375 Q1151.2969,217.9375 1150.5156,216.9688 Q1149.75,216 1149.75,214.1563 Q1149.75,212.3125 1150.5156,211.3438 Q1151.2969,210.375 1152.7656,210.375 Q1153.1875,210.375 1153.5625,210.4688 Q1153.9531,210.5469 1154.2813,210.7188 L1154.2813,212.3281 Q1153.9063,211.9844 1153.5469,211.8281 Q1153.2031,211.6719 1152.8438,211.6719 Q1152.0469,211.6719 1151.6406,212.2969 Q1151.2344,212.9219 1151.2344,214.1563 Q1151.2344,215.3906 1151.6406,216.0156 Q1152.0469,216.6406 1152.8438,216.6406 Q1153.2031,216.6406 1153.5469,216.4844 Q1153.9063,216.3281 1154.2813,215.9844 L1154.2813,217.5938 Z " fill="#000000"/><text fill="#000000" font-family="sans-serif" font-size="10" lengthAdjust="spacing" textLength="104.1211" x="1165" y="217.7588">ThresholdsController</text><line style="stroke:#181818;stroke-width:0.5;" x1="1141" x2="1271.1211" y1="228.2969" y2="228.2969"/><line style="stroke:#181818;stroke-width:0.5;" x1="1141" x2="1271.1211" y1="236.2969" y2="236.2969"/></g><!--class ThresholdsService--><g class="entity" data-qualified-name="NOTIP Management API.ThresholdsModule.ThresholdsService" data-source-line="28" id="ent0017"><rect fill="#F1F1F1" height="44" rx="2.5" ry="2.5" style="stroke:#181818;stroke-width:0.5;" width="119.6699" x="1146" y="304.2969"/><ellipse cx="1159" cy="318.2969" fill="#ADD1B2" rx="9" ry="9" style="stroke:#181818;stroke-width:1;"/><path d="M1160.2813,321.5938 Q1159.9375,321.7656 1159.5625,321.8438 Q1159.1875,321.9375 1158.7656,321.9375 Q1157.2969,321.9375 1156.5156,320.9688 Q1155.75,320 1155.75,318.1563 Q1155.75,316.3125 1156.5156,315.3438 Q1157.2969,314.375 1158.7656,314.375 Q1159.1875,314.375 1159.5625,314.4688 Q1159.9531,314.5469 1160.2813,314.7188 L1160.2813,316.3281 Q1159.9063,315.9844 1159.5469,315.8281 Q1159.2031,315.6719 1158.8438,315.6719 Q1158.0469,315.6719 1157.6406,316.2969 Q1157.2344,316.9219 1157.2344,318.1563 Q1157.2344,319.3906 1157.6406,320.0156 Q1158.0469,320.6406 1158.8438,320.6406 Q1159.2031,320.6406 1159.5469,320.4844 Q1159.9063,320.3281 1160.2813,319.9844 L1160.2813,321.5938 Z " fill="#000000"/><text fill="#000000" font-family="sans-serif" font-size="10" lengthAdjust="spacing" textLength="91.6699" x="1171" y="321.7588">ThresholdsService</text><line style="stroke:#181818;stroke-width:0.5;" x1="1147" x2="1264.6699" y1="332.2969" y2="332.2969"/><line style="stroke:#181818;stroke-width:0.5;" x1="1147" x2="1264.6699" y1="340.2969" y2="340.2969"/></g><!--class ThresholdsPersistenceService--><g class="entity" data-qualified-name="NOTIP Management API.ThresholdsModule.ThresholdsPersistenceService" data-source-line="29" id="ent0018"><rect fill="#F1F1F1" height="44" rx="2.5" ry="2.5" style="stroke:#181818;stroke-width:0.5;" width="177.2236" x="1117.5" y="408.2969"/><ellipse cx="1130.5" cy="422.2969" fill="#ADD1B2" rx="9" ry="9" style="stroke:#181818;stroke-width:1;"/><path d="M1131.7813,425.5938 Q1131.4375,425.7656 1131.0625,425.8438 Q1130.6875,425.9375 1130.2656,425.9375 Q1128.7969,425.9375 1128.0156,424.9688 Q1127.25,424 1127.25,422.1563 Q1127.25,420.3125 1128.0156,419.3438 Q1128.7969,418.375 1130.2656,418.375 Q1130.6875,418.375 1131.0625,418.4688 Q1131.4531,418.5469 1131.7813,418.7188 L1131.7813,420.3281 Q1131.4063,419.9844 1131.0469,419.8281 Q1130.7031,419.6719 1130.3438,419.6719 Q1129.5469,419.6719 1129.1406,420.2969 Q1128.7344,420.9219 1128.7344,422.1563 Q1128.7344,423.3906 1129.1406,424.0156 Q1129.5469,424.6406 1130.3438,424.6406 Q1130.7031,424.6406 1131.0469,424.4844 Q1131.4063,424.3281 1131.7813,423.9844 L1131.7813,425.5938 Z " fill="#000000"/><text fill="#000000" font-family="sans-serif" font-size="10" lengthAdjust="spacing" textLength="149.2236" x="1142.5" y="425.7588">ThresholdsPersistenceService</text><line style="stroke:#181818;stroke-width:0.5;" x1="1118.5" x2="1293.7236" y1="436.2969" y2="436.2969"/><line style="stroke:#181818;stroke-width:0.5;" x1="1118.5" x2="1293.7236" y1="444.2969" y2="444.2969"/></g><!--class ThresholdEntity--><g class="entity" data-qualified-name="NOTIP Management API.ThresholdsModule.ThresholdEntity" data-source-line="30" id="ent0019"><rect fill="#F1F1F1" height="44" rx="2.5" ry="2.5" style="stroke:#181818;stroke-width:0.5;" width="106.6963" x="1152.5" y="512.2969"/><ellipse cx="1165.5" cy="526.2969" fill="#ADD1B2" rx="9" ry="9" style="stroke:#181818;stroke-width:1;"/><path d="M1166.7813,529.5938 Q1166.4375,529.7656 1166.0625,529.8438 Q1165.6875,529.9375 1165.2656,529.9375 Q1163.7969,529.9375 1163.0156,528.9688 Q1162.25,528 1162.25,526.1563 Q1162.25,524.3125 1163.0156,523.3438 Q1163.7969,522.375 1165.2656,522.375 Q1165.6875,522.375 1166.0625,522.4688 Q1166.4531,522.5469 1166.7813,522.7188 L1166.7813,524.3281 Q1166.4063,523.9844 1166.0469,523.8281 Q1165.7031,523.6719 1165.3438,523.6719 Q1164.5469,523.6719 1164.1406,524.2969 Q1163.7344,524.9219 1163.7344,526.1563 Q1163.7344,527.3906 1164.1406,528.0156 Q1164.5469,528.6406 1165.3438,528.6406 Q1165.7031,528.6406 1166.0469,528.4844 Q1166.4063,528.3281 1166.7813,527.9844 L1166.7813,529.5938 Z " fill="#000000"/><text fill="#000000" font-family="sans-serif" font-size="10" lengthAdjust="spacing" textLength="78.6963" x="1177.5" y="529.7588">ThresholdEntity</text><line style="stroke:#181818;stroke-width:0.5;" x1="1153.5" x2="1258.1963" y1="540.2969" y2="540.2969"/><line style="stroke:#181818;stroke-width:0.5;" x1="1153.5" x2="1258.1963" y1="548.2969" y2="548.2969"/></g><!--class AuditLogController--><g class="entity" data-qualified-name="NOTIP Management API.AuditLogModule.AuditLogController" data-source-line="34" id="ent0021"><rect fill="#F1F1F1" height="44" rx="2.5" ry="2.5" style="stroke:#181818;stroke-width:0.5;" width="121.6719" x="1602" y="200.2969"/><ellipse cx="1615" cy="214.2969" fill="#ADD1B2" rx="9" ry="9" style="stroke:#181818;stroke-width:1;"/><path d="M1616.2813,217.5938 Q1615.9375,217.7656 1615.5625,217.8438 Q1615.1875,217.9375 1614.7656,217.9375 Q1613.2969,217.9375 1612.5156,216.9688 Q1611.75,216 1611.75,214.1563 Q1611.75,212.3125 1612.5156,211.3438 Q1613.2969,210.375 1614.7656,210.375 Q1615.1875,210.375 1615.5625,210.4688 Q1615.9531,210.5469 1616.2813,210.7188 L1616.2813,212.3281 Q1615.9063,211.9844 1615.5469,211.8281 Q1615.2031,211.6719 1614.8438,211.6719 Q1614.0469,211.6719 1613.6406,212.2969 Q1613.2344,212.9219 1613.2344,214.1563 Q1613.2344,215.3906 1613.6406,216.0156 Q1614.0469,216.6406 1614.8438,216.6406 Q1615.2031,216.6406 1615.5469,216.4844 Q1615.9063,216.3281 1616.2813,215.9844 L1616.2813,217.5938 Z " fill="#000000"/><text fill="#000000" font-family="sans-serif" font-size="10" lengthAdjust="spacing" textLength="93.6719" x="1627" y="217.7588">AuditLogController</text><line style="stroke:#181818;stroke-width:0.5;" x1="1603" x2="1722.6719" y1="228.2969" y2="228.2969"/><line style="stroke:#181818;stroke-width:0.5;" x1="1603" x2="1722.6719" y1="236.2969" y2="236.2969"/></g><!--class AuditLogService--><g class="entity" data-qualified-name="NOTIP Management API.AuditLogModule.AuditLogService" data-source-line="35" id="ent0022"><rect fill="#F1F1F1" height="44" rx="2.5" ry="2.5" style="stroke:#181818;stroke-width:0.5;" width="109.2207" x="1429.5" y="304.2969"/><ellipse cx="1442.5" cy="318.2969" fill="#ADD1B2" rx="9" ry="9" style="stroke:#181818;stroke-width:1;"/><path d="M1443.7813,321.5938 Q1443.4375,321.7656 1443.0625,321.8438 Q1442.6875,321.9375 1442.2656,321.9375 Q1440.7969,321.9375 1440.0156,320.9688 Q1439.25,320 1439.25,318.1563 Q1439.25,316.3125 1440.0156,315.3438 Q1440.7969,314.375 1442.2656,314.375 Q1442.6875,314.375 1443.0625,314.4688 Q1443.4531,314.5469 1443.7813,314.7188 L1443.7813,316.3281 Q1443.4063,315.9844 1443.0469,315.8281 Q1442.7031,315.6719 1442.3438,315.6719 Q1441.5469,315.6719 1441.1406,316.2969 Q1440.7344,316.9219 1440.7344,318.1563 Q1440.7344,319.3906 1441.1406,320.0156 Q1441.5469,320.6406 1442.3438,320.6406 Q1442.7031,320.6406 1443.0469,320.4844 Q1443.4063,320.3281 1443.7813,319.9844 L1443.7813,321.5938 Z " fill="#000000"/><text fill="#000000" font-family="sans-serif" font-size="10" lengthAdjust="spacing" textLength="81.2207" x="1454.5" y="321.7588">AuditLogService</text><line style="stroke:#181818;stroke-width:0.5;" x1="1430.5" x2="1537.7207" y1="332.2969" y2="332.2969"/><line style="stroke:#181818;stroke-width:0.5;" x1="1430.5" x2="1537.7207" y1="340.2969" y2="340.2969"/></g><!--class AuditLogPersistenceService--><g class="entity" data-qualified-name="NOTIP Management API.AuditLogModule.AuditLogPersistenceService" data-source-line="36" id="ent0023"><rect fill="#F1F1F1" height="44" rx="2.5" ry="2.5" style="stroke:#181818;stroke-width:0.5;" width="166.7744" x="1400.5" y="408.2969"/><ellipse cx="1413.5" cy="422.2969" fill="#ADD1B2" rx="9" ry="9" style="stroke:#181818;stroke-width:1;"/><path d="M1414.7813,425.5938 Q1414.4375,425.7656 1414.0625,425.8438 Q1413.6875,425.9375 1413.2656,425.9375 Q1411.7969,425.9375 1411.0156,424.9688 Q1410.25,424 1410.25,422.1563 Q1410.25,420.3125 1411.0156,419.3438 Q1411.7969,418.375 1413.2656,418.375 Q1413.6875,418.375 1414.0625,418.4688 Q1414.4531,418.5469 1414.7813,418.7188 L1414.7813,420.3281 Q1414.4063,419.9844 1414.0469,419.8281 Q1413.7031,419.6719 1413.3438,419.6719 Q1412.5469,419.6719 1412.1406,420.2969 Q1411.7344,420.9219 1411.7344,422.1563 Q1411.7344,423.3906 1412.1406,424.0156 Q1412.5469,424.6406 1413.3438,424.6406 Q1413.7031,424.6406 1414.0469,424.4844 Q1414.4063,424.3281 1414.7813,423.9844 L1414.7813,425.5938 Z " fill="#000000"/><text fill="#000000" font-family="sans-serif" font-size="10" lengthAdjust="spacing" textLength="138.7744" x="1425.5" y="425.7588">AuditLogPersistenceService</text><line style="stroke:#181818;stroke-width:0.5;" x1="1401.5" x2="1566.2744" y1="436.2969" y2="436.2969"/><line style="stroke:#181818;stroke-width:0.5;" x1="1401.5" x2="1566.2744" y1="444.2969" y2="444.2969"/></g><!--class ProvisioningAuditConsumer--><g class="entity" data-qualified-name="NOTIP Management API.AuditLogModule.ProvisioningAuditConsumer" data-source-line="37" id="ent0024"><rect fill="#F1F1F1" height="44" rx="2.5" ry="2.5" style="stroke:#181818;stroke-width:0.5;" width="166.0811" x="1401" y="200.2969"/><ellipse cx="1414" cy="214.2969" fill="#ADD1B2" rx="9" ry="9" style="stroke:#181818;stroke-width:1;"/><path d="M1415.2813,217.5938 Q1414.9375,217.7656 1414.5625,217.8438 Q1414.1875,217.9375 1413.7656,217.9375 Q1412.2969,217.9375 1411.5156,216.9688 Q1410.75,216 1410.75,214.1563 Q1410.75,212.3125 1411.5156,211.3438 Q1412.2969,210.375 1413.7656,210.375 Q1414.1875,210.375 1414.5625,210.4688 Q1414.9531,210.5469 1415.2813,210.7188 L1415.2813,212.3281 Q1414.9063,211.9844 1414.5469,211.8281 Q1414.2031,211.6719 1413.8438,211.6719 Q1413.0469,211.6719 1412.6406,212.2969 Q1412.2344,212.9219 1412.2344,214.1563 Q1412.2344,215.3906 1412.6406,216.0156 Q1413.0469,216.6406 1413.8438,216.6406 Q1414.2031,216.6406 1414.5469,216.4844 Q1414.9063,216.3281 1415.2813,215.9844 L1415.2813,217.5938 Z " fill="#000000"/><text fill="#000000" font-family="sans-serif" font-size="10" lengthAdjust="spacing" textLength="138.0811" x="1426" y="217.7588">ProvisioningAuditConsumer</text><line style="stroke:#181818;stroke-width:0.5;" x1="1402" x2="1566.0811" y1="228.2969" y2="228.2969"/><line style="stroke:#181818;stroke-width:0.5;" x1="1402" x2="1566.0811" y1="236.2969" y2="236.2969"/></g><!--class AuditLogEntity--><g class="entity" data-qualified-name="NOTIP Management API.AuditLogModule.AuditLogEntity" data-source-line="38" id="ent0025"><rect fill="#F1F1F1" height="44" rx="2.5" ry="2.5" style="stroke:#181818;stroke-width:0.5;" width="101.457" x="1417.5" y="512.2969"/><ellipse cx="1430.5" cy="526.2969" fill="#ADD1B2" rx="9" ry="9" style="stroke:#181818;stroke-width:1;"/><path d="M1431.7813,529.5938 Q1431.4375,529.7656 1431.0625,529.8438 Q1430.6875,529.9375 1430.2656,529.9375 Q1428.7969,529.9375 1428.0156,528.9688 Q1427.25,528 1427.25,526.1563 Q1427.25,524.3125 1428.0156,523.3438 Q1428.7969,522.375 1430.2656,522.375 Q1430.6875,522.375 1431.0625,522.4688 Q1431.4531,522.5469 1431.7813,522.7188 L1431.7813,524.3281 Q1431.4063,523.9844 1431.0469,523.8281 Q1430.7031,523.6719 1430.3438,523.6719 Q1429.5469,523.6719 1429.1406,524.2969 Q1428.7344,524.9219 1428.7344,526.1563 Q1428.7344,527.3906 1429.1406,528.0156 Q1429.5469,528.6406 1430.3438,528.6406 Q1430.7031,528.6406 1431.0469,528.4844 Q1431.4063,528.3281 1431.7813,527.9844 L1431.7813,529.5938 Z " fill="#000000"/><text fill="#000000" font-family="sans-serif" font-size="10" lengthAdjust="spacing" textLength="73.457" x="1442.5" y="529.7588">AuditLogEntity</text><line style="stroke:#181818;stroke-width:0.5;" x1="1418.5" x2="1517.957" y1="540.2969" y2="540.2969"/><line style="stroke:#181818;stroke-width:0.5;" x1="1418.5" x2="1517.957" y1="548.2969" y2="548.2969"/></g><g class="entity" data-qualified-name="GMN48" data-source-line="70" id="ent0049"><path d="M6,43.2969 L6,99.8594 L204.0605,99.8594 L204.0605,53.2969 L194.0605,43.2969 L6,43.2969" fill="#FEFFDD" style="stroke:#181818;stroke-width:0.5;"/><path d="M194.0605,43.2969 L194.0605,53.2969 L204.0605,53.2969 L194.0605,43.2969" fill="#FEFFDD" style="stroke:#181818;stroke-width:1;"/><text fill="#000000" font-family="sans-serif" font-size="10" lengthAdjust="spacing" textLength="177.0605" x="12" y="57.5791">Handles AES-256 key management</text><text fill="#000000" font-family="sans-serif" font-size="10" lengthAdjust="spacing" textLength="154.0234" x="12" y="69.2197">Factory key validation (bcrypt)</text><text fill="#000000" font-family="sans-serif" font-size="10" lengthAdjust="spacing" textLength="150.1367" x="12" y="80.8604">Provisioning with transactions</text><text fill="#000000" font-family="sans-serif" font-size="10" lengthAdjust="spacing" textLength="109.4678" x="12" y="92.501">Gateway key lifecycle</text></g><g class="entity" data-qualified-name="GMN51" data-source-line="77" id="ent0052"><path d="M752,43.2969 L752,99.8594 L940.1631,99.8594 L940.1631,53.2969 L930.1631,43.2969 L752,43.2969" fill="#FEFFDD" style="stroke:#181818;stroke-width:0.5;"/><path d="M930.1631,43.2969 L930.1631,53.2969 L940.1631,53.2969 L930.1631,43.2969" fill="#FEFFDD" style="stroke:#181818;stroke-width:1;"/><text fill="#000000" font-family="sans-serif" font-size="10" lengthAdjust="spacing" textLength="167.1631" x="758" y="57.5791">CRUD operations on tenant users</text><text fill="#000000" font-family="sans-serif" font-size="10" lengthAdjust="spacing" textLength="118.2129" x="758" y="69.2197">Sync with Keycloak IAM</text><text fill="#000000" font-family="sans-serif" font-size="10" lengthAdjust="spacing" textLength="92.1631" x="758" y="80.8604">Role management</text><text fill="#000000" font-family="sans-serif" font-size="10" lengthAdjust="spacing" textLength="98.0225" x="758" y="92.501">Bulk delete support</text></g><g class="entity" data-qualified-name="GMN54" data-source-line="84" id="ent0055"><path d="M1001,49.2969 L1001,94.2188 L1187.1465,94.2188 L1187.1465,59.2969 L1177.1465,49.2969 L1001,49.2969" fill="#FEFFDD" style="stroke:#181818;stroke-width:0.5;"/><path d="M1177.1465,49.2969 L1177.1465,59.2969 L1187.1465,59.2969 L1177.1465,49.2969" fill="#FEFFDD" style="stroke:#181818;stroke-width:1;"/><text fill="#000000" font-family="sans-serif" font-size="10" lengthAdjust="spacing" textLength="136.9531" x="1007" y="63.5791">Manages sensor thresholds</text><text fill="#000000" font-family="sans-serif" font-size="10" lengthAdjust="spacing" textLength="165.1465" x="1007" y="75.2197">Default and per-sensor overrides</text><text fill="#000000" font-family="sans-serif" font-size="10" lengthAdjust="spacing" textLength="125.791" x="1007" y="86.8604">Used for alert generation</text></g><g class="entity" data-qualified-name="GMN57" data-source-line="90" id="ent0058"><path d="M1284.5,43.2969 L1284.5,99.8594 L1447.7412,99.8594 L1447.7412,53.2969 L1437.7412,43.2969 L1284.5,43.2969" fill="#FEFFDD" style="stroke:#181818;stroke-width:0.5;"/><path d="M1437.7412,43.2969 L1437.7412,53.2969 L1447.7412,53.2969 L1437.7412,43.2969" fill="#FEFFDD" style="stroke:#181818;stroke-width:1;"/><text fill="#000000" font-family="sans-serif" font-size="10" lengthAdjust="spacing" textLength="139.79" x="1290.5" y="57.5791">Audit logging for operations</text><text fill="#000000" font-family="sans-serif" font-size="10" lengthAdjust="spacing" textLength="142.2412" x="1290.5" y="69.2197">Provisioning audit consumer</text><text fill="#000000" font-family="sans-serif" font-size="10" lengthAdjust="spacing" textLength="97.7344" x="1290.5" y="80.8604">Time-range queries</text><text fill="#000000" font-family="sans-serif" font-size="10" lengthAdjust="spacing" textLength="111.1426" x="1290.5" y="92.501">Tenant-scoped access</text></g><!--link KeysController to KeysService--><g class="link" data-entity-1="ent0004" data-entity-2="ent0006" data-link-type="dependency" data-source-line="42" id="lnk26"><path codeLine="42" d="M586,244.3569 C586,261.9969 586,280.6369 586,298.2769" fill="none" id="KeysController-to-KeysService" style="stroke:#181818;stroke-width:1;"/><polygon fill="#181818" points="586,304.2769,590,295.2769,586,299.2769,582,295.2769,586,304.2769" style="stroke:#181818;stroke-width:1;"/></g><!--link ProvisioningController to KeysService--><g class="link" data-entity-1="ent0005" data-entity-2="ent0006" data-link-type="dependency" data-source-line="43" id="lnk27"><path codeLine="43" d="M515.15,222.2969 C530.09,222.2969 541.5,222.2969 541.5,222.2969 C541.5,222.2969 541.5,267.7169 541.5,298.2369" fill="none" id="ProvisioningController-to-KeysService" style="stroke:#181818;stroke-width:1;"/><polygon fill="#181818" points="541.5,304.2369,545.5,295.2369,541.5,299.2369,537.5,295.2369,541.5,304.2369" style="stroke:#181818;stroke-width:1;"/></g><!--link KeysService to GatewaysKeysPersistenceService--><g class="link" data-entity-1="ent0006" data-entity-2="ent0007" data-link-type="dependency" data-source-line="44" id="lnk28"><path codeLine="44" d="M577,348.3569 C577,365.9969 577,384.6369 577,402.2769" fill="none" id="KeysService-to-GatewaysKeysPersistenceService" style="stroke:#181818;stroke-width:1;"/><polygon fill="#181818" points="577,408.2769,581,399.2769,577,403.2769,573,399.2769,577,408.2769" style="stroke:#181818;stroke-width:1;"/></g><!--link KeysService to GatewaysService--><g class="link" data-entity-1="ent0006" data-entity-2="ent0029" data-link-type="dependency" data-source-line="45" id="lnk30"><path codeLine="45" d="M621.7,326.2969 C665.59,326.2969 726,326.2969 726,326.2969 C726,326.2969 726,371.7169 726,402.2369" fill="none" id="KeysService-to-GatewaysService" style="stroke:#181818;stroke-width:1;"/><polygon fill="#181818" points="726,408.2369,730,399.2369,726,403.2369,722,399.2369,726,408.2369" style="stroke:#181818;stroke-width:1;"/></g><!--link GatewaysKeysPersistenceService to KeyEntity--><g class="link" data-entity-1="ent0007" data-entity-2="ent0009" data-link-type="dependency" data-source-line="46" id="lnk31"><path codeLine="46" d="M554,452.3569 C554,469.9969 554,488.6369 554,506.2769" fill="none" id="GatewaysKeysPersistenceService-to-KeyEntity" style="stroke:#181818;stroke-width:1;"/><polygon fill="#181818" points="554,512.2769,558,503.2769,554,507.2769,550,503.2769,554,512.2769" style="stroke:#181818;stroke-width:1;"/></g><!--link KeyEntity to GatewayEntity--><g class="link" data-entity-1="ent0009" data-entity-2="ent0032" data-link-type="dependency" data-source-line="47" id="lnk33"><path codeLine="47" d="M554,556.3569 C554,573.9969 554,592.6369 554,610.2769" fill="none" id="KeyEntity-to-GatewayEntity" style="stroke:#181818;stroke-width:1;"/><polygon fill="#181818" points="554,616.2769,558,607.2769,554,611.2769,550,607.2769,554,616.2769" style="stroke:#181818;stroke-width:1;"/></g><!--link UsersController to UsersService--><g class="link" data-entity-1="ent0011" data-entity-2="ent0012" data-link-type="dependency" data-source-line="50" id="lnk34"><path codeLine="50" d="M946,244.3569 C946,261.9969 946,280.6369 946,298.2769" fill="none" id="UsersController-to-UsersService" style="stroke:#181818;stroke-width:1;"/><polygon fill="#181818" points="946,304.2769,950,295.2769,946,299.2769,942,295.2769,946,304.2769" style="stroke:#181818;stroke-width:1;"/></g><!--link UsersService to UsersPersistenceService--><g class="link" data-entity-1="ent0012" data-entity-2="ent0013" data-link-type="dependency" data-source-line="51" id="lnk35"><path codeLine="51" d="M946,348.3569 C946,365.9969 946,384.6369 946,402.2769" fill="none" id="UsersService-to-UsersPersistenceService" style="stroke:#181818;stroke-width:1;"/><polygon fill="#181818" points="946,408.2769,950,399.2769,946,403.2769,942,399.2769,946,408.2769" style="stroke:#181818;stroke-width:1;"/></g><!--link UsersPersistenceService to UserEntity--><g class="link" data-entity-1="ent0013" data-entity-2="ent0014" data-link-type="dependency" data-source-line="52" id="lnk36"><path codeLine="52" d="M964,452.3569 C964,469.9969 964,488.6369 964,506.2769" fill="none" id="UsersPersistenceService-to-UserEntity" style="stroke:#181818;stroke-width:1;"/><polygon fill="#181818" points="964,512.2769,968,503.2769,964,507.2769,960,503.2769,964,512.2769" style="stroke:#181818;stroke-width:1;"/></g><!--link UserEntity to TenantEntity--><g class="link" data-entity-1="ent0014" data-entity-2="ent0037" data-link-type="dependency" data-source-line="53" id="lnk38"><path codeLine="53" d="M964,556.3569 C964,586.8769 964,638.2969 964,638.2969 C964,638.2969 1083.7,638.2969 1153.91,638.2969" fill="none" id="UserEntity-to-TenantEntity" style="stroke:#181818;stroke-width:1;"/><polygon fill="#181818" points="1159.91,638.2969,1150.91,634.2969,1154.91,638.2969,1150.91,642.2969,1159.91,638.2969" style="stroke:#181818;stroke-width:1;"/></g><!--link ThresholdsController to ThresholdsService--><g class="link" data-entity-1="ent0016" data-entity-2="ent0017" data-link-type="dependency" data-source-line="56" id="lnk39"><path codeLine="56" d="M1206,244.3569 C1206,261.9969 1206,280.6369 1206,298.2769" fill="none" id="ThresholdsController-to-ThresholdsService" style="stroke:#181818;stroke-width:1;"/><polygon fill="#181818" points="1206,304.2769,1210,295.2769,1206,299.2769,1202,295.2769,1206,304.2769" style="stroke:#181818;stroke-width:1;"/></g><!--link ThresholdsService to ThresholdsPersistenceService--><g class="link" data-entity-1="ent0017" data-entity-2="ent0018" data-link-type="dependency" data-source-line="57" id="lnk40"><path codeLine="57" d="M1206,348.3569 C1206,365.9969 1206,384.6369 1206,402.2769" fill="none" id="ThresholdsService-to-ThresholdsPersistenceService" style="stroke:#181818;stroke-width:1;"/><polygon fill="#181818" points="1206,408.2769,1210,399.2769,1206,403.2769,1202,399.2769,1206,408.2769" style="stroke:#181818;stroke-width:1;"/></g><!--link ThresholdsPersistenceService to ThresholdEntity--><g class="link" data-entity-1="ent0018" data-entity-2="ent0019" data-link-type="dependency" data-source-line="58" id="lnk41"><path codeLine="58" d="M1206,452.3569 C1206,469.9969 1206,488.6369 1206,506.2769" fill="none" id="ThresholdsPersistenceService-to-ThresholdEntity" style="stroke:#181818;stroke-width:1;"/><polygon fill="#181818" points="1206,512.2769,1210,503.2769,1206,507.2769,1202,503.2769,1206,512.2769" style="stroke:#181818;stroke-width:1;"/></g><!--link ThresholdEntity to TenantEntity--><g class="link" data-entity-1="ent0019" data-entity-2="ent0037" data-link-type="dependency" data-source-line="59" id="lnk42"><path codeLine="59" d="M1206,556.3569 C1206,573.9969 1206,592.6369 1206,610.2769" fill="none" id="ThresholdEntity-to-TenantEntity" style="stroke:#181818;stroke-width:1;"/><polygon fill="#181818" points="1206,616.2769,1210,607.2769,1206,611.2769,1202,607.2769,1206,616.2769" style="stroke:#181818;stroke-width:1;"/></g><!--link AuditLogController to AuditLogService--><g class="link" data-entity-1="ent0021" data-entity-2="ent0022" data-link-type="dependency" data-source-line="62" id="lnk43"><path codeLine="62" d="M1663,244.3569 C1663,274.8769 1663,326.2969 1663,326.2969 C1663,326.2969 1597.32,326.2969 1544.68,326.2969" fill="none" id="AuditLogController-to-AuditLogService" style="stroke:#181818;stroke-width:1;"/><polygon fill="#181818" points="1538.68,326.2969,1547.68,330.2969,1543.68,326.2969,1547.68,322.2969,1538.68,326.2969" style="stroke:#181818;stroke-width:1;"/></g><!--link AuditLogService to AuditLogPersistenceService--><g class="link" data-entity-1="ent0022" data-entity-2="ent0023" data-link-type="dependency" data-source-line="63" id="lnk44"><path codeLine="63" d="M1484,348.3569 C1484,365.9969 1484,384.6369 1484,402.2769" fill="none" id="AuditLogService-to-AuditLogPersistenceService" style="stroke:#181818;stroke-width:1;"/><polygon fill="#181818" points="1484,408.2769,1488,399.2769,1484,403.2769,1480,399.2769,1484,408.2769" style="stroke:#181818;stroke-width:1;"/></g><!--link AuditLogPersistenceService to AuditLogEntity--><g class="link" data-entity-1="ent0023" data-entity-2="ent0025" data-link-type="dependency" data-source-line="64" id="lnk45"><path codeLine="64" d="M1468,452.3569 C1468,469.9969 1468,488.6369 1468,506.2769" fill="none" id="AuditLogPersistenceService-to-AuditLogEntity" style="stroke:#181818;stroke-width:1;"/><polygon fill="#181818" points="1468,512.2769,1472,503.2769,1468,507.2769,1464,503.2769,1468,512.2769" style="stroke:#181818;stroke-width:1;"/></g><!--link AuditLogEntity to TenantEntity--><g class="link" data-entity-1="ent0025" data-entity-2="ent0037" data-link-type="dependency" data-source-line="65" id="lnk46"><path codeLine="65" d="M1468,556.3569 C1468,586.8769 1468,638.2969 1468,638.2969 C1468,638.2969 1333.45,638.2969 1258.24,638.2969" fill="none" id="AuditLogEntity-to-TenantEntity" style="stroke:#181818;stroke-width:1;"/><polygon fill="#181818" points="1252.24,638.2969,1261.24,642.2969,1257.24,638.2969,1261.24,634.2969,1252.24,638.2969" style="stroke:#181818;stroke-width:1;"/></g><!--link ProvisioningAuditConsumer to AuditLogService--><g class="link" data-entity-1="ent0024" data-entity-2="ent0022" data-link-type="dependency" data-source-line="66" id="lnk47"><path codeLine="66" d="M1484,244.3569 C1484,261.9969 1484,280.6369 1484,298.2769" fill="none" id="ProvisioningAuditConsumer-to-AuditLogService" style="stroke:#181818;stroke-width:1;"/><polygon fill="#181818" points="1484,304.2769,1488,295.2769,1484,299.2769,1480,295.2769,1484,304.2769" style="stroke:#181818;stroke-width:1;"/></g><!--link GMN48 to KeysModule--><g class="link" data-entity-1="ent0049" data-entity-2="ent0003" data-link-type="association" data-source-line="70" id="lnk50"><path d="M105,100.4569 C105,110.8619 105,123.2262 105,136.0255 C105,142.4251 105,148.9334 105,155.3599 C105,156.9665 105,158.568 105,160.1614 C105,160.5597 105,160.9576 105,161.3549 C105,161.5535 105,161.752 105,161.9504" fill="none" id="GMN48-KeysModule" style="stroke:#181818;stroke-width:1;stroke-dasharray:7,7;"/></g><!--link GMN51 to UsersModule--><g class="link" data-entity-1="ent0052" data-entity-2="ent0010" data-link-type="association" data-source-line="77" id="lnk53"><path d="M846,100.4569 C846,110.8619 846,123.2262 846,136.0255 C846,142.4251 846,148.9334 846,155.3599 C846,156.9665 846,158.568 846,160.1614 C846,160.5597 846,160.9576 846,161.3549 C846,161.5535 846,161.752 846,161.9504" fill="none" id="GMN51-UsersModule" style="stroke:#181818;stroke-width:1;stroke-dasharray:7,7;"/></g><!--link GMN54 to ThresholdsModule--><g class="link" data-entity-1="ent0055" data-entity-2="ent0015" data-link-type="association" data-source-line="84" id="lnk56"><path d="M1094,94.3269 C1094,104.3319 1094,116.835 1094,130.0777 C1094,136.699 1094,143.5052 1094,150.2765 C1094,153.6621 1094,157.039 1094,160.3797 C1094,160.7973 1094,161.2143 1094,161.6307 C1094,161.8389 1094,162.0469 1094,162.2548" fill="none" id="GMN54-ThresholdsModule" style="stroke:#181818;stroke-width:1;stroke-dasharray:7,7;"/></g><!--link GMN57 to AuditLogModule--><g class="link" data-entity-1="ent0058" data-entity-2="ent0020" data-link-type="association" data-source-line="90" id="lnk59"><path d="M1366,100.4569 C1366,110.8619 1366,123.2262 1366,136.0255 C1366,142.4251 1366,148.9334 1366,155.3599 C1366,156.9665 1366,158.568 1366,160.1614 C1366,160.5597 1366,160.9576 1366,161.3549 C1366,161.5535 1366,161.752 1366,161.9504" fill="none" id="GMN57-AuditLogModule" style="stroke:#181818;stroke-width:1;stroke-dasharray:7,7;"/></g><?plantuml-src XLRBRjim4BpxAnRfeSb1QDgWFGK1t3pQe4rgsCu7CDHQ9aoJAaavK8l-UzUKBL4KbVXaxiukPqRYYauuYV3uQta_WmUcM85RL0wcitl8O6huMZZahZ88fnSVBiuc4xiHgcI6RU6PyKrXTANoQosrWNTt_XSWSbonIhexhTn2_47uU9vE7khF_I-0IA7GrIM2DcwjWqH9MnFLXQk9l262J1KI9vD374vIWaxWyd9-n5vTmTy9G5lm0siB3pgl99u0ix1VDqkF0-2IMTlWhecoqLAYQQ5TA0JFZDu9AxGIgeYAqgbufmMQdU0TeyCwX7rZ3bzORVVf6Hehh4F5CQny7J96-94vEqTRQfMZ2Tkz1Of4t2edN7sKqAm8ycyIslzaYLVelm-a7e1FH6P6iG4yP1y61i0H0qToSNcWj5iEf2xN1krQoxodjukcH7VPI7agaIuCzGoYwP8HDru391i5laInWJdJAXSk-wcBq1iVf5ZAcMCkycKOJXM5gg9O2ZxYntXwx6Zv2g9cgsrY7FIoAHw1d_tGqSxtVbZGO9JCKK-x5gMbS7zGGPPTHKCbFPGIm63biszEcB623l5wYoE7LcVxFsnto7e7ceaIMn1D2bySJOHmsUMJgaOoRLNBjblut18LKova6mo5c7BgY3TT4gTu48kGIHclfVlrhQ0eCgAgEysngE7vz2s6Xp2Az519CUF9Ncshf1yO2e7nivcaJ0TGQOVWT0bw5TmZgDDtfdA9T6fl5zcdprzWWpLispiA0UuOTzhKFh5ZKkJUD3XzvgOktLb41bw4MuCpJ5cgsxlRdIFVGeeLyfhJtgXosDFgami-ibHvFN-w0LsYQPuKqCREEm7L7aU8HQruiod9ubAp3TnF7oWnrpINUqg-Ld93Lpo9j9kjof9kS2CauYyV5JVtDWiMbQMBeMiHbBjfher0LW9npGuOlKDZH8w7Gvx3YeACtYi71Qg3fX46_U_ByPq0gOjYx_A-KsTB_0oOn_9kN2_55ZDw9lGv-rsX4PvIyqfbbbEZ71ZdQ6t7vZy0?></g></svg>