<?plantuml 1.2026.2?><svg xmlns="http://www.w3.org/2000/svg" xmlns:xlink="http://www.w3.org/1999/xlink" contentStyleType="text/css" data-diagram-type="CLASS" height="939px" preserveAspectRatio="none" style="width:2728px;height:939px;background:#FFFFFF;" version="1.1" viewBox="0 0 2728 939" width="2728px" zoomAndPan="magnify"><title>NOTIP Management API - Architecture (2/3)</title><defs/><g><g class="title" data-source-line="1"><text fill="#000000" font-family="sans-serif" font-size="14" font-weight="bold" lengthAdjust="spacing" textLength="343.916" x="1185.3037" y="22.9951">NOTIP Management API - Architecture (2/3)</text></g><!--cluster NOTIP Management API--><g class="cluster" data-qualified-name="NOTIP Management API" data-source-line="9" id="ent0002"><rect fill="none" height="829.5" rx="2.5" ry="2.5" style="stroke:#181818;stroke-width:1;" width="2079" x="215.5" y="104.2969"/><text fill="#000000" font-family="sans-serif" font-size="10" font-weight="bold" lengthAdjust="spacing" textLength="134.1016" x="1187.9492" y="115.5791">NOTIP Management API</text></g><!--cluster GatewaysModule--><g class="cluster" data-qualified-name="NOTIP Management API.GatewaysModule" data-source-line="10" id="ent0003"><rect fill="none" height="522" rx="2.5" ry="2.5" style="stroke:#000000;stroke-width:1.5;" width="619" x="247.5" y="379.7969"/><text fill="#000000" font-family="sans-serif" font-size="10" font-weight="bold" lengthAdjust="spacing" textLength="99.7656" x="507.1172" y="391.0791">Gateways Module</text></g><!--cluster AlertsModule--><g class="cluster" data-qualified-name="NOTIP Management API.AlertsModule" data-source-line="20" id="ent0011"><rect fill="none" height="426.5" rx="2.5" ry="2.5" style="stroke:#000000;stroke-width:1.5;" width="406" x="1152.5" y="267.2969"/><text fill="#000000" font-family="sans-serif" font-size="10" font-weight="bold" lengthAdjust="spacing" textLength="78.4033" x="1316.2983" y="278.5791">Alerts Module</text></g><!--cluster CommandModule--><g class="cluster" data-qualified-name="NOTIP Management API.CommandModule" data-source-line="29" id="ent0018"><rect fill="none" height="426.5" rx="2.5" ry="2.5" style="stroke:#000000;stroke-width:1.5;" width="664" x="1598.5" y="267.2969"/><text fill="#000000" font-family="sans-serif" font-size="10" font-weight="bold" lengthAdjust="spacing" textLength="100.8643" x="1880.0679" y="278.5791">Command Module</text></g><!--cluster CostsModule--><g class="cluster" data-qualified-name="NOTIP Management API.CostsModule" data-source-line="38" id="ent0025"><rect fill="none" height="335.5" rx="2.5" ry="2.5" style="stroke:#000000;stroke-width:1.5;" width="206" x="906.5" y="150.2969"/><text fill="#000000" font-family="sans-serif" font-size="10" font-weight="bold" lengthAdjust="spacing" textLength="75.6836" x="971.6582" y="161.5791">Costs Module</text></g><!--class TenantEntity--><g class="entity" data-qualified-name="NOTIP Management API.TenantEntity" data-source-line="49" id="ent0033"><rect fill="#F1F1F1" height="44" rx="2.5" ry="2.5" style="stroke:#181818;stroke-width:0.5;" width="92.1797" x="1329.5" y="833.7969"/><ellipse cx="1342.5" cy="847.7969" fill="#ADD1B2" rx="9" ry="9" style="stroke:#181818;stroke-width:1;"/><path d="M1343.7813,851.0938 Q1343.4375,851.2656 1343.0625,851.3438 Q1342.6875,851.4375 1342.2656,851.4375 Q1340.7969,851.4375 1340.0156,850.4688 Q1339.25,849.5 1339.25,847.6563 Q1339.25,845.8125 1340.0156,844.8438 Q1340.7969,843.875 1342.2656,843.875 Q1342.6875,843.875 1343.0625,843.9688 Q1343.4531,844.0469 1343.7813,844.2188 L1343.7813,845.8281 Q1343.4063,845.4844 1343.0469,845.3281 Q1342.7031,845.1719 1342.3438,845.1719 Q1341.5469,845.1719 1341.1406,845.7969 Q1340.7344,846.4219 1340.7344,847.6563 Q1340.7344,848.8906 1341.1406,849.5156 Q1341.5469,850.1406 1342.3438,850.1406 Q1342.7031,850.1406 1343.0469,849.9844 Q1343.4063,849.8281 1343.7813,849.4844 L1343.7813,851.0938 Z " fill="#000000"/><text fill="#000000" font-family="sans-serif" font-size="10" lengthAdjust="spacing" textLength="64.1797" x="1354.5" y="851.2588">TenantEntity</text><line style="stroke:#181818;stroke-width:0.5;" x1="1330.5" x2="1420.6797" y1="861.7969" y2="861.7969"/><line style="stroke:#181818;stroke-width:0.5;" x1="1330.5" x2="1420.6797" y1="869.7969" y2="869.7969"/></g><!--class GatewaysController--><g class="entity" data-qualified-name="NOTIP Management API.GatewaysModule.GatewaysController" data-source-line="11" id="ent0004"><rect fill="#F1F1F1" height="44" rx="2.5" ry="2.5" style="stroke:#181818;stroke-width:0.5;" width="126.7939" x="715" y="417.7969"/><ellipse cx="728" cy="431.7969" fill="#ADD1B2" rx="9" ry="9" style="stroke:#181818;stroke-width:1;"/><path d="M729.2813,435.0938 Q728.9375,435.2656 728.5625,435.3438 Q728.1875,435.4375 727.7656,435.4375 Q726.2969,435.4375 725.5156,434.4688 Q724.75,433.5 724.75,431.6563 Q724.75,429.8125 725.5156,428.8438 Q726.2969,427.875 727.7656,427.875 Q728.1875,427.875 728.5625,427.9688 Q728.9531,428.0469 729.2813,428.2188 L729.2813,429.8281 Q728.9063,429.4844 728.5469,429.3281 Q728.2031,429.1719 727.8438,429.1719 Q727.0469,429.1719 726.6406,429.7969 Q726.2344,430.4219 726.2344,431.6563 Q726.2344,432.8906 726.6406,433.5156 Q727.0469,434.1406 727.8438,434.1406 Q728.2031,434.1406 728.5469,433.9844 Q728.9063,433.8281 729.2813,433.4844 L729.2813,435.0938 Z " fill="#000000"/><text fill="#000000" font-family="sans-serif" font-size="10" lengthAdjust="spacing" textLength="98.7939" x="740" y="435.2588">GatewaysController</text><line style="stroke:#181818;stroke-width:0.5;" x1="716" x2="840.7939" y1="445.7969" y2="445.7969"/><line style="stroke:#181818;stroke-width:0.5;" x1="716" x2="840.7939" y1="453.7969" y2="453.7969"/></g><!--class GatewaysService--><g class="entity" data-qualified-name="NOTIP Management API.GatewaysModule.GatewaysService" data-source-line="12" id="ent0005"><rect fill="#F1F1F1" height="44" rx="2.5" ry="2.5" style="stroke:#181818;stroke-width:0.5;" width="114.3428" x="710.5" y="521.7969"/><ellipse cx="723.5" cy="535.7969" fill="#ADD1B2" rx="9" ry="9" style="stroke:#181818;stroke-width:1;"/><path d="M724.7813,539.0938 Q724.4375,539.2656 724.0625,539.3438 Q723.6875,539.4375 723.2656,539.4375 Q721.7969,539.4375 721.0156,538.4688 Q720.25,537.5 720.25,535.6563 Q720.25,533.8125 721.0156,532.8438 Q721.7969,531.875 723.2656,531.875 Q723.6875,531.875 724.0625,531.9688 Q724.4531,532.0469 724.7813,532.2188 L724.7813,533.8281 Q724.4063,533.4844 724.0469,533.3281 Q723.7031,533.1719 723.3438,533.1719 Q722.5469,533.1719 722.1406,533.7969 Q721.7344,534.4219 721.7344,535.6563 Q721.7344,536.8906 722.1406,537.5156 Q722.5469,538.1406 723.3438,538.1406 Q723.7031,538.1406 724.0469,537.9844 Q724.4063,537.8281 724.7813,537.4844 L724.7813,539.0938 Z " fill="#000000"/><text fill="#000000" font-family="sans-serif" font-size="10" lengthAdjust="spacing" textLength="86.3428" x="735.5" y="539.2588">GatewaysService</text><line style="stroke:#181818;stroke-width:0.5;" x1="711.5" x2="823.8428" y1="549.7969" y2="549.7969"/><line style="stroke:#181818;stroke-width:0.5;" x1="711.5" x2="823.8428" y1="557.7969" y2="557.7969"/></g><!--class GatewaysPersistenceService--><g class="entity" data-qualified-name="NOTIP Management API.GatewaysModule.GatewaysPersistenceService" data-source-line="13" id="ent0006"><rect fill="#F1F1F1" height="44" rx="2.5" ry="2.5" style="stroke:#181818;stroke-width:0.5;" width="171.8965" x="670.5" y="625.7969"/><ellipse cx="683.5" cy="639.7969" fill="#ADD1B2" rx="9" ry="9" style="stroke:#181818;stroke-width:1;"/><path d="M684.7813,643.0938 Q684.4375,643.2656 684.0625,643.3438 Q683.6875,643.4375 683.2656,643.4375 Q681.7969,643.4375 681.0156,642.4688 Q680.25,641.5 680.25,639.6563 Q680.25,637.8125 681.0156,636.8438 Q681.7969,635.875 683.2656,635.875 Q683.6875,635.875 684.0625,635.9688 Q684.4531,636.0469 684.7813,636.2188 L684.7813,637.8281 Q684.4063,637.4844 684.0469,637.3281 Q683.7031,637.1719 683.3438,637.1719 Q682.5469,637.1719 682.1406,637.7969 Q681.7344,638.4219 681.7344,639.6563 Q681.7344,640.8906 682.1406,641.5156 Q682.5469,642.1406 683.3438,642.1406 Q683.7031,642.1406 684.0469,641.9844 Q684.4063,641.8281 684.7813,641.4844 L684.7813,643.0938 Z " fill="#000000"/><text fill="#000000" font-family="sans-serif" font-size="10" lengthAdjust="spacing" textLength="143.8965" x="695.5" y="643.2588">GatewaysPersistenceService</text><line style="stroke:#181818;stroke-width:0.5;" x1="671.5" x2="841.3965" y1="653.7969" y2="653.7969"/><line style="stroke:#181818;stroke-width:0.5;" x1="671.5" x2="841.3965" y1="661.7969" y2="661.7969"/></g><!--class GatewaysNatsService--><g class="entity" data-qualified-name="NOTIP Management API.GatewaysModule.GatewaysNatsService" data-source-line="14" id="ent0007"><rect fill="#F1F1F1" height="44" rx="2.5" ry="2.5" style="stroke:#181818;stroke-width:0.5;" width="137.082" x="543" y="417.7969"/><ellipse cx="556" cy="431.7969" fill="#ADD1B2" rx="9" ry="9" style="stroke:#181818;stroke-width:1;"/><path d="M557.2813,435.0938 Q556.9375,435.2656 556.5625,435.3438 Q556.1875,435.4375 555.7656,435.4375 Q554.2969,435.4375 553.5156,434.4688 Q552.75,433.5 552.75,431.6563 Q552.75,429.8125 553.5156,428.8438 Q554.2969,427.875 555.7656,427.875 Q556.1875,427.875 556.5625,427.9688 Q556.9531,428.0469 557.2813,428.2188 L557.2813,429.8281 Q556.9063,429.4844 556.5469,429.3281 Q556.2031,429.1719 555.8438,429.1719 Q555.0469,429.1719 554.6406,429.7969 Q554.2344,430.4219 554.2344,431.6563 Q554.2344,432.8906 554.6406,433.5156 Q555.0469,434.1406 555.8438,434.1406 Q556.2031,434.1406 556.5469,433.9844 Q556.9063,433.8281 557.2813,433.4844 L557.2813,435.0938 Z " fill="#000000"/><text fill="#000000" font-family="sans-serif" font-size="10" lengthAdjust="spacing" textLength="109.082" x="568" y="435.2588">GatewaysNatsService</text><line style="stroke:#181818;stroke-width:0.5;" x1="544" x2="679.082" y1="445.7969" y2="445.7969"/><line style="stroke:#181818;stroke-width:0.5;" x1="544" x2="679.082" y1="453.7969" y2="453.7969"/></g><!--class GatewayStatusNatsResponderService--><g class="entity" data-qualified-name="NOTIP Management API.GatewaysModule.GatewayStatusNatsResponderService" data-source-line="15" id="ent0008"><rect fill="#F1F1F1" height="44" rx="2.5" ry="2.5" style="stroke:#181818;stroke-width:0.5;" width="217.4629" x="291" y="417.7969"/><ellipse cx="304" cy="431.7969" fill="#ADD1B2" rx="9" ry="9" style="stroke:#181818;stroke-width:1;"/><path d="M305.2813,435.0938 Q304.9375,435.2656 304.5625,435.3438 Q304.1875,435.4375 303.7656,435.4375 Q302.2969,435.4375 301.5156,434.4688 Q300.75,433.5 300.75,431.6563 Q300.75,429.8125 301.5156,428.8438 Q302.2969,427.875 303.7656,427.875 Q304.1875,427.875 304.5625,427.9688 Q304.9531,428.0469 305.2813,428.2188 L305.2813,429.8281 Q304.9063,429.4844 304.5469,429.3281 Q304.2031,429.1719 303.8438,429.1719 Q303.0469,429.1719 302.6406,429.7969 Q302.2344,430.4219 302.2344,431.6563 Q302.2344,432.8906 302.6406,433.5156 Q303.0469,434.1406 303.8438,434.1406 Q304.2031,434.1406 304.5469,433.9844 Q304.9063,433.8281 305.2813,433.4844 L305.2813,435.0938 Z " fill="#000000"/><text fill="#000000" font-family="sans-serif" font-size="10" lengthAdjust="spacing" textLength="189.4629" x="316" y="435.2588">GatewayStatusNatsResponderService</text><line style="stroke:#181818;stroke-width:0.5;" x1="292" x2="507.4629" y1="445.7969" y2="445.7969"/><line style="stroke:#181818;stroke-width:0.5;" x1="292" x2="507.4629" y1="453.7969" y2="453.7969"/></g><!--class GatewayEntity--><g class="entity" data-qualified-name="NOTIP Management API.GatewaysModule.GatewayEntity" data-source-line="16" id="ent0009"><rect fill="#F1F1F1" height="44" rx="2.5" ry="2.5" style="stroke:#181818;stroke-width:0.5;" width="101.3691" x="741" y="729.7969"/><ellipse cx="754" cy="743.7969" fill="#ADD1B2" rx="9" ry="9" style="stroke:#181818;stroke-width:1;"/><path d="M755.2813,747.0938 Q754.9375,747.2656 754.5625,747.3438 Q754.1875,747.4375 753.7656,747.4375 Q752.2969,747.4375 751.5156,746.4688 Q750.75,745.5 750.75,743.6563 Q750.75,741.8125 751.5156,740.8438 Q752.2969,739.875 753.7656,739.875 Q754.1875,739.875 754.5625,739.9688 Q754.9531,740.0469 755.2813,740.2188 L755.2813,741.8281 Q754.9063,741.4844 754.5469,741.3281 Q754.2031,741.1719 753.8438,741.1719 Q753.0469,741.1719 752.6406,741.7969 Q752.2344,742.4219 752.2344,743.6563 Q752.2344,744.8906 752.6406,745.5156 Q753.0469,746.1406 753.8438,746.1406 Q754.2031,746.1406 754.5469,745.9844 Q754.9063,745.8281 755.2813,745.4844 L755.2813,747.0938 Z " fill="#000000"/><text fill="#000000" font-family="sans-serif" font-size="10" lengthAdjust="spacing" textLength="73.3691" x="766" y="747.2588">GatewayEntity</text><line style="stroke:#181818;stroke-width:0.5;" x1="742" x2="841.3691" y1="757.7969" y2="757.7969"/><line style="stroke:#181818;stroke-width:0.5;" x1="742" x2="841.3691" y1="765.7969" y2="765.7969"/></g><!--class GatewayMetadataEntity--><g class="entity" data-qualified-name="NOTIP Management API.GatewaysModule.GatewayMetadataEntity" data-source-line="17" id="ent0010"><rect fill="#F1F1F1" height="44" rx="2.5" ry="2.5" style="stroke:#181818;stroke-width:0.5;" width="148.7227" x="662" y="833.7969"/><ellipse cx="675" cy="847.7969" fill="#ADD1B2" rx="9" ry="9" style="stroke:#181818;stroke-width:1;"/><path d="M676.2813,851.0938 Q675.9375,851.2656 675.5625,851.3438 Q675.1875,851.4375 674.7656,851.4375 Q673.2969,851.4375 672.5156,850.4688 Q671.75,849.5 671.75,847.6563 Q671.75,845.8125 672.5156,844.8438 Q673.2969,843.875 674.7656,843.875 Q675.1875,843.875 675.5625,843.9688 Q675.9531,844.0469 676.2813,844.2188 L676.2813,845.8281 Q675.9063,845.4844 675.5469,845.3281 Q675.2031,845.1719 674.8438,845.1719 Q674.0469,845.1719 673.6406,845.7969 Q673.2344,846.4219 673.2344,847.6563 Q673.2344,848.8906 673.6406,849.5156 Q674.0469,850.1406 674.8438,850.1406 Q675.2031,850.1406 675.5469,849.9844 Q675.9063,849.8281 676.2813,849.4844 L676.2813,851.0938 Z " fill="#000000"/><text fill="#000000" font-family="sans-serif" font-size="10" lengthAdjust="spacing" textLength="120.7227" x="687" y="851.2588">GatewayMetadataEntity</text><line style="stroke:#181818;stroke-width:0.5;" x1="663" x2="809.7227" y1="861.7969" y2="861.7969"/><line style="stroke:#181818;stroke-width:0.5;" x1="663" x2="809.7227" y1="869.7969" y2="869.7969"/></g><!--class AlertsController--><g class="entity" data-qualified-name="NOTIP Management API.AlertsModule.AlertsController" data-source-line="21" id="ent0012"><rect fill="#F1F1F1" height="44" rx="2.5" ry="2.5" style="stroke:#181818;stroke-width:0.5;" width="106.4229" x="1428.5" y="305.2969"/><ellipse cx="1441.5" cy="319.2969" fill="#ADD1B2" rx="9" ry="9" style="stroke:#181818;stroke-width:1;"/><path d="M1442.7813,322.5938 Q1442.4375,322.7656 1442.0625,322.8438 Q1441.6875,322.9375 1441.2656,322.9375 Q1439.7969,322.9375 1439.0156,321.9688 Q1438.25,321 1438.25,319.1563 Q1438.25,317.3125 1439.0156,316.3438 Q1439.7969,315.375 1441.2656,315.375 Q1441.6875,315.375 1442.0625,315.4688 Q1442.4531,315.5469 1442.7813,315.7188 L1442.7813,317.3281 Q1442.4063,316.9844 1442.0469,316.8281 Q1441.7031,316.6719 1441.3438,316.6719 Q1440.5469,316.6719 1440.1406,317.2969 Q1439.7344,317.9219 1439.7344,319.1563 Q1439.7344,320.3906 1440.1406,321.0156 Q1440.5469,321.6406 1441.3438,321.6406 Q1441.7031,321.6406 1442.0469,321.4844 Q1442.4063,321.3281 1442.7813,320.9844 L1442.7813,322.5938 Z " fill="#000000"/><text fill="#000000" font-family="sans-serif" font-size="10" lengthAdjust="spacing" textLength="78.4229" x="1453.5" y="322.7588">AlertsController</text><line style="stroke:#181818;stroke-width:0.5;" x1="1429.5" x2="1533.9229" y1="333.2969" y2="333.2969"/><line style="stroke:#181818;stroke-width:0.5;" x1="1429.5" x2="1533.9229" y1="341.2969" y2="341.2969"/></g><!--class AlertsService--><g class="entity" data-qualified-name="NOTIP Management API.AlertsModule.AlertsService" data-source-line="22" id="ent0013"><rect fill="#F1F1F1" height="44" rx="2.5" ry="2.5" style="stroke:#181818;stroke-width:0.5;" width="93.9717" x="1355.5" y="417.7969"/><ellipse cx="1368.5" cy="431.7969" fill="#ADD1B2" rx="9" ry="9" style="stroke:#181818;stroke-width:1;"/><path d="M1369.7813,435.0938 Q1369.4375,435.2656 1369.0625,435.3438 Q1368.6875,435.4375 1368.2656,435.4375 Q1366.7969,435.4375 1366.0156,434.4688 Q1365.25,433.5 1365.25,431.6563 Q1365.25,429.8125 1366.0156,428.8438 Q1366.7969,427.875 1368.2656,427.875 Q1368.6875,427.875 1369.0625,427.9688 Q1369.4531,428.0469 1369.7813,428.2188 L1369.7813,429.8281 Q1369.4063,429.4844 1369.0469,429.3281 Q1368.7031,429.1719 1368.3438,429.1719 Q1367.5469,429.1719 1367.1406,429.7969 Q1366.7344,430.4219 1366.7344,431.6563 Q1366.7344,432.8906 1367.1406,433.5156 Q1367.5469,434.1406 1368.3438,434.1406 Q1368.7031,434.1406 1369.0469,433.9844 Q1369.4063,433.8281 1369.7813,433.4844 L1369.7813,435.0938 Z " fill="#000000"/><text fill="#000000" font-family="sans-serif" font-size="10" lengthAdjust="spacing" textLength="65.9717" x="1380.5" y="435.2588">AlertsService</text><line style="stroke:#181818;stroke-width:0.5;" x1="1356.5" x2="1448.4717" y1="445.7969" y2="445.7969"/><line style="stroke:#181818;stroke-width:0.5;" x1="1356.5" x2="1448.4717" y1="453.7969" y2="453.7969"/></g><!--class AlertsPersistenceService--><g class="entity" data-qualified-name="NOTIP Management API.AlertsModule.AlertsPersistenceService" data-source-line="23" id="ent0014"><rect fill="#F1F1F1" height="44" rx="2.5" ry="2.5" style="stroke:#181818;stroke-width:0.5;" width="151.5254" x="1247.5" y="521.7969"/><ellipse cx="1260.5" cy="535.7969" fill="#ADD1B2" rx="9" ry="9" style="stroke:#181818;stroke-width:1;"/><path d="M1261.7813,539.0938 Q1261.4375,539.2656 1261.0625,539.3438 Q1260.6875,539.4375 1260.2656,539.4375 Q1258.7969,539.4375 1258.0156,538.4688 Q1257.25,537.5 1257.25,535.6563 Q1257.25,533.8125 1258.0156,532.8438 Q1258.7969,531.875 1260.2656,531.875 Q1260.6875,531.875 1261.0625,531.9688 Q1261.4531,532.0469 1261.7813,532.2188 L1261.7813,533.8281 Q1261.4063,533.4844 1261.0469,533.3281 Q1260.7031,533.1719 1260.3438,533.1719 Q1259.5469,533.1719 1259.1406,533.7969 Q1258.7344,534.4219 1258.7344,535.6563 Q1258.7344,536.8906 1259.1406,537.5156 Q1259.5469,538.1406 1260.3438,538.1406 Q1260.7031,538.1406 1261.0469,537.9844 Q1261.4063,537.8281 1261.7813,537.4844 L1261.7813,539.0938 Z " fill="#000000"/><text fill="#000000" font-family="sans-serif" font-size="10" lengthAdjust="spacing" textLength="123.5254" x="1272.5" y="539.2588">AlertsPersistenceService</text><line style="stroke:#181818;stroke-width:0.5;" x1="1248.5" x2="1398.0254" y1="549.7969" y2="549.7969"/><line style="stroke:#181818;stroke-width:0.5;" x1="1248.5" x2="1398.0254" y1="557.7969" y2="557.7969"/></g><!--class AlertConfigNatsResponderService--><g class="entity" data-qualified-name="NOTIP Management API.AlertsModule.AlertConfigNatsResponderService" data-source-line="24" id="ent0015"><rect fill="#F1F1F1" height="44" rx="2.5" ry="2.5" style="stroke:#181818;stroke-width:0.5;" width="197.3115" x="1196" y="305.2969"/><ellipse cx="1209" cy="319.2969" fill="#ADD1B2" rx="9" ry="9" style="stroke:#181818;stroke-width:1;"/><path d="M1210.2813,322.5938 Q1209.9375,322.7656 1209.5625,322.8438 Q1209.1875,322.9375 1208.7656,322.9375 Q1207.2969,322.9375 1206.5156,321.9688 Q1205.75,321 1205.75,319.1563 Q1205.75,317.3125 1206.5156,316.3438 Q1207.2969,315.375 1208.7656,315.375 Q1209.1875,315.375 1209.5625,315.4688 Q1209.9531,315.5469 1210.2813,315.7188 L1210.2813,317.3281 Q1209.9063,316.9844 1209.5469,316.8281 Q1209.2031,316.6719 1208.8438,316.6719 Q1208.0469,316.6719 1207.6406,317.2969 Q1207.2344,317.9219 1207.2344,319.1563 Q1207.2344,320.3906 1207.6406,321.0156 Q1208.0469,321.6406 1208.8438,321.6406 Q1209.2031,321.6406 1209.5469,321.4844 Q1209.9063,321.3281 1210.2813,320.9844 L1210.2813,322.5938 Z " fill="#000000"/><text fill="#000000" font-family="sans-serif" font-size="10" lengthAdjust="spacing" textLength="169.3115" x="1221" y="322.7588">AlertConfigNatsResponderService</text><line style="stroke:#181818;stroke-width:0.5;" x1="1197" x2="1392.3115" y1="333.2969" y2="333.2969"/><line style="stroke:#181818;stroke-width:0.5;" x1="1197" x2="1392.3115" y1="341.2969" y2="341.2969"/></g><!--class AlertsEntity--><g class="entity" data-qualified-name="NOTIP Management API.AlertsModule.AlertsEntity" data-source-line="25" id="ent0016"><rect fill="#F1F1F1" height="44" rx="2.5" ry="2.5" style="stroke:#181818;stroke-width:0.5;" width="86.208" x="1195.5" y="625.7969"/><ellipse cx="1208.5" cy="639.7969" fill="#ADD1B2" rx="9" ry="9" style="stroke:#181818;stroke-width:1;"/><path d="M1209.7813,643.0938 Q1209.4375,643.2656 1209.0625,643.3438 Q1208.6875,643.4375 1208.2656,643.4375 Q1206.7969,643.4375 1206.0156,642.4688 Q1205.25,641.5 1205.25,639.6563 Q1205.25,637.8125 1206.0156,636.8438 Q1206.7969,635.875 1208.2656,635.875 Q1208.6875,635.875 1209.0625,635.9688 Q1209.4531,636.0469 1209.7813,636.2188 L1209.7813,637.8281 Q1209.4063,637.4844 1209.0469,637.3281 Q1208.7031,637.1719 1208.3438,637.1719 Q1207.5469,637.1719 1207.1406,637.7969 Q1206.7344,638.4219 1206.7344,639.6563 Q1206.7344,640.8906 1207.1406,641.5156 Q1207.5469,642.1406 1208.3438,642.1406 Q1208.7031,642.1406 1209.0469,641.9844 Q1209.4063,641.8281 1209.7813,641.4844 L1209.7813,643.0938 Z " fill="#000000"/><text fill="#000000" font-family="sans-serif" font-size="10" lengthAdjust="spacing" textLength="58.208" x="1220.5" y="643.2588">AlertsEntity</text><line style="stroke:#181818;stroke-width:0.5;" x1="1196.5" x2="1280.708" y1="653.7969" y2="653.7969"/><line style="stroke:#181818;stroke-width:0.5;" x1="1196.5" x2="1280.708" y1="661.7969" y2="661.7969"/></g><!--class AlertsConfigEntity--><g class="entity" data-qualified-name="NOTIP Management API.AlertsModule.AlertsConfigEntity" data-source-line="26" id="ent0017"><rect fill="#F1F1F1" height="44" rx="2.5" ry="2.5" style="stroke:#181818;stroke-width:0.5;" width="118.293" x="1316.5" y="625.7969"/><ellipse cx="1329.5" cy="639.7969" fill="#ADD1B2" rx="9" ry="9" style="stroke:#181818;stroke-width:1;"/><path d="M1330.7813,643.0938 Q1330.4375,643.2656 1330.0625,643.3438 Q1329.6875,643.4375 1329.2656,643.4375 Q1327.7969,643.4375 1327.0156,642.4688 Q1326.25,641.5 1326.25,639.6563 Q1326.25,637.8125 1327.0156,636.8438 Q1327.7969,635.875 1329.2656,635.875 Q1329.6875,635.875 1330.0625,635.9688 Q1330.4531,636.0469 1330.7813,636.2188 L1330.7813,637.8281 Q1330.4063,637.4844 1330.0469,637.3281 Q1329.7031,637.1719 1329.3438,637.1719 Q1328.5469,637.1719 1328.1406,637.7969 Q1327.7344,638.4219 1327.7344,639.6563 Q1327.7344,640.8906 1328.1406,641.5156 Q1328.5469,642.1406 1329.3438,642.1406 Q1329.7031,642.1406 1330.0469,641.9844 Q1330.4063,641.8281 1330.7813,641.4844 L1330.7813,643.0938 Z " fill="#000000"/><text fill="#000000" font-family="sans-serif" font-size="10" lengthAdjust="spacing" textLength="90.293" x="1341.5" y="643.2588">AlertsConfigEntity</text><line style="stroke:#181818;stroke-width:0.5;" x1="1317.5" x2="1433.793" y1="653.7969" y2="653.7969"/><line style="stroke:#181818;stroke-width:0.5;" x1="1317.5" x2="1433.793" y1="661.7969" y2="661.7969"/></g><!--class CommandController--><g class="entity" data-qualified-name="NOTIP Management API.CommandModule.CommandController" data-source-line="30" id="ent0019"><rect fill="#F1F1F1" height="44" rx="2.5" ry="2.5" style="stroke:#181818;stroke-width:0.5;" width="128.8057" x="1880" y="305.2969"/><ellipse cx="1893" cy="319.2969" fill="#ADD1B2" rx="9" ry="9" style="stroke:#181818;stroke-width:1;"/><path d="M1894.2813,322.5938 Q1893.9375,322.7656 1893.5625,322.8438 Q1893.1875,322.9375 1892.7656,322.9375 Q1891.2969,322.9375 1890.5156,321.9688 Q1889.75,321 1889.75,319.1563 Q1889.75,317.3125 1890.5156,316.3438 Q1891.2969,315.375 1892.7656,315.375 Q1893.1875,315.375 1893.5625,315.4688 Q1893.9531,315.5469 1894.2813,315.7188 L1894.2813,317.3281 Q1893.9063,316.9844 1893.5469,316.8281 Q1893.2031,316.6719 1892.8438,316.6719 Q1892.0469,316.6719 1891.6406,317.2969 Q1891.2344,317.9219 1891.2344,319.1563 Q1891.2344,320.3906 1891.6406,321.0156 Q1892.0469,321.6406 1892.8438,321.6406 Q1893.2031,321.6406 1893.5469,321.4844 Q1893.9063,321.3281 1894.2813,320.9844 L1894.2813,322.5938 Z " fill="#000000"/><text fill="#000000" font-family="sans-serif" font-size="10" lengthAdjust="spacing" textLength="100.8057" x="1905" y="322.7588">CommandController</text><line style="stroke:#181818;stroke-width:0.5;" x1="1881" x2="2007.8057" y1="333.2969" y2="333.2969"/><line style="stroke:#181818;stroke-width:0.5;" x1="1881" x2="2007.8057" y1="341.2969" y2="341.2969"/></g><!--class CommandService--><g class="entity" data-qualified-name="NOTIP Management API.CommandModule.CommandService" data-source-line="31" id="ent0020"><rect fill="#F1F1F1" height="44" rx="2.5" ry="2.5" style="stroke:#181818;stroke-width:0.5;" width="116.3545" x="1886.5" y="417.7969"/><ellipse cx="1899.5" cy="431.7969" fill="#ADD1B2" rx="9" ry="9" style="stroke:#181818;stroke-width:1;"/><path d="M1900.7813,435.0938 Q1900.4375,435.2656 1900.0625,435.3438 Q1899.6875,435.4375 1899.2656,435.4375 Q1897.7969,435.4375 1897.0156,434.4688 Q1896.25,433.5 1896.25,431.6563 Q1896.25,429.8125 1897.0156,428.8438 Q1897.7969,427.875 1899.2656,427.875 Q1899.6875,427.875 1900.0625,427.9688 Q1900.4531,428.0469 1900.7813,428.2188 L1900.7813,429.8281 Q1900.4063,429.4844 1900.0469,429.3281 Q1899.7031,429.1719 1899.3438,429.1719 Q1898.5469,429.1719 1898.1406,429.7969 Q1897.7344,430.4219 1897.7344,431.6563 Q1897.7344,432.8906 1898.1406,433.5156 Q1898.5469,434.1406 1899.3438,434.1406 Q1899.7031,434.1406 1900.0469,433.9844 Q1900.4063,433.8281 1900.7813,433.4844 L1900.7813,435.0938 Z " fill="#000000"/><text fill="#000000" font-family="sans-serif" font-size="10" lengthAdjust="spacing" textLength="88.3545" x="1911.5" y="435.2588">CommandService</text><line style="stroke:#181818;stroke-width:0.5;" x1="1887.5" x2="2001.8545" y1="445.7969" y2="445.7969"/><line style="stroke:#181818;stroke-width:0.5;" x1="1887.5" x2="2001.8545" y1="453.7969" y2="453.7969"/></g><!--class CommandPersistenceService--><g class="entity" data-qualified-name="NOTIP Management API.CommandModule.CommandPersistenceService" data-source-line="32" id="ent0021"><rect fill="#F1F1F1" height="44" rx="2.5" ry="2.5" style="stroke:#181818;stroke-width:0.5;" width="173.9082" x="1630.5" y="521.7969"/><ellipse cx="1643.5" cy="535.7969" fill="#ADD1B2" rx="9" ry="9" style="stroke:#181818;stroke-width:1;"/><path d="M1644.7813,539.0938 Q1644.4375,539.2656 1644.0625,539.3438 Q1643.6875,539.4375 1643.2656,539.4375 Q1641.7969,539.4375 1641.0156,538.4688 Q1640.25,537.5 1640.25,535.6563 Q1640.25,533.8125 1641.0156,532.8438 Q1641.7969,531.875 1643.2656,531.875 Q1643.6875,531.875 1644.0625,531.9688 Q1644.4531,532.0469 1644.7813,532.2188 L1644.7813,533.8281 Q1644.4063,533.4844 1644.0469,533.3281 Q1643.7031,533.1719 1643.3438,533.1719 Q1642.5469,533.1719 1642.1406,533.7969 Q1641.7344,534.4219 1641.7344,535.6563 Q1641.7344,536.8906 1642.1406,537.5156 Q1642.5469,538.1406 1643.3438,538.1406 Q1643.7031,538.1406 1644.0469,537.9844 Q1644.4063,537.8281 1644.7813,537.4844 L1644.7813,539.0938 Z " fill="#000000"/><text fill="#000000" font-family="sans-serif" font-size="10" lengthAdjust="spacing" textLength="145.9082" x="1655.5" y="539.2588">CommandPersistenceService</text><line style="stroke:#181818;stroke-width:0.5;" x1="1631.5" x2="1803.4082" y1="549.7969" y2="549.7969"/><line style="stroke:#181818;stroke-width:0.5;" x1="1631.5" x2="1803.4082" y1="557.7969" y2="557.7969"/></g><!--class CommandWritingPersistenceService--><g class="entity" data-qualified-name="NOTIP Management API.CommandModule.CommandWritingPersistenceService" data-source-line="33" id="ent0022"><rect fill="#F1F1F1" height="44" rx="2.5" ry="2.5" style="stroke:#181818;stroke-width:0.5;" width="210.0703" x="1839.5" y="521.7969"/><ellipse cx="1852.5" cy="535.7969" fill="#ADD1B2" rx="9" ry="9" style="stroke:#181818;stroke-width:1;"/><path d="M1853.7813,539.0938 Q1853.4375,539.2656 1853.0625,539.3438 Q1852.6875,539.4375 1852.2656,539.4375 Q1850.7969,539.4375 1850.0156,538.4688 Q1849.25,537.5 1849.25,535.6563 Q1849.25,533.8125 1850.0156,532.8438 Q1850.7969,531.875 1852.2656,531.875 Q1852.6875,531.875 1853.0625,531.9688 Q1853.4531,532.0469 1853.7813,532.2188 L1853.7813,533.8281 Q1853.4063,533.4844 1853.0469,533.3281 Q1852.7031,533.1719 1852.3438,533.1719 Q1851.5469,533.1719 1851.1406,533.7969 Q1850.7344,534.4219 1850.7344,535.6563 Q1850.7344,536.8906 1851.1406,537.5156 Q1851.5469,538.1406 1852.3438,538.1406 Q1852.7031,538.1406 1853.0469,537.9844 Q1853.4063,537.8281 1853.7813,537.4844 L1853.7813,539.0938 Z " fill="#000000"/><text fill="#000000" font-family="sans-serif" font-size="10" lengthAdjust="spacing" textLength="182.0703" x="1864.5" y="539.2588">CommandWritingPersistenceService</text><line style="stroke:#181818;stroke-width:0.5;" x1="1840.5" x2="2048.5703" y1="549.7969" y2="549.7969"/><line style="stroke:#181818;stroke-width:0.5;" x1="1840.5" x2="2048.5703" y1="557.7969" y2="557.7969"/></g><!--class CommandsAckConsumer--><g class="entity" data-qualified-name="NOTIP Management API.CommandModule.CommandsAckConsumer" data-source-line="34" id="ent0023"><rect fill="#F1F1F1" height="44" rx="2.5" ry="2.5" style="stroke:#181818;stroke-width:0.5;" width="153.7275" x="2084.5" y="521.7969"/><ellipse cx="2097.5" cy="535.7969" fill="#ADD1B2" rx="9" ry="9" style="stroke:#181818;stroke-width:1;"/><path d="M2098.7813,539.0938 Q2098.4375,539.2656 2098.0625,539.3438 Q2097.6875,539.4375 2097.2656,539.4375 Q2095.7969,539.4375 2095.0156,538.4688 Q2094.25,537.5 2094.25,535.6563 Q2094.25,533.8125 2095.0156,532.8438 Q2095.7969,531.875 2097.2656,531.875 Q2097.6875,531.875 2098.0625,531.9688 Q2098.4531,532.0469 2098.7813,532.2188 L2098.7813,533.8281 Q2098.4063,533.4844 2098.0469,533.3281 Q2097.7031,533.1719 2097.3438,533.1719 Q2096.5469,533.1719 2096.1406,533.7969 Q2095.7344,534.4219 2095.7344,535.6563 Q2095.7344,536.8906 2096.1406,537.5156 Q2096.5469,538.1406 2097.3438,538.1406 Q2097.7031,538.1406 2098.0469,537.9844 Q2098.4063,537.8281 2098.7813,537.4844 L2098.7813,539.0938 Z " fill="#000000"/><text fill="#000000" font-family="sans-serif" font-size="10" lengthAdjust="spacing" textLength="125.7275" x="2109.5" y="539.2588">CommandsAckConsumer</text><line style="stroke:#181818;stroke-width:0.5;" x1="2085.5" x2="2237.2275" y1="549.7969" y2="549.7969"/><line style="stroke:#181818;stroke-width:0.5;" x1="2085.5" x2="2237.2275" y1="557.7969" y2="557.7969"/></g><!--class CommandEntity--><g class="entity" data-qualified-name="NOTIP Management API.CommandModule.CommandEntity" data-source-line="35" id="ent0024"><rect fill="#F1F1F1" height="44" rx="2.5" ry="2.5" style="stroke:#181818;stroke-width:0.5;" width="108.5908" x="1647" y="625.7969"/><ellipse cx="1660" cy="639.7969" fill="#ADD1B2" rx="9" ry="9" style="stroke:#181818;stroke-width:1;"/><path d="M1661.2813,643.0938 Q1660.9375,643.2656 1660.5625,643.3438 Q1660.1875,643.4375 1659.7656,643.4375 Q1658.2969,643.4375 1657.5156,642.4688 Q1656.75,641.5 1656.75,639.6563 Q1656.75,637.8125 1657.5156,636.8438 Q1658.2969,635.875 1659.7656,635.875 Q1660.1875,635.875 1660.5625,635.9688 Q1660.9531,636.0469 1661.2813,636.2188 L1661.2813,637.8281 Q1660.9063,637.4844 1660.5469,637.3281 Q1660.2031,637.1719 1659.8438,637.1719 Q1659.0469,637.1719 1658.6406,637.7969 Q1658.2344,638.4219 1658.2344,639.6563 Q1658.2344,640.8906 1658.6406,641.5156 Q1659.0469,642.1406 1659.8438,642.1406 Q1660.2031,642.1406 1660.5469,641.9844 Q1660.9063,641.8281 1661.2813,641.4844 L1661.2813,643.0938 Z " fill="#000000"/><text fill="#000000" font-family="sans-serif" font-size="10" lengthAdjust="spacing" textLength="80.5908" x="1672" y="643.2588">CommandEntity</text><line style="stroke:#181818;stroke-width:0.5;" x1="1648" x2="1754.5908" y1="653.7969" y2="653.7969"/><line style="stroke:#181818;stroke-width:0.5;" x1="1648" x2="1754.5908" y1="661.7969" y2="661.7969"/></g><!--class CostsController--><g class="entity" data-qualified-name="NOTIP Management API.CostsModule.CostsController" data-source-line="39" id="ent0026"><rect fill="#F1F1F1" height="44" rx="2.5" ry="2.5" style="stroke:#181818;stroke-width:0.5;" width="104.8506" x="961" y="188.2969"/><ellipse cx="974" cy="202.2969" fill="#ADD1B2" rx="9" ry="9" style="stroke:#181818;stroke-width:1;"/><path d="M975.2813,205.5938 Q974.9375,205.7656 974.5625,205.8438 Q974.1875,205.9375 973.7656,205.9375 Q972.2969,205.9375 971.5156,204.9688 Q970.75,204 970.75,202.1563 Q970.75,200.3125 971.5156,199.3438 Q972.2969,198.375 973.7656,198.375 Q974.1875,198.375 974.5625,198.4688 Q974.9531,198.5469 975.2813,198.7188 L975.2813,200.3281 Q974.9063,199.9844 974.5469,199.8281 Q974.2031,199.6719 973.8438,199.6719 Q973.0469,199.6719 972.6406,200.2969 Q972.2344,200.9219 972.2344,202.1563 Q972.2344,203.3906 972.6406,204.0156 Q973.0469,204.6406 973.8438,204.6406 Q974.2031,204.6406 974.5469,204.4844 Q974.9063,204.3281 975.2813,203.9844 L975.2813,205.5938 Z " fill="#000000"/><text fill="#000000" font-family="sans-serif" font-size="10" lengthAdjust="spacing" textLength="76.8506" x="986" y="205.7588">CostsController</text><line style="stroke:#181818;stroke-width:0.5;" x1="962" x2="1064.8506" y1="216.2969" y2="216.2969"/><line style="stroke:#181818;stroke-width:0.5;" x1="962" x2="1064.8506" y1="224.2969" y2="224.2969"/></g><!--class CostsService--><g class="entity" data-qualified-name="NOTIP Management API.CostsModule.CostsService" data-source-line="40" id="ent0027"><rect fill="#F1F1F1" height="44" rx="2.5" ry="2.5" style="stroke:#181818;stroke-width:0.5;" width="92.3994" x="967.5" y="305.2969"/><ellipse cx="980.5" cy="319.2969" fill="#ADD1B2" rx="9" ry="9" style="stroke:#181818;stroke-width:1;"/><path d="M981.7813,322.5938 Q981.4375,322.7656 981.0625,322.8438 Q980.6875,322.9375 980.2656,322.9375 Q978.7969,322.9375 978.0156,321.9688 Q977.25,321 977.25,319.1563 Q977.25,317.3125 978.0156,316.3438 Q978.7969,315.375 980.2656,315.375 Q980.6875,315.375 981.0625,315.4688 Q981.4531,315.5469 981.7813,315.7188 L981.7813,317.3281 Q981.4063,316.9844 981.0469,316.8281 Q980.7031,316.6719 980.3438,316.6719 Q979.5469,316.6719 979.1406,317.2969 Q978.7344,317.9219 978.7344,319.1563 Q978.7344,320.3906 979.1406,321.0156 Q979.5469,321.6406 980.3438,321.6406 Q980.7031,321.6406 981.0469,321.4844 Q981.4063,321.3281 981.7813,320.9844 L981.7813,322.5938 Z " fill="#000000"/><text fill="#000000" font-family="sans-serif" font-size="10" lengthAdjust="spacing" textLength="64.3994" x="992.5" y="322.7588">CostsService</text><line style="stroke:#181818;stroke-width:0.5;" x1="968.5" x2="1058.8994" y1="333.2969" y2="333.2969"/><line style="stroke:#181818;stroke-width:0.5;" x1="968.5" x2="1058.8994" y1="341.2969" y2="341.2969"/></g><!--class CostsPersistenceService--><g class="entity" data-qualified-name="NOTIP Management API.CostsModule.CostsPersistenceService" data-source-line="41" id="ent0028"><rect fill="#F1F1F1" height="44" rx="2.5" ry="2.5" style="stroke:#181818;stroke-width:0.5;" width="149.9531" x="938.5" y="417.7969"/><ellipse cx="951.5" cy="431.7969" fill="#ADD1B2" rx="9" ry="9" style="stroke:#181818;stroke-width:1;"/><path d="M952.7813,435.0938 Q952.4375,435.2656 952.0625,435.3438 Q951.6875,435.4375 951.2656,435.4375 Q949.7969,435.4375 949.0156,434.4688 Q948.25,433.5 948.25,431.6563 Q948.25,429.8125 949.0156,428.8438 Q949.7969,427.875 951.2656,427.875 Q951.6875,427.875 952.0625,427.9688 Q952.4531,428.0469 952.7813,428.2188 L952.7813,429.8281 Q952.4063,429.4844 952.0469,429.3281 Q951.7031,429.1719 951.3438,429.1719 Q950.5469,429.1719 950.1406,429.7969 Q949.7344,430.4219 949.7344,431.6563 Q949.7344,432.8906 950.1406,433.5156 Q950.5469,434.1406 951.3438,434.1406 Q951.7031,434.1406 952.0469,433.9844 Q952.4063,433.8281 952.7813,433.4844 L952.7813,435.0938 Z " fill="#000000"/><text fill="#000000" font-family="sans-serif" font-size="10" lengthAdjust="spacing" textLength="121.9531" x="963.5" y="435.2588">CostsPersistenceService</text><line style="stroke:#181818;stroke-width:0.5;" x1="939.5" x2="1087.4531" y1="445.7969" y2="445.7969"/><line style="stroke:#181818;stroke-width:0.5;" x1="939.5" x2="1087.4531" y1="453.7969" y2="453.7969"/></g><g class="entity" data-qualified-name="GMN55" data-source-line="79" id="ent0056"><path d="M6,298.7969 L6,355.3594 L198.7188,355.3594 L198.7188,308.7969 L188.7188,298.7969 L6,298.7969" fill="#FEFFDD" style="stroke:#181818;stroke-width:0.5;"/><path d="M188.7188,298.7969 L188.7188,308.7969 L198.7188,308.7969 L188.7188,298.7969" fill="#FEFFDD" style="stroke:#181818;stroke-width:1;"/><text fill="#000000" font-family="sans-serif" font-size="10" lengthAdjust="spacing" textLength="132.7051" x="12" y="313.0791">Gateway CRUD operations</text><text fill="#000000" font-family="sans-serif" font-size="10" lengthAdjust="spacing" textLength="119.7461" x="12" y="324.7197">Runtime status updates</text><text fill="#000000" font-family="sans-serif" font-size="10" lengthAdjust="spacing" textLength="153.8428" x="12" y="336.3604">NATS integration for telemetry</text><text fill="#000000" font-family="sans-serif" font-size="10" lengthAdjust="spacing" textLength="171.7188" x="12" y="348.001">Gateway decommissioning events</text></g><g class="entity" data-qualified-name="GMN58" data-source-line="86" id="ent0059"><path d="M2311,181.7969 L2311,238.3594 L2504.0605,238.3594 L2504.0605,191.7969 L2494.0605,181.7969 L2311,181.7969" fill="#FEFFDD" style="stroke:#181818;stroke-width:0.5;"/><path d="M2494.0605,181.7969 L2494.0605,191.7969 L2504.0605,191.7969 L2494.0605,181.7969" fill="#FEFFDD" style="stroke:#181818;stroke-width:1;"/><text fill="#000000" font-family="sans-serif" font-size="10" lengthAdjust="spacing" textLength="163.4814" x="2317" y="196.0791">Alert configuration management</text><text fill="#000000" font-family="sans-serif" font-size="10" lengthAdjust="spacing" textLength="128.9648" x="2317" y="207.7197">Gateway offline detection</text><text fill="#000000" font-family="sans-serif" font-size="10" lengthAdjust="spacing" textLength="172.0605" x="2317" y="219.3604">Default and per-gateway timeouts</text><text fill="#000000" font-family="sans-serif" font-size="10" lengthAdjust="spacing" textLength="153.0225" x="2317" y="231.001">NATS request-reply for configs</text></g><g class="entity" data-qualified-name="GMN61" data-source-line="93" id="ent0062"><path d="M2539,181.7969 L2539,238.3594 L2721.5234,238.3594 L2721.5234,191.7969 L2711.5234,181.7969 L2539,181.7969" fill="#FEFFDD" style="stroke:#181818;stroke-width:0.5;"/><path d="M2711.5234,181.7969 L2711.5234,191.7969 L2721.5234,191.7969 L2711.5234,181.7969" fill="#FEFFDD" style="stroke:#181818;stroke-width:1;"/><text fill="#000000" font-family="sans-serif" font-size="10" lengthAdjust="spacing" textLength="161.5234" x="2545" y="196.0791">Command dispatch to gateways</text><text fill="#000000" font-family="sans-serif" font-size="10" lengthAdjust="spacing" textLength="90.5762" x="2545" y="207.7197">Firmware updates</text><text fill="#000000" font-family="sans-serif" font-size="10" lengthAdjust="spacing" textLength="113.0078" x="2545" y="219.3604">Configuration changes</text><text fill="#000000" font-family="sans-serif" font-size="10" lengthAdjust="spacing" textLength="146.5479" x="2545" y="231.001">NATS JetStream ack handling</text></g><g class="entity" data-qualified-name="GMN64" data-source-line="100" id="ent0065"><path d="M804,43.2969 L804,88.2188 L1025.1123,88.2188 L1025.1123,53.2969 L1015.1123,43.2969 L804,43.2969" fill="#FEFFDD" style="stroke:#181818;stroke-width:0.5;"/><path d="M1015.1123,43.2969 L1015.1123,53.2969 L1025.1123,53.2969 L1015.1123,43.2969" fill="#FEFFDD" style="stroke:#181818;stroke-width:1;"/><text fill="#000000" font-family="sans-serif" font-size="10" lengthAdjust="spacing" textLength="200.1123" x="810" y="57.5791">Calculates storage and bandwidth costs</text><text fill="#000000" font-family="sans-serif" font-size="10" lengthAdjust="spacing" textLength="189.5947" x="810" y="69.2197">Integrates with Alerts and Commands</text><text fill="#000000" font-family="sans-serif" font-size="10" lengthAdjust="spacing" textLength="133.1934" x="810" y="80.8604">Used for tenant billing info</text></g><!--link GatewaysController to GatewaysService--><g class="link" data-entity-1="ent0004" data-entity-2="ent0005" data-link-type="dependency" data-source-line="45" id="lnk29"><path codeLine="45" d="M769.75,461.8569 C769.75,479.4969 769.75,498.1369 769.75,515.7769" fill="none" id="GatewaysController-to-GatewaysService" style="stroke:#181818;stroke-width:1;"/><polygon fill="#181818" points="769.75,521.7769,773.75,512.7769,769.75,516.7769,765.75,512.7769,769.75,521.7769" style="stroke:#181818;stroke-width:1;"/></g><!--link GatewaysService to GatewaysPersistenceService--><g class="link" data-entity-1="ent0005" data-entity-2="ent0006" data-link-type="dependency" data-source-line="46" id="lnk30"><path codeLine="46" d="M767.5,565.8569 C767.5,583.4969 767.5,602.1369 767.5,619.7769" fill="none" id="GatewaysService-to-GatewaysPersistenceService" style="stroke:#181818;stroke-width:1;"/><polygon fill="#181818" points="767.5,625.7769,771.5,616.7769,767.5,620.7769,763.5,616.7769,767.5,625.7769" style="stroke:#181818;stroke-width:1;"/></g><!--link GatewaysPersistenceService to GatewayEntity--><g class="link" data-entity-1="ent0006" data-entity-2="ent0009" data-link-type="dependency" data-source-line="47" id="lnk31"><path codeLine="47" d="M791.5,669.8569 C791.5,687.4969 791.5,706.1369 791.5,723.7769" fill="none" id="GatewaysPersistenceService-to-GatewayEntity" style="stroke:#181818;stroke-width:1;"/><polygon fill="#181818" points="791.5,729.7769,795.5,720.7769,791.5,724.7769,787.5,720.7769,791.5,729.7769" style="stroke:#181818;stroke-width:1;"/></g><!--link GatewaysPersistenceService to GatewayMetadataEntity--><g class="link" data-entity-1="ent0006" data-entity-2="ent0010" data-link-type="dependency" data-source-line="48" id="lnk32"><path codeLine="48" d="M705.75,670.0569 C705.75,710.0869 705.75,787.7769 705.75,827.6969" fill="none" id="GatewaysPersistenceService-to-GatewayMetadataEntity" style="stroke:#181818;stroke-width:1;"/><polygon fill="#181818" points="705.75,833.6969,709.75,824.6969,705.75,828.6969,701.75,824.6969,705.75,833.6969" style="stroke:#181818;stroke-width:1;"/></g><!--link GatewayEntity to TenantEntity--><g class="link" data-entity-1="ent0009" data-entity-2="ent0033" data-link-type="dependency" data-source-line="49" id="lnk34"><path codeLine="49" d="M826.5,773.8569 C826.5,804.3769 826.5,855.7969 826.5,855.7969 C826.5,855.7969 1190.81,855.7969 1323.17,855.7969" fill="none" id="GatewayEntity-to-TenantEntity" style="stroke:#181818;stroke-width:1;"/><polygon fill="#181818" points="1329.17,855.7969,1320.17,851.7969,1324.17,855.7969,1320.17,859.7969,1329.17,855.7969" style="stroke:#181818;stroke-width:1;"/></g><!--link GatewayEntity to GatewayMetadataEntity--><g class="link" data-entity-1="ent0009" data-entity-2="ent0010" data-link-type="dependency" data-source-line="50" id="lnk35"><path codeLine="50" d="M776,773.8569 C776,791.4969 776,810.1369 776,827.7769" fill="none" id="GatewayEntity-to-GatewayMetadataEntity" style="stroke:#181818;stroke-width:1;"/><polygon fill="#181818" points="776,833.7769,780,824.7769,776,828.7769,772,824.7769,776,833.7769" style="stroke:#181818;stroke-width:1;"/></g><!--link AlertsController to AlertsService--><g class="link" data-entity-1="ent0012" data-entity-2="ent0013" data-link-type="dependency" data-source-line="53" id="lnk36"><path codeLine="53" d="M1439,349.5269 C1439,369.2469 1439,391.9069 1439,411.6169" fill="none" id="AlertsController-to-AlertsService" style="stroke:#181818;stroke-width:1;"/><polygon fill="#181818" points="1439,417.6169,1443,408.6169,1439,412.6169,1435,408.6169,1439,417.6169" style="stroke:#181818;stroke-width:1;"/></g><!--link AlertsService to AlertsPersistenceService--><g class="link" data-entity-1="ent0013" data-entity-2="ent0014" data-link-type="dependency" data-source-line="54" id="lnk37"><path codeLine="54" d="M1377.5,461.8569 C1377.5,479.4969 1377.5,498.1369 1377.5,515.7769" fill="none" id="AlertsService-to-AlertsPersistenceService" style="stroke:#181818;stroke-width:1;"/><polygon fill="#181818" points="1377.5,521.7769,1381.5,512.7769,1377.5,516.7769,1373.5,512.7769,1377.5,521.7769" style="stroke:#181818;stroke-width:1;"/></g><!--link AlertsPersistenceService to AlertsEntity--><g class="link" data-entity-1="ent0014" data-entity-2="ent0016" data-link-type="dependency" data-source-line="55" id="lnk38"><path codeLine="55" d="M1264.5,565.8569 C1264.5,583.4969 1264.5,602.1369 1264.5,619.7769" fill="none" id="AlertsPersistenceService-to-AlertsEntity" style="stroke:#181818;stroke-width:1;"/><polygon fill="#181818" points="1264.5,625.7769,1268.5,616.7769,1264.5,620.7769,1260.5,616.7769,1264.5,625.7769" style="stroke:#181818;stroke-width:1;"/></g><!--link AlertsPersistenceService to AlertsConfigEntity--><g class="link" data-entity-1="ent0014" data-entity-2="ent0017" data-link-type="dependency" data-source-line="56" id="lnk39"><path codeLine="56" d="M1358,565.8569 C1358,583.4969 1358,602.1369 1358,619.7769" fill="none" id="AlertsPersistenceService-to-AlertsConfigEntity" style="stroke:#181818;stroke-width:1;"/><polygon fill="#181818" points="1358,625.7769,1362,616.7769,1358,620.7769,1354,616.7769,1358,625.7769" style="stroke:#181818;stroke-width:1;"/></g><!--link AlertsConfigEntity to TenantEntity--><g class="link" data-entity-1="ent0017" data-entity-2="ent0033" data-link-type="dependency" data-source-line="57" id="lnk40"><path codeLine="57" d="M1375.5,670.0569 C1375.5,710.0869 1375.5,787.7769 1375.5,827.6969" fill="none" id="AlertsConfigEntity-to-TenantEntity" style="stroke:#181818;stroke-width:1;"/><polygon fill="#181818" points="1375.5,833.6969,1379.5,824.6969,1375.5,828.6969,1371.5,824.6969,1375.5,833.6969" style="stroke:#181818;stroke-width:1;"/></g><!--link AlertsConfigEntity to GatewayEntity--><g class="link" data-entity-1="ent0017" data-entity-2="ent0009" data-link-type="dependency" data-source-line="58" id="lnk41"><path codeLine="58" d="M1323,669.8369 C1323,697.3369 1323,740.7969 1323,740.7969 C1323,740.7969 981.49,740.7969 848.46,740.7969" fill="none" id="AlertsConfigEntity-to-GatewayEntity" style="stroke:#181818;stroke-width:1;"/><polygon fill="#181818" points="842.46,740.7969,851.46,744.7969,847.46,740.7969,851.46,736.7969,842.46,740.7969" style="stroke:#181818;stroke-width:1;"/></g><!--link CommandController to CommandService--><g class="link" data-entity-1="ent0019" data-entity-2="ent0020" data-link-type="dependency" data-source-line="61" id="lnk42"><path codeLine="61" d="M1944.5,349.5269 C1944.5,369.2469 1944.5,391.9069 1944.5,411.6169" fill="none" id="CommandController-to-CommandService" style="stroke:#181818;stroke-width:1;"/><polygon fill="#181818" points="1944.5,417.6169,1948.5,408.6169,1944.5,412.6169,1940.5,408.6169,1944.5,417.6169" style="stroke:#181818;stroke-width:1;"/></g><!--link CommandService to CommandPersistenceService--><g class="link" data-entity-1="ent0020" data-entity-2="ent0021" data-link-type="dependency" data-source-line="62" id="lnk43"><path codeLine="62" d="M1886.43,439.7969 C1828.01,439.7969 1746.5,439.7969 1746.5,439.7969 C1746.5,439.7969 1746.5,485.2169 1746.5,515.7369" fill="none" id="CommandService-to-CommandPersistenceService" style="stroke:#181818;stroke-width:1;"/><polygon fill="#181818" points="1746.5,521.7369,1750.5,512.7369,1746.5,516.7369,1742.5,512.7369,1746.5,521.7369" style="stroke:#181818;stroke-width:1;"/></g><!--link CommandService to CommandWritingPersistenceService--><g class="link" data-entity-1="ent0020" data-entity-2="ent0022" data-link-type="dependency" data-source-line="63" id="lnk44"><path codeLine="63" d="M1944.5,461.8569 C1944.5,479.4969 1944.5,498.1369 1944.5,515.7769" fill="none" id="CommandService-to-CommandWritingPersistenceService" style="stroke:#181818;stroke-width:1;"/><polygon fill="#181818" points="1944.5,521.7769,1948.5,512.7769,1944.5,516.7769,1940.5,512.7769,1944.5,521.7769" style="stroke:#181818;stroke-width:1;"/></g><!--link CommandService to CommandsAckConsumer--><g class="link" data-entity-1="ent0020" data-entity-2="ent0023" data-link-type="dependency" data-source-line="64" id="lnk45"><path codeLine="64" d="M2002.65,439.7969 C2066.93,439.7969 2161.5,439.7969 2161.5,439.7969 C2161.5,439.7969 2161.5,485.2169 2161.5,515.7369" fill="none" id="CommandService-to-CommandsAckConsumer" style="stroke:#181818;stroke-width:1;"/><polygon fill="#181818" points="2161.5,521.7369,2165.5,512.7369,2161.5,516.7369,2157.5,512.7369,2161.5,521.7369" style="stroke:#181818;stroke-width:1;"/></g><!--link CommandPersistenceService to CommandEntity--><g class="link" data-entity-1="ent0021" data-entity-2="ent0024" data-link-type="dependency" data-source-line="65" id="lnk46"><path codeLine="65" d="M1701.5,565.8569 C1701.5,583.4969 1701.5,602.1369 1701.5,619.7769" fill="none" id="CommandPersistenceService-to-CommandEntity" style="stroke:#181818;stroke-width:1;"/><polygon fill="#181818" points="1701.5,625.7769,1705.5,616.7769,1701.5,620.7769,1697.5,616.7769,1701.5,625.7769" style="stroke:#181818;stroke-width:1;"/></g><!--link CommandWritingPersistenceService to CommandEntity--><g class="link" data-entity-1="ent0022" data-entity-2="ent0024" data-link-type="dependency" data-source-line="66" id="lnk47"><path codeLine="66" d="M1909.5,565.8569 C1909.5,596.3769 1909.5,647.7969 1909.5,647.7969 C1909.5,647.7969 1823.78,647.7969 1762.15,647.7969" fill="none" id="CommandWritingPersistenceService-to-CommandEntity" style="stroke:#181818;stroke-width:1;"/><polygon fill="#181818" points="1756.15,647.7969,1765.15,651.7969,1761.15,647.7969,1765.15,643.7969,1756.15,647.7969" style="stroke:#181818;stroke-width:1;"/></g><!--link CommandWritingPersistenceService to GatewayEntity--><g class="link" data-entity-1="ent0022" data-entity-2="ent0009" data-link-type="dependency" data-source-line="67" id="lnk48"><path codeLine="67" d="M1979.5,565.9969 C1979.5,621.6769 1979.5,762.7969 1979.5,762.7969 C1979.5,762.7969 1074.92,762.7969 848.17,762.7969" fill="none" id="CommandWritingPersistenceService-to-GatewayEntity" style="stroke:#181818;stroke-width:1;"/><polygon fill="#181818" points="842.17,762.7969,851.17,766.7969,847.17,762.7969,851.17,758.7969,842.17,762.7969" style="stroke:#181818;stroke-width:1;"/></g><!--link CommandEntity to GatewayEntity--><g class="link" data-entity-1="ent0024" data-entity-2="ent0009" data-link-type="dependency" data-source-line="68" id="lnk49"><path codeLine="68" d="M1683.33,669.8569 C1683.33,700.3769 1683.33,751.7969 1683.33,751.7969 C1683.33,751.7969 1036.67,751.7969 848,751.7969" fill="none" id="CommandEntity-to-GatewayEntity" style="stroke:#181818;stroke-width:1;"/><polygon fill="#181818" points="842,751.7969,851,755.7969,847,751.7969,851,747.7969,842,751.7969" style="stroke:#181818;stroke-width:1;"/></g><!--link CommandEntity to TenantEntity--><g class="link" data-entity-1="ent0024" data-entity-2="ent0033" data-link-type="dependency" data-source-line="69" id="lnk50"><path codeLine="69" d="M1719.67,670.0569 C1719.67,723.7169 1719.67,855.7969 1719.67,855.7969 C1719.67,855.7969 1521.34,855.7969 1427.56,855.7969" fill="none" id="CommandEntity-to-TenantEntity" style="stroke:#181818;stroke-width:1;"/><polygon fill="#181818" points="1421.56,855.7969,1430.56,859.7969,1426.56,855.7969,1430.56,851.7969,1421.56,855.7969" style="stroke:#181818;stroke-width:1;"/></g><!--link CostsController to CostsService--><g class="link" data-entity-1="ent0026" data-entity-2="ent0027" data-link-type="dependency" data-source-line="72" id="lnk51"><path codeLine="72" d="M1013.5,232.3069 C1013.5,253.0869 1013.5,278.1069 1013.5,298.9869" fill="none" id="CostsController-to-CostsService" style="stroke:#181818;stroke-width:1;"/><polygon fill="#181818" points="1013.5,304.9869,1017.5,295.9869,1013.5,299.9869,1009.5,295.9869,1013.5,304.9869" style="stroke:#181818;stroke-width:1;"/></g><!--link CostsService to CostsPersistenceService--><g class="link" data-entity-1="ent0027" data-entity-2="ent0028" data-link-type="dependency" data-source-line="73" id="lnk52"><path codeLine="73" d="M1013.5,349.5269 C1013.5,369.2469 1013.5,391.9069 1013.5,411.6169" fill="none" id="CostsService-to-CostsPersistenceService" style="stroke:#181818;stroke-width:1;"/><polygon fill="#181818" points="1013.5,417.6169,1017.5,408.6169,1013.5,412.6169,1009.5,408.6169,1013.5,417.6169" style="stroke:#181818;stroke-width:1;"/></g><!--link CostsPersistenceService to AlertsPersistenceService--><g class="link" data-entity-1="ent0028" data-entity-2="ent0014" data-link-type="dependency" data-source-line="74" id="lnk53"><path codeLine="74" d="M1088.79,439.7969 C1174.12,439.7969 1301.5,439.7969 1301.5,439.7969 C1301.5,439.7969 1301.5,485.2169 1301.5,515.7369" fill="none" id="CostsPersistenceService-to-AlertsPersistenceService" style="stroke:#181818;stroke-width:1;stroke-dasharray:7,7;"/><polygon fill="#181818" points="1301.5,521.7369,1305.5,512.7369,1301.5,516.7369,1297.5,512.7369,1301.5,521.7369" style="stroke:#181818;stroke-width:1;"/></g><!--link CostsPersistenceService to CommandPersistenceService--><g class="link" data-entity-1="ent0028" data-entity-2="ent0021" data-link-type="dependency" data-source-line="75" id="lnk54"><path codeLine="75" d="M1013.5,461.8469 C1013.5,476.0269 1013.5,491.7969 1013.5,491.7969 C1013.5,491.7969 1688.5,491.7969 1688.5,491.7969 C1688.5,491.7969 1688.5,501.5669 1688.5,515.7469" fill="none" id="CostsPersistenceService-to-CommandPersistenceService" style="stroke:#181818;stroke-width:1;stroke-dasharray:7,7;"/><polygon fill="#181818" points="1688.5,521.7469,1692.5,512.7469,1688.5,516.7469,1684.5,512.7469,1688.5,521.7469" style="stroke:#181818;stroke-width:1;"/></g><!--link GMN55 to GatewaysModule--><g class="link" data-entity-1="ent0056" data-entity-2="ent0003" data-link-type="association" data-source-line="79" id="lnk57"><path d="M199.4,327.7969 C229.76,327.7969 255.5,327.7969 255.5,327.7969 C255.5,327.7969 255.5,334.1563 255.5,343.8442 C255.5,348.6882 255.5,354.3643 255.5,360.4938 C255.5,363.5585 255.5,366.7365 255.5,369.9805 C255.5,371.6025 255.5,373.241 255.5,374.8901 C255.5,375.7146 255.5,376.5418 255.5,377.3709 C255.5,377.7855 255.5,378.2005 255.5,378.6159 C255.5,378.8236 255.5,379.0314 255.5,379.2392" fill="none" id="GMN55-GatewaysModule" style="stroke:#181818;stroke-width:1;stroke-dasharray:7,7;"/></g><!--link GMN58 to AlertsModule--><g class="link" data-entity-1="ent0059" data-entity-2="ent0011" data-link-type="association" data-source-line="86" id="lnk60"><path d="M2310.95,210.7969 C2018.2,210.7969 1160.5,210.7969 1160.5,210.7969 C1160.5,210.7969 1160.5,237.2544 1160.5,264.9531 C1160.5,265.3859 1160.5,265.819 1160.5,266.2523 C1160.5,266.469 1160.5,266.6857 1160.5,266.9024" fill="none" id="GMN58-AlertsModule" style="stroke:#181818;stroke-width:1;stroke-dasharray:7,7;"/></g><!--link GMN61 to CommandModule--><g class="link" data-entity-1="ent0062" data-entity-2="ent0018" data-link-type="association" data-source-line="93" id="lnk63"><path d="M2630.5,238.8569 C2630.5,253.7069 2630.5,268.7969 2630.5,268.7969 C2630.5,268.7969 2566.5,268.7969 2470.5,268.7969 C2422.5,268.7969 2366.5,268.7969 2306.5,268.7969 C2299,268.7969 2291.4375,268.7969 2283.8203,268.7969 C2280.0117,268.7969 2276.1895,268.7969 2272.3545,268.7969 C2270.437,268.7969 2268.5164,268.7969 2266.5927,268.7969" fill="none" id="GMN61-CommandModule" style="stroke:#181818;stroke-width:1;stroke-dasharray:7,7;"/></g><!--link GMN64 to CostsModule--><g class="link" data-entity-1="ent0065" data-entity-2="ent0025" data-link-type="association" data-source-line="100" id="lnk66"><path d="M914.5,88.3769 C914.5,98.0594 914.5,110.05 914.5,122.6991 C914.5,129.0236 914.5,135.5127 914.5,141.9603 C914.5,143.5722 914.5,145.1814 914.5,146.7849 C914.5,147.5866 914.5,148.3869 914.5,149.1853 C914.5,149.3849 914.5,149.5844 914.5,149.7838" fill="none" id="GMN64-CostsModule" style="stroke:#181818;stroke-width:1;stroke-dasharray:7,7;"/></g><?plantuml-src dLTDRzim3BtdLn3TOTiXNRTTXm91kWuTqAveMkoisemZrBOyYMwG3VllesKdbYmfBPP3W3m-VZrQZ4oIIeIR7_TNjt0jQb5WXJN1ulOAvh3GsKOIPjHgX7UVFdn-FvkP9ratGeiA7aNsL6ZLrlbIbKh3cqlxSHWvhaLRqgMgQIL_8tmyYni7_pFxSIYbh95s3OBIj56EeU7KNEgATboyvW95NPGucmqudCGQEe4lN-xstFDp-3C3E3Xy4uHRiJDmhVAsn1CG1lPO3ra-G5OAOqR-ailNgYnHUouZ77DQeNwMcPzam6BqMzH66i8wmvXdQ8u5kH4KpUlW4RSL2MejvmvDe-eSTIH8cXK9-RKcIJlNlKSYr6iaaGiIeOjlOTU_CtUQ2nQUl5dsI6oIlMKonoaOEhWoU4X8JSmlPGm2S1bhMII7y08dhCUHqmMYed3GWEx2WVHBLLMYpbtj1oWc_c2Qg1-W4HTN0H-Aa1CJI5eZ8NvgIR8kZaTAaY81pI9xuWvDM_bTktZ4pPc6XqG6OVmZO87u44nm02POGFURDz6dt-99mKpYsRTTl3ti9rxlfI39WcnaOzWKhbYOpyyZUtI2UAnevhJHzJt8_JfwiAcyC9PvZxMewGWX7ihAD6owgKZJ_MN3JDUKzzjXHCL9cHo_GmUlu4vsI0Z6b4cm_C5OMVPRQAfBi5biW61_-83BYMgJfXzR26cloGf8fdPz3YAzbFd_dQO7m0loIeOtqM5K9l80J_RFKBItPzoVepqXTTG2fwT7d_bZRkddWHTOhGY1L0DgFRb5ZkSRbdSF5w0Qr7tZRBbhMPSAmTZx5BGDdtRi33UB-nN8ch3eoR3c-p9XoNTRqixEu4jrndL9OvZ4WmHyviklcI4VXQuclpBtJhG_NP3PqzKEUQh33Tf9ejRhxcREoRft0wQnxQA_pKDtwBYbUJ5mktvKIuScDFvgqT1SOrFkR1jzmbIDtjrXVA8WbwOHb6sO1qEkBiUbrDLMyDlAgDtIQoZRyFL_rFGxqeeqyYi5_sq2stBkh4ZMOXovbgBCsh9BmlDIkllFxGfxvA-jp6d3ZHdRzzKmDoPk9UF3okx8-_FEh0U3-J3MxeJ0eooxKdZgQpNMymy0?></g></svg>