<?plantuml 1.2026.2?><svg xmlns="http://www.w3.org/2000/svg" xmlns:xlink="http://www.w3.org/1999/xlink" contentStyleType="text/css" data-diagram-type="CLASS" height="762px" preserveAspectRatio="none" style="width:2512px;height:762px;background:#FFFFFF;" version="1.1" viewBox="0 0 2512 762" width="2512px" zoomAndPan="magnify"><title>NOTIP Management API - Architecture (2/3)</title><defs/><g><g class="title" data-source-line="1"><text fill="#000000" font-family="sans-serif" font-size="14" font-weight="bold" lengthAdjust="spacing" textLength="343.916" x="1077.3037" y="22.9951">NOTIP Management API - Architecture (2/3)</text></g><!--cluster NOTIP Management API--><g class="cluster" data-qualified-name="NOTIP Management API" data-source-line="11" id="ent0002"><rect fill="none" height="652.08" rx="2.5" ry="2.5" style="stroke:#181818;stroke-width:1;" width="1890" x="215.5" y="104.2969"/><text fill="#000000" font-family="sans-serif" font-size="10" font-weight="bold" lengthAdjust="spacing" textLength="134.1016" x="1093.4492" y="115.5791">NOTIP Management API</text></g><!--cluster GatewaysModule--><g class="cluster" data-qualified-name="NOTIP Management API.GatewaysModule" data-source-line="12" id="ent0003"><rect fill="none" height="424.36" rx="2.5" ry="2.5" style="stroke:#000000;stroke-width:1.5;" width="546" x="247.5" y="300.0169"/><text fill="#000000" font-family="sans-serif" font-size="10" font-weight="bold" lengthAdjust="spacing" textLength="99.7656" x="470.6172" y="311.2991">Gateways Module</text></g><!--cluster AlertsModule--><g class="cluster" data-qualified-name="NOTIP Management API.AlertsModule" data-source-line="22" id="ent0011"><rect fill="none" height="355.22" rx="2.5" ry="2.5" style="stroke:#000000;stroke-width:1.5;" width="360" x="1071.5" y="225.1569"/><text fill="#000000" font-family="sans-serif" font-size="10" font-weight="bold" lengthAdjust="spacing" textLength="78.4033" x="1212.2983" y="236.4391">Alerts Module</text></g><!--cluster CommandModule--><g class="cluster" data-qualified-name="NOTIP Management API.CommandModule" data-source-line="31" id="ent0018"><rect fill="none" height="355.22" rx="2.5" ry="2.5" style="stroke:#000000;stroke-width:1.5;" width="602" x="1471.5" y="225.1569"/><text fill="#000000" font-family="sans-serif" font-size="10" font-weight="bold" lengthAdjust="spacing" textLength="100.8643" x="1722.0679" y="236.4391">Command Module</text></g><!--cluster CostsModule--><g class="cluster" data-qualified-name="NOTIP Management API.CostsModule" data-source-line="40" id="ent0025"><rect fill="none" height="286.08" rx="2.5" ry="2.5" style="stroke:#000000;stroke-width:1.5;" width="198" x="833.5" y="150.2969"/><text fill="#000000" font-family="sans-serif" font-size="10" font-weight="bold" lengthAdjust="spacing" textLength="75.6836" x="894.6582" y="161.5791">Costs Module</text></g><!--class TenantEntity--><g class="entity" data-qualified-name="NOTIP Management API.TenantEntity" data-source-line="52" id="ent0034"><rect fill="#F1F1F1" height="44" rx="2.5" ry="2.5" style="stroke:#181818;stroke-width:0.5;" width="92.1797" x="1202.5" y="656.3769"/><ellipse cx="1215.5" cy="670.3769" fill="#ADD1B2" rx="9" ry="9" style="stroke:#181818;stroke-width:1;"/><path d="M1216.7813,673.6738 Q1216.4375,673.8456 1216.0625,673.9238 Q1215.6875,674.0175 1215.2656,674.0175 Q1213.7969,674.0175 1213.0156,673.0488 Q1212.25,672.08 1212.25,670.2363 Q1212.25,668.3925 1213.0156,667.4238 Q1213.7969,666.455 1215.2656,666.455 Q1215.6875,666.455 1216.0625,666.5488 Q1216.4531,666.6269 1216.7813,666.7988 L1216.7813,668.4081 Q1216.4063,668.0644 1216.0469,667.9081 Q1215.7031,667.7519 1215.3438,667.7519 Q1214.5469,667.7519 1214.1406,668.3769 Q1213.7344,669.0019 1213.7344,670.2363 Q1213.7344,671.4706 1214.1406,672.0956 Q1214.5469,672.7206 1215.3438,672.7206 Q1215.7031,672.7206 1216.0469,672.5644 Q1216.4063,672.4081 1216.7813,672.0644 L1216.7813,673.6738 Z " fill="#000000"/><text fill="#000000" font-family="sans-serif" font-size="10" lengthAdjust="spacing" textLength="64.1797" x="1227.5" y="673.8388">TenantEntity</text><line style="stroke:#181818;stroke-width:0.5;" x1="1203.5" x2="1293.6797" y1="684.3769" y2="684.3769"/><line style="stroke:#181818;stroke-width:0.5;" x1="1203.5" x2="1293.6797" y1="692.3769" y2="692.3769"/></g><!--class GatewaysController--><g class="entity" data-qualified-name="NOTIP Management API.GatewaysModule.GatewaysController" data-source-line="13" id="ent0004"><rect fill="#F1F1F1" height="44" rx="2.5" ry="2.5" style="stroke:#181818;stroke-width:0.5;" width="126.7939" x="642" y="368.3769"/><ellipse cx="655" cy="382.3769" fill="#ADD1B2" rx="9" ry="9" style="stroke:#181818;stroke-width:1;"/><path d="M656.2813,385.6738 Q655.9375,385.8456 655.5625,385.9238 Q655.1875,386.0175 654.7656,386.0175 Q653.2969,386.0175 652.5156,385.0488 Q651.75,384.08 651.75,382.2363 Q651.75,380.3925 652.5156,379.4238 Q653.2969,378.455 654.7656,378.455 Q655.1875,378.455 655.5625,378.5488 Q655.9531,378.6269 656.2813,378.7988 L656.2813,380.4081 Q655.9063,380.0644 655.5469,379.9081 Q655.2031,379.7519 654.8438,379.7519 Q654.0469,379.7519 653.6406,380.3769 Q653.2344,381.0019 653.2344,382.2363 Q653.2344,383.4706 653.6406,384.0956 Q654.0469,384.7206 654.8438,384.7206 Q655.2031,384.7206 655.5469,384.5644 Q655.9063,384.4081 656.2813,384.0644 L656.2813,385.6738 Z " fill="#000000"/><text fill="#000000" font-family="sans-serif" font-size="10" lengthAdjust="spacing" textLength="98.7939" x="667" y="385.8388">GatewaysController</text><line style="stroke:#181818;stroke-width:0.5;" x1="643" x2="767.7939" y1="396.3769" y2="396.3769"/><line style="stroke:#181818;stroke-width:0.5;" x1="643" x2="767.7939" y1="404.3769" y2="404.3769"/></g><!--class GatewaysService--><g class="entity" data-qualified-name="NOTIP Management API.GatewaysModule.GatewaysService" data-source-line="14" id="ent0005"><rect fill="#F1F1F1" height="44" rx="2.5" ry="2.5" style="stroke:#181818;stroke-width:0.5;" width="114.3428" x="637.5" y="460.3769"/><ellipse cx="650.5" cy="474.3769" fill="#ADD1B2" rx="9" ry="9" style="stroke:#181818;stroke-width:1;"/><path d="M651.7813,477.6738 Q651.4375,477.8456 651.0625,477.9238 Q650.6875,478.0175 650.2656,478.0175 Q648.7969,478.0175 648.0156,477.0488 Q647.25,476.08 647.25,474.2363 Q647.25,472.3925 648.0156,471.4238 Q648.7969,470.455 650.2656,470.455 Q650.6875,470.455 651.0625,470.5488 Q651.4531,470.6269 651.7813,470.7988 L651.7813,472.4081 Q651.4063,472.0644 651.0469,471.9081 Q650.7031,471.7519 650.3438,471.7519 Q649.5469,471.7519 649.1406,472.3769 Q648.7344,473.0019 648.7344,474.2363 Q648.7344,475.4706 649.1406,476.0956 Q649.5469,476.7206 650.3438,476.7206 Q650.7031,476.7206 651.0469,476.5644 Q651.4063,476.4081 651.7813,476.0644 L651.7813,477.6738 Z " fill="#000000"/><text fill="#000000" font-family="sans-serif" font-size="10" lengthAdjust="spacing" textLength="86.3428" x="662.5" y="477.8388">GatewaysService</text><line style="stroke:#181818;stroke-width:0.5;" x1="638.5" x2="750.8428" y1="488.3769" y2="488.3769"/><line style="stroke:#181818;stroke-width:0.5;" x1="638.5" x2="750.8428" y1="496.3769" y2="496.3769"/></g><!--class GatewaysPersistenceService--><g class="entity" data-qualified-name="NOTIP Management API.GatewaysModule.GatewaysPersistenceService" data-source-line="15" id="ent0006"><rect fill="#F1F1F1" height="44" rx="2.5" ry="2.5" style="stroke:#181818;stroke-width:0.5;" width="171.8965" x="597.5" y="512.3769"/><ellipse cx="610.5" cy="526.3769" fill="#ADD1B2" rx="9" ry="9" style="stroke:#181818;stroke-width:1;"/><path d="M611.7813,529.6738 Q611.4375,529.8456 611.0625,529.9238 Q610.6875,530.0175 610.2656,530.0175 Q608.7969,530.0175 608.0156,529.0488 Q607.25,528.08 607.25,526.2363 Q607.25,524.3925 608.0156,523.4238 Q608.7969,522.455 610.2656,522.455 Q610.6875,522.455 611.0625,522.5488 Q611.4531,522.6269 611.7813,522.7988 L611.7813,524.4081 Q611.4063,524.0644 611.0469,523.9081 Q610.7031,523.7519 610.3438,523.7519 Q609.5469,523.7519 609.1406,524.3769 Q608.7344,525.0019 608.7344,526.2363 Q608.7344,527.4706 609.1406,528.0956 Q609.5469,528.7206 610.3438,528.7206 Q610.7031,528.7206 611.0469,528.5644 Q611.4063,528.4081 611.7813,528.0644 L611.7813,529.6738 Z " fill="#000000"/><text fill="#000000" font-family="sans-serif" font-size="10" lengthAdjust="spacing" textLength="143.8965" x="622.5" y="529.8388">GatewaysPersistenceService</text><line style="stroke:#181818;stroke-width:0.5;" x1="598.5" x2="768.3965" y1="540.3769" y2="540.3769"/><line style="stroke:#181818;stroke-width:0.5;" x1="598.5" x2="768.3965" y1="548.3769" y2="548.3769"/></g><!--class GatewaysNatsService--><g class="entity" data-qualified-name="NOTIP Management API.GatewaysModule.GatewaysNatsService" data-source-line="16" id="ent0007"><rect fill="#F1F1F1" height="44" rx="2.5" ry="2.5" style="stroke:#181818;stroke-width:0.5;" width="137.082" x="497" y="368.3769"/><ellipse cx="510" cy="382.3769" fill="#ADD1B2" rx="9" ry="9" style="stroke:#181818;stroke-width:1;"/><path d="M511.2813,385.6738 Q510.9375,385.8456 510.5625,385.9238 Q510.1875,386.0175 509.7656,386.0175 Q508.2969,386.0175 507.5156,385.0488 Q506.75,384.08 506.75,382.2363 Q506.75,380.3925 507.5156,379.4238 Q508.2969,378.455 509.7656,378.455 Q510.1875,378.455 510.5625,378.5488 Q510.9531,378.6269 511.2813,378.7988 L511.2813,380.4081 Q510.9063,380.0644 510.5469,379.9081 Q510.2031,379.7519 509.8438,379.7519 Q509.0469,379.7519 508.6406,380.3769 Q508.2344,381.0019 508.2344,382.2363 Q508.2344,383.4706 508.6406,384.0956 Q509.0469,384.7206 509.8438,384.7206 Q510.2031,384.7206 510.5469,384.5644 Q510.9063,384.4081 511.2813,384.0644 L511.2813,385.6738 Z " fill="#000000"/><text fill="#000000" font-family="sans-serif" font-size="10" lengthAdjust="spacing" textLength="109.082" x="522" y="385.8388">GatewaysNatsService</text><line style="stroke:#181818;stroke-width:0.5;" x1="498" x2="633.082" y1="396.3769" y2="396.3769"/><line style="stroke:#181818;stroke-width:0.5;" x1="498" x2="633.082" y1="404.3769" y2="404.3769"/></g><!--class GatewayStatusNatsResponderService--><g class="entity" data-qualified-name="NOTIP Management API.GatewaysModule.GatewayStatusNatsResponderService" data-source-line="17" id="ent0008"><rect fill="#F1F1F1" height="44" rx="2.5" ry="2.5" style="stroke:#181818;stroke-width:0.5;" width="217.4629" x="272" y="368.3769"/><ellipse cx="285" cy="382.3769" fill="#ADD1B2" rx="9" ry="9" style="stroke:#181818;stroke-width:1;"/><path d="M286.2813,385.6738 Q285.9375,385.8456 285.5625,385.9238 Q285.1875,386.0175 284.7656,386.0175 Q283.2969,386.0175 282.5156,385.0488 Q281.75,384.08 281.75,382.2363 Q281.75,380.3925 282.5156,379.4238 Q283.2969,378.455 284.7656,378.455 Q285.1875,378.455 285.5625,378.5488 Q285.9531,378.6269 286.2813,378.7988 L286.2813,380.4081 Q285.9063,380.0644 285.5469,379.9081 Q285.2031,379.7519 284.8438,379.7519 Q284.0469,379.7519 283.6406,380.3769 Q283.2344,381.0019 283.2344,382.2363 Q283.2344,383.4706 283.6406,384.0956 Q284.0469,384.7206 284.8438,384.7206 Q285.2031,384.7206 285.5469,384.5644 Q285.9063,384.4081 286.2813,384.0644 L286.2813,385.6738 Z " fill="#000000"/><text fill="#000000" font-family="sans-serif" font-size="10" lengthAdjust="spacing" textLength="189.4629" x="297" y="385.8388">GatewayStatusNatsResponderService</text><line style="stroke:#181818;stroke-width:0.5;" x1="273" x2="488.4629" y1="396.3769" y2="396.3769"/><line style="stroke:#181818;stroke-width:0.5;" x1="273" x2="488.4629" y1="404.3769" y2="404.3769"/></g><!--class GatewayEntity--><g class="entity" data-qualified-name="NOTIP Management API.GatewaysModule.GatewayEntity" data-source-line="18" id="ent0009"><rect fill="#F1F1F1" height="44" rx="2.5" ry="2.5" style="stroke:#181818;stroke-width:0.5;" width="101.3691" x="668" y="604.3769"/><ellipse cx="681" cy="618.3769" fill="#ADD1B2" rx="9" ry="9" style="stroke:#181818;stroke-width:1;"/><path d="M682.2813,621.6738 Q681.9375,621.8456 681.5625,621.9238 Q681.1875,622.0175 680.7656,622.0175 Q679.2969,622.0175 678.5156,621.0488 Q677.75,620.08 677.75,618.2363 Q677.75,616.3925 678.5156,615.4238 Q679.2969,614.455 680.7656,614.455 Q681.1875,614.455 681.5625,614.5488 Q681.9531,614.6269 682.2813,614.7988 L682.2813,616.4081 Q681.9063,616.0644 681.5469,615.9081 Q681.2031,615.7519 680.8438,615.7519 Q680.0469,615.7519 679.6406,616.3769 Q679.2344,617.0019 679.2344,618.2363 Q679.2344,619.4706 679.6406,620.0956 Q680.0469,620.7206 680.8438,620.7206 Q681.2031,620.7206 681.5469,620.5644 Q681.9063,620.4081 682.2813,620.0644 L682.2813,621.6738 Z " fill="#000000"/><text fill="#000000" font-family="sans-serif" font-size="10" lengthAdjust="spacing" textLength="73.3691" x="693" y="621.8388">GatewayEntity</text><line style="stroke:#181818;stroke-width:0.5;" x1="669" x2="768.3691" y1="632.3769" y2="632.3769"/><line style="stroke:#181818;stroke-width:0.5;" x1="669" x2="768.3691" y1="640.3769" y2="640.3769"/></g><!--class GatewayMetadataEntity--><g class="entity" data-qualified-name="NOTIP Management API.GatewaysModule.GatewayMetadataEntity" data-source-line="19" id="ent0010"><rect fill="#F1F1F1" height="44" rx="2.5" ry="2.5" style="stroke:#181818;stroke-width:0.5;" width="148.7227" x="603" y="656.3769"/><ellipse cx="616" cy="670.3769" fill="#ADD1B2" rx="9" ry="9" style="stroke:#181818;stroke-width:1;"/><path d="M617.2813,673.6738 Q616.9375,673.8456 616.5625,673.9238 Q616.1875,674.0175 615.7656,674.0175 Q614.2969,674.0175 613.5156,673.0488 Q612.75,672.08 612.75,670.2363 Q612.75,668.3925 613.5156,667.4238 Q614.2969,666.455 615.7656,666.455 Q616.1875,666.455 616.5625,666.5488 Q616.9531,666.6269 617.2813,666.7988 L617.2813,668.4081 Q616.9063,668.0644 616.5469,667.9081 Q616.2031,667.7519 615.8438,667.7519 Q615.0469,667.7519 614.6406,668.3769 Q614.2344,669.0019 614.2344,670.2363 Q614.2344,671.4706 614.6406,672.0956 Q615.0469,672.7206 615.8438,672.7206 Q616.2031,672.7206 616.5469,672.5644 Q616.9063,672.4081 617.2813,672.0644 L617.2813,673.6738 Z " fill="#000000"/><text fill="#000000" font-family="sans-serif" font-size="10" lengthAdjust="spacing" textLength="120.7227" x="628" y="673.8388">GatewayMetadataEntity</text><line style="stroke:#181818;stroke-width:0.5;" x1="604" x2="750.7227" y1="684.3769" y2="684.3769"/><line style="stroke:#181818;stroke-width:0.5;" x1="604" x2="750.7227" y1="692.3769" y2="692.3769"/></g><!--class AlertsController--><g class="entity" data-qualified-name="NOTIP Management API.AlertsModule.AlertsController" data-source-line="23" id="ent0012"><rect fill="#F1F1F1" height="44" rx="2.5" ry="2.5" style="stroke:#181818;stroke-width:0.5;" width="106.4229" x="1301.5" y="300.3769"/><ellipse cx="1314.5" cy="314.3769" fill="#ADD1B2" rx="9" ry="9" style="stroke:#181818;stroke-width:1;"/><path d="M1315.7813,317.6738 Q1315.4375,317.8456 1315.0625,317.9238 Q1314.6875,318.0175 1314.2656,318.0175 Q1312.7969,318.0175 1312.0156,317.0488 Q1311.25,316.08 1311.25,314.2363 Q1311.25,312.3925 1312.0156,311.4238 Q1312.7969,310.455 1314.2656,310.455 Q1314.6875,310.455 1315.0625,310.5488 Q1315.4531,310.6269 1315.7813,310.7988 L1315.7813,312.4081 Q1315.4063,312.0644 1315.0469,311.9081 Q1314.7031,311.7519 1314.3438,311.7519 Q1313.5469,311.7519 1313.1406,312.3769 Q1312.7344,313.0019 1312.7344,314.2363 Q1312.7344,315.4706 1313.1406,316.0956 Q1313.5469,316.7206 1314.3438,316.7206 Q1314.7031,316.7206 1315.0469,316.5644 Q1315.4063,316.4081 1315.7813,316.0644 L1315.7813,317.6738 Z " fill="#000000"/><text fill="#000000" font-family="sans-serif" font-size="10" lengthAdjust="spacing" textLength="78.4229" x="1326.5" y="317.8388">AlertsController</text><line style="stroke:#181818;stroke-width:0.5;" x1="1302.5" x2="1406.9229" y1="328.3769" y2="328.3769"/><line style="stroke:#181818;stroke-width:0.5;" x1="1302.5" x2="1406.9229" y1="336.3769" y2="336.3769"/></g><!--class AlertsService--><g class="entity" data-qualified-name="NOTIP Management API.AlertsModule.AlertsService" data-source-line="24" id="ent0013"><rect fill="#F1F1F1" height="44" rx="2.5" ry="2.5" style="stroke:#181818;stroke-width:0.5;" width="93.9717" x="1234.5" y="368.3769"/><ellipse cx="1247.5" cy="382.3769" fill="#ADD1B2" rx="9" ry="9" style="stroke:#181818;stroke-width:1;"/><path d="M1248.7813,385.6738 Q1248.4375,385.8456 1248.0625,385.9238 Q1247.6875,386.0175 1247.2656,386.0175 Q1245.7969,386.0175 1245.0156,385.0488 Q1244.25,384.08 1244.25,382.2363 Q1244.25,380.3925 1245.0156,379.4238 Q1245.7969,378.455 1247.2656,378.455 Q1247.6875,378.455 1248.0625,378.5488 Q1248.4531,378.6269 1248.7813,378.7988 L1248.7813,380.4081 Q1248.4063,380.0644 1248.0469,379.9081 Q1247.7031,379.7519 1247.3438,379.7519 Q1246.5469,379.7519 1246.1406,380.3769 Q1245.7344,381.0019 1245.7344,382.2363 Q1245.7344,383.4706 1246.1406,384.0956 Q1246.5469,384.7206 1247.3438,384.7206 Q1247.7031,384.7206 1248.0469,384.5644 Q1248.4063,384.4081 1248.7813,384.0644 L1248.7813,385.6738 Z " fill="#000000"/><text fill="#000000" font-family="sans-serif" font-size="10" lengthAdjust="spacing" textLength="65.9717" x="1259.5" y="385.8388">AlertsService</text><line style="stroke:#181818;stroke-width:0.5;" x1="1235.5" x2="1327.4717" y1="396.3769" y2="396.3769"/><line style="stroke:#181818;stroke-width:0.5;" x1="1235.5" x2="1327.4717" y1="404.3769" y2="404.3769"/></g><!--class AlertsPersistenceService--><g class="entity" data-qualified-name="NOTIP Management API.AlertsModule.AlertsPersistenceService" data-source-line="25" id="ent0014"><rect fill="#F1F1F1" height="44" rx="2.5" ry="2.5" style="stroke:#181818;stroke-width:0.5;" width="151.5254" x="1133.5" y="460.3769"/><ellipse cx="1146.5" cy="474.3769" fill="#ADD1B2" rx="9" ry="9" style="stroke:#181818;stroke-width:1;"/><path d="M1147.7813,477.6738 Q1147.4375,477.8456 1147.0625,477.9238 Q1146.6875,478.0175 1146.2656,478.0175 Q1144.7969,478.0175 1144.0156,477.0488 Q1143.25,476.08 1143.25,474.2363 Q1143.25,472.3925 1144.0156,471.4238 Q1144.7969,470.455 1146.2656,470.455 Q1146.6875,470.455 1147.0625,470.5488 Q1147.4531,470.6269 1147.7813,470.7988 L1147.7813,472.4081 Q1147.4063,472.0644 1147.0469,471.9081 Q1146.7031,471.7519 1146.3438,471.7519 Q1145.5469,471.7519 1145.1406,472.3769 Q1144.7344,473.0019 1144.7344,474.2363 Q1144.7344,475.4706 1145.1406,476.0956 Q1145.5469,476.7206 1146.3438,476.7206 Q1146.7031,476.7206 1147.0469,476.5644 Q1147.4063,476.4081 1147.7813,476.0644 L1147.7813,477.6738 Z " fill="#000000"/><text fill="#000000" font-family="sans-serif" font-size="10" lengthAdjust="spacing" textLength="123.5254" x="1158.5" y="477.8388">AlertsPersistenceService</text><line style="stroke:#181818;stroke-width:0.5;" x1="1134.5" x2="1284.0254" y1="488.3769" y2="488.3769"/><line style="stroke:#181818;stroke-width:0.5;" x1="1134.5" x2="1284.0254" y1="496.3769" y2="496.3769"/></g><!--class AlertConfigNatsResponderService--><g class="entity" data-qualified-name="NOTIP Management API.AlertsModule.AlertConfigNatsResponderService" data-source-line="26" id="ent0015"><rect fill="#F1F1F1" height="44" rx="2.5" ry="2.5" style="stroke:#181818;stroke-width:0.5;" width="197.3115" x="1096" y="300.3769"/><ellipse cx="1109" cy="314.3769" fill="#ADD1B2" rx="9" ry="9" style="stroke:#181818;stroke-width:1;"/><path d="M1110.2813,317.6738 Q1109.9375,317.8456 1109.5625,317.9238 Q1109.1875,318.0175 1108.7656,318.0175 Q1107.2969,318.0175 1106.5156,317.0488 Q1105.75,316.08 1105.75,314.2363 Q1105.75,312.3925 1106.5156,311.4238 Q1107.2969,310.455 1108.7656,310.455 Q1109.1875,310.455 1109.5625,310.5488 Q1109.9531,310.6269 1110.2813,310.7988 L1110.2813,312.4081 Q1109.9063,312.0644 1109.5469,311.9081 Q1109.2031,311.7519 1108.8438,311.7519 Q1108.0469,311.7519 1107.6406,312.3769 Q1107.2344,313.0019 1107.2344,314.2363 Q1107.2344,315.4706 1107.6406,316.0956 Q1108.0469,316.7206 1108.8438,316.7206 Q1109.2031,316.7206 1109.5469,316.5644 Q1109.9063,316.4081 1110.2813,316.0644 L1110.2813,317.6738 Z " fill="#000000"/><text fill="#000000" font-family="sans-serif" font-size="10" lengthAdjust="spacing" textLength="169.3115" x="1121" y="317.8388">AlertConfigNatsResponderService</text><line style="stroke:#181818;stroke-width:0.5;" x1="1097" x2="1292.3115" y1="328.3769" y2="328.3769"/><line style="stroke:#181818;stroke-width:0.5;" x1="1097" x2="1292.3115" y1="336.3769" y2="336.3769"/></g><!--class AlertsEntity--><g class="entity" data-qualified-name="NOTIP Management API.AlertsModule.AlertsEntity" data-source-line="27" id="ent0016"><rect fill="#F1F1F1" height="44" rx="2.5" ry="2.5" style="stroke:#181818;stroke-width:0.5;" width="86.208" x="1095.5" y="512.3769"/><ellipse cx="1108.5" cy="526.3769" fill="#ADD1B2" rx="9" ry="9" style="stroke:#181818;stroke-width:1;"/><path d="M1109.7813,529.6738 Q1109.4375,529.8456 1109.0625,529.9238 Q1108.6875,530.0175 1108.2656,530.0175 Q1106.7969,530.0175 1106.0156,529.0488 Q1105.25,528.08 1105.25,526.2363 Q1105.25,524.3925 1106.0156,523.4238 Q1106.7969,522.455 1108.2656,522.455 Q1108.6875,522.455 1109.0625,522.5488 Q1109.4531,522.6269 1109.7813,522.7988 L1109.7813,524.4081 Q1109.4063,524.0644 1109.0469,523.9081 Q1108.7031,523.7519 1108.3438,523.7519 Q1107.5469,523.7519 1107.1406,524.3769 Q1106.7344,525.0019 1106.7344,526.2363 Q1106.7344,527.4706 1107.1406,528.0956 Q1107.5469,528.7206 1108.3438,528.7206 Q1108.7031,528.7206 1109.0469,528.5644 Q1109.4063,528.4081 1109.7813,528.0644 L1109.7813,529.6738 Z " fill="#000000"/><text fill="#000000" font-family="sans-serif" font-size="10" lengthAdjust="spacing" textLength="58.208" x="1120.5" y="529.8388">AlertsEntity</text><line style="stroke:#181818;stroke-width:0.5;" x1="1096.5" x2="1180.708" y1="540.3769" y2="540.3769"/><line style="stroke:#181818;stroke-width:0.5;" x1="1096.5" x2="1180.708" y1="548.3769" y2="548.3769"/></g><!--class AlertsConfigEntity--><g class="entity" data-qualified-name="NOTIP Management API.AlertsModule.AlertsConfigEntity" data-source-line="28" id="ent0017"><rect fill="#F1F1F1" height="44" rx="2.5" ry="2.5" style="stroke:#181818;stroke-width:0.5;" width="118.293" x="1189.5" y="512.3769"/><ellipse cx="1202.5" cy="526.3769" fill="#ADD1B2" rx="9" ry="9" style="stroke:#181818;stroke-width:1;"/><path d="M1203.7813,529.6738 Q1203.4375,529.8456 1203.0625,529.9238 Q1202.6875,530.0175 1202.2656,530.0175 Q1200.7969,530.0175 1200.0156,529.0488 Q1199.25,528.08 1199.25,526.2363 Q1199.25,524.3925 1200.0156,523.4238 Q1200.7969,522.455 1202.2656,522.455 Q1202.6875,522.455 1203.0625,522.5488 Q1203.4531,522.6269 1203.7813,522.7988 L1203.7813,524.4081 Q1203.4063,524.0644 1203.0469,523.9081 Q1202.7031,523.7519 1202.3438,523.7519 Q1201.5469,523.7519 1201.1406,524.3769 Q1200.7344,525.0019 1200.7344,526.2363 Q1200.7344,527.4706 1201.1406,528.0956 Q1201.5469,528.7206 1202.3438,528.7206 Q1202.7031,528.7206 1203.0469,528.5644 Q1203.4063,528.4081 1203.7813,528.0644 L1203.7813,529.6738 Z " fill="#000000"/><text fill="#000000" font-family="sans-serif" font-size="10" lengthAdjust="spacing" textLength="90.293" x="1214.5" y="529.8388">AlertsConfigEntity</text><line style="stroke:#181818;stroke-width:0.5;" x1="1190.5" x2="1306.793" y1="540.3769" y2="540.3769"/><line style="stroke:#181818;stroke-width:0.5;" x1="1190.5" x2="1306.793" y1="548.3769" y2="548.3769"/></g><!--class CommandController--><g class="entity" data-qualified-name="NOTIP Management API.CommandModule.CommandController" data-source-line="32" id="ent0019"><rect fill="#F1F1F1" height="44" rx="2.5" ry="2.5" style="stroke:#181818;stroke-width:0.5;" width="128.8057" x="1869" y="300.3769"/><ellipse cx="1882" cy="314.3769" fill="#ADD1B2" rx="9" ry="9" style="stroke:#181818;stroke-width:1;"/><path d="M1883.2813,317.6738 Q1882.9375,317.8456 1882.5625,317.9238 Q1882.1875,318.0175 1881.7656,318.0175 Q1880.2969,318.0175 1879.5156,317.0488 Q1878.75,316.08 1878.75,314.2363 Q1878.75,312.3925 1879.5156,311.4238 Q1880.2969,310.455 1881.7656,310.455 Q1882.1875,310.455 1882.5625,310.5488 Q1882.9531,310.6269 1883.2813,310.7988 L1883.2813,312.4081 Q1882.9063,312.0644 1882.5469,311.9081 Q1882.2031,311.7519 1881.8438,311.7519 Q1881.0469,311.7519 1880.6406,312.3769 Q1880.2344,313.0019 1880.2344,314.2363 Q1880.2344,315.4706 1880.6406,316.0956 Q1881.0469,316.7206 1881.8438,316.7206 Q1882.2031,316.7206 1882.5469,316.5644 Q1882.9063,316.4081 1883.2813,316.0644 L1883.2813,317.6738 Z " fill="#000000"/><text fill="#000000" font-family="sans-serif" font-size="10" lengthAdjust="spacing" textLength="100.8057" x="1894" y="317.8388">CommandController</text><line style="stroke:#181818;stroke-width:0.5;" x1="1870" x2="1996.8057" y1="328.3769" y2="328.3769"/><line style="stroke:#181818;stroke-width:0.5;" x1="1870" x2="1996.8057" y1="336.3769" y2="336.3769"/></g><!--class CommandService--><g class="entity" data-qualified-name="NOTIP Management API.CommandModule.CommandService" data-source-line="33" id="ent0020"><rect fill="#F1F1F1" height="44" rx="2.5" ry="2.5" style="stroke:#181818;stroke-width:0.5;" width="116.3545" x="1774.5" y="368.3769"/><ellipse cx="1787.5" cy="382.3769" fill="#ADD1B2" rx="9" ry="9" style="stroke:#181818;stroke-width:1;"/><path d="M1788.7813,385.6738 Q1788.4375,385.8456 1788.0625,385.9238 Q1787.6875,386.0175 1787.2656,386.0175 Q1785.7969,386.0175 1785.0156,385.0488 Q1784.25,384.08 1784.25,382.2363 Q1784.25,380.3925 1785.0156,379.4238 Q1785.7969,378.455 1787.2656,378.455 Q1787.6875,378.455 1788.0625,378.5488 Q1788.4531,378.6269 1788.7813,378.7988 L1788.7813,380.4081 Q1788.4063,380.0644 1788.0469,379.9081 Q1787.7031,379.7519 1787.3438,379.7519 Q1786.5469,379.7519 1786.1406,380.3769 Q1785.7344,381.0019 1785.7344,382.2363 Q1785.7344,383.4706 1786.1406,384.0956 Q1786.5469,384.7206 1787.3438,384.7206 Q1787.7031,384.7206 1788.0469,384.5644 Q1788.4063,384.4081 1788.7813,384.0644 L1788.7813,385.6738 Z " fill="#000000"/><text fill="#000000" font-family="sans-serif" font-size="10" lengthAdjust="spacing" textLength="88.3545" x="1799.5" y="385.8388">CommandService</text><line style="stroke:#181818;stroke-width:0.5;" x1="1775.5" x2="1889.8545" y1="396.3769" y2="396.3769"/><line style="stroke:#181818;stroke-width:0.5;" x1="1775.5" x2="1889.8545" y1="404.3769" y2="404.3769"/></g><!--class CommandPersistenceService--><g class="entity" data-qualified-name="NOTIP Management API.CommandModule.CommandPersistenceService" data-source-line="34" id="ent0021"><rect fill="#F1F1F1" height="44" rx="2.5" ry="2.5" style="stroke:#181818;stroke-width:0.5;" width="173.9082" x="1495.5" y="460.3769"/><ellipse cx="1508.5" cy="474.3769" fill="#ADD1B2" rx="9" ry="9" style="stroke:#181818;stroke-width:1;"/><path d="M1509.7813,477.6738 Q1509.4375,477.8456 1509.0625,477.9238 Q1508.6875,478.0175 1508.2656,478.0175 Q1506.7969,478.0175 1506.0156,477.0488 Q1505.25,476.08 1505.25,474.2363 Q1505.25,472.3925 1506.0156,471.4238 Q1506.7969,470.455 1508.2656,470.455 Q1508.6875,470.455 1509.0625,470.5488 Q1509.4531,470.6269 1509.7813,470.7988 L1509.7813,472.4081 Q1509.4063,472.0644 1509.0469,471.9081 Q1508.7031,471.7519 1508.3438,471.7519 Q1507.5469,471.7519 1507.1406,472.3769 Q1506.7344,473.0019 1506.7344,474.2363 Q1506.7344,475.4706 1507.1406,476.0956 Q1507.5469,476.7206 1508.3438,476.7206 Q1508.7031,476.7206 1509.0469,476.5644 Q1509.4063,476.4081 1509.7813,476.0644 L1509.7813,477.6738 Z " fill="#000000"/><text fill="#000000" font-family="sans-serif" font-size="10" lengthAdjust="spacing" textLength="145.9082" x="1520.5" y="477.8388">CommandPersistenceService</text><line style="stroke:#181818;stroke-width:0.5;" x1="1496.5" x2="1668.4082" y1="488.3769" y2="488.3769"/><line style="stroke:#181818;stroke-width:0.5;" x1="1496.5" x2="1668.4082" y1="496.3769" y2="496.3769"/></g><!--class CommandWritingPersistenceService--><g class="entity" data-qualified-name="NOTIP Management API.CommandModule.CommandWritingPersistenceService" data-source-line="35" id="ent0022"><rect fill="#F1F1F1" height="44" rx="2.5" ry="2.5" style="stroke:#181818;stroke-width:0.5;" width="210.0703" x="1677.5" y="460.3769"/><ellipse cx="1690.5" cy="474.3769" fill="#ADD1B2" rx="9" ry="9" style="stroke:#181818;stroke-width:1;"/><path d="M1691.7813,477.6738 Q1691.4375,477.8456 1691.0625,477.9238 Q1690.6875,478.0175 1690.2656,478.0175 Q1688.7969,478.0175 1688.0156,477.0488 Q1687.25,476.08 1687.25,474.2363 Q1687.25,472.3925 1688.0156,471.4238 Q1688.7969,470.455 1690.2656,470.455 Q1690.6875,470.455 1691.0625,470.5488 Q1691.4531,470.6269 1691.7813,470.7988 L1691.7813,472.4081 Q1691.4063,472.0644 1691.0469,471.9081 Q1690.7031,471.7519 1690.3438,471.7519 Q1689.5469,471.7519 1689.1406,472.3769 Q1688.7344,473.0019 1688.7344,474.2363 Q1688.7344,475.4706 1689.1406,476.0956 Q1689.5469,476.7206 1690.3438,476.7206 Q1690.7031,476.7206 1691.0469,476.5644 Q1691.4063,476.4081 1691.7813,476.0644 L1691.7813,477.6738 Z " fill="#000000"/><text fill="#000000" font-family="sans-serif" font-size="10" lengthAdjust="spacing" textLength="182.0703" x="1702.5" y="477.8388">CommandWritingPersistenceService</text><line style="stroke:#181818;stroke-width:0.5;" x1="1678.5" x2="1886.5703" y1="488.3769" y2="488.3769"/><line style="stroke:#181818;stroke-width:0.5;" x1="1678.5" x2="1886.5703" y1="496.3769" y2="496.3769"/></g><!--class CommandsAckConsumer--><g class="entity" data-qualified-name="NOTIP Management API.CommandModule.CommandsAckConsumer" data-source-line="36" id="ent0023"><rect fill="#F1F1F1" height="44" rx="2.5" ry="2.5" style="stroke:#181818;stroke-width:0.5;" width="153.7275" x="1895.5" y="460.3769"/><ellipse cx="1908.5" cy="474.3769" fill="#ADD1B2" rx="9" ry="9" style="stroke:#181818;stroke-width:1;"/><path d="M1909.7813,477.6738 Q1909.4375,477.8456 1909.0625,477.9238 Q1908.6875,478.0175 1908.2656,478.0175 Q1906.7969,478.0175 1906.0156,477.0488 Q1905.25,476.08 1905.25,474.2363 Q1905.25,472.3925 1906.0156,471.4238 Q1906.7969,470.455 1908.2656,470.455 Q1908.6875,470.455 1909.0625,470.5488 Q1909.4531,470.6269 1909.7813,470.7988 L1909.7813,472.4081 Q1909.4063,472.0644 1909.0469,471.9081 Q1908.7031,471.7519 1908.3438,471.7519 Q1907.5469,471.7519 1907.1406,472.3769 Q1906.7344,473.0019 1906.7344,474.2363 Q1906.7344,475.4706 1907.1406,476.0956 Q1907.5469,476.7206 1908.3438,476.7206 Q1908.7031,476.7206 1909.0469,476.5644 Q1909.4063,476.4081 1909.7813,476.0644 L1909.7813,477.6738 Z " fill="#000000"/><text fill="#000000" font-family="sans-serif" font-size="10" lengthAdjust="spacing" textLength="125.7275" x="1920.5" y="477.8388">CommandsAckConsumer</text><line style="stroke:#181818;stroke-width:0.5;" x1="1896.5" x2="2048.2275" y1="488.3769" y2="488.3769"/><line style="stroke:#181818;stroke-width:0.5;" x1="1896.5" x2="2048.2275" y1="496.3769" y2="496.3769"/></g><!--class CommandEntity--><g class="entity" data-qualified-name="NOTIP Management API.CommandModule.CommandEntity" data-source-line="37" id="ent0024"><rect fill="#F1F1F1" height="44" rx="2.5" ry="2.5" style="stroke:#181818;stroke-width:0.5;" width="108.5908" x="1512" y="512.3769"/><ellipse cx="1525" cy="526.3769" fill="#ADD1B2" rx="9" ry="9" style="stroke:#181818;stroke-width:1;"/><path d="M1526.2813,529.6738 Q1525.9375,529.8456 1525.5625,529.9238 Q1525.1875,530.0175 1524.7656,530.0175 Q1523.2969,530.0175 1522.5156,529.0488 Q1521.75,528.08 1521.75,526.2363 Q1521.75,524.3925 1522.5156,523.4238 Q1523.2969,522.455 1524.7656,522.455 Q1525.1875,522.455 1525.5625,522.5488 Q1525.9531,522.6269 1526.2813,522.7988 L1526.2813,524.4081 Q1525.9063,524.0644 1525.5469,523.9081 Q1525.2031,523.7519 1524.8438,523.7519 Q1524.0469,523.7519 1523.6406,524.3769 Q1523.2344,525.0019 1523.2344,526.2363 Q1523.2344,527.4706 1523.6406,528.0956 Q1524.0469,528.7206 1524.8438,528.7206 Q1525.2031,528.7206 1525.5469,528.5644 Q1525.9063,528.4081 1526.2813,528.0644 L1526.2813,529.6738 Z " fill="#000000"/><text fill="#000000" font-family="sans-serif" font-size="10" lengthAdjust="spacing" textLength="80.5908" x="1537" y="529.8388">CommandEntity</text><line style="stroke:#181818;stroke-width:0.5;" x1="1513" x2="1619.5908" y1="540.3769" y2="540.3769"/><line style="stroke:#181818;stroke-width:0.5;" x1="1513" x2="1619.5908" y1="548.3769" y2="548.3769"/></g><!--class CostsController--><g class="entity" data-qualified-name="NOTIP Management API.CostsModule.CostsController" data-source-line="41" id="ent0026"><rect fill="#F1F1F1" height="44" rx="2.5" ry="2.5" style="stroke:#181818;stroke-width:0.5;" width="104.8506" x="880" y="225.5169"/><ellipse cx="893" cy="239.5169" fill="#ADD1B2" rx="9" ry="9" style="stroke:#181818;stroke-width:1;"/><path d="M894.2813,242.8138 Q893.9375,242.9856 893.5625,243.0638 Q893.1875,243.1575 892.7656,243.1575 Q891.2969,243.1575 890.5156,242.1888 Q889.75,241.22 889.75,239.3763 Q889.75,237.5325 890.5156,236.5638 Q891.2969,235.595 892.7656,235.595 Q893.1875,235.595 893.5625,235.6888 Q893.9531,235.7669 894.2813,235.9388 L894.2813,237.5481 Q893.9063,237.2044 893.5469,237.0481 Q893.2031,236.8919 892.8438,236.8919 Q892.0469,236.8919 891.6406,237.5169 Q891.2344,238.1419 891.2344,239.3763 Q891.2344,240.6106 891.6406,241.2356 Q892.0469,241.8606 892.8438,241.8606 Q893.2031,241.8606 893.5469,241.7044 Q893.9063,241.5481 894.2813,241.2044 L894.2813,242.8138 Z " fill="#000000"/><text fill="#000000" font-family="sans-serif" font-size="10" lengthAdjust="spacing" textLength="76.8506" x="905" y="242.9788">CostsController</text><line style="stroke:#181818;stroke-width:0.5;" x1="881" x2="983.8506" y1="253.5169" y2="253.5169"/><line style="stroke:#181818;stroke-width:0.5;" x1="881" x2="983.8506" y1="261.5169" y2="261.5169"/></g><!--class CostsService--><g class="entity" data-qualified-name="NOTIP Management API.CostsModule.CostsService" data-source-line="42" id="ent0027"><rect fill="#F1F1F1" height="44" rx="2.5" ry="2.5" style="stroke:#181818;stroke-width:0.5;" width="92.3994" x="886.5" y="300.3769"/><ellipse cx="899.5" cy="314.3769" fill="#ADD1B2" rx="9" ry="9" style="stroke:#181818;stroke-width:1;"/><path d="M900.7813,317.6738 Q900.4375,317.8456 900.0625,317.9238 Q899.6875,318.0175 899.2656,318.0175 Q897.7969,318.0175 897.0156,317.0488 Q896.25,316.08 896.25,314.2363 Q896.25,312.3925 897.0156,311.4238 Q897.7969,310.455 899.2656,310.455 Q899.6875,310.455 900.0625,310.5488 Q900.4531,310.6269 900.7813,310.7988 L900.7813,312.4081 Q900.4063,312.0644 900.0469,311.9081 Q899.7031,311.7519 899.3438,311.7519 Q898.5469,311.7519 898.1406,312.3769 Q897.7344,313.0019 897.7344,314.2363 Q897.7344,315.4706 898.1406,316.0956 Q898.5469,316.7206 899.3438,316.7206 Q899.7031,316.7206 900.0469,316.5644 Q900.4063,316.4081 900.7813,316.0644 L900.7813,317.6738 Z " fill="#000000"/><text fill="#000000" font-family="sans-serif" font-size="10" lengthAdjust="spacing" textLength="64.3994" x="911.5" y="317.8388">CostsService</text><line style="stroke:#181818;stroke-width:0.5;" x1="887.5" x2="977.8994" y1="328.3769" y2="328.3769"/><line style="stroke:#181818;stroke-width:0.5;" x1="887.5" x2="977.8994" y1="336.3769" y2="336.3769"/></g><!--class CostsPersistenceService--><g class="entity" data-qualified-name="NOTIP Management API.CostsModule.CostsPersistenceService" data-source-line="43" id="ent0028"><rect fill="#F1F1F1" height="44" rx="2.5" ry="2.5" style="stroke:#181818;stroke-width:0.5;" width="149.9531" x="857.5" y="368.3769"/><ellipse cx="870.5" cy="382.3769" fill="#ADD1B2" rx="9" ry="9" style="stroke:#181818;stroke-width:1;"/><path d="M871.7813,385.6738 Q871.4375,385.8456 871.0625,385.9238 Q870.6875,386.0175 870.2656,386.0175 Q868.7969,386.0175 868.0156,385.0488 Q867.25,384.08 867.25,382.2363 Q867.25,380.3925 868.0156,379.4238 Q868.7969,378.455 870.2656,378.455 Q870.6875,378.455 871.0625,378.5488 Q871.4531,378.6269 871.7813,378.7988 L871.7813,380.4081 Q871.4063,380.0644 871.0469,379.9081 Q870.7031,379.7519 870.3438,379.7519 Q869.5469,379.7519 869.1406,380.3769 Q868.7344,381.0019 868.7344,382.2363 Q868.7344,383.4706 869.1406,384.0956 Q869.5469,384.7206 870.3438,384.7206 Q870.7031,384.7206 871.0469,384.5644 Q871.4063,384.4081 871.7813,384.0644 L871.7813,385.6738 Z " fill="#000000"/><text fill="#000000" font-family="sans-serif" font-size="10" lengthAdjust="spacing" textLength="121.9531" x="882.5" y="385.8388">CostsPersistenceService</text><line style="stroke:#181818;stroke-width:0.5;" x1="858.5" x2="1006.4531" y1="396.3769" y2="396.3769"/><line style="stroke:#181818;stroke-width:0.5;" x1="858.5" x2="1006.4531" y1="404.3769" y2="404.3769"/></g><g class="entity" data-qualified-name="GMN59" data-source-line="85" id="ent0060"><path d="M6,219.0169 L6,275.5794 L198.7188,275.5794 L198.7188,229.0169 L188.7188,219.0169 L6,219.0169" fill="#FEFFDD" style="stroke:#181818;stroke-width:0.5;"/><path d="M188.7188,219.0169 L188.7188,229.0169 L198.7188,229.0169 L188.7188,219.0169" fill="#FEFFDD" style="stroke:#181818;stroke-width:1;"/><text fill="#000000" font-family="sans-serif" font-size="10" lengthAdjust="spacing" textLength="132.7051" x="12" y="233.2991">Gateway CRUD operations</text><text fill="#000000" font-family="sans-serif" font-size="10" lengthAdjust="spacing" textLength="119.7461" x="12" y="244.9397">Runtime status updates</text><text fill="#000000" font-family="sans-serif" font-size="10" lengthAdjust="spacing" textLength="153.8428" x="12" y="256.5804">NATS integration for telemetry</text><text fill="#000000" font-family="sans-serif" font-size="10" lengthAdjust="spacing" textLength="171.7188" x="12" y="268.221">Gateway decommissioning events</text></g><g class="entity" data-qualified-name="GMN62" data-source-line="92" id="ent0063"><path d="M2122,144.1569 L2122,200.7194 L2315.0605,200.7194 L2315.0605,154.1569 L2305.0605,144.1569 L2122,144.1569" fill="#FEFFDD" style="stroke:#181818;stroke-width:0.5;"/><path d="M2305.0605,144.1569 L2305.0605,154.1569 L2315.0605,154.1569 L2305.0605,144.1569" fill="#FEFFDD" style="stroke:#181818;stroke-width:1;"/><text fill="#000000" font-family="sans-serif" font-size="10" lengthAdjust="spacing" textLength="163.4814" x="2128" y="158.4391">Alert configuration management</text><text fill="#000000" font-family="sans-serif" font-size="10" lengthAdjust="spacing" textLength="128.9648" x="2128" y="170.0797">Gateway offline detection</text><text fill="#000000" font-family="sans-serif" font-size="10" lengthAdjust="spacing" textLength="172.0605" x="2128" y="181.7204">Default and per-gateway timeouts</text><text fill="#000000" font-family="sans-serif" font-size="10" lengthAdjust="spacing" textLength="153.0225" x="2128" y="193.361">NATS request-reply for configs</text></g><g class="entity" data-qualified-name="GMN65" data-source-line="99" id="ent0066"><path d="M2323,144.1569 L2323,200.7194 L2505.5234,200.7194 L2505.5234,154.1569 L2495.5234,144.1569 L2323,144.1569" fill="#FEFFDD" style="stroke:#181818;stroke-width:0.5;"/><path d="M2495.5234,144.1569 L2495.5234,154.1569 L2505.5234,154.1569 L2495.5234,144.1569" fill="#FEFFDD" style="stroke:#181818;stroke-width:1;"/><text fill="#000000" font-family="sans-serif" font-size="10" lengthAdjust="spacing" textLength="161.5234" x="2329" y="158.4391">Command dispatch to gateways</text><text fill="#000000" font-family="sans-serif" font-size="10" lengthAdjust="spacing" textLength="90.5762" x="2329" y="170.0797">Firmware updates</text><text fill="#000000" font-family="sans-serif" font-size="10" lengthAdjust="spacing" textLength="113.0078" x="2329" y="181.7204">Configuration changes</text><text fill="#000000" font-family="sans-serif" font-size="10" lengthAdjust="spacing" textLength="146.5479" x="2329" y="193.361">NATS JetStream ack handling</text></g><g class="entity" data-qualified-name="GMN68" data-source-line="106" id="ent0069"><path d="M822,43.2969 L822,88.2188 L1043.1123,88.2188 L1043.1123,53.2969 L1033.1123,43.2969 L822,43.2969" fill="#FEFFDD" style="stroke:#181818;stroke-width:0.5;"/><path d="M1033.1123,43.2969 L1033.1123,53.2969 L1043.1123,53.2969 L1033.1123,43.2969" fill="#FEFFDD" style="stroke:#181818;stroke-width:1;"/><text fill="#000000" font-family="sans-serif" font-size="10" lengthAdjust="spacing" textLength="200.1123" x="828" y="57.5791">Calculates storage and bandwidth costs</text><text fill="#000000" font-family="sans-serif" font-size="10" lengthAdjust="spacing" textLength="189.5947" x="828" y="69.2197">Integrates with Alerts and Commands</text><text fill="#000000" font-family="sans-serif" font-size="10" lengthAdjust="spacing" textLength="133.1934" x="828" y="80.8604">Used for tenant billing info</text></g><!--link GatewaysModule to GatewaysController--><g class="link" data-entity-1="ent0003" data-entity-2="ent0004" data-link-type="dependency" data-source-line="47" id="lnk29"><path codeLine="47" d="M481.15,322.3769 C494.34,322.3769 705.5,322.3769 705.5,322.3769 C705.5,322.3769 705.5,342.2769 705.5,362.1069" fill="none" id="GatewaysModule-to-GatewaysController" style="stroke:#181818;stroke-width:1;"/><polygon fill="#181818" points="705.5,368.1069,709.5,359.1069,705.5,363.1069,701.5,359.1069,705.5,368.1069" style="stroke:#181818;stroke-width:1;"/></g><!--link GatewaysController to GatewaysService--><g class="link" data-entity-1="ent0004" data-entity-2="ent0005" data-link-type="dependency" data-source-line="48" id="lnk30"><path codeLine="48" d="M696.75,412.6469 C696.75,427.1169 696.75,439.8869 696.75,454.3069" fill="none" id="GatewaysController-to-GatewaysService" style="stroke:#181818;stroke-width:1;"/><polygon fill="#181818" points="696.75,460.3069,700.75,451.3069,696.75,455.3069,692.75,451.3069,696.75,460.3069" style="stroke:#181818;stroke-width:1;"/></g><!--link GatewaysService to GatewaysPersistenceService--><g class="link" data-entity-1="ent0005" data-entity-2="ent0006" data-link-type="dependency" data-source-line="49" id="lnk31"><path codeLine="49" d="M694.5,504.4269 C694.5,506.9769 694.5,503.5769 694.5,506.1269" fill="none" id="GatewaysService-to-GatewaysPersistenceService" style="stroke:#181818;stroke-width:1;"/><polygon fill="#181818" points="694.5,512.1269,698.5,503.1269,694.5,507.1269,690.5,503.1269,694.5,512.1269" style="stroke:#181818;stroke-width:1;"/></g><!--link GatewaysPersistenceService to GatewayEntity--><g class="link" data-entity-1="ent0006" data-entity-2="ent0009" data-link-type="dependency" data-source-line="50" id="lnk32"><path codeLine="50" d="M718.5,556.6469 C718.5,571.1169 718.5,583.8869 718.5,598.3069" fill="none" id="GatewaysPersistenceService-to-GatewayEntity" style="stroke:#181818;stroke-width:1;"/><polygon fill="#181818" points="718.5,604.3069,722.5,595.3069,718.5,599.3069,714.5,595.3069,718.5,604.3069" style="stroke:#181818;stroke-width:1;"/></g><!--link GatewaysPersistenceService to GatewayMetadataEntity--><g class="link" data-entity-1="ent0006" data-entity-2="ent0010" data-link-type="dependency" data-source-line="51" id="lnk33"><path codeLine="51" d="M635.5,556.5569 C635.5,583.5469 635.5,622.8269 635.5,649.9269" fill="none" id="GatewaysPersistenceService-to-GatewayMetadataEntity" style="stroke:#181818;stroke-width:1;"/><polygon fill="#181818" points="635.5,655.9269,639.5,646.9269,635.5,650.9269,631.5,646.9269,635.5,655.9269" style="stroke:#181818;stroke-width:1;"/></g><!--link GatewayEntity to TenantEntity--><g class="link" data-entity-1="ent0009" data-entity-2="ent0034" data-link-type="dependency" data-source-line="52" id="lnk35"><path codeLine="52" d="M760.5,648.4269 C760.5,662.6069 760.5,678.3769 760.5,678.3769 C760.5,678.3769 1074.34,678.3769 1196.15,678.3769" fill="none" id="GatewayEntity-to-TenantEntity" style="stroke:#181818;stroke-width:1;"/><polygon fill="#181818" points="1202.15,678.3769,1193.15,674.3769,1197.15,678.3769,1193.15,682.3769,1202.15,678.3769" style="stroke:#181818;stroke-width:1;"/></g><!--link GatewayEntity to GatewayMetadataEntity--><g class="link" data-entity-1="ent0009" data-entity-2="ent0010" data-link-type="dependency" data-source-line="53" id="lnk36"><path codeLine="53" d="M710,648.4269 C710,650.9769 710,647.5769 710,650.1269" fill="none" id="GatewayEntity-to-GatewayMetadataEntity" style="stroke:#181818;stroke-width:1;"/><polygon fill="#181818" points="710,656.1269,714,647.1269,710,651.1269,706,647.1269,710,656.1269" style="stroke:#181818;stroke-width:1;"/></g><!--link AlertsModule to AlertsController--><g class="link" data-entity-1="ent0011" data-entity-2="ent0012" data-link-type="dependency" data-source-line="56" id="lnk37"><path codeLine="56" d="M1388.5,247.9969 C1388.5,251.9569 1388.5,273.6869 1388.5,294.1369" fill="none" id="AlertsModule-to-AlertsController" style="stroke:#181818;stroke-width:1;"/><polygon fill="#181818" points="1388.5,300.1369,1392.5,291.1369,1388.5,295.1369,1384.5,291.1369,1388.5,300.1369" style="stroke:#181818;stroke-width:1;"/></g><!--link AlertsController to AlertsService--><g class="link" data-entity-1="ent0012" data-entity-2="ent0013" data-link-type="dependency" data-source-line="57" id="lnk38"><path codeLine="57" d="M1315,344.6469 C1315,352.2369 1315,354.7169 1315,362.2969" fill="none" id="AlertsController-to-AlertsService" style="stroke:#181818;stroke-width:1;"/><polygon fill="#181818" points="1315,368.2969,1319,359.2969,1315,363.2969,1311,359.2969,1315,368.2969" style="stroke:#181818;stroke-width:1;"/></g><!--link AlertsService to AlertsPersistenceService--><g class="link" data-entity-1="ent0013" data-entity-2="ent0014" data-link-type="dependency" data-source-line="58" id="lnk39"><path codeLine="58" d="M1260,412.6469 C1260,427.1169 1260,439.8869 1260,454.3069" fill="none" id="AlertsService-to-AlertsPersistenceService" style="stroke:#181818;stroke-width:1;"/><polygon fill="#181818" points="1260,460.3069,1264,451.3069,1260,455.3069,1256,451.3069,1260,460.3069" style="stroke:#181818;stroke-width:1;"/></g><!--link AlertsPersistenceService to AlertsEntity--><g class="link" data-entity-1="ent0014" data-entity-2="ent0016" data-link-type="dependency" data-source-line="59" id="lnk40"><path codeLine="59" d="M1157.5,504.4269 C1157.5,506.9769 1157.5,503.5769 1157.5,506.1269" fill="none" id="AlertsPersistenceService-to-AlertsEntity" style="stroke:#181818;stroke-width:1;"/><polygon fill="#181818" points="1157.5,512.1269,1161.5,503.1269,1157.5,507.1269,1153.5,503.1269,1157.5,512.1269" style="stroke:#181818;stroke-width:1;"/></g><!--link AlertsPersistenceService to AlertsConfigEntity--><g class="link" data-entity-1="ent0014" data-entity-2="ent0017" data-link-type="dependency" data-source-line="60" id="lnk41"><path codeLine="60" d="M1237.5,504.4269 C1237.5,506.9769 1237.5,503.5769 1237.5,506.1269" fill="none" id="AlertsPersistenceService-to-AlertsConfigEntity" style="stroke:#181818;stroke-width:1;"/><polygon fill="#181818" points="1237.5,512.1269,1241.5,503.1269,1237.5,507.1269,1233.5,503.1269,1237.5,512.1269" style="stroke:#181818;stroke-width:1;"/></g><!--link AlertsConfigEntity to TenantEntity--><g class="link" data-entity-1="ent0017" data-entity-2="ent0034" data-link-type="dependency" data-source-line="61" id="lnk42"><path codeLine="61" d="M1248.5,556.5569 C1248.5,583.5469 1248.5,622.8269 1248.5,649.9269" fill="none" id="AlertsConfigEntity-to-TenantEntity" style="stroke:#181818;stroke-width:1;"/><polygon fill="#181818" points="1248.5,655.9269,1252.5,646.9269,1248.5,650.9269,1244.5,646.9269,1248.5,655.9269" style="stroke:#181818;stroke-width:1;"/></g><!--link AlertsConfigEntity to GatewayEntity--><g class="link" data-entity-1="ent0017" data-entity-2="ent0009" data-link-type="dependency" data-source-line="62" id="lnk43"><path codeLine="62" d="M1196,556.5069 C1196,580.4969 1196,615.3769 1196,615.3769 C1196,615.3769 898.04,615.3769 775.15,615.3769" fill="none" id="AlertsConfigEntity-to-GatewayEntity" style="stroke:#181818;stroke-width:1;"/><polygon fill="#181818" points="769.15,615.3769,778.15,619.3769,774.15,615.3769,778.15,611.3769,769.15,615.3769" style="stroke:#181818;stroke-width:1;"/></g><!--link CommandModule to CommandController--><g class="link" data-entity-1="ent0018" data-entity-2="ent0019" data-link-type="dependency" data-source-line="65" id="lnk44"><path codeLine="65" d="M1999.5,247.9969 C1999.5,254.3669 1999.5,322.3769 1999.5,322.3769 C1999.5,322.3769 2005.1,322.3769 2004.35,322.3769" fill="none" id="CommandModule-to-CommandController" style="stroke:#181818;stroke-width:1;"/><polygon fill="#181818" points="1998.35,322.3769,2007.35,326.3769,2003.35,322.3769,2007.35,318.3769,1998.35,322.3769" style="stroke:#181818;stroke-width:1;"/></g><!--link CommandController to CommandService--><g class="link" data-entity-1="ent0019" data-entity-2="ent0020" data-link-type="dependency" data-source-line="66" id="lnk45"><path codeLine="66" d="M1879.75,344.6469 C1879.75,352.2369 1879.75,354.7169 1879.75,362.2969" fill="none" id="CommandController-to-CommandService" style="stroke:#181818;stroke-width:1;"/><polygon fill="#181818" points="1879.75,368.2969,1883.75,359.2969,1879.75,363.2969,1875.75,359.2969,1879.75,368.2969" style="stroke:#181818;stroke-width:1;"/></g><!--link CommandService to CommandPersistenceService--><g class="link" data-entity-1="ent0020" data-entity-2="ent0021" data-link-type="dependency" data-source-line="67" id="lnk46"><path codeLine="67" d="M1774.2,390.3769 C1700.33,390.3769 1582.5,390.3769 1582.5,390.3769 C1582.5,390.3769 1582.5,426.8769 1582.5,454.1069" fill="none" id="CommandService-to-CommandPersistenceService" style="stroke:#181818;stroke-width:1;"/><polygon fill="#181818" points="1582.5,460.1069,1586.5,451.1069,1582.5,455.1069,1578.5,451.1069,1582.5,460.1069" style="stroke:#181818;stroke-width:1;"/></g><!--link CommandService to CommandWritingPersistenceService--><g class="link" data-entity-1="ent0020" data-entity-2="ent0022" data-link-type="dependency" data-source-line="68" id="lnk47"><path codeLine="68" d="M1831,412.6469 C1831,427.1169 1831,439.8869 1831,454.3069" fill="none" id="CommandService-to-CommandWritingPersistenceService" style="stroke:#181818;stroke-width:1;"/><polygon fill="#181818" points="1831,460.3069,1835,451.3069,1831,455.3069,1827,451.3069,1831,460.3069" style="stroke:#181818;stroke-width:1;"/></g><!--link CommandService to CommandsAckConsumer--><g class="link" data-entity-1="ent0020" data-entity-2="ent0023" data-link-type="dependency" data-source-line="69" id="lnk48"><path codeLine="69" d="M1890.63,390.3769 C1918.85,390.3769 1946.75,390.3769 1946.75,390.3769 C1946.75,390.3769 1946.75,426.8769 1946.75,454.1069" fill="none" id="CommandService-to-CommandsAckConsumer" style="stroke:#181818;stroke-width:1;"/><polygon fill="#181818" points="1946.75,460.1069,1950.75,451.1069,1946.75,455.1069,1942.75,451.1069,1946.75,460.1069" style="stroke:#181818;stroke-width:1;"/></g><!--link CommandPersistenceService to CommandEntity--><g class="link" data-entity-1="ent0021" data-entity-2="ent0024" data-link-type="dependency" data-source-line="70" id="lnk49"><path codeLine="70" d="M1566.5,504.4269 C1566.5,506.9769 1566.5,503.5769 1566.5,506.1269" fill="none" id="CommandPersistenceService-to-CommandEntity" style="stroke:#181818;stroke-width:1;"/><polygon fill="#181818" points="1566.5,512.1269,1570.5,503.1269,1566.5,507.1269,1562.5,503.1269,1566.5,512.1269" style="stroke:#181818;stroke-width:1;"/></g><!--link CommandWritingPersistenceService to CommandEntity--><g class="link" data-entity-1="ent0022" data-entity-2="ent0024" data-link-type="dependency" data-source-line="71" id="lnk50"><path codeLine="71" d="M1747.5,504.4269 C1747.5,518.6069 1747.5,534.3769 1747.5,534.3769 C1747.5,534.3769 1680.57,534.3769 1627.3,534.3769" fill="none" id="CommandWritingPersistenceService-to-CommandEntity" style="stroke:#181818;stroke-width:1;"/><polygon fill="#181818" points="1621.3,534.3769,1630.3,538.3769,1626.3,534.3769,1630.3,530.3769,1621.3,534.3769" style="stroke:#181818;stroke-width:1;"/></g><!--link CommandWritingPersistenceService to GatewayEntity--><g class="link" data-entity-1="ent0022" data-entity-2="ent0009" data-link-type="dependency" data-source-line="72" id="lnk51"><path codeLine="72" d="M1817.5,504.5869 C1817.5,547.4469 1817.5,637.3769 1817.5,637.3769 C1817.5,637.3769 991.44,637.3769 775.3,637.3769" fill="none" id="CommandWritingPersistenceService-to-GatewayEntity" style="stroke:#181818;stroke-width:1;"/><polygon fill="#181818" points="769.3,637.3769,778.3,641.3769,774.3,637.3769,778.3,633.3769,769.3,637.3769" style="stroke:#181818;stroke-width:1;"/></g><!--link CommandEntity to GatewayEntity--><g class="link" data-entity-1="ent0024" data-entity-2="ent0009" data-link-type="dependency" data-source-line="73" id="lnk52"><path codeLine="73" d="M1548.33,556.6469 C1548.33,583.8769 1548.33,626.3769 1548.33,626.3769 C1548.33,626.3769 955.33,626.3769 775.16,626.3769" fill="none" id="CommandEntity-to-GatewayEntity" style="stroke:#181818;stroke-width:1;"/><polygon fill="#181818" points="769.16,626.3769,778.16,630.3769,774.16,626.3769,778.16,622.3769,769.16,626.3769" style="stroke:#181818;stroke-width:1;"/></g><!--link CommandEntity to TenantEntity--><g class="link" data-entity-1="ent0024" data-entity-2="ent0034" data-link-type="dependency" data-source-line="74" id="lnk53"><path codeLine="74" d="M1584.67,556.5569 C1584.67,596.9569 1584.67,678.3769 1584.67,678.3769 C1584.67,678.3769 1392.61,678.3769 1300.54,678.3769" fill="none" id="CommandEntity-to-TenantEntity" style="stroke:#181818;stroke-width:1;"/><polygon fill="#181818" points="1294.54,678.3769,1303.54,682.3769,1299.54,678.3769,1303.54,674.3769,1294.54,678.3769" style="stroke:#181818;stroke-width:1;"/></g><!--link CostsModule to CostsController--><g class="link" data-entity-1="ent0025" data-entity-2="ent0026" data-link-type="dependency" data-source-line="77" id="lnk54"><path codeLine="77" d="M932.5,173.1369 C932.5,177.0969 932.5,198.8269 932.5,219.2769" fill="none" id="CostsModule-to-CostsController" style="stroke:#181818;stroke-width:1;"/><polygon fill="#181818" points="932.5,225.2769,936.5,216.2769,932.5,220.2769,928.5,216.2769,932.5,225.2769" style="stroke:#181818;stroke-width:1;"/></g><!--link CostsController to CostsService--><g class="link" data-entity-1="ent0026" data-entity-2="ent0027" data-link-type="dependency" data-source-line="78" id="lnk55"><path codeLine="78" d="M932.5,269.5769 C932.5,279.2369 932.5,284.5469 932.5,294.2169" fill="none" id="CostsController-to-CostsService" style="stroke:#181818;stroke-width:1;"/><polygon fill="#181818" points="932.5,300.2169,936.5,291.2169,932.5,295.2169,928.5,291.2169,932.5,300.2169" style="stroke:#181818;stroke-width:1;"/></g><!--link CostsService to CostsPersistenceService--><g class="link" data-entity-1="ent0027" data-entity-2="ent0028" data-link-type="dependency" data-source-line="79" id="lnk56"><path codeLine="79" d="M932.5,344.6469 C932.5,352.2369 932.5,354.7169 932.5,362.2969" fill="none" id="CostsService-to-CostsPersistenceService" style="stroke:#181818;stroke-width:1;"/><polygon fill="#181818" points="932.5,368.2969,936.5,359.2969,932.5,363.2969,928.5,359.2969,932.5,368.2969" style="stroke:#181818;stroke-width:1;"/></g><!--link CostsPersistenceService to AlertsPersistenceService--><g class="link" data-entity-1="ent0028" data-entity-2="ent0014" data-link-type="dependency" data-source-line="80" id="lnk57"><path codeLine="80" d="M1007.62,390.3769 C1081.73,390.3769 1184,390.3769 1184,390.3769 C1184,390.3769 1184,426.8769 1184,454.1069" fill="none" id="CostsPersistenceService-to-AlertsPersistenceService" style="stroke:#181818;stroke-width:1;stroke-dasharray:7,7;"/><polygon fill="#181818" points="1184,460.1069,1188,451.1069,1184,455.1069,1180,451.1069,1184,460.1069" style="stroke:#181818;stroke-width:1;"/></g><!--link CostsPersistenceService to CommandPersistenceService--><g class="link" data-entity-1="ent0028" data-entity-2="ent0021" data-link-type="dependency" data-source-line="81" id="lnk58"><path codeLine="81" d="M932.5,412.5669 C932.5,446.7569 932.5,508.3769 932.5,508.3769 C932.5,508.3769 1503.75,508.3769 1503.75,508.3769 C1503.75,508.3769 1503.75,512.9469 1503.75,510.7569" fill="none" id="CostsPersistenceService-to-CommandPersistenceService" style="stroke:#181818;stroke-width:1;stroke-dasharray:7,7;"/><polygon fill="#181818" points="1503.75,504.7569,1499.75,513.7569,1503.75,509.7569,1507.75,513.7569,1503.75,504.7569" style="stroke:#181818;stroke-width:1;"/></g><!--link GMN59 to GatewaysModule--><g class="link" data-entity-1="ent0060" data-entity-2="ent0003" data-link-type="association" data-source-line="85" id="lnk61"><path d="M199.35,248.3769 C311.35,248.3769 480.5,248.3769 480.5,248.3769 C480.5,248.3769 480.5,265.1844 480.5,282.7794 C480.5,287.1781 480.5,291.6261 480.5,295.873 C480.5,296.9347 480.5,297.9838 480.5,299.0165 C480.5,299.2747 480.5,299.5318 480.5,299.7879" fill="none" id="GMN59-GatewaysModule" style="stroke:#181818;stroke-width:1;stroke-dasharray:7,7;"/></g><!--link GMN62 to AlertsModule--><g class="link" data-entity-1="ent0063" data-entity-2="ent0011" data-link-type="association" data-source-line="92" id="lnk64"><path d="M2121.66,188.3769 C1902.72,188.3769 1388.5,188.3769 1388.5,188.3769 C1388.5,188.3769 1388.5,201.3719 1388.5,215.1794 C1388.5,216.9053 1388.5,218.6439 1388.5,220.3715 C1388.5,221.2352 1388.5,222.0962 1388.5,222.9515 C1388.5,223.3791 1388.5,223.8053 1388.5,224.2297 C1388.5,224.4419 1388.5,224.6536 1388.5,224.8648" fill="none" id="GMN62-AlertsModule" style="stroke:#181818;stroke-width:1;stroke-dasharray:7,7;"/></g><!--link GMN65 to CommandModule--><g class="link" data-entity-1="ent0066" data-entity-2="ent0018" data-link-type="association" data-source-line="99" id="lnk67"><path d="M2414.5,201.2869 C2414.5,222.7269 2414.5,248.3769 2414.5,248.3769 C2414.5,248.3769 2312.365,248.3769 2209.4325,248.3769 C2183.6994,248.3769 2157.9164,248.3769 2133.667,248.3769 C2121.5423,248.3769 2109.801,248.3769 2098.641,248.3769 C2093.061,248.3769 2087.6263,248.3769 2082.3617,248.3769 C2079.7294,248.3769 2077.1396,248.3769 2074.5954,248.3769" fill="none" id="GMN65-CommandModule" style="stroke:#181818;stroke-width:1;stroke-dasharray:7,7;"/></g><!--link GMN68 to CostsModule--><g class="link" data-entity-1="ent0069" data-entity-2="ent0025" data-link-type="association" data-source-line="106" id="lnk70"><path d="M932.5,88.4569 C932.5,103.1619 932.5,122.5819 932.5,139.0656 C932.5,141.1261 932.5,143.1407 932.5,145.0945 C932.5,146.0713 932.5,147.033 932.5,147.9776 C932.5,148.4499 932.5,148.918 932.5,149.3815 C932.5,149.6132 932.5,149.8439 932.5,150.0734" fill="none" id="GMN68-CostsModule" style="stroke:#181818;stroke-width:1;stroke-dasharray:7,7;"/></g><?plantuml-src dLTDRnCn4BtdLupA0JYa5BXmg2f5AKL5QgcQLfpTtSd6oiPUxDb60V7VcVr8rlRQQKKEaVBcpTURzMHDaag4snyFrtTm8vGeS8EAO7Pt3LEOcMmb2JEg3SAxJny-lvzCx5ggIXYnWIUHhGkZQvNFTQaDlBbgFmuZnwMeIxhIYXRoDyB7ixYnzpzhFmv5wHmjLl35mOnGwn0hfKBQLGZQq4exXefBv9OMjECc3JSYL57YPDBZS19h_0JEp-_tt8iB-3C1E3Xy4uHRiRDme_Ewn1CG5lPO1xLyWAmKrWxyERTfT5cYyLm6EEQqGFCiCpz9ZyNeTsYij8GgmvZds1mBSYiecjV18suB4bItd7kqbLOvcaYGD2iIygiYIJlNlKCYr1iaaGiIOnVVmgv_9-uqPomyURFiaDWaEqimnn0SExWoUCYOcfXVoZWAm6KiPP4SmWkSSJsEd2uG5OM3ZkWkF99-hZSReN9N-nwAYT-R0lL7QCJ5LS278kJ419BMI8YVHf9KnV58IL8ae9rbQ-xGrXk_QnUFk3dJy9388An_15eWFWGxEW01DgBxpTleqz_YIS5iujblktXxs4-ytaj1aWLPoSgoATZAq-b5VEkEGOyx90mGZnMjC6rqVGzZUHrzjD6yC2tp0PLGT8GG3zNAsM_4K4nlBJOX8eilX1pUe8dtss541KoP7Bz3bw_W1lje3CRKIx3yuRNIxJTQg9s_rXhdsDuQOIvpaCG7N4vKmJJzs0fAUmLB9vdQzJb8-LBc_tSAZv8Nv9KCR-xzG6taABZhiIiut801Ch1SXQr_2j9xBc61qzEZP-UOM_g9uQMgD26Gha0lWnqwx1AOtpzUWgxGTDAmvRvcvJO8jdt7WxhYpOADuNRsi02f28kE34j-roSi-NsRZBEV-4AGSLtIMYRng06V-ONSJf2FL5EJNvcxaFQd5BBsbDPzditXhTv9efVBvhR0oPfx3TFOTjdTHA0vlDpIjEYvJJ-wfaCJ1d_LQ6bgi2ftRHjTmbIDti4VdZd8fQq4PIlcGP-hoN4bpMOh-AOrQ3Vt6ifMV2KPDFsEj223VCtXlt9WMywT5SbQh2FNN9HPNJP9U5xQDEy1JM5F_BMLEQsuCTlsVTtFZObRoNZ_zz2Gznk1MOyMytwipHc29rasfV3Kbtgevny0?></g></svg>