<?xml version="1.0" encoding="UTF-8" standalone="no"?><svg xmlns="http://www.w3.org/2000/svg" xmlns:xlink="http://www.w3.org/1999/xlink" contentScriptType="application/ecmascript" contentStyleType="text/css" height="585px" preserveAspectRatio="none" style="width:968px;height:585px;" version="1.1" viewBox="0 0 968 585" width="968px" zoomAndPan="magnify"><defs><filter height="300%" id="f1bfbpinn3ihd1" width="300%" x="-1" y="-1"><feGaussianBlur result="blurOut" stdDeviation="2.0"/><feColorMatrix in="blurOut" result="blurOut2" type="matrix" values="0 0 0 0 0 0 0 0 0 0 0 0 0 0 0 0 0 0 .4 0"/><feOffset dx="4.0" dy="4.0" in="blurOut2" result="blurOut3"/><feBlend in="SourceGraphic" in2="blurOut3" mode="normal"/></filter></defs><g><text fill="#000000" font-family="sans-serif" font-size="10" lengthAdjust="spacingAndGlyphs" textLength="147" x="413.5" y="9.2822">Costs Module - Class Diagram</text><!--MD5=[735e8704ceb3cae32d3a65711637566f]
cluster costs--><rect fill="#FFFFFF" filter="url(#f1bfbpinn3ihd1)" height="473" style="stroke: #000000; stroke-width: 1.5;" width="620" x="22" y="101.6406"/><text fill="#000000" font-family="sans-serif" font-size="10" font-weight="bold" lengthAdjust="spacingAndGlyphs" textLength="30" x="317" y="112.9229">costs</text><!--MD5=[322eb3aa64dc0b22411406366d6348ad]
class CostsController--><rect fill="#E8F4FD" filter="url(#f1bfbpinn3ihd1)" height="67.2813" id="CostsController" style="stroke: #2196F3; stroke-width: 1.5;" width="239" x="171.5" y="131.6406"/><ellipse cx="249.25" cy="145.6406" fill="#ADD1B2" rx="9" ry="9" style="stroke: #2196F3; stroke-width: 1.0;"/><path d="M250.5313,148.9375 Q250.1875,149.1094 249.8125,149.1875 Q249.4375,149.2813 249.0156,149.2813 Q247.5469,149.2813 246.7656,148.3125 Q246,147.3438 246,145.5 Q246,143.6563 246.7656,142.6875 Q247.5469,141.7188 249.0156,141.7188 Q249.4375,141.7188 249.8125,141.8125 Q250.2031,141.8906 250.5313,142.0625 L250.5313,143.6719 Q250.1563,143.3281 249.7969,143.1719 Q249.4531,143.0156 249.0938,143.0156 Q248.2969,143.0156 247.8906,143.6406 Q247.4844,144.2656 247.4844,145.5 Q247.4844,146.7344 247.8906,147.3594 Q248.2969,147.9844 249.0938,147.9844 Q249.4531,147.9844 249.7969,147.8281 Q250.1563,147.6719 250.5313,147.3281 L250.5313,148.9375 Z "/><text fill="#000000" font-family="sans-serif" font-size="10" lengthAdjust="spacingAndGlyphs" textLength="76" x="266.75" y="149.1025">CostsController</text><line style="stroke: #2196F3; stroke-width: 1.5;" x1="172.5" x2="409.5" y1="159.6406" y2="159.6406"/><rect fill="none" height="6" style="stroke: #C82930; stroke-width: 1.0;" width="6" x="179.5" y="167.6406"/><text fill="#000000" font-family="sans-serif" font-size="10" lengthAdjust="spacingAndGlyphs" textLength="80" x="189.5" y="172.9229">cs: CostsService</text><line style="stroke: #2196F3; stroke-width: 1.5;" x1="172.5" x2="409.5" y1="179.2813" y2="179.2813"/><ellipse cx="182.5" cy="190.2813" fill="#84BE84" rx="3" ry="3" style="stroke: #038048; stroke-width: 1.0;"/><text fill="#000000" font-family="sans-serif" font-size="10" lengthAdjust="spacingAndGlyphs" textLength="215" x="189.5" y="192.5635">getTenantCost(tenantId): CostResponseDto</text><!--MD5=[1ef4fd6b92af143a44aaf0f1bdd85211]
class CostsService--><rect fill="#E8F4FD" filter="url(#f1bfbpinn3ihd1)" height="67.2813" id="CostsService" style="stroke: #2196F3; stroke-width: 1.5;" width="203" x="410.5" y="257.6406"/><ellipse cx="476.25" cy="271.6406" fill="#ADD1B2" rx="9" ry="9" style="stroke: #2196F3; stroke-width: 1.0;"/><path d="M477.5313,274.9375 Q477.1875,275.1094 476.8125,275.1875 Q476.4375,275.2813 476.0156,275.2813 Q474.5469,275.2813 473.7656,274.3125 Q473,273.3438 473,271.5 Q473,269.6563 473.7656,268.6875 Q474.5469,267.7188 476.0156,267.7188 Q476.4375,267.7188 476.8125,267.8125 Q477.2031,267.8906 477.5313,268.0625 L477.5313,269.6719 Q477.1563,269.3281 476.7969,269.1719 Q476.4531,269.0156 476.0938,269.0156 Q475.2969,269.0156 474.8906,269.6406 Q474.4844,270.2656 474.4844,271.5 Q474.4844,272.7344 474.8906,273.3594 Q475.2969,273.9844 476.0938,273.9844 Q476.4531,273.9844 476.7969,273.8281 Q477.1563,273.6719 477.5313,273.3281 L477.5313,274.9375 Z "/><text fill="#000000" font-family="sans-serif" font-size="10" lengthAdjust="spacingAndGlyphs" textLength="64" x="493.75" y="275.1025">CostsService</text><line style="stroke: #2196F3; stroke-width: 1.5;" x1="411.5" x2="612.5" y1="285.6406" y2="285.6406"/><rect fill="none" height="6" style="stroke: #C82930; stroke-width: 1.0;" width="6" x="418.5" y="293.6406"/><text fill="#000000" font-family="sans-serif" font-size="10" lengthAdjust="spacingAndGlyphs" textLength="142" x="428.5" y="298.9229">cps: CostsPersistenceService</text><line style="stroke: #2196F3; stroke-width: 1.5;" x1="411.5" x2="612.5" y1="305.2813" y2="305.2813"/><ellipse cx="421.5" cy="316.2813" fill="#84BE84" rx="3" ry="3" style="stroke: #038048; stroke-width: 1.0;"/><text fill="#000000" font-family="sans-serif" font-size="10" lengthAdjust="spacingAndGlyphs" textLength="179" x="428.5" y="318.5635">getTenantCost(tenantId): CostModel</text><!--MD5=[3b0d2b97944f805c91f1bf8e1a63818c]
class CostsPersistenceService--><rect fill="#E8F4FD" filter="url(#f1bfbpinn3ihd1)" height="90.5625" id="CostsPersistenceService" style="stroke: #2196F3; stroke-width: 1.5;" width="228" x="398" y="371.6406"/><ellipse cx="448.25" cy="385.6406" fill="#ADD1B2" rx="9" ry="9" style="stroke: #2196F3; stroke-width: 1.0;"/><path d="M449.5313,388.9375 Q449.1875,389.1094 448.8125,389.1875 Q448.4375,389.2813 448.0156,389.2813 Q446.5469,389.2813 445.7656,388.3125 Q445,387.3438 445,385.5 Q445,383.6563 445.7656,382.6875 Q446.5469,381.7188 448.0156,381.7188 Q448.4375,381.7188 448.8125,381.8125 Q449.2031,381.8906 449.5313,382.0625 L449.5313,383.6719 Q449.1563,383.3281 448.7969,383.1719 Q448.4531,383.0156 448.0938,383.0156 Q447.2969,383.0156 446.8906,383.6406 Q446.4844,384.2656 446.4844,385.5 Q446.4844,386.7344 446.8906,387.3594 Q447.2969,387.9844 448.0938,387.9844 Q448.4531,387.9844 448.7969,387.8281 Q449.1563,387.6719 449.5313,387.3281 L449.5313,388.9375 Z "/><text fill="#000000" font-family="sans-serif" font-size="10" lengthAdjust="spacingAndGlyphs" textLength="120" x="465.75" y="389.1025">CostsPersistenceService</text><line style="stroke: #2196F3; stroke-width: 1.5;" x1="399" x2="625" y1="399.6406" y2="399.6406"/><rect fill="none" height="6" style="stroke: #C82930; stroke-width: 1.0;" width="6" x="406" y="407.6406"/><text fill="#000000" font-family="sans-serif" font-size="10" lengthAdjust="spacingAndGlyphs" textLength="105" x="416" y="412.9229">nats: JetStreamClient</text><rect fill="none" height="6" style="stroke: #C82930; stroke-width: 1.0;" width="6" x="406" y="419.2813"/><text fill="#000000" font-family="sans-serif" font-size="10" lengthAdjust="spacingAndGlyphs" textLength="153" x="416" y="424.5635">alerts: AlertsPersistenceService</text><rect fill="none" height="6" style="stroke: #C82930; stroke-width: 1.0;" width="6" x="406" y="430.9219"/><text fill="#000000" font-family="sans-serif" font-size="10" lengthAdjust="spacingAndGlyphs" textLength="204" x="416" y="436.2041">commands: CommandPersistenceService</text><line style="stroke: #2196F3; stroke-width: 1.5;" x1="399" x2="625" y1="442.5625" y2="442.5625"/><ellipse cx="409" cy="453.5625" fill="#84BE84" rx="3" ry="3" style="stroke: #038048; stroke-width: 1.0;"/><text fill="#000000" font-family="sans-serif" font-size="10" lengthAdjust="spacingAndGlyphs" textLength="174" x="416" y="455.8447">getTenantCost(tenantId): CostData</text><!--MD5=[2ee1037d943da4b39ceefb3c8b372e77]
class CostsMapper--><rect fill="#E8F4FD" filter="url(#f1bfbpinn3ihd1)" height="67.2813" id="CostsMapper" style="stroke: #2196F3; stroke-width: 1.5;" width="219" x="181.5" y="257.6406"/><ellipse cx="254.75" cy="271.6406" fill="#ADD1B2" rx="9" ry="9" style="stroke: #2196F3; stroke-width: 1.0;"/><path d="M256.0313,274.9375 Q255.6875,275.1094 255.3125,275.1875 Q254.9375,275.2813 254.5156,275.2813 Q253.0469,275.2813 252.2656,274.3125 Q251.5,273.3438 251.5,271.5 Q251.5,269.6563 252.2656,268.6875 Q253.0469,267.7188 254.5156,267.7188 Q254.9375,267.7188 255.3125,267.8125 Q255.7031,267.8906 256.0313,268.0625 L256.0313,269.6719 Q255.6563,269.3281 255.2969,269.1719 Q254.9531,269.0156 254.5938,269.0156 Q253.7969,269.0156 253.3906,269.6406 Q252.9844,270.2656 252.9844,271.5 Q252.9844,272.7344 253.3906,273.3594 Q253.7969,273.9844 254.5938,273.9844 Q254.9531,273.9844 255.2969,273.8281 Q255.6563,273.6719 256.0313,273.3281 L256.0313,274.9375 Z "/><text fill="#000000" font-family="sans-serif" font-size="10" lengthAdjust="spacingAndGlyphs" textLength="65" x="272.25" y="275.1025">CostsMapper</text><line style="stroke: #2196F3; stroke-width: 1.5;" x1="182.5" x2="399.5" y1="285.6406" y2="285.6406"/><line style="stroke: #2196F3; stroke-width: 1.5;" x1="182.5" x2="399.5" y1="293.6406" y2="293.6406"/><text fill="#000000" font-family="sans-serif" font-size="10" lengthAdjust="spacingAndGlyphs" text-decoration="underline" textLength="127" x="187.5" y="306.9229">toModel(data): CostModel</text><text fill="#000000" font-family="sans-serif" font-size="10" lengthAdjust="spacingAndGlyphs" text-decoration="underline" textLength="207" x="187.5" y="318.5635">toResponseDto(model): CostResponseDto</text><!--MD5=[2597e99f9f798160bb4c754326c57429]
class CostResponseDto--><rect fill="#E8F4FD" filter="url(#f1bfbpinn3ihd1)" height="67.2813" id="CostResponseDto" style="stroke: #2196F3; stroke-width: 1.5;" width="132" x="68" y="383.6406"/><ellipse cx="88.2" cy="397.6406" fill="#ADD1B2" rx="9" ry="9" style="stroke: #2196F3; stroke-width: 1.0;"/><path d="M89.4813,400.9375 Q89.1375,401.1094 88.7625,401.1875 Q88.3875,401.2813 87.9656,401.2813 Q86.4969,401.2813 85.7156,400.3125 Q84.95,399.3438 84.95,397.5 Q84.95,395.6563 85.7156,394.6875 Q86.4969,393.7188 87.9656,393.7188 Q88.3875,393.7188 88.7625,393.8125 Q89.1531,393.8906 89.4813,394.0625 L89.4813,395.6719 Q89.1063,395.3281 88.7469,395.1719 Q88.4031,395.0156 88.0438,395.0156 Q87.2469,395.0156 86.8406,395.6406 Q86.4344,396.2656 86.4344,397.5 Q86.4344,398.7344 86.8406,399.3594 Q87.2469,399.9844 88.0438,399.9844 Q88.4031,399.9844 88.7469,399.8281 Q89.1063,399.6719 89.4813,399.3281 L89.4813,400.9375 Z "/><text fill="#000000" font-family="sans-serif" font-size="10" lengthAdjust="spacingAndGlyphs" textLength="88" x="101.8" y="401.1025">CostResponseDto</text><line style="stroke: #2196F3; stroke-width: 1.5;" x1="69" x2="199" y1="411.6406" y2="411.6406"/><ellipse cx="79" cy="422.6406" fill="none" rx="3" ry="3" style="stroke: #038048; stroke-width: 1.0;"/><text fill="#000000" font-family="sans-serif" font-size="10" lengthAdjust="spacingAndGlyphs" textLength="95" x="86" y="424.9229">storageGb: number</text><ellipse cx="79" cy="434.2813" fill="none" rx="3" ry="3" style="stroke: #038048; stroke-width: 1.0;"/><text fill="#000000" font-family="sans-serif" font-size="10" lengthAdjust="spacingAndGlyphs" textLength="108" x="86" y="436.5635">bandwidthGb: number</text><line style="stroke: #2196F3; stroke-width: 1.5;" x1="69" x2="199" y1="442.9219" y2="442.9219"/><!--MD5=[b7a837a50af64f7164f92043ef1e3179]
class CostModel--><rect fill="#E8F4FD" filter="url(#f1bfbpinn3ihd1)" height="67.2813" id="CostModel" style="stroke: #2196F3; stroke-width: 1.5;" width="132" x="256" y="383.6406"/><ellipse cx="292.4" cy="397.6406" fill="#ADD1B2" rx="9" ry="9" style="stroke: #2196F3; stroke-width: 1.0;"/><path d="M293.6813,400.9375 Q293.3375,401.1094 292.9625,401.1875 Q292.5875,401.2813 292.1656,401.2813 Q290.6969,401.2813 289.9156,400.3125 Q289.15,399.3438 289.15,397.5 Q289.15,395.6563 289.9156,394.6875 Q290.6969,393.7188 292.1656,393.7188 Q292.5875,393.7188 292.9625,393.8125 Q293.3531,393.8906 293.6813,394.0625 L293.6813,395.6719 Q293.3063,395.3281 292.9469,395.1719 Q292.6031,395.0156 292.2438,395.0156 Q291.4469,395.0156 291.0406,395.6406 Q290.6344,396.2656 290.6344,397.5 Q290.6344,398.7344 291.0406,399.3594 Q291.4469,399.9844 292.2438,399.9844 Q292.6031,399.9844 292.9469,399.8281 Q293.3063,399.6719 293.6813,399.3281 L293.6813,400.9375 Z "/><text fill="#000000" font-family="sans-serif" font-size="10" lengthAdjust="spacingAndGlyphs" textLength="52" x="309.6" y="401.1025">CostModel</text><line style="stroke: #2196F3; stroke-width: 1.5;" x1="257" x2="387" y1="411.6406" y2="411.6406"/><ellipse cx="267" cy="422.6406" fill="none" rx="3" ry="3" style="stroke: #038048; stroke-width: 1.0;"/><text fill="#000000" font-family="sans-serif" font-size="10" lengthAdjust="spacingAndGlyphs" textLength="95" x="274" y="424.9229">storageGb: number</text><ellipse cx="267" cy="434.2813" fill="none" rx="3" ry="3" style="stroke: #038048; stroke-width: 1.0;"/><text fill="#000000" font-family="sans-serif" font-size="10" lengthAdjust="spacingAndGlyphs" textLength="108" x="274" y="436.5635">bandwidthGb: number</text><line style="stroke: #2196F3; stroke-width: 1.5;" x1="257" x2="387" y1="442.9219" y2="442.9219"/><!--MD5=[29b0016ff8462404258061726e4942ca]
class CostData--><rect fill="#E8F4FD" filter="url(#f1bfbpinn3ihd1)" height="67.2813" id="CostData" style="stroke: #2196F3; stroke-width: 1.5;" width="132" x="154" y="491.6406"/><ellipse cx="192.75" cy="505.6406" fill="#ADD1B2" rx="9" ry="9" style="stroke: #2196F3; stroke-width: 1.0;"/><path d="M194.0313,508.9375 Q193.6875,509.1094 193.3125,509.1875 Q192.9375,509.2813 192.5156,509.2813 Q191.0469,509.2813 190.2656,508.3125 Q189.5,507.3438 189.5,505.5 Q189.5,503.6563 190.2656,502.6875 Q191.0469,501.7188 192.5156,501.7188 Q192.9375,501.7188 193.3125,501.8125 Q193.7031,501.8906 194.0313,502.0625 L194.0313,503.6719 Q193.6563,503.3281 193.2969,503.1719 Q192.9531,503.0156 192.5938,503.0156 Q191.7969,503.0156 191.3906,503.6406 Q190.9844,504.2656 190.9844,505.5 Q190.9844,506.7344 191.3906,507.3594 Q191.7969,507.9844 192.5938,507.9844 Q192.9531,507.9844 193.2969,507.8281 Q193.6563,507.6719 194.0313,507.3281 L194.0313,508.9375 Z "/><text fill="#000000" font-family="sans-serif" font-size="10" lengthAdjust="spacingAndGlyphs" textLength="47" x="210.25" y="509.1025">CostData</text><line style="stroke: #2196F3; stroke-width: 1.5;" x1="155" x2="285" y1="519.6406" y2="519.6406"/><ellipse cx="165" cy="530.6406" fill="none" rx="3" ry="3" style="stroke: #038048; stroke-width: 1.0;"/><text fill="#000000" font-family="sans-serif" font-size="10" lengthAdjust="spacingAndGlyphs" textLength="95" x="172" y="532.9229">storageGb: number</text><ellipse cx="165" cy="542.2813" fill="none" rx="3" ry="3" style="stroke: #038048; stroke-width: 1.0;"/><text fill="#000000" font-family="sans-serif" font-size="10" lengthAdjust="spacingAndGlyphs" textLength="108" x="172" y="544.5635">bandwidthGb: number</text><line style="stroke: #2196F3; stroke-width: 1.5;" x1="155" x2="285" y1="550.9219" y2="550.9219"/><!--MD5=[53a83ab8400ad4114b1934eb0a33b24f]
class JetStreamClient--><rect fill="#E8F4FD" filter="url(#f1bfbpinn3ihd1)" height="44" id="JetStreamClient" style="stroke: #2196F3; stroke-width: 1.5;" width="106" x="38" y="503.1406"/><ellipse cx="51" cy="517.1406" fill="#ADD1B2" rx="9" ry="9" style="stroke: #2196F3; stroke-width: 1.0;"/><path d="M52.2813,520.4375 Q51.9375,520.6094 51.5625,520.6875 Q51.1875,520.7813 50.7656,520.7813 Q49.2969,520.7813 48.5156,519.8125 Q47.75,518.8438 47.75,517 Q47.75,515.1563 48.5156,514.1875 Q49.2969,513.2188 50.7656,513.2188 Q51.1875,513.2188 51.5625,513.3125 Q51.9531,513.3906 52.2813,513.5625 L52.2813,515.1719 Q51.9063,514.8281 51.5469,514.6719 Q51.2031,514.5156 50.8438,514.5156 Q50.0469,514.5156 49.6406,515.1406 Q49.2344,515.7656 49.2344,517 Q49.2344,518.2344 49.6406,518.8594 Q50.0469,519.4844 50.8438,519.4844 Q51.2031,519.4844 51.5469,519.3281 Q51.9063,519.1719 52.2813,518.8281 L52.2813,520.4375 Z "/><text fill="#000000" font-family="sans-serif" font-size="10" lengthAdjust="spacingAndGlyphs" textLength="78" x="63" y="520.6025">JetStreamClient</text><line style="stroke: #2196F3; stroke-width: 1.5;" x1="39" x2="143" y1="531.1406" y2="531.1406"/><line style="stroke: #2196F3; stroke-width: 1.5;" x1="39" x2="143" y1="539.1406" y2="539.1406"/><!--MD5=[2ddc40bdb1afecefec57a799af4850a2]
class AlertsPersistenceService--><rect fill="#E8F4FD" filter="url(#f1bfbpinn3ihd1)" height="44" id="AlertsPersistenceService" style="stroke: #2196F3; stroke-width: 1.5;" width="148" x="296" y="503.1406"/><ellipse cx="309" cy="517.1406" fill="#ADD1B2" rx="9" ry="9" style="stroke: #2196F3; stroke-width: 1.0;"/><path d="M310.2813,520.4375 Q309.9375,520.6094 309.5625,520.6875 Q309.1875,520.7813 308.7656,520.7813 Q307.2969,520.7813 306.5156,519.8125 Q305.75,518.8438 305.75,517 Q305.75,515.1563 306.5156,514.1875 Q307.2969,513.2188 308.7656,513.2188 Q309.1875,513.2188 309.5625,513.3125 Q309.9531,513.3906 310.2813,513.5625 L310.2813,515.1719 Q309.9063,514.8281 309.5469,514.6719 Q309.2031,514.5156 308.8438,514.5156 Q308.0469,514.5156 307.6406,515.1406 Q307.2344,515.7656 307.2344,517 Q307.2344,518.2344 307.6406,518.8594 Q308.0469,519.4844 308.8438,519.4844 Q309.2031,519.4844 309.5469,519.3281 Q309.9063,519.1719 310.2813,518.8281 L310.2813,520.4375 Z "/><text fill="#000000" font-family="sans-serif" font-size="10" lengthAdjust="spacingAndGlyphs" textLength="120" x="321" y="520.6025">AlertsPersistenceService</text><line style="stroke: #2196F3; stroke-width: 1.5;" x1="297" x2="443" y1="531.1406" y2="531.1406"/><line style="stroke: #2196F3; stroke-width: 1.5;" x1="297" x2="443" y1="539.1406" y2="539.1406"/><!--MD5=[7b61138da6228962686b6b11e1aa7e05]
class CommandPersistenceService--><rect fill="#E8F4FD" filter="url(#f1bfbpinn3ihd1)" height="44" id="CommandPersistenceService" style="stroke: #2196F3; stroke-width: 1.5;" width="172" x="454" y="503.1406"/><ellipse cx="467" cy="517.1406" fill="#ADD1B2" rx="9" ry="9" style="stroke: #2196F3; stroke-width: 1.0;"/><path d="M468.2813,520.4375 Q467.9375,520.6094 467.5625,520.6875 Q467.1875,520.7813 466.7656,520.7813 Q465.2969,520.7813 464.5156,519.8125 Q463.75,518.8438 463.75,517 Q463.75,515.1563 464.5156,514.1875 Q465.2969,513.2188 466.7656,513.2188 Q467.1875,513.2188 467.5625,513.3125 Q467.9531,513.3906 468.2813,513.5625 L468.2813,515.1719 Q467.9063,514.8281 467.5469,514.6719 Q467.2031,514.5156 466.8438,514.5156 Q466.0469,514.5156 465.6406,515.1406 Q465.2344,515.7656 465.2344,517 Q465.2344,518.2344 465.6406,518.8594 Q466.0469,519.4844 466.8438,519.4844 Q467.2031,519.4844 467.5469,519.3281 Q467.9063,519.1719 468.2813,518.8281 L468.2813,520.4375 Z "/><text fill="#000000" font-family="sans-serif" font-size="10" lengthAdjust="spacingAndGlyphs" textLength="144" x="479" y="520.6025">CommandPersistenceService</text><line style="stroke: #2196F3; stroke-width: 1.5;" x1="455" x2="625" y1="531.1406" y2="531.1406"/><line style="stroke: #2196F3; stroke-width: 1.5;" x1="455" x2="625" y1="539.1406" y2="539.1406"/><path d="M218,19.6406 L218,76.2031 A0,0 0 0 0 218,76.2031 L287,76.2031 L291,131.4106 L295,76.2031 L364,76.2031 A0,0 0 0 0 364,76.2031 L364,29.6406 L354,19.6406 L218,19.6406 A0,0 0 0 0 218,19.6406 " fill="#FBFB77" filter="url(#f1bfbpinn3ihd1)" style="stroke: #A80036; stroke-width: 1.0;"/><path d="M354,19.6406 L354,29.6406 L364,29.6406 L354,19.6406 " fill="#FBFB77" style="stroke: #A80036; stroke-width: 1.0;"/><text fill="#000000" font-family="sans-serif" font-size="10" lengthAdjust="spacingAndGlyphs" textLength="98" x="224" y="33.9229">@Controller('costs')</text><text fill="#000000" font-family="sans-serif" font-size="10" lengthAdjust="spacingAndGlyphs" textLength="88" x="224" y="45.5635">@TenantScoped()</text><text fill="#000000" font-family="sans-serif" font-size="10" lengthAdjust="spacingAndGlyphs" textLength="125" x="224" y="57.2041">@Roles(TENANT_ADMIN)</text><text fill="#000000" font-family="sans-serif" font-size="10" lengthAdjust="spacingAndGlyphs" textLength="75" x="224" y="68.8447">Endpoint: GET /</text><path d="M658.5,119.6406 L658.5,211.125 L869.5,211.125 L869.5,129.6406 L859.5,119.6406 L658.5,119.6406 " fill="#FBFB77" filter="url(#f1bfbpinn3ihd1)" style="stroke: #A80036; stroke-width: 1.0;"/><path d="M859.5,119.6406 L859.5,129.6406 L869.5,129.6406 L859.5,119.6406 " fill="#FBFB77" style="stroke: #A80036; stroke-width: 1.0;"/><text fill="#000000" font-family="sans-serif" font-size="10" lengthAdjust="spacingAndGlyphs" textLength="93" x="664.5" y="133.9229">Business logic layer</text><text fill="#000000" font-family="sans-serif" font-size="10" lengthAdjust="spacingAndGlyphs" textLength="146" x="664.5" y="145.5635">- Validates cost data presence</text><text fill="#000000" font-family="sans-serif" font-size="10" lengthAdjust="spacingAndGlyphs" textLength="151" x="664.5" y="157.2041">- Maps CostData to CostModel</text><text fill="#000000" font-family="sans-serif" font-size="10" lengthAdjust="spacingAndGlyphs" textLength="78" x="664.5" y="168.8447">- Error handling:</text><text fill="#000000" font-family="sans-serif" font-size="10" lengthAdjust="spacingAndGlyphs" textLength="157" x="670.5" y="180.4854">* 401 -&gt; UnauthorizedException</text><text fill="#000000" font-family="sans-serif" font-size="10" lengthAdjust="spacingAndGlyphs" textLength="140" x="670.5" y="192.126">* 403 -&gt; ForbiddenException</text><text fill="#000000" font-family="sans-serif" font-size="10" lengthAdjust="spacingAndGlyphs" textLength="184" x="670.5" y="203.7666">* 405 -&gt; MethodNotAllowedException</text><path d="M658,239.6406 L658,342.7656 L956,342.7656 L956,249.6406 L946,239.6406 L658,239.6406 " fill="#FBFB77" filter="url(#f1bfbpinn3ihd1)" style="stroke: #A80036; stroke-width: 1.0;"/><path d="M946,239.6406 L946,249.6406 L956,249.6406 L946,239.6406 " fill="#FBFB77" style="stroke: #A80036; stroke-width: 1.0;"/><text fill="#000000" font-family="sans-serif" font-size="10" lengthAdjust="spacingAndGlyphs" textLength="112" x="664" y="253.9229">Data aggregation layer</text><text fill="#000000" font-family="sans-serif" font-size="10" lengthAdjust="spacingAndGlyphs" textLength="192" x="664" y="265.5635">1. Requests dataSizeAtRest from NATS</text><text fill="#000000" font-family="sans-serif" font-size="10" lengthAdjust="spacingAndGlyphs" textLength="99" x="673" y="277.2041">subject: internal.cost</text><text fill="#000000" font-family="sans-serif" font-size="10" lengthAdjust="spacingAndGlyphs" textLength="217" x="664" y="288.8447">2. Counts alerts via AlertsPersistenceService</text><text fill="#000000" font-family="sans-serif" font-size="10" lengthAdjust="spacingAndGlyphs" textLength="268" x="664" y="300.4854">3. Counts commands via CommandPersistenceService</text><text fill="#000000" font-family="sans-serif" font-size="10" lengthAdjust="spacingAndGlyphs" textLength="65" x="664" y="312.126">4. Calculates:</text><text fill="#000000" font-family="sans-serif" font-size="10" lengthAdjust="spacingAndGlyphs" textLength="184" x="673" y="323.7666">- storageGb = dataSizeAtRest / 1024³</text><text fill="#000000" font-family="sans-serif" font-size="10" lengthAdjust="spacingAndGlyphs" textLength="268" x="673" y="335.4072">- bandwidthGb = ((alerts + commands) * 1024) / 1024³</text><!--MD5=[605f51ca322a0fc16a83d38d10548268]
link CostsController to CostsService--><path d="M405.5,198.7106 C405.5,236.1806 405.5,291.6406 405.5,291.6406 C405.5,291.6406 405.99,291.6406 405.99,291.6406 " fill="none" id="CostsController-&gt;CostsService" style="stroke: #1976D2; stroke-width: 1.0;"/><polygon fill="#1976D2" points="410.35,291.6406,401.35,287.6406,405.35,291.6406,401.35,295.6406,410.35,291.6406" style="stroke: #1976D2; stroke-width: 1.0;"/><text fill="#000000" font-family="sans-serif" font-size="10" lengthAdjust="spacingAndGlyphs" textLength="22" x="443" y="228.9229">uses</text><!--MD5=[515c2813864e1c785166d68e8f43bcad]
link CostsController to CostsMapper--><path d="M291,198.9106 C291,198.9106 291,252.2806 291,252.2806 " fill="none" id="CostsController-&gt;CostsMapper" style="stroke: #1976D2; stroke-width: 1.0;"/><polygon fill="#1976D2" points="291,257.2806,295,248.2806,291,252.2806,287,248.2806,291,257.2806" style="stroke: #1976D2; stroke-width: 1.0;"/><text fill="#000000" font-family="sans-serif" font-size="10" lengthAdjust="spacingAndGlyphs" textLength="64" x="292" y="228.9229">maps to DTO</text><!--MD5=[4952199c37074cc64e2d7c2c10cfbb08]
link CostsController to CostResponseDto--><path d="M176.5,198.8606 C176.5,198.8606 176.5,378.6206 176.5,378.6206 " fill="none" id="CostsController-&gt;CostResponseDto" style="stroke: #1976D2; stroke-width: 1.0;"/><polygon fill="#1976D2" points="176.5,383.6206,180.5,374.6206,176.5,378.6206,172.5,374.6206,176.5,383.6206" style="stroke: #1976D2; stroke-width: 1.0;"/><text fill="#000000" font-family="sans-serif" font-size="10" lengthAdjust="spacingAndGlyphs" textLength="35" x="135" y="294.9229">returns</text><!--MD5=[c1d686558d9afe4550ee2a004bf8aaa0]
link CostsService to CostsPersistenceService--><path d="M545.83,324.9106 C545.83,324.9106 545.83,366.4306 545.83,366.4306 " fill="none" id="CostsService-&gt;CostsPersistenceService" style="stroke: #1976D2; stroke-width: 1.0;"/><polygon fill="#1976D2" points="545.83,371.4306,549.83,362.4306,545.83,366.4306,541.83,362.4306,545.83,371.4306" style="stroke: #1976D2; stroke-width: 1.0;"/><text fill="#000000" font-family="sans-serif" font-size="10" lengthAdjust="spacingAndGlyphs" textLength="22" x="513" y="360.9229">uses</text><!--MD5=[ebc4a979afac2f34b6bdb3b7ca81d691]
link CostsService to CostModel--><path d="M478.17,324.6906 C478.17,331.5106 478.17,336.6406 478.17,336.6406 C478.17,336.6406 344,336.6406 344,336.6406 C344,336.6406 344,378.4706 344,378.4706 " fill="none" id="CostsService-&gt;CostModel" style="stroke: #1976D2; stroke-width: 1.0;"/><polygon fill="#1976D2" points="344,383.4706,348,374.4706,344,378.4706,340,374.4706,344,383.4706" style="stroke: #1976D2; stroke-width: 1.0;"/><text fill="#000000" font-family="sans-serif" font-size="10" lengthAdjust="spacingAndGlyphs" textLength="35" x="392" y="360.9229">returns</text><!--MD5=[80f1ed58975fb5c93749f779af2452a8]
link CostsPersistenceService to JetStreamClient--><path d="M397.83,454.6406 C277.74,454.6406 106,454.6406 106,454.6406 C106,454.6406 106,497.8306 106,497.8306 " fill="none" id="CostsPersistenceService-&gt;JetStreamClient" style="stroke: #1976D2; stroke-width: 1.0;"/><polygon fill="#1976D2" points="106,502.8306,110,493.8306,106,497.8306,102,493.8306,106,502.8306" style="stroke: #1976D2; stroke-width: 1.0;"/><text fill="#000000" font-family="sans-serif" font-size="10" lengthAdjust="spacingAndGlyphs" textLength="88" x="253" y="480.9229">requests data size</text><!--MD5=[536b141b26cefe06608d6e8eaae59d8e]
link CostsPersistenceService to AlertsPersistenceService--><path d="M421,462.9406 C421,462.9406 421,498.1006 421,498.1006 " fill="none" id="CostsPersistenceService-&gt;AlertsPersistenceService" style="stroke: #1976D2; stroke-width: 1.0;"/><polygon fill="#1976D2" points="421,503.1006,425,494.1006,421,498.1006,417,494.1006,421,503.1006" style="stroke: #1976D2; stroke-width: 1.0;"/><text fill="#000000" font-family="sans-serif" font-size="10" lengthAdjust="spacingAndGlyphs" textLength="62" x="440" y="480.9229">counts alerts</text><!--MD5=[5826270eb653b5c9487c29a52065d13c]
link CostsPersistenceService to CommandPersistenceService--><path d="M540,462.9406 C540,462.9406 540,498.1006 540,498.1006 " fill="none" id="CostsPersistenceService-&gt;CommandPersistenceService" style="stroke: #1976D2; stroke-width: 1.0;"/><polygon fill="#1976D2" points="540,503.1006,544,494.1006,540,498.1006,536,494.1006,540,503.1006" style="stroke: #1976D2; stroke-width: 1.0;"/><text fill="#000000" font-family="sans-serif" font-size="10" lengthAdjust="spacingAndGlyphs" textLength="89" x="524" y="480.9229">counts commands</text><!--MD5=[c2b4fa0487c0f1e029771c2994c702dc]
link CostsPersistenceService to CostData--><path d="M397.85,458.6406 C335.56,458.6406 271,458.6406 271,458.6406 C271,458.6406 271,486.5006 271,486.5006 " fill="none" id="CostsPersistenceService-&gt;CostData" style="stroke: #1976D2; stroke-width: 1.0;"/><polygon fill="#1976D2" points="271,491.5006,275,482.5006,271,486.5006,267,482.5006,271,491.5006" style="stroke: #1976D2; stroke-width: 1.0;"/><text fill="#000000" font-family="sans-serif" font-size="10" lengthAdjust="spacingAndGlyphs" textLength="35" x="378" y="480.9229">returns</text><!--MD5=[ecae537ed90267e84601ef6b1eec64ca]
link CostsMapper to CostData--><path d="M228,324.6706 C228,324.6706 228,486.3006 228,486.3006 " fill="none" id="CostsMapper-&gt;CostData" style="stroke: #1976D2; stroke-width: 1.0;"/><polygon fill="#1976D2" points="228,491.3006,232,482.3006,228,486.3006,224,482.3006,228,491.3006" style="stroke: #1976D2; stroke-width: 1.0;"/><text fill="#000000" font-family="sans-serif" font-size="10" lengthAdjust="spacingAndGlyphs" textLength="24" x="221" y="420.9229">from</text><!--MD5=[f64046b7e1b802e6c6611b0cc6c94b83]
link CostsMapper to CostModel--><path d="M300,324.9106 C300,324.9106 300,378.2806 300,378.2806 " fill="none" id="CostsMapper-&gt;CostModel" style="stroke: #1976D2; stroke-width: 1.0;"/><polygon fill="#1976D2" points="300,383.2806,304,374.2806,300,378.2806,296,374.2806,300,383.2806" style="stroke: #1976D2; stroke-width: 1.0;"/><text fill="#000000" font-family="sans-serif" font-size="10" lengthAdjust="spacingAndGlyphs" textLength="10" x="307" y="360.9229">to</text><!--MD5=[14cb98ab06030ebaf64f7f1a71f299a4]
link CostsMapper to CostResponseDto--><path d="M190.75,324.9106 C190.75,324.9106 190.75,378.2806 190.75,378.2806 " fill="none" id="CostsMapper-&gt;CostResponseDto" style="stroke: #1976D2; stroke-width: 1.0;"/><polygon fill="#1976D2" points="190.75,383.2806,194.75,374.2806,190.75,378.2806,186.75,374.2806,190.75,383.2806" style="stroke: #1976D2; stroke-width: 1.0;"/><text fill="#000000" font-family="sans-serif" font-size="10" lengthAdjust="spacingAndGlyphs" textLength="10" x="177" y="360.9229">to</text><!--MD5=[4287a1cb13e6b5b2c1affab5aeee4022]
link GMN28 to CostsService--><path d="M658.22,204.6406 C589.26,204.6406 512,204.6406 512,204.6406 C512,204.6406 512,233.1606 512,257.4506 " fill="none" id="GMN28-CostsService" style="stroke: #1976D2; stroke-width: 1.0; stroke-dasharray: 7.0,7.0;"/><!--MD5=[300db9aef5534b01c735dc4717f660eb]
link GMN31 to CostsPersistenceService--><path d="M657.64,330.6406 C635.4,330.6406 619.75,330.6406 619.75,330.6406 C619.75,330.6406 619.75,350.7706 619.75,371.6106 " fill="none" id="GMN31-CostsPersistenceService" style="stroke: #1976D2; stroke-width: 1.0; stroke-dasharray: 7.0,7.0;"/><!--MD5=[2a184f07a740e4d1120d63ee8c501866]
@startuml
title Costs Module - Class Diagram

skinparam backgroundColor #FFFFFF
skinparam defaultFontSize 10
skinparam defaultFontColor #000000
skinparam class {
  BackgroundColor #E8F4FD
  BorderColor #2196F3
  ArrowColor #1976D2
}
skinparam nodesep 10
skinparam ranksep 10
skinparam linetype ortho
skinparam packageStyle rectangle

package "costs" <<Rectangle>> {
  class "CostsController" as CostsController {
    -cs: CostsService
    +getTenantCost(tenantId): CostResponseDto
  }

  class "CostsService" as CostsService {
    -cps: CostsPersistenceService
    +getTenantCost(tenantId): CostModel
  }

  class "CostsPersistenceService" as CostsPersistenceService {
    -nats: JetStreamClient
    -alerts: AlertsPersistenceService
    -commands: CommandPersistenceService
    +getTenantCost(tenantId): CostData
  }

  class "CostsMapper" as CostsMapper {
    {static} toModel(data): CostModel
    {static} toResponseDto(model): CostResponseDto
  }

  class "CostResponseDto" as CostResponseDto {
    +storageGb: number
    +bandwidthGb: number
  }

  class "CostModel" as CostModel {
    +storageGb: number
    +bandwidthGb: number
  }

  class "CostData" as CostData {
    +storageGb: number
    +bandwidthGb: number
  }

  class "JetStreamClient" as JetStreamClient
  class "AlertsPersistenceService" as AlertsPersistenceService
  class "CommandPersistenceService" as CommandPersistenceService

  CostsController - -> CostsService : uses
  CostsController - -> CostsMapper : maps to DTO
  CostsController - -> CostResponseDto : returns

  CostsService - -> CostsPersistenceService : uses
  CostsService - -> CostModel : returns

  CostsPersistenceService - -> JetStreamClient : requests data size
  CostsPersistenceService - -> AlertsPersistenceService : counts alerts
  CostsPersistenceService - -> CommandPersistenceService : counts commands
  CostsPersistenceService - -> CostData : returns

  CostsMapper - -> CostData : from
  CostsMapper - -> CostModel : to
  CostsMapper - -> CostResponseDto : to
}

note top of CostsController
  @Controller('costs')
  @TenantScoped()
  @Roles(TENANT_ADMIN)
  Endpoint: GET /
end note

note top of CostsService
  Business logic layer
  - Validates cost data presence
  - Maps CostData to CostModel
  - Error handling:
    * 401 -> UnauthorizedException
    * 403 -> ForbiddenException
    * 405 -> MethodNotAllowedException
end note

note top of CostsPersistenceService
  Data aggregation layer
  1. Requests dataSizeAtRest from NATS
     subject: internal.cost
  2. Counts alerts via AlertsPersistenceService
  3. Counts commands via CommandPersistenceService
  4. Calculates:
     - storageGb = dataSizeAtRest / 1024³
     - bandwidthGb = ((alerts + commands) * 1024) / 1024³
end note

@enduml

PlantUML version 1.2020.02(Sun Mar 01 11:22:07 CET 2020)
(GPL source distribution)
Java Runtime: OpenJDK Runtime Environment
JVM: OpenJDK 64-Bit Server VM
Java Version: 21.0.10+7-Ubuntu-124.04
Operating System: Linux
Default Encoding: UTF-8
Language: en
Country: null
--></g></svg>