<?plantuml 1.2026.2?><svg xmlns="http://www.w3.org/2000/svg" xmlns:xlink="http://www.w3.org/1999/xlink" contentStyleType="text/css" data-diagram-type="CLASS" height="714px" preserveAspectRatio="none" style="width:1043px;height:714px;background:#FFFFFF;" version="1.1" viewBox="0 0 1043 714" width="1043px" zoomAndPan="magnify"><title>Costs Module - Class Diagram</title><defs/><g><g class="title" data-source-line="1"><text fill="#000000" font-family="sans-serif" font-size="14" font-weight="bold" lengthAdjust="spacing" textLength="234.4043" x="397.3662" y="22.9951">Costs Module - Class Diagram</text></g><!--cluster costs--><g class="cluster" data-qualified-name="costs" data-source-line="14" id="ent0002"><rect fill="none" height="566" rx="2.5" ry="2.5" style="stroke:#181818;stroke-width:1;" width="705" x="7" y="142.2969"/><text fill="#000000" font-family="sans-serif" font-size="10" font-weight="bold" lengthAdjust="spacing" textLength="29.4824" x="344.7588" y="153.5791">costs</text></g><!--class CostsController--><g class="entity" data-qualified-name="costs.CostsController" data-source-line="15" id="ent0003"><rect fill="#E8F4FD" height="67.2813" rx="2.5" ry="2.5" style="stroke:#2196F3;stroke-width:0.5;" width="242.5303" x="116.5" y="172.2969"/><ellipse cx="195.5898" cy="186.2969" fill="#ADD1B2" rx="9" ry="9" style="stroke:#181818;stroke-width:1;"/><path d="M196.8711,189.5938 Q196.5273,189.7656 196.1523,189.8438 Q195.7773,189.9375 195.3555,189.9375 Q193.8867,189.9375 193.1055,188.9688 Q192.3398,188 192.3398,186.1563 Q192.3398,184.3125 193.1055,183.3438 Q193.8867,182.375 195.3555,182.375 Q195.7773,182.375 196.1523,182.4688 Q196.543,182.5469 196.8711,182.7188 L196.8711,184.3281 Q196.4961,183.9844 196.1367,183.8281 Q195.793,183.6719 195.4336,183.6719 Q194.6367,183.6719 194.2305,184.2969 Q193.8242,184.9219 193.8242,186.1563 Q193.8242,187.3906 194.2305,188.0156 Q194.6367,188.6406 195.4336,188.6406 Q195.793,188.6406 196.1367,188.4844 Q196.4961,188.3281 196.8711,187.9844 L196.8711,189.5938 Z " fill="#000000"/><text fill="#000000" font-family="sans-serif" font-size="10" lengthAdjust="spacing" textLength="76.8506" x="213.0898" y="189.7588">CostsController</text><line style="stroke:#2196F3;stroke-width:0.5;" x1="117.5" x2="358.0303" y1="200.2969" y2="200.2969"/><g data-visibility-modifier="PRIVATE_FIELD"><rect fill="none" height="6" style="stroke:#C82930;stroke-width:1;" width="6" x="124.5" y="208.6172"/></g><text fill="#000000" font-family="sans-serif" font-size="10" lengthAdjust="spacing" textLength="81.6553" x="134.5" y="213.5791">cs: CostsService</text><line style="stroke:#2196F3;stroke-width:0.5;" x1="117.5" x2="358.0303" y1="219.9375" y2="219.9375"/><g data-visibility-modifier="PUBLIC_METHOD"><ellipse cx="127.5" cy="231.2578" fill="#84BE84" rx="3" ry="3" style="stroke:#038048;stroke-width:1;"/></g><text fill="#000000" font-family="sans-serif" font-size="10" lengthAdjust="spacing" textLength="218.5303" x="134.5" y="233.2197">getTenantCost(tenantId): CostResponseDto</text></g><!--class CostsService--><g class="entity" data-qualified-name="costs.CostsService" data-source-line="20" id="ent0004"><rect fill="#E8F4FD" height="67.2813" rx="2.5" ry="2.5" style="stroke:#2196F3;stroke-width:0.5;" width="206.3389" x="399" y="329.2969"/><ellipse cx="466.2197" cy="343.2969" fill="#ADD1B2" rx="9" ry="9" style="stroke:#181818;stroke-width:1;"/><path d="M467.501,346.5938 Q467.1572,346.7656 466.7822,346.8438 Q466.4072,346.9375 465.9854,346.9375 Q464.5166,346.9375 463.7354,345.9688 Q462.9697,345 462.9697,343.1563 Q462.9697,341.3125 463.7354,340.3438 Q464.5166,339.375 465.9854,339.375 Q466.4072,339.375 466.7822,339.4688 Q467.1729,339.5469 467.501,339.7188 L467.501,341.3281 Q467.126,340.9844 466.7666,340.8281 Q466.4229,340.6719 466.0635,340.6719 Q465.2666,340.6719 464.8604,341.2969 Q464.4541,341.9219 464.4541,343.1563 Q464.4541,344.3906 464.8604,345.0156 Q465.2666,345.6406 466.0635,345.6406 Q466.4229,345.6406 466.7666,345.4844 Q467.126,345.3281 467.501,344.9844 L467.501,346.5938 Z " fill="#000000"/><text fill="#000000" font-family="sans-serif" font-size="10" lengthAdjust="spacing" textLength="64.3994" x="483.7197" y="346.7588">CostsService</text><line style="stroke:#2196F3;stroke-width:0.5;" x1="400" x2="604.3389" y1="357.2969" y2="357.2969"/><g data-visibility-modifier="PRIVATE_FIELD"><rect fill="none" height="6" style="stroke:#C82930;stroke-width:1;" width="6" x="407" y="365.6172"/></g><text fill="#000000" font-family="sans-serif" font-size="10" lengthAdjust="spacing" textLength="145.5566" x="417" y="370.5791">cps: CostsPersistenceService</text><line style="stroke:#2196F3;stroke-width:0.5;" x1="400" x2="604.3389" y1="376.9375" y2="376.9375"/><g data-visibility-modifier="PUBLIC_METHOD"><ellipse cx="410" cy="388.2578" fill="#84BE84" rx="3" ry="3" style="stroke:#038048;stroke-width:1;"/></g><text fill="#000000" font-family="sans-serif" font-size="10" lengthAdjust="spacing" textLength="182.3389" x="417" y="390.2197">getTenantCost(tenantId): CostModel</text></g><!--class CostsPersistenceService--><g class="entity" data-qualified-name="costs.CostsPersistenceService" data-source-line="25" id="ent0005"><rect fill="#E8F4FD" height="90.5625" rx="2.5" ry="2.5" style="stroke:#2196F3;stroke-width:0.5;" width="231.5781" x="402" y="474.2969"/><ellipse cx="453.0625" cy="488.2969" fill="#ADD1B2" rx="9" ry="9" style="stroke:#181818;stroke-width:1;"/><path d="M454.3438,491.5938 Q454,491.7656 453.625,491.8438 Q453.25,491.9375 452.8281,491.9375 Q451.3594,491.9375 450.5781,490.9688 Q449.8125,490 449.8125,488.1563 Q449.8125,486.3125 450.5781,485.3438 Q451.3594,484.375 452.8281,484.375 Q453.25,484.375 453.625,484.4688 Q454.0156,484.5469 454.3438,484.7188 L454.3438,486.3281 Q453.9688,485.9844 453.6094,485.8281 Q453.2656,485.6719 452.9063,485.6719 Q452.1094,485.6719 451.7031,486.2969 Q451.2969,486.9219 451.2969,488.1563 Q451.2969,489.3906 451.7031,490.0156 Q452.1094,490.6406 452.9063,490.6406 Q453.2656,490.6406 453.6094,490.4844 Q453.9688,490.3281 454.3438,489.9844 L454.3438,491.5938 Z " fill="#000000"/><text fill="#000000" font-family="sans-serif" font-size="10" lengthAdjust="spacing" textLength="121.9531" x="470.5625" y="491.7588">CostsPersistenceService</text><line style="stroke:#2196F3;stroke-width:0.5;" x1="403" x2="632.5781" y1="502.2969" y2="502.2969"/><g data-visibility-modifier="PRIVATE_FIELD"><rect fill="none" height="6" style="stroke:#C82930;stroke-width:1;" width="6" x="410" y="510.6172"/></g><text fill="#000000" font-family="sans-serif" font-size="10" lengthAdjust="spacing" textLength="106.5186" x="420" y="515.5791">nats: JetStreamClient</text><g data-visibility-modifier="PRIVATE_FIELD"><rect fill="none" height="6" style="stroke:#C82930;stroke-width:1;" width="6" x="410" y="522.2578"/></g><text fill="#000000" font-family="sans-serif" font-size="10" lengthAdjust="spacing" textLength="158.374" x="420" y="527.2197">alerts: AlertsPersistenceService</text><g data-visibility-modifier="PRIVATE_FIELD"><rect fill="none" height="6" style="stroke:#C82930;stroke-width:1;" width="6" x="410" y="533.8984"/></g><text fill="#000000" font-family="sans-serif" font-size="10" lengthAdjust="spacing" textLength="207.5781" x="420" y="538.8604">commands: CommandPersistenceService</text><line style="stroke:#2196F3;stroke-width:0.5;" x1="403" x2="632.5781" y1="545.2188" y2="545.2188"/><g data-visibility-modifier="PUBLIC_METHOD"><ellipse cx="413" cy="556.5391" fill="#84BE84" rx="3" ry="3" style="stroke:#038048;stroke-width:1;"/></g><text fill="#000000" font-family="sans-serif" font-size="10" lengthAdjust="spacing" textLength="176.1914" x="420" y="558.501">getTenantCost(tenantId): CostData</text></g><!--class CostsMapper--><g class="entity" data-qualified-name="costs.CostsMapper" data-source-line="32" id="ent0006"><rect fill="#E8F4FD" height="67.2813" rx="2.5" ry="2.5" style="stroke:#2196F3;stroke-width:0.5;" width="222.1904" x="127" y="329.2969"/><ellipse cx="201.7671" cy="343.2969" fill="#ADD1B2" rx="9" ry="9" style="stroke:#181818;stroke-width:1;"/><path d="M203.0483,346.5938 Q202.7046,346.7656 202.3296,346.8438 Q201.9546,346.9375 201.5327,346.9375 Q200.064,346.9375 199.2827,345.9688 Q198.5171,345 198.5171,343.1563 Q198.5171,341.3125 199.2827,340.3438 Q200.064,339.375 201.5327,339.375 Q201.9546,339.375 202.3296,339.4688 Q202.7202,339.5469 203.0483,339.7188 L203.0483,341.3281 Q202.6733,340.9844 202.314,340.8281 Q201.9702,340.6719 201.6108,340.6719 Q200.814,340.6719 200.4077,341.2969 Q200.0015,341.9219 200.0015,343.1563 Q200.0015,344.3906 200.4077,345.0156 Q200.814,345.6406 201.6108,345.6406 Q201.9702,345.6406 202.314,345.4844 Q202.6733,345.3281 203.0483,344.9844 L203.0483,346.5938 Z " fill="#000000"/><text fill="#000000" font-family="sans-serif" font-size="10" lengthAdjust="spacing" textLength="65.1563" x="219.2671" y="346.7588">CostsMapper</text><line style="stroke:#2196F3;stroke-width:0.5;" x1="128" x2="348.1904" y1="357.2969" y2="357.2969"/><line style="stroke:#2196F3;stroke-width:0.5;" x1="128" x2="348.1904" y1="365.2969" y2="365.2969"/><text fill="#000000" font-family="sans-serif" font-size="10" lengthAdjust="spacing" text-decoration="underline" textLength="129.1943" x="133" y="378.5791">toModel(data): CostModel</text><text fill="#000000" font-family="sans-serif" font-size="10" lengthAdjust="spacing" text-decoration="underline" textLength="210.1904" x="133" y="390.2197">toResponseDto(model): CostResponseDto</text></g><!--class CostResponseDto--><g class="entity" data-qualified-name="costs.CostResponseDto" data-source-line="37" id="ent0007"><rect fill="#E8F4FD" height="67.2813" rx="2.5" ry="2.5" style="stroke:#2196F3;stroke-width:0.5;" width="136.3975" x="23" y="486.2969"/><ellipse cx="44.9776" cy="500.2969" fill="#ADD1B2" rx="9" ry="9" style="stroke:#181818;stroke-width:1;"/><path d="M46.2588,503.5938 Q45.9151,503.7656 45.5401,503.8438 Q45.1651,503.9375 44.7432,503.9375 Q43.2745,503.9375 42.4932,502.9688 Q41.7276,502 41.7276,500.1563 Q41.7276,498.3125 42.4932,497.3438 Q43.2745,496.375 44.7432,496.375 Q45.1651,496.375 45.5401,496.4688 Q45.9307,496.5469 46.2588,496.7188 L46.2588,498.3281 Q45.8838,497.9844 45.5245,497.8281 Q45.1807,497.6719 44.8213,497.6719 Q44.0245,497.6719 43.6182,498.2969 Q43.212,498.9219 43.212,500.1563 Q43.212,501.3906 43.6182,502.0156 Q44.0245,502.6406 44.8213,502.6406 Q45.1807,502.6406 45.5245,502.4844 Q45.8838,502.3281 46.2588,501.9844 L46.2588,503.5938 Z " fill="#000000"/><text fill="#000000" font-family="sans-serif" font-size="10" lengthAdjust="spacing" textLength="88.4473" x="58.9726" y="503.7588">CostResponseDto</text><line style="stroke:#2196F3;stroke-width:0.5;" x1="24" x2="158.3975" y1="514.2969" y2="514.2969"/><g data-visibility-modifier="PUBLIC_FIELD"><ellipse cx="34" cy="525.6172" fill="none" rx="3" ry="3" style="stroke:#038048;stroke-width:1;"/></g><text fill="#000000" font-family="sans-serif" font-size="10" lengthAdjust="spacing" textLength="97.6611" x="41" y="527.5791">storageGb: number</text><g data-visibility-modifier="PUBLIC_FIELD"><ellipse cx="34" cy="537.2578" fill="none" rx="3" ry="3" style="stroke:#038048;stroke-width:1;"/></g><text fill="#000000" font-family="sans-serif" font-size="10" lengthAdjust="spacing" textLength="112.3975" x="41" y="539.2197">bandwidthGb: number</text><line style="stroke:#2196F3;stroke-width:0.5;" x1="24" x2="158.3975" y1="545.5781" y2="545.5781"/></g><!--class CostModel--><g class="entity" data-qualified-name="costs.CostModel" data-source-line="42" id="ent0008"><rect fill="#E8F4FD" height="67.2813" rx="2.5" ry="2.5" style="stroke:#2196F3;stroke-width:0.5;" width="136.3975" x="231" y="486.2969"/><ellipse cx="269.3208" cy="500.2969" fill="#ADD1B2" rx="9" ry="9" style="stroke:#181818;stroke-width:1;"/><path d="M270.6021,503.5938 Q270.2583,503.7656 269.8833,503.8438 Q269.5083,503.9375 269.0864,503.9375 Q267.6177,503.9375 266.8364,502.9688 Q266.0708,502 266.0708,500.1563 Q266.0708,498.3125 266.8364,497.3438 Q267.6177,496.375 269.0864,496.375 Q269.5083,496.375 269.8833,496.4688 Q270.2739,496.5469 270.6021,496.7188 L270.6021,498.3281 Q270.2271,497.9844 269.8677,497.8281 Q269.5239,497.6719 269.1646,497.6719 Q268.3677,497.6719 267.9614,498.2969 Q267.5552,498.9219 267.5552,500.1563 Q267.5552,501.3906 267.9614,502.0156 Q268.3677,502.6406 269.1646,502.6406 Q269.5239,502.6406 269.8677,502.4844 Q270.2271,502.3281 270.6021,501.9844 L270.6021,503.5938 Z " fill="#000000"/><text fill="#000000" font-family="sans-serif" font-size="10" lengthAdjust="spacing" textLength="52.2559" x="286.8208" y="503.7588">CostModel</text><line style="stroke:#2196F3;stroke-width:0.5;" x1="232" x2="366.3975" y1="514.2969" y2="514.2969"/><g data-visibility-modifier="PUBLIC_FIELD"><ellipse cx="242" cy="525.6172" fill="none" rx="3" ry="3" style="stroke:#038048;stroke-width:1;"/></g><text fill="#000000" font-family="sans-serif" font-size="10" lengthAdjust="spacing" textLength="97.6611" x="249" y="527.5791">storageGb: number</text><g data-visibility-modifier="PUBLIC_FIELD"><ellipse cx="242" cy="537.2578" fill="none" rx="3" ry="3" style="stroke:#038048;stroke-width:1;"/></g><text fill="#000000" font-family="sans-serif" font-size="10" lengthAdjust="spacing" textLength="112.3975" x="249" y="539.2197">bandwidthGb: number</text><line style="stroke:#2196F3;stroke-width:0.5;" x1="232" x2="366.3975" y1="545.5781" y2="545.5781"/></g><!--class CostData--><g class="entity" data-qualified-name="costs.CostData" data-source-line="47" id="ent0009"><rect fill="#E8F4FD" height="67.2813" rx="2.5" ry="2.5" style="stroke:#2196F3;stroke-width:0.5;" width="136.3975" x="23" y="625.2969"/><ellipse cx="64.3945" cy="639.2969" fill="#ADD1B2" rx="9" ry="9" style="stroke:#181818;stroke-width:1;"/><path d="M65.6758,642.5938 Q65.332,642.7656 64.957,642.8438 Q64.582,642.9375 64.1602,642.9375 Q62.6914,642.9375 61.9102,641.9688 Q61.1445,641 61.1445,639.1563 Q61.1445,637.3125 61.9102,636.3438 Q62.6914,635.375 64.1602,635.375 Q64.582,635.375 64.957,635.4688 Q65.3477,635.5469 65.6758,635.7188 L65.6758,637.3281 Q65.3008,636.9844 64.9414,636.8281 Q64.5977,636.6719 64.2383,636.6719 Q63.4414,636.6719 63.0352,637.2969 Q62.6289,637.9219 62.6289,639.1563 Q62.6289,640.3906 63.0352,641.0156 Q63.4414,641.6406 64.2383,641.6406 Q64.5977,641.6406 64.9414,641.4844 Q65.3008,641.3281 65.6758,640.9844 L65.6758,642.5938 Z " fill="#000000"/><text fill="#000000" font-family="sans-serif" font-size="10" lengthAdjust="spacing" textLength="46.1084" x="81.8945" y="642.7588">CostData</text><line style="stroke:#2196F3;stroke-width:0.5;" x1="24" x2="158.3975" y1="653.2969" y2="653.2969"/><g data-visibility-modifier="PUBLIC_FIELD"><ellipse cx="34" cy="664.6172" fill="none" rx="3" ry="3" style="stroke:#038048;stroke-width:1;"/></g><text fill="#000000" font-family="sans-serif" font-size="10" lengthAdjust="spacing" textLength="97.6611" x="41" y="666.5791">storageGb: number</text><g data-visibility-modifier="PUBLIC_FIELD"><ellipse cx="34" cy="676.2578" fill="none" rx="3" ry="3" style="stroke:#038048;stroke-width:1;"/></g><text fill="#000000" font-family="sans-serif" font-size="10" lengthAdjust="spacing" textLength="112.3975" x="41" y="678.2197">bandwidthGb: number</text><line style="stroke:#2196F3;stroke-width:0.5;" x1="24" x2="158.3975" y1="684.5781" y2="684.5781"/></g><!--class JetStreamClient--><g class="entity" data-qualified-name="costs.JetStreamClient" data-source-line="52" id="ent0010"><rect fill="#E8F4FD" height="44" rx="2.5" ry="2.5" style="stroke:#2196F3;stroke-width:0.5;" width="106.374" x="590" y="636.7969"/><ellipse cx="603" cy="650.7969" fill="#ADD1B2" rx="9" ry="9" style="stroke:#181818;stroke-width:1;"/><path d="M604.2813,654.0938 Q603.9375,654.2656 603.5625,654.3438 Q603.1875,654.4375 602.7656,654.4375 Q601.2969,654.4375 600.5156,653.4688 Q599.75,652.5 599.75,650.6563 Q599.75,648.8125 600.5156,647.8438 Q601.2969,646.875 602.7656,646.875 Q603.1875,646.875 603.5625,646.9688 Q603.9531,647.0469 604.2813,647.2188 L604.2813,648.8281 Q603.9063,648.4844 603.5469,648.3281 Q603.2031,648.1719 602.8438,648.1719 Q602.0469,648.1719 601.6406,648.7969 Q601.2344,649.4219 601.2344,650.6563 Q601.2344,651.8906 601.6406,652.5156 Q602.0469,653.1406 602.8438,653.1406 Q603.2031,653.1406 603.5469,652.9844 Q603.9063,652.8281 604.2813,652.4844 L604.2813,654.0938 Z " fill="#000000"/><text fill="#000000" font-family="sans-serif" font-size="10" lengthAdjust="spacing" textLength="78.374" x="615" y="654.2588">JetStreamClient</text><line style="stroke:#2196F3;stroke-width:0.5;" x1="591" x2="695.374" y1="664.7969" y2="664.7969"/><line style="stroke:#2196F3;stroke-width:0.5;" x1="591" x2="695.374" y1="672.7969" y2="672.7969"/></g><!--class AlertsPersistenceService--><g class="entity" data-qualified-name="costs.AlertsPersistenceService" data-source-line="53" id="ent0011"><rect fill="#E8F4FD" height="44" rx="2.5" ry="2.5" style="stroke:#2196F3;stroke-width:0.5;" width="151.5254" x="194" y="636.7969"/><ellipse cx="207" cy="650.7969" fill="#ADD1B2" rx="9" ry="9" style="stroke:#181818;stroke-width:1;"/><path d="M208.2813,654.0938 Q207.9375,654.2656 207.5625,654.3438 Q207.1875,654.4375 206.7656,654.4375 Q205.2969,654.4375 204.5156,653.4688 Q203.75,652.5 203.75,650.6563 Q203.75,648.8125 204.5156,647.8438 Q205.2969,646.875 206.7656,646.875 Q207.1875,646.875 207.5625,646.9688 Q207.9531,647.0469 208.2813,647.2188 L208.2813,648.8281 Q207.9063,648.4844 207.5469,648.3281 Q207.2031,648.1719 206.8438,648.1719 Q206.0469,648.1719 205.6406,648.7969 Q205.2344,649.4219 205.2344,650.6563 Q205.2344,651.8906 205.6406,652.5156 Q206.0469,653.1406 206.8438,653.1406 Q207.2031,653.1406 207.5469,652.9844 Q207.9063,652.8281 208.2813,652.4844 L208.2813,654.0938 Z " fill="#000000"/><text fill="#000000" font-family="sans-serif" font-size="10" lengthAdjust="spacing" textLength="123.5254" x="219" y="654.2588">AlertsPersistenceService</text><line style="stroke:#2196F3;stroke-width:0.5;" x1="195" x2="344.5254" y1="664.7969" y2="664.7969"/><line style="stroke:#2196F3;stroke-width:0.5;" x1="195" x2="344.5254" y1="672.7969" y2="672.7969"/></g><!--class CommandPersistenceService--><g class="entity" data-qualified-name="costs.CommandPersistenceService" data-source-line="54" id="ent0012"><rect fill="#E8F4FD" height="44" rx="2.5" ry="2.5" style="stroke:#2196F3;stroke-width:0.5;" width="173.9082" x="381" y="636.7969"/><ellipse cx="394" cy="650.7969" fill="#ADD1B2" rx="9" ry="9" style="stroke:#181818;stroke-width:1;"/><path d="M395.2813,654.0938 Q394.9375,654.2656 394.5625,654.3438 Q394.1875,654.4375 393.7656,654.4375 Q392.2969,654.4375 391.5156,653.4688 Q390.75,652.5 390.75,650.6563 Q390.75,648.8125 391.5156,647.8438 Q392.2969,646.875 393.7656,646.875 Q394.1875,646.875 394.5625,646.9688 Q394.9531,647.0469 395.2813,647.2188 L395.2813,648.8281 Q394.9063,648.4844 394.5469,648.3281 Q394.2031,648.1719 393.8438,648.1719 Q393.0469,648.1719 392.6406,648.7969 Q392.2344,649.4219 392.2344,650.6563 Q392.2344,651.8906 392.6406,652.5156 Q393.0469,653.1406 393.8438,653.1406 Q394.2031,653.1406 394.5469,652.9844 Q394.9063,652.8281 395.2813,652.4844 L395.2813,654.0938 Z " fill="#000000"/><text fill="#000000" font-family="sans-serif" font-size="10" lengthAdjust="spacing" textLength="145.9082" x="406" y="654.2588">CommandPersistenceService</text><line style="stroke:#2196F3;stroke-width:0.5;" x1="382" x2="553.9082" y1="664.7969" y2="664.7969"/><line style="stroke:#2196F3;stroke-width:0.5;" x1="382" x2="553.9082" y1="672.7969" y2="672.7969"/></g><g class="entity" data-qualified-name="GMN25" data-source-line="74" id="ent0026"><path d="M165.5,43.2969 L165.5,99.8594 A0,0 0 0 0 165.5,99.8594 L234,99.8594 L238,171.8869 L242,99.8594 L310.4453,99.8594 A0,0 0 0 0 310.4453,99.8594 L310.4453,53.2969 L300.4453,43.2969 L165.5,43.2969 A0,0 0 0 0 165.5,43.2969" fill="#FEFFDD" style="stroke:#181818;stroke-width:0.5;"/><path d="M300.4453,43.2969 L300.4453,53.2969 L310.4453,53.2969 L300.4453,43.2969" fill="#FEFFDD" style="stroke:#181818;stroke-width:0.5;"/><text fill="#000000" font-family="sans-serif" font-size="10" lengthAdjust="spacing" textLength="98.667" x="171.5" y="57.5791">@Controller('costs')</text><text fill="#000000" font-family="sans-serif" font-size="10" lengthAdjust="spacing" textLength="89.5996" x="171.5" y="69.2197">@TenantScoped()</text><text fill="#000000" font-family="sans-serif" font-size="10" lengthAdjust="spacing" textLength="123.9453" x="171.5" y="80.8604">@Roles(TENANT_ADMIN)</text><text fill="#000000" font-family="sans-serif" font-size="10" lengthAdjust="spacing" textLength="77.7783" x="171.5" y="92.501">Endpoint: GET /</text></g><g class="entity" data-qualified-name="GMN28" data-source-line="81" id="ent0029"><path d="M728.5,160.2969 L728.5,251.7813 L945.0762,251.7813 L945.0762,170.2969 L935.0762,160.2969 L728.5,160.2969" fill="#FEFFDD" style="stroke:#181818;stroke-width:0.5;"/><path d="M935.0762,160.2969 L935.0762,170.2969 L945.0762,170.2969 L935.0762,160.2969" fill="#FEFFDD" style="stroke:#181818;stroke-width:1;"/><text fill="#000000" font-family="sans-serif" font-size="10" lengthAdjust="spacing" textLength="99.0625" x="734.5" y="174.5791">Business logic layer</text><text fill="#000000" font-family="sans-serif" font-size="10" lengthAdjust="spacing" textLength="151.8408" x="734.5" y="186.2197">- Validates cost data presence</text><text fill="#000000" font-family="sans-serif" font-size="10" lengthAdjust="spacing" textLength="151.04" x="734.5" y="197.8604">- Maps CostData to CostModel</text><text fill="#000000" font-family="sans-serif" font-size="10" lengthAdjust="spacing" textLength="81.499" x="734.5" y="209.501">- Error handling:</text><text fill="#000000" font-family="sans-serif" font-size="10" lengthAdjust="spacing" textLength="162.1387" x="740.8574" y="221.1416">* 401 -&gt; UnauthorizedException</text><text fill="#000000" font-family="sans-serif" font-size="10" lengthAdjust="spacing" textLength="145.293" x="740.8574" y="232.7822">* 403 -&gt; ForbiddenException</text><text fill="#000000" font-family="sans-serif" font-size="10" lengthAdjust="spacing" textLength="189.2188" x="740.8574" y="244.4229">* 405 -&gt; MethodNotAllowedException</text></g><g class="entity" data-qualified-name="GMN31" data-source-line="91" id="ent0032"><path d="M727.5,311.2969 L727.5,414.4219 L1036.1367,414.4219 L1036.1367,321.2969 L1026.1367,311.2969 L727.5,311.2969" fill="#FEFFDD" style="stroke:#181818;stroke-width:0.5;"/><path d="M1026.1367,311.2969 L1026.1367,321.2969 L1036.1367,321.2969 L1026.1367,311.2969" fill="#FEFFDD" style="stroke:#181818;stroke-width:1;"/><text fill="#000000" font-family="sans-serif" font-size="10" lengthAdjust="spacing" textLength="116.04" x="733.5" y="325.5791">Data aggregation layer</text><text fill="#000000" font-family="sans-serif" font-size="10" lengthAdjust="spacing" textLength="194.8486" x="733.5" y="337.2197">1. Requests dataSizeAtRest from NATS</text><text fill="#000000" font-family="sans-serif" font-size="10" lengthAdjust="spacing" textLength="105.2637" x="743.0361" y="348.8604">subject: internal.cost</text><text fill="#000000" font-family="sans-serif" font-size="10" lengthAdjust="spacing" textLength="223.8135" x="733.5" y="360.501">2. Counts alerts via AlertsPersistenceService</text><text fill="#000000" font-family="sans-serif" font-size="10" lengthAdjust="spacing" textLength="273.0176" x="733.5" y="372.1416">3. Counts commands via CommandPersistenceService</text><text fill="#000000" font-family="sans-serif" font-size="10" lengthAdjust="spacing" textLength="68.0029" x="733.5" y="383.7822">4. Calculates:</text><text fill="#000000" font-family="sans-serif" font-size="10" lengthAdjust="spacing" textLength="188.8379" x="743.0361" y="395.4229">- storageGb = dataSizeAtRest / 1024&#179;</text><text fill="#000000" font-family="sans-serif" font-size="10" lengthAdjust="spacing" textLength="278.1006" x="743.0361" y="407.0635">- bandwidthGb = ((alerts + commands) * 1024) / 1024&#179;</text></g><!--link CostsController to CostsService--><g class="link" data-entity-1="ent0003" data-entity-2="ent0004" data-link-type="dependency" data-source-line="56" id="lnk13"><path codeLine="56" d="M354.25,239.4069 C354.25,282.6569 354.25,352.2969 354.25,352.2969 C354.25,352.2969 367.96,352.2969 392.98,352.2969" fill="none" id="CostsController-to-CostsService" style="stroke:#1976D2;stroke-width:1;"/><polygon fill="#1976D2" points="398.98,352.2969,389.98,348.2969,393.98,352.2969,389.98,356.2969,398.98,352.2969" style="stroke:#1976D2;stroke-width:1;"/><text fill="#000000" font-family="sans-serif" font-size="10" lengthAdjust="spacing" textLength="22.9102" x="331.25" y="315.4991">uses</text></g><!--link CostsController to CostsMapper--><g class="link" data-entity-1="ent0003" data-entity-2="ent0006" data-link-type="dependency" data-source-line="57" id="lnk14"><path codeLine="57" d="M238,239.4769 C238,265.9669 238,296.6969 238,323.1769" fill="none" id="CostsController-to-CostsMapper" style="stroke:#1976D2;stroke-width:1;"/><polygon fill="#1976D2" points="238,329.1769,242,320.1769,238,324.1769,234,320.1769,238,329.1769" style="stroke:#1976D2;stroke-width:1;"/><text fill="#000000" font-family="sans-serif" font-size="10" lengthAdjust="spacing" textLength="65.5029" x="172" y="281.6091">maps to DTO</text></g><!--link CostsController to CostResponseDto--><g class="link" data-entity-1="ent0003" data-entity-2="ent0007" data-link-type="dependency" data-source-line="58" id="lnk15"><path codeLine="58" d="M121.75,239.3969 C121.75,299.6769 121.75,419.5169 121.75,479.9569" fill="none" id="CostsController-to-CostResponseDto" style="stroke:#1976D2;stroke-width:1;"/><polygon fill="#1976D2" points="121.75,485.9569,125.75,476.9569,121.75,480.9569,117.75,476.9569,121.75,485.9569" style="stroke:#1976D2;stroke-width:1;"/><text fill="#000000" font-family="sans-serif" font-size="10" lengthAdjust="spacing" textLength="36.1816" x="84.75" y="359.9591">returns</text></g><!--link CostsService to CostsPersistenceService--><g class="link" data-entity-1="ent0004" data-entity-2="ent0005" data-link-type="dependency" data-source-line="60" id="lnk16"><path codeLine="60" d="M503.5,396.4769 C503.5,419.1869 503.5,443.4069 503.5,468.2569" fill="none" id="CostsService-to-CostsPersistenceService" style="stroke:#1976D2;stroke-width:1;"/><polygon fill="#1976D2" points="503.5,474.2569,507.5,465.2569,503.5,469.2569,499.5,465.2569,503.5,474.2569" style="stroke:#1976D2;stroke-width:1;"/><text fill="#000000" font-family="sans-serif" font-size="10" lengthAdjust="spacing" textLength="22.9102" x="480.5" y="432.6491">uses</text></g><!--link CostsService to CostModel--><g class="link" data-entity-1="ent0004" data-entity-2="ent0008" data-link-type="dependency" data-source-line="61" id="lnk17"><path codeLine="61" d="M398.98,374.2969 C378.55,374.2969 363.25,374.2969 363.25,374.2969 C363.25,374.2969 363.25,437.0669 363.25,480.0469" fill="none" id="CostsService-to-CostModel" style="stroke:#1976D2;stroke-width:1;"/><polygon fill="#1976D2" points="363.25,486.0469,367.25,477.0469,363.25,481.0469,359.25,477.0469,363.25,486.0469" style="stroke:#1976D2;stroke-width:1;"/><text fill="#000000" font-family="sans-serif" font-size="10" lengthAdjust="spacing" textLength="36.1816" x="326.25" y="409.5891">returns</text></g><!--link CostsPersistenceService to JetStreamClient--><g class="link" data-entity-1="ent0005" data-entity-2="ent0010" data-link-type="dependency" data-source-line="63" id="lnk18"><path codeLine="63" d="M612,565.3069 C612,589.2269 612,611.4469 612,630.5869" fill="none" id="CostsPersistenceService-to-JetStreamClient" style="stroke:#1976D2;stroke-width:1;"/><polygon fill="#1976D2" points="612,636.5869,616,627.5869,612,631.5869,608,627.5869,612,636.5869" style="stroke:#1976D2;stroke-width:1;"/><text fill="#000000" font-family="sans-serif" font-size="10" lengthAdjust="spacing" textLength="91.7139" x="520" y="598.2291">requests data size</text></g><!--link CostsPersistenceService to AlertsPersistenceService--><g class="link" data-entity-1="ent0005" data-entity-2="ent0011" data-link-type="dependency" data-source-line="64" id="lnk19"><path codeLine="64" d="M401.91,561.2969 C344.98,561.2969 288.5,561.2969 288.5,561.2969 C288.5,561.2969 288.5,601.9069 288.5,630.6769" fill="none" id="CostsPersistenceService-to-AlertsPersistenceService" style="stroke:#1976D2;stroke-width:1;"/><polygon fill="#1976D2" points="288.5,636.6769,292.5,627.6769,288.5,631.6769,284.5,627.6769,288.5,636.6769" style="stroke:#1976D2;stroke-width:1;"/><text fill="#000000" font-family="sans-serif" font-size="10" lengthAdjust="spacing" textLength="64.9023" x="242.51" y="571.5791">counts alerts</text></g><!--link CostsPersistenceService to CommandPersistenceService--><g class="link" data-entity-1="ent0005" data-entity-2="ent0012" data-link-type="dependency" data-source-line="65" id="lnk20"><path codeLine="65" d="M478.5,565.3069 C478.5,589.2269 478.5,611.4469 478.5,630.5869" fill="none" id="CostsPersistenceService-to-CommandPersistenceService" style="stroke:#1976D2;stroke-width:1;"/><polygon fill="#1976D2" points="478.5,636.5869,482.5,627.5869,478.5,631.5869,474.5,627.5869,478.5,636.5869" style="stroke:#1976D2;stroke-width:1;"/><text fill="#000000" font-family="sans-serif" font-size="10" lengthAdjust="spacing" textLength="91.7236" x="386.5" y="598.2291">counts commands</text></g><!--link CostsPersistenceService to CostData--><g class="link" data-entity-1="ent0005" data-entity-2="ent0009" data-link-type="dependency" data-source-line="66" id="lnk21"><path codeLine="66" d="M401.88,557.2969 C275.44,557.2969 91,557.2969 91,557.2969 C91,557.2969 91,589.7169 91,619.2769" fill="none" id="CostsPersistenceService-to-CostData" style="stroke:#1976D2;stroke-width:1;"/><polygon fill="#1976D2" points="91,625.2769,95,616.2769,91,620.2769,87,616.2769,91,625.2769" style="stroke:#1976D2;stroke-width:1;"/><text fill="#000000" font-family="sans-serif" font-size="10" lengthAdjust="spacing" textLength="36.1816" x="175.45" y="554.5791">returns</text></g><!--link CostsMapper to CostData--><g class="link" data-entity-1="ent0006" data-entity-2="ent0009" data-link-type="dependency" data-source-line="68" id="lnk22"><path codeLine="68" d="M176.5,396.5269 C176.5,468.6469 176.5,631.2969 176.5,631.2969 C176.5,631.2969 175.36,631.2969 165.2,631.2969" fill="none" id="CostsMapper-to-CostData" style="stroke:#1976D2;stroke-width:1;"/><polygon fill="#1976D2" points="159.2,631.2969,168.2,635.2969,164.2,631.2969,168.2,627.2969,159.2,631.2969" style="stroke:#1976D2;stroke-width:1;"/><text fill="#000000" font-family="sans-serif" font-size="10" lengthAdjust="spacing" textLength="23.4912" x="177.5" y="519.8491">from</text></g><!--link CostsMapper to CostModel--><g class="link" data-entity-1="ent0006" data-entity-2="ent0008" data-link-type="dependency" data-source-line="69" id="lnk23"><path codeLine="69" d="M290,396.4769 C290,422.9669 290,453.6969 290,480.1769" fill="none" id="CostsMapper-to-CostModel" style="stroke:#1976D2;stroke-width:1;"/><polygon fill="#1976D2" points="290,486.1769,294,477.1769,290,481.1769,286,477.1769,290,486.1769" style="stroke:#1976D2;stroke-width:1;"/><text fill="#000000" font-family="sans-serif" font-size="10" lengthAdjust="spacing" textLength="10.0391" x="279" y="438.6091">to</text></g><!--link CostsMapper to CostResponseDto--><g class="link" data-entity-1="ent0006" data-entity-2="ent0007" data-link-type="dependency" data-source-line="70" id="lnk24"><path codeLine="70" d="M143,396.4769 C143,422.9669 143,453.6969 143,480.1769" fill="none" id="CostsMapper-to-CostResponseDto" style="stroke:#1976D2;stroke-width:1;"/><polygon fill="#1976D2" points="143,486.1769,147,477.1769,143,481.1769,139,477.1769,143,486.1769" style="stroke:#1976D2;stroke-width:1;"/><text fill="#000000" font-family="sans-serif" font-size="10" lengthAdjust="spacing" textLength="10.0391" x="132" y="438.6091">to</text></g><!--link GMN28 to CostsService--><g class="link" data-entity-1="ent0029" data-entity-2="ent0004" data-link-type="association" data-source-line="81" id="lnk30"><path d="M728.24,245.2969 C630.42,245.2969 502,245.2969 502,245.2969 C502,245.2969 502,294.4069 502,329.1269" fill="none" id="GMN28-CostsService" style="stroke:#1976D2;stroke-width:1;stroke-dasharray:7,7;"/></g><!--link GMN31 to CostsPersistenceService--><g class="link" data-entity-1="ent0032" data-entity-2="ent0005" data-link-type="association" data-source-line="91" id="lnk33"><path d="M727.41,405.2969 C670.42,405.2969 619.5,405.2969 619.5,405.2969 C619.5,405.2969 619.5,442.2869 619.5,474.2169" fill="none" id="GMN31-CostsPersistenceService" style="stroke:#1976D2;stroke-width:1;stroke-dasharray:7,7;"/></g><?plantuml-src hLRRSjem47tdAtReGw0Paa1esZ1fffHB9fs1Te3sjIFiZUD6IAua9qqp-Qh-GR-iAzaOOmp9jEK5UtTrTdNsQ6KJ6exGazfe64a_ffS6z3ZJ6leX2nHRL2hw9XGHeqUOC-ycK38MVazogU35qFro4JvUiPYReHHc6lv4Q1wLEzFrH-wN2_5SweSAmFjYhi6RONlOjnwfV5IfjTKyFHaUaxMhbBnBZStJroVzLkKn1yn3WUO-Gf3ANCkS8w8yBC2fkQUzA_GC4m77IYMrGzMpv5JXx6ooT9wVkmgJMgkEl1xjIKdEKLM1QIZON3X0mzETn3L5THjwwApx0PeP2cP9qQPctEEbNqz29wWZAJJsZQJenqeXRmgqIfeQiepHCkKdL3hKXExXyxEJ992NvTr4MvMmwLjM8vYXSZwWcHg5RD7Z8GgJk1ZHP9rTzx-bs8Od5micVBSdz_HNk-epmyesDM9Hb6zWyfuM_w0DCw7t24OwLce-eHHeMelATQwsi07FwcZEcnMIiwN5x6iZ5QdpOju14I_cg1Bpd2Yv2trplUOevd3bPkZkxR_WMbupMFlopwW5gJZmJVcamTkaurRjq5MsWosAIhUqJM-4K3pkZSRv-cdiGAnHxufCjTQ11OiqgGVwiuyxulEIwD3OCh4IEYjbcJP3BpcIwoKLLoIYs4Gk0R9B2Zrn2x_7Q6yLUqn0qrtm1CIs1X6MHxS08IKZuWcOhNrQuIo7o9D8gOWtMKYRLOYwKdAn9M99fploPG7h_QGmEWL26gJ72EHLKGU4ycxrLjjpTzHUtPgJiJVrP8H-pLacagEkpGRZxdZsjTiVNOwjUI3yI8R2TE1YC8F32WeVRCQIlAkZyZxMT8_IQU4o23tWxDxLqe0lZ8VKQRJiQfCqFLAeBQakO6HbdP55kypFpGOCwFPMS4rjeOiwwBZvy1BQHqqWWZuB5jEbhKX4_k27Xv49fSX2Zct8KAfvwFieDlslh7-41E2FfUboBk_oC3lsNJejNFqi21G6p09a93GFO98NlVt-wTh66gSC67TdKrSKw7Z-ZRubEa3qenAC7rZIoDSweCGvhSDjo7PDhkCiVgbfjsBNtTYc9OnxCRVDIdWc-hC13M-BjH_IDroh_VlNCZGtj2cuLaihtSzAg1FhTabzjJJZ-0y0?></g></svg>