<?plantuml 1.2026.2?><svg xmlns="http://www.w3.org/2000/svg" xmlns:xlink="http://www.w3.org/1999/xlink" contentStyleType="text/css" data-diagram-type="DESCRIPTION" height="1200px" preserveAspectRatio="none" style="width:1414px;height:1200px;background:#FFFFFF;" version="1.1" viewBox="0 0 1414 1200" width="1414px" zoomAndPan="magnify"><title>NoTIP Frontend - Package Dependencies Architecture</title><defs/><g><g class="title" data-source-line="1"><text fill="#000000" font-family="sans-serif" font-size="14" font-weight="bold" lengthAdjust="spacing" textLength="387.6934" x="506.4183" y="23.5352">NoTIP Frontend - Package Dependencies Architecture</text></g><!--cluster NoTIP Frontend (Angular 21)--><g class="cluster" data-qualified-name="NoTIP Frontend .Angular 21." data-source-line="11" id="ent0002"><rect fill="none" height="1071" rx="2.5" ry="2.5" style="stroke:#181818;stroke-width:1;" width="1394.07" x="14.46" y="44.4883"/><text fill="#000000" font-family="sans-serif" font-size="11" font-weight="bold" lengthAdjust="spacing" textLength="162.8354" x="630.0773" y="57.123">NoTIP Frontend (Angular 21)</text></g><!--cluster AppBoot--><g class="cluster" data-qualified-name="NoTIP Frontend .Angular 21..AppBoot" data-source-line="14" id="ent0003"><rect fill="none" height="123" rx="2.5" ry="2.5" style="stroke:#181818;stroke-width:1;" width="200.56" x="46.46" y="195.4883"/><text fill="#000000" font-family="sans-serif" font-size="11" font-weight="bold" lengthAdjust="spacing" textLength="81.1733" x="106.1533" y="208.123">App Bootstrap</text></g><!--cluster GeneratedAPI--><g class="cluster" data-qualified-name="NoTIP Frontend .Angular 21..GeneratedAPI" data-source-line="19" id="ent0005"><rect fill="none" height="225" rx="2.5" ry="2.5" style="stroke:#181818;stroke-width:1;" width="163.56" x="1211.66" y="91.4883"/><text fill="#000000" font-family="sans-serif" font-size="11" font-weight="bold" lengthAdjust="spacing" textLength="123.0571" x="1231.9114" y="104.123">Generated API Clients</text></g><!--cluster Core--><g class="cluster" data-qualified-name="NoTIP Frontend .Angular 21..Core" data-source-line="25" id="ent0008"><rect fill="none" height="136" rx="2.5" ry="2.5" style="stroke:#181818;stroke-width:1;" width="1004.05" x="372.48" y="356.4883"/><text fill="#000000" font-family="sans-serif" font-size="11" font-weight="bold" lengthAdjust="spacing" textLength="108.7163" x="820.1468" y="369.123">Core Infrastructure</text></g><!--cluster Shared--><g class="cluster" data-qualified-name="NoTIP Frontend .Angular 21..Shared" data-source-line="32" id="ent0012"><rect fill="none" height="184" rx="2.5" ry="2.5" style="stroke:#181818;stroke-width:1;" width="284.24" x="771.42" y="907.4883"/><text fill="#000000" font-family="sans-serif" font-size="11" font-weight="bold" lengthAdjust="spacing" textLength="155.1226" x="835.9787" y="920.123">Shared Components &amp; Utils</text></g><!--cluster Features--><g class="cluster" data-qualified-name="NoTIP Frontend .Angular 21..Features" data-source-line="38" id="ent0015"><rect fill="none" height="314" rx="2.5" ry="2.5" style="stroke:#181818;stroke-width:1;" width="592.7" x="404.76" y="532.4883"/><text fill="#000000" font-family="sans-serif" font-size="11" font-weight="bold" lengthAdjust="spacing" textLength="93.7471" x="654.2365" y="545.123">Feature Modules</text></g><g class="entity" data-qualified-name="NoTIP Frontend .Angular 21..AppBoot.BootNote" data-source-line="15" id="ent0004"><path d="M70.46,258.5283 L70.46,294.4384 L223.0249,294.4384 L223.0249,268.5283 L213.0249,258.5283 L70.46,258.5283" fill="#FEFFDD" style="stroke:#181818;stroke-width:0.5;"/><path d="M213.0249,258.5283 L213.0249,268.5283 L223.0249,268.5283 L213.0249,258.5283" fill="#FEFFDD" style="stroke:#181818;stroke-width:1;"/><text fill="#000000" font-family="sans-serif" font-size="11" lengthAdjust="spacing" textLength="111.1011" x="76.46" y="274.163">Global Configuration</text><text fill="#000000" font-family="sans-serif" font-size="11" lengthAdjust="spacing" textLength="131.5649" x="76.46" y="287.1181">(Router, HTTP, Keycloak)</text></g><!--entity MgmtApi--><g class="entity" data-qualified-name="NoTIP Frontend .Angular 21..GeneratedAPI.MgmtApi" data-source-line="20" id="ent0006"><path d="M1238.16,244.0283 L1302.4915,244.0283 A3.75,3.75 0 0 1 1304.9915,246.5283 L1311.9915,262.9834 L1348.7162,262.9834 A2.5,2.5 0 0 1 1351.2162,265.4834 L1351.2162,290.4384 A2.5,2.5 0 0 1 1348.7162,292.9384 L1238.16,292.9384 A2.5,2.5 0 0 1 1235.66,290.4384 L1235.66,246.5283 A2.5,2.5 0 0 1 1238.16,244.0283" fill="#F1F1F1" style="stroke:#181818;stroke-width:0.5;"/><line style="stroke:#181818;stroke-width:0.5;" x1="1235.66" x2="1311.9915" y1="262.9834" y2="262.9834"/><text fill="#000000" font-family="sans-serif" font-size="11" font-weight="bold" lengthAdjust="spacing" textLength="51.3315" x="1245.66" y="257.663">MgmtApi</text><text fill="#000000" font-family="sans-serif" font-size="11" lengthAdjust="spacing" textLength="85.5562" x="1245.66" y="280.6181">Mgmt API Client</text></g><!--entity DataApi--><g class="entity" data-qualified-name="NoTIP Frontend .Angular 21..GeneratedAPI.DataApi" data-source-line="21" id="ent0007"><path d="M1241.27,155.0283 L1299.3496,155.0283 A3.75,3.75 0 0 1 1301.8496,157.5283 L1308.8496,173.9834 L1345.6118,173.9834 A2.5,2.5 0 0 1 1348.1118,176.4834 L1348.1118,201.4384 A2.5,2.5 0 0 1 1345.6118,203.9384 L1241.27,203.9384 A2.5,2.5 0 0 1 1238.77,201.4384 L1238.77,157.5283 A2.5,2.5 0 0 1 1241.27,155.0283" fill="#F1F1F1" style="stroke:#181818;stroke-width:0.5;"/><line style="stroke:#181818;stroke-width:0.5;" x1="1238.77" x2="1308.8496" y1="173.9834" y2="173.9834"/><text fill="#000000" font-family="sans-serif" font-size="11" font-weight="bold" lengthAdjust="spacing" textLength="45.0796" x="1248.77" y="168.663">DataApi</text><text fill="#000000" font-family="sans-serif" font-size="11" lengthAdjust="spacing" textLength="79.3418" x="1248.77" y="191.6181">Data API Client</text></g><!--entity CoreServices--><g class="entity" data-qualified-name="NoTIP Frontend .Angular 21..Core.CoreServices" data-source-line="26" id="ent0009"><path d="M813.74,395.0283 L899.4002,395.0283 A3.75,3.75 0 0 1 901.9002,397.5283 L908.9002,413.9834 L1013.3381,413.9834 A2.5,2.5 0 0 1 1015.8381,416.4834 L1015.8381,441.4384 A2.5,2.5 0 0 1 1013.3381,443.9384 L813.74,443.9384 A2.5,2.5 0 0 1 811.24,441.4384 L811.24,397.5283 A2.5,2.5 0 0 1 813.74,395.0283" fill="#F1F1F1" style="stroke:#181818;stroke-width:0.5;"/><line style="stroke:#181818;stroke-width:0.5;" x1="811.24" x2="908.9002" y1="413.9834" y2="413.9834"/><text fill="#000000" font-family="sans-serif" font-size="11" font-weight="bold" lengthAdjust="spacing" textLength="72.6602" x="821.24" y="408.663">CoreServices</text><text fill="#000000" font-family="sans-serif" font-size="11" lengthAdjust="spacing" textLength="174.5981" x="821.24" y="431.6181">Services (Auth, Streams, Bounds)</text></g><!--entity CoreSecurity--><g class="entity" data-qualified-name="NoTIP Frontend .Angular 21..Core.CoreSecurity" data-source-line="27" id="ent0010"><path d="M398.98,395.0283 L483.5445,395.0283 A3.75,3.75 0 0 1 486.0445,397.5283 L493.0445,413.9834 L585.9185,413.9834 A2.5,2.5 0 0 1 588.4185,416.4834 L588.4185,441.4384 A2.5,2.5 0 0 1 585.9185,443.9384 L398.98,443.9384 A2.5,2.5 0 0 1 396.48,441.4384 L396.48,397.5283 A2.5,2.5 0 0 1 398.98,395.0283" fill="#F1F1F1" style="stroke:#181818;stroke-width:0.5;"/><line style="stroke:#181818;stroke-width:0.5;" x1="396.48" x2="493.0445" y1="413.9834" y2="413.9834"/><text fill="#000000" font-family="sans-serif" font-size="11" font-weight="bold" lengthAdjust="spacing" textLength="71.5645" x="406.48" y="408.663">CoreSecurity</text><text fill="#000000" font-family="sans-serif" font-size="11" lengthAdjust="spacing" textLength="161.9385" x="406.48" y="431.6181">Security (Guards, Interceptors)</text></g><!--entity CoreModels--><g class="entity" data-qualified-name="NoTIP Frontend .Angular 21..Core.CoreModels" data-source-line="28" id="ent0011"><path d="M1236.84,398.0283 L1316.6886,398.0283 A3.75,3.75 0 0 1 1319.1886,400.5283 L1326.1886,416.9834 L1350.0334,416.9834 A2.5,2.5 0 0 1 1352.5334,419.4834 L1352.5334,444.4384 A2.5,2.5 0 0 1 1350.0334,446.9384 L1236.84,446.9384 A2.5,2.5 0 0 1 1234.34,444.4384 L1234.34,400.5283 A2.5,2.5 0 0 1 1236.84,398.0283" fill="#F1F1F1" style="stroke:#181818;stroke-width:0.5;"/><line style="stroke:#181818;stroke-width:0.5;" x1="1234.34" x2="1326.1886" y1="416.9834" y2="416.9834"/><text fill="#000000" font-family="sans-serif" font-size="11" font-weight="bold" lengthAdjust="spacing" textLength="66.8486" x="1244.34" y="411.663">CoreModels</text><text fill="#000000" font-family="sans-serif" font-size="11" lengthAdjust="spacing" textLength="88.1934" x="1244.34" y="434.6181">Models &amp; Enums</text></g><!--entity SharedUI--><g class="entity" data-qualified-name="NoTIP Frontend .Angular 21..Shared.SharedUI" data-source-line="33" id="ent0013"><path d="M789.92,938.0283 L853.3761,938.0283 A3.75,3.75 0 0 1 855.8761,940.5283 L862.8761,956.9834 L1037.1597,956.9834 A2.5,2.5 0 0 1 1039.6597,959.4834 L1039.6597,984.4384 A2.5,2.5 0 0 1 1037.1597,986.9384 L789.92,986.9384 A2.5,2.5 0 0 1 787.42,984.4384 L787.42,940.5283 A2.5,2.5 0 0 1 789.92,938.0283" fill="#F1F1F1" style="stroke:#181818;stroke-width:0.5;"/><line style="stroke:#181818;stroke-width:0.5;" x1="787.42" x2="862.8761" y1="956.9834" y2="956.9834"/><text fill="#000000" font-family="sans-serif" font-size="11" font-weight="bold" lengthAdjust="spacing" textLength="50.4561" x="797.42" y="951.663">SharedUI</text><text fill="#000000" font-family="sans-serif" font-size="11" lengthAdjust="spacing" textLength="222.2397" x="797.42" y="974.6181">UI Components (Modals, Badges, Sidebar)</text></g><!--entity SharedUtils--><g class="entity" data-qualified-name="NoTIP Frontend .Angular 21..Shared.SharedUtils" data-source-line="34" id="ent0014"><path d="M836.32,1027.0283 L913.9611,1027.0283 A3.75,3.75 0 0 1 916.4611,1029.5283 L923.4611,1045.9834 L990.758,1045.9834 A2.5,2.5 0 0 1 993.258,1048.4834 L993.258,1073.4384 A2.5,2.5 0 0 1 990.758,1075.9384 L836.32,1075.9384 A2.5,2.5 0 0 1 833.82,1073.4384 L833.82,1029.5283 A2.5,2.5 0 0 1 836.32,1027.0283" fill="#F1F1F1" style="stroke:#181818;stroke-width:0.5;"/><line style="stroke:#181818;stroke-width:0.5;" x1="833.82" x2="923.4611" y1="1045.9834" y2="1045.9834"/><text fill="#000000" font-family="sans-serif" font-size="11" font-weight="bold" lengthAdjust="spacing" textLength="64.6411" x="843.82" y="1040.663">SharedUtils</text><text fill="#000000" font-family="sans-serif" font-size="11" lengthAdjust="spacing" textLength="129.438" x="843.82" y="1063.6181">Pipes &amp; Utils (Timezone)</text></g><!--entity FeatDashboard--><g class="entity" data-qualified-name="NoTIP Frontend .Angular 21..Features.FeatDashboard" data-source-line="39" id="ent0016"><path d="M431.26,571.0283 L529.6496,571.0283 A3.75,3.75 0 0 1 532.1496,573.5283 L539.1496,589.9834 L553.6496,589.9834 A2.5,2.5 0 0 1 556.1496,592.4834 L556.1496,617.4384 A2.5,2.5 0 0 1 553.6496,619.9384 L431.26,619.9384 A2.5,2.5 0 0 1 428.76,617.4384 L428.76,573.5283 A2.5,2.5 0 0 1 431.26,571.0283" fill="#F1F1F1" style="stroke:#181818;stroke-width:0.5;"/><line style="stroke:#181818;stroke-width:0.5;" x1="428.76" x2="539.1496" y1="589.9834" y2="589.9834"/><text fill="#000000" font-family="sans-serif" font-size="11" font-weight="bold" lengthAdjust="spacing" textLength="85.3896" x="438.76" y="584.663">FeatDashboard</text><text fill="#000000" font-family="sans-serif" font-size="11" lengthAdjust="spacing" textLength="57.9272" x="438.76" y="607.6181">Dashboard</text></g><!--entity FeatGateways--><g class="entity" data-qualified-name="NoTIP Frontend .Angular 21..Features.FeatGateways" data-source-line="40" id="ent0017"><path d="M856.11,660.0283 L946.9586,660.0283 A3.75,3.75 0 0 1 949.4586,662.5283 L956.4586,678.9834 L970.9586,678.9834 A2.5,2.5 0 0 1 973.4586,681.4834 L973.4586,706.4384 A2.5,2.5 0 0 1 970.9586,708.9384 L856.11,708.9384 A2.5,2.5 0 0 1 853.61,706.4384 L853.61,662.5283 A2.5,2.5 0 0 1 856.11,660.0283" fill="#F1F1F1" style="stroke:#181818;stroke-width:0.5;"/><line style="stroke:#181818;stroke-width:0.5;" x1="853.61" x2="956.4586" y1="678.9834" y2="678.9834"/><text fill="#000000" font-family="sans-serif" font-size="11" font-weight="bold" lengthAdjust="spacing" textLength="77.8486" x="863.61" y="673.663">FeatGateways</text><text fill="#000000" font-family="sans-serif" font-size="11" lengthAdjust="spacing" textLength="50.1714" x="863.61" y="696.6181">Gateways</text></g><!--entity FeatSensors--><g class="entity" data-qualified-name="NoTIP Frontend .Angular 21..Features.FeatSensors" data-source-line="41" id="ent0018"><path d="M860.99,571.0283 L942.0955,571.0283 A3.75,3.75 0 0 1 944.5955,573.5283 L951.5955,589.9834 L966.0955,589.9834 A2.5,2.5 0 0 1 968.5955,592.4834 L968.5955,617.4384 A2.5,2.5 0 0 1 966.0955,619.9384 L860.99,619.9384 A2.5,2.5 0 0 1 858.49,617.4384 L858.49,573.5283 A2.5,2.5 0 0 1 860.99,571.0283" fill="#F1F1F1" style="stroke:#181818;stroke-width:0.5;"/><line style="stroke:#181818;stroke-width:0.5;" x1="858.49" x2="951.5955" y1="589.9834" y2="589.9834"/><text fill="#000000" font-family="sans-serif" font-size="11" font-weight="bold" lengthAdjust="spacing" textLength="68.1055" x="868.49" y="584.663">FeatSensors</text><text fill="#000000" font-family="sans-serif" font-size="11" lengthAdjust="spacing" textLength="41.3521" x="868.49" y="607.6181">Sensors</text></g><!--entity FeatAlerts--><g class="entity" data-qualified-name="NoTIP Frontend .Angular 21..Features.FeatAlerts" data-source-line="42" id="ent0019"><path d="M445.21,749.0283 L515.6968,749.0283 A3.75,3.75 0 0 1 518.1968,751.5283 L525.1968,767.9834 L539.6968,767.9834 A2.5,2.5 0 0 1 542.1968,770.4834 L542.1968,795.4384 A2.5,2.5 0 0 1 539.6968,797.9384 L445.21,797.9384 A2.5,2.5 0 0 1 442.71,795.4384 L442.71,751.5283 A2.5,2.5 0 0 1 445.21,749.0283" fill="#F1F1F1" style="stroke:#181818;stroke-width:0.5;"/><line style="stroke:#181818;stroke-width:0.5;" x1="442.71" x2="525.1968" y1="767.9834" y2="767.9834"/><text fill="#000000" font-family="sans-serif" font-size="11" font-weight="bold" lengthAdjust="spacing" textLength="57.4868" x="452.71" y="762.663">FeatAlerts</text><text fill="#000000" font-family="sans-serif" font-size="11" lengthAdjust="spacing" textLength="31.1201" x="452.71" y="785.6181">Alerts</text></g><!--entity FeatAdmin--><g class="entity" data-qualified-name="NoTIP Frontend .Angular 21..Features.FeatAdmin" data-source-line="43" id="ent0020"><path d="M441.92,660.0283 L515.463,660.0283 A3.75,3.75 0 0 1 517.963,662.5283 L524.963,678.9834 L542.9801,678.9834 A2.5,2.5 0 0 1 545.4801,681.4834 L545.4801,706.4384 A2.5,2.5 0 0 1 542.9801,708.9384 L441.92,708.9384 A2.5,2.5 0 0 1 439.42,706.4384 L439.42,662.5283 A2.5,2.5 0 0 1 441.92,660.0283" fill="#F1F1F1" style="stroke:#181818;stroke-width:0.5;"/><line style="stroke:#181818;stroke-width:0.5;" x1="439.42" x2="524.963" y1="678.9834" y2="678.9834"/><text fill="#000000" font-family="sans-serif" font-size="11" font-weight="bold" lengthAdjust="spacing" textLength="60.543" x="449.42" y="673.663">FeatAdmin</text><text fill="#000000" font-family="sans-serif" font-size="11" lengthAdjust="spacing" textLength="76.0601" x="449.42" y="696.6181">System Admin</text></g><!--entity FeatMgmt--><g class="entity" data-qualified-name="NoTIP Frontend .Angular 21..Features.FeatMgmt" data-source-line="44" id="ent0021"><path d="M866.65,749.0283 L935.7027,749.0283 A3.75,3.75 0 0 1 938.2027,751.5283 L945.2027,767.9834 L960.4269,767.9834 A2.5,2.5 0 0 1 962.9269,770.4834 L962.9269,795.4384 A2.5,2.5 0 0 1 960.4269,797.9384 L866.65,797.9384 A2.5,2.5 0 0 1 864.15,795.4384 L864.15,751.5283 A2.5,2.5 0 0 1 866.65,749.0283" fill="#F1F1F1" style="stroke:#181818;stroke-width:0.5;"/><line style="stroke:#181818;stroke-width:0.5;" x1="864.15" x2="945.2027" y1="767.9834" y2="767.9834"/><text fill="#000000" font-family="sans-serif" font-size="11" font-weight="bold" lengthAdjust="spacing" textLength="56.0527" x="874.15" y="762.663">FeatMgmt</text><text fill="#000000" font-family="sans-serif" font-size="11" lengthAdjust="spacing" textLength="68.7769" x="874.15" y="785.6181">Management</text></g><g class="entity" data-qualified-name="GMN34" data-source-line="80" id="ent0035"><path d="M781.52,1131.5783 L781.52,1193.3986 L1045.5513,1193.3986 L1045.5513,1141.5783 L1035.5513,1131.5783 L781.52,1131.5783" fill="#FEFFDD" style="stroke:#181818;stroke-width:0.5;"/><path d="M1035.5513,1131.5783 L1035.5513,1141.5783 L1045.5513,1141.5783 L1035.5513,1131.5783" fill="#FEFFDD" style="stroke:#181818;stroke-width:1;"/><text fill="#000000" font-family="sans-serif" font-size="11" lengthAdjust="spacing" textLength="243.0313" x="787.52" y="1147.213">The "Core" contains the app's Singleton logic:</text><text fill="#000000" font-family="sans-serif" font-size="11" lengthAdjust="spacing" textLength="223.5342" x="787.52" y="1160.1681">Authentication (Keycloak), Impersonation,</text><text fill="#000000" font-family="sans-serif" font-size="11" lengthAdjust="spacing" textLength="237.5151" x="787.52" y="1173.1232">SSE (Server-Sent Events) streams, and global</text><text fill="#000000" font-family="sans-serif" font-size="11" lengthAdjust="spacing" textLength="130.2383" x="787.52" y="1186.0783">Threshold management.</text></g><g class="entity" data-qualified-name="GMN37" data-source-line="87" id="ent0038"><path d="M6,1131.5783 L6,1193.3986 L287.4766,1193.3986 L287.4766,1141.5783 L277.4766,1131.5783 L6,1131.5783" fill="#FEFFDD" style="stroke:#181818;stroke-width:0.5;"/><path d="M277.4766,1131.5783 L277.4766,1141.5783 L287.4766,1141.5783 L277.4766,1131.5783" fill="#FEFFDD" style="stroke:#181818;stroke-width:1;"/><text fill="#000000" font-family="sans-serif" font-size="11" lengthAdjust="spacing" textLength="211.8682" x="12" y="1147.213">"Features" are highly cohesive modules.</text><text fill="#000000" font-family="sans-serif" font-size="11" lengthAdjust="spacing" textLength="260.4766" x="12" y="1160.1681">They contain the page logic (Smart Components)</text><text fill="#000000" font-family="sans-serif" font-size="11" lengthAdjust="spacing" textLength="244.4707" x="12" y="1173.1232">and domain-specific services that orchestrate</text><text fill="#000000" font-family="sans-serif" font-size="11" lengthAdjust="spacing" textLength="145.1484" x="12" y="1186.0783">calls to the generated APIs.</text></g><!--link AppBoot to CoreSecurity--><g class="link" data-entity-1="ent0003" data-entity-2="ent0010" data-link-type="dependency" data-source-line="52" id="lnk22"><path d="M247.4614,227.0865 C247.7039,227.1429 247.9463,227.1996 248.1887,227.2567 C250.1278,227.7133 252.0645,228.1923 253.9958,228.6947 C257.8583,229.6994 261.6987,230.7976 265.4919,231.9977 C273.0781,234.398 280.475,237.2058 287.48,240.4883 C366.62,277.5683 434.3012,350.3038 467.7112,390.0838" fill="none" id="AppBoot-to-CoreSecurity" style="stroke:#181818;stroke-width:1;"/><polygon fill="#181818" points="471.57,394.6783,468.8448,385.214,468.3543,390.8495,462.7188,390.359,471.57,394.6783" style="stroke:#181818;stroke-width:1;"/><text fill="#000000" font-family="sans-serif" font-size="11" lengthAdjust="spacing" textLength="34.8262" x="313.48" y="251.773">Injects</text></g><!--link AppBoot to GeneratedAPI--><g class="link" data-entity-1="ent0003" data-entity-2="ent0005" data-link-type="dependency" data-source-line="53" id="lnk23"><path d="M247.8846,209.391 C250.5288,209.1508 253.2167,208.9065 255.9473,208.6584 C277.7918,206.6734 302.3661,204.4404 329.1242,202.0091 C436.1566,192.2836 578.1294,179.3839 720.1013,166.4845 C862.0731,153.5852 1004.0441,140.6861 1111.0727,130.9619 C1137.8298,128.5308 1162.4031,126.2982 1184.2465,124.3136 C1189.7073,123.8174 1194.9975,123.3368 1200.1086,122.8724 C1202.6642,122.6402 1205.1749,122.4121 1207.6398,122.1882 C1208.8723,122.0762 1204.1179,122.5082 1205.3273,122.3983" fill="none" id="AppBoot-to-GeneratedAPI" style="stroke:#181818;stroke-width:1;"/><polygon fill="#181818" points="1211.3027,121.8554,1201.9776,118.6861,1206.3232,122.3078,1202.7015,126.6533,1211.3027,121.8554" style="stroke:#181818;stroke-width:1;"/><text fill="#000000" font-family="sans-serif" font-size="11" lengthAdjust="spacing" textLength="99.2686" x="634.92" y="161.723">Provides (Provider)</text></g><!--link CoreServices to CoreModels--><g class="link" data-entity-1="ent0009" data-entity-2="ent0011" data-link-type="dependency" data-source-line="56" id="lnk24"><path d="M1016.31,420.2983 C1086.04,420.8483 1170.0702,421.5207 1228.0402,421.9807" fill="none" id="CoreServices-to-CoreModels" style="stroke:#181818;stroke-width:1;stroke-dasharray:7,7;"/><polygon fill="#181818" points="1234.04,422.0283,1225.072,417.957,1229.0402,421.9886,1225.0085,425.9567,1234.04,422.0283" style="stroke:#181818;stroke-width:1;"/><text fill="#000000" font-family="sans-serif" font-size="11" lengthAdjust="spacing" textLength="24.9648" x="1117.66" y="418.443">Uses</text></g><!--link CoreSecurity to CoreServices--><g class="link" data-entity-1="ent0010" data-entity-2="ent0009" data-link-type="dependency" data-source-line="59" id="lnk25"><path d="M588.81,419.4883 C655.11,419.4883 737.37,419.4883 804.99,419.4883" fill="none" id="CoreSecurity-to-CoreServices" style="stroke:#181818;stroke-width:1;"/><polygon fill="#181818" points="810.99,419.4883,801.99,415.4883,805.99,419.4883,801.99,423.4883,810.99,419.4883" style="stroke:#181818;stroke-width:1;"/><text fill="#000000" font-family="sans-serif" font-size="11" lengthAdjust="spacing" textLength="107.1855" x="630.92" y="417.123">Verifies Permissions</text></g><!--link CoreServices to GeneratedAPI--><g class="link" data-entity-1="ent0009" data-entity-2="ent0005" data-link-type="dependency" data-source-line="62" id="lnk26"><path d="M995.26,413.5834 C1059.19,389.3034 1144.66,326.6383 1187.66,256.4883 C1201.51,233.8883 1178.54,157.7183 1195.66,137.4883 C1199.1738,133.3358 1203.288,129.8569 1207.8017,126.9487 C1208.9301,126.2216 1204.847,128.4591 1206.0222,127.8018" fill="none" id="CoreServices-to-GeneratedAPI" style="stroke:#181818;stroke-width:1;"/><polygon fill="#181818" points="1211.2588,124.8729,1201.4513,125.7752,1206.895,127.3136,1205.3565,132.7573,1211.2588,124.8729" style="stroke:#181818;stroke-width:1;"/><text fill="#000000" font-family="sans-serif" font-size="11" lengthAdjust="spacing" textLength="114.1626" x="1072.66" y="254.123">Manages Token / SSE</text></g><!--link Features to CoreServices--><g class="link" data-entity-1="ent0015" data-entity-2="ent0009" data-link-type="dependency" data-source-line="65" id="lnk27"><path d="M631.0787,532.1562 C631.502,531.7088 631.9272,531.2631 632.3543,530.8192 C639.1878,523.7162 646.5078,517.0576 654.2075,510.8163 C669.6069,498.3336 686.525,487.5202 704.1075,478.1595 C739.2725,459.4383 771.2915,448.0514 804.9365,439.2214" fill="none" id="Features-to-CoreServices" style="stroke:#181818;stroke-width:1;"/><polygon fill="#181818" points="810.74,437.6983,801.0194,436.114,805.9038,438.9675,803.0502,443.8519,810.74,437.6983" style="stroke:#181818;stroke-width:1;"/><text fill="#000000" font-family="sans-serif" font-size="11" lengthAdjust="spacing" textLength="140.6958" x="614.42" y="452.823">Uses global business logic</text></g><!--link Features to GeneratedAPI--><g class="link" data-entity-1="ent0015" data-entity-2="ent0005" data-link-type="dependency" data-source-line="66" id="lnk28"><path d="M596.7269,530.9444 C595.0697,509.1204 593.9784,488.0766 594.0577,468.6241 C594.2163,429.7189 599.0575,397.1783 613.42,377.4883 C774.58,156.5583 991.3,346.8283 1187.66,156.4883 C1194.24,150.1083 1188.67,143.4083 1195.66,137.4883 C1199.8113,133.972 1204.4061,130.9728 1209.2725,128.4166 C1209.8808,128.0971 1210.4934,127.7845 1211.1098,127.4787 C1211.2639,127.4022 1206.0284,129.9623 1206.183,129.8867" fill="none" id="Features-to-GeneratedAPI" style="stroke:#181818;stroke-width:1;"/><polygon fill="#181818" points="1211.5729,127.2506,1201.7306,127.6115,1207.0813,129.4473,1205.2454,134.798,1211.5729,127.2506" style="stroke:#181818;stroke-width:1;"/><text fill="#000000" font-family="sans-serif" font-size="11" lengthAdjust="spacing" textLength="161.0146" x="833.04" y="231.233">Executes queries / commands</text></g><!--link Features to CoreModels--><g class="link" data-entity-1="ent0015" data-entity-2="ent0011" data-link-type="dependency" data-source-line="67" id="lnk29"><path d="M998.2626,841.777 C998.982,841.7175 999.6972,841.6574 1000.4078,841.5966 C1003.2506,841.3535 1006.0224,841.1002 1008.7198,840.8365 C1014.1147,840.309 1019.2116,839.7397 1023.9815,839.1261 C1043.0613,836.6717 1056.9088,833.5095 1063.66,829.4883 C1210.77,741.8583 1269.5783,527.5654 1286.0883,453.2754" fill="none" id="Features-to-CoreModels" style="stroke:#181818;stroke-width:1;stroke-dasharray:7,7;"/><polygon fill="#181818" points="1287.39,447.4183,1281.5328,455.3362,1286.3053,452.2992,1289.3422,457.0717,1287.39,447.4183" style="stroke:#181818;stroke-width:1;"/><text fill="#000000" font-family="sans-serif" font-size="11" lengthAdjust="spacing" textLength="58.0293" x="884.54" y="827.123">Types data</text></g><!--link Features to SharedUI--><g class="link" data-entity-1="ent0015" data-entity-2="ent0013" data-link-type="dependency" data-source-line="70" id="lnk30"><path d="M518.433,846.6178 C523.2779,848.1838 528.6666,849.9202 534.4513,851.7758 C557.59,859.1983 587.065,868.5283 613.42,876.4883 C683.9,897.7783 758.3063,919.136 817.9063,935.986" fill="none" id="Features-to-SharedUI" style="stroke:#181818;stroke-width:1;"/><polygon fill="#181818" points="823.68,937.6183,816.1077,931.3207,818.8686,936.258,813.9312,939.0189,823.68,937.6183" style="stroke:#181818;stroke-width:1;"/><text fill="#000000" font-family="sans-serif" font-size="11" lengthAdjust="spacing" textLength="89.7241" x="639.92" y="874.123">Composes Views</text></g><!--link Features to SharedUtils--><g class="link" data-entity-1="ent0015" data-entity-2="ent0014" data-link-type="dependency" data-source-line="71" id="lnk31"><path d="M501.2564,846.7097 C501.6133,847.0782 501.9812,847.4574 502.3602,847.8471 C503.118,848.6264 503.9197,849.4473 504.7633,850.307 C511.5122,857.1852 520.9481,866.5508 532.1588,877.0008 C554.58,897.9008 584.1,923.1383 613.42,941.4883 C682.37,984.6383 764.983,1012.8776 827.753,1030.4876" fill="none" id="Features-to-SharedUtils" style="stroke:#181818;stroke-width:1;"/><polygon fill="#181818" points="833.53,1032.1083,825.945,1025.8259,828.7159,1030.7577,823.7841,1033.5285,833.53,1032.1083" style="stroke:#181818;stroke-width:1;"/><text fill="#000000" font-family="sans-serif" font-size="11" lengthAdjust="spacing" textLength="104.5054" x="632.42" y="939.123">Formats dates/data</text></g><!--link FeatDashboard to FeatGateways--><g class="link" data-entity-1="ent0016" data-entity-2="ent0017" data-link-type="dependency" data-source-line="74" id="lnk32"><path d="M556.19,608.8083 C636.57,625.8783 768.9909,654.0017 847.5709,670.6917" fill="none" id="FeatDashboard-to-FeatGateways" style="stroke:#181818;stroke-width:1;stroke-dasharray:7,7;"/><polygon fill="#181818" points="853.44,671.9383,845.4674,666.1557,848.5491,670.8995,843.8053,673.9812,853.44,671.9383" style="stroke:#181818;stroke-width:1;"/><text fill="#000000" font-family="sans-serif" font-size="11" lengthAdjust="spacing" textLength="104.6504" x="632.42" y="619.423">Uses data for filters</text></g><!--link FeatDashboard to FeatSensors--><g class="link" data-entity-1="ent0016" data-entity-2="ent0018" data-link-type="dependency" data-source-line="75" id="lnk33"><path d="M556.19,595.4883 C638.17,595.4883 774.38,595.4883 852.05,595.4883" fill="none" id="FeatDashboard-to-FeatSensors" style="stroke:#181818;stroke-width:1;stroke-dasharray:7,7;"/><polygon fill="#181818" points="858.05,595.4883,849.05,591.4883,853.05,595.4883,849.05,599.4883,858.05,595.4883" style="stroke:#181818;stroke-width:1;"/><text fill="#000000" font-family="sans-serif" font-size="11" lengthAdjust="spacing" textLength="104.6504" x="632.42" y="593.123">Uses data for filters</text></g><!--link Core to GMN34--><g class="link" data-entity-1="ent0008" data-entity-2="ent0035" data-link-type="association" data-source-line="80" id="lnk36"><path d="M513.4695,492.62 C513.6021,492.6808 513.7351,492.7419 513.8685,492.8033 C514.1354,492.9263 514.404,493.0505 514.6744,493.1762 C515.756,493.6787 516.8652,494.2031 517.9988,494.7491 C522.5332,496.9334 527.4572,499.4655 532.5563,502.3445 C552.9525,513.8608 576.15,530.9283 588.42,553.4883 C637.76,644.1983 557.02,930.9883 613.42,1017.4883 C651.32,1075.6183 719.62,1111.1283 781.39,1132.4483" fill="none" id="Core-GMN34" style="stroke:#181818;stroke-width:1;stroke-dasharray:7,7;"/></g><!--link GMN37 to Features--><g class="link" data-entity-1="ent0038" data-entity-2="ent0015" data-link-type="association" data-source-line="87" id="lnk39"><path d="M181.01,1131.1283 C223.465,1091.1083 299.3325,1019.5908 365.4375,957.2758 C398.49,926.1183 429.1019,897.2614 451.8762,875.7927 C463.2634,865.0583 472.6912,856.1709 479.4851,849.7666 C480.3343,848.966 481.1424,848.2043 481.908,847.4826 C482.0994,847.3021 482.2881,847.1242 482.4742,846.9488" fill="none" id="GMN37-Features" style="stroke:#181818;stroke-width:1;stroke-dasharray:7,7;"/></g><?plantuml-src bLPBRzj64BxhLmnKe940IQwBvXAW0MYPTeIagc3AwQMN5JaYjoPtsTsb7INeVy_CyY6IjejM5qcptynyyznrqkK8MxtVxE36QELG9R24dOWVH8fmZIK9KCKIBGGcpgJ3s5K69nFx85KfZ2ZWGE3Kw4ebQvrh0p_S-4yFaU1HLBcx8VkH_8fmUVdoOQF_a__q84edQB64N_f28zG32z_sXMLDF78d2iiGLw7I72Sv7Xqu3KQccOD4yedKQZ9fy30TfM0MgBJAXO6VB-TJ-3QP0Bo1vN89Trexk80h-hBEY18-uIFcV4IGpbfGbcV850GbhonPGAQ0FaexGjtc-Y1oM6jrb6bb15FwKytkTENGBE33VhzRm4SynRaM3tDlXcriIPci_7Cc5UmsB_EuHOLa5nCFMUSIbRFUK7V21pMfJkktj70z1OzdML3A8V1QE346igm6zWYkjS66uQo9EdBa7GJbEiAuCjATvcFsNckZZaPG7YlVTzw5buyuHsWUPKnTEWigbot8l45Hs0LbZ1hJpZl55ZXMhpaGlKgOXFGsr0Wcnj9fCz2kSQE4KN_c5dw4K5M5xS2rU9Y9UoTpzkC3puIXqjo_KhpcUAsBKYik73bWzTf1SpfA0zdguMV4GEIS196aID-HJF0WpBnduNupjB2J9NQUOBQN1NubSmCLFXg6TOE2osFR8bzLLYgqr0ww45BPPxLj580OLZdM8NL6letRp6O7JMNfK9ra2BobbdeIfxErLZ0kjh9KrGxL_1-2WXoDEsFgloCx9-kmW20ff3e3-T-eFOIYxwAT44RnE9qp-Ej__dZuNVWfs6z-tqOVDhi8WkqrN8UxS7iTRjURC8AhSFz766vX5wm_1hTXz7zTUFm-GzvPS6Ytc0L78ZzwtBiqzPoDTgqjb-y7ym7lOBfHVz6QjTCHRB1v2BOp-f7Qadgj-KNjUURW7T8LmTta6Ho4HIZQoUfFDAnMxtjpnxRlBRLMRQnZnkpxmmqL6Jol3robgmNm4cbayyvDO-0SQwD3ZZwZaKU-97Te2cajRVBMiO_0jjXO5qMbPCpBxqcw3DB-YduMqai9gzl9mbu_eAAxA8h2nbKxL4KzL7G1vYVGggPmfAlLTakNdNbHGlkQbBlPUoawJYEazTu-j9ETwrJ6qx7gc6puXTBcwF3lYb94tnS-1KJ13dIVrsv_uaN4z5w9ZkjcwoqOdtSU1rVo3XipQzSTs_OxaeFwBF79Jb-1-Wr8w1jj2k4y5xGNFKPhewrT9lr7qiodHUHpEA1xGYfGPtccIxxXAOUSzvXV6b_SlF7TRJIVYVxkwWh0ZhtgKURKlXtjvwhDGliNpGbj7ly8gLz4-kYJJmPvvlp5E_KCUNVxiHDb-ORsl-JdbAEMyc6-uz6cIQ74SqTJS33htYjqXHObEQE8-MH1MEfKc75ZeLaIHmVX8zTiJdtPtDPSlRhHF1TAMwRp18fkWwuc_3nZwaq0_cb7_DiqarvxkV3sfdx9A4IQWrXdQELZrp-hEjfJ6wSFi-I5xMCZeeKmhdUTSgcON-AljAKjCQQPZy-pxJ91LEYLZBmn_IEDEe5wY5wUR7muwhr8lWC0?></g></svg>