<?plantuml 1.2026.2?><svg xmlns="http://www.w3.org/2000/svg" xmlns:xlink="http://www.w3.org/1999/xlink" contentStyleType="text/css" data-diagram-type="CLASS" height="593px" preserveAspectRatio="none" style="width:1943px;height:593px;background:#FFFFFF;" version="1.1" viewBox="0 0 1943 593" width="1943px" zoomAndPan="magnify"><title>NoTIP Frontend - Management Architecture (Accurate)</title><defs/><g><g class="title" data-source-line="1"><text fill="#000000" font-family="sans-serif" font-size="14" font-weight="bold" lengthAdjust="spacing" textLength="393.8252" x="767.9816" y="23.5352">NoTIP Frontend - Management Architecture (Accurate)</text></g><!--cluster Management Feature--><g class="cluster" data-qualified-name="Management Feature" data-source-line="11" id="ent0002"><rect fill="none" height="482.88" rx="2.5" ry="2.5" style="stroke:#181818;stroke-width:1;" width="1650" x="7" y="104.8183"/><text fill="#000000" font-family="sans-serif" font-size="10" font-weight="bold" lengthAdjust="spacing" textLength="107.8369" x="778.0815" y="116.4863">Management Feature</text></g><!--cluster Users Management--><g class="cluster" data-qualified-name="Management Feature.Users Management" data-source-line="13" id="ent0003"><path d="M33.5,148.7083 L132.9082,148.7083 A3.75,3.75 0 0 1 135.4082,151.2083 L142.4082,166.4856 L362.5,166.4856 A2.5,2.5 0 0 1 365,168.9856 L365,555.3083 A2.5,2.5 0 0 1 362.5,557.8083 L33.5,557.8083 A2.5,2.5 0 0 1 31,555.3083 L31,151.2083 A2.5,2.5 0 0 1 33.5,148.7083" fill="none" style="stroke:#000000;stroke-width:1.5;"/><line style="stroke:#000000;stroke-width:1.5;" x1="31" x2="142.4082" y1="166.4856" y2="166.4856"/><text fill="#000000" font-family="sans-serif" font-size="10" font-weight="bold" lengthAdjust="spacing" textLength="98.4082" x="35" y="160.3763">Users Management</text></g><!--cluster Thresholds--><g class="cluster" data-qualified-name="Management Feature.Thresholds" data-source-line="45" id="ent0006"><path d="M391.5,142.8183 L450.5127,142.8183 A3.75,3.75 0 0 1 453.0127,145.3183 L460.0127,160.5956 L736.5,160.5956 A2.5,2.5 0 0 1 739,163.0956 L739,561.1983 A2.5,2.5 0 0 1 736.5,563.6983 L391.5,563.6983 A2.5,2.5 0 0 1 389,561.1983 L389,145.3183 A2.5,2.5 0 0 1 391.5,142.8183" fill="none" style="stroke:#000000;stroke-width:1.5;"/><line style="stroke:#000000;stroke-width:1.5;" x1="389" x2="460.0127" y1="160.5956" y2="160.5956"/><text fill="#000000" font-family="sans-serif" font-size="10" font-weight="bold" lengthAdjust="spacing" textLength="58.0127" x="393" y="154.4863">Thresholds</text></g><!--cluster Audit Logs--><g class="cluster" data-qualified-name="Management Feature.Audit Logs" data-source-line="79" id="ent0009"><path d="M765.5,148.7083 L822.1104,148.7083 A3.75,3.75 0 0 1 824.6104,151.2083 L831.6104,166.4856 L1032.5,166.4856 A2.5,2.5 0 0 1 1035,168.9856 L1035,537.6483 A2.5,2.5 0 0 1 1032.5,540.1483 L765.5,540.1483 A2.5,2.5 0 0 1 763,537.6483 L763,151.2083 A2.5,2.5 0 0 1 765.5,148.7083" fill="none" style="stroke:#000000;stroke-width:1.5;"/><line style="stroke:#000000;stroke-width:1.5;" x1="763" x2="831.6104" y1="166.4856" y2="166.4856"/><text fill="#000000" font-family="sans-serif" font-size="10" font-weight="bold" lengthAdjust="spacing" textLength="55.6104" x="767" y="160.3763">Audit Logs</text></g><!--cluster Costs--><g class="cluster" data-qualified-name="Management Feature.Costs" data-source-line="108" id="ent0012"><path d="M1061.5,225.2583 L1091.3721,225.2583 A3.75,3.75 0 0 1 1093.8721,227.7583 L1100.8721,243.0356 L1294.5,243.0356 A2.5,2.5 0 0 1 1297,245.5356 L1297,537.6483 A2.5,2.5 0 0 1 1294.5,540.1483 L1061.5,540.1483 A2.5,2.5 0 0 1 1059,537.6483 L1059,227.7583 A2.5,2.5 0 0 1 1061.5,225.2583" fill="none" style="stroke:#000000;stroke-width:1.5;"/><line style="stroke:#000000;stroke-width:1.5;" x1="1059" x2="1100.8721" y1="243.0356" y2="243.0356"/><text fill="#000000" font-family="sans-serif" font-size="10" font-weight="bold" lengthAdjust="spacing" textLength="28.8721" x="1063" y="236.9263">Costs</text></g><!--cluster API Clients--><g class="cluster" data-qualified-name="Management Feature.API Clients" data-source-line="124" id="ent0015"><path d="M1323.5,154.5983 L1380.3691,154.5983 A3.75,3.75 0 0 1 1382.8691,157.0983 L1389.8691,172.3756 L1630.5,172.3756 A2.5,2.5 0 0 1 1633,174.8756 L1633,549.4183 A2.5,2.5 0 0 1 1630.5,551.9183 L1323.5,551.9183 A2.5,2.5 0 0 1 1321,549.4183 L1321,157.0983 A2.5,2.5 0 0 1 1323.5,154.5983" fill="none" style="stroke:#000000;stroke-width:1.5;"/><line style="stroke:#000000;stroke-width:1.5;" x1="1321" x2="1389.8691" y1="172.3756" y2="172.3756"/><text fill="#000000" font-family="sans-serif" font-size="10" font-weight="bold" lengthAdjust="spacing" textLength="55.8691" x="1325" y="166.2663">API Clients</text></g><!--class UserListPage--><g class="entity" data-qualified-name="Management Feature.Users Management.UserListPage" data-source-line="14" id="ent0004"><rect fill="#F1F1F1" height="252.2148" rx="2.5" ry="2.5" style="stroke:#181818;stroke-width:0.5;" width="245.9844" x="75.01" y="178.7083"/><ellipse cx="135.1702" cy="192.7083" fill="#ADD1B2" rx="9" ry="9" style="stroke:#181818;stroke-width:1;"/><path d="M136.4485,196.4983 Q136.1067,196.6741 135.7307,196.762 Q135.3547,196.8499 134.9397,196.8499 Q133.4651,196.8499 132.6887,195.8782 Q131.9123,194.9065 131.9123,193.0706 Q131.9123,191.2298 132.6887,190.2581 Q133.4651,189.2864 134.9397,189.2864 Q135.3547,189.2864 135.7356,189.3743 Q136.1164,189.4622 136.4485,189.638 L136.4485,191.2395 Q136.0774,190.8977 135.7283,190.739 Q135.3791,190.5804 135.008,190.5804 Q134.217,190.5804 133.8142,191.2078 Q133.4114,191.8352 133.4114,193.0706 Q133.4114,194.3011 133.8142,194.9285 Q134.217,195.5559 135.008,195.5559 Q135.3791,195.5559 135.7283,195.3972 Q136.0774,195.2386 136.4485,194.8968 Z " fill="#000000"/><text fill="#000000" font-family="sans-serif" font-size="10" lengthAdjust="spacing" textLength="118.1641" x="152.6702" y="196.4876">UserListPageComponent</text><line style="stroke:#181818;stroke-width:0.5;" x1="76.01" x2="319.9944" y1="206.7083" y2="206.7083"/><line style="stroke:#181818;stroke-width:1;" x1="76.01" x2="319.9944" y1="214.7083" y2="214.7083"/><text fill="#000000" font-family="sans-serif" font-size="10" lengthAdjust="spacing" textLength="136.2695" x="81.01" y="228.3763">+users: Signal&lt;ViewUser[]&gt;</text><text fill="#000000" font-family="sans-serif" font-size="10" lengthAdjust="spacing" textLength="179.5752" x="81.01" y="240.1536">+showCreateForm: Signal&lt;boolean&gt;</text><text fill="#000000" font-family="sans-serif" font-size="10" lengthAdjust="spacing" textLength="144.6875" x="81.01" y="251.9309">+isLoading: Signal&lt;boolean&gt;</text><text fill="#000000" font-family="sans-serif" font-size="10" lengthAdjust="spacing" textLength="137.4805" x="81.01" y="263.7083">+isSaving: Signal&lt;boolean&gt;</text><text fill="#000000" font-family="sans-serif" font-size="10" lengthAdjust="spacing" textLength="180.5176" x="81.01" y="275.4856">+editingUserId: Signal&lt;string | null&gt;</text><text fill="#000000" font-family="sans-serif" font-size="10" lengthAdjust="spacing" textLength="186.0889" x="81.01" y="287.263">+deletingUserId: Signal&lt;string | null&gt;</text><text fill="#000000" font-family="sans-serif" font-size="10" lengthAdjust="spacing" textLength="208.8477" x="81.01" y="299.0403">+editingUser: Computed&lt;ViewUser | null&gt;</text><line style="stroke:#181818;stroke-width:1;" x1="76.01" x2="319.9944" y1="305.1497" y2="305.1497"/><text fill="#000000" font-family="sans-serif" font-size="10" lengthAdjust="spacing" textLength="83.418" x="81.01" y="318.8177">+ngOnInit(): void</text><text fill="#000000" font-family="sans-serif" font-size="10" lengthAdjust="spacing" textLength="160.9326" x="81.01" y="330.595">+requestEdit(userId: string): void</text><text fill="#000000" font-family="sans-serif" font-size="10" lengthAdjust="spacing" textLength="143.5352" x="81.01" y="342.3723">+openCreateUserForm(): void</text><text fill="#000000" font-family="sans-serif" font-size="10" lengthAdjust="spacing" textLength="173.4229" x="81.01" y="354.1497">+requestDelete(userId: string): void</text><text fill="#000000" font-family="sans-serif" font-size="10" lengthAdjust="spacing" textLength="102.5537" x="81.01" y="365.927">+cancelDelete(): void</text><text fill="#000000" font-family="sans-serif" font-size="10" lengthAdjust="spacing" textLength="109.585" x="81.01" y="377.7044">+confirmDelete(): void</text><text fill="#000000" font-family="sans-serif" font-size="10" lengthAdjust="spacing" textLength="227.041" x="81.01" y="389.4817">+createUser(payload: CreateUserPayload): void</text><text fill="#000000" font-family="sans-serif" font-size="10" lengthAdjust="spacing" textLength="233.9844" x="81.01" y="401.2591">+updateUser(payload: UpdateUserPayload): void</text><text fill="#000000" font-family="sans-serif" font-size="10" lengthAdjust="spacing" textLength="90.0635" x="81.01" y="413.0364">+cancelEdit(): void</text><text fill="#000000" font-family="sans-serif" font-size="10" lengthAdjust="spacing" textLength="86.7578" x="81.01" y="424.8138">-loadUsers(): void</text></g><!--class UserService--><g class="entity" data-qualified-name="Management Feature.Users Management.UserService" data-source-line="36" id="ent0005"><rect fill="#F1F1F1" height="91.1094" rx="2.5" ry="2.5" style="stroke:#181818;stroke-width:0.5;" width="301.2285" x="47.39" y="450.6983"/><ellipse cx="166.5052" cy="464.6983" fill="#ADD1B2" rx="9" ry="9" style="stroke:#181818;stroke-width:1;"/><path d="M167.7836,468.4883 Q167.4418,468.6641 167.0658,468.752 Q166.6898,468.8399 166.2748,468.8399 Q164.8002,468.8399 164.0238,467.8682 Q163.2474,466.8965 163.2474,465.0606 Q163.2474,463.2198 164.0238,462.2481 Q164.8002,461.2764 166.2748,461.2764 Q166.6898,461.2764 167.0707,461.3643 Q167.4515,461.4522 167.7836,461.628 L167.7836,463.2295 Q167.4125,462.8877 167.0633,462.729 Q166.7142,462.5704 166.3431,462.5704 Q165.5521,462.5704 165.1493,463.1978 Q164.7464,463.8252 164.7464,465.0606 Q164.7464,466.2911 165.1493,466.9185 Q165.5521,467.5459 166.3431,467.5459 Q166.7142,467.5459 167.0633,467.3872 Q167.4125,467.2286 167.7836,466.8868 Z " fill="#000000"/><text fill="#000000" font-family="sans-serif" font-size="10" lengthAdjust="spacing" textLength="55.498" x="184.0052" y="468.4776">UserService</text><line style="stroke:#181818;stroke-width:0.5;" x1="48.39" x2="347.6185" y1="478.6983" y2="478.6983"/><line style="stroke:#181818;stroke-width:1;" x1="48.39" x2="347.6185" y1="486.6983" y2="486.6983"/><text fill="#000000" font-family="sans-serif" font-size="10" lengthAdjust="spacing" textLength="184.1895" x="53.39" y="500.3663">+getUsers(): Observable&lt;ViewUser[]&gt;</text><text fill="#000000" font-family="sans-serif" font-size="10" lengthAdjust="spacing" textLength="239.5557" x="53.39" y="512.1436">+createUser(payload): Observable&lt;CreatedUser&gt;</text><text fill="#000000" font-family="sans-serif" font-size="10" lengthAdjust="spacing" textLength="244.0723" x="53.39" y="523.9209">+updateUser(id, payload): Observable&lt;ViewUser&gt;</text><text fill="#000000" font-family="sans-serif" font-size="10" lengthAdjust="spacing" textLength="289.2285" x="53.39" y="535.6983">+deleteUsers(ids: string[]): Observable&lt;{deleted: number}&gt;</text></g><!--class ThresholdPage--><g class="entity" data-qualified-name="Management Feature.Thresholds.ThresholdPage" data-source-line="46" id="ent0007"><rect fill="#F1F1F1" height="263.9922" rx="2.5" ry="2.5" style="stroke:#181818;stroke-width:0.5;" width="318.6309" x="404.68" y="172.8183"/><ellipse cx="476.6932" cy="186.8183" fill="#ADD1B2" rx="9" ry="9" style="stroke:#181818;stroke-width:1;"/><path d="M477.9715,190.6083 Q477.6297,190.7841 477.2537,190.872 Q476.8778,190.9599 476.4627,190.9599 Q474.9881,190.9599 474.2117,189.9882 Q473.4354,189.0165 473.4354,187.1806 Q473.4354,185.3398 474.2117,184.3681 Q474.9881,183.3964 476.4627,183.3964 Q476.8778,183.3964 477.2586,183.4843 Q477.6395,183.5722 477.9715,183.748 L477.9715,185.3495 Q477.6004,185.0077 477.2513,184.849 Q476.9022,184.6904 476.5311,184.6904 Q475.7401,184.6904 475.3372,185.3178 Q474.9344,185.9452 474.9344,187.1806 Q474.9344,188.4111 475.3372,189.0385 Q475.7401,189.6659 476.5311,189.6659 Q476.9022,189.6659 477.2513,189.5072 Q477.6004,189.3486 477.9715,189.0068 Z " fill="#000000"/><text fill="#000000" font-family="sans-serif" font-size="10" lengthAdjust="spacing" textLength="167.1045" x="494.1932" y="190.5976">ThresholdSettingsPageComponent</text><line style="stroke:#181818;stroke-width:0.5;" x1="405.68" x2="722.3109" y1="200.8183" y2="200.8183"/><line style="stroke:#181818;stroke-width:1;" x1="405.68" x2="722.3109" y1="208.8183" y2="208.8183"/><text fill="#000000" font-family="sans-serif" font-size="10" lengthAdjust="spacing" textLength="198.042" x="410.68" y="222.4863">+thresholds: Signal&lt;ThresholdConfig[]&gt;</text><text fill="#000000" font-family="sans-serif" font-size="10" lengthAdjust="spacing" textLength="187.832" x="410.68" y="234.2636">+sensorTypeOptions: Signal&lt;string[]&gt;</text><text fill="#000000" font-family="sans-serif" font-size="10" lengthAdjust="spacing" textLength="173.5938" x="410.68" y="246.0409">+sensorIdOptions: Signal&lt;string[]&gt;</text><text fill="#000000" font-family="sans-serif" font-size="10" lengthAdjust="spacing" textLength="148.1592" x="410.68" y="257.8183">+showForm: Signal&lt;boolean&gt;</text><text fill="#000000" font-family="sans-serif" font-size="10" lengthAdjust="spacing" textLength="292.5684" x="410.68" y="269.5956">+deletingThreshold: Signal&lt;ThresholdDeletePayload | null&gt;</text><text fill="#000000" font-family="sans-serif" font-size="10" lengthAdjust="spacing" textLength="144.6875" x="410.68" y="281.373">+isLoading: Signal&lt;boolean&gt;</text><text fill="#000000" font-family="sans-serif" font-size="10" lengthAdjust="spacing" textLength="137.4805" x="410.68" y="293.1503">+isSaving: Signal&lt;boolean&gt;</text><text fill="#000000" font-family="sans-serif" font-size="10" lengthAdjust="spacing" textLength="142.1631" x="410.68" y="304.9277">+canEditThresholds: boolean</text><line style="stroke:#181818;stroke-width:1;" x1="405.68" x2="722.3109" y1="311.037" y2="311.037"/><text fill="#000000" font-family="sans-serif" font-size="10" lengthAdjust="spacing" textLength="83.418" x="410.68" y="324.705">+ngOnInit(): void</text><text fill="#000000" font-family="sans-serif" font-size="10" lengthAdjust="spacing" textLength="97.0313" x="410.68" y="336.4823">+toggleForm(): void</text><text fill="#000000" font-family="sans-serif" font-size="10" lengthAdjust="spacing" textLength="91.04" x="410.68" y="348.2597">+closeForm(): void</text><text fill="#000000" font-family="sans-serif" font-size="10" lengthAdjust="spacing" textLength="288.4668" x="410.68" y="360.037">+saveTypeThreshold(payload: TypeThresholdPayload): void</text><text fill="#000000" font-family="sans-serif" font-size="10" lengthAdjust="spacing" textLength="306.6309" x="410.68" y="371.8144">+saveSensorThreshold(payload: SensorThresholdPayload): void</text><text fill="#000000" font-family="sans-serif" font-size="10" lengthAdjust="spacing" textLength="280.7471" x="410.68" y="383.5917">+deleteThreshold(payload: ThresholdDeletePayload): void</text><text fill="#000000" font-family="sans-serif" font-size="10" lengthAdjust="spacing" textLength="151.377" x="410.68" y="395.3691">+cancelDeleteThreshold(): void</text><text fill="#000000" font-family="sans-serif" font-size="10" lengthAdjust="spacing" textLength="158.4082" x="410.68" y="407.1464">+confirmDeleteThreshold(): void</text><text fill="#000000" font-family="sans-serif" font-size="10" lengthAdjust="spacing" textLength="113.8916" x="410.68" y="418.9238">-loadThresholds(): void</text><text fill="#000000" font-family="sans-serif" font-size="10" lengthAdjust="spacing" textLength="130.6055" x="410.68" y="430.7011">-loadSensorOptions(): void</text></g><!--class ThresholdService--><g class="entity" data-qualified-name="Management Feature.Thresholds.ThresholdService" data-source-line="69" id="ent0008"><rect fill="#F1F1F1" height="102.8867" rx="2.5" ry="2.5" style="stroke:#181818;stroke-width:0.5;" width="307.6104" x="410.19" y="444.8083"/><ellipse cx="518.9293" cy="458.8083" fill="#ADD1B2" rx="9" ry="9" style="stroke:#181818;stroke-width:1;"/><path d="M520.2076,462.5983 Q519.8658,462.7741 519.4898,462.862 Q519.1138,462.9499 518.6988,462.9499 Q517.2242,462.9499 516.4478,461.9782 Q515.6714,461.0065 515.6714,459.1706 Q515.6714,457.3298 516.4478,456.3581 Q517.2242,455.3864 518.6988,455.3864 Q519.1138,455.3864 519.4947,455.4743 Q519.8755,455.5622 520.2076,455.738 L520.2076,457.3395 Q519.8365,456.9977 519.4874,456.839 Q519.1382,456.6804 518.7671,456.6804 Q517.9761,456.6804 517.5733,457.3078 Q517.1705,457.9352 517.1705,459.1706 Q517.1705,460.4011 517.5733,461.0285 Q517.9761,461.6559 518.7671,461.6559 Q519.1382,461.6559 519.4874,461.4972 Q519.8365,461.3386 520.2076,460.9968 Z " fill="#000000"/><text fill="#000000" font-family="sans-serif" font-size="10" lengthAdjust="spacing" textLength="82.6318" x="536.4293" y="462.5876">ThresholdService</text><line style="stroke:#181818;stroke-width:0.5;" x1="411.19" x2="716.8004" y1="472.8083" y2="472.8083"/><line style="stroke:#181818;stroke-width:1;" x1="411.19" x2="716.8004" y1="480.8083" y2="480.8083"/><text fill="#000000" font-family="sans-serif" font-size="10" lengthAdjust="spacing" textLength="256.5918" x="416.19" y="494.4763">+fetchThresholds(): Observable&lt;ThresholdConfig[]&gt;</text><text fill="#000000" font-family="sans-serif" font-size="10" lengthAdjust="spacing" textLength="282.7002" x="416.19" y="506.2536">+setDefaultThreshold(type, min, max): Observable&lt;void&gt;</text><text fill="#000000" font-family="sans-serif" font-size="10" lengthAdjust="spacing" textLength="295.6104" x="416.19" y="518.0309">+setSensorThreshold(id, type, min, max): Observable&lt;void&gt;</text><text fill="#000000" font-family="sans-serif" font-size="10" lengthAdjust="spacing" textLength="231.6016" x="416.19" y="529.8083">+deleteSensorThreshold(id): Observable&lt;void&gt;</text><text fill="#000000" font-family="sans-serif" font-size="10" lengthAdjust="spacing" textLength="234.165" x="416.19" y="541.5856">+deleteTypeThreshold(type): Observable&lt;void&gt;</text></g><!--class AuditPage--><g class="entity" data-qualified-name="Management Feature.Audit Logs.AuditPage" data-source-line="80" id="ent0010"><rect fill="#F1F1F1" height="252.2148" rx="2.5" ry="2.5" style="stroke:#181818;stroke-width:0.5;" width="240.9648" x="778.52" y="178.7083"/><ellipse cx="833.6753" cy="192.7083" fill="#ADD1B2" rx="9" ry="9" style="stroke:#181818;stroke-width:1;"/><path d="M834.9536,196.4983 Q834.6118,196.6741 834.2358,196.762 Q833.8598,196.8499 833.4448,196.8499 Q831.9702,196.8499 831.1938,195.8782 Q830.4175,194.9065 830.4175,193.0706 Q830.4175,191.2298 831.1938,190.2581 Q831.9702,189.2864 833.4448,189.2864 Q833.8598,189.2864 834.2407,189.3743 Q834.6216,189.4622 834.9536,189.638 L834.9536,191.2395 Q834.5825,190.8977 834.2334,190.739 Q833.8843,190.5804 833.5132,190.5804 Q832.7221,190.5804 832.3193,191.2078 Q831.9165,191.8352 831.9165,193.0706 Q831.9165,194.3011 832.3193,194.9285 Q832.7221,195.5559 833.5132,195.5559 Q833.8843,195.5559 834.2334,195.3972 Q834.5825,195.2386 834.9536,194.8968 Z " fill="#000000"/><text fill="#000000" font-family="sans-serif" font-size="10" lengthAdjust="spacing" textLength="123.1543" x="851.1753" y="196.4876">AuditLogPageComponent</text><line style="stroke:#181818;stroke-width:0.5;" x1="779.52" x2="1018.4848" y1="206.7083" y2="206.7083"/><line style="stroke:#181818;stroke-width:1;" x1="779.52" x2="1018.4848" y1="214.7083" y2="214.7083"/><text fill="#000000" font-family="sans-serif" font-size="10" lengthAdjust="spacing" textLength="108.9844" x="784.52" y="228.3763">+logs: Signal&lt;Logs[]&gt;</text><text fill="#000000" font-family="sans-serif" font-size="10" lengthAdjust="spacing" textLength="162.3535" x="784.52" y="240.1536">+userIdOptions: Signal&lt;string[]&gt;</text><text fill="#000000" font-family="sans-serif" font-size="10" lengthAdjust="spacing" textLength="161.8359" x="784.52" y="251.9309">+actionOptions: Signal&lt;string[]&gt;</text><text fill="#000000" font-family="sans-serif" font-size="10" lengthAdjust="spacing" textLength="110.8154" x="784.52" y="263.7083">+from: Signal&lt;string&gt;</text><text fill="#000000" font-family="sans-serif" font-size="10" lengthAdjust="spacing" textLength="97.4512" x="784.52" y="275.4856">+to: Signal&lt;string&gt;</text><text fill="#000000" font-family="sans-serif" font-size="10" lengthAdjust="spacing" textLength="129.3115" x="784.52" y="287.263">+userIds: Signal&lt;string[]&gt;</text><text fill="#000000" font-family="sans-serif" font-size="10" lengthAdjust="spacing" textLength="128.7939" x="784.52" y="299.0403">+actions: Signal&lt;string[]&gt;</text><text fill="#000000" font-family="sans-serif" font-size="10" lengthAdjust="spacing" textLength="144.6875" x="784.52" y="310.8177">+isLoading: Signal&lt;boolean&gt;</text><text fill="#000000" font-family="sans-serif" font-size="10" lengthAdjust="spacing" textLength="153.2178" x="784.52" y="322.595">+isExporting: Signal&lt;boolean&gt;</text><line style="stroke:#181818;stroke-width:1;" x1="779.52" x2="1018.4848" y1="328.7044" y2="328.7044"/><text fill="#000000" font-family="sans-serif" font-size="10" lengthAdjust="spacing" textLength="83.418" x="784.52" y="342.3723">+ngOnInit(): void</text><text fill="#000000" font-family="sans-serif" font-size="10" lengthAdjust="spacing" textLength="228.9648" x="784.52" y="354.1497">+applyFilters(form: AuditFilterFormValue): void</text><text fill="#000000" font-family="sans-serif" font-size="10" lengthAdjust="spacing" textLength="95" x="784.52" y="365.927">+resetFilters(): void</text><text fill="#000000" font-family="sans-serif" font-size="10" lengthAdjust="spacing" textLength="131.0303" x="784.52" y="377.7044">+canExportLogs(): boolean</text><text fill="#000000" font-family="sans-serif" font-size="10" lengthAdjust="spacing" textLength="108.2617" x="784.52" y="389.4817">+onExportLogs(): void</text><text fill="#000000" font-family="sans-serif" font-size="10" lengthAdjust="spacing" textLength="82.7783" x="784.52" y="401.2591">-loadLogs(): void</text><text fill="#000000" font-family="sans-serif" font-size="10" lengthAdjust="spacing" textLength="194.79" x="784.52" y="413.0364">-refreshFilterOptions(rows: Logs[]): void</text><text fill="#000000" font-family="sans-serif" font-size="10" lengthAdjust="spacing" textLength="174.1846" x="784.52" y="424.8138">-downloadAsCsv(rows: Logs[]): void</text></g><!--class AuditService--><g class="entity" data-qualified-name="Management Feature.Audit Logs.AuditService" data-source-line="102" id="ent0011"><rect fill="#F1F1F1" height="55.7773" rx="2.5" ry="2.5" style="stroke:#181818;stroke-width:0.5;" width="198.582" x="799.71" y="468.3683"/><ellipse cx="865.3316" cy="482.3683" fill="#ADD1B2" rx="9" ry="9" style="stroke:#181818;stroke-width:1;"/><path d="M866.6099,486.1583 Q866.2681,486.3341 865.8921,486.422 Q865.5162,486.5099 865.1011,486.5099 Q863.6265,486.5099 862.8501,485.5382 Q862.0738,484.5665 862.0738,482.7306 Q862.0738,480.8898 862.8501,479.9181 Q863.6265,478.9464 865.1011,478.9464 Q865.5162,478.9464 865.897,479.0343 Q866.2779,479.1222 866.6099,479.298 L866.6099,480.8995 Q866.2388,480.5577 865.8897,480.399 Q865.5406,480.2404 865.1695,480.2404 Q864.3785,480.2404 863.9756,480.8678 Q863.5728,481.4952 863.5728,482.7306 Q863.5728,483.9611 863.9756,484.5885 Q864.3785,485.2159 865.1695,485.2159 Q865.5406,485.2159 865.8897,485.0572 Q866.2388,484.8986 866.6099,484.5568 Z " fill="#000000"/><text fill="#000000" font-family="sans-serif" font-size="10" lengthAdjust="spacing" textLength="59.8389" x="882.8316" y="486.1476">AuditService</text><line style="stroke:#181818;stroke-width:0.5;" x1="800.71" x2="997.292" y1="496.3683" y2="496.3683"/><line style="stroke:#181818;stroke-width:1;" x1="800.71" x2="997.292" y1="504.3683" y2="504.3683"/><text fill="#000000" font-family="sans-serif" font-size="10" lengthAdjust="spacing" textLength="186.582" x="805.71" y="518.0363">+getLogs(filters): Observable&lt;Logs[]&gt;</text></g><!--class CostPage--><g class="entity" data-qualified-name="Management Feature.Costs.CostPage" data-source-line="109" id="ent0013"><rect fill="#F1F1F1" height="99.1094" rx="2.5" ry="2.5" style="stroke:#181818;stroke-width:0.5;" width="181.9746" x="1087.01" y="255.2583"/><ellipse cx="1100.01" cy="269.2583" fill="#ADD1B2" rx="9" ry="9" style="stroke:#181818;stroke-width:1;"/><path d="M1101.2883,273.0483 Q1100.9465,273.2241 1100.5705,273.312 Q1100.1946,273.3999 1099.7795,273.3999 Q1098.3049,273.3999 1097.5286,272.4282 Q1096.7522,271.4565 1096.7522,269.6206 Q1096.7522,267.7798 1097.5286,266.8081 Q1098.3049,265.8364 1099.7795,265.8364 Q1100.1946,265.8364 1100.5754,265.9243 Q1100.9563,266.0122 1101.2883,266.188 L1101.2883,267.7895 Q1100.9172,267.4477 1100.5681,267.289 Q1100.219,267.1304 1099.8479,267.1304 Q1099.0569,267.1304 1098.654,267.7578 Q1098.2512,268.3852 1098.2512,269.6206 Q1098.2512,270.8511 1098.654,271.4785 Q1099.0569,272.1059 1099.8479,272.1059 Q1100.219,272.1059 1100.5681,271.9472 Q1100.9172,271.7886 1101.2883,271.4468 Z " fill="#000000"/><text fill="#000000" font-family="sans-serif" font-size="10" lengthAdjust="spacing" textLength="153.9746" x="1112.01" y="273.0376">CostDashboardPageComponent</text><line style="stroke:#181818;stroke-width:0.5;" x1="1088.01" x2="1267.9846" y1="283.2583" y2="283.2583"/><line style="stroke:#181818;stroke-width:1;" x1="1088.01" x2="1267.9846" y1="291.2583" y2="291.2583"/><text fill="#000000" font-family="sans-serif" font-size="10" lengthAdjust="spacing" textLength="139.7607" x="1093.01" y="304.9263">+costs: Signal&lt;Costs | null&gt;</text><text fill="#000000" font-family="sans-serif" font-size="10" lengthAdjust="spacing" textLength="144.6875" x="1093.01" y="316.7036">+isLoading: Signal&lt;boolean&gt;</text><line style="stroke:#181818;stroke-width:1;" x1="1088.01" x2="1267.9846" y1="322.813" y2="322.813"/><text fill="#000000" font-family="sans-serif" font-size="10" lengthAdjust="spacing" textLength="83.418" x="1093.01" y="336.4809">+ngOnInit(): void</text><text fill="#000000" font-family="sans-serif" font-size="10" lengthAdjust="spacing" textLength="86.9678" x="1093.01" y="348.2583">-loadCosts(): void</text></g><!--class CostsService--><g class="entity" data-qualified-name="Management Feature.Costs.CostsService" data-source-line="118" id="ent0014"><rect fill="#F1F1F1" height="55.7773" rx="2.5" ry="2.5" style="stroke:#181818;stroke-width:0.5;" width="206.0674" x="1074.97" y="468.3683"/><ellipse cx="1143.8509" cy="482.3683" fill="#ADD1B2" rx="9" ry="9" style="stroke:#181818;stroke-width:1;"/><path d="M1145.1292,486.1583 Q1144.7874,486.3341 1144.4114,486.422 Q1144.0354,486.5099 1143.6204,486.5099 Q1142.1458,486.5099 1141.3694,485.5382 Q1140.593,484.5665 1140.593,482.7306 Q1140.593,480.8898 1141.3694,479.9181 Q1142.1458,478.9464 1143.6204,478.9464 Q1144.0354,478.9464 1144.4163,479.0343 Q1144.7971,479.1222 1145.1292,479.298 L1145.1292,480.8995 Q1144.7581,480.5577 1144.409,480.399 Q1144.0598,480.2404 1143.6888,480.2404 Q1142.8977,480.2404 1142.4949,480.8678 Q1142.0921,481.4952 1142.0921,482.7306 Q1142.0921,483.9611 1142.4949,484.5885 Q1142.8977,485.2159 1143.6888,485.2159 Q1144.0598,485.2159 1144.409,485.0572 Q1144.7581,484.8986 1145.1292,484.5568 Z " fill="#000000"/><text fill="#000000" font-family="sans-serif" font-size="10" lengthAdjust="spacing" textLength="60.8057" x="1161.3509" y="486.1476">CostsService</text><line style="stroke:#181818;stroke-width:0.5;" x1="1075.97" x2="1280.0374" y1="496.3683" y2="496.3683"/><line style="stroke:#181818;stroke-width:1;" x1="1075.97" x2="1280.0374" y1="504.3683" y2="504.3683"/><text fill="#000000" font-family="sans-serif" font-size="10" lengthAdjust="spacing" textLength="194.0674" x="1080.97" y="518.0363">+getTenantCosts(): Observable&lt;Costs&gt;</text></g><!--class ApiClientPage--><g class="entity" data-qualified-name="Management Feature.API Clients.ApiClientPage" data-source-line="125" id="ent0016"><rect fill="#F1F1F1" height="240.4375" rx="2.5" ry="2.5" style="stroke:#181818;stroke-width:0.5;" width="242.5908" x="1355.7" y="184.5983"/><ellipse cx="1402.8572" cy="198.5983" fill="#ADD1B2" rx="9" ry="9" style="stroke:#181818;stroke-width:1;"/><path d="M1404.1355,202.3883 Q1403.7938,202.5641 1403.4178,202.652 Q1403.0418,202.7399 1402.6268,202.7399 Q1401.1521,202.7399 1400.3758,201.7682 Q1399.5994,200.7965 1399.5994,198.9606 Q1399.5994,197.1198 1400.3758,196.1481 Q1401.1521,195.1764 1402.6268,195.1764 Q1403.0418,195.1764 1403.4227,195.2643 Q1403.8035,195.3522 1404.1355,195.528 L1404.1355,197.1295 Q1403.7645,196.7877 1403.4153,196.629 Q1403.0662,196.4704 1402.6951,196.4704 Q1401.9041,196.4704 1401.5013,197.0978 Q1401.0984,197.7252 1401.0984,198.9606 Q1401.0984,200.1911 1401.5013,200.8185 Q1401.9041,201.4459 1402.6951,201.4459 Q1403.0662,201.4459 1403.4153,201.2872 Q1403.7645,201.1286 1404.1355,200.7868 Z " fill="#000000"/><text fill="#000000" font-family="sans-serif" font-size="10" lengthAdjust="spacing" textLength="140.7764" x="1420.3572" y="202.3776">ApiClientListPageComponent</text><line style="stroke:#181818;stroke-width:0.5;" x1="1356.7" x2="1597.2908" y1="212.5983" y2="212.5983"/><line style="stroke:#181818;stroke-width:1;" x1="1356.7" x2="1597.2908" y1="220.5983" y2="220.5983"/><text fill="#000000" font-family="sans-serif" font-size="10" lengthAdjust="spacing" textLength="155.0293" x="1361.7" y="234.2663">+clients: Signal&lt;SecretClient[]&gt;</text><text fill="#000000" font-family="sans-serif" font-size="10" lengthAdjust="spacing" textLength="200.2246" x="1361.7" y="246.0436">+lastCreated: Signal&lt;SecretClient | null&gt;</text><text fill="#000000" font-family="sans-serif" font-size="10" lengthAdjust="spacing" textLength="179.5752" x="1361.7" y="257.8209">+showCreateForm: Signal&lt;boolean&gt;</text><text fill="#000000" font-family="sans-serif" font-size="10" lengthAdjust="spacing" textLength="144.6875" x="1361.7" y="269.5983">+isLoading: Signal&lt;boolean&gt;</text><text fill="#000000" font-family="sans-serif" font-size="10" lengthAdjust="spacing" textLength="137.4805" x="1361.7" y="281.3756">+isSaving: Signal&lt;boolean&gt;</text><text fill="#000000" font-family="sans-serif" font-size="10" lengthAdjust="spacing" textLength="192.6172" x="1361.7" y="293.153">+deletingClientId: Signal&lt;string | null&gt;</text><line style="stroke:#181818;stroke-width:1;" x1="1356.7" x2="1597.2908" y1="299.2623" y2="299.2623"/><text fill="#000000" font-family="sans-serif" font-size="10" lengthAdjust="spacing" textLength="83.418" x="1361.7" y="312.9303">+ngOnInit(): void</text><text fill="#000000" font-family="sans-serif" font-size="10" lengthAdjust="spacing" textLength="128.4473" x="1361.7" y="324.7077">+toggleCreateForm(): void</text><text fill="#000000" font-family="sans-serif" font-size="10" lengthAdjust="spacing" textLength="122.4561" x="1361.7" y="336.485">+closeCreateForm(): void</text><text fill="#000000" font-family="sans-serif" font-size="10" lengthAdjust="spacing" textLength="189.126" x="1361.7" y="348.2623">+submitCreateForm(event, input): void</text><text fill="#000000" font-family="sans-serif" font-size="10" lengthAdjust="spacing" textLength="196.2305" x="1361.7" y="360.0397">+createClient(name: string, input?): void</text><text fill="#000000" font-family="sans-serif" font-size="10" lengthAdjust="spacing" textLength="178.877" x="1361.7" y="371.817">+requestDelete(clientId: string): void</text><text fill="#000000" font-family="sans-serif" font-size="10" lengthAdjust="spacing" textLength="102.5537" x="1361.7" y="383.5944">+cancelDelete(): void</text><text fill="#000000" font-family="sans-serif" font-size="10" lengthAdjust="spacing" textLength="109.585" x="1361.7" y="395.3717">+confirmDelete(): void</text><text fill="#000000" font-family="sans-serif" font-size="10" lengthAdjust="spacing" textLength="93.2861" x="1361.7" y="407.1491">-loadClients(): void</text><text fill="#000000" font-family="sans-serif" font-size="10" lengthAdjust="spacing" textLength="230.5908" x="1361.7" y="418.9264">-resolveCreateClientErrorMessage(error): string</text></g><!--class ClientService--><g class="entity" data-qualified-name="Management Feature.API Clients.ClientService" data-source-line="146" id="ent0017"><rect fill="#F1F1F1" height="79.332" rx="2.5" ry="2.5" style="stroke:#181818;stroke-width:0.5;" width="279.7197" x="1337.14" y="456.5883"/><ellipse cx="1439.6879" cy="470.5883" fill="#ADD1B2" rx="9" ry="9" style="stroke:#181818;stroke-width:1;"/><path d="M1440.9662,474.3783 Q1440.6244,474.5541 1440.2484,474.642 Q1439.8724,474.7299 1439.4574,474.7299 Q1437.9828,474.7299 1437.2064,473.7582 Q1436.43,472.7865 1436.43,470.9506 Q1436.43,469.1098 1437.2064,468.1381 Q1437.9828,467.1664 1439.4574,467.1664 Q1439.8724,467.1664 1440.2533,467.2543 Q1440.6341,467.3422 1440.9662,467.518 L1440.9662,469.1195 Q1440.5951,468.7777 1440.246,468.619 Q1439.8968,468.4604 1439.5257,468.4604 Q1438.7347,468.4604 1438.3319,469.0878 Q1437.9291,469.7152 1437.9291,470.9506 Q1437.9291,472.1811 1438.3319,472.8085 Q1438.7347,473.4359 1439.5257,473.4359 Q1439.8968,473.4359 1440.246,473.2772 Q1440.5951,473.1186 1440.9662,472.7768 Z " fill="#000000"/><text fill="#000000" font-family="sans-serif" font-size="10" lengthAdjust="spacing" textLength="67.124" x="1457.1879" y="474.3676">ClientsService</text><line style="stroke:#181818;stroke-width:0.5;" x1="1338.14" x2="1615.8597" y1="484.5883" y2="484.5883"/><line style="stroke:#181818;stroke-width:1;" x1="1338.14" x2="1615.8597" y1="492.5883" y2="492.5883"/><text fill="#000000" font-family="sans-serif" font-size="10" lengthAdjust="spacing" textLength="204.0234" x="1343.14" y="506.2563">+getClients(): Observable&lt;SecretClient[]&gt;</text><text fill="#000000" font-family="sans-serif" font-size="10" lengthAdjust="spacing" textLength="267.7197" x="1343.14" y="518.0336">+createClient(name: string): Observable&lt;SecretClient&gt;</text><text fill="#000000" font-family="sans-serif" font-size="10" lengthAdjust="spacing" textLength="213.0908" x="1343.14" y="529.8109">+deleteClient(id: string): Observable&lt;void&gt;</text></g><g class="entity" data-qualified-name="GMN23" data-source-line="163" id="ent0024"><path d="M70.73,43.4883 L70.73,88.8203 A0,0 0 0 0 70.73,88.8203 L194,88.8203 L198,178.4783 L202,88.8203 L325.2652,88.8203 A0,0 0 0 0 325.2652,88.8203 L325.2652,53.4883 L315.2652,43.4883 L70.73,43.4883 A0,0 0 0 0 70.73,43.4883" fill="#FEFFDD" style="stroke:#181818;stroke-width:0.5;"/><path d="M315.2652,43.4883 L315.2652,53.4883 L325.2652,53.4883 L315.2652,43.4883" fill="#FEFFDD" style="stroke:#181818;stroke-width:0.5;"/><text fill="#000000" font-family="sans-serif" font-size="10" lengthAdjust="spacing" textLength="233.5352" x="76.73" y="58.1563">Handles creation, update, and deletion of users.</text><text fill="#000000" font-family="sans-serif" font-size="10" lengthAdjust="spacing" textLength="182.8809" x="76.73" y="69.9336">Uses computed signal 'editingUser' to</text><text fill="#000000" font-family="sans-serif" font-size="10" lengthAdjust="spacing" textLength="229.0234" x="76.73" y="81.7109">determine if the form is in edit or create mode.</text></g><g class="entity" data-qualified-name="GMN26" data-source-line="169" id="ent0027"><path d="M1673.3,276.2583 L1673.3,333.3677 L1902.6984,333.3677 L1902.6984,286.2583 L1892.6984,276.2583 L1673.3,276.2583" fill="#FEFFDD" style="stroke:#181818;stroke-width:0.5;"/><path d="M1892.6984,276.2583 L1892.6984,286.2583 L1902.6984,286.2583 L1892.6984,276.2583" fill="#FEFFDD" style="stroke:#181818;stroke-width:1;"/><text fill="#000000" font-family="sans-serif" font-size="10" lengthAdjust="spacing" textLength="198.7207" x="1679.3" y="290.9263">Manages thresholds via distinct methods</text><text fill="#000000" font-family="sans-serif" font-size="10" lengthAdjust="spacing" textLength="186.4746" x="1679.3" y="302.7036">for Type (global) and Sensor (specific).</text><text fill="#000000" font-family="sans-serif" font-size="10" lengthAdjust="spacing" textLength="208.3984" x="1679.3" y="314.4809">Checks 'canEditThresholds' via AuthService</text><text fill="#000000" font-family="sans-serif" font-size="10" lengthAdjust="spacing" textLength="189.9512" x="1679.3" y="326.2583">to prevent unauthorized modifications.</text></g><g class="entity" data-qualified-name="GMN29" data-source-line="176" id="ent0030"><path d="M1673.22,473.5883 L1673.22,518.9203 L1936.7884,518.9203 L1936.7884,483.5883 L1926.7884,473.5883 L1673.22,473.5883" fill="#FEFFDD" style="stroke:#181818;stroke-width:0.5;"/><path d="M1926.7884,473.5883 L1926.7884,483.5883 L1936.7884,483.5883 L1926.7884,473.5883" fill="#FEFFDD" style="stroke:#181818;stroke-width:1;"/><text fill="#000000" font-family="sans-serif" font-size="10" lengthAdjust="spacing" textLength="189.1162" x="1679.22" y="488.2563">Downloads logs directly in CSV format.</text><text fill="#000000" font-family="sans-serif" font-size="10" lengthAdjust="spacing" textLength="205.752" x="1679.22" y="500.0336">Extracts unique User IDs and Actions from</text><text fill="#000000" font-family="sans-serif" font-size="10" lengthAdjust="spacing" textLength="242.5684" x="1679.22" y="511.8109">the fetched logs to populate the filter dropdowns.</text></g><!--link UserListPage to UserService--><g class="link" data-entity-1="ent0004" data-entity-2="ent0005" data-link-type="dependency" data-source-line="155" id="lnk18"><path codeLine="155" d="M198,431.1783 C198,437.8683 198,438.3483 198,444.4483" fill="none" id="UserListPage-to-UserService" style="stroke:#181818;stroke-width:1;"/><polygon fill="#181818" points="198,450.4483,202,441.4483,198,445.4483,194,441.4483,198,450.4483" style="stroke:#181818;stroke-width:1;"/></g><!--link ThresholdPage to ThresholdService--><g class="link" data-entity-1="ent0007" data-entity-2="ent0008" data-link-type="dependency" data-source-line="156" id="lnk19"><path codeLine="156" d="M512.73,437.2583 C512.73,439.6983 512.73,436.0983 512.73,438.4583" fill="none" id="ThresholdPage-to-ThresholdService" style="stroke:#181818;stroke-width:1;"/><polygon fill="#181818" points="512.73,444.4583,516.73,435.4583,512.73,439.4583,508.73,435.4583,512.73,444.4583" style="stroke:#181818;stroke-width:1;"/></g><!--link AuditPage to AuditService--><g class="link" data-entity-1="ent0010" data-entity-2="ent0011" data-link-type="dependency" data-source-line="157" id="lnk20"><path codeLine="157" d="M899,431.1783 C899,444.8483 899,451.5883 899,462.1083" fill="none" id="AuditPage-to-AuditService" style="stroke:#181818;stroke-width:1;"/><polygon fill="#181818" points="899,468.1083,903,459.1083,899,463.1083,895,459.1083,899,468.1083" style="stroke:#181818;stroke-width:1;"/></g><!--link CostPage to CostsService--><g class="link" data-entity-1="ent0013" data-entity-2="ent0014" data-link-type="dependency" data-source-line="158" id="lnk21"><path codeLine="158" d="M1178,354.6183 C1178,390.7283 1178,432.2783 1178,462.0583" fill="none" id="CostPage-to-CostsService" style="stroke:#181818;stroke-width:1;"/><polygon fill="#181818" points="1178,468.0583,1182,459.0583,1178,463.0583,1174,459.0583,1178,468.0583" style="stroke:#181818;stroke-width:1;"/></g><!--link ApiClientPage to ClientService--><g class="link" data-entity-1="ent0016" data-entity-2="ent0017" data-link-type="dependency" data-source-line="159" id="lnk22"><path codeLine="159" d="M1477,425.5183 C1477,436.4183 1477,440.8483 1477,450.1983" fill="none" id="ApiClientPage-to-ClientService" style="stroke:#181818;stroke-width:1;"/><polygon fill="#181818" points="1477,456.1983,1481,447.1983,1477,451.1983,1473,447.1983,1477,456.1983" style="stroke:#181818;stroke-width:1;"/></g><!--link ThresholdPage to GMN26--><g class="link" data-entity-1="ent0007" data-entity-2="ent0027" data-link-type="association" data-source-line="169" id="lnk28"><path d="M615.27,436.8783 C615.27,438.6983 615.27,439.6983 615.27,439.6983 C615.27,439.6983 1749.77,439.6983 1749.77,439.6983 C1749.77,439.6983 1749.77,373.3883 1749.77,333.7483" fill="none" id="ThresholdPage-GMN26" style="stroke:#181818;stroke-width:1;stroke-dasharray:7,7;"/></g><!--link AuditPage to GMN29--><g class="link" data-entity-1="ent0010" data-entity-2="ent0030" data-link-type="association" data-source-line="176" id="lnk31"><path d="M1008.89,431.4083 C1008.89,437.8383 1008.89,441.6983 1008.89,441.6983 C1008.89,441.6983 1826.23,441.6983 1826.23,441.6983 C1826.23,441.6983 1826.23,458.2483 1826.23,473.1183" fill="none" id="AuditPage-GMN29" style="stroke:#181818;stroke-width:1;stroke-dasharray:7,7;"/></g><?plantuml-src lLXBRniv3BxxLn3TGnmqARgtHH5uOJW9ra2x3Ugqbw87UOQsXSZIhAHncZx--vBIUAnvsLcWM1yCM_n8aHG_3ZLUUeNmjxcVty6jDTgZpk4ItWajrhX5xM5giutqcFdI8eodMLPQuV5yD78FKXV2YYqiHVQmjgRK-SmeO-6ts_1943ckHAdyBMsmaDyGVd_TBwpqNuTF0j4cHuS5_96iMQ4VscjAQlHF1OAnVcCIGQQ4SrFlhLoM7kUPqS6FrwDHGSvJhF0YYVaM1OVx0gwkFb3aGgyLJYRmVJG2gF4V7LgNPEe5oO4-OQieVYkTloFnp6mBemD6E4WbbGx0vMNrusN9Tj_0GgwrK5UV93womkSlapt0RSpZp9ABU6lijaOkZL4eT0sJxgqHkTJh8uY5s1q3O2uzoNd_ULwZ76LHh-47w5Af6fkZmcU34yDlWBD3XvBNiRRGXzJezNizrzAFpz_0piXylsxndnATlo6huxBQFsxS0fe2TKmTxyFf6p1rpT7WSMEPq1cg2jcM6RsITZiWh3qO5-99qIbH4kgrkxZKqYcBlAFpiLxhruaEXgmq9PSC3lNR4FmSjGjuWNOdCwpBjlhVKxLhzBN1zqlwjHDBXNtbsus-gH8p4ToRz4GlymlerTjlrQn8Z5x9tErFyVENfjxtYADywdAxHFjpKYMZIaXD-FkDHUAUobsBwhLWWPxBsdKvNqC6IEzhspLpQfKPrz8wRG2edR7trEVU5ruQxLfiwq3d-MaWDPMZxMJFxzgjhgEnsgjQR5F-5xGZgcSkvliaLnNasPt2cpNryZxYPyguNe4JE-HSrziU2DXOxkSWQo_YUNNrMu9-2x4y-tRlpVkH9dMmSQnR3Q52qpZalayQuwbgxKXhIGXpw2_jnHwMhD1dcwOB2P6F4OOQUXWo3i7nc701MwdfItnjMcAtK-Ns0N8FUhP-FB-kYPCgpQBZ_OPKkhrgMX9HuArPjtjL4D1wjqK5oK1xKcIefYLRJP8Rdv4d6up8670Ijh9csv9E3kGTaaGVJkv-1F2SzdJpjQ2vyWZcTFyHHQ6URgNo_51QXNuRyXwNkFry4gh4pb12HRZNwX8y-iN7mi9cItnfMk8sP_lMBQwuxEAEUpfRyqZvYuVVmkVcKREjgPkvtI2msGD2s2d_quN-0IEukeffQ58XBSak6MR6-JOFUErQkCtI29jtoS3Y0IvaRAskW63xFp_hJXPAE9fW-qWR3V8qXUb2VmhlKGk-PbM6qx6Brz8C0ZGQojqSPafIVZeTfP1Hq7_RgSL3wOn6wqmja0P47rKIVj9UlfeCUw7j8_Z_BadxmIZwSUhgyzmHvU1xxw0oB7RbSYjz8iSTkNK1T1CkVUz593e-rcAB-ncvWlzvz7AKrG7_qkjHBFrO5Tt6v8pQLT57p8srnhv3vwYyniX_plSEzL4cscsG9YmTPKtYJSAOWKeTJEgmTkl1N-dAl5-pvxb_1XzGYT2dDx9mjD9uoN1vEKclRoHktaTOtXw_27IO21YGzcSIrXsIPMdZOSK6vmCWJVA8VDR68tXJW5arV2NjluJE5Je8YQIGBY1U_ow0113fPZGhXbSbhsAqXA_U8u0B_8Epv2t36Ur5k9ooQsbcGv0hy1i4VWI3T5Jkm6WmDcwBi3KvlXhnwp1sjNBOolN6yywD_97X-1h8mU4U1pif8AUefCuyRD5lJCu7Gpk6UmECryeiXJeFKSNn4CQkm4okP7REKSqsc3quEElSUyw2yMdfDuUSUmE53Lo7KWiI6Ik_KJ8e3ZOOYwCJqD9uRxOSKNtOPEkwUfuxuC6Feh2OUVN4MPejFeMa2SyUtdprbaOhHrjAQWtX965-xK9CqpXp0Ozqx22dcmTuSYgOPOzDKIhETX269plarXGyKAJE_Wi0?></g></svg>