<?plantuml 1.2026.2?><svg xmlns="http://www.w3.org/2000/svg" xmlns:xlink="http://www.w3.org/1999/xlink" contentStyleType="text/css" data-diagram-type="CLASS" height="1276px" preserveAspectRatio="none" style="width:1273px;height:1276px;background:#FFFFFF;" version="1.1" viewBox="0 0 1273 1276" width="1273px" zoomAndPan="magnify"><title>NoTIP Frontend - Admin Architecture</title><defs/><g><g class="title" data-source-line="1"><text fill="#000000" font-family="sans-serif" font-size="14" font-weight="bold" lengthAdjust="spacing" textLength="270.416" x="494.377" y="23.5352">NoTIP Frontend - Admin Architecture</text></g><!--cluster Admin--><g class="cluster" data-qualified-name="Admin" data-source-line="12" id="ent0002"><rect fill="none" height="1014" rx="2.5" ry="2.5" style="stroke:#181818;stroke-width:1;" width="1260.17" x="7" y="117.0483"/><text fill="#000000" font-family="sans-serif" font-size="10" font-weight="bold" lengthAdjust="spacing" textLength="33.5059" x="620.3321" y="128.7162">Admin</text></g><!--cluster Services--><g class="cluster" data-qualified-name="Admin.Services" data-source-line="128" id="ent0012"><path d="M567.61,392.0483 L610.7487,392.0483 A3.75,3.75 0 0 1 613.2487,394.5483 L620.2487,409.8256 L1115.42,409.8256 A2.5,2.5 0 0 1 1117.92,412.3256 L1117.92,759.5483 A2.5,2.5 0 0 1 1115.42,762.0483 L567.61,762.0483 A2.5,2.5 0 0 1 565.11,759.5483 L565.11,394.5483 A2.5,2.5 0 0 1 567.61,392.0483" fill="none" style="stroke:#000000;stroke-width:1.5;"/><line style="stroke:#000000;stroke-width:1.5;" x1="565.11" x2="620.2487" y1="409.8256" y2="409.8256"/><text fill="#000000" font-family="sans-serif" font-size="10" font-weight="bold" lengthAdjust="spacing" textLength="42.1387" x="569.11" y="403.7162">Services</text></g><!--class TenantManagerPage--><g class="entity" data-qualified-name="Admin.TenantManagerPage" data-source-line="13" id="ent0003"><rect fill="#F1F1F1" height="240.4375" rx="2.5" ry="2.5" style="stroke:#181818;stroke-width:0.5;" width="271.4971" x="267.82" y="852.8283"/><ellipse cx="322.4455" cy="866.8283" fill="#ADD1B2" rx="9" ry="9" style="stroke:#181818;stroke-width:1;"/><path d="M323.7238,870.6183 Q323.382,870.7941 323.006,870.882 Q322.6301,870.9699 322.215,870.9699 Q320.7404,870.9699 319.964,869.9982 Q319.1877,869.0265 319.1877,867.1906 Q319.1877,865.3498 319.964,864.3781 Q320.7404,863.4064 322.215,863.4064 Q322.6301,863.4064 323.0109,863.4943 Q323.3918,863.5822 323.7238,863.758 L323.7238,865.3595 Q323.3527,865.0177 323.0036,864.859 Q322.6545,864.7004 322.2834,864.7004 Q321.4924,864.7004 321.0895,865.3278 Q320.6867,865.9552 320.6867,867.1906 Q320.6867,868.4211 321.0895,869.0485 Q321.4924,869.6759 322.2834,869.6759 Q322.6545,869.6759 323.0036,869.5172 Q323.3527,869.3586 323.7238,869.0168 Z " fill="#000000"/><text fill="#000000" font-family="sans-serif" font-size="10" lengthAdjust="spacing" textLength="154.7461" x="339.9455" y="870.6076">TenantManagerPageComponent</text><line style="stroke:#181818;stroke-width:0.5;" x1="268.82" x2="538.3171" y1="880.8283" y2="880.8283"/><line style="stroke:#181818;stroke-width:1;" x1="268.82" x2="538.3171" y1="888.8283" y2="888.8283"/><text fill="#000000" font-family="sans-serif" font-size="10" lengthAdjust="spacing" textLength="135.4639" x="273.82" y="902.4962">+tenants: Signal&lt;Tenant[]&gt;</text><text fill="#000000" font-family="sans-serif" font-size="10" lengthAdjust="spacing" textLength="179.5752" x="273.82" y="914.2736">+showCreateForm: Signal&lt;boolean&gt;</text><text fill="#000000" font-family="sans-serif" font-size="10" lengthAdjust="spacing" textLength="144.6875" x="273.82" y="926.0509">+isLoading: Signal&lt;boolean&gt;</text><text fill="#000000" font-family="sans-serif" font-size="10" lengthAdjust="spacing" textLength="137.4805" x="273.82" y="937.8283">+isSaving: Signal&lt;boolean&gt;</text><text fill="#000000" font-family="sans-serif" font-size="10" lengthAdjust="spacing" textLength="192.3975" x="273.82" y="949.6056">+editingTenantId: Signal&lt;string | null&gt;</text><text fill="#000000" font-family="sans-serif" font-size="10" lengthAdjust="spacing" textLength="197.9688" x="273.82" y="961.383">+deletingTenantId: Signal&lt;string | null&gt;</text><text fill="#000000" font-family="sans-serif" font-size="10" lengthAdjust="spacing" textLength="209.9023" x="273.82" y="973.1603">+editingTenant: Computed&lt;Tenant | null&gt;</text><line style="stroke:#181818;stroke-width:1;" x1="268.82" x2="538.3171" y1="979.2697" y2="979.2697"/><text fill="#000000" font-family="sans-serif" font-size="10" lengthAdjust="spacing" textLength="83.418" x="273.82" y="992.9377">+ngOnInit(): void</text><text fill="#000000" font-family="sans-serif" font-size="10" lengthAdjust="spacing" textLength="170.9521" x="273.82" y="1004.715">+requestEdit(tenantId: string): void</text><text fill="#000000" font-family="sans-serif" font-size="10" lengthAdjust="spacing" textLength="121.8457" x="273.82" y="1016.4923">+openCreateForm(): void</text><text fill="#000000" font-family="sans-serif" font-size="10" lengthAdjust="spacing" textLength="183.4424" x="273.82" y="1028.2697">+requestDelete(tenantId: string): void</text><text fill="#000000" font-family="sans-serif" font-size="10" lengthAdjust="spacing" textLength="102.5537" x="273.82" y="1040.047">+cancelDelete(): void</text><text fill="#000000" font-family="sans-serif" font-size="10" lengthAdjust="spacing" textLength="109.585" x="273.82" y="1051.8244">+confirmDelete(): void</text><text fill="#000000" font-family="sans-serif" font-size="10" lengthAdjust="spacing" textLength="259.4971" x="273.82" y="1063.6017">+saveTenant(payload: CreateTenantParameters): void</text><text fill="#000000" font-family="sans-serif" font-size="10" lengthAdjust="spacing" textLength="90.0635" x="273.82" y="1075.3791">+cancelEdit(): void</text><text fill="#000000" font-family="sans-serif" font-size="10" lengthAdjust="spacing" textLength="98.6377" x="273.82" y="1087.1564">-loadTenants(): void</text></g><!--class TenantDetailPage--><g class="entity" data-qualified-name="Admin.TenantDetailPage" data-source-line="34" id="ent0004"><rect fill="#F1F1F1" height="122.6641" rx="2.5" ry="2.5" style="stroke:#181818;stroke-width:0.5;" width="227.0244" x="23" y="658.7083"/><ellipse cx="62.2178" cy="672.7083" fill="#ADD1B2" rx="9" ry="9" style="stroke:#181818;stroke-width:1;"/><path d="M63.4961,676.4983 Q63.1543,676.6741 62.7783,676.762 Q62.4023,676.8499 61.9873,676.8499 Q60.5127,676.8499 59.7363,675.8782 Q58.96,674.9065 58.96,673.0706 Q58.96,671.2298 59.7363,670.2581 Q60.5127,669.2864 61.9873,669.2864 Q62.4023,669.2864 62.7832,669.3743 Q63.1641,669.4622 63.4961,669.638 L63.4961,671.2395 Q63.125,670.8977 62.7759,670.739 Q62.4268,670.5804 62.0557,670.5804 Q61.2646,670.5804 60.8618,671.2078 Q60.459,671.8352 60.459,673.0706 Q60.459,674.3011 60.8618,674.9285 Q61.2646,675.5559 62.0557,675.5559 Q62.4268,675.5559 62.7759,675.3972 Q63.125,675.2386 63.4961,674.8968 Z " fill="#000000"/><text fill="#000000" font-family="sans-serif" font-size="10" lengthAdjust="spacing" textLength="141.0889" x="79.7178" y="676.4876">TenantDetailPageComponent</text><line style="stroke:#181818;stroke-width:0.5;" x1="24" x2="249.0244" y1="686.7083" y2="686.7083"/><line style="stroke:#181818;stroke-width:1;" x1="24" x2="249.0244" y1="694.7083" y2="694.7083"/><text fill="#000000" font-family="sans-serif" font-size="10" lengthAdjust="spacing" textLength="152.1191" x="29" y="708.3762">+tenant: Signal&lt;Tenant | null&gt;</text><text fill="#000000" font-family="sans-serif" font-size="10" lengthAdjust="spacing" textLength="144.6875" x="29" y="720.1536">+isLoading: Signal&lt;boolean&gt;</text><text fill="#000000" font-family="sans-serif" font-size="10" lengthAdjust="spacing" textLength="195.376" x="29" y="731.9309">+activeTab: Signal&lt;'users' | 'gateways'&gt;</text><line style="stroke:#181818;stroke-width:1;" x1="24" x2="249.0244" y1="738.0403" y2="738.0403"/><text fill="#000000" font-family="sans-serif" font-size="10" lengthAdjust="spacing" textLength="83.418" x="29" y="751.7083">+ngOnInit(): void</text><text fill="#000000" font-family="sans-serif" font-size="10" lengthAdjust="spacing" textLength="215.0244" x="29" y="763.4856">+setActiveTab(tab: 'users' | 'gateways'): void</text><text fill="#000000" font-family="sans-serif" font-size="10" lengthAdjust="spacing" textLength="137.3145" x="29" y="775.263">-loadTenant(id: string): void</text></g><!--class AdminGatewayListPage--><g class="entity" data-qualified-name="Admin.AdminGatewayListPage" data-source-line="45" id="ent0005"><rect fill="#F1F1F1" height="263.9922" rx="2.5" ry="2.5" style="stroke:#181818;stroke-width:0.5;" width="291.082" x="258.02" y="189.0483"/><ellipse cx="315.5044" cy="203.0483" fill="#ADD1B2" rx="9" ry="9" style="stroke:#181818;stroke-width:1;"/><path d="M316.7827,206.8383 Q316.4409,207.0141 316.0649,207.102 Q315.6889,207.1899 315.2739,207.1899 Q313.7993,207.1899 313.0229,206.2182 Q312.2466,205.2465 312.2466,203.4106 Q312.2466,201.5698 313.0229,200.5981 Q313.7993,199.6264 315.2739,199.6264 Q315.6889,199.6264 316.0698,199.7143 Q316.4507,199.8022 316.7827,199.978 L316.7827,201.5795 Q316.4116,201.2377 316.0625,201.079 Q315.7134,200.9204 315.3423,200.9204 Q314.5513,200.9204 314.1484,201.5478 Q313.7456,202.1752 313.7456,203.4106 Q313.7456,204.6411 314.1484,205.2685 Q314.5513,205.8959 315.3423,205.8959 Q315.7134,205.8959 316.0625,205.7372 Q316.4116,205.5786 316.7827,205.2368 Z " fill="#000000"/><text fill="#000000" font-family="sans-serif" font-size="10" lengthAdjust="spacing" textLength="168.6133" x="333.0044" y="206.8276">AdminGatewayListPageComponent</text><line style="stroke:#181818;stroke-width:0.5;" x1="259.02" x2="548.102" y1="217.0483" y2="217.0483"/><line style="stroke:#181818;stroke-width:1;" x1="259.02" x2="548.102" y1="225.0483" y2="225.0483"/><text fill="#000000" font-family="sans-serif" font-size="10" lengthAdjust="spacing" textLength="153.0566" x="264.02" y="238.7162">+tenantId: InputSignal&lt;string&gt;</text><text fill="#000000" font-family="sans-serif" font-size="10" lengthAdjust="spacing" textLength="206.2354" x="264.02" y="250.4936">+gateways: Signal&lt;ObfuscatedGateway[]&gt;</text><text fill="#000000" font-family="sans-serif" font-size="10" lengthAdjust="spacing" textLength="144.6875" x="264.02" y="262.2709">+isLoading: Signal&lt;boolean&gt;</text><text fill="#000000" font-family="sans-serif" font-size="10" lengthAdjust="spacing" textLength="179.5752" x="264.02" y="274.0483">+showCreateForm: Signal&lt;boolean&gt;</text><text fill="#000000" font-family="sans-serif" font-size="10" lengthAdjust="spacing" textLength="137.4805" x="264.02" y="285.8256">+isSaving: Signal&lt;boolean&gt;</text><text fill="#000000" font-family="sans-serif" font-size="10" lengthAdjust="spacing" textLength="199.3408" x="264.02" y="297.603">+editingGatewayId: Signal&lt;string | null&gt;</text><text fill="#000000" font-family="sans-serif" font-size="10" lengthAdjust="spacing" textLength="204.9121" x="264.02" y="309.3803">+deletingGatewayId: Signal&lt;string | null&gt;</text><text fill="#000000" font-family="sans-serif" font-size="10" lengthAdjust="spacing" textLength="279.082" x="264.02" y="321.1577">+editingGateway: Computed&lt;ObfuscatedGateway | null&gt;</text><line style="stroke:#181818;stroke-width:1;" x1="259.02" x2="548.102" y1="327.267" y2="327.267"/><text fill="#000000" font-family="sans-serif" font-size="10" lengthAdjust="spacing" textLength="83.418" x="264.02" y="340.935">+ngOnInit(): void</text><text fill="#000000" font-family="sans-serif" font-size="10" lengthAdjust="spacing" textLength="109.458" x="264.02" y="352.7123">+ngOnChanges(): void</text><text fill="#000000" font-family="sans-serif" font-size="10" lengthAdjust="spacing" textLength="179.4873" x="264.02" y="364.4897">+requestEdit(gatewayId: string): void</text><text fill="#000000" font-family="sans-serif" font-size="10" lengthAdjust="spacing" textLength="121.8457" x="264.02" y="376.267">+openCreateForm(): void</text><text fill="#000000" font-family="sans-serif" font-size="10" lengthAdjust="spacing" textLength="191.9775" x="264.02" y="388.0444">+requestDelete(gatewayId: string): void</text><text fill="#000000" font-family="sans-serif" font-size="10" lengthAdjust="spacing" textLength="102.5537" x="264.02" y="399.8217">+cancelDelete(): void</text><text fill="#000000" font-family="sans-serif" font-size="10" lengthAdjust="spacing" textLength="109.585" x="264.02" y="411.5991">+confirmDelete(): void</text><text fill="#000000" font-family="sans-serif" font-size="10" lengthAdjust="spacing" textLength="261.4551" x="264.02" y="423.3764">+saveGateway(payload: AddGatewayParameters): void</text><text fill="#000000" font-family="sans-serif" font-size="10" lengthAdjust="spacing" textLength="90.0635" x="264.02" y="435.1537">+cancelEdit(): void</text><text fill="#000000" font-family="sans-serif" font-size="10" lengthAdjust="spacing" textLength="105.5811" x="264.02" y="446.9311">-loadGateways(): void</text></g><!--class TenantTable--><g class="entity" data-qualified-name="Admin.TenantTable" data-source-line="68" id="ent0006"><rect fill="#F1F1F1" height="99.1094" rx="2.5" ry="2.5" style="stroke:#181818;stroke-width:0.5;" width="225.1787" x="728.92" y="1015.4883"/><ellipse cx="779.3951" cy="1029.4883" fill="#ADD1B2" rx="9" ry="9" style="stroke:#181818;stroke-width:1;"/><path d="M780.6734,1033.2783 Q780.3316,1033.4541 779.9556,1033.542 Q779.5797,1033.6299 779.1646,1033.6299 Q777.69,1033.6299 776.9137,1032.6582 Q776.1373,1031.6865 776.1373,1029.8506 Q776.1373,1028.0098 776.9137,1027.0381 Q777.69,1026.0664 779.1646,1026.0664 Q779.5797,1026.0664 779.9605,1026.1543 Q780.3414,1026.2422 780.6734,1026.418 L780.6734,1028.0195 Q780.3023,1027.6777 779.9532,1027.519 Q779.6041,1027.3604 779.233,1027.3604 Q778.442,1027.3604 778.0391,1027.9878 Q777.6363,1028.6152 777.6363,1029.8506 Q777.6363,1031.0811 778.0391,1031.7085 Q778.442,1032.3359 779.233,1032.3359 Q779.6041,1032.3359 779.9532,1032.1772 Q780.3023,1032.0186 780.6734,1031.6768 Z " fill="#000000"/><text fill="#000000" font-family="sans-serif" font-size="10" lengthAdjust="spacing" textLength="116.7285" x="796.8951" y="1033.2676">TenantTableComponent</text><line style="stroke:#181818;stroke-width:0.5;" x1="729.92" x2="953.0987" y1="1043.4883" y2="1043.4883"/><line style="stroke:#181818;stroke-width:1;" x1="729.92" x2="953.0987" y1="1051.4883" y2="1051.4883"/><text fill="#000000" font-family="sans-serif" font-size="10" lengthAdjust="spacing" textLength="160.791" x="734.92" y="1065.1563">+tenants: InputSignal&lt;Tenant[]&gt;</text><line style="stroke:#181818;stroke-width:1;" x1="729.92" x2="953.0987" y1="1071.2656" y2="1071.2656"/><text fill="#000000" font-family="sans-serif" font-size="10" lengthAdjust="spacing" textLength="200.0537" x="734.92" y="1084.9336">+editRequest: OutputEmitterRef&lt;string&gt;</text><text fill="#000000" font-family="sans-serif" font-size="10" lengthAdjust="spacing" textLength="211.1963" x="734.92" y="1096.7109">+deleteRequest: OutputEmitterRef&lt;string&gt;</text><text fill="#000000" font-family="sans-serif" font-size="10" lengthAdjust="spacing" textLength="213.1787" x="734.92" y="1108.4883">+getStatusBadgeClass(status: string): string</text></g><!--class TenantForm--><g class="entity" data-qualified-name="Admin.TenantForm" data-source-line="77" id="ent0007"><rect fill="#F1F1F1" height="110.8867" rx="2.5" ry="2.5" style="stroke:#181818;stroke-width:0.5;" width="266.917" x="708.05" y="896.5983"/><ellipse cx="780.2292" cy="910.5983" fill="#ADD1B2" rx="9" ry="9" style="stroke:#181818;stroke-width:1;"/><path d="M781.5075,914.3883 Q781.1657,914.5641 780.7897,914.652 Q780.4138,914.7399 779.9987,914.7399 Q778.5241,914.7399 777.7478,913.7682 Q776.9714,912.7965 776.9714,910.9606 Q776.9714,909.1198 777.7478,908.1481 Q778.5241,907.1764 779.9987,907.1764 Q780.4138,907.1764 780.7946,907.2643 Q781.1755,907.3522 781.5075,907.528 L781.5075,909.1295 Q781.1364,908.7877 780.7873,908.629 Q780.4382,908.4704 780.0671,908.4704 Q779.2761,908.4704 778.8732,909.0978 Q778.4704,909.7252 778.4704,910.9606 Q778.4704,912.1911 778.8732,912.8185 Q779.2761,913.4459 780.0671,913.4459 Q780.4382,913.4459 780.7873,913.2872 Q781.1364,913.1286 781.5075,912.7868 Z " fill="#000000"/><text fill="#000000" font-family="sans-serif" font-size="10" lengthAdjust="spacing" textLength="115.0586" x="797.7292" y="914.3776">TenantFormComponent</text><line style="stroke:#181818;stroke-width:0.5;" x1="709.05" x2="973.967" y1="924.5983" y2="924.5983"/><line style="stroke:#181818;stroke-width:1;" x1="709.05" x2="973.967" y1="932.5983" y2="932.5983"/><text fill="#000000" font-family="sans-serif" font-size="10" lengthAdjust="spacing" textLength="177.4463" x="714.05" y="946.2662">+tenant: InputSignal&lt;Tenant | null&gt;</text><text fill="#000000" font-family="sans-serif" font-size="10" lengthAdjust="spacing" textLength="184.3164" x="714.05" y="958.0436">+isSubmitting: InputSignal&lt;boolean&gt;</text><line style="stroke:#181818;stroke-width:1;" x1="709.05" x2="973.967" y1="964.153" y2="964.153"/><text fill="#000000" font-family="sans-serif" font-size="10" lengthAdjust="spacing" textLength="254.917" x="714.05" y="977.8209">+save: OutputEmitterRef&lt;CreateTenantParameters&gt;</text><text fill="#000000" font-family="sans-serif" font-size="10" lengthAdjust="spacing" textLength="165.4297" x="714.05" y="989.5983">+cancel: OutputEmitterRef&lt;void&gt;</text><text fill="#000000" font-family="sans-serif" font-size="10" lengthAdjust="spacing" textLength="87.4854" x="714.05" y="1001.3756">+onSubmit(): void</text></g><!--class TenantUserList--><g class="entity" data-qualified-name="Admin.TenantUserList" data-source-line="87" id="ent0008"><rect fill="#F1F1F1" height="122.6641" rx="2.5" ry="2.5" style="stroke:#181818;stroke-width:0.5;" width="165.0566" x="321.04" y="693.7083"/><ellipse cx="337.7209" cy="707.7083" fill="#ADD1B2" rx="9" ry="9" style="stroke:#181818;stroke-width:1;"/><path d="M338.9992,711.4983 Q338.6574,711.6741 338.2814,711.762 Q337.9054,711.8499 337.4904,711.8499 Q336.0158,711.8499 335.2394,710.8782 Q334.463,709.9065 334.463,708.0706 Q334.463,706.2298 335.2394,705.2581 Q336.0158,704.2864 337.4904,704.2864 Q337.9054,704.2864 338.2863,704.3743 Q338.6671,704.4622 338.9992,704.638 L338.9992,706.2395 Q338.6281,705.8977 338.279,705.739 Q337.9298,705.5804 337.5588,705.5804 Q336.7677,705.5804 336.3649,706.2078 Q335.9621,706.8352 335.9621,708.0706 Q335.9621,709.3011 336.3649,709.9285 Q336.7677,710.5559 337.5588,710.5559 Q337.9298,710.5559 338.279,710.3972 Q338.6281,710.2386 338.9992,709.8968 Z " fill="#000000"/><text fill="#000000" font-family="sans-serif" font-size="10" lengthAdjust="spacing" textLength="128.877" x="350.5388" y="711.4876">TenantUserListComponent</text><line style="stroke:#181818;stroke-width:0.5;" x1="322.04" x2="485.0966" y1="721.7083" y2="721.7083"/><line style="stroke:#181818;stroke-width:1;" x1="322.04" x2="485.0966" y1="729.7083" y2="729.7083"/><text fill="#000000" font-family="sans-serif" font-size="10" lengthAdjust="spacing" textLength="153.0566" x="327.04" y="743.3762">+tenantId: InputSignal&lt;string&gt;</text><text fill="#000000" font-family="sans-serif" font-size="10" lengthAdjust="spacing" textLength="136.2695" x="327.04" y="755.1536">+users: Signal&lt;ViewUser[]&gt;</text><text fill="#000000" font-family="sans-serif" font-size="10" lengthAdjust="spacing" textLength="144.6875" x="327.04" y="766.9309">+isLoading: Signal&lt;boolean&gt;</text><line style="stroke:#181818;stroke-width:1;" x1="322.04" x2="485.0966" y1="773.0403" y2="773.0403"/><text fill="#000000" font-family="sans-serif" font-size="10" lengthAdjust="spacing" textLength="83.418" x="327.04" y="786.7083">+ngOnInit(): void</text><text fill="#000000" font-family="sans-serif" font-size="10" lengthAdjust="spacing" textLength="109.458" x="327.04" y="798.4856">+ngOnChanges(): void</text><text fill="#000000" font-family="sans-serif" font-size="10" lengthAdjust="spacing" textLength="86.7578" x="327.04" y="810.263">-loadUsers(): void</text></g><!--class ImpersonateButton--><g class="entity" data-qualified-name="Admin.ImpersonateButton" data-source-line="98" id="ent0009"><rect fill="#F1F1F1" height="110.8867" rx="2.5" ry="2.5" style="stroke:#181818;stroke-width:0.5;" width="209.6514" x="736.69" y="777.5983"/><ellipse cx="764.4736" cy="791.5983" fill="#ADD1B2" rx="9" ry="9" style="stroke:#181818;stroke-width:1;"/><path d="M765.752,795.3883 Q765.4102,795.5641 765.0342,795.652 Q764.6582,795.7399 764.2432,795.7399 Q762.7686,795.7399 761.9922,794.7682 Q761.2158,793.7965 761.2158,791.9606 Q761.2158,790.1198 761.9922,789.1481 Q762.7686,788.1764 764.2432,788.1764 Q764.6582,788.1764 765.0391,788.2643 Q765.4199,788.3522 765.752,788.528 L765.752,790.1295 Q765.3809,789.7877 765.0317,789.629 Q764.6826,789.4704 764.3115,789.4704 Q763.5205,789.4704 763.1177,790.0978 Q762.7149,790.7252 762.7149,791.9606 Q762.7149,793.1911 763.1177,793.8185 Q763.5205,794.4459 764.3115,794.4459 Q764.6826,794.4459 765.0317,794.2872 Q765.3809,794.1286 765.752,793.7868 Z " fill="#000000"/><text fill="#000000" font-family="sans-serif" font-size="10" lengthAdjust="spacing" textLength="148.7988" x="779.7589" y="795.3776">ImpersonateButtonComponent</text><line style="stroke:#181818;stroke-width:0.5;" x1="737.69" x2="945.3414" y1="805.5983" y2="805.5983"/><line style="stroke:#181818;stroke-width:1;" x1="737.69" x2="945.3414" y1="813.5983" y2="813.5983"/><text fill="#000000" font-family="sans-serif" font-size="10" lengthAdjust="spacing" textLength="172.6611" x="742.69" y="827.2662">+targetUserId: InputSignal&lt;string&gt;</text><text fill="#000000" font-family="sans-serif" font-size="10" lengthAdjust="spacing" textLength="164.2578" x="742.69" y="839.0436">+disabled: InputSignal&lt;boolean&gt;</text><text fill="#000000" font-family="sans-serif" font-size="10" lengthAdjust="spacing" textLength="197.6514" x="742.69" y="850.8209">+isImpersonating: Computed&lt;boolean&gt;</text><text fill="#000000" font-family="sans-serif" font-size="10" lengthAdjust="spacing" textLength="175.6885" x="742.69" y="862.5983">+isActionLoading: Signal&lt;boolean&gt;</text><line style="stroke:#181818;stroke-width:1;" x1="737.69" x2="945.3414" y1="868.7077" y2="868.7077"/><text fill="#000000" font-family="sans-serif" font-size="10" lengthAdjust="spacing" textLength="137.7539" x="742.69" y="882.3756">+onImpersonateClick(): void</text></g><!--class AdminGatewayTable--><g class="entity" data-qualified-name="Admin.AdminGatewayTable" data-source-line="108" id="ent0010"><rect fill="#F1F1F1" height="110.8867" rx="2.5" ry="2.5" style="stroke:#181818;stroke-width:0.5;" width="243.5625" x="719.73" y="265.5983"/><ellipse cx="760.1123" cy="279.5983" fill="#ADD1B2" rx="9" ry="9" style="stroke:#181818;stroke-width:1;"/><path d="M761.3906,283.3883 Q761.0488,283.5641 760.6729,283.652 Q760.2969,283.7399 759.8819,283.7399 Q758.4072,283.7399 757.6309,282.7682 Q756.8545,281.7965 756.8545,279.9606 Q756.8545,278.1198 757.6309,277.1481 Q758.4072,276.1764 759.8819,276.1764 Q760.2969,276.1764 760.6778,276.2643 Q761.0586,276.3522 761.3906,276.528 L761.3906,278.1295 Q761.0196,277.7877 760.6704,277.629 Q760.3213,277.4704 759.9502,277.4704 Q759.1592,277.4704 758.7564,278.0978 Q758.3535,278.7252 758.3535,279.9606 Q758.3535,281.1911 758.7564,281.8185 Q759.1592,282.4459 759.9502,282.4459 Q760.3213,282.4459 760.6704,282.2872 Q761.0196,282.1286 761.3906,281.7868 Z " fill="#000000"/><text fill="#000000" font-family="sans-serif" font-size="10" lengthAdjust="spacing" textLength="155.2979" x="777.6123" y="283.3776">AdminGatewayTableComponent</text><line style="stroke:#181818;stroke-width:0.5;" x1="720.73" x2="962.2925" y1="293.5983" y2="293.5983"/><line style="stroke:#181818;stroke-width:1;" x1="720.73" x2="962.2925" y1="301.5983" y2="301.5983"/><text fill="#000000" font-family="sans-serif" font-size="10" lengthAdjust="spacing" textLength="231.5625" x="725.73" y="315.2662">+gateways: InputSignal&lt;ObfuscatedGateway[]&gt;</text><text fill="#000000" font-family="sans-serif" font-size="10" lengthAdjust="spacing" textLength="153.0566" x="725.73" y="327.0436">+tenantId: InputSignal&lt;string&gt;</text><line style="stroke:#181818;stroke-width:1;" x1="720.73" x2="962.2925" y1="333.153" y2="333.153"/><text fill="#000000" font-family="sans-serif" font-size="10" lengthAdjust="spacing" textLength="200.0537" x="725.73" y="346.8209">+editRequest: OutputEmitterRef&lt;string&gt;</text><text fill="#000000" font-family="sans-serif" font-size="10" lengthAdjust="spacing" textLength="211.1963" x="725.73" y="358.5983">+deleteRequest: OutputEmitterRef&lt;string&gt;</text><text fill="#000000" font-family="sans-serif" font-size="10" lengthAdjust="spacing" textLength="213.1787" x="725.73" y="370.3756">+getStatusBadgeClass(status: string): string</text></g><!--class AdminGatewayForm--><g class="entity" data-qualified-name="Admin.AdminGatewayForm" data-source-line="118" id="ent0011"><rect fill="#F1F1F1" height="110.8867" rx="2.5" ry="2.5" style="stroke:#181818;stroke-width:0.5;" width="261.9316" x="710.54" y="146.5983"/><ellipse cx="760.9419" cy="160.5983" fill="#ADD1B2" rx="9" ry="9" style="stroke:#181818;stroke-width:1;"/><path d="M762.2202,164.3883 Q761.8784,164.5641 761.5024,164.652 Q761.1264,164.7399 760.7114,164.7399 Q759.2368,164.7399 758.4604,163.7682 Q757.684,162.7965 757.684,160.9606 Q757.684,159.1198 758.4604,158.1481 Q759.2368,157.1764 760.7114,157.1764 Q761.1264,157.1764 761.5073,157.2643 Q761.8881,157.3522 762.2202,157.528 L762.2202,159.1295 Q761.8491,158.7877 761.5,158.629 Q761.1508,158.4704 760.7797,158.4704 Q759.9887,158.4704 759.5859,159.0978 Q759.1831,159.7252 759.1831,160.9606 Q759.1831,162.1911 759.5859,162.8185 Q759.9887,163.4459 760.7797,163.4459 Q761.1508,163.4459 761.5,163.2872 Q761.8491,163.1286 762.2202,162.7868 Z " fill="#000000"/><text fill="#000000" font-family="sans-serif" font-size="10" lengthAdjust="spacing" textLength="153.6279" x="778.4419" y="164.3776">AdminGatewayFormComponent</text><line style="stroke:#181818;stroke-width:0.5;" x1="711.54" x2="971.4716" y1="174.5983" y2="174.5983"/><line style="stroke:#181818;stroke-width:1;" x1="711.54" x2="971.4716" y1="182.5983" y2="182.5983"/><text fill="#000000" font-family="sans-serif" font-size="10" lengthAdjust="spacing" textLength="248.2178" x="716.54" y="196.2662">+gateway: InputSignal&lt;ObfuscatedGateway | null&gt;</text><text fill="#000000" font-family="sans-serif" font-size="10" lengthAdjust="spacing" textLength="184.3164" x="716.54" y="208.0436">+isSubmitting: InputSignal&lt;boolean&gt;</text><line style="stroke:#181818;stroke-width:1;" x1="711.54" x2="971.4716" y1="214.153" y2="214.153"/><text fill="#000000" font-family="sans-serif" font-size="10" lengthAdjust="spacing" textLength="249.9316" x="716.54" y="227.8209">+save: OutputEmitterRef&lt;AddGatewayParameters&gt;</text><text fill="#000000" font-family="sans-serif" font-size="10" lengthAdjust="spacing" textLength="165.4297" x="716.54" y="239.5983">+cancel: OutputEmitterRef&lt;void&gt;</text><text fill="#000000" font-family="sans-serif" font-size="10" lengthAdjust="spacing" textLength="87.4854" x="716.54" y="251.3756">+onSubmit(): void</text></g><!--class AuthService--><g class="entity" data-qualified-name="Admin.AuthService" data-source-line="159" id="ent0016"><rect fill="#F1F1F1" height="44" rx="2.5" ry="2.5" style="stroke:#181818;stroke-width:0.5;" width="117.2529" x="1133.92" y="811.0483"/><ellipse cx="1146.92" cy="825.0483" fill="#ADD1B2" rx="9" ry="9" style="stroke:#181818;stroke-width:1;"/><path d="M1148.1983,828.8383 Q1147.8565,829.0141 1147.4805,829.102 Q1147.1046,829.1899 1146.6895,829.1899 Q1145.2149,829.1899 1144.4386,828.2182 Q1143.6622,827.2465 1143.6622,825.4106 Q1143.6622,823.5698 1144.4386,822.5981 Q1145.2149,821.6264 1146.6895,821.6264 Q1147.1046,821.6264 1147.4854,821.7143 Q1147.8663,821.8022 1148.1983,821.978 L1148.1983,823.5795 Q1147.8272,823.2377 1147.4781,823.079 Q1147.129,822.9204 1146.7579,822.9204 Q1145.9669,822.9204 1145.564,823.5478 Q1145.1612,824.1752 1145.1612,825.4106 Q1145.1612,826.6411 1145.564,827.2685 Q1145.9669,827.8959 1146.7579,827.8959 Q1147.129,827.8959 1147.4781,827.7372 Q1147.8272,827.5786 1148.1983,827.2368 Z " fill="#000000"/><text fill="#000000" font-family="sans-serif" font-size="10" lengthAdjust="spacing" textLength="89.2529" x="1158.92" y="828.8276">AuthService (Core)</text><line style="stroke:#181818;stroke-width:0.5;" x1="1134.92" x2="1250.1729" y1="839.0483" y2="839.0483"/><line style="stroke:#181818;stroke-width:0.5;" x1="1134.92" x2="1250.1729" y1="847.0483" y2="847.0483"/></g><!--class TenantService--><g class="entity" data-qualified-name="Admin.Services.TenantService" data-source-line="129" id="ent0013"><rect fill="#F1F1F1" height="122.6641" rx="2.5" ry="2.5" style="stroke:#181818;stroke-width:0.5;" width="417.1025" x="632.96" y="623.7083"/><ellipse cx="804.0723" cy="637.7083" fill="#ADD1B2" rx="9" ry="9" style="stroke:#181818;stroke-width:1;"/><path d="M805.3506,641.4983 Q805.0088,641.6741 804.6329,641.762 Q804.2569,641.8499 803.8418,641.8499 Q802.3672,641.8499 801.5909,640.8782 Q800.8145,639.9065 800.8145,638.0706 Q800.8145,636.2298 801.5909,635.2581 Q802.3672,634.2864 803.8418,634.2864 Q804.2569,634.2864 804.6377,634.3743 Q805.0186,634.4622 805.3506,634.638 L805.3506,636.2395 Q804.9795,635.8977 804.6304,635.739 Q804.2813,635.5804 803.9102,635.5804 Q803.1192,635.5804 802.7163,636.2078 Q802.3135,636.8352 802.3135,638.0706 Q802.3135,639.3011 802.7163,639.9285 Q803.1192,640.5559 803.9102,640.5559 Q804.2813,640.5559 804.6304,640.3972 Q804.9795,640.2386 805.3506,639.8968 Z " fill="#000000"/><text fill="#000000" font-family="sans-serif" font-size="10" lengthAdjust="spacing" textLength="67.3779" x="821.5723" y="641.4876">TenantService</text><line style="stroke:#181818;stroke-width:0.5;" x1="633.96" x2="1049.0625" y1="651.7083" y2="651.7083"/><line style="stroke:#181818;stroke-width:1;" x1="633.96" x2="1049.0625" y1="659.7083" y2="659.7083"/><text fill="#000000" font-family="sans-serif" font-size="10" lengthAdjust="spacing" textLength="160.9473" x="638.96" y="673.3762">-mgmtApi: AdminTenantsService</text><line style="stroke:#181818;stroke-width:1;" x1="633.96" x2="1049.0625" y1="679.4856" y2="679.4856"/><text fill="#000000" font-family="sans-serif" font-size="10" lengthAdjust="spacing" textLength="185.2441" x="638.96" y="693.1536">+getTenants(): Observable&lt;Tenant[]&gt;</text><text fill="#000000" font-family="sans-serif" font-size="10" lengthAdjust="spacing" textLength="217.417" x="638.96" y="704.9309">+getTenant(id: string): Observable&lt;Tenant&gt;</text><text fill="#000000" font-family="sans-serif" font-size="10" lengthAdjust="spacing" textLength="350.9912" x="638.96" y="716.7083">+createTenant(payload: CreateTenantParameters): Observable&lt;Tenant&gt;</text><text fill="#000000" font-family="sans-serif" font-size="10" lengthAdjust="spacing" textLength="405.1025" x="638.96" y="728.4856">+updateTenant(id: string, payload: CreateTenantParameters): Observable&lt;Tenant&gt;</text><text fill="#000000" font-family="sans-serif" font-size="10" lengthAdjust="spacing" textLength="218.4424" x="638.96" y="740.263">+deleteTenant(id: string): Observable&lt;void&gt;</text></g><!--class AdminUserService--><g class="entity" data-qualified-name="Admin.Services.AdminUserService" data-source-line="140" id="ent0014"><rect fill="#F1F1F1" height="75.5547" rx="2.5" ry="2.5" style="stroke:#181818;stroke-width:0.5;" width="304.5098" x="689.26" y="540.2683"/><ellipse cx="794.2029" cy="554.2683" fill="#ADD1B2" rx="9" ry="9" style="stroke:#181818;stroke-width:1;"/><path d="M795.4812,558.0583 Q795.1394,558.2341 794.7634,558.322 Q794.3874,558.4099 793.9724,558.4099 Q792.4978,558.4099 791.7214,557.4382 Q790.9451,556.4665 790.9451,554.6306 Q790.9451,552.7898 791.7214,551.8181 Q792.4978,550.8464 793.9724,550.8464 Q794.3874,550.8464 794.7683,550.9343 Q795.1492,551.0222 795.4812,551.198 L795.4812,552.7995 Q795.1101,552.4577 794.761,552.299 Q794.4119,552.1404 794.0408,552.1404 Q793.2497,552.1404 792.8469,552.7678 Q792.4441,553.3952 792.4441,554.6306 Q792.4441,555.8611 792.8469,556.4885 Q793.2497,557.1159 794.0408,557.1159 Q794.4119,557.1159 794.761,556.9572 Q795.1101,556.7986 795.4812,556.4568 Z " fill="#000000"/><text fill="#000000" font-family="sans-serif" font-size="10" lengthAdjust="spacing" textLength="87.124" x="811.7029" y="558.0476">AdminUserService</text><line style="stroke:#181818;stroke-width:0.5;" x1="690.26" x2="992.7698" y1="568.2683" y2="568.2683"/><line style="stroke:#181818;stroke-width:1;" x1="690.26" x2="992.7698" y1="576.2683" y2="576.2683"/><text fill="#000000" font-family="sans-serif" font-size="10" lengthAdjust="spacing" textLength="160.9473" x="695.26" y="589.9362">-mgmtApi: AdminTenantsService</text><line style="stroke:#181818;stroke-width:1;" x1="690.26" x2="992.7698" y1="596.0456" y2="596.0456"/><text fill="#000000" font-family="sans-serif" font-size="10" lengthAdjust="spacing" textLength="292.5098" x="695.26" y="609.7136">+getTenantUsers(tenantId: string): Observable&lt;ViewUser[]&gt;</text></g><!--class AdminGatewayService--><g class="entity" data-qualified-name="Admin.Services.AdminGatewayService" data-source-line="147" id="ent0015"><rect fill="#F1F1F1" height="110.8867" rx="2.5" ry="2.5" style="stroke:#181818;stroke-width:0.5;" width="520.8086" x="581.11" y="421.5983"/><ellipse cx="784.7907" cy="435.5983" fill="#ADD1B2" rx="9" ry="9" style="stroke:#181818;stroke-width:1;"/><path d="M786.069,439.3883 Q785.7272,439.5641 785.3512,439.652 Q784.9752,439.7399 784.5602,439.7399 Q783.0856,439.7399 782.3092,438.7682 Q781.5329,437.7965 781.5329,435.9606 Q781.5329,434.1198 782.3092,433.1481 Q783.0856,432.1764 784.5602,432.1764 Q784.9752,432.1764 785.3561,432.2643 Q785.737,432.3522 786.069,432.528 L786.069,434.1295 Q785.6979,433.7877 785.3488,433.629 Q784.9996,433.4704 784.6286,433.4704 Q783.8375,433.4704 783.4347,434.0978 Q783.0319,434.7252 783.0319,435.9606 Q783.0319,437.1911 783.4347,437.8185 Q783.8375,438.4459 784.6286,438.4459 Q784.9996,438.4459 785.3488,438.2872 Q785.6979,438.1286 786.069,437.7868 Z " fill="#000000"/><text fill="#000000" font-family="sans-serif" font-size="10" lengthAdjust="spacing" textLength="105.9473" x="802.2907" y="439.3776">AdminGatewayService</text><line style="stroke:#181818;stroke-width:0.5;" x1="582.11" x2="1100.9186" y1="449.5983" y2="449.5983"/><line style="stroke:#181818;stroke-width:1;" x1="582.11" x2="1100.9186" y1="457.5983" y2="457.5983"/><text fill="#000000" font-family="sans-serif" font-size="10" lengthAdjust="spacing" textLength="167.8906" x="587.11" y="471.2662">-mgmtApi: AdminGatewaysService</text><line style="stroke:#181818;stroke-width:1;" x1="582.11" x2="1100.9186" y1="477.3756" y2="477.3756"/><text fill="#000000" font-family="sans-serif" font-size="10" lengthAdjust="spacing" textLength="329.1748" x="587.11" y="491.0436">+getGateways(tenantId: string): Observable&lt;ObfuscatedGateway[]&gt;</text><text fill="#000000" font-family="sans-serif" font-size="10" lengthAdjust="spacing" textLength="484.7559" x="587.11" y="502.8209">+addGateway(tenantId: string, payload: AddGatewayParameters): Observable&lt;ObfuscatedGateway&gt;</text><text fill="#000000" font-family="sans-serif" font-size="10" lengthAdjust="spacing" textLength="508.8086" x="587.11" y="514.5983">+updateGateway(gatewayId: string, payload: AddGatewayParameters): Observable&lt;ObfuscatedGateway&gt;</text><text fill="#000000" font-family="sans-serif" font-size="10" lengthAdjust="spacing" textLength="264.8975" x="587.11" y="526.3756">+deleteGateway(gatewayId: string): Observable&lt;void&gt;</text></g><g class="entity" data-qualified-name="GMN29" data-source-line="183" id="ent0030"><path d="M282.56,1212.4883 L282.56,1269.5977 A0,0 0 0 0 282.56,1269.5977 L524.5659,1269.5977 A0,0 0 0 0 524.5659,1269.5977 L524.5659,1222.4883 L514.5659,1212.4883 L514.17,1212.4883 L510.17,1093.5383 L506.17,1212.4883 L282.56,1212.4883 A0,0 0 0 0 282.56,1212.4883" fill="#FEFFDD" style="stroke:#181818;stroke-width:0.5;"/><path d="M514.5659,1212.4883 L514.5659,1222.4883 L524.5659,1222.4883 L514.5659,1212.4883" fill="#FEFFDD" style="stroke:#181818;stroke-width:0.5;"/><text fill="#000000" font-family="sans-serif" font-size="10" lengthAdjust="spacing" textLength="150.7666" x="288.56" y="1227.1563">Entry point for System Admins.</text><text fill="#000000" font-family="sans-serif" font-size="10" lengthAdjust="spacing" textLength="186.6895" x="288.56" y="1238.9336">Handles CRUD operations for Tenants.</text><text fill="#000000" font-family="sans-serif" font-size="10" lengthAdjust="spacing" textLength="217.8418" x="288.56" y="1250.7109">Relies on computed 'editingTenant' to switch</text><text fill="#000000" font-family="sans-serif" font-size="10" lengthAdjust="spacing" textLength="167.4121" x="288.56" y="1262.4883">the TenantFormComponent mode.</text></g><g class="entity" data-qualified-name="GMN32" data-source-line="190" id="ent0033"><path d="M310.81,1147.4883 L310.81,1204.5977 L496.3217,1204.5977 L496.3217,1157.4883 L486.3217,1147.4883 L310.81,1147.4883" fill="#FEFFDD" style="stroke:#181818;stroke-width:0.5;"/><path d="M486.3217,1147.4883 L486.3217,1157.4883 L496.3217,1157.4883 L486.3217,1147.4883" fill="#FEFFDD" style="stroke:#181818;stroke-width:1;"/><text fill="#000000" font-family="sans-serif" font-size="10" lengthAdjust="spacing" textLength="155.4053" x="316.81" y="1162.1563">Displays specific Tenant details.</text><text fill="#000000" font-family="sans-serif" font-size="10" lengthAdjust="spacing" textLength="164.5117" x="316.81" y="1173.9336">Manages UI state via tabs to show</text><text fill="#000000" font-family="sans-serif" font-size="10" lengthAdjust="spacing" textLength="139.5508" x="316.81" y="1185.7109">either the list of Users or the</text><text fill="#000000" font-family="sans-serif" font-size="10" lengthAdjust="spacing" textLength="160.4102" x="316.81" y="1197.4883">list of Admin Gateways assigned.</text></g><g class="entity" data-qualified-name="GMN35" data-source-line="197" id="ent0036"><path d="M734.8,43.4883 L734.8,100.5977 L948.2219,100.5977 L948.2219,53.4883 L938.2219,43.4883 L734.8,43.4883" fill="#FEFFDD" style="stroke:#181818;stroke-width:0.5;"/><path d="M938.2219,43.4883 L938.2219,53.4883 L948.2219,53.4883 L938.2219,43.4883" fill="#FEFFDD" style="stroke:#181818;stroke-width:1;"/><text fill="#000000" font-family="sans-serif" font-size="10" lengthAdjust="spacing" textLength="185.708" x="740.8" y="58.1563">Allows System Admins to impersonate</text><text fill="#000000" font-family="sans-serif" font-size="10" lengthAdjust="spacing" textLength="192.334" x="740.8" y="69.9336">Tenant Users. Disables itself and shows</text><text fill="#000000" font-family="sans-serif" font-size="10" lengthAdjust="spacing" textLength="192.4219" x="740.8" y="81.7109">loading state while AuthService handles</text><text fill="#000000" font-family="sans-serif" font-size="10" lengthAdjust="spacing" textLength="182.876" x="740.8" y="93.4883">the management-api PKCE exchange.</text></g><g class="entity" data-qualified-name="GMN38" data-source-line="204" id="ent0039"><path d="M291.58,43.4883 L291.58,100.5977 A0,0 0 0 0 291.58,100.5977 L399.17,100.5977 L403.17,188.8883 L407.17,100.5977 L515.5585,100.5977 A0,0 0 0 0 515.5585,100.5977 L515.5585,53.4883 L505.5585,43.4883 L291.58,43.4883 A0,0 0 0 0 291.58,43.4883" fill="#FEFFDD" style="stroke:#181818;stroke-width:0.5;"/><path d="M505.5585,43.4883 L505.5585,53.4883 L515.5585,53.4883 L505.5585,43.4883" fill="#FEFFDD" style="stroke:#181818;stroke-width:0.5;"/><text fill="#000000" font-family="sans-serif" font-size="10" lengthAdjust="spacing" textLength="194.9219" x="297.58" y="58.1563">Embedded page component used within</text><text fill="#000000" font-family="sans-serif" font-size="10" lengthAdjust="spacing" textLength="187.1191" x="297.58" y="69.9336">TenantDetail via InputSignal 'tenantId'.</text><text fill="#000000" font-family="sans-serif" font-size="10" lengthAdjust="spacing" textLength="186.6455" x="297.58" y="81.7109">Handles the creation, assignment, and</text><text fill="#000000" font-family="sans-serif" font-size="10" lengthAdjust="spacing" textLength="202.9785" x="297.58" y="93.4883">deletion of gateways for a specific tenant.</text></g><!--link TenantManagerPage to TenantTable--><g class="link" data-entity-1="ent0003" data-entity-2="ent0006" data-link-type="dependency" data-source-line="162" id="lnk17"><path codeLine="162" d="M539.73,1054.3783 C600.37,1054.3783 664.95,1054.3783 722.59,1054.3783" fill="none" id="TenantManagerPage-to-TenantTable" style="stroke:#181818;stroke-width:1;"/><polygon fill="#181818" points="728.59,1054.3783,719.59,1050.3783,723.59,1054.3783,719.59,1058.3783,728.59,1054.3783" style="stroke:#181818;stroke-width:1;"/></g><!--link TenantManagerPage to TenantForm--><g class="link" data-entity-1="ent0003" data-entity-2="ent0007" data-link-type="dependency" data-source-line="163" id="lnk18"><path codeLine="163" d="M539.73,952.0483 C593.22,952.0483 648.43,952.0483 701.68,952.0483" fill="none" id="TenantManagerPage-to-TenantForm" style="stroke:#181818;stroke-width:1;"/><polygon fill="#181818" points="707.68,952.0483,698.68,948.0483,702.68,952.0483,698.68,956.0483,707.68,952.0483" style="stroke:#181818;stroke-width:1;"/></g><!--link TenantManagerPage to TenantService--><g class="link" data-entity-1="ent0003" data-entity-2="ent0013" data-link-type="dependency" data-source-line="164" id="lnk19"><path codeLine="164" d="M513.17,852.4683 C513.17,787.3083 513.17,720.0483 513.17,720.0483 C513.17,720.0483 561.88,720.0483 626.64,720.0483" fill="none" id="TenantManagerPage-to-TenantService" style="stroke:#181818;stroke-width:1;"/><polygon fill="#181818" points="632.64,720.0483,623.64,716.0483,627.64,720.0483,623.64,724.0483,632.64,720.0483" style="stroke:#181818;stroke-width:1;"/></g><!--link TenantDetailPage to TenantService--><g class="link" data-entity-1="ent0004" data-entity-2="ent0013" data-link-type="dependency" data-source-line="167" id="lnk20"><path codeLine="167" d="M250.17,682.0483 C353.19,682.0483 501.58,682.0483 626.78,682.0483" fill="none" id="TenantDetailPage-to-TenantService" style="stroke:#181818;stroke-width:1;"/><polygon fill="#181818" points="632.78,682.0483,623.78,678.0483,627.78,682.0483,623.78,686.0483,632.78,682.0483" style="stroke:#181818;stroke-width:1;"/></g><!--link TenantDetailPage to TenantUserList--><g class="link" data-entity-1="ent0004" data-entity-2="ent0008" data-link-type="dependency" data-source-line="168" id="lnk21"><path codeLine="168" d="M250.15,737.5483 C273.86,737.5483 292.43,737.5483 314.76,737.5483" fill="none" id="TenantDetailPage-to-TenantUserList" style="stroke:#181818;stroke-width:1;"/><polygon fill="#181818" points="320.76,737.5483,311.76,733.5483,315.76,737.5483,311.76,741.5483,320.76,737.5483" style="stroke:#181818;stroke-width:1;"/></g><!--link TenantDetailPage to AdminGatewayListPage--><g class="link" data-entity-1="ent0004" data-entity-2="ent0005" data-link-type="dependency" data-source-line="169" id="lnk22"><path codeLine="169" d="M250.09,670.3783 C258.14,670.3783 263.17,670.3783 263.17,670.3783 C263.17,670.3783 263.17,558.0383 263.17,459.1083" fill="none" id="TenantDetailPage-to-AdminGatewayListPage" style="stroke:#181818;stroke-width:1;"/><polygon fill="#181818" points="263.17,453.1083,259.17,462.1083,263.17,458.1083,267.17,462.1083,263.17,453.1083" style="stroke:#181818;stroke-width:1;"/></g><!--link TenantUserList to AdminUserService--><g class="link" data-entity-1="ent0008" data-entity-2="ent0014" data-link-type="dependency" data-source-line="172" id="lnk23"><path codeLine="172" d="M403.17,693.6383 C403.17,642.5083 403.17,578.0483 403.17,578.0483 C403.17,578.0483 556.31,578.0483 682.82,578.0483" fill="none" id="TenantUserList-to-AdminUserService" style="stroke:#181818;stroke-width:1;"/><polygon fill="#181818" points="688.82,578.0483,679.82,574.0483,683.82,578.0483,679.82,582.0483,688.82,578.0483" style="stroke:#181818;stroke-width:1;"/></g><!--link TenantUserList to ImpersonateButton--><g class="link" data-entity-1="ent0008" data-entity-2="ent0009" data-link-type="dependency" data-source-line="173" id="lnk24"><path codeLine="173" d="M486.45,796.9883 C557.38,796.9883 653.85,796.9883 730.5,796.9883" fill="none" id="TenantUserList-to-ImpersonateButton" style="stroke:#181818;stroke-width:1;"/><polygon fill="#181818" points="736.5,796.9883,727.5,792.9883,731.5,796.9883,727.5,800.9883,736.5,796.9883" style="stroke:#181818;stroke-width:1;"/></g><!--link ImpersonateButton to AuthService--><g class="link" data-entity-1="ent0009" data-entity-2="ent0016" data-link-type="dependency" data-source-line="174" id="lnk25"><path codeLine="174" d="M946.83,833.0483 C1007.92,833.0483 1076.59,833.0483 1127.48,833.0483" fill="none" id="ImpersonateButton-to-AuthService" style="stroke:#181818;stroke-width:1;"/><polygon fill="#181818" points="1133.48,833.0483,1124.48,829.0483,1128.48,833.0483,1124.48,837.0483,1133.48,833.0483" style="stroke:#181818;stroke-width:1;"/><text fill="#000000" font-family="sans-serif" font-size="10" lengthAdjust="spacing" textLength="91.6846" x="1069.2506" y="843.7163">Injects AuthService</text><text fill="#000000" font-family="sans-serif" font-size="10" lengthAdjust="spacing" textLength="147.8857" x="1041.15" y="855.4936">to trigger startImpersonation()</text></g><!--link AdminGatewayListPage to AdminGatewayTable--><g class="link" data-entity-1="ent0005" data-entity-2="ent0010" data-link-type="dependency" data-source-line="177" id="lnk26"><path codeLine="177" d="M549.39,321.0483 C604.51,321.0483 660.61,321.0483 713.33,321.0483" fill="none" id="AdminGatewayListPage-to-AdminGatewayTable" style="stroke:#181818;stroke-width:1;"/><polygon fill="#181818" points="719.33,321.0483,710.33,317.0483,714.33,321.0483,710.33,325.0483,719.33,321.0483" style="stroke:#181818;stroke-width:1;"/></g><!--link AdminGatewayListPage to AdminGatewayForm--><g class="link" data-entity-1="ent0005" data-entity-2="ent0011" data-link-type="dependency" data-source-line="178" id="lnk27"><path codeLine="178" d="M549.39,223.2683 C601.4,223.2683 653.62,223.2683 704.32,223.2683" fill="none" id="AdminGatewayListPage-to-AdminGatewayForm" style="stroke:#181818;stroke-width:1;"/><polygon fill="#181818" points="710.32,223.2683,701.32,219.2683,705.32,223.2683,701.32,227.2683,710.32,223.2683" style="stroke:#181818;stroke-width:1;"/></g><!--link AdminGatewayListPage to AdminGatewayService--><g class="link" data-entity-1="ent0005" data-entity-2="ent0015" data-link-type="dependency" data-source-line="179" id="lnk28"><path codeLine="179" d="M549.39,437.3183 C559.6,437.3183 564.04,437.3183 574.61,437.3183" fill="none" id="AdminGatewayListPage-to-AdminGatewayService" style="stroke:#181818;stroke-width:1;"/><polygon fill="#181818" points="580.61,437.3183,571.61,433.3183,575.61,437.3183,571.61,441.3183,580.61,437.3183" style="stroke:#181818;stroke-width:1;"/></g><!--link TenantDetailPage to GMN32--><g class="link" data-entity-1="ent0004" data-entity-2="ent0033" data-link-type="association" data-source-line="190" id="lnk34"><path d="M136.17,781.5383 C136.17,906.0083 136.17,1176.0483 136.17,1176.0483 C136.17,1176.0483 233.25,1176.0483 310.42,1176.0483" fill="none" id="TenantDetailPage-GMN32" style="stroke:#181818;stroke-width:1;stroke-dasharray:7,7;"/></g><!--link ImpersonateButton to GMN35--><g class="link" data-entity-1="ent0009" data-entity-2="ent0036" data-link-type="association" data-source-line="197" id="lnk37"><path d="M946.5,794.3183 C1024.76,794.3183 1118.17,794.3183 1118.17,794.3183 C1118.17,794.3183 1118.17,72.0483 1118.17,72.0483 C1118.17,72.0483 1026.32,72.0483 948.47,72.0483" fill="none" id="ImpersonateButton-GMN35" style="stroke:#181818;stroke-width:1;stroke-dasharray:7,7;"/></g><?plantuml-src rLXDSzis4BthL-ou1ydJA9FUEfwCPnJPRZLDQe-LzDBs014h2JK9i0HenMdxtxi0lq0IefWuFLI7Z0CyB7RVxZu0DCB423-hzwixkCcKD2Wvp6714o5XaKLxOJ0oUOQJYNuGCcKPIs33eeTTfdB9bofM6NnputuUWkEMvR6v8ODhyGdXkrVXoNBzA_Vp859nr9Z2zzvOnkH3TomM4irJYg0oirVUH1GphHV6P6AJ6rn5IZe_NarYt1em2ZAnsnlW8gFmX9AJIKf1iHt2cOlz35w_lgSf9dSnNbx2NnEWdxCAP-zHCcdUCKdux8x-MQeaLHAbEGEceJTThWQOpyi_lZKEeozWBNQInQ-BDR_-Vba1z5uTbXaoWpSgIshSHgaOcQnXGhzLZ0kv6q2isUCG0BamD5zuiE8rJXDvSWT_WypZk4PpZF4pu2tZ5s29edpmCjuEkg57xcxbIWepEx-0HoLuDPxXdpbgSqrMPwRseDYw0rKfoeR08uQkR3HuobJ4P8HnYUtEARaLMHAUrEmHYqXdANkAALD4WVEf6BspjKhhCXtSqONPdfbR8yLYtPhwPzAlq2iqJCJ72hIPFLgVdVBi9lTqyJ5gBgA0RMh4DDSKxfHCJNV4mu4zwUdu_6iqYyhap5Yp8Nj7APk9O8hRtBd-_w6mzLPeq-SlX3ZAeQsgbQIgR_L9pL3bT4tGxMQRwuX6URc39mgd2Hyj6-D4eNHXj2gCnRVDUxhGY_wp9SAEB_UaswY7r6FNUFfi-JXbwrdwKVBG2CY2LznyeNoKgq_h1pLP79GEDp5qgla5tptQ6hYjWlk2oGkupGsjkKw4eO3kSTjj55TYE1g-GxCspEJw3UFKlpQicNO3NfAAFux6RpCV2j-E3sXcF_Y-SAxpZNNTjQ2Fx_HXOzoMGY3gy6bosIw4m3gRznf5boFdpic2-41QQmKlH4erzwL2w7IyberV11winSyHl-TeWsiCk-5GLwoIb01A4kDlScEKRFFGcmvHmJAgJBlH2JguqBR9-61v42VDfewPMaZxo8Mxw8xcK4aldcKieeVPk3Cpe1gzwG0ppK7e1pnq6eufg_-3sFZiz2MdEtkSkXFC_NSY53gHlfe4rU-oDMQF8aBjMAd-4tgObNEUDfKZVUhcoIunYrHS53IN5-iItkSPZNVrljrG5p_QQkw_tcfa-yRPMzAmvEduYBV2SKDvoXj3pUOlu3b6YtOu4L6Jpq1vMyNpyz8T_6gfAJGyyA3pFEqUBiVRiUToU_oarzLLQy3j-ZOsxFEG4BAw_tf6lBmVkJSExT6fgcgJtdttA-rIbDdHNOwNMvd2AHr_6G9-f4r9nu0ZNU8voaYGKCpUgUW1EMnL1f7zqFNHd4-QfETcNoLrPgsS5pblXeiDxZ5czXZLUv5gc9Vw0kN77eBqF_xCvvV-jVa4nahy2SWOXuh7VMt8U-ltxGo2gclTCLJeBHpsZ0G-gaus3MhRzR6-GDPcFNq8etetBeBrRs7EdfTVUzZzWP5ffVStQHHGcUs8RwetbXdlPgNax3mSLF6XjEfXWWI_3NI9gWfX5BYiY57OYYrg1waCWb6fPRfNJMJlMfhi2L8bg5fiJwoVjC6aiAPV4k179dbCZREy_t05z1pEYi0Tk5HZ2oD6R7iHpr5vzuHfwwlVr7vkrGTXeZqGtkmH0iyhI1J7bnFx-TbwNlfVVAMj8sXgZmnT2Pt6H3he52En5L5L-zoXd7D5o1e-h6nEoU2ZO63OHZkVzkf061JaKkRyYcrXqMxk407b1WbH3RUJJVgWwRw4lEVrHb7T9NP5g40NSQmEkistTKSqsBhQ2qzUsbXjoMWGHcEy1KgDSzzMN5pSwCi03tj1rsk_tFT57alg4yT8GepFMIhWxgVbDGbcv1v50u44svoAADaWvvJor5PZtTv0ZpaEbFAza1tXS1dmBfimhOwigLzqrbLt9wAIUr4oRPr-uK8dOF75YQgEdAkU3guqMLCFXMKlgdy1?></g></svg>