<?plantuml 1.2026.2?><svg xmlns="http://www.w3.org/2000/svg" xmlns:xlink="http://www.w3.org/1999/xlink" contentStyleType="text/css" data-diagram-type="CLASS" height="720px" preserveAspectRatio="none" style="width:2243px;height:720px;background:#FFFFFF;" version="1.1" viewBox="0 0 2243 720" width="2243px" zoomAndPan="magnify"><title>NOTIP Frontend - Dashboard Architecture</title><defs/><g><g class="title" data-source-line="1"><text fill="#000000" font-family="sans-serif" font-size="14" font-weight="bold" lengthAdjust="spacing" textLength="304.623" x="962.2691" y="23.5352">NOTIP Frontend - Dashboard Architecture</text></g><!--cluster Dashboard Feature--><g class="cluster" data-qualified-name="Dashboard Feature" data-source-line="11" id="ent0002"><rect fill="none" height="586.21" rx="2.5" ry="2.5" style="stroke:#181818;stroke-width:1;" width="1793" x="7" y="128.3783"/><text fill="#000000" font-family="sans-serif" font-size="10" font-weight="bold" lengthAdjust="spacing" textLength="97.8955" x="854.5522" y="140.0463">Dashboard Feature</text></g><!--cluster Services--><g class="cluster" data-qualified-name="Dashboard Feature.Services" data-source-line="61" id="ent0007"><path d="M1016.5,379.4783 L1119.0283,379.4783 A3.75,3.75 0 0 1 1121.5283,381.9783 L1128.5283,397.2556 L1683.5,397.2556 A2.5,2.5 0 0 1 1686,399.7556 L1686,688.0883 A2.5,2.5 0 0 1 1683.5,690.5883 L1016.5,690.5883 A2.5,2.5 0 0 1 1014,688.0883 L1014,381.9783 A2.5,2.5 0 0 1 1016.5,379.4783" fill="none" style="stroke:#000000;stroke-width:1.5;"/><line style="stroke:#000000;stroke-width:1.5;" x1="1014" x2="1128.5283" y1="397.2556" y2="397.2556"/><text fill="#000000" font-family="sans-serif" font-size="10" font-weight="bold" lengthAdjust="spacing" textLength="101.5283" x="1018" y="391.1463">Dashboard Services</text></g><!--class DashboardPage--><g class="entity" data-qualified-name="Dashboard Feature.DashboardPage" data-source-line="12" id="ent0003"><rect fill="#F1F1F1" height="205.1055" rx="2.5" ry="2.5" style="stroke:#181818;stroke-width:0.5;" width="219.1465" x="697.43" y="158.3783"/><ellipse cx="726.9882" cy="172.3783" fill="#ADD1B2" rx="9" ry="9" style="stroke:#181818;stroke-width:1;"/><path d="M728.2665,176.1683 Q727.9247,176.3441 727.5487,176.432 Q727.1727,176.5199 726.7577,176.5199 Q725.2831,176.5199 724.5067,175.5482 Q723.7303,174.5765 723.7303,172.7406 Q723.7303,170.8998 724.5067,169.9281 Q725.2831,168.9564 726.7577,168.9564 Q727.1727,168.9564 727.5536,169.0443 Q727.9344,169.1322 728.2665,169.308 L728.2665,170.9095 Q727.8954,170.5677 727.5463,170.409 Q727.1971,170.2504 726.826,170.2504 Q726.035,170.2504 725.6322,170.8778 Q725.2294,171.5052 725.2294,172.7406 Q725.2294,173.9711 725.6322,174.5985 Q726.035,175.2259 726.826,175.2259 Q727.1971,175.2259 727.5463,175.0672 Q727.8954,174.9086 728.2665,174.5668 Z " fill="#000000"/><text fill="#000000" font-family="sans-serif" font-size="10" lengthAdjust="spacing" textLength="154.3506" x="742.6677" y="176.1576">DataDashboardPageComponent</text><line style="stroke:#181818;stroke-width:0.5;" x1="698.43" x2="915.5765" y1="186.3783" y2="186.3783"/><line style="stroke:#181818;stroke-width:1;" x1="698.43" x2="915.5765" y1="194.3783" y2="194.3783"/><g data-visibility-modifier="PUBLIC_FIELD"><ellipse cx="708.43" cy="205.767" fill="none" rx="3" ry="3" style="stroke:#038048;stroke-width:1;"/></g><text fill="#000000" font-family="sans-serif" font-size="10" lengthAdjust="spacing" textLength="195.1465" x="715.43" y="208.0463">dataMode: Signal&lt;'clear' | 'obfuscated'&gt;</text><g data-visibility-modifier="PUBLIC_FIELD"><ellipse cx="708.43" cy="217.5443" fill="none" rx="3" ry="3" style="stroke:#038048;stroke-width:1;"/></g><text fill="#000000" font-family="sans-serif" font-size="10" lengthAdjust="spacing" textLength="182.0557" x="715.43" y="219.8236">activeView: Signal&lt;'stream' | 'query'&gt;</text><g data-visibility-modifier="PUBLIC_FIELD"><ellipse cx="708.43" cy="229.3216" fill="none" rx="3" ry="3" style="stroke:#038048;stroke-width:1;"/></g><text fill="#000000" font-family="sans-serif" font-size="10" lengthAdjust="spacing" textLength="163.7842" x="715.43" y="231.6009">gatewayOptions: Signal&lt;string[]&gt;</text><g data-visibility-modifier="PUBLIC_FIELD"><ellipse cx="708.43" cy="241.099" fill="none" rx="3" ry="3" style="stroke:#038048;stroke-width:1;"/></g><text fill="#000000" font-family="sans-serif" font-size="10" lengthAdjust="spacing" textLength="179.8828" x="715.43" y="243.3783">sensorTypeOptions: Signal&lt;string[]&gt;</text><g data-visibility-modifier="PUBLIC_FIELD"><ellipse cx="708.43" cy="252.8763" fill="none" rx="3" ry="3" style="stroke:#038048;stroke-width:1;"/></g><text fill="#000000" font-family="sans-serif" font-size="10" lengthAdjust="spacing" textLength="156.4697" x="715.43" y="255.1556">sensorOptions: Signal&lt;string[]&gt;</text><g data-visibility-modifier="PUBLIC_FIELD"><ellipse cx="708.43" cy="264.6537" fill="none" rx="3" ry="3" style="stroke:#038048;stroke-width:1;"/></g><text fill="#000000" font-family="sans-serif" font-size="10" lengthAdjust="spacing" textLength="145.2686" x="715.43" y="266.933">isExporting: Signal&lt;boolean&gt;</text><line style="stroke:#181818;stroke-width:1;" x1="698.43" x2="915.5765" y1="273.0423" y2="273.0423"/><g data-visibility-modifier="PUBLIC_METHOD"><ellipse cx="708.43" cy="284.431" fill="#84BE84" rx="3" ry="3" style="stroke:#038048;stroke-width:1;"/></g><text fill="#000000" font-family="sans-serif" font-size="10" lengthAdjust="spacing" textLength="75.4688" x="715.43" y="286.7103">ngOnInit(): void</text><g data-visibility-modifier="PUBLIC_METHOD"><ellipse cx="708.43" cy="296.2084" fill="#84BE84" rx="3" ry="3" style="stroke:#038048;stroke-width:1;"/></g><text fill="#000000" font-family="sans-serif" font-size="10" lengthAdjust="spacing" textLength="140.4199" x="715.43" y="298.4877">onFiltersApplied(filters): void</text><g data-visibility-modifier="PUBLIC_METHOD"><ellipse cx="708.43" cy="307.9857" fill="#84BE84" rx="3" ry="3" style="stroke:#038048;stroke-width:1;"/></g><text fill="#000000" font-family="sans-serif" font-size="10" lengthAdjust="spacing" textLength="112.1875" x="715.43" y="310.265">onFiltersCleared(): void</text><g data-visibility-modifier="PUBLIC_METHOD"><ellipse cx="708.43" cy="319.763" fill="#84BE84" rx="3" ry="3" style="stroke:#038048;stroke-width:1;"/></g><text fill="#000000" font-family="sans-serif" font-size="10" lengthAdjust="spacing" textLength="121.1914" x="715.43" y="322.0423">setActiveView(view): void</text><g data-visibility-modifier="PUBLIC_METHOD"><ellipse cx="708.43" cy="331.5404" fill="#84BE84" rx="3" ry="3" style="stroke:#038048;stroke-width:1;"/></g><text fill="#000000" font-family="sans-serif" font-size="10" lengthAdjust="spacing" textLength="160.9229" x="715.43" y="333.8197">onExportQuery(): Promise&lt;void&gt;</text><g data-visibility-modifier="PUBLIC_METHOD"><ellipse cx="708.43" cy="343.3177" fill="#84BE84" rx="3" ry="3" style="stroke:#038048;stroke-width:1;"/></g><text fill="#000000" font-family="sans-serif" font-size="10" lengthAdjust="spacing" textLength="120.2344" x="715.43" y="345.597">onNextQueryPage(): void</text><g data-visibility-modifier="PRIVATE_METHOD"><rect fill="#F24D5C" height="6" style="stroke:#C82930;stroke-width:1;" width="6" x="705.43" y="352.0951"/></g><text fill="#000000" font-family="sans-serif" font-size="10" lengthAdjust="spacing" textLength="132.7588" x="715.43" y="357.3744">downloadAsCsv(rows): void</text></g><!--class FilterPanel--><g class="entity" data-qualified-name="Dashboard Feature.FilterPanel" data-source-line="30" id="ent0004"><rect fill="#F1F1F1" height="146.2188" rx="2.5" ry="2.5" style="stroke:#181818;stroke-width:0.5;" width="323.1797" x="284.41" y="397.7083"/><ellipse cx="388.8392" cy="411.7083" fill="#ADD1B2" rx="9" ry="9" style="stroke:#181818;stroke-width:1;"/><path d="M390.1175,415.4983 Q389.7757,415.6741 389.3997,415.762 Q389.0238,415.8499 388.6087,415.8499 Q387.1341,415.8499 386.3578,414.8782 Q385.5814,413.9065 385.5814,412.0706 Q385.5814,410.2298 386.3578,409.2581 Q387.1341,408.2864 388.6087,408.2864 Q389.0238,408.2864 389.4046,408.3743 Q389.7855,408.4622 390.1175,408.638 L390.1175,410.2395 Q389.7464,409.8977 389.3973,409.739 Q389.0482,409.5804 388.6771,409.5804 Q387.8861,409.5804 387.4832,410.2078 Q387.0804,410.8352 387.0804,412.0706 Q387.0804,413.3011 387.4832,413.9285 Q387.8861,414.5559 388.6771,414.5559 Q389.0482,414.5559 389.3973,414.3972 Q389.7464,414.2386 390.1175,413.8968 Z " fill="#000000"/><text fill="#000000" font-family="sans-serif" font-size="10" lengthAdjust="spacing" textLength="106.8213" x="406.3392" y="415.4876">FilterPanelComponent</text><line style="stroke:#181818;stroke-width:0.5;" x1="285.41" x2="606.5897" y1="425.7083" y2="425.7083"/><line style="stroke:#181818;stroke-width:1;" x1="285.41" x2="606.5897" y1="433.7083" y2="433.7083"/><g data-visibility-modifier="PUBLIC_FIELD"><ellipse cx="295.41" cy="445.097" fill="none" rx="3" ry="3" style="stroke:#038048;stroke-width:1;"/></g><text fill="#000000" font-family="sans-serif" font-size="10" lengthAdjust="spacing" textLength="299.1797" x="302.41" y="447.3763">sensorCatalog: InputSignal&lt;DashboardSensorCatalogEntry[]&gt;</text><g data-visibility-modifier="PUBLIC_FIELD"><ellipse cx="295.41" cy="456.8743" fill="none" rx="3" ry="3" style="stroke:#038048;stroke-width:1;"/></g><text fill="#000000" font-family="sans-serif" font-size="10" lengthAdjust="spacing" textLength="197.4414" x="302.41" y="459.1536">selectedFilters: Signal&lt;MultiSelectState&gt;</text><g data-visibility-modifier="PUBLIC_FIELD"><ellipse cx="295.41" cy="468.6516" fill="none" rx="3" ry="3" style="stroke:#038048;stroke-width:1;"/></g><text fill="#000000" font-family="sans-serif" font-size="10" lengthAdjust="spacing" textLength="151.4893" x="302.41" y="470.9309">queryFromRaw: Signal&lt;string&gt;</text><g data-visibility-modifier="PUBLIC_FIELD"><ellipse cx="295.41" cy="480.429" fill="none" rx="3" ry="3" style="stroke:#038048;stroke-width:1;"/></g><text fill="#000000" font-family="sans-serif" font-size="10" lengthAdjust="spacing" textLength="139.0234" x="302.41" y="482.7083">queryToRaw: Signal&lt;string&gt;</text><line style="stroke:#181818;stroke-width:1;" x1="285.41" x2="606.5897" y1="488.8177" y2="488.8177"/><g data-visibility-modifier="PUBLIC_METHOD"><ellipse cx="295.41" cy="500.2063" fill="#84BE84" rx="3" ry="3" style="stroke:#038048;stroke-width:1;"/></g><text fill="#000000" font-family="sans-serif" font-size="10" lengthAdjust="spacing" textLength="115.4688" x="302.41" y="502.4856">applyFilters(event): void</text><g data-visibility-modifier="PUBLIC_METHOD"><ellipse cx="295.41" cy="511.9837" fill="#84BE84" rx="3" ry="3" style="stroke:#038048;stroke-width:1;"/></g><text fill="#000000" font-family="sans-serif" font-size="10" lengthAdjust="spacing" textLength="86.1768" x="302.41" y="514.263">clearFilters(): void</text><g data-visibility-modifier="PRIVATE_METHOD"><rect fill="#F24D5C" height="6" style="stroke:#C82930;stroke-width:1;" width="6" x="292.41" y="520.761"/></g><text fill="#000000" font-family="sans-serif" font-size="10" lengthAdjust="spacing" textLength="156.6406" x="302.41" y="526.0403">enforceMaxQueryWindow(): void</text><g data-visibility-modifier="PRIVATE_METHOD"><rect fill="#F24D5C" height="6" style="stroke:#C82930;stroke-width:1;" width="6" x="292.41" y="532.5384"/></g><text fill="#000000" font-family="sans-serif" font-size="10" lengthAdjust="spacing" textLength="204.9902" x="302.41" y="537.8177">normalizeSelection(state): MultiSelectState</text></g><!--class TelemetryChart--><g class="entity" data-qualified-name="Dashboard Feature.TelemetryChart" data-source-line="43" id="ent0005"><rect fill="#F1F1F1" height="110.8867" rx="2.5" ry="2.5" style="stroke:#181818;stroke-width:0.5;" width="253.165" x="23.42" y="415.3683"/><ellipse cx="80.5738" cy="429.3683" fill="#ADD1B2" rx="9" ry="9" style="stroke:#181818;stroke-width:1;"/><path d="M81.8521,433.1583 Q81.5103,433.3341 81.1344,433.422 Q80.7584,433.5099 80.3433,433.5099 Q78.8687,433.5099 78.0924,432.5382 Q77.316,431.5665 77.316,429.7306 Q77.316,427.8898 78.0924,426.9181 Q78.8687,425.9464 80.3433,425.9464 Q80.7584,425.9464 81.1392,426.0343 Q81.5201,426.1222 81.8521,426.298 L81.8521,427.8995 Q81.481,427.5577 81.1319,427.399 Q80.7828,427.2404 80.4117,427.2404 Q79.6207,427.2404 79.2179,427.8678 Q78.815,428.4952 78.815,429.7306 Q78.815,430.9611 79.2179,431.5885 Q79.6207,432.2159 80.4117,432.2159 Q80.7828,432.2159 81.1319,432.0572 Q81.481,431.8986 81.8521,431.5568 Z " fill="#000000"/><text fill="#000000" font-family="sans-serif" font-size="10" lengthAdjust="spacing" textLength="131.3574" x="98.0738" y="433.1476">TelemetryChartComponent</text><line style="stroke:#181818;stroke-width:0.5;" x1="24.42" x2="275.585" y1="443.3683" y2="443.3683"/><line style="stroke:#181818;stroke-width:1;" x1="24.42" x2="275.585" y1="451.3683" y2="451.3683"/><g data-visibility-modifier="PRIVATE_FIELD"><rect fill="none" height="6" style="stroke:#C82930;stroke-width:1;" width="6" x="31.42" y="459.757"/></g><text fill="#000000" font-family="sans-serif" font-size="10" lengthAdjust="spacing" textLength="156.8164" x="41.42" y="465.0363">chartInstance: Chart | undefined</text><g data-visibility-modifier="PUBLIC_FIELD"><ellipse cx="34.42" cy="474.5343" fill="none" rx="3" ry="3" style="stroke:#038048;stroke-width:1;"/></g><text fill="#000000" font-family="sans-serif" font-size="10" lengthAdjust="spacing" textLength="229.165" x="41.42" y="476.8136">uniqueCheckedSensorIds: Computed&lt;string[]&gt;</text><line style="stroke:#181818;stroke-width:1;" x1="24.42" x2="275.585" y1="482.923" y2="482.923"/><text fill="#000000" font-family="sans-serif" font-size="10" lengthAdjust="spacing" textLength="128.3447" x="41.42" y="496.5909">&#171;constructor&#187; (uses effect)</text><g data-visibility-modifier="PRIVATE_METHOD"><rect fill="#F24D5C" height="6" style="stroke:#C82930;stroke-width:1;" width="6" x="31.42" y="503.089"/></g><text fill="#000000" font-family="sans-serif" font-size="10" lengthAdjust="spacing" textLength="182.5195" x="41.42" y="508.3683">toChartData(rows): { labels, datasets }</text><g data-visibility-modifier="PRIVATE_METHOD"><rect fill="#F24D5C" height="6" style="stroke:#C82930;stroke-width:1;" width="6" x="31.42" y="514.8663"/></g><text fill="#000000" font-family="sans-serif" font-size="10" lengthAdjust="spacing" textLength="153.0811" x="41.42" y="520.1456">formatTimestamp(value): string</text></g><!--class TelemetryTable--><g class="entity" data-qualified-name="Dashboard Feature.TelemetryTable" data-source-line="53" id="ent0006"><rect fill="#F1F1F1" height="87.332" rx="2.5" ry="2.5" style="stroke:#181818;stroke-width:0.5;" width="382.335" x="615.83" y="427.1483"/><ellipse cx="737.5077" cy="441.1483" fill="#ADD1B2" rx="9" ry="9" style="stroke:#181818;stroke-width:1;"/><path d="M738.7861,444.9383 Q738.4443,445.1141 738.0683,445.202 Q737.6923,445.2899 737.2773,445.2899 Q735.8027,445.2899 735.0263,444.3182 Q734.2499,443.3465 734.2499,441.5106 Q734.2499,439.6698 735.0263,438.6981 Q735.8027,437.7264 737.2773,437.7264 Q737.6923,437.7264 738.0732,437.8143 Q738.454,437.9022 738.7861,438.078 L738.7861,439.6795 Q738.415,439.3377 738.0658,439.179 Q737.7167,439.0204 737.3456,439.0204 Q736.5546,439.0204 736.1518,439.6478 Q735.7489,440.2752 735.7489,441.5106 Q735.7489,442.7411 736.1518,443.3685 Q736.5546,443.9959 737.3456,443.9959 Q737.7167,443.9959 738.0658,443.8372 Q738.415,443.6786 738.7861,443.3368 Z " fill="#000000"/><text fill="#000000" font-family="sans-serif" font-size="10" lengthAdjust="spacing" textLength="131.4795" x="755.0077" y="444.9276">TelemetryTableComponent</text><line style="stroke:#181818;stroke-width:0.5;" x1="616.83" x2="997.165" y1="455.1483" y2="455.1483"/><line style="stroke:#181818;stroke-width:1;" x1="616.83" x2="997.165" y1="463.1483" y2="463.1483"/><g data-visibility-modifier="PUBLIC_FIELD"><ellipse cx="626.83" cy="474.537" fill="none" rx="3" ry="3" style="stroke:#038048;stroke-width:1;"/></g><text fill="#000000" font-family="sans-serif" font-size="10" lengthAdjust="spacing" textLength="358.335" x="633.83" y="476.8163">measures: InputSignal&lt;Array&lt;CheckedEnvelope | ObfuscatedEnvelope&gt;&gt;</text><line style="stroke:#181818;stroke-width:1;" x1="616.83" x2="997.165" y1="482.9256" y2="482.9256"/><g data-visibility-modifier="PUBLIC_METHOD"><ellipse cx="626.83" cy="494.3143" fill="#84BE84" rx="3" ry="3" style="stroke:#038048;stroke-width:1;"/></g><text fill="#000000" font-family="sans-serif" font-size="10" lengthAdjust="spacing" textLength="118.2715" x="633.83" y="496.5936">formatValue(row): string</text><g data-visibility-modifier="PUBLIC_METHOD"><ellipse cx="626.83" cy="506.0916" fill="#84BE84" rx="3" ry="3" style="stroke:#038048;stroke-width:1;"/></g><text fill="#000000" font-family="sans-serif" font-size="10" lengthAdjust="spacing" textLength="102.5" x="633.83" y="508.3709">rowClass(row): string</text></g><!--class BoundsEval--><g class="entity" data-qualified-name="Dashboard Feature.BoundsEval" data-source-line="103" id="ent0017"><rect fill="#F1F1F1" height="44" rx="2.5" ry="2.5" style="stroke:#181818;stroke-width:0.5;" width="82.707" x="1701.65" y="591.2583"/><ellipse cx="1714.65" cy="605.2583" fill="#ADD1B2" rx="9" ry="9" style="stroke:#181818;stroke-width:1;"/><path d="M1715.9283,609.0483 Q1715.5865,609.2241 1715.2105,609.312 Q1714.8346,609.3999 1714.4195,609.3999 Q1712.9449,609.3999 1712.1686,608.4282 Q1711.3922,607.4565 1711.3922,605.6206 Q1711.3922,603.7798 1712.1686,602.8081 Q1712.9449,601.8364 1714.4195,601.8364 Q1714.8346,601.8364 1715.2154,601.9243 Q1715.5963,602.0122 1715.9283,602.188 L1715.9283,603.7895 Q1715.5572,603.4477 1715.2081,603.289 Q1714.859,603.1304 1714.4879,603.1304 Q1713.6969,603.1304 1713.294,603.7578 Q1712.8912,604.3852 1712.8912,605.6206 Q1712.8912,606.8511 1713.294,607.4785 Q1713.6969,608.1059 1714.4879,608.1059 Q1714.859,608.1059 1715.2081,607.9472 Q1715.5572,607.7886 1715.9283,607.4468 Z " fill="#000000"/><text fill="#000000" font-family="sans-serif" font-size="10" lengthAdjust="spacing" textLength="54.707" x="1726.65" y="609.0376">BoundsEval</text><line style="stroke:#181818;stroke-width:0.5;" x1="1702.65" x2="1783.357" y1="619.2583" y2="619.2583"/><line style="stroke:#181818;stroke-width:0.5;" x1="1702.65" x2="1783.357" y1="627.2583" y2="627.2583"/></g><!--class RomeDatePipe--><g class="entity" data-qualified-name="Dashboard Feature.RomeDatePipe" data-source-line="105" id="ent0019"><rect fill="#F1F1F1" height="44" rx="2.5" ry="2.5" style="stroke:#181818;stroke-width:0.5;" width="97.9805" x="577.01" y="591.2583"/><ellipse cx="590.01" cy="605.2583" fill="#ADD1B2" rx="9" ry="9" style="stroke:#181818;stroke-width:1;"/><path d="M591.2883,609.0483 Q590.9465,609.2241 590.5705,609.312 Q590.1946,609.3999 589.7795,609.3999 Q588.3049,609.3999 587.5286,608.4282 Q586.7522,607.4565 586.7522,605.6206 Q586.7522,603.7798 587.5286,602.8081 Q588.3049,601.8364 589.7795,601.8364 Q590.1946,601.8364 590.5754,601.9243 Q590.9563,602.0122 591.2883,602.188 L591.2883,603.7895 Q590.9172,603.4477 590.5681,603.289 Q590.219,603.1304 589.8479,603.1304 Q589.0569,603.1304 588.654,603.7578 Q588.2512,604.3852 588.2512,605.6206 Q588.2512,606.8511 588.654,607.4785 Q589.0569,608.1059 589.8479,608.1059 Q590.219,608.1059 590.5681,607.9472 Q590.9172,607.7886 591.2883,607.4468 Z " fill="#000000"/><text fill="#000000" font-family="sans-serif" font-size="10" lengthAdjust="spacing" textLength="69.9805" x="602.01" y="609.0376">RomeDatePipe</text><line style="stroke:#181818;stroke-width:0.5;" x1="578.01" x2="673.9905" y1="619.2583" y2="619.2583"/><line style="stroke:#181818;stroke-width:0.5;" x1="578.01" x2="673.9905" y1="627.2583" y2="627.2583"/></g><!--class ChartJs--><g class="entity" data-qualified-name="Dashboard Feature.ChartJs" data-source-line="107" id="ent0021"><rect fill="#F1F1F1" height="44" rx="2.5" ry="2.5" style="stroke:#181818;stroke-width:0.5;" width="62.6875" x="118.66" y="591.2583"/><ellipse cx="131.66" cy="605.2583" fill="#ADD1B2" rx="9" ry="9" style="stroke:#181818;stroke-width:1;"/><path d="M132.9383,609.0483 Q132.5965,609.2241 132.2205,609.312 Q131.8446,609.3999 131.4295,609.3999 Q129.9549,609.3999 129.1786,608.4282 Q128.4022,607.4565 128.4022,605.6206 Q128.4022,603.7798 129.1786,602.8081 Q129.9549,601.8364 131.4295,601.8364 Q131.8446,601.8364 132.2254,601.9243 Q132.6063,602.0122 132.9383,602.188 L132.9383,603.7895 Q132.5672,603.4477 132.2181,603.289 Q131.869,603.1304 131.4979,603.1304 Q130.7069,603.1304 130.304,603.7578 Q129.9012,604.3852 129.9012,605.6206 Q129.9012,606.8511 130.304,607.4785 Q130.7069,608.1059 131.4979,608.1059 Q131.869,608.1059 132.2181,607.9472 Q132.5672,607.7886 132.9383,607.4468 Z " fill="#000000"/><text fill="#000000" font-family="sans-serif" font-size="10" lengthAdjust="spacing" textLength="34.6875" x="143.66" y="609.0376">ChartJs</text><line style="stroke:#181818;stroke-width:0.5;" x1="119.66" x2="180.3475" y1="619.2583" y2="619.2583"/><line style="stroke:#181818;stroke-width:0.5;" x1="119.66" x2="180.3475" y1="627.2583" y2="627.2583"/></g><!--class DecMeasure--><g class="entity" data-qualified-name="Dashboard Feature.Services.DecMeasure" data-source-line="62" id="ent0008"><rect fill="#F1F1F1" height="122.6641" rx="2.5" ry="2.5" style="stroke:#181818;stroke-width:0.5;" width="293.4043" x="1348.3" y="551.9283"/><ellipse cx="1429.3112" cy="565.9283" fill="#ADD1B2" rx="9" ry="9" style="stroke:#181818;stroke-width:1;"/><path d="M1430.5896,569.7183 Q1430.2478,569.8941 1429.8718,569.982 Q1429.4958,570.0699 1429.0808,570.0699 Q1427.6062,570.0699 1426.8298,569.0982 Q1426.0534,568.1265 1426.0534,566.2906 Q1426.0534,564.4498 1426.8298,563.4781 Q1427.6062,562.5064 1429.0808,562.5064 Q1429.4958,562.5064 1429.8767,562.5943 Q1430.2575,562.6822 1430.5896,562.858 L1430.5896,564.4595 Q1430.2185,564.1177 1429.8693,563.959 Q1429.5202,563.8004 1429.1491,563.8004 Q1428.3581,563.8004 1427.9553,564.4278 Q1427.5524,565.0552 1427.5524,566.2906 Q1427.5524,567.5211 1427.9553,568.1485 Q1428.3581,568.7759 1429.1491,568.7759 Q1429.5202,568.7759 1429.8693,568.6172 Q1430.2185,568.4586 1430.5896,568.1168 Z " fill="#000000"/><text fill="#000000" font-family="sans-serif" font-size="10" lengthAdjust="spacing" textLength="123.8818" x="1446.8112" y="569.7076">DecryptedMeasureService</text><line style="stroke:#181818;stroke-width:0.5;" x1="1349.3" x2="1640.7043" y1="579.9283" y2="579.9283"/><line style="stroke:#181818;stroke-width:1;" x1="1349.3" x2="1640.7043" y1="587.9283" y2="587.9283"/><g data-visibility-modifier="PRIVATE_FIELD"><rect fill="none" height="6" style="stroke:#C82930;stroke-width:1;" width="6" x="1356.3" y="596.317"/></g><text fill="#000000" font-family="sans-serif" font-size="10" lengthAdjust="spacing" textLength="73.501" x="1366.3" y="601.5963">sdk: CryptoSdk</text><g data-visibility-modifier="PRIVATE_FIELD"><rect fill="none" height="6" style="stroke:#C82930;stroke-width:1;" width="6" x="1356.3" y="608.0943"/></g><text fill="#000000" font-family="sans-serif" font-size="10" lengthAdjust="spacing" textLength="247.9639" x="1366.3" y="613.3736">activeStreamAbortController: AbortController | null</text><line style="stroke:#181818;stroke-width:1;" x1="1349.3" x2="1640.7043" y1="619.483" y2="619.483"/><g data-visibility-modifier="PUBLIC_METHOD"><ellipse cx="1359.3" cy="630.8716" fill="#84BE84" rx="3" ry="3" style="stroke:#038048;stroke-width:1;"/></g><text fill="#000000" font-family="sans-serif" font-size="10" lengthAdjust="spacing" textLength="214.9707" x="1366.3" y="633.1509">query(params): Observable&lt;QueryResPage&gt;</text><g data-visibility-modifier="PUBLIC_METHOD"><ellipse cx="1359.3" cy="642.649" fill="#84BE84" rx="3" ry="3" style="stroke:#038048;stroke-width:1;"/></g><text fill="#000000" font-family="sans-serif" font-size="10" lengthAdjust="spacing" textLength="269.4043" x="1366.3" y="644.9283">openStream(params): Observable&lt;DecryptedEnvelope&gt;</text><g data-visibility-modifier="PUBLIC_METHOD"><ellipse cx="1359.3" cy="654.4263" fill="#84BE84" rx="3" ry="3" style="stroke:#038048;stroke-width:1;"/></g><text fill="#000000" font-family="sans-serif" font-size="10" lengthAdjust="spacing" textLength="243.5156" x="1366.3" y="656.7056">export(params): Observable&lt;DecryptedEnvelope&gt;</text><g data-visibility-modifier="PUBLIC_METHOD"><ellipse cx="1359.3" cy="666.2037" fill="#84BE84" rx="3" ry="3" style="stroke:#038048;stroke-width:1;"/></g><text fill="#000000" font-family="sans-serif" font-size="10" lengthAdjust="spacing" textLength="91.8066" x="1366.3" y="668.483">closeStream(): void</text></g><!--class ObfMeasure--><g class="entity" data-qualified-name="Dashboard Feature.Services.ObfMeasure" data-source-line="73" id="ent0009"><rect fill="#F1F1F1" height="110.8867" rx="2.5" ry="2.5" style="stroke:#181818;stroke-width:0.5;" width="281.3291" x="1030.34" y="415.3683"/><ellipse cx="1102.3669" cy="429.3683" fill="#ADD1B2" rx="9" ry="9" style="stroke:#181818;stroke-width:1;"/><path d="M1103.6452,433.1583 Q1103.3034,433.3341 1102.9274,433.422 Q1102.5514,433.5099 1102.1364,433.5099 Q1100.6618,433.5099 1099.8854,432.5382 Q1099.109,431.5665 1099.109,429.7306 Q1099.109,427.8898 1099.8854,426.9181 Q1100.6618,425.9464 1102.1364,425.9464 Q1102.5514,425.9464 1102.9323,426.0343 Q1103.3131,426.1222 1103.6452,426.298 L1103.6452,427.8995 Q1103.2741,427.5577 1102.925,427.399 Q1102.5758,427.2404 1102.2047,427.2404 Q1101.4137,427.2404 1101.0109,427.8678 Q1100.6081,428.4952 1100.6081,429.7306 Q1100.6081,430.9611 1101.0109,431.5885 Q1101.4137,432.2159 1102.2047,432.2159 Q1102.5758,432.2159 1102.925,432.0572 Q1103.2741,431.8986 1103.6452,431.5568 Z " fill="#000000"/><text fill="#000000" font-family="sans-serif" font-size="10" lengthAdjust="spacing" textLength="129.7754" x="1119.8669" y="433.1476">ObfuscatedMeasureService</text><line style="stroke:#181818;stroke-width:0.5;" x1="1031.34" x2="1310.6691" y1="443.3683" y2="443.3683"/><line style="stroke:#181818;stroke-width:1;" x1="1031.34" x2="1310.6691" y1="451.3683" y2="451.3683"/><g data-visibility-modifier="PRIVATE_FIELD"><rect fill="none" height="6" style="stroke:#C82930;stroke-width:1;" width="6" x="1038.34" y="459.757"/></g><text fill="#000000" font-family="sans-serif" font-size="10" lengthAdjust="spacing" textLength="194.6094" x="1048.34" y="465.0363">msm: ObfuscatedStreamManagerService</text><g data-visibility-modifier="PRIVATE_FIELD"><rect fill="none" height="6" style="stroke:#C82930;stroke-width:1;" width="6" x="1038.34" y="471.5343"/></g><text fill="#000000" font-family="sans-serif" font-size="10" lengthAdjust="spacing" textLength="148.4863" x="1048.34" y="476.8136">measuresApi: MeasuresService</text><line style="stroke:#181818;stroke-width:1;" x1="1031.34" x2="1310.6691" y1="482.923" y2="482.923"/><g data-visibility-modifier="PUBLIC_METHOD"><ellipse cx="1041.34" cy="494.3116" fill="#84BE84" rx="3" ry="3" style="stroke:#038048;stroke-width:1;"/></g><text fill="#000000" font-family="sans-serif" font-size="10" lengthAdjust="spacing" textLength="246.9873" x="1048.34" y="496.5909">query(qp): Observable&lt;ObfuscatedQueryResPage&gt;</text><g data-visibility-modifier="PUBLIC_METHOD"><ellipse cx="1041.34" cy="506.089" fill="#84BE84" rx="3" ry="3" style="stroke:#038048;stroke-width:1;"/></g><text fill="#000000" font-family="sans-serif" font-size="10" lengthAdjust="spacing" textLength="257.3291" x="1048.34" y="508.3683">openStream(sp): Observable&lt;ObfuscatedEnvelope[]&gt;</text><g data-visibility-modifier="PUBLIC_METHOD"><ellipse cx="1041.34" cy="517.8663" fill="#84BE84" rx="3" ry="3" style="stroke:#038048;stroke-width:1;"/></g><text fill="#000000" font-family="sans-serif" font-size="10" lengthAdjust="spacing" textLength="91.8066" x="1048.34" y="520.1456">closeStream(): void</text></g><!--class ValMeasure--><g class="entity" data-qualified-name="Dashboard Feature.Services.ValMeasure" data-source-line="83" id="ent0010"><rect fill="#F1F1F1" height="122.6641" rx="2.5" ry="2.5" style="stroke:#181818;stroke-width:0.5;" width="350.8457" x="1319.58" y="409.4783"/><ellipse cx="1414.683" cy="423.4783" fill="#ADD1B2" rx="9" ry="9" style="stroke:#181818;stroke-width:1;"/><path d="M1415.9613,427.2683 Q1415.6196,427.4441 1415.2436,427.532 Q1414.8676,427.6199 1414.4526,427.6199 Q1412.9779,427.6199 1412.2016,426.6482 Q1411.4252,425.6765 1411.4252,423.8406 Q1411.4252,421.9998 1412.2016,421.0281 Q1412.9779,420.0564 1414.4526,420.0564 Q1414.8676,420.0564 1415.2485,420.1443 Q1415.6293,420.2322 1415.9613,420.408 L1415.9613,422.0095 Q1415.5903,421.6677 1415.2411,421.509 Q1414.892,421.3504 1414.5209,421.3504 Q1413.7299,421.3504 1413.3271,421.9778 Q1412.9242,422.6052 1412.9242,423.8406 Q1412.9242,425.0711 1413.3271,425.6985 Q1413.7299,426.3259 1414.5209,426.3259 Q1414.892,426.3259 1415.2411,426.1672 Q1415.5903,426.0086 1415.9613,425.6668 Z " fill="#000000"/><text fill="#000000" font-family="sans-serif" font-size="10" lengthAdjust="spacing" textLength="153.1396" x="1432.183" y="427.2576">ValidatedMeasureFacadeService</text><line style="stroke:#181818;stroke-width:0.5;" x1="1320.58" x2="1669.4257" y1="437.4783" y2="437.4783"/><line style="stroke:#181818;stroke-width:1;" x1="1320.58" x2="1669.4257" y1="445.4783" y2="445.4783"/><g data-visibility-modifier="PRIVATE_FIELD"><rect fill="none" height="6" style="stroke:#C82930;stroke-width:1;" width="6" x="1327.58" y="453.867"/></g><text fill="#000000" font-family="sans-serif" font-size="10" lengthAdjust="spacing" textLength="252.8955" x="1337.58" y="459.1463">decryptedMeasureService: DecryptedMeasureService</text><g data-visibility-modifier="PRIVATE_FIELD"><rect fill="none" height="6" style="stroke:#C82930;stroke-width:1;" width="6" x="1327.58" y="465.6443"/></g><text fill="#000000" font-family="sans-serif" font-size="10" lengthAdjust="spacing" textLength="326.8457" x="1337.58" y="470.9236">measureBoundsEvaluationService: MeasureBoundsEvaluationService</text><line style="stroke:#181818;stroke-width:1;" x1="1320.58" x2="1669.4257" y1="477.033" y2="477.033"/><g data-visibility-modifier="PUBLIC_METHOD"><ellipse cx="1330.58" cy="488.4216" fill="#84BE84" rx="3" ry="3" style="stroke:#038048;stroke-width:1;"/></g><text fill="#000000" font-family="sans-serif" font-size="10" lengthAdjust="spacing" textLength="256.499" x="1337.58" y="490.7009">query(params): Observable&lt;CheckedQueryResPage&gt;</text><g data-visibility-modifier="PUBLIC_METHOD"><ellipse cx="1330.58" cy="500.199" fill="#84BE84" rx="3" ry="3" style="stroke:#038048;stroke-width:1;"/></g><text fill="#000000" font-family="sans-serif" font-size="10" lengthAdjust="spacing" textLength="261.5332" x="1337.58" y="502.4783">openStream(params): Observable&lt;CheckedEnvelope&gt;</text><g data-visibility-modifier="PUBLIC_METHOD"><ellipse cx="1330.58" cy="511.9763" fill="#84BE84" rx="3" ry="3" style="stroke:#038048;stroke-width:1;"/></g><text fill="#000000" font-family="sans-serif" font-size="10" lengthAdjust="spacing" textLength="235.6445" x="1337.58" y="514.2556">export(params): Observable&lt;CheckedEnvelope&gt;</text><g data-visibility-modifier="PUBLIC_METHOD"><ellipse cx="1330.58" cy="523.7537" fill="#84BE84" rx="3" ry="3" style="stroke:#038048;stroke-width:1;"/></g><text fill="#000000" font-family="sans-serif" font-size="10" lengthAdjust="spacing" textLength="91.8066" x="1337.58" y="526.033">closeStream(): void</text></g><g class="entity" data-qualified-name="GMN24" data-source-line="113" id="ent0025"><path d="M685.66,43.4883 L685.66,112.375 A0,0 0 0 0 685.66,112.375 L803,112.375 L807,157.9483 L811,112.375 L928.3495,112.375 A0,0 0 0 0 928.3495,112.375 L928.3495,53.4883 L918.3495,43.4883 L685.66,43.4883 A0,0 0 0 0 685.66,43.4883" fill="#FEFFDD" style="stroke:#181818;stroke-width:0.5;"/><path d="M918.3495,43.4883 L918.3495,53.4883 L928.3495,53.4883 L918.3495,43.4883" fill="#FEFFDD" style="stroke:#181818;stroke-width:0.5;"/><text fill="#000000" font-family="sans-serif" font-size="10" lengthAdjust="spacing" textLength="174.5117" x="691.66" y="58.1563">Main dashboard page. Resolver sets</text><text fill="#000000" font-family="sans-serif" font-size="10" lengthAdjust="spacing" textLength="204.1846" x="691.66" y="69.9336">dataMode based on impersonation status.</text><text fill="#000000" font-family="sans-serif" font-size="10" lengthAdjust="spacing" textLength="198.042" x="691.66" y="81.7109">Stream mode: real-time SSE, 20-row cap</text><text fill="#000000" font-family="sans-serif" font-size="10" lengthAdjust="spacing" textLength="221.6895" x="691.66" y="93.4883">Query mode: paginated with cursor, 24h limit</text><text fill="#000000" font-family="sans-serif" font-size="10" lengthAdjust="spacing" textLength="178.6035" x="691.66" y="105.2656">Export: disabled in obfuscated mode</text></g><g class="entity" data-qualified-name="GMN27" data-source-line="121" id="ent0028"><path d="M1816.23,430.4783 L1816.23,511.1423 L2017.7622,511.1423 L2017.7622,440.4783 L2007.7622,430.4783 L1816.23,430.4783" fill="#FEFFDD" style="stroke:#181818;stroke-width:0.5;"/><path d="M2007.7622,430.4783 L2007.7622,440.4783 L2017.7622,440.4783 L2007.7622,430.4783" fill="#FEFFDD" style="stroke:#181818;stroke-width:1;"/><text fill="#000000" font-family="sans-serif" font-size="10" lengthAdjust="spacing" textLength="177.1973" x="1822.23" y="445.1463">Multi-select dropdowns with search.</text><text fill="#000000" font-family="sans-serif" font-size="10" lengthAdjust="spacing" textLength="163.3643" x="1822.23" y="456.9236">Cross-filter dependency: gateway</text><text fill="#000000" font-family="sans-serif" font-size="10" lengthAdjust="spacing" textLength="167.0947" x="1822.23" y="468.7009">selection updates sensor catalogs.</text><text fill="#000000" font-family="sans-serif" font-size="10" lengthAdjust="spacing" textLength="148.0615" x="1822.23" y="480.4783">24h time window enforcement</text><text fill="#000000" font-family="sans-serif" font-size="10" lengthAdjust="spacing" textLength="122.7539" x="1822.23" y="492.2556">with automatic clamping.</text><text fill="#000000" font-family="sans-serif" font-size="10" lengthAdjust="spacing" textLength="180.5322" x="1822.23" y="504.033">Rome timezone datetime conversion.</text></g><g class="entity" data-qualified-name="GMN30" data-source-line="130" id="ent0031"><path d="M2025.84,436.3683 L2025.84,505.255 L2236.1613,505.255 L2236.1613,446.3683 L2226.1613,436.3683 L2025.84,436.3683" fill="#FEFFDD" style="stroke:#181818;stroke-width:0.5;"/><path d="M2226.1613,436.3683 L2226.1613,446.3683 L2236.1613,446.3683 L2226.1613,436.3683" fill="#FEFFDD" style="stroke:#181818;stroke-width:1;"/><text fill="#000000" font-family="sans-serif" font-size="10" lengthAdjust="spacing" textLength="170" x="2031.84" y="451.0363">Chart.js line chart. One dataset per</text><text fill="#000000" font-family="sans-serif" font-size="10" lengthAdjust="spacing" textLength="125.7764" x="2031.84" y="462.8136">sensor with distinct color.</text><text fill="#000000" font-family="sans-serif" font-size="10" lengthAdjust="spacing" textLength="147.7686" x="2031.84" y="474.5909">Cap at 120 points per dataset.</text><text fill="#000000" font-family="sans-serif" font-size="10" lengthAdjust="spacing" textLength="173.5596" x="2031.84" y="486.3683">Italian locale timestamp formatting.</text><text fill="#000000" font-family="sans-serif" font-size="10" lengthAdjust="spacing" textLength="189.3213" x="2031.84" y="498.1456">Responsive update via Angular effect().</text></g><g class="entity" data-qualified-name="GMN33" data-source-line="138" id="ent0034"><path d="M1815.93,578.8083 L1815.93,647.695 L2018.0677,647.695 L2018.0677,588.8083 L2008.0677,578.8083 L1815.93,578.8083" fill="#FEFFDD" style="stroke:#181818;stroke-width:0.5;"/><path d="M2008.0677,578.8083 L2008.0677,588.8083 L2018.0677,588.8083 L2008.0677,578.8083" fill="#FEFFDD" style="stroke:#181818;stroke-width:1;"/><text fill="#000000" font-family="sans-serif" font-size="10" lengthAdjust="spacing" textLength="180.8789" x="1821.93" y="593.4763">Facade that wraps DecryptedMeasure</text><text fill="#000000" font-family="sans-serif" font-size="10" lengthAdjust="spacing" textLength="176.6016" x="1821.93" y="605.2536">and adds isOutOfBounds evaluation.</text><text fill="#000000" font-family="sans-serif" font-size="10" lengthAdjust="spacing" textLength="173.5645" x="1821.93" y="617.0309">Transforms DecryptedEnvelope into</text><text fill="#000000" font-family="sans-serif" font-size="10" lengthAdjust="spacing" textLength="181.1377" x="1821.93" y="628.8083">CheckedEnvelope by evaluating value</text><text fill="#000000" font-family="sans-serif" font-size="10" lengthAdjust="spacing" textLength="129.8828" x="1821.93" y="640.5856">against cached thresholds.</text></g><!--link DashboardPage to FilterPanel--><g class="link" data-entity-1="ent0003" data-entity-2="ent0004" data-link-type="dependency" data-source-line="96" id="lnk11"><path codeLine="96" d="M752.21,363.8983 C752.21,385.3383 752.21,401.5883 752.21,401.5883 C752.21,401.5883 687.52,401.5883 614.07,401.5883" fill="none" id="DashboardPage-to-FilterPanel" style="stroke:#181818;stroke-width:1;"/><polygon fill="#181818" points="608.07,401.5883,617.07,405.5883,613.07,401.5883,617.07,397.5883,608.07,401.5883" style="stroke:#181818;stroke-width:1;"/></g><!--link DashboardPage to TelemetryChart--><g class="link" data-entity-1="ent0003" data-entity-2="ent0005" data-link-type="dependency" data-source-line="97" id="lnk12"><path codeLine="97" d="M697.03,260.5883 C510,260.5883 150,260.5883 150,260.5883 C150,260.5883 150,346.7483 150,409.0283" fill="none" id="DashboardPage-to-TelemetryChart" style="stroke:#181818;stroke-width:1;"/><polygon fill="#181818" points="150,415.0283,154,406.0283,150,410.0283,146,406.0283,150,415.0283" style="stroke:#181818;stroke-width:1;"/></g><!--link DashboardPage to TelemetryTable--><g class="link" data-entity-1="ent0003" data-entity-2="ent0006" data-link-type="dependency" data-source-line="98" id="lnk13"><path codeLine="98" d="M807,363.7183 C807,385.9483 807,402.2983 807,420.7983" fill="none" id="DashboardPage-to-TelemetryTable" style="stroke:#181818;stroke-width:1;"/><polygon fill="#181818" points="807,426.7983,811,417.7983,807,421.7983,803,417.7983,807,426.7983" style="stroke:#181818;stroke-width:1;"/></g><!--link DashboardPage to ObfMeasure--><g class="link" data-entity-1="ent0003" data-entity-2="ent0009" data-link-type="dependency" data-source-line="99" id="lnk14"><path codeLine="99" d="M861.79,363.5883 C861.79,395.0783 861.79,421.5883 861.79,421.5883 C861.79,421.5883 942.41,421.5883 1023.97,421.5883" fill="none" id="DashboardPage-to-ObfMeasure" style="stroke:#181818;stroke-width:1;"/><polygon fill="#181818" points="1029.97,421.5883,1020.97,417.5883,1024.97,421.5883,1020.97,425.5883,1029.97,421.5883" style="stroke:#181818;stroke-width:1;"/></g><!--link DashboardPage to ValMeasure--><g class="link" data-entity-1="ent0003" data-entity-2="ent0010" data-link-type="dependency" data-source-line="100" id="lnk15"><path codeLine="100" d="M916.78,260.5883 C1111.02,260.5883 1495,260.5883 1495,260.5883 C1495,260.5883 1495,341.1283 1495,403.1583" fill="none" id="DashboardPage-to-ValMeasure" style="stroke:#181818;stroke-width:1;"/><polygon fill="#181818" points="1495,409.1583,1499,400.1583,1495,404.1583,1491,400.1583,1495,409.1583" style="stroke:#181818;stroke-width:1;"/></g><!--link ValMeasure to DecMeasure--><g class="link" data-entity-1="ent0010" data-entity-2="ent0008" data-link-type="dependency" data-source-line="102" id="lnk16"><path codeLine="102" d="M1495,532.4583 C1495,538.7783 1495,539.1983 1495,545.5183" fill="none" id="ValMeasure-to-DecMeasure" style="stroke:#181818;stroke-width:1;"/><polygon fill="#181818" points="1495,551.5183,1499,542.5183,1495,546.5183,1491,542.5183,1495,551.5183" style="stroke:#181818;stroke-width:1;"/></g><!--link ValMeasure to BoundsEval--><g class="link" data-entity-1="ent0010" data-entity-2="ent0017" data-link-type="dependency" data-source-line="103" id="lnk18"><path codeLine="103" d="M1651.28,532.6083 C1651.28,571.1883 1651.28,613.5883 1651.28,613.5883 C1651.28,613.5883 1670.97,613.5883 1695.16,613.5883" fill="none" id="ValMeasure-to-BoundsEval" style="stroke:#181818;stroke-width:1;"/><polygon fill="#181818" points="1701.16,613.5883,1692.16,609.5883,1696.16,613.5883,1692.16,617.5883,1701.16,613.5883" style="stroke:#181818;stroke-width:1;"/><text fill="#000000" font-family="sans-serif" font-size="10" lengthAdjust="spacing" textLength="194.7314" x="1652.28" y="595.7063">injects MeasureBoundsEvaluationService</text></g><!--link FilterPanel to RomeDatePipe--><g class="link" data-entity-1="ent0004" data-entity-2="ent0019" data-link-type="dependency" data-source-line="105" id="lnk20"><path codeLine="105" d="M592.3,544.1183 C592.3,561.1683 592.3,572.0483 592.3,584.8583" fill="none" id="FilterPanel-to-RomeDatePipe" style="stroke:#181818;stroke-width:1;"/><polygon fill="#181818" points="592.3,590.8583,596.3,581.8583,592.3,585.8583,588.3,581.8583,592.3,590.8583" style="stroke:#181818;stroke-width:1;"/><text fill="#000000" font-family="sans-serif" font-size="10" lengthAdjust="spacing" textLength="109.0283" x="463.2756" y="578.1563">toRomeDateTimeInput</text><text fill="#000000" font-family="sans-serif" font-size="10" lengthAdjust="spacing" textLength="148.9795" x="443.3" y="589.9336">fromRomeDateTimeInputToIso</text></g><!--link TelemetryChart to ChartJs--><g class="link" data-entity-1="ent0005" data-entity-2="ent0021" data-link-type="dependency" data-source-line="107" id="lnk22"><path codeLine="107" d="M150,526.6983 C150,549.1483 150,567.7283 150,584.9383" fill="none" id="TelemetryChart-to-ChartJs" style="stroke:#181818;stroke-width:1;"/><polygon fill="#181818" points="150,590.9383,154,581.9383,150,585.9383,146,581.9383,150,590.9383" style="stroke:#181818;stroke-width:1;"/></g><!--link TelemetryTable to RomeDatePipe--><g class="link" data-entity-1="ent0006" data-entity-2="ent0019" data-link-type="dependency" data-source-line="108" id="lnk23"><path codeLine="108" d="M645.41,514.7183 C645.41,539.8883 645.41,564.4383 645.41,584.7783" fill="none" id="TelemetryTable-to-RomeDatePipe" style="stroke:#181818;stroke-width:1;"/><polygon fill="#181818" points="645.41,590.7783,649.41,581.7783,645.41,585.7783,641.41,581.7783,645.41,590.7783" style="stroke:#181818;stroke-width:1;"/></g><!--link FilterPanel to GMN27--><g class="link" data-entity-1="ent0004" data-entity-2="ent0028" data-link-type="association" data-source-line="121" id="lnk29"><path d="M607.98,405.5883 C990.33,405.5883 1917,405.5883 1917,405.5883 C1917,405.5883 1917,416.9783 1917,430.2483" fill="none" id="FilterPanel-GMN27" style="stroke:#181818;stroke-width:1;stroke-dasharray:7,7;"/></g><!--link GMN30 to TelemetryChart--><g class="link" data-entity-1="ent0031" data-entity-2="ent0005" data-link-type="association" data-source-line="130" id="lnk32"><path d="M2131,505.6083 C2131,525.9183 2131,547.5883 2131,547.5883 C2131,547.5883 228.96,547.5883 228.96,547.5883 C228.96,547.5883 228.96,538.5183 228.96,526.6083" fill="none" id="GMN30-TelemetryChart" style="stroke:#181818;stroke-width:1;stroke-dasharray:7,7;"/></g><!--link ValMeasure to GMN33--><g class="link" data-entity-1="ent0010" data-entity-2="ent0034" data-link-type="association" data-source-line="138" id="lnk35"><path d="M1660.85,532.3683 C1660.85,559.1683 1660.85,584.5883 1660.85,584.5883 C1660.85,584.5883 1744.16,584.5883 1815.76,584.5883" fill="none" id="ValMeasure-GMN33" style="stroke:#181818;stroke-width:1;stroke-dasharray:7,7;"/></g><?plantuml-src dLTBZzis4BxxLmpImpfelDWKFHI6OS1rTm4Ns7YxDj93smCjZIrcALBXK7QSfF-zGrAI9QsTHttOjJdVa3FVF3XqqYc4DylruW7khD4ETGeZ-4rGjZ72fZ2pIIOT9gwqE1ZGazI5i2A7ZKYUTjQKEfqRPIpyS1S-BKIAMr4gTyURhkH7XDStvuML_atuj23Qf4XOm2-jDIlqKtzDIOtkM20Owp8p60mADati45wSlBX3uHru0PF98_iYz4xXT0gV1W294aGUwqI3Vs3rkSaBer6x5o08EgAW1p0QXNy_fgnwpyQEOILtMgZ9LQ9Gs2lu35Tcioqf4GxJgsb4YyJ9FRwLU3ZXoLaKUL1uNw8zrjWTAnx4SLauQJGrU8PBlVlhdmf5gCdODLFmJS2lW2JTVYYOIbvh81jZs2CzxRYjTqkzqD8DNuvXRsGQLus-aygXfLbHA8dfS1j_dWVDFL4CwaW9tQmXQRZdFptbQE0VdYcl-M1DBWad7ZAjCM_mGqJuW7Ns7wNce9KHwOpcj1zQSsWPz-_Wb1BHnWUXKNMJeINefK9aUCu9eGpJjz15wIeEcmnQjJ6tsjbZAq2AinFJYfs6_tik5RaAmfNZdAZW8LUuQlD7SUY5iurOcqloscp1iJfMXmvnptvs60_fN8ixLABU6flWlVWGkFvJQYQt2z76va9n0uZsS-eDoVl0eBvRFVxNBCcH-Pbdmhfk2BgoRXH6YLzRQ3v69roL4V8Pk5VXbfj5vLMf9TCppp1vmYeeYvGvzmUL78HUOLIRJoO95u-pPUACvHOoB0a9SBjb9rv6e3FXHDzHwkpw14fiKD4hyCs24vpOqm3UUdhSMkR8vkR5S2zKwRc9XrzYP2qs2Yym4cIzlCnH4FS_wgRap5fnd5GCtEezAiDjz3CicwPLBqwx-HADVkjDzHwspMKfhyozlNrHyEHCSrwXtSi4ARXH_wWSgBip9lPOi47tqP4A5Lip9jLgfTFOoLyeVUA8UbspIf_grTY3Lw7hpZR69nVNeL4AxHXw2yo7BfNgxnnBQnYk81_XvORO9a_z99J28vBlFDCQpYJgUE1PdSR1Xl5Q4KEp-qwbH1cg_EjKOmX1m-efpcTePU5bMdFAnwqqYIVT2yqUssgJ1bgbtgoGNF7LZnwcH-hxekldwQ2lKKiNDMkAwdB-Pf8uosNQukXE92BjCCM8oqobvpDt31TIkaVRhtx2eblV5OJldOtw_HVbtv6jLVd_dwJjTOvlITbBAfTZKSNZ2XvH1HSfamNnIdSa6uscxNlvhBnxQNmP4hheMSYfCCwAJzdWpMxbXXUUUjLpsIcKC0Qft_65GbyBC-_I7aRyDeycHxvwy45oBn-3C_M2lsD2z_zRR_tCq5zUcmKPlsFlRlMRXc-_KriOhvd-YOC1HqiRXtnm0MRR9OZrxuNKV0dMlR_WrMiEBHcrvrxhRqO6rHCrlp88Kp0QP5xmy65qy1xy057IDIDZoa0Unc_-gaQE_O7LwlOL_7GpuXi84b4mCEHtXUD3fVOb3GVfCaXAtjao_kUC7nEvz9aHHymnf9Aydoa714wpVDXdu9zAtjNAOIjtcVCkTzCm33cZEDb1QatXnq-A9nFFLKdc_PXRGpIAip8_ZhZkKjJ9SGpL4u0XLCzFK1Q-8H74QPCT3ADauCFx41WuX54CgW4jvoc1fU5GKJh3jxTCV8VB2xwRlQ8FOj3yo2E53m26RNZOuRWGdthTzrVXDhZxhAh2_-jt55vc48QnQrZ6NVti0npAu4-mFjZ4DFE3WmbA_6Cm428A40vU_tG3XP6QIw7mpCGTF631JakXGPb4g6XwcA0W3YUkzWk9XoJYwxwY3VPIm4plIYLiDRSDNpvpRcCSi-JTQzKp5rje_k0oDkrWHK7FsZY316ybqfH0qh9qosqiNi2cUhrTQtxAaZUrjKKpWh6_9X3PdSmsnsOJlOCmAVhZTbnInDI99EFKT1dVhvbHARMS-Wy0?></g></svg>