<?plantuml 1.2026.2?><svg xmlns="http://www.w3.org/2000/svg" xmlns:xlink="http://www.w3.org/1999/xlink" contentStyleType="text/css" data-diagram-type="CLASS" height="720px" preserveAspectRatio="none" style="width:1806px;height:720px;background:#FFFFFF;" version="1.1" viewBox="0 0 1806 720" width="1806px" zoomAndPan="magnify"><title>NOTIP Frontend - Dashboard Architecture</title><defs/><g><g class="title" data-source-line="1"><text fill="#000000" font-family="sans-serif" font-size="14" font-weight="bold" lengthAdjust="spacing" textLength="304.623" x="744.0034" y="23.5352">NOTIP Frontend - Dashboard Architecture</text></g><!--cluster Dashboard Feature--><g class="cluster" data-qualified-name="Dashboard Feature" data-source-line="10" id="ent0002"><rect fill="none" height="586.21" rx="2.5" ry="2.5" style="stroke:#181818;stroke-width:1;" width="1370" x="7" y="128.3783"/><text fill="#000000" font-family="sans-serif" font-size="10" font-weight="bold" lengthAdjust="spacing" textLength="97.8955" x="643.0522" y="140.0463">Dashboard Feature</text></g><!--cluster Services--><g class="cluster" data-qualified-name="Dashboard Feature.Services" data-source-line="62" id="ent0007"><path d="M651.5,367.7083 L754.0283,367.7083 A3.75,3.75 0 0 1 756.5283,370.2083 L763.5283,385.4856 L1260.5,385.4856 A2.5,2.5 0 0 1 1263,387.9856 L1263,688.0883 A2.5,2.5 0 0 1 1260.5,690.5883 L651.5,690.5883 A2.5,2.5 0 0 1 649,688.0883 L649,370.2083 A2.5,2.5 0 0 1 651.5,367.7083" fill="none" style="stroke:#000000;stroke-width:1.5;"/><line style="stroke:#000000;stroke-width:1.5;" x1="649" x2="763.5283" y1="385.4856" y2="385.4856"/><text fill="#000000" font-family="sans-serif" font-size="10" font-weight="bold" lengthAdjust="spacing" textLength="101.5283" x="653" y="379.3763">Dashboard Services</text></g><!--class DashboardPage--><g class="entity" data-qualified-name="Dashboard Feature.DashboardPage" data-source-line="11" id="ent0003"><rect fill="#F1F1F1" height="193.3281" rx="2.5" ry="2.5" style="stroke:#181818;stroke-width:0.5;" width="191.915" x="502.04" y="158.3783"/><ellipse cx="519.344" cy="172.3783" fill="#ADD1B2" rx="9" ry="9" style="stroke:#181818;stroke-width:1;"/><path d="M520.6223,176.1683 Q520.2805,176.3441 519.9046,176.432 Q519.5286,176.5199 519.1135,176.5199 Q517.6389,176.5199 516.8626,175.5482 Q516.0862,174.5765 516.0862,172.7406 Q516.0862,170.8998 516.8626,169.9281 Q517.6389,168.9564 519.1135,168.9564 Q519.5286,168.9564 519.9094,169.0443 Q520.2903,169.1322 520.6223,169.308 L520.6223,170.9095 Q520.2512,170.5677 519.9021,170.409 Q519.553,170.2504 519.1819,170.2504 Q518.3909,170.2504 517.988,170.8778 Q517.5852,171.5052 517.5852,172.7406 Q517.5852,173.9711 517.988,174.5985 Q518.3909,175.2259 519.1819,175.2259 Q519.553,175.2259 519.9021,175.0672 Q520.2512,174.9086 520.6223,174.5668 Z " fill="#000000"/><text fill="#000000" font-family="sans-serif" font-size="10" lengthAdjust="spacing" textLength="154.3506" x="532.3004" y="176.1576">DataDashboardPageComponent</text><line style="stroke:#181818;stroke-width:0.5;" x1="503.04" x2="692.955" y1="186.3783" y2="186.3783"/><line style="stroke:#181818;stroke-width:1;" x1="503.04" x2="692.955" y1="194.3783" y2="194.3783"/><g data-visibility-modifier="PRIVATE_FIELD"><rect fill="none" height="6" style="stroke:#C82930;stroke-width:1;" width="6" x="510.04" y="202.767"/></g><text fill="#000000" font-family="sans-serif" font-size="10" lengthAdjust="spacing" textLength="150.1172" x="520.04" y="208.0463">dataMode: 'clear' | 'obfuscated'</text><g data-visibility-modifier="PRIVATE_FIELD"><rect fill="none" height="6" style="stroke:#C82930;stroke-width:1;" width="6" x="510.04" y="214.5443"/></g><text fill="#000000" font-family="sans-serif" font-size="10" lengthAdjust="spacing" textLength="134.2627" x="520.04" y="219.8236">viewMode: 'stream' | 'query'</text><g data-visibility-modifier="PRIVATE_FIELD"><rect fill="none" height="6" style="stroke:#C82930;stroke-width:1;" width="6" x="510.04" y="226.3216"/></g><text fill="#000000" font-family="sans-serif" font-size="10" lengthAdjust="spacing" textLength="151.8164" x="520.04" y="231.6009">gatewayOptions: SelectOption[]</text><g data-visibility-modifier="PRIVATE_FIELD"><rect fill="none" height="6" style="stroke:#C82930;stroke-width:1;" width="6" x="510.04" y="238.099"/></g><text fill="#000000" font-family="sans-serif" font-size="10" lengthAdjust="spacing" textLength="167.915" x="520.04" y="243.3783">sensorTypeOptions: SelectOption[]</text><g data-visibility-modifier="PRIVATE_FIELD"><rect fill="none" height="6" style="stroke:#C82930;stroke-width:1;" width="6" x="510.04" y="249.8763"/></g><text fill="#000000" font-family="sans-serif" font-size="10" lengthAdjust="spacing" textLength="153.6768" x="520.04" y="255.1556">sensorIdOptions: SelectOption[]</text><g data-visibility-modifier="PRIVATE_FIELD"><rect fill="none" height="6" style="stroke:#C82930;stroke-width:1;" width="6" x="510.04" y="261.6537"/></g><text fill="#000000" font-family="sans-serif" font-size="10" lengthAdjust="spacing" textLength="99.3506" x="520.04" y="266.933">exportBusy: boolean</text><line style="stroke:#181818;stroke-width:1;" x1="503.04" x2="692.955" y1="273.0423" y2="273.0423"/><g data-visibility-modifier="PUBLIC_METHOD"><ellipse cx="513.04" cy="284.431" fill="#84BE84" rx="3" ry="3" style="stroke:#038048;stroke-width:1;"/></g><text fill="#000000" font-family="sans-serif" font-size="10" lengthAdjust="spacing" textLength="75.4688" x="520.04" y="286.7103">ngOnInit(): void</text><g data-visibility-modifier="PUBLIC_METHOD"><ellipse cx="513.04" cy="296.2084" fill="#84BE84" rx="3" ry="3" style="stroke:#038048;stroke-width:1;"/></g><text fill="#000000" font-family="sans-serif" font-size="10" lengthAdjust="spacing" textLength="125.0684" x="520.04" y="298.4877">applyFilters(params): void</text><g data-visibility-modifier="PUBLIC_METHOD"><ellipse cx="513.04" cy="307.9857" fill="#84BE84" rx="3" ry="3" style="stroke:#038048;stroke-width:1;"/></g><text fill="#000000" font-family="sans-serif" font-size="10" lengthAdjust="spacing" textLength="86.1768" x="520.04" y="310.265">clearFilters(): void</text><g data-visibility-modifier="PUBLIC_METHOD"><ellipse cx="513.04" cy="319.763" fill="#84BE84" rx="3" ry="3" style="stroke:#038048;stroke-width:1;"/></g><text fill="#000000" font-family="sans-serif" font-size="10" lengthAdjust="spacing" textLength="140.7666" x="520.04" y="322.0423">switchViewMode(mode): void</text><g data-visibility-modifier="PUBLIC_METHOD"><ellipse cx="513.04" cy="331.5404" fill="#84BE84" rx="3" ry="3" style="stroke:#038048;stroke-width:1;"/></g><text fill="#000000" font-family="sans-serif" font-size="10" lengthAdjust="spacing" textLength="97.8467" x="520.04" y="333.8197">handleExport(): void</text><g data-visibility-modifier="PUBLIC_METHOD"><ellipse cx="513.04" cy="343.3177" fill="#84BE84" rx="3" ry="3" style="stroke:#038048;stroke-width:1;"/></g><text fill="#000000" font-family="sans-serif" font-size="10" lengthAdjust="spacing" textLength="99.873" x="520.04" y="345.597">loadNextPage(): void</text></g><!--class FilterPanel--><g class="entity" data-qualified-name="Dashboard Feature.FilterPanel" data-source-line="28" id="ent0004"><rect fill="#F1F1F1" height="169.7734" rx="2.5" ry="2.5" style="stroke:#181818;stroke-width:0.5;" width="204.7324" x="249.63" y="374.1483"/><ellipse cx="294.8356" cy="388.1483" fill="#ADD1B2" rx="9" ry="9" style="stroke:#181818;stroke-width:1;"/><path d="M296.1139,391.9383 Q295.7721,392.1141 295.3961,392.202 Q295.0201,392.2899 294.6051,392.2899 Q293.1305,392.2899 292.3541,391.3182 Q291.5778,390.3465 291.5778,388.5106 Q291.5778,386.6698 292.3541,385.6981 Q293.1305,384.7264 294.6051,384.7264 Q295.0201,384.7264 295.401,384.8143 Q295.7819,384.9022 296.1139,385.078 L296.1139,386.6795 Q295.7428,386.3377 295.3937,386.179 Q295.0446,386.0204 294.6735,386.0204 Q293.8824,386.0204 293.4796,386.6478 Q293.0768,387.2752 293.0768,388.5106 Q293.0768,389.7411 293.4796,390.3685 Q293.8824,390.9959 294.6735,390.9959 Q295.0446,390.9959 295.3937,390.8372 Q295.7428,390.6786 296.1139,390.3368 Z " fill="#000000"/><text fill="#000000" font-family="sans-serif" font-size="10" lengthAdjust="spacing" textLength="106.8213" x="312.3356" y="391.9276">FilterPanelComponent</text><line style="stroke:#181818;stroke-width:0.5;" x1="250.63" x2="453.3624" y1="402.1483" y2="402.1483"/><line style="stroke:#181818;stroke-width:1;" x1="250.63" x2="453.3624" y1="410.1483" y2="410.1483"/><g data-visibility-modifier="PRIVATE_FIELD"><rect fill="none" height="6" style="stroke:#C82930;stroke-width:1;" width="6" x="257.63" y="418.537"/></g><text fill="#000000" font-family="sans-serif" font-size="10" lengthAdjust="spacing" textLength="103.0225" x="267.63" y="423.8163">catalog: FilterCatalog</text><g data-visibility-modifier="PRIVATE_FIELD"><rect fill="none" height="6" style="stroke:#C82930;stroke-width:1;" width="6" x="257.63" y="430.3143"/></g><text fill="#000000" font-family="sans-serif" font-size="10" lengthAdjust="spacing" textLength="94.8877" x="267.63" y="435.5936">gatewayIds: string[]</text><g data-visibility-modifier="PRIVATE_FIELD"><rect fill="none" height="6" style="stroke:#C82930;stroke-width:1;" width="6" x="257.63" y="442.0916"/></g><text fill="#000000" font-family="sans-serif" font-size="10" lengthAdjust="spacing" textLength="101.8115" x="267.63" y="447.3709">sensorTypes: string[]</text><g data-visibility-modifier="PRIVATE_FIELD"><rect fill="none" height="6" style="stroke:#C82930;stroke-width:1;" width="6" x="257.63" y="453.869"/></g><text fill="#000000" font-family="sans-serif" font-size="10" lengthAdjust="spacing" textLength="87.5732" x="267.63" y="459.1483">sensorIds: string[]</text><g data-visibility-modifier="PRIVATE_FIELD"><rect fill="none" height="6" style="stroke:#C82930;stroke-width:1;" width="6" x="257.63" y="465.6463"/></g><text fill="#000000" font-family="sans-serif" font-size="10" lengthAdjust="spacing" textLength="57.8369" x="267.63" y="470.9256">from: string</text><g data-visibility-modifier="PRIVATE_FIELD"><rect fill="none" height="6" style="stroke:#C82930;stroke-width:1;" width="6" x="257.63" y="477.4237"/></g><text fill="#000000" font-family="sans-serif" font-size="10" lengthAdjust="spacing" textLength="44.4727" x="267.63" y="482.703">to: string</text><line style="stroke:#181818;stroke-width:1;" x1="250.63" x2="453.3624" y1="488.8123" y2="488.8123"/><g data-visibility-modifier="PUBLIC_METHOD"><ellipse cx="260.63" cy="500.201" fill="#84BE84" rx="3" ry="3" style="stroke:#038048;stroke-width:1;"/></g><text fill="#000000" font-family="sans-serif" font-size="10" lengthAdjust="spacing" textLength="89.2041" x="267.63" y="502.4803">applyFilters(): void</text><g data-visibility-modifier="PUBLIC_METHOD"><ellipse cx="260.63" cy="511.9784" fill="#84BE84" rx="3" ry="3" style="stroke:#038048;stroke-width:1;"/></g><text fill="#000000" font-family="sans-serif" font-size="10" lengthAdjust="spacing" textLength="86.1768" x="267.63" y="514.2577">clearFilters(): void</text><g data-visibility-modifier="PRIVATE_METHOD"><rect fill="#F24D5C" height="6" style="stroke:#C82930;stroke-width:1;" width="6" x="257.63" y="520.7557"/></g><text fill="#000000" font-family="sans-serif" font-size="10" lengthAdjust="spacing" textLength="124.4141" x="267.63" y="526.035">clampTimeWindow(): void</text><g data-visibility-modifier="PRIVATE_METHOD"><rect fill="#F24D5C" height="6" style="stroke:#C82930;stroke-width:1;" width="6" x="257.63" y="532.533"/></g><text fill="#000000" font-family="sans-serif" font-size="10" lengthAdjust="spacing" textLength="180.7324" x="267.63" y="537.8123">removeIncompatibleSelections(): void</text></g><!--class TelemetryChart--><g class="entity" data-qualified-name="Dashboard Feature.TelemetryChart" data-source-line="43" id="ent0005"><rect fill="#F1F1F1" height="122.6641" rx="2.5" ry="2.5" style="stroke:#181818;stroke-width:0.5;" width="218.9658" x="22.52" y="397.7083"/><ellipse cx="62.5742" cy="411.7083" fill="#ADD1B2" rx="9" ry="9" style="stroke:#181818;stroke-width:1;"/><path d="M63.8525,415.4983 Q63.5107,415.6741 63.1347,415.762 Q62.7588,415.8499 62.3437,415.8499 Q60.8691,415.8499 60.0928,414.8782 Q59.3164,413.9065 59.3164,412.0706 Q59.3164,410.2298 60.0928,409.2581 Q60.8691,408.2864 62.3437,408.2864 Q62.7588,408.2864 63.1396,408.3743 Q63.5205,408.4622 63.8525,408.638 L63.8525,410.2395 Q63.4814,409.8977 63.1323,409.739 Q62.7832,409.5804 62.4121,409.5804 Q61.6211,409.5804 61.2182,410.2078 Q60.8154,410.8352 60.8154,412.0706 Q60.8154,413.3011 61.2182,413.9285 Q61.6211,414.5559 62.4121,414.5559 Q62.7832,414.5559 63.1323,414.3972 Q63.4814,414.2386 63.8525,413.8968 Z " fill="#000000"/><text fill="#000000" font-family="sans-serif" font-size="10" lengthAdjust="spacing" textLength="131.3574" x="80.0742" y="415.4876">TelemetryChartComponent</text><line style="stroke:#181818;stroke-width:0.5;" x1="23.52" x2="240.4858" y1="425.7083" y2="425.7083"/><line style="stroke:#181818;stroke-width:1;" x1="23.52" x2="240.4858" y1="433.7083" y2="433.7083"/><g data-visibility-modifier="PRIVATE_FIELD"><rect fill="none" height="6" style="stroke:#C82930;stroke-width:1;" width="6" x="30.52" y="442.097"/></g><text fill="#000000" font-family="sans-serif" font-size="10" lengthAdjust="spacing" textLength="95.5273" x="40.52" y="447.3763">chart: Chart&lt;'line'&gt;</text><g data-visibility-modifier="PRIVATE_FIELD"><rect fill="none" height="6" style="stroke:#C82930;stroke-width:1;" width="6" x="30.52" y="453.8743"/></g><text fill="#000000" font-family="sans-serif" font-size="10" lengthAdjust="spacing" textLength="116.582" x="40.52" y="459.1536">datasets: ChartDataset[]</text><line style="stroke:#181818;stroke-width:1;" x1="23.52" x2="240.4858" y1="465.263" y2="465.263"/><g data-visibility-modifier="PUBLIC_METHOD"><ellipse cx="33.52" cy="476.6516" fill="#84BE84" rx="3" ry="3" style="stroke:#038048;stroke-width:1;"/></g><text fill="#000000" font-family="sans-serif" font-size="10" lengthAdjust="spacing" textLength="101.5088" x="40.52" y="478.9309">ngOnChanges(): void</text><g data-visibility-modifier="PRIVATE_METHOD"><rect fill="#F24D5C" height="6" style="stroke:#C82930;stroke-width:1;" width="6" x="30.52" y="485.429"/></g><text fill="#000000" font-family="sans-serif" font-size="10" lengthAdjust="spacing" textLength="194.9658" x="40.52" y="490.7083">computeUniqueSensorIds(): Set&lt;string&gt;</text><g data-visibility-modifier="PRIVATE_METHOD"><rect fill="#F24D5C" height="6" style="stroke:#C82930;stroke-width:1;" width="6" x="30.52" y="497.2063"/></g><text fill="#000000" font-family="sans-serif" font-size="10" lengthAdjust="spacing" textLength="173.916" x="40.52" y="502.4856">createDatasets(measures): Dataset[]</text><g data-visibility-modifier="PRIVATE_METHOD"><rect fill="#F24D5C" height="6" style="stroke:#C82930;stroke-width:1;" width="6" x="30.52" y="508.9837"/></g><text fill="#000000" font-family="sans-serif" font-size="10" lengthAdjust="spacing" textLength="136.5527" x="40.52" y="514.263">formatTimestamp(ts): string</text></g><!--class TelemetryTable--><g class="entity" data-qualified-name="Dashboard Feature.TelemetryTable" data-source-line="54" id="ent0006"><rect fill="#F1F1F1" height="87.332" rx="2.5" ry="2.5" style="stroke:#181818;stroke-width:0.5;" width="170.377" x="462.81" y="415.3683"/><ellipse cx="480.7139" cy="429.3683" fill="#ADD1B2" rx="9" ry="9" style="stroke:#181818;stroke-width:1;"/><path d="M481.9922,433.1583 Q481.6504,433.3341 481.2744,433.422 Q480.8984,433.5099 480.4834,433.5099 Q479.0088,433.5099 478.2324,432.5382 Q477.456,431.5665 477.456,429.7306 Q477.456,427.8898 478.2324,426.9181 Q479.0088,425.9464 480.4834,425.9464 Q480.8984,425.9464 481.2793,426.0343 Q481.6601,426.1222 481.9922,426.298 L481.9922,427.8995 Q481.6211,427.5577 481.272,427.399 Q480.9228,427.2404 480.5517,427.2404 Q479.7607,427.2404 479.3579,427.8678 Q478.9551,428.4952 478.9551,429.7306 Q478.9551,430.9611 479.3579,431.5885 Q479.7607,432.2159 480.5517,432.2159 Q480.9228,432.2159 481.272,432.0572 Q481.6211,431.8986 481.9922,431.5568 Z " fill="#000000"/><text fill="#000000" font-family="sans-serif" font-size="10" lengthAdjust="spacing" textLength="131.4795" x="493.8036" y="433.1476">TelemetryTableComponent</text><line style="stroke:#181818;stroke-width:0.5;" x1="463.81" x2="632.187" y1="443.3683" y2="443.3683"/><line style="stroke:#181818;stroke-width:1;" x1="463.81" x2="632.187" y1="451.3683" y2="451.3683"/><g data-visibility-modifier="PRIVATE_FIELD"><rect fill="none" height="6" style="stroke:#C82930;stroke-width:1;" width="6" x="470.81" y="459.757"/></g><text fill="#000000" font-family="sans-serif" font-size="10" lengthAdjust="spacing" textLength="144.126" x="480.81" y="465.0363">measures: CheckedEnvelope[]</text><line style="stroke:#181818;stroke-width:1;" x1="463.81" x2="632.187" y1="471.1456" y2="471.1456"/><g data-visibility-modifier="PUBLIC_METHOD"><ellipse cx="473.81" cy="482.5343" fill="#84BE84" rx="3" ry="3" style="stroke:#038048;stroke-width:1;"/></g><text fill="#000000" font-family="sans-serif" font-size="10" lengthAdjust="spacing" textLength="143.7549" x="480.81" y="484.8136">formatValue(envelope): string</text><g data-visibility-modifier="PUBLIC_METHOD"><ellipse cx="473.81" cy="494.3116" fill="#84BE84" rx="3" ry="3" style="stroke:#038048;stroke-width:1;"/></g><text fill="#000000" font-family="sans-serif" font-size="10" lengthAdjust="spacing" textLength="146.377" x="480.81" y="496.5909">isAlertRow(envelope): boolean</text></g><!--class BoundsEval--><g class="entity" data-qualified-name="Dashboard Feature.BoundsEval" data-source-line="105" id="ent0018"><rect fill="#F1F1F1" height="44" rx="2.5" ry="2.5" style="stroke:#181818;stroke-width:0.5;" width="82.707" x="1278.65" y="591.2583"/><ellipse cx="1291.65" cy="605.2583" fill="#ADD1B2" rx="9" ry="9" style="stroke:#181818;stroke-width:1;"/><path d="M1292.9283,609.0483 Q1292.5865,609.2241 1292.2105,609.312 Q1291.8346,609.3999 1291.4195,609.3999 Q1289.9449,609.3999 1289.1686,608.4282 Q1288.3922,607.4565 1288.3922,605.6206 Q1288.3922,603.7798 1289.1686,602.8081 Q1289.9449,601.8364 1291.4195,601.8364 Q1291.8346,601.8364 1292.2154,601.9243 Q1292.5963,602.0122 1292.9283,602.188 L1292.9283,603.7895 Q1292.5572,603.4477 1292.2081,603.289 Q1291.859,603.1304 1291.4879,603.1304 Q1290.6969,603.1304 1290.294,603.7578 Q1289.8912,604.3852 1289.8912,605.6206 Q1289.8912,606.8511 1290.294,607.4785 Q1290.6969,608.1059 1291.4879,608.1059 Q1291.859,608.1059 1292.2081,607.9472 Q1292.5572,607.7886 1292.9283,607.4468 Z " fill="#000000"/><text fill="#000000" font-family="sans-serif" font-size="10" lengthAdjust="spacing" textLength="54.707" x="1303.65" y="609.0376">BoundsEval</text><line style="stroke:#181818;stroke-width:0.5;" x1="1279.65" x2="1360.357" y1="619.2583" y2="619.2583"/><line style="stroke:#181818;stroke-width:0.5;" x1="1279.65" x2="1360.357" y1="627.2583" y2="627.2583"/></g><!--class MultiSelect--><g class="entity" data-qualified-name="Dashboard Feature.MultiSelect" data-source-line="107" id="ent0020"><rect fill="#F1F1F1" height="44" rx="2.5" ry="2.5" style="stroke:#181818;stroke-width:0.5;" width="80.6221" x="310.69" y="591.2583"/><ellipse cx="323.69" cy="605.2583" fill="#ADD1B2" rx="9" ry="9" style="stroke:#181818;stroke-width:1;"/><path d="M324.9683,609.0483 Q324.6265,609.2241 324.2505,609.312 Q323.8746,609.3999 323.4595,609.3999 Q321.9849,609.3999 321.2086,608.4282 Q320.4322,607.4565 320.4322,605.6206 Q320.4322,603.7798 321.2086,602.8081 Q321.9849,601.8364 323.4595,601.8364 Q323.8746,601.8364 324.2554,601.9243 Q324.6363,602.0122 324.9683,602.188 L324.9683,603.7895 Q324.5972,603.4477 324.2481,603.289 Q323.899,603.1304 323.5279,603.1304 Q322.7369,603.1304 322.334,603.7578 Q321.9312,604.3852 321.9312,605.6206 Q321.9312,606.8511 322.334,607.4785 Q322.7369,608.1059 323.5279,608.1059 Q323.899,608.1059 324.2481,607.9472 Q324.5972,607.7886 324.9683,607.4468 Z " fill="#000000"/><text fill="#000000" font-family="sans-serif" font-size="10" lengthAdjust="spacing" textLength="52.6221" x="335.69" y="609.0376">MultiSelect</text><line style="stroke:#181818;stroke-width:0.5;" x1="311.69" x2="390.3121" y1="619.2583" y2="619.2583"/><line style="stroke:#181818;stroke-width:0.5;" x1="311.69" x2="390.3121" y1="627.2583" y2="627.2583"/></g><!--class RomeDatePipe--><g class="entity" data-qualified-name="Dashboard Feature.RomeDatePipe" data-source-line="108" id="ent0022"><rect fill="#F1F1F1" height="44" rx="2.5" ry="2.5" style="stroke:#181818;stroke-width:0.5;" width="97.9805" x="399.01" y="591.2583"/><ellipse cx="412.01" cy="605.2583" fill="#ADD1B2" rx="9" ry="9" style="stroke:#181818;stroke-width:1;"/><path d="M413.2883,609.0483 Q412.9465,609.2241 412.5705,609.312 Q412.1946,609.3999 411.7795,609.3999 Q410.3049,609.3999 409.5286,608.4282 Q408.7522,607.4565 408.7522,605.6206 Q408.7522,603.7798 409.5286,602.8081 Q410.3049,601.8364 411.7795,601.8364 Q412.1946,601.8364 412.5754,601.9243 Q412.9563,602.0122 413.2883,602.188 L413.2883,603.7895 Q412.9172,603.4477 412.5681,603.289 Q412.219,603.1304 411.8479,603.1304 Q411.0569,603.1304 410.654,603.7578 Q410.2512,604.3852 410.2512,605.6206 Q410.2512,606.8511 410.654,607.4785 Q411.0569,608.1059 411.8479,608.1059 Q412.219,608.1059 412.5681,607.9472 Q412.9172,607.7886 413.2883,607.4468 Z " fill="#000000"/><text fill="#000000" font-family="sans-serif" font-size="10" lengthAdjust="spacing" textLength="69.9805" x="424.01" y="609.0376">RomeDatePipe</text><line style="stroke:#181818;stroke-width:0.5;" x1="400.01" x2="495.9905" y1="619.2583" y2="619.2583"/><line style="stroke:#181818;stroke-width:0.5;" x1="400.01" x2="495.9905" y1="627.2583" y2="627.2583"/></g><!--class ChartJs--><g class="entity" data-qualified-name="Dashboard Feature.ChartJs" data-source-line="110" id="ent0024"><rect fill="#F1F1F1" height="44" rx="2.5" ry="2.5" style="stroke:#181818;stroke-width:0.5;" width="62.6875" x="100.66" y="591.2583"/><ellipse cx="113.66" cy="605.2583" fill="#ADD1B2" rx="9" ry="9" style="stroke:#181818;stroke-width:1;"/><path d="M114.9383,609.0483 Q114.5965,609.2241 114.2205,609.312 Q113.8446,609.3999 113.4295,609.3999 Q111.9549,609.3999 111.1786,608.4282 Q110.4022,607.4565 110.4022,605.6206 Q110.4022,603.7798 111.1786,602.8081 Q111.9549,601.8364 113.4295,601.8364 Q113.8446,601.8364 114.2254,601.9243 Q114.6063,602.0122 114.9383,602.188 L114.9383,603.7895 Q114.5672,603.4477 114.2181,603.289 Q113.869,603.1304 113.4979,603.1304 Q112.7069,603.1304 112.304,603.7578 Q111.9012,604.3852 111.9012,605.6206 Q111.9012,606.8511 112.304,607.4785 Q112.7069,608.1059 113.4979,608.1059 Q113.869,608.1059 114.2181,607.9472 Q114.5672,607.7886 114.9383,607.4468 Z " fill="#000000"/><text fill="#000000" font-family="sans-serif" font-size="10" lengthAdjust="spacing" textLength="34.6875" x="125.66" y="609.0376">ChartJs</text><line style="stroke:#181818;stroke-width:0.5;" x1="101.66" x2="162.3475" y1="619.2583" y2="619.2583"/><line style="stroke:#181818;stroke-width:0.5;" x1="101.66" x2="162.3475" y1="627.2583" y2="627.2583"/></g><!--class StatusBadge--><g class="entity" data-qualified-name="Dashboard Feature.StatusBadge" data-source-line="112" id="ent0027"><rect fill="#F1F1F1" height="44" rx="2.5" ry="2.5" style="stroke:#181818;stroke-width:0.5;" width="87.0674" x="505.47" y="591.2583"/><ellipse cx="518.47" cy="605.2583" fill="#ADD1B2" rx="9" ry="9" style="stroke:#181818;stroke-width:1;"/><path d="M519.7483,609.0483 Q519.4065,609.2241 519.0305,609.312 Q518.6546,609.3999 518.2395,609.3999 Q516.7649,609.3999 515.9886,608.4282 Q515.2122,607.4565 515.2122,605.6206 Q515.2122,603.7798 515.9886,602.8081 Q516.7649,601.8364 518.2395,601.8364 Q518.6546,601.8364 519.0354,601.9243 Q519.4163,602.0122 519.7483,602.188 L519.7483,603.7895 Q519.3772,603.4477 519.0281,603.289 Q518.679,603.1304 518.3079,603.1304 Q517.5169,603.1304 517.114,603.7578 Q516.7112,604.3852 516.7112,605.6206 Q516.7112,606.8511 517.114,607.4785 Q517.5169,608.1059 518.3079,608.1059 Q518.679,608.1059 519.0281,607.9472 Q519.3772,607.7886 519.7483,607.4468 Z " fill="#000000"/><text fill="#000000" font-family="sans-serif" font-size="10" lengthAdjust="spacing" textLength="59.0674" x="530.47" y="609.0376">StatusBadge</text><line style="stroke:#181818;stroke-width:0.5;" x1="506.47" x2="591.5374" y1="619.2583" y2="619.2583"/><line style="stroke:#181818;stroke-width:0.5;" x1="506.47" x2="591.5374" y1="627.2583" y2="627.2583"/></g><!--class DecMeasure--><g class="entity" data-qualified-name="Dashboard Feature.Services.DecMeasure" data-source-line="63" id="ent0008"><rect fill="#F1F1F1" height="122.6641" rx="2.5" ry="2.5" style="stroke:#181818;stroke-width:0.5;" width="280.499" x="815.75" y="551.9283"/><ellipse cx="890.3086" cy="565.9283" fill="#ADD1B2" rx="9" ry="9" style="stroke:#181818;stroke-width:1;"/><path d="M891.5869,569.7183 Q891.2451,569.8941 890.8691,569.982 Q890.4932,570.0699 890.0781,570.0699 Q888.6035,570.0699 887.8271,569.0982 Q887.0508,568.1265 887.0508,566.2906 Q887.0508,564.4498 887.8271,563.4781 Q888.6035,562.5064 890.0781,562.5064 Q890.4932,562.5064 890.874,562.5943 Q891.2549,562.6822 891.5869,562.858 L891.5869,564.4595 Q891.2158,564.1177 890.8667,563.959 Q890.5176,563.8004 890.1465,563.8004 Q889.3555,563.8004 888.9526,564.4278 Q888.5498,565.0552 888.5498,566.2906 Q888.5498,567.5211 888.9526,568.1485 Q889.3555,568.7759 890.1465,568.7759 Q890.5176,568.7759 890.8667,568.6172 Q891.2158,568.4586 891.5869,568.1168 Z " fill="#000000"/><text fill="#000000" font-family="sans-serif" font-size="10" lengthAdjust="spacing" textLength="123.8818" x="907.8086" y="569.7076">DecryptedMeasureService</text><line style="stroke:#181818;stroke-width:0.5;" x1="816.75" x2="1095.249" y1="579.9283" y2="579.9283"/><line style="stroke:#181818;stroke-width:1;" x1="816.75" x2="1095.249" y1="587.9283" y2="587.9283"/><g data-visibility-modifier="PRIVATE_METHOD"><rect fill="#F24D5C" height="6" style="stroke:#C82930;stroke-width:1;" width="6" x="823.75" y="596.317"/></g><text fill="#000000" font-family="sans-serif" font-size="10" lengthAdjust="spacing" textLength="198.1396" x="833.75" y="601.5963">sdk: DataApiService (@notip/crypto-sdk)</text><g data-visibility-modifier="PRIVATE_FIELD"><rect fill="none" height="6" style="stroke:#C82930;stroke-width:1;" width="6" x="823.75" y="608.0943"/></g><text fill="#000000" font-family="sans-serif" font-size="10" lengthAdjust="spacing" textLength="184.917" x="833.75" y="613.3736">abortController: AbortController | null</text><line style="stroke:#181818;stroke-width:1;" x1="816.75" x2="1095.249" y1="619.483" y2="619.483"/><g data-visibility-modifier="PUBLIC_METHOD"><ellipse cx="826.75" cy="630.8716" fill="#84BE84" rx="3" ry="3" style="stroke:#038048;stroke-width:1;"/></g><text fill="#000000" font-family="sans-serif" font-size="10" lengthAdjust="spacing" textLength="256.499" x="833.75" y="633.1509">query(params): Observable&lt;CheckedQueryResPage&gt;</text><g data-visibility-modifier="PUBLIC_METHOD"><ellipse cx="826.75" cy="642.649" fill="#84BE84" rx="3" ry="3" style="stroke:#038048;stroke-width:1;"/></g><text fill="#000000" font-family="sans-serif" font-size="10" lengthAdjust="spacing" textLength="237.0313" x="833.75" y="644.9283">stream(params): Observable&lt;CheckedEnvelope&gt;</text><g data-visibility-modifier="PUBLIC_METHOD"><ellipse cx="826.75" cy="654.4263" fill="#84BE84" rx="3" ry="3" style="stroke:#038048;stroke-width:1;"/></g><text fill="#000000" font-family="sans-serif" font-size="10" lengthAdjust="spacing" textLength="171.9238" x="833.75" y="656.7056">export(params): Observable&lt;Blob&gt;</text><g data-visibility-modifier="PUBLIC_METHOD"><ellipse cx="826.75" cy="666.2037" fill="#84BE84" rx="3" ry="3" style="stroke:#038048;stroke-width:1;"/></g><text fill="#000000" font-family="sans-serif" font-size="10" lengthAdjust="spacing" textLength="91.8066" x="833.75" y="668.483">closeStream(): void</text></g><!--class ObfMeasure--><g class="entity" data-qualified-name="Dashboard Feature.Services.ObfMeasure" data-source-line="74" id="ent0009"><rect fill="#F1F1F1" height="110.8867" rx="2.5" ry="2.5" style="stroke:#181818;stroke-width:0.5;" width="294.2637" x="664.87" y="403.5983"/><ellipse cx="743.3641" cy="417.5983" fill="#ADD1B2" rx="9" ry="9" style="stroke:#181818;stroke-width:1;"/><path d="M744.6425,421.3883 Q744.3007,421.5641 743.9247,421.652 Q743.5487,421.7399 743.1337,421.7399 Q741.6591,421.7399 740.8827,420.7682 Q740.1063,419.7965 740.1063,417.9606 Q740.1063,416.1198 740.8827,415.1481 Q741.6591,414.1764 743.1337,414.1764 Q743.5487,414.1764 743.9296,414.2643 Q744.3104,414.3522 744.6425,414.528 L744.6425,416.1295 Q744.2714,415.7877 743.9222,415.629 Q743.5731,415.4704 743.202,415.4704 Q742.411,415.4704 742.0082,416.0978 Q741.6054,416.7252 741.6054,417.9606 Q741.6054,419.1911 742.0082,419.8185 Q742.411,420.4459 743.202,420.4459 Q743.5731,420.4459 743.9222,420.2872 Q744.2714,420.1286 744.6425,419.7868 Z " fill="#000000"/><text fill="#000000" font-family="sans-serif" font-size="10" lengthAdjust="spacing" textLength="129.7754" x="760.8641" y="421.3776">ObfuscatedMeasureService</text><line style="stroke:#181818;stroke-width:0.5;" x1="665.87" x2="958.1337" y1="431.5983" y2="431.5983"/><line style="stroke:#181818;stroke-width:1;" x1="665.87" x2="958.1337" y1="439.5983" y2="439.5983"/><g data-visibility-modifier="PRIVATE_FIELD"><rect fill="none" height="6" style="stroke:#C82930;stroke-width:1;" width="6" x="672.87" y="447.987"/></g><text fill="#000000" font-family="sans-serif" font-size="10" lengthAdjust="spacing" textLength="223.1396" x="682.87" y="453.2663">streamMgr: ObfuscatedStreamManagerService</text><g data-visibility-modifier="PRIVATE_FIELD"><rect fill="none" height="6" style="stroke:#C82930;stroke-width:1;" width="6" x="672.87" y="459.7643"/></g><text fill="#000000" font-family="sans-serif" font-size="10" lengthAdjust="spacing" textLength="148.4863" x="682.87" y="465.0436">measuresApi: MeasuresService</text><line style="stroke:#181818;stroke-width:1;" x1="665.87" x2="958.1337" y1="471.153" y2="471.153"/><g data-visibility-modifier="PUBLIC_METHOD"><ellipse cx="675.87" cy="482.5416" fill="#84BE84" rx="3" ry="3" style="stroke:#038048;stroke-width:1;"/></g><text fill="#000000" font-family="sans-serif" font-size="10" lengthAdjust="spacing" textLength="270.2637" x="682.87" y="484.8209">query(params): Observable&lt;ObfuscatedQueryResPage&gt;</text><g data-visibility-modifier="PUBLIC_METHOD"><ellipse cx="675.87" cy="494.319" fill="#84BE84" rx="3" ry="3" style="stroke:#038048;stroke-width:1;"/></g><text fill="#000000" font-family="sans-serif" font-size="10" lengthAdjust="spacing" textLength="250.7959" x="682.87" y="496.5983">stream(params): Observable&lt;ObfuscatedEnvelope&gt;</text><g data-visibility-modifier="PUBLIC_METHOD"><ellipse cx="675.87" cy="506.0963" fill="#84BE84" rx="3" ry="3" style="stroke:#038048;stroke-width:1;"/></g><text fill="#000000" font-family="sans-serif" font-size="10" lengthAdjust="spacing" textLength="91.8066" x="682.87" y="508.3756">closeStream(): void</text></g><!--class ValMeasure--><g class="entity" data-qualified-name="Dashboard Feature.Services.ValMeasure" data-source-line="84" id="ent0010"><rect fill="#F1F1F1" height="122.6641" rx="2.5" ry="2.5" style="stroke:#181818;stroke-width:0.5;" width="280.499" x="966.75" y="397.7083"/><ellipse cx="1026.6797" cy="411.7083" fill="#ADD1B2" rx="9" ry="9" style="stroke:#181818;stroke-width:1;"/><path d="M1027.958,415.4983 Q1027.6162,415.6741 1027.2402,415.762 Q1026.8643,415.8499 1026.4492,415.8499 Q1024.9746,415.8499 1024.1982,414.8782 Q1023.4219,413.9065 1023.4219,412.0706 Q1023.4219,410.2298 1024.1982,409.2581 Q1024.9746,408.2864 1026.4492,408.2864 Q1026.8643,408.2864 1027.2451,408.3743 Q1027.626,408.4622 1027.958,408.638 L1027.958,410.2395 Q1027.5869,409.8977 1027.2378,409.739 Q1026.8887,409.5804 1026.5176,409.5804 Q1025.7266,409.5804 1025.3237,410.2078 Q1024.9209,410.8352 1024.9209,412.0706 Q1024.9209,413.3011 1025.3237,413.9285 Q1025.7266,414.5559 1026.5176,414.5559 Q1026.8887,414.5559 1027.2378,414.3972 Q1027.5869,414.2386 1027.958,413.8968 Z " fill="#000000"/><text fill="#000000" font-family="sans-serif" font-size="10" lengthAdjust="spacing" textLength="153.1396" x="1044.1797" y="415.4876">ValidatedMeasureFacadeService</text><line style="stroke:#181818;stroke-width:0.5;" x1="967.75" x2="1246.249" y1="425.7083" y2="425.7083"/><line style="stroke:#181818;stroke-width:1;" x1="967.75" x2="1246.249" y1="433.7083" y2="433.7083"/><g data-visibility-modifier="PRIVATE_FIELD"><rect fill="none" height="6" style="stroke:#C82930;stroke-width:1;" width="6" x="974.75" y="442.097"/></g><text fill="#000000" font-family="sans-serif" font-size="10" lengthAdjust="spacing" textLength="219.0869" x="984.75" y="447.3763">decryptedMeasure: DecryptedMeasureService</text><g data-visibility-modifier="PRIVATE_FIELD"><rect fill="none" height="6" style="stroke:#C82930;stroke-width:1;" width="6" x="974.75" y="453.8743"/></g><text fill="#000000" font-family="sans-serif" font-size="10" lengthAdjust="spacing" textLength="221.4746" x="984.75" y="459.1536">boundsEval: MeasureBoundsEvaluationService</text><line style="stroke:#181818;stroke-width:1;" x1="967.75" x2="1246.249" y1="465.263" y2="465.263"/><g data-visibility-modifier="PUBLIC_METHOD"><ellipse cx="977.75" cy="476.6516" fill="#84BE84" rx="3" ry="3" style="stroke:#038048;stroke-width:1;"/></g><text fill="#000000" font-family="sans-serif" font-size="10" lengthAdjust="spacing" textLength="256.499" x="984.75" y="478.9309">query(params): Observable&lt;CheckedQueryResPage&gt;</text><g data-visibility-modifier="PUBLIC_METHOD"><ellipse cx="977.75" cy="488.429" fill="#84BE84" rx="3" ry="3" style="stroke:#038048;stroke-width:1;"/></g><text fill="#000000" font-family="sans-serif" font-size="10" lengthAdjust="spacing" textLength="237.0313" x="984.75" y="490.7083">stream(params): Observable&lt;CheckedEnvelope&gt;</text><g data-visibility-modifier="PUBLIC_METHOD"><ellipse cx="977.75" cy="500.2063" fill="#84BE84" rx="3" ry="3" style="stroke:#038048;stroke-width:1;"/></g><text fill="#000000" font-family="sans-serif" font-size="10" lengthAdjust="spacing" textLength="171.9238" x="984.75" y="502.4856">export(params): Observable&lt;Blob&gt;</text><g data-visibility-modifier="PUBLIC_METHOD"><ellipse cx="977.75" cy="511.9837" fill="#84BE84" rx="3" ry="3" style="stroke:#038048;stroke-width:1;"/></g><text fill="#000000" font-family="sans-serif" font-size="10" lengthAdjust="spacing" textLength="91.8066" x="984.75" y="514.263">closeStream(): void</text></g><g class="entity" data-qualified-name="GMN29" data-source-line="116" id="ent0030"><path d="M476.66,43.4883 L476.66,112.375 A0,0 0 0 0 476.66,112.375 L594,112.375 L598,157.9983 L602,112.375 L719.3495,112.375 A0,0 0 0 0 719.3495,112.375 L719.3495,53.4883 L709.3495,43.4883 L476.66,43.4883 A0,0 0 0 0 476.66,43.4883" fill="#FEFFDD" style="stroke:#181818;stroke-width:0.5;"/><path d="M709.3495,43.4883 L709.3495,53.4883 L719.3495,53.4883 L709.3495,43.4883" fill="#FEFFDD" style="stroke:#181818;stroke-width:0.5;"/><text fill="#000000" font-family="sans-serif" font-size="10" lengthAdjust="spacing" textLength="174.5117" x="482.66" y="58.1563">Main dashboard page. Resolver sets</text><text fill="#000000" font-family="sans-serif" font-size="10" lengthAdjust="spacing" textLength="204.1846" x="482.66" y="69.9336">dataMode based on impersonation status.</text><text fill="#000000" font-family="sans-serif" font-size="10" lengthAdjust="spacing" textLength="198.042" x="482.66" y="81.7109">Stream mode: real-time SSE, 20-row cap</text><text fill="#000000" font-family="sans-serif" font-size="10" lengthAdjust="spacing" textLength="221.6895" x="482.66" y="93.4883">Query mode: paginated with cursor, 24h limit</text><text fill="#000000" font-family="sans-serif" font-size="10" lengthAdjust="spacing" textLength="178.6035" x="482.66" y="105.2656">Export: disabled in obfuscated mode</text></g><g class="entity" data-qualified-name="GMN32" data-source-line="124" id="ent0033"><path d="M1393.23,418.7083 L1393.23,499.3723 L1594.7622,499.3723 L1594.7622,428.7083 L1584.7622,418.7083 L1393.23,418.7083" fill="#FEFFDD" style="stroke:#181818;stroke-width:0.5;"/><path d="M1584.7622,418.7083 L1584.7622,428.7083 L1594.7622,428.7083 L1584.7622,418.7083" fill="#FEFFDD" style="stroke:#181818;stroke-width:1;"/><text fill="#000000" font-family="sans-serif" font-size="10" lengthAdjust="spacing" textLength="177.1973" x="1399.23" y="433.3763">Multi-select dropdowns with search.</text><text fill="#000000" font-family="sans-serif" font-size="10" lengthAdjust="spacing" textLength="163.3643" x="1399.23" y="445.1536">Cross-filter dependency: gateway</text><text fill="#000000" font-family="sans-serif" font-size="10" lengthAdjust="spacing" textLength="167.0947" x="1399.23" y="456.9309">selection updates sensor catalogs.</text><text fill="#000000" font-family="sans-serif" font-size="10" lengthAdjust="spacing" textLength="148.0615" x="1399.23" y="468.7083">24h time window enforcement</text><text fill="#000000" font-family="sans-serif" font-size="10" lengthAdjust="spacing" textLength="122.7539" x="1399.23" y="480.4856">with automatic clamping.</text><text fill="#000000" font-family="sans-serif" font-size="10" lengthAdjust="spacing" textLength="180.5322" x="1399.23" y="492.263">Rome timezone datetime conversion.</text></g><g class="entity" data-qualified-name="GMN35" data-source-line="133" id="ent0036"><path d="M1602.37,424.5983 L1602.37,493.485 L1799.6298,493.485 L1799.6298,434.5983 L1789.6298,424.5983 L1602.37,424.5983" fill="#FEFFDD" style="stroke:#181818;stroke-width:0.5;"/><path d="M1789.6298,424.5983 L1789.6298,434.5983 L1799.6298,434.5983 L1789.6298,424.5983" fill="#FEFFDD" style="stroke:#181818;stroke-width:1;"/><text fill="#000000" font-family="sans-serif" font-size="10" lengthAdjust="spacing" textLength="170" x="1608.37" y="439.2663">Chart.js line chart. One dataset per</text><text fill="#000000" font-family="sans-serif" font-size="10" lengthAdjust="spacing" textLength="125.7764" x="1608.37" y="451.0436">sensor with distinct color.</text><text fill="#000000" font-family="sans-serif" font-size="10" lengthAdjust="spacing" textLength="147.7686" x="1608.37" y="462.8209">Cap at 120 points per dataset.</text><text fill="#000000" font-family="sans-serif" font-size="10" lengthAdjust="spacing" textLength="173.5596" x="1608.37" y="474.5983">Italian locale timestamp formatting.</text><text fill="#000000" font-family="sans-serif" font-size="10" lengthAdjust="spacing" textLength="176.2598" x="1608.37" y="486.3756">Invalid timestamp fallback handling.</text></g><g class="entity" data-qualified-name="GMN38" data-source-line="141" id="ent0039"><path d="M1392.93,578.8083 L1392.93,647.695 L1595.0677,647.695 L1595.0677,588.8083 L1585.0677,578.8083 L1392.93,578.8083" fill="#FEFFDD" style="stroke:#181818;stroke-width:0.5;"/><path d="M1585.0677,578.8083 L1585.0677,588.8083 L1595.0677,588.8083 L1585.0677,578.8083" fill="#FEFFDD" style="stroke:#181818;stroke-width:1;"/><text fill="#000000" font-family="sans-serif" font-size="10" lengthAdjust="spacing" textLength="180.8789" x="1398.93" y="593.4763">Facade that wraps DecryptedMeasure</text><text fill="#000000" font-family="sans-serif" font-size="10" lengthAdjust="spacing" textLength="176.6016" x="1398.93" y="605.2536">and adds isOutOfBounds evaluation.</text><text fill="#000000" font-family="sans-serif" font-size="10" lengthAdjust="spacing" textLength="173.5645" x="1398.93" y="617.0309">Transforms DecryptedEnvelope into</text><text fill="#000000" font-family="sans-serif" font-size="10" lengthAdjust="spacing" textLength="181.1377" x="1398.93" y="628.8083">CheckedEnvelope by evaluating value</text><text fill="#000000" font-family="sans-serif" font-size="10" lengthAdjust="spacing" textLength="129.8828" x="1398.93" y="640.5856">against cached thresholds.</text></g><!--link DashboardPage to FilterPanel--><g class="link" data-entity-1="ent0003" data-entity-2="ent0004" data-link-type="dependency" data-source-line="97" id="lnk11"><path codeLine="97" d="M545.76,351.9683 C545.76,371.1983 545.76,385.5883 545.76,385.5883 C545.76,385.5883 507.21,385.5883 460.84,385.5883" fill="none" id="DashboardPage-to-FilterPanel" style="stroke:#181818;stroke-width:1;"/><polygon fill="#181818" points="454.84,385.5883,463.84,389.5883,459.84,385.5883,463.84,381.5883,454.84,385.5883" style="stroke:#181818;stroke-width:1;"/></g><!--link DashboardPage to TelemetryChart--><g class="link" data-entity-1="ent0003" data-entity-2="ent0005" data-link-type="dependency" data-source-line="98" id="lnk12"><path codeLine="98" d="M501.73,254.5883 C365.27,254.5883 132,254.5883 132,254.5883 C132,254.5883 132,331.2183 132,391.4183" fill="none" id="DashboardPage-to-TelemetryChart" style="stroke:#181818;stroke-width:1;"/><polygon fill="#181818" points="132,397.4183,136,388.4183,132,392.4183,128,388.4183,132,397.4183" style="stroke:#181818;stroke-width:1;"/></g><!--link DashboardPage to TelemetryTable--><g class="link" data-entity-1="ent0003" data-entity-2="ent0006" data-link-type="dependency" data-source-line="99" id="lnk13"><path codeLine="99" d="M589.47,351.9583 C589.47,374.0683 589.47,390.4883 589.47,409.0583" fill="none" id="DashboardPage-to-TelemetryTable" style="stroke:#181818;stroke-width:1;"/><polygon fill="#181818" points="589.47,415.0583,593.47,406.0583,589.47,410.0583,585.47,406.0583,589.47,415.0583" style="stroke:#181818;stroke-width:1;"/></g><!--link DashboardPage to DecMeasure--><g class="link" data-entity-1="ent0003" data-entity-2="ent0008" data-link-type="dependency" data-source-line="100" id="lnk14"><path codeLine="100" d="M649.03,352.1683 C649.03,445.2183 649.03,571.5883 649.03,571.5883 C649.03,571.5883 728.71,571.5883 809.54,571.5883" fill="none" id="DashboardPage-to-DecMeasure" style="stroke:#181818;stroke-width:1;"/><polygon fill="#181818" points="815.54,571.5883,806.54,567.5883,810.54,571.5883,806.54,575.5883,815.54,571.5883" style="stroke:#181818;stroke-width:1;"/></g><!--link DashboardPage to ObfMeasure--><g class="link" data-entity-1="ent0003" data-entity-2="ent0009" data-link-type="dependency" data-source-line="101" id="lnk15"><path codeLine="101" d="M679.41,351.9583 C679.41,369.5383 679.41,381.3183 679.41,397.2083" fill="none" id="DashboardPage-to-ObfMeasure" style="stroke:#181818;stroke-width:1;"/><polygon fill="#181818" points="679.41,403.2083,683.41,394.2083,679.41,398.2083,675.41,394.2083,679.41,403.2083" style="stroke:#181818;stroke-width:1;"/></g><!--link DashboardPage to ValMeasure--><g class="link" data-entity-1="ent0003" data-entity-2="ent0010" data-link-type="dependency" data-source-line="102" id="lnk16"><path codeLine="102" d="M694.34,254.5883 C841.9,254.5883 1107,254.5883 1107,254.5883 C1107,254.5883 1107,331.2183 1107,391.4183" fill="none" id="DashboardPage-to-ValMeasure" style="stroke:#181818;stroke-width:1;"/><polygon fill="#181818" points="1107,397.4183,1111,388.4183,1107,392.4183,1103,388.4183,1107,397.4183" style="stroke:#181818;stroke-width:1;"/></g><!--link ValMeasure to DecMeasure--><g class="link" data-entity-1="ent0010" data-entity-2="ent0008" data-link-type="dependency" data-source-line="104" id="lnk17"><path codeLine="104" d="M1031.5,520.4283 C1031.5,530.6783 1031.5,535.3183 1031.5,545.5683" fill="none" id="ValMeasure-to-DecMeasure" style="stroke:#181818;stroke-width:1;"/><polygon fill="#181818" points="1031.5,551.5683,1035.5,542.5683,1031.5,546.5683,1027.5,542.5683,1031.5,551.5683" style="stroke:#181818;stroke-width:1;"/></g><!--link ValMeasure to BoundsEval--><g class="link" data-entity-1="ent0010" data-entity-2="ent0018" data-link-type="dependency" data-source-line="105" id="lnk19"><path codeLine="105" d="M1247.59,509.5883 C1287.34,509.5883 1320,509.5883 1320,509.5883 C1320,509.5883 1320,554.2683 1320,584.7583" fill="none" id="ValMeasure-to-BoundsEval" style="stroke:#181818;stroke-width:1;"/><polygon fill="#181818" points="1320,590.7583,1324,581.7583,1320,585.7583,1316,581.7583,1320,590.7583" style="stroke:#181818;stroke-width:1;"/></g><!--link FilterPanel to MultiSelect--><g class="link" data-entity-1="ent0004" data-entity-2="ent0020" data-link-type="dependency" data-source-line="107" id="lnk21"><path codeLine="107" d="M351,544.2683 C351,561.5383 351,572.2683 351,584.9283" fill="none" id="FilterPanel-to-MultiSelect" style="stroke:#181818;stroke-width:1;"/><polygon fill="#181818" points="351,590.9283,355,581.9283,351,585.9283,347,581.9283,351,590.9283" style="stroke:#181818;stroke-width:1;"/></g><!--link FilterPanel to RomeDatePipe--><g class="link" data-entity-1="ent0004" data-entity-2="ent0022" data-link-type="dependency" data-source-line="108" id="lnk23"><path codeLine="108" d="M426.69,544.2683 C426.69,561.5383 426.69,572.2683 426.69,584.9283" fill="none" id="FilterPanel-to-RomeDatePipe" style="stroke:#181818;stroke-width:1;"/><polygon fill="#181818" points="426.69,590.9283,430.69,581.9283,426.69,585.9283,422.69,581.9283,426.69,590.9283" style="stroke:#181818;stroke-width:1;"/></g><!--link TelemetryChart to ChartJs--><g class="link" data-entity-1="ent0005" data-entity-2="ent0024" data-link-type="dependency" data-source-line="110" id="lnk25"><path codeLine="110" d="M132,520.4283 C132,545.2983 132,566.4383 132,584.9083" fill="none" id="TelemetryChart-to-ChartJs" style="stroke:#181818;stroke-width:1;"/><polygon fill="#181818" points="132,590.9083,136,581.9083,132,585.9083,128,581.9083,132,590.9083" style="stroke:#181818;stroke-width:1;"/></g><!--link TelemetryTable to RomeDatePipe--><g class="link" data-entity-1="ent0006" data-entity-2="ent0022" data-link-type="dependency" data-source-line="111" id="lnk26"><path codeLine="111" d="M479.9,502.8183 C479.9,531.4883 479.9,561.7783 479.9,584.7683" fill="none" id="TelemetryTable-to-RomeDatePipe" style="stroke:#181818;stroke-width:1;"/><polygon fill="#181818" points="479.9,590.7683,483.9,581.7683,479.9,585.7683,475.9,581.7683,479.9,590.7683" style="stroke:#181818;stroke-width:1;"/></g><!--link TelemetryTable to StatusBadge--><g class="link" data-entity-1="ent0006" data-entity-2="ent0027" data-link-type="dependency" data-source-line="112" id="lnk28"><path codeLine="112" d="M549,502.8183 C549,531.4883 549,561.7783 549,584.7683" fill="none" id="TelemetryTable-to-StatusBadge" style="stroke:#181818;stroke-width:1;"/><polygon fill="#181818" points="549,590.7683,553,581.7683,549,585.7683,545,581.7683,549,590.7683" style="stroke:#181818;stroke-width:1;"/></g><!--link FilterPanel to GMN32--><g class="link" data-entity-1="ent0004" data-entity-2="ent0033" data-link-type="association" data-source-line="124" id="lnk34"><path d="M454.85,532.5883 C735.56,532.5883 1494,532.5883 1494,532.5883 C1494,532.5883 1494,516.6983 1494,499.6883" fill="none" id="FilterPanel-GMN32" style="stroke:#181818;stroke-width:1;stroke-dasharray:7,7;"/></g><!--link GMN35 to TelemetryChart--><g class="link" data-entity-1="ent0036" data-entity-2="ent0005" data-link-type="association" data-source-line="133" id="lnk37"><path d="M1701,493.7783 C1701,518.5883 1701,547.5883 1701,547.5883 C1701,547.5883 202.41,547.5883 202.41,547.5883 C202.41,547.5883 202.41,535.6483 202.41,520.5383" fill="none" id="GMN35-TelemetryChart" style="stroke:#181818;stroke-width:1;stroke-dasharray:7,7;"/></g><!--link ValMeasure to GMN38--><g class="link" data-entity-1="ent0010" data-entity-2="ent0039" data-link-type="association" data-source-line="141" id="lnk40"><path d="M1171.75,520.7083 C1171.75,552.4583 1171.75,584.5883 1171.75,584.5883 C1171.75,584.5883 1298.02,584.5883 1392.48,584.5883" fill="none" id="ValMeasure-GMN38" style="stroke:#181818;stroke-width:1;stroke-dasharray:7,7;"/></g><?plantuml-src pLTHR-Cs37xFho2wXwJeqlKEzp04HR6srm8Pq4lNTBU7OG-AnTXQPKcJvEHos_xxACbERDSjUc_BGnAB7odo8qNHNdY9y6dnEB-7MwkLHyLX2X-PArQQMGwNDYk4nynN5aSZzoIKOPQLi6BPKsvrfVYrbjh2TxVnqq9mNBDA-biokXHV4TwT3Gjh_RFuQK6KvkZGm8-jDSlKKtzD2eL-Pn2qzOKUZGnvndA4eqCGjyY2_qTmVlv0eJ2LIxouWBz709bapWMiPtlyFQbVwz9eXSeV0NFG4KKzWEaq_N1IlIDVPp3E938xXdzWh5VhocNC8nydr4RWjaOvRv6L4VPNXNPN8t92RzbkORpGoirWYP9yJO-__v4m3fNJzf6YVGDipby5uHT3Z5rLRZU3bTRakch7TQBoXPehuIV7CzXemTCgCqRkReNqQDqa9i1rv962HjwHkAtmMV6vvc5IqbT7NZ359Tv4hxgQKZF-2R_uG7vByk_eaB-quprJABkPQmbwUQFiCAdpMGsvJe-TNCmvSKVf4Yf_de4NH0CwQwlBPYsjUDrzdWwG-pPQfqH0QHv5YRy9nVMsAxHOwWtELKQSC2zM4bCbXAfuWSb70fJexUwwODPtoUpA-do6jHb4qVaudChnnU64EFIk5dvCZmqxhN8ZiSgn7o2vK7dyLGawBSk6uu1PeZzFBDORPNImFDRstQH4vkZOXmBjxRdMjcG-iEOyqJVn0RDFo20TZupOUu6EAElHqMmUWiRi2VcDsg3K1djn9rS-CrdX16l8SQSwJeIxb6Zz0sMtXJYSsUZlGDjRejs835rqjdcetMpw7cPsPwXDtILtQrHgUfZLgxNEtkbGxFmfiNffHAq4av-KziBy44tg03bku6obGp4fRxMaM6PmsLsWPgWgAVlRdCG6UUWpYvMZlGBRvpMhlmJ00xhG6ouQhTHXNrDhah5NITrmKELAwjKUbqdjS9dijyiqvc1FwsBV_WTu9U4hl4RJTxaDBZH6qdvtJ56GjZRLA3HrHdcOGMtNzJ1leFEmsRSoUj1yHkhRoABQ5xp5rItB6EymHeYN6UEz4fx12qNTAAp2rE9kDapk2RlQBrKiDCTlv-z_LuurosDuG1bZSeKmZbQwiynqUj6-8mVbtRR_EYIsma78ePqCYW-dOb1yA84GLQiWdfdkoGwf3OhjSI18xsW85UbE790-w3BS9dWlJDosT_y5IFptisiBqstmJ7yGiVGqcRehndCSKRweVo9uRK2lknoGzXqJ2lY-kHjQFQNaEYqtr3_3XKUWPXYb-TmX1wr0b8Pc1grY3T2r4lOx9MGg6YZZJ4f_vTJJTGZBvSttyFviQlKMCcO864kwnj6cGeMZ2ZJC5P1LPDaI_aD1OtWf0eTfW9i15ov4oO6yFap3qSuel6I4KEk0hSWB7qBk5cBC3KrL8Jd0hJOqtYYNTdOq3cL5YEFQQkUcwwX9hnM6RAFAQAQjPpY2k6RcWSg4HkCWZMfGZu2HZn13P60RvoX0HJTpHlbI8QguAQkyfhjQP127BhgVWs98SjJyIfD1I016CvccCsqTxNhQZrVYEeRxx5p5tzC_NNodWJXGdS8YMGtZ2r0gOppH--WJqUo58eAoy1eL2M46c8Ttxy_0QA6y2rgDXG2OKz22AP0wOpAv7gSWIAE8h-EQgqrep6qvapAyzq4SrIEi5zbAUw8enDOwhtIkOaS7Nv1VMykCUzQY2KGsWN7kGBX5vHVhT701zqqvEFL8Ru0k-DaoqJHFgZIl8ukTdWghtTw8oY7yYzlbT9uSySQoWkhI5tHj5bformhgFm00?></g></svg>