<?plantuml 1.2026.2?><svg xmlns="http://www.w3.org/2000/svg" xmlns:xlink="http://www.w3.org/1999/xlink" contentStyleType="text/css" data-diagram-type="CLASS" height="661px" preserveAspectRatio="none" style="width:1915px;height:661px;background:#FFFFFF;" version="1.1" viewBox="0 0 1915 661" width="1915px" zoomAndPan="magnify"><title>NOTIP Frontend - Shared Components</title><defs/><g><g class="title" data-source-line="1"><text fill="#000000" font-family="sans-serif" font-size="14" font-weight="bold" lengthAdjust="spacing" textLength="277.6143" x="811.9291" y="23.5352">NOTIP Frontend - Shared Components</text></g><!--cluster Shared Components--><g class="cluster" data-qualified-name="Shared Components" data-source-line="10" id="ent0002"><rect fill="none" height="527.1" rx="2.5" ry="2.5" style="stroke:#181818;stroke-width:1;" width="1415" x="7" y="128.3683"/><text fill="#000000" font-family="sans-serif" font-size="10" font-weight="bold" lengthAdjust="spacing" textLength="103.4082" x="662.7959" y="140.0363">Shared Components</text></g><!--class Sidebar--><g class="entity" data-qualified-name="Shared Components.Sidebar" data-source-line="12" id="ent0003"><rect fill="#F1F1F1" height="228.6602" rx="2.5" ry="2.5" style="stroke:#181818;stroke-width:0.5;" width="293.4092" x="23.3" y="201.5883"/><ellipse cx="119.9509" cy="215.5883" fill="#ADD1B2" rx="9" ry="9" style="stroke:#181818;stroke-width:1;"/><path d="M121.2292,219.3783 Q120.8874,219.5541 120.5114,219.642 Q120.1354,219.7299 119.7204,219.7299 Q118.2458,219.7299 117.4694,218.7582 Q116.6931,217.7865 116.6931,215.9506 Q116.6931,214.1098 117.4694,213.1381 Q118.2458,212.1664 119.7204,212.1664 Q120.1354,212.1664 120.5163,212.2543 Q120.8972,212.3422 121.2292,212.518 L121.2292,214.1195 Q120.8581,213.7777 120.509,213.619 Q120.1599,213.4604 119.7888,213.4604 Q118.9978,213.4604 118.5949,214.0878 Q118.1921,214.7152 118.1921,215.9506 Q118.1921,217.1811 118.5949,217.8085 Q118.9978,218.4359 119.7888,218.4359 Q120.1599,218.4359 120.509,218.2772 Q120.8581,218.1186 121.2292,217.7768 Z " fill="#000000"/><text fill="#000000" font-family="sans-serif" font-size="10" lengthAdjust="spacing" textLength="92.6074" x="137.4509" y="219.3676">SidebarComponent</text><line style="stroke:#181818;stroke-width:0.5;" x1="24.3" x2="315.7092" y1="229.5883" y2="229.5883"/><g data-visibility-modifier="PUBLIC_FIELD"><ellipse cx="34.3" cy="256.7543" fill="none" rx="3" ry="3" style="stroke:#038048;stroke-width:1;"/></g><text fill="#000000" font-family="sans-serif" font-size="10" lengthAdjust="spacing" textLength="168.3301" x="41.3" y="259.0336">isImpersonating: Signal&lt;boolean&gt;</text><g data-visibility-modifier="PUBLIC_FIELD"><ellipse cx="34.3" cy="268.5316" fill="none" rx="3" ry="3" style="stroke:#038048;stroke-width:1;"/></g><text fill="#000000" font-family="sans-serif" font-size="10" lengthAdjust="spacing" textLength="127.2217" x="41.3" y="270.8109">username: Signal&lt;string&gt;</text><g data-visibility-modifier="PUBLIC_FIELD"><ellipse cx="34.3" cy="280.309" fill="none" rx="3" ry="3" style="stroke:#038048;stroke-width:1;"/></g><text fill="#000000" font-family="sans-serif" font-size="10" lengthAdjust="spacing" textLength="112.6709" x="41.3" y="282.5883">role: Signal&lt;UserRole&gt;</text><line style="stroke:#181818;stroke-width:1;" x1="24.3" x2="132.8439" y1="243.477" y2="243.477"/><text fill="#000000" font-family="sans-serif" font-size="10" lengthAdjust="spacing" textLength="74.3213" x="132.8439" y="246.7563">Inputs (Signals)</text><line style="stroke:#181818;stroke-width:1;" x1="207.1652" x2="315.7092" y1="243.477" y2="243.477"/><g data-visibility-modifier="PUBLIC_FIELD"><ellipse cx="34.3" cy="307.8637" fill="none" rx="3" ry="3" style="stroke:#038048;stroke-width:1;"/></g><text fill="#000000" font-family="sans-serif" font-size="10" lengthAdjust="spacing" textLength="209.0723" x="41.3" y="310.143">logoutRequested: OutputEmitterRef&lt;void&gt;</text><g data-visibility-modifier="PUBLIC_FIELD"><ellipse cx="34.3" cy="319.641" fill="none" rx="3" ry="3" style="stroke:#038048;stroke-width:1;"/></g><text fill="#000000" font-family="sans-serif" font-size="10" lengthAdjust="spacing" textLength="269.4092" x="41.3" y="321.9203">impersonationStopRequested: OutputEmitterRef&lt;void&gt;</text><g data-visibility-modifier="PUBLIC_FIELD"><ellipse cx="34.3" cy="331.4184" fill="none" rx="3" ry="3" style="stroke:#038048;stroke-width:1;"/></g><text fill="#000000" font-family="sans-serif" font-size="10" lengthAdjust="spacing" textLength="209.2725" x="41.3" y="333.6977">profileRequested: OutputEmitterRef&lt;void&gt;</text><g data-visibility-modifier="PUBLIC_FIELD"><ellipse cx="34.3" cy="343.1957" fill="none" rx="3" ry="3" style="stroke:#038048;stroke-width:1;"/></g><text fill="#000000" font-family="sans-serif" font-size="10" lengthAdjust="spacing" textLength="260.6201" x="41.3" y="345.475">passwordChangeRequested: OutputEmitterRef&lt;void&gt;</text><line style="stroke:#181818;stroke-width:1;" x1="24.3" x2="150.4782" y1="294.5863" y2="294.5863"/><text fill="#000000" font-family="sans-serif" font-size="10" lengthAdjust="spacing" textLength="39.0527" x="150.4782" y="297.8656">Outputs</text><line style="stroke:#181818;stroke-width:1;" x1="189.531" x2="315.7092" y1="294.5863" y2="294.5863"/><line style="stroke:#181818;stroke-width:1;" x1="24.3" x2="315.7092" y1="351.5844" y2="351.5844"/><g data-visibility-modifier="PUBLIC_METHOD"><ellipse cx="34.3" cy="362.973" fill="#84BE84" rx="3" ry="3" style="stroke:#038048;stroke-width:1;"/></g><text fill="#000000" font-family="sans-serif" font-size="10" lengthAdjust="spacing" textLength="121.4063" x="41.3" y="365.2523">menuItems(): MenuItem[]</text><g data-visibility-modifier="PUBLIC_METHOD"><ellipse cx="34.3" cy="374.7504" fill="#84BE84" rx="3" ry="3" style="stroke:#038048;stroke-width:1;"/></g><text fill="#000000" font-family="sans-serif" font-size="10" lengthAdjust="spacing" textLength="88.6719" x="41.3" y="377.0297">emitLogout(): void</text><g data-visibility-modifier="PUBLIC_METHOD"><ellipse cx="34.3" cy="386.5277" fill="#84BE84" rx="3" ry="3" style="stroke:#038048;stroke-width:1;"/></g><text fill="#000000" font-family="sans-serif" font-size="10" lengthAdjust="spacing" textLength="197.2266" x="41.3" y="388.807">emitImpersonationStopRequested(): void</text><g data-visibility-modifier="PUBLIC_METHOD"><ellipse cx="34.3" cy="398.3051" fill="#84BE84" rx="3" ry="3" style="stroke:#038048;stroke-width:1;"/></g><text fill="#000000" font-family="sans-serif" font-size="10" lengthAdjust="spacing" textLength="136.333" x="41.3" y="400.5844">emitProfileRequested(): void</text><g data-visibility-modifier="PUBLIC_METHOD"><ellipse cx="34.3" cy="410.0824" fill="#84BE84" rx="3" ry="3" style="stroke:#038048;stroke-width:1;"/></g><text fill="#000000" font-family="sans-serif" font-size="10" lengthAdjust="spacing" textLength="187.6807" x="41.3" y="412.3617">emitPasswordChangeRequested(): void</text><g data-visibility-modifier="PRIVATE_METHOD"><rect fill="#F24D5C" height="6" style="stroke:#C82930;stroke-width:1;" width="6" x="31.3" y="418.8598"/></g><text fill="#000000" font-family="sans-serif" font-size="10" lengthAdjust="spacing" textLength="111.4063" x="41.3" y="424.1391">currentRole(): UserRole</text></g><!--class ModalLayer--><g class="entity" data-qualified-name="Shared Components.ModalLayer" data-source-line="31" id="ent0004"><rect fill="#F1F1F1" height="122.6641" rx="2.5" ry="2.5" style="stroke:#181818;stroke-width:0.5;" width="229.5664" x="932.22" y="499.1383"/><ellipse cx="987.3719" cy="513.1383" fill="#ADD1B2" rx="9" ry="9" style="stroke:#181818;stroke-width:1;"/><path d="M988.6502,516.9283 Q988.3084,517.1041 987.9324,517.192 Q987.5564,517.2799 987.1414,517.2799 Q985.6668,517.2799 984.8904,516.3082 Q984.114,515.3365 984.114,513.5006 Q984.114,511.6598 984.8904,510.6881 Q985.6668,509.7164 987.1414,509.7164 Q987.5564,509.7164 987.9373,509.8043 Q988.3181,509.8922 988.6502,510.068 L988.6502,511.6695 Q988.2791,511.3277 987.93,511.169 Q987.5808,511.0104 987.2097,511.0104 Q986.4187,511.0104 986.0159,511.6378 Q985.6131,512.2652 985.6131,513.5006 Q985.6131,514.7311 986.0159,515.3585 Q986.4187,515.9859 987.2097,515.9859 Q987.5808,515.9859 987.93,515.8272 Q988.2791,515.6686 988.6502,515.3268 Z " fill="#000000"/><text fill="#000000" font-family="sans-serif" font-size="10" lengthAdjust="spacing" textLength="111.7627" x="1004.8719" y="516.9176">ModalLayerComponent</text><line style="stroke:#181818;stroke-width:0.5;" x1="933.22" x2="1160.7864" y1="527.1383" y2="527.1383"/><g data-visibility-modifier="PUBLIC_FIELD"><ellipse cx="943.22" cy="554.3043" fill="none" rx="3" ry="3" style="stroke:#038048;stroke-width:1;"/></g><text fill="#000000" font-family="sans-serif" font-size="10" lengthAdjust="spacing" textLength="114.3408" x="950.22" y="556.5836">open: Signal&lt;boolean&gt;</text><g data-visibility-modifier="PUBLIC_FIELD"><ellipse cx="943.22" cy="566.0816" fill="none" rx="3" ry="3" style="stroke:#038048;stroke-width:1;"/></g><text fill="#000000" font-family="sans-serif" font-size="10" lengthAdjust="spacing" textLength="173.9893" x="950.22" y="568.3609">closeOnBackdrop: Signal&lt;boolean&gt;</text><line style="stroke:#181818;stroke-width:1;" x1="933.22" x2="1009.8426" y1="541.027" y2="541.027"/><text fill="#000000" font-family="sans-serif" font-size="10" lengthAdjust="spacing" textLength="74.3213" x="1009.8426" y="544.3063">Inputs (Signals)</text><line style="stroke:#181818;stroke-width:1;" x1="1084.1638" x2="1160.7864" y1="541.027" y2="541.027"/><g data-visibility-modifier="PUBLIC_FIELD"><ellipse cx="943.22" cy="593.6363" fill="none" rx="3" ry="3" style="stroke:#038048;stroke-width:1;"/></g><text fill="#000000" font-family="sans-serif" font-size="10" lengthAdjust="spacing" textLength="205.5664" x="950.22" y="595.9156">backdropClosed: OutputEmitterRef&lt;void&gt;</text><line style="stroke:#181818;stroke-width:1;" x1="933.22" x2="1027.4768" y1="580.359" y2="580.359"/><text fill="#000000" font-family="sans-serif" font-size="10" lengthAdjust="spacing" textLength="39.0527" x="1027.4768" y="583.6383">Outputs</text><line style="stroke:#181818;stroke-width:1;" x1="1066.5296" x2="1160.7864" y1="580.359" y2="580.359"/><line style="stroke:#181818;stroke-width:1;" x1="933.22" x2="1160.7864" y1="602.025" y2="602.025"/><g data-visibility-modifier="PUBLIC_METHOD"><ellipse cx="943.22" cy="613.4137" fill="#84BE84" rx="3" ry="3" style="stroke:#038048;stroke-width:1;"/></g><text fill="#000000" font-family="sans-serif" font-size="10" lengthAdjust="spacing" textLength="182.0166" x="950.22" y="615.693">onHostClick(event: MouseEvent): void</text></g><!--class MultiSelect--><g class="entity" data-qualified-name="Shared Components.MultiSelect" data-source-line="41" id="ent0005"><rect fill="#F1F1F1" height="315.1016" rx="2.5" ry="2.5" style="stroke:#181818;stroke-width:0.5;" width="241.8271" x="325.09" y="158.3683"/><ellipse cx="362.5166" cy="172.3683" fill="#ADD1B2" rx="9" ry="9" style="stroke:#181818;stroke-width:1;"/><path d="M363.7949,176.1583 Q363.4531,176.3341 363.0771,176.422 Q362.7011,176.5099 362.2861,176.5099 Q360.8115,176.5099 360.0351,175.5382 Q359.2587,174.5665 359.2587,172.7306 Q359.2587,170.8898 360.0351,169.9181 Q360.8115,168.9464 362.2861,168.9464 Q362.7011,168.9464 363.082,169.0343 Q363.4629,169.1222 363.7949,169.298 L363.7949,170.8995 Q363.4238,170.5577 363.0747,170.399 Q362.7255,170.2404 362.3545,170.2404 Q361.5634,170.2404 361.1606,170.8678 Q360.7578,171.4952 360.7578,172.7306 Q360.7578,173.9611 361.1606,174.5885 Q361.5634,175.2159 362.3545,175.2159 Q362.7255,175.2159 363.0747,175.0572 Q363.4238,174.8986 363.7949,174.5568 Z " fill="#000000"/><text fill="#000000" font-family="sans-serif" font-size="10" lengthAdjust="spacing" textLength="159.5459" x="379.9447" y="176.1476">MultiSelectDropdownComponent</text><line style="stroke:#181818;stroke-width:0.5;" x1="326.09" x2="565.9171" y1="186.3683" y2="186.3683"/><g data-visibility-modifier="PUBLIC_FIELD"><ellipse cx="336.09" cy="213.5343" fill="none" rx="3" ry="3" style="stroke:#038048;stroke-width:1;"/></g><text fill="#000000" font-family="sans-serif" font-size="10" lengthAdjust="spacing" textLength="122.6367" x="343.09" y="215.8136">options: Signal&lt;string[]&gt;</text><g data-visibility-modifier="PUBLIC_FIELD"><ellipse cx="336.09" cy="225.3116" fill="none" rx="3" ry="3" style="stroke:#038048;stroke-width:1;"/></g><text fill="#000000" font-family="sans-serif" font-size="10" lengthAdjust="spacing" textLength="125.9814" x="343.09" y="227.5909">selected: Signal&lt;string[]&gt;</text><g data-visibility-modifier="PUBLIC_FIELD"><ellipse cx="336.09" cy="237.089" fill="none" rx="3" ry="3" style="stroke:#038048;stroke-width:1;"/></g><text fill="#000000" font-family="sans-serif" font-size="10" lengthAdjust="spacing" textLength="136.2158" x="343.09" y="239.3683">placeholder: Signal&lt;string&gt;</text><g data-visibility-modifier="PUBLIC_FIELD"><ellipse cx="336.09" cy="248.8663" fill="none" rx="3" ry="3" style="stroke:#038048;stroke-width:1;"/></g><text fill="#000000" font-family="sans-serif" font-size="10" lengthAdjust="spacing" textLength="167.0605" x="343.09" y="251.1456">searchPlaceholder: Signal&lt;string&gt;</text><g data-visibility-modifier="PUBLIC_FIELD"><ellipse cx="336.09" cy="260.6437" fill="none" rx="3" ry="3" style="stroke:#038048;stroke-width:1;"/></g><text fill="#000000" font-family="sans-serif" font-size="10" lengthAdjust="spacing" textLength="152.5049" x="343.09" y="262.923">noResultsLabel: Signal&lt;string&gt;</text><g data-visibility-modifier="PUBLIC_FIELD"><ellipse cx="336.09" cy="272.421" fill="none" rx="3" ry="3" style="stroke:#038048;stroke-width:1;"/></g><text fill="#000000" font-family="sans-serif" font-size="10" lengthAdjust="spacing" textLength="130.9814" x="343.09" y="274.7003">disabled: Signal&lt;boolean&gt;</text><line style="stroke:#181818;stroke-width:1;" x1="326.09" x2="408.8429" y1="200.257" y2="200.257"/><text fill="#000000" font-family="sans-serif" font-size="10" lengthAdjust="spacing" textLength="74.3213" x="408.8429" y="203.5363">Inputs (Signals)</text><line style="stroke:#181818;stroke-width:1;" x1="483.1642" x2="565.9171" y1="200.257" y2="200.257"/><g data-visibility-modifier="PUBLIC_FIELD"><ellipse cx="336.09" cy="299.9757" fill="none" rx="3" ry="3" style="stroke:#038048;stroke-width:1;"/></g><text fill="#000000" font-family="sans-serif" font-size="10" lengthAdjust="spacing" textLength="217.8271" x="343.09" y="302.255">selectedChange: OutputEmitterRef&lt;string[]&gt;</text><line style="stroke:#181818;stroke-width:1;" x1="326.09" x2="426.4772" y1="286.6984" y2="286.6984"/><text fill="#000000" font-family="sans-serif" font-size="10" lengthAdjust="spacing" textLength="39.0527" x="426.4772" y="289.9777">Outputs</text><line style="stroke:#181818;stroke-width:1;" x1="465.5299" x2="565.9171" y1="286.6984" y2="286.6984"/><g data-visibility-modifier="PUBLIC_FIELD"><ellipse cx="336.09" cy="327.5304" fill="none" rx="3" ry="3" style="stroke:#038048;stroke-width:1;"/></g><text fill="#000000" font-family="sans-serif" font-size="10" lengthAdjust="spacing" textLength="163.5107" x="343.09" y="329.8097">isOpen: WritableSignal&lt;boolean&gt;</text><g data-visibility-modifier="PUBLIC_FIELD"><ellipse cx="336.09" cy="339.3077" fill="none" rx="3" ry="3" style="stroke:#038048;stroke-width:1;"/></g><text fill="#000000" font-family="sans-serif" font-size="10" lengthAdjust="spacing" textLength="176.1084" x="343.09" y="341.587">searchTerm: WritableSignal&lt;string&gt;</text><line style="stroke:#181818;stroke-width:1;" x1="326.09" x2="412.0754" y1="314.253" y2="314.253"/><text fill="#000000" font-family="sans-serif" font-size="10" lengthAdjust="spacing" textLength="67.8564" x="412.0754" y="317.5323">State (Signals)</text><line style="stroke:#181818;stroke-width:1;" x1="479.9318" x2="565.9171" y1="314.253" y2="314.253"/><line style="stroke:#181818;stroke-width:1;" x1="326.09" x2="565.9171" y1="347.6964" y2="347.6964"/><g data-visibility-modifier="PUBLIC_METHOD"><ellipse cx="336.09" cy="359.0851" fill="#84BE84" rx="3" ry="3" style="stroke:#038048;stroke-width:1;"/></g><text fill="#000000" font-family="sans-serif" font-size="10" lengthAdjust="spacing" textLength="209.502" x="343.09" y="361.3644">onDocumentClick(event: MouseEvent): void</text><g data-visibility-modifier="PUBLIC_METHOD"><ellipse cx="336.09" cy="370.8624" fill="#84BE84" rx="3" ry="3" style="stroke:#038048;stroke-width:1;"/></g><text fill="#000000" font-family="sans-serif" font-size="10" lengthAdjust="spacing" textLength="78.7109" x="343.09" y="373.1417">onEscape(): void</text><g data-visibility-modifier="PUBLIC_METHOD"><ellipse cx="336.09" cy="382.6398" fill="#84BE84" rx="3" ry="3" style="stroke:#038048;stroke-width:1;"/></g><text fill="#000000" font-family="sans-serif" font-size="10" lengthAdjust="spacing" textLength="90.7471" x="343.09" y="384.9191">toggleMenu(): void</text><g data-visibility-modifier="PUBLIC_METHOD"><ellipse cx="336.09" cy="394.4171" fill="#84BE84" rx="3" ry="3" style="stroke:#038048;stroke-width:1;"/></g><text fill="#000000" font-family="sans-serif" font-size="10" lengthAdjust="spacing" textLength="158.8184" x="343.09" y="396.6964">updateSearch(value: string): void</text><g data-visibility-modifier="PUBLIC_METHOD"><ellipse cx="336.09" cy="406.1945" fill="#84BE84" rx="3" ry="3" style="stroke:#038048;stroke-width:1;"/></g><text fill="#000000" font-family="sans-serif" font-size="10" lengthAdjust="spacing" textLength="157.1484" x="343.09" y="408.4738">toggleOption(value: string): void</text><g data-visibility-modifier="PUBLIC_METHOD"><ellipse cx="336.09" cy="417.9718" fill="#84BE84" rx="3" ry="3" style="stroke:#038048;stroke-width:1;"/></g><text fill="#000000" font-family="sans-serif" font-size="10" lengthAdjust="spacing" textLength="159.6924" x="343.09" y="420.2511">isSelected(value: string): boolean</text><g data-visibility-modifier="PUBLIC_METHOD"><ellipse cx="336.09" cy="429.7491" fill="#84BE84" rx="3" ry="3" style="stroke:#038048;stroke-width:1;"/></g><text fill="#000000" font-family="sans-serif" font-size="10" lengthAdjust="spacing" textLength="109.9365" x="343.09" y="432.0284">selectionLabel(): string</text><g data-visibility-modifier="PUBLIC_METHOD"><ellipse cx="336.09" cy="441.5265" fill="#84BE84" rx="3" ry="3" style="stroke:#038048;stroke-width:1;"/></g><text fill="#000000" font-family="sans-serif" font-size="10" lengthAdjust="spacing" textLength="120.4639" x="343.09" y="443.8058">filteredOptions(): string[]</text><g data-visibility-modifier="PRIVATE_METHOD"><rect fill="#F24D5C" height="6" style="stroke:#C82930;stroke-width:1;" width="6" x="333.09" y="450.3038"/></g><text fill="#000000" font-family="sans-serif" font-size="10" lengthAdjust="spacing" textLength="140.415" x="343.09" y="455.5831">normalizedOptions(): string[]</text><g data-visibility-modifier="PRIVATE_METHOD"><rect fill="#F24D5C" height="6" style="stroke:#C82930;stroke-width:1;" width="6" x="333.09" y="462.0812"/></g><text fill="#000000" font-family="sans-serif" font-size="10" lengthAdjust="spacing" textLength="84.7559" x="343.09" y="467.3605">closeMenu(): void</text></g><!--class StatusBadge--><g class="entity" data-qualified-name="Shared Components.StatusBadge" data-source-line="67" id="ent0006"><rect fill="#F1F1F1" height="83.332" rx="2.5" ry="2.5" style="stroke:#181818;stroke-width:0.5;" width="143.625" x="783.19" y="274.2583"/><ellipse cx="796.19" cy="288.2583" fill="#ADD1B2" rx="9" ry="9" style="stroke:#181818;stroke-width:1;"/><path d="M797.4683,292.0483 Q797.1265,292.2241 796.7505,292.312 Q796.3746,292.3999 795.9595,292.3999 Q794.4849,292.3999 793.7086,291.4282 Q792.9322,290.4565 792.9322,288.6206 Q792.9322,286.7798 793.7086,285.8081 Q794.4849,284.8364 795.9595,284.8364 Q796.3746,284.8364 796.7554,284.9243 Q797.1363,285.0122 797.4683,285.188 L797.4683,286.7895 Q797.0972,286.4477 796.7481,286.289 Q796.399,286.1304 796.0279,286.1304 Q795.2369,286.1304 794.834,286.7578 Q794.4312,287.3852 794.4312,288.6206 Q794.4312,289.8511 794.834,290.4785 Q795.2369,291.1059 796.0279,291.1059 Q796.399,291.1059 796.7481,290.9472 Q797.0972,290.7886 797.4683,290.4468 Z " fill="#000000"/><text fill="#000000" font-family="sans-serif" font-size="10" lengthAdjust="spacing" textLength="115.625" x="808.19" y="292.0376">StatusBadgeComponent</text><line style="stroke:#181818;stroke-width:0.5;" x1="784.19" x2="925.815" y1="302.2583" y2="302.2583"/><g data-visibility-modifier="PUBLIC_FIELD"><ellipse cx="794.19" cy="329.4243" fill="none" rx="3" ry="3" style="stroke:#038048;stroke-width:1;"/></g><text fill="#000000" font-family="sans-serif" font-size="10" lengthAdjust="spacing" textLength="109.0234" x="801.19" y="331.7036">status: Signal&lt;string&gt;</text><line style="stroke:#181818;stroke-width:1;" x1="784.19" x2="817.8419" y1="316.147" y2="316.147"/><text fill="#000000" font-family="sans-serif" font-size="10" lengthAdjust="spacing" textLength="74.3213" x="817.8419" y="319.4263">Inputs (Signals)</text><line style="stroke:#181818;stroke-width:1;" x1="892.1631" x2="925.815" y1="316.147" y2="316.147"/><line style="stroke:#181818;stroke-width:1;" x1="784.19" x2="925.815" y1="337.813" y2="337.813"/><g data-visibility-modifier="PUBLIC_METHOD"><ellipse cx="794.19" cy="349.2016" fill="#84BE84" rx="3" ry="3" style="stroke:#038048;stroke-width:1;"/></g><text fill="#000000" font-family="sans-serif" font-size="10" lengthAdjust="spacing" textLength="96.5381" x="801.19" y="351.4809">badgeClass(): string</text></g><!--class DeleteModal--><g class="entity" data-qualified-name="Shared Components.DeleteModal" data-source-line="74" id="ent0007"><rect fill="#F1F1F1" height="169.7734" rx="2.5" ry="2.5" style="stroke:#181818;stroke-width:0.5;" width="200.377" x="574.81" y="231.0383"/><ellipse cx="595.1265" cy="245.0383" fill="#ADD1B2" rx="9" ry="9" style="stroke:#181818;stroke-width:1;"/><path d="M596.4048,248.8283 Q596.063,249.0041 595.687,249.092 Q595.311,249.1799 594.896,249.1799 Q593.4214,249.1799 592.645,248.2082 Q591.8686,247.2365 591.8686,245.4006 Q591.8686,243.5598 592.645,242.5881 Q593.4214,241.6164 594.896,241.6164 Q595.311,241.6164 595.6919,241.7043 Q596.0727,241.7922 596.4048,241.968 L596.4048,243.5695 Q596.0337,243.2277 595.6846,243.069 Q595.3354,242.9104 594.9643,242.9104 Q594.1733,242.9104 593.7705,243.5378 Q593.3677,244.1652 593.3677,245.4006 Q593.3677,246.6311 593.7705,247.2585 Q594.1733,247.8859 594.9643,247.8859 Q595.3354,247.8859 595.6846,247.7272 Q596.0337,247.5686 596.4048,247.2268 Z " fill="#000000"/><text fill="#000000" font-family="sans-serif" font-size="10" lengthAdjust="spacing" textLength="156.1182" x="608.7523" y="248.8176">DeleteConfirmModalComponent</text><line style="stroke:#181818;stroke-width:0.5;" x1="575.81" x2="774.187" y1="259.0383" y2="259.0383"/><g data-visibility-modifier="PUBLIC_FIELD"><ellipse cx="585.81" cy="286.2043" fill="none" rx="3" ry="3" style="stroke:#038048;stroke-width:1;"/></g><text fill="#000000" font-family="sans-serif" font-size="10" lengthAdjust="spacing" textLength="114.3408" x="592.81" y="288.4836">open: Signal&lt;boolean&gt;</text><g data-visibility-modifier="PUBLIC_FIELD"><ellipse cx="585.81" cy="297.9816" fill="none" rx="3" ry="3" style="stroke:#038048;stroke-width:1;"/></g><text fill="#000000" font-family="sans-serif" font-size="10" lengthAdjust="spacing" textLength="98.4521" x="592.81" y="300.2609">title: Signal&lt;string&gt;</text><g data-visibility-modifier="PUBLIC_FIELD"><ellipse cx="585.81" cy="309.759" fill="none" rx="3" ry="3" style="stroke:#038048;stroke-width:1;"/></g><text fill="#000000" font-family="sans-serif" font-size="10" lengthAdjust="spacing" textLength="122.0508" x="592.81" y="312.0383">message: Signal&lt;string&gt;</text><g data-visibility-modifier="PUBLIC_FIELD"><ellipse cx="585.81" cy="321.5363" fill="none" rx="3" ry="3" style="stroke:#038048;stroke-width:1;"/></g><text fill="#000000" font-family="sans-serif" font-size="10" lengthAdjust="spacing" textLength="112.9492" x="592.81" y="323.8156">busy: Signal&lt;boolean&gt;</text><line style="stroke:#181818;stroke-width:1;" x1="575.81" x2="637.8378" y1="272.927" y2="272.927"/><text fill="#000000" font-family="sans-serif" font-size="10" lengthAdjust="spacing" textLength="74.3213" x="637.8378" y="276.2063">Inputs (Signals)</text><line style="stroke:#181818;stroke-width:1;" x1="712.1591" x2="774.187" y1="272.927" y2="272.927"/><g data-visibility-modifier="PUBLIC_FIELD"><ellipse cx="585.81" cy="349.091" fill="none" rx="3" ry="3" style="stroke:#038048;stroke-width:1;"/></g><text fill="#000000" font-family="sans-serif" font-size="10" lengthAdjust="spacing" textLength="176.377" x="592.81" y="351.3703">confirmed: OutputEmitterRef&lt;void&gt;</text><g data-visibility-modifier="PUBLIC_FIELD"><ellipse cx="585.81" cy="360.8684" fill="none" rx="3" ry="3" style="stroke:#038048;stroke-width:1;"/></g><text fill="#000000" font-family="sans-serif" font-size="10" lengthAdjust="spacing" textLength="172.2363" x="592.81" y="363.1477">cancelled: OutputEmitterRef&lt;void&gt;</text><line style="stroke:#181818;stroke-width:1;" x1="575.81" x2="655.4721" y1="335.8137" y2="335.8137"/><text fill="#000000" font-family="sans-serif" font-size="10" lengthAdjust="spacing" textLength="39.0527" x="655.4721" y="339.093">Outputs</text><line style="stroke:#181818;stroke-width:1;" x1="694.5248" x2="774.187" y1="335.8137" y2="335.8137"/><line style="stroke:#181818;stroke-width:1;" x1="575.81" x2="774.187" y1="369.257" y2="369.257"/><g data-visibility-modifier="PUBLIC_METHOD"><ellipse cx="585.81" cy="380.6457" fill="#84BE84" rx="3" ry="3" style="stroke:#038048;stroke-width:1;"/></g><text fill="#000000" font-family="sans-serif" font-size="10" lengthAdjust="spacing" textLength="84.9463" x="592.81" y="382.925">onConfirm(): void</text><g data-visibility-modifier="PUBLIC_METHOD"><ellipse cx="585.81" cy="392.423" fill="#84BE84" rx="3" ry="3" style="stroke:#038048;stroke-width:1;"/></g><text fill="#000000" font-family="sans-serif" font-size="10" lengthAdjust="spacing" textLength="77.915" x="592.81" y="394.7023">onCancel(): void</text></g><!--class ProfileSection--><g class="entity" data-qualified-name="Shared Components.ProfileSection" data-source-line="88" id="ent0008"><rect fill="#F1F1F1" height="157.9961" rx="2.5" ry="2.5" style="stroke:#181818;stroke-width:0.5;" width="284.6201" x="396.69" y="481.4683"/><ellipse cx="474.0464" cy="495.4683" fill="#ADD1B2" rx="9" ry="9" style="stroke:#181818;stroke-width:1;"/><path d="M475.3248,499.2583 Q474.983,499.4341 474.607,499.522 Q474.231,499.6099 473.816,499.6099 Q472.3414,499.6099 471.565,498.6382 Q470.7886,497.6665 470.7886,495.8306 Q470.7886,493.9898 471.565,493.0181 Q472.3414,492.0464 473.816,492.0464 Q474.231,492.0464 474.6119,492.1343 Q474.9927,492.2222 475.3248,492.398 L475.3248,493.9995 Q474.9537,493.6577 474.6046,493.499 Q474.2554,493.3404 473.8843,493.3404 Q473.0933,493.3404 472.6905,493.9678 Q472.2877,494.5952 472.2877,495.8306 Q472.2877,497.0611 472.6905,497.6885 Q473.0933,498.3159 473.8843,498.3159 Q474.2554,498.3159 474.6046,498.1572 Q474.9537,497.9986 475.3248,497.6568 Z " fill="#000000"/><text fill="#000000" font-family="sans-serif" font-size="10" lengthAdjust="spacing" textLength="122.4072" x="491.5464" y="499.2476">ProfileSectionComponent</text><line style="stroke:#181818;stroke-width:0.5;" x1="397.69" x2="680.3101" y1="509.4683" y2="509.4683"/><g data-visibility-modifier="PUBLIC_FIELD"><ellipse cx="407.69" cy="536.6343" fill="none" rx="3" ry="3" style="stroke:#038048;stroke-width:1;"/></g><text fill="#000000" font-family="sans-serif" font-size="10" lengthAdjust="spacing" textLength="181.875" x="414.69" y="538.9136">username: Signal&lt;string&gt; &#171;required&#187;</text><g data-visibility-modifier="PUBLIC_FIELD"><ellipse cx="407.69" cy="548.4116" fill="none" rx="3" ry="3" style="stroke:#038048;stroke-width:1;"/></g><text fill="#000000" font-family="sans-serif" font-size="10" lengthAdjust="spacing" textLength="152.9688" x="414.69" y="550.6909">role: Signal&lt;string&gt; &#171;required&#187;</text><g data-visibility-modifier="PUBLIC_FIELD"><ellipse cx="407.69" cy="560.189" fill="none" rx="3" ry="3" style="stroke:#038048;stroke-width:1;"/></g><text fill="#000000" font-family="sans-serif" font-size="10" lengthAdjust="spacing" textLength="166.3428" x="414.69" y="562.4683">showProfileLink: Signal&lt;boolean&gt;</text><line style="stroke:#181818;stroke-width:1;" x1="397.69" x2="501.8394" y1="523.357" y2="523.357"/><text fill="#000000" font-family="sans-serif" font-size="10" lengthAdjust="spacing" textLength="74.3213" x="501.8394" y="526.6363">Inputs (Signals)</text><line style="stroke:#181818;stroke-width:1;" x1="576.1607" x2="680.3101" y1="523.357" y2="523.357"/><g data-visibility-modifier="PUBLIC_FIELD"><ellipse cx="407.69" cy="587.7437" fill="none" rx="3" ry="3" style="stroke:#038048;stroke-width:1;"/></g><text fill="#000000" font-family="sans-serif" font-size="10" lengthAdjust="spacing" textLength="209.2725" x="414.69" y="590.023">profileRequested: OutputEmitterRef&lt;void&gt;</text><g data-visibility-modifier="PUBLIC_FIELD"><ellipse cx="407.69" cy="599.521" fill="none" rx="3" ry="3" style="stroke:#038048;stroke-width:1;"/></g><text fill="#000000" font-family="sans-serif" font-size="10" lengthAdjust="spacing" textLength="260.6201" x="414.69" y="601.8003">passwordChangeRequested: OutputEmitterRef&lt;void&gt;</text><line style="stroke:#181818;stroke-width:1;" x1="397.69" x2="519.4737" y1="574.4663" y2="574.4663"/><text fill="#000000" font-family="sans-serif" font-size="10" lengthAdjust="spacing" textLength="39.0527" x="519.4737" y="577.7456">Outputs</text><line style="stroke:#181818;stroke-width:1;" x1="558.5264" x2="680.3101" y1="574.4663" y2="574.4663"/><line style="stroke:#181818;stroke-width:1;" x1="397.69" x2="680.3101" y1="607.9097" y2="607.9097"/><g data-visibility-modifier="PUBLIC_METHOD"><ellipse cx="407.69" cy="619.2984" fill="#84BE84" rx="3" ry="3" style="stroke:#038048;stroke-width:1;"/></g><text fill="#000000" font-family="sans-serif" font-size="10" lengthAdjust="spacing" textLength="195.0391" x="414.69" y="621.5777">emitProfileRequested(event: Event): void</text><g data-visibility-modifier="PUBLIC_METHOD"><ellipse cx="407.69" cy="631.0757" fill="#84BE84" rx="3" ry="3" style="stroke:#038048;stroke-width:1;"/></g><text fill="#000000" font-family="sans-serif" font-size="10" lengthAdjust="spacing" textLength="246.3867" x="414.69" y="633.355">emitPasswordChangeRequested(event: Event): void</text></g><!--class ImpTag--><g class="entity" data-qualified-name="Shared Components.ImpTag" data-source-line="101" id="ent0009"><rect fill="#F1F1F1" height="67.5547" rx="2.5" ry="2.5" style="stroke:#181818;stroke-width:0.5;" width="172.7607" x="22.62" y="526.6883"/><ellipse cx="35.62" cy="540.6883" fill="#ADD1B2" rx="9" ry="9" style="stroke:#181818;stroke-width:1;"/><path d="M36.8983,544.4783 Q36.5565,544.6541 36.1805,544.742 Q35.8046,544.8299 35.3895,544.8299 Q33.9149,544.8299 33.1386,543.8582 Q32.3622,542.8865 32.3622,541.0506 Q32.3622,539.2098 33.1386,538.2381 Q33.9149,537.2664 35.3895,537.2664 Q35.8046,537.2664 36.1854,537.3543 Q36.5663,537.4422 36.8983,537.618 L36.8983,539.2195 Q36.5272,538.8777 36.1781,538.719 Q35.829,538.5604 35.4579,538.5604 Q34.6669,538.5604 34.264,539.1878 Q33.8612,539.8152 33.8612,541.0506 Q33.8612,542.2811 34.264,542.9085 Q34.6669,543.5359 35.4579,543.5359 Q35.829,543.5359 36.1781,543.3772 Q36.5272,543.2186 36.8983,542.8768 Z " fill="#000000"/><text fill="#000000" font-family="sans-serif" font-size="10" lengthAdjust="spacing" textLength="144.7607" x="47.62" y="544.4676">ImpersonationTagComponent</text><line style="stroke:#181818;stroke-width:0.5;" x1="23.62" x2="194.3807" y1="554.6883" y2="554.6883"/><line style="stroke:#181818;stroke-width:1;" x1="23.62" x2="194.3807" y1="562.6883" y2="562.6883"/><text fill="#000000" font-family="sans-serif" font-size="10" lengthAdjust="spacing" textLength="141.626" x="28.62" y="576.3563">// Static component showing</text><text fill="#000000" font-family="sans-serif" font-size="10" lengthAdjust="spacing" textLength="159.8486" x="28.62" y="588.1336">// "OBFUSCATED MODE" warning</text></g><!--class LogoutBtn--><g class="entity" data-qualified-name="Shared Components.LogoutBtn" data-source-line="107" id="ent0010"><rect fill="#F1F1F1" height="83.332" rx="2.5" ry="2.5" style="stroke:#181818;stroke-width:0.5;" width="184.7813" x="203.61" y="518.8083"/><ellipse cx="232.197" cy="532.8083" fill="#ADD1B2" rx="9" ry="9" style="stroke:#181818;stroke-width:1;"/><path d="M233.4753,536.5983 Q233.1335,536.7741 232.7575,536.862 Q232.3815,536.9499 231.9665,536.9499 Q230.4919,536.9499 229.7155,535.9782 Q228.9392,535.0065 228.9392,533.1706 Q228.9392,531.3298 229.7155,530.3581 Q230.4919,529.3864 231.9665,529.3864 Q232.3815,529.3864 232.7624,529.4743 Q233.1433,529.5622 233.4753,529.738 L233.4753,531.3395 Q233.1042,530.9977 232.7551,530.839 Q232.4059,530.6804 232.0349,530.6804 Q231.2438,530.6804 230.841,531.3078 Q230.4382,531.9352 230.4382,533.1706 Q230.4382,534.4011 230.841,535.0285 Q231.2438,535.6559 232.0349,535.6559 Q232.4059,535.6559 232.7551,535.4972 Q233.1042,535.3386 233.4753,534.9968 Z " fill="#000000"/><text fill="#000000" font-family="sans-serif" font-size="10" lengthAdjust="spacing" textLength="122.1436" x="247.6607" y="536.5876">LogoutButtonComponent</text><line style="stroke:#181818;stroke-width:0.5;" x1="204.61" x2="387.3913" y1="546.8083" y2="546.8083"/><g data-visibility-modifier="PUBLIC_FIELD"><ellipse cx="214.61" cy="573.9743" fill="none" rx="3" ry="3" style="stroke:#038048;stroke-width:1;"/></g><text fill="#000000" font-family="sans-serif" font-size="10" lengthAdjust="spacing" textLength="160.7813" x="221.61" y="576.2536">clicked: OutputEmitterRef&lt;void&gt;</text><line style="stroke:#181818;stroke-width:1;" x1="204.61" x2="276.4743" y1="560.697" y2="560.697"/><text fill="#000000" font-family="sans-serif" font-size="10" lengthAdjust="spacing" textLength="39.0527" x="276.4743" y="563.9763">Outputs</text><line style="stroke:#181818;stroke-width:1;" x1="315.527" x2="387.3913" y1="560.697" y2="560.697"/><line style="stroke:#181818;stroke-width:1;" x1="204.61" x2="387.3913" y1="582.363" y2="582.363"/><g data-visibility-modifier="PUBLIC_METHOD"><ellipse cx="214.61" cy="593.7516" fill="#84BE84" rx="3" ry="3" style="stroke:#038048;stroke-width:1;"/></g><text fill="#000000" font-family="sans-serif" font-size="10" lengthAdjust="spacing" textLength="69.3506" x="221.61" y="596.0309">onClick(): void</text></g><!--class ImpBanner--><g class="entity" data-qualified-name="Shared Components.ImpBanner" data-source-line="114" id="ent0011"><rect fill="#F1F1F1" height="95.1094" rx="2.5" ry="2.5" style="stroke:#181818;stroke-width:0.5;" width="233.6113" x="935.19" y="268.3683"/><ellipse cx="968.7019" cy="282.3683" fill="#ADD1B2" rx="9" ry="9" style="stroke:#181818;stroke-width:1;"/><path d="M969.9802,286.1583 Q969.6384,286.3341 969.2625,286.422 Q968.8865,286.5099 968.4714,286.5099 Q966.9968,286.5099 966.2205,285.5382 Q965.4441,284.5665 965.4441,282.7306 Q965.4441,280.8898 966.2205,279.9181 Q966.9968,278.9464 968.4714,278.9464 Q968.8865,278.9464 969.2673,279.0343 Q969.6482,279.1222 969.9802,279.298 L969.9802,280.8995 Q969.6091,280.5577 969.26,280.399 Q968.9109,280.2404 968.5398,280.2404 Q967.7488,280.2404 967.346,280.8678 Q966.9431,281.4952 966.9431,282.7306 Q966.9431,283.9611 967.346,284.5885 Q967.7488,285.2159 968.5398,285.2159 Q968.9109,285.2159 969.26,285.0572 Q969.6091,284.8986 969.9802,284.5568 Z " fill="#000000"/><text fill="#000000" font-family="sans-serif" font-size="10" lengthAdjust="spacing" textLength="160.0293" x="985.2601" y="286.1476">ImpersonationBannerComponent</text><line style="stroke:#181818;stroke-width:0.5;" x1="936.19" x2="1167.8013" y1="296.3683" y2="296.3683"/><g data-visibility-modifier="PUBLIC_FIELD"><ellipse cx="946.19" cy="323.5343" fill="none" rx="3" ry="3" style="stroke:#038048;stroke-width:1;"/></g><text fill="#000000" font-family="sans-serif" font-size="10" lengthAdjust="spacing" textLength="118.1494" x="953.19" y="325.8136">active: Signal&lt;boolean&gt;</text><g data-visibility-modifier="PUBLIC_FIELD"><ellipse cx="946.19" cy="335.3116" fill="none" rx="3" ry="3" style="stroke:#038048;stroke-width:1;"/></g><text fill="#000000" font-family="sans-serif" font-size="10" lengthAdjust="spacing" textLength="205.498" x="953.19" y="337.5909">impersonatedUserId: Signal&lt;string | null&gt;</text><line style="stroke:#181818;stroke-width:1;" x1="936.19" x2="1014.835" y1="310.257" y2="310.257"/><text fill="#000000" font-family="sans-serif" font-size="10" lengthAdjust="spacing" textLength="74.3213" x="1014.835" y="313.5363">Inputs (Signals)</text><line style="stroke:#181818;stroke-width:1;" x1="1089.1563" x2="1167.8013" y1="310.257" y2="310.257"/><line style="stroke:#181818;stroke-width:1;" x1="936.19" x2="1167.8013" y1="343.7003" y2="343.7003"/><text fill="#000000" font-family="sans-serif" font-size="10" lengthAdjust="spacing" textLength="221.6113" x="941.19" y="357.3683">// Defined in shared, but not used by Sidebar</text></g><!--class PlaceholderPage--><g class="entity" data-qualified-name="Shared Components.PlaceholderPage" data-source-line="122" id="ent0012"><rect fill="#F1F1F1" height="83.332" rx="2.5" ry="2.5" style="stroke:#181818;stroke-width:0.5;" width="229.085" x="1176.46" y="274.2583"/><ellipse cx="1219.6304" cy="288.2583" fill="#ADD1B2" rx="9" ry="9" style="stroke:#181818;stroke-width:1;"/><path d="M1220.9087,292.0483 Q1220.5669,292.2241 1220.191,292.312 Q1219.815,292.3999 1219.3999,292.3999 Q1217.9253,292.3999 1217.149,291.4282 Q1216.3726,290.4565 1216.3726,288.6206 Q1216.3726,286.7798 1217.149,285.8081 Q1217.9253,284.8364 1219.3999,284.8364 Q1219.815,284.8364 1220.1958,284.9243 Q1220.5767,285.0122 1220.9087,285.188 L1220.9087,286.7895 Q1220.5376,286.4477 1220.1885,286.289 Q1219.8394,286.1304 1219.4683,286.1304 Q1218.6773,286.1304 1218.2745,286.7578 Q1217.8716,287.3852 1217.8716,288.6206 Q1217.8716,289.8511 1218.2745,290.4785 Q1218.6773,291.1059 1219.4683,291.1059 Q1219.8394,291.1059 1220.1885,290.9472 Q1220.5376,290.7886 1220.9087,290.4468 Z " fill="#000000"/><text fill="#000000" font-family="sans-serif" font-size="10" lengthAdjust="spacing" textLength="135.2441" x="1237.1304" y="292.0376">PlaceholderPageComponent</text><line style="stroke:#181818;stroke-width:0.5;" x1="1177.46" x2="1404.545" y1="302.2583" y2="302.2583"/><g data-visibility-modifier="PUBLIC_FIELD"><ellipse cx="1187.46" cy="329.4243" fill="none" rx="3" ry="3" style="stroke:#038048;stroke-width:1;"/></g><text fill="#000000" font-family="sans-serif" font-size="10" lengthAdjust="spacing" textLength="53.4229" x="1194.46" y="331.7036">title: string</text><line style="stroke:#181818;stroke-width:1;" x1="1177.46" x2="1266.4932" y1="316.147" y2="316.147"/><text fill="#000000" font-family="sans-serif" font-size="10" lengthAdjust="spacing" textLength="49.0186" x="1266.4932" y="319.4263">Properties</text><line style="stroke:#181818;stroke-width:1;" x1="1315.5118" x2="1404.545" y1="316.147" y2="316.147"/><line style="stroke:#181818;stroke-width:1;" x1="1177.46" x2="1404.545" y1="337.813" y2="337.813"/><text fill="#000000" font-family="sans-serif" font-size="10" lengthAdjust="spacing" textLength="217.085" x="1182.46" y="351.4809">// Scaffold page for features in development</text></g><g class="entity" data-qualified-name="GMN17" data-source-line="138" id="ent0018"><path d="M42.32,43.4883 L42.32,112.375 A0,0 0 0 0 42.32,112.375 L166,112.375 L170,201.0883 L174,112.375 L297.6804,112.375 A0,0 0 0 0 297.6804,112.375 L297.6804,53.4883 L287.6804,43.4883 L42.32,43.4883 A0,0 0 0 0 42.32,43.4883" fill="#FEFFDD" style="stroke:#181818;stroke-width:0.5;"/><path d="M287.6804,43.4883 L287.6804,53.4883 L297.6804,53.4883 L287.6804,43.4883" fill="#FEFFDD" style="stroke:#181818;stroke-width:0.5;"/><text fill="#000000" font-family="sans-serif" font-size="10" lengthAdjust="spacing" textLength="184.0234" x="48.32" y="58.1563">Main navigation sidebar. Shows/hides</text><text fill="#000000" font-family="sans-serif" font-size="10" lengthAdjust="spacing" textLength="150.5664" x="48.32" y="69.9336">menu items based on user role</text><text fill="#000000" font-family="sans-serif" font-size="10" lengthAdjust="spacing" textLength="214.8291" x="48.32" y="81.7109">(tenant_user, tenant_admin, system_admin).</text><text fill="#000000" font-family="sans-serif" font-size="10" lengthAdjust="spacing" textLength="234.3604" x="48.32" y="93.4883">During impersonation: shows ImpersonationTag</text><text fill="#000000" font-family="sans-serif" font-size="10" lengthAdjust="spacing" textLength="158.7939" x="48.32" y="105.2656">and "Exit impersonation" button.</text></g><g class="entity" data-qualified-name="GMN20" data-source-line="146" id="ent0021"><path d="M1691.53,531.9183 L1691.53,589.0277 L1908.4724,589.0277 L1908.4724,541.9183 L1898.4724,531.9183 L1691.53,531.9183" fill="#FEFFDD" style="stroke:#181818;stroke-width:0.5;"/><path d="M1898.4724,531.9183 L1898.4724,541.9183 L1908.4724,541.9183 L1898.4724,531.9183" fill="#FEFFDD" style="stroke:#181818;stroke-width:1;"/><text fill="#000000" font-family="sans-serif" font-size="10" lengthAdjust="spacing" textLength="183.4521" x="1697.53" y="546.5863">Generic modal overlay with backdrop.</text><text fill="#000000" font-family="sans-serif" font-size="10" lengthAdjust="spacing" textLength="147.7295" x="1697.53" y="558.3636">Uses HTML &lt;dialog&gt; element.</text><text fill="#000000" font-family="sans-serif" font-size="10" lengthAdjust="spacing" textLength="195.9424" x="1697.53" y="570.1409">Listens to @HostListener clicks to detect</text><text fill="#000000" font-family="sans-serif" font-size="10" lengthAdjust="spacing" textLength="177.4951" x="1697.53" y="581.9183">when the dialog backdrop is clicked.</text></g><g class="entity" data-qualified-name="GMN23" data-source-line="153" id="ent0024"><path d="M1437.74,287.3683 L1437.74,344.4777 L1640.2634,344.4777 L1640.2634,297.3683 L1630.2634,287.3683 L1437.74,287.3683" fill="#FEFFDD" style="stroke:#181818;stroke-width:0.5;"/><path d="M1630.2634,287.3683 L1630.2634,297.3683 L1640.2634,297.3683 L1630.2634,287.3683" fill="#FEFFDD" style="stroke:#181818;stroke-width:1;"/><text fill="#000000" font-family="sans-serif" font-size="10" lengthAdjust="spacing" textLength="181.5234" x="1443.74" y="302.0363">Reusable multi-select dropdown with</text><text fill="#000000" font-family="sans-serif" font-size="10" lengthAdjust="spacing" textLength="173.8232" x="1443.74" y="313.8136">integrated search. Opens/closes via</text><text fill="#000000" font-family="sans-serif" font-size="10" lengthAdjust="spacing" textLength="153.999" x="1443.74" y="325.5909">document click and Escape key.</text><text fill="#000000" font-family="sans-serif" font-size="10" lengthAdjust="spacing" textLength="152.4219" x="1443.74" y="337.3683">Fully driven by Angular Signals.</text></g><g class="entity" data-qualified-name="GMN26" data-source-line="160" id="ent0027"><path d="M1438.16,520.1383 L1438.16,600.8023 L1683.8475,600.8023 L1683.8475,530.1383 L1673.8475,520.1383 L1438.16,520.1383" fill="#FEFFDD" style="stroke:#181818;stroke-width:0.5;"/><path d="M1673.8475,520.1383 L1673.8475,530.1383 L1683.8475,530.1383 L1673.8475,520.1383" fill="#FEFFDD" style="stroke:#181818;stroke-width:1;"/><text fill="#000000" font-family="sans-serif" font-size="10" lengthAdjust="spacing" textLength="175" x="1444.16" y="534.8063">Colored badge component mapping</text><text fill="#000000" font-family="sans-serif" font-size="10" lengthAdjust="spacing" textLength="140.5566" x="1444.16" y="546.5836">status strings to CSS classes:</text><text fill="#000000" font-family="sans-serif" font-size="10" lengthAdjust="spacing" textLength="106.5918" x="1444.16" y="558.3609">- is-good: online, ack</text><text fill="#000000" font-family="sans-serif" font-size="10" lengthAdjust="spacing" textLength="196.626" x="1444.16" y="570.1383">- is-warn: paused, provisioning, queued</text><text fill="#000000" font-family="sans-serif" font-size="10" lengthAdjust="spacing" textLength="224.6875" x="1444.16" y="581.9156">- is-bad: offline, nack, expired, timeout, error</text><text fill="#000000" font-family="sans-serif" font-size="10" lengthAdjust="spacing" textLength="97.1826" x="1444.16" y="593.693">- is-neutral: default</text></g><!--link Sidebar to ImpTag--><g class="link" data-entity-1="ent0003" data-entity-2="ent0009" data-link-type="dependency" data-source-line="130" id="lnk13"><path codeLine="130" d="M109.34,430.6783 C109.34,465.5483 109.34,495.2383 109.34,520.3483" fill="none" id="Sidebar-to-ImpTag" style="stroke:#181818;stroke-width:1;"/><polygon fill="#181818" points="109.34,526.3483,113.34,517.3483,109.34,521.3483,105.34,517.3483,109.34,526.3483" style="stroke:#181818;stroke-width:1;"/></g><!--link Sidebar to ProfileSection--><g class="link" data-entity-1="ent0003" data-entity-2="ent0008" data-link-type="dependency" data-source-line="131" id="lnk14"><path codeLine="131" d="M279.01,430.6983 C279.01,468.2283 279.01,500.4683 279.01,500.4683 C279.01,500.4683 329.9,500.4683 390.45,500.4683" fill="none" id="Sidebar-to-ProfileSection" style="stroke:#181818;stroke-width:1;"/><polygon fill="#181818" points="396.45,500.4683,387.45,496.4683,391.45,500.4683,387.45,504.4683,396.45,500.4683" style="stroke:#181818;stroke-width:1;"/></g><!--link Sidebar to LogoutBtn--><g class="link" data-entity-1="ent0003" data-entity-2="ent0010" data-link-type="dependency" data-source-line="132" id="lnk15"><path codeLine="132" d="M241.31,430.6783 C241.31,462.0783 241.31,488.1383 241.31,512.5383" fill="none" id="Sidebar-to-LogoutBtn" style="stroke:#181818;stroke-width:1;"/><polygon fill="#181818" points="241.31,518.5383,245.31,509.5383,241.31,513.5383,237.31,509.5383,241.31,518.5383" style="stroke:#181818;stroke-width:1;"/></g><!--link DeleteModal to ModalLayer--><g class="link" data-entity-1="ent0007" data-entity-2="ent0004" data-link-type="dependency" data-source-line="134" id="lnk16"><path codeLine="134" d="M728.25,401.1083 C728.25,471.6883 728.25,560.4683 728.25,560.4683 C728.25,560.4683 834.62,560.4683 925.92,560.4683" fill="none" id="DeleteModal-to-ModalLayer" style="stroke:#181818;stroke-width:1;"/><polygon fill="#181818" points="931.92,560.4683,922.92,556.4683,926.92,560.4683,922.92,564.4683,931.92,560.4683" style="stroke:#181818;stroke-width:1;"/></g><!--link ModalLayer to GMN20--><g class="link" data-entity-1="ent0004" data-entity-2="ent0021" data-link-type="association" data-source-line="146" id="lnk22"><path d="M1162.18,509.4683 C1373.12,509.4683 1800,509.4683 1800,509.4683 C1800,509.4683 1800,520.1183 1800,531.6883" fill="none" id="ModalLayer-GMN20" style="stroke:#181818;stroke-width:1;stroke-dasharray:7,7;"/></g><!--link GMN23 to MultiSelect--><g class="link" data-entity-1="ent0024" data-entity-2="ent0005" data-link-type="association" data-source-line="153" id="lnk25"><path d="M1505.52,344.7283 C1505.52,380.6683 1505.52,437.4683 1505.52,437.4683 C1505.52,437.4683 845.44,437.4683 567.28,437.4683" fill="none" id="GMN23-MultiSelect" style="stroke:#181818;stroke-width:1;stroke-dasharray:7,7;"/></g><!--link StatusBadge to GMN26--><g class="link" data-entity-1="ent0006" data-entity-2="ent0027" data-link-type="association" data-source-line="160" id="lnk28"><path d="M855,358.0683 C855,371.2683 855,382.4683 855,382.4683 C855,382.4683 1572.89,382.4683 1572.89,382.4683 C1572.89,382.4683 1572.89,467.5583 1572.89,520.0783" fill="none" id="StatusBadge-GMN26" style="stroke:#181818;stroke-width:1;stroke-dasharray:7,7;"/></g><?plantuml-src lLXjJoCt4FwUNp6Y7ygf2Lo_LGX5FGBqaA11X5C_d4wLivxTM7ZjhUrDBdtvxntRk-nBDiTAbOgG89x7utbvPZoE4quY_Bfyldk4MwELGyLX1giDCyXXeVD2ArJEJYRsHQY26PR3cYKlcT6buWijjO7lRiDF2y4nPQLqjwHl9Vv4-F7ziB3Q_pxyj21ASxHOm4-jDSFKItzD2eLkNo1eupPwCYd8CfOXd1pOVmANbq-OEAOoYVCv_3K1eDz4Cci9BZYkcNc5dm2pK2q6AC1i1dUgA9s5qvN859Fs7Qq5qG_2tkK56giLSq9b5n0Hbskj9J8rZwZIeb4inrUnTORGbTGGz5NoYQ1Fj32lZrwMBfnTdoXrfaltX7-KQ1toYmfmamldQ2kcbrijUALQDCPfjNAw6BclC3eL4iUYAP8xRVXYGp4UkQbs9qTLtZdCxUcx2tYeFdp-4eL8E--3lrxgDpVhTqTTEyG-zjmPG0oxq07Eaj8OeeXFZnVKgIBXFvE6KG-QCtdFzjWZLRC-WbUwG7M4J8dK5fVgYWZFZIw6KGF4MLSR5dx_kEHezL5Rjv0YUJd5BJb2AT94vXl_VnEQZlTKtsA5aWhkcWxZUgTwOMW0e-BWqsjxXVFvInKB6_HuRuRbXMG9RhJaQ8Phpo8poURnBPZIJsZ9S7lFrYY7CLnOjfOjMzvAI6ryvDn0GhhEa8QLOmu7kz0oyEKt8votOP0tqTLdDFa1iEr7a_jhdPHKdc_dFw1lRC8Ax5QMqndrN5_LtVMouEJ8AXXqkcMo9E-Z3GFRbu42tu09kweYUG2g8j2ED-aAIVGMHLoKKeEWi2EFnzb6N3MZcT8cPvBkjEEGK9ezTzl5uVDNsYl6C-nTE8rWH57OW1vaOLFi_Wn_QiVFjZ7N50v7TgXKc3mqfwvDKHu4_wrXEJze3DTCZjQox8XmNThzw69AeXzlNLK9KmbAERh_LU4vxP5z4TGSoN9rswmYsRf1xSf6nFNOw413ZQ5RIX1ZvqDpn76OtUXTPSQzK2-Z8_p_pGI3LtRLVmvRpxUkx-5DxMHrneXdbdNJHL9QUqrJ-7D-7ifL993KMF0nhJi9oK-MLxUVLeiFppVNyB2ylZc17JFgi0JZR7DLEjVdIILnBOeSCDwtvV543aryH0okc5BzqOK0SNa4OHanUuj7Ma4pZoBtuzDT_-Q6lq6LKivx0R_6bEPz3a9HgFryFuLrwUYnu80AXCDwNy_i_LfiRlP7rk-wFM7Z796Fx7G2csXNJQnrOxJeaB0q9JLGU2qflMjIf0vjQ3iPp8c4KXV-9gsD-vvcHmyrA4FCxKOKbe268iSXDJe7YXIzR2o1wyV8R3Ql-DXRxFQKdl2LIFxSTaltmcOadP1T54q46gH1fwreFZ3oGR6jo8AfOAFaZ1wAUcVFD_JHM-ddU11-aAT7eay9GNtl0j-L_7lhbDwNJBdV_U8KgW-Cvq9DmUwfMlFuwTsPDxGCPEWyNov2bGKoTYgMu8nUhYStNuNhxZZn9A7IEflufwrthtBIY6pZl9kj003yWiHmAkiyn4TlqKYsXvrm6wXdPsyRyTR2n-U7UxZaWj5pR0uKLfzUBxqNv8go54VusG_FyJF58PHhMEUKWyHpORT11Mw34FMydWB2GbNT1wPBJAFbpHXDcfwm3CCdv7vv5YSTuDK07dmWbA0tVcPyxK4S1i_0putsFCmj5hQ24OfNOryq8SGspdRmWdlluYqLw9wK4rcLhxmFAYibqQrg1GSchpKb8G-iQiOSqXE-0l356yQUffdch2XYaSL1fogw4Bl5QXLB6-q50MOKgbccDRKHhVnN0bEW6DO2ttGlg2XzYvW2tLzROOaMf6iAT4EKo6iacK0QqZIgKAHZ2lYr4A7JE94ZrH2j6ADDlKLXwGoZjq3rfKRZzRy0?></g></svg>