<?plantuml 1.2026.2?><svg xmlns="http://www.w3.org/2000/svg" xmlns:xlink="http://www.w3.org/1999/xlink" contentStyleType="text/css" data-diagram-type="CLASS" height="661px" preserveAspectRatio="none" style="width:1424px;height:661px;background:#FFFFFF;" version="1.1" viewBox="0 0 1424 661" width="1424px" zoomAndPan="magnify"><title>NoTIP Frontend - Shared Components</title><defs/><g><g class="title" data-source-line="1"><text fill="#000000" font-family="sans-serif" font-size="14" font-weight="bold" lengthAdjust="spacing" textLength="275.0303" x="567.7211" y="23.5352">NoTIP Frontend - Shared Components</text></g><!--cluster Shared Components--><g class="cluster" data-qualified-name="Shared Components" data-source-line="11" id="ent0002"><rect fill="none" height="527.1" rx="2.5" ry="2.5" style="stroke:#181818;stroke-width:1;" width="924" x="7" y="128.3683"/><text fill="#000000" font-family="sans-serif" font-size="10" font-weight="bold" lengthAdjust="spacing" textLength="103.4082" x="417.2959" y="140.0363">Shared Components</text></g><!--class Sidebar--><g class="entity" data-qualified-name="Shared Components.Sidebar" data-source-line="13" id="ent0003"><rect fill="#F1F1F1" height="228.6602" rx="2.5" ry="2.5" style="stroke:#181818;stroke-width:0.5;" width="289.3584" x="23.32" y="201.5883"/><ellipse cx="117.9455" cy="215.5883" fill="#ADD1B2" rx="9" ry="9" style="stroke:#181818;stroke-width:1;"/><path d="M119.2238,219.3783 Q118.882,219.5541 118.506,219.642 Q118.1301,219.7299 117.715,219.7299 Q116.2404,219.7299 115.464,218.7582 Q114.6877,217.7865 114.6877,215.9506 Q114.6877,214.1098 115.464,213.1381 Q116.2404,212.1664 117.715,212.1664 Q118.1301,212.1664 118.5109,212.2543 Q118.8918,212.3422 119.2238,212.518 L119.2238,214.1195 Q118.8527,213.7777 118.5036,213.619 Q118.1545,213.4604 117.7834,213.4604 Q116.9924,213.4604 116.5895,214.0878 Q116.1867,214.7152 116.1867,215.9506 Q116.1867,217.1811 116.5895,217.8085 Q116.9924,218.4359 117.7834,218.4359 Q118.1545,218.4359 118.5036,218.2772 Q118.8527,218.1186 119.2238,217.7768 Z " fill="#000000"/><text fill="#000000" font-family="sans-serif" font-size="10" lengthAdjust="spacing" textLength="92.6074" x="135.4455" y="219.3676">SidebarComponent</text><line style="stroke:#181818;stroke-width:0.5;" x1="24.32" x2="311.6784" y1="229.5883" y2="229.5883"/><text fill="#000000" font-family="sans-serif" font-size="10" lengthAdjust="spacing" textLength="176.2793" x="29.32" y="259.0336">+isImpersonating: Signal&lt;boolean&gt;</text><text fill="#000000" font-family="sans-serif" font-size="10" lengthAdjust="spacing" textLength="135.1709" x="29.32" y="270.8109">+username: Signal&lt;string&gt;</text><text fill="#000000" font-family="sans-serif" font-size="10" lengthAdjust="spacing" textLength="120.6201" x="29.32" y="282.5883">+role: Signal&lt;UserRole&gt;</text><line style="stroke:#181818;stroke-width:1;" x1="24.32" x2="130.8386" y1="243.477" y2="243.477"/><text fill="#000000" font-family="sans-serif" font-size="10" lengthAdjust="spacing" textLength="74.3213" x="130.8386" y="246.7563">Inputs (Signals)</text><line style="stroke:#181818;stroke-width:1;" x1="205.1598" x2="311.6784" y1="243.477" y2="243.477"/><text fill="#000000" font-family="sans-serif" font-size="10" lengthAdjust="spacing" textLength="217.0215" x="29.32" y="310.143">+logoutRequested: OutputEmitterRef&lt;void&gt;</text><text fill="#000000" font-family="sans-serif" font-size="10" lengthAdjust="spacing" textLength="277.3584" x="29.32" y="321.9203">+impersonationStopRequested: OutputEmitterRef&lt;void&gt;</text><text fill="#000000" font-family="sans-serif" font-size="10" lengthAdjust="spacing" textLength="217.2217" x="29.32" y="333.6977">+profileRequested: OutputEmitterRef&lt;void&gt;</text><text fill="#000000" font-family="sans-serif" font-size="10" lengthAdjust="spacing" textLength="268.5693" x="29.32" y="345.475">+passwordChangeRequested: OutputEmitterRef&lt;void&gt;</text><line style="stroke:#181818;stroke-width:1;" x1="24.32" x2="148.4728" y1="294.5863" y2="294.5863"/><text fill="#000000" font-family="sans-serif" font-size="10" lengthAdjust="spacing" textLength="39.0527" x="148.4728" y="297.8656">Outputs</text><line style="stroke:#181818;stroke-width:1;" x1="187.5256" x2="311.6784" y1="294.5863" y2="294.5863"/><line style="stroke:#181818;stroke-width:1;" x1="24.32" x2="311.6784" y1="351.5844" y2="351.5844"/><text fill="#000000" font-family="sans-serif" font-size="10" lengthAdjust="spacing" textLength="129.3555" x="29.32" y="365.2523">+menuItems(): MenuItem[]</text><text fill="#000000" font-family="sans-serif" font-size="10" lengthAdjust="spacing" textLength="96.6211" x="29.32" y="377.0297">+emitLogout(): void</text><text fill="#000000" font-family="sans-serif" font-size="10" lengthAdjust="spacing" textLength="205.1758" x="29.32" y="388.807">+emitImpersonationStopRequested(): void</text><text fill="#000000" font-family="sans-serif" font-size="10" lengthAdjust="spacing" textLength="144.2822" x="29.32" y="400.5844">+emitProfileRequested(): void</text><text fill="#000000" font-family="sans-serif" font-size="10" lengthAdjust="spacing" textLength="195.6299" x="29.32" y="412.3617">+emitPasswordChangeRequested(): void</text><text fill="#000000" font-family="sans-serif" font-size="10" lengthAdjust="spacing" textLength="117.1924" x="29.32" y="424.1391">-currentRole(): UserRole</text></g><!--class ModalLayer--><g class="entity" data-qualified-name="Shared Components.ModalLayer" data-source-line="32" id="ent0004"><rect fill="#F1F1F1" height="122.6641" rx="2.5" ry="2.5" style="stroke:#181818;stroke-width:0.5;" width="225.5156" x="685.24" y="499.1383"/><ellipse cx="738.3665" cy="513.1383" fill="#ADD1B2" rx="9" ry="9" style="stroke:#181818;stroke-width:1;"/><path d="M739.6448,516.9283 Q739.303,517.1041 738.927,517.192 Q738.551,517.2799 738.136,517.2799 Q736.6614,517.2799 735.885,516.3082 Q735.1087,515.3365 735.1087,513.5006 Q735.1087,511.6598 735.885,510.6881 Q736.6614,509.7164 738.136,509.7164 Q738.551,509.7164 738.9319,509.8043 Q739.3128,509.8922 739.6448,510.068 L739.6448,511.6695 Q739.2737,511.3277 738.9246,511.169 Q738.5754,511.0104 738.2044,511.0104 Q737.4133,511.0104 737.0105,511.6378 Q736.6077,512.2652 736.6077,513.5006 Q736.6077,514.7311 737.0105,515.3585 Q737.4133,515.9859 738.2044,515.9859 Q738.5754,515.9859 738.9246,515.8272 Q739.2737,515.6686 739.6448,515.3268 Z " fill="#000000"/><text fill="#000000" font-family="sans-serif" font-size="10" lengthAdjust="spacing" textLength="111.7627" x="755.8665" y="516.9176">ModalLayerComponent</text><line style="stroke:#181818;stroke-width:0.5;" x1="686.24" x2="909.7556" y1="527.1383" y2="527.1383"/><text fill="#000000" font-family="sans-serif" font-size="10" lengthAdjust="spacing" textLength="122.29" x="691.24" y="556.5836">+open: Signal&lt;boolean&gt;</text><text fill="#000000" font-family="sans-serif" font-size="10" lengthAdjust="spacing" textLength="181.9385" x="691.24" y="568.3609">+closeOnBackdrop: Signal&lt;boolean&gt;</text><line style="stroke:#181818;stroke-width:1;" x1="686.24" x2="760.8372" y1="541.027" y2="541.027"/><text fill="#000000" font-family="sans-serif" font-size="10" lengthAdjust="spacing" textLength="74.3213" x="760.8372" y="544.3063">Inputs (Signals)</text><line style="stroke:#181818;stroke-width:1;" x1="835.1585" x2="909.7556" y1="541.027" y2="541.027"/><text fill="#000000" font-family="sans-serif" font-size="10" lengthAdjust="spacing" textLength="213.5156" x="691.24" y="595.9156">+backdropClosed: OutputEmitterRef&lt;void&gt;</text><line style="stroke:#181818;stroke-width:1;" x1="686.24" x2="778.4714" y1="580.359" y2="580.359"/><text fill="#000000" font-family="sans-serif" font-size="10" lengthAdjust="spacing" textLength="39.0527" x="778.4714" y="583.6383">Outputs</text><line style="stroke:#181818;stroke-width:1;" x1="817.5242" x2="909.7556" y1="580.359" y2="580.359"/><line style="stroke:#181818;stroke-width:1;" x1="686.24" x2="909.7556" y1="602.025" y2="602.025"/><text fill="#000000" font-family="sans-serif" font-size="10" lengthAdjust="spacing" textLength="189.9658" x="691.24" y="615.693">+onHostClick(event: MouseEvent): void</text></g><!--class MultiSelect--><g class="entity" data-qualified-name="Shared Components.MultiSelect" data-source-line="42" id="ent0005"><rect fill="#F1F1F1" height="315.1016" rx="2.5" ry="2.5" style="stroke:#181818;stroke-width:0.5;" width="237.7764" x="321.11" y="158.3683"/><ellipse cx="356.7137" cy="172.3683" fill="#ADD1B2" rx="9" ry="9" style="stroke:#181818;stroke-width:1;"/><path d="M357.992,176.1583 Q357.6502,176.3341 357.2743,176.422 Q356.8983,176.5099 356.4832,176.5099 Q355.0086,176.5099 354.2323,175.5382 Q353.4559,174.5665 353.4559,172.7306 Q353.4559,170.8898 354.2323,169.9181 Q355.0086,168.9464 356.4832,168.9464 Q356.8983,168.9464 357.2791,169.0343 Q357.66,169.1222 357.992,169.298 L357.992,170.8995 Q357.6209,170.5577 357.2718,170.399 Q356.9227,170.2404 356.5516,170.2404 Q355.7606,170.2404 355.3578,170.8678 Q354.9549,171.4952 354.9549,172.7306 Q354.9549,173.9611 355.3578,174.5885 Q355.7606,175.2159 356.5516,175.2159 Q356.9227,175.2159 357.2718,175.0572 Q357.6209,174.8986 357.992,174.5568 Z " fill="#000000"/><text fill="#000000" font-family="sans-serif" font-size="10" lengthAdjust="spacing" textLength="159.5459" x="373.7368" y="176.1476">MultiSelectDropdownComponent</text><line style="stroke:#181818;stroke-width:0.5;" x1="322.11" x2="557.8864" y1="186.3683" y2="186.3683"/><text fill="#000000" font-family="sans-serif" font-size="10" lengthAdjust="spacing" textLength="130.5859" x="327.11" y="215.8136">+options: Signal&lt;string[]&gt;</text><text fill="#000000" font-family="sans-serif" font-size="10" lengthAdjust="spacing" textLength="133.9307" x="327.11" y="227.5909">+selected: Signal&lt;string[]&gt;</text><text fill="#000000" font-family="sans-serif" font-size="10" lengthAdjust="spacing" textLength="144.165" x="327.11" y="239.3683">+placeholder: Signal&lt;string&gt;</text><text fill="#000000" font-family="sans-serif" font-size="10" lengthAdjust="spacing" textLength="175.0098" x="327.11" y="251.1456">+searchPlaceholder: Signal&lt;string&gt;</text><text fill="#000000" font-family="sans-serif" font-size="10" lengthAdjust="spacing" textLength="160.4541" x="327.11" y="262.923">+noResultsLabel: Signal&lt;string&gt;</text><text fill="#000000" font-family="sans-serif" font-size="10" lengthAdjust="spacing" textLength="138.9307" x="327.11" y="274.7003">+disabled: Signal&lt;boolean&gt;</text><line style="stroke:#181818;stroke-width:1;" x1="322.11" x2="402.8375" y1="200.257" y2="200.257"/><text fill="#000000" font-family="sans-serif" font-size="10" lengthAdjust="spacing" textLength="74.3213" x="402.8375" y="203.5363">Inputs (Signals)</text><line style="stroke:#181818;stroke-width:1;" x1="477.1588" x2="557.8864" y1="200.257" y2="200.257"/><text fill="#000000" font-family="sans-serif" font-size="10" lengthAdjust="spacing" textLength="225.7764" x="327.11" y="302.255">+selectedChange: OutputEmitterRef&lt;string[]&gt;</text><line style="stroke:#181818;stroke-width:1;" x1="322.11" x2="420.4718" y1="286.6984" y2="286.6984"/><text fill="#000000" font-family="sans-serif" font-size="10" lengthAdjust="spacing" textLength="39.0527" x="420.4718" y="289.9777">Outputs</text><line style="stroke:#181818;stroke-width:1;" x1="459.5246" x2="557.8864" y1="286.6984" y2="286.6984"/><text fill="#000000" font-family="sans-serif" font-size="10" lengthAdjust="spacing" textLength="171.46" x="327.11" y="329.8097">+isOpen: WritableSignal&lt;boolean&gt;</text><text fill="#000000" font-family="sans-serif" font-size="10" lengthAdjust="spacing" textLength="184.0576" x="327.11" y="341.587">+searchTerm: WritableSignal&lt;string&gt;</text><line style="stroke:#181818;stroke-width:1;" x1="322.11" x2="406.07" y1="314.253" y2="314.253"/><text fill="#000000" font-family="sans-serif" font-size="10" lengthAdjust="spacing" textLength="67.8564" x="406.07" y="317.5323">State (Signals)</text><line style="stroke:#181818;stroke-width:1;" x1="473.9264" x2="557.8864" y1="314.253" y2="314.253"/><line style="stroke:#181818;stroke-width:1;" x1="322.11" x2="557.8864" y1="347.6964" y2="347.6964"/><text fill="#000000" font-family="sans-serif" font-size="10" lengthAdjust="spacing" textLength="217.4512" x="327.11" y="361.3644">+onDocumentClick(event: MouseEvent): void</text><text fill="#000000" font-family="sans-serif" font-size="10" lengthAdjust="spacing" textLength="86.6602" x="327.11" y="373.1417">+onEscape(): void</text><text fill="#000000" font-family="sans-serif" font-size="10" lengthAdjust="spacing" textLength="98.6963" x="327.11" y="384.9191">+toggleMenu(): void</text><text fill="#000000" font-family="sans-serif" font-size="10" lengthAdjust="spacing" textLength="166.7676" x="327.11" y="396.6964">+updateSearch(value: string): void</text><text fill="#000000" font-family="sans-serif" font-size="10" lengthAdjust="spacing" textLength="165.0977" x="327.11" y="408.4738">+toggleOption(value: string): void</text><text fill="#000000" font-family="sans-serif" font-size="10" lengthAdjust="spacing" textLength="167.6416" x="327.11" y="420.2511">+isSelected(value: string): boolean</text><text fill="#000000" font-family="sans-serif" font-size="10" lengthAdjust="spacing" textLength="117.8857" x="327.11" y="432.0284">+selectionLabel(): string</text><text fill="#000000" font-family="sans-serif" font-size="10" lengthAdjust="spacing" textLength="128.4131" x="327.11" y="443.8058">+filteredOptions(): string[]</text><text fill="#000000" font-family="sans-serif" font-size="10" lengthAdjust="spacing" textLength="146.2012" x="327.11" y="455.5831">-normalizedOptions(): string[]</text><text fill="#000000" font-family="sans-serif" font-size="10" lengthAdjust="spacing" textLength="90.542" x="327.11" y="467.3605">-closeMenu(): void</text></g><!--class StatusBadge--><g class="entity" data-qualified-name="Shared Components.StatusBadge" data-source-line="68" id="ent0006"><rect fill="#F1F1F1" height="83.332" rx="2.5" ry="2.5" style="stroke:#181818;stroke-width:0.5;" width="143.625" x="771.19" y="274.2583"/><ellipse cx="784.19" cy="288.2583" fill="#ADD1B2" rx="9" ry="9" style="stroke:#181818;stroke-width:1;"/><path d="M785.4683,292.0483 Q785.1265,292.2241 784.7505,292.312 Q784.3746,292.3999 783.9595,292.3999 Q782.4849,292.3999 781.7086,291.4282 Q780.9322,290.4565 780.9322,288.6206 Q780.9322,286.7798 781.7086,285.8081 Q782.4849,284.8364 783.9595,284.8364 Q784.3746,284.8364 784.7554,284.9243 Q785.1363,285.0122 785.4683,285.188 L785.4683,286.7895 Q785.0972,286.4477 784.7481,286.289 Q784.399,286.1304 784.0279,286.1304 Q783.2369,286.1304 782.834,286.7578 Q782.4312,287.3852 782.4312,288.6206 Q782.4312,289.8511 782.834,290.4785 Q783.2369,291.1059 784.0279,291.1059 Q784.399,291.1059 784.7481,290.9472 Q785.0972,290.7886 785.4683,290.4468 Z " fill="#000000"/><text fill="#000000" font-family="sans-serif" font-size="10" lengthAdjust="spacing" textLength="115.625" x="796.19" y="292.0376">StatusBadgeComponent</text><line style="stroke:#181818;stroke-width:0.5;" x1="772.19" x2="913.815" y1="302.2583" y2="302.2583"/><text fill="#000000" font-family="sans-serif" font-size="10" lengthAdjust="spacing" textLength="116.9727" x="777.19" y="331.7036">+status: Signal&lt;string&gt;</text><line style="stroke:#181818;stroke-width:1;" x1="772.19" x2="805.8419" y1="316.147" y2="316.147"/><text fill="#000000" font-family="sans-serif" font-size="10" lengthAdjust="spacing" textLength="74.3213" x="805.8419" y="319.4263">Inputs (Signals)</text><line style="stroke:#181818;stroke-width:1;" x1="880.1631" x2="913.815" y1="316.147" y2="316.147"/><line style="stroke:#181818;stroke-width:1;" x1="772.19" x2="913.815" y1="337.813" y2="337.813"/><text fill="#000000" font-family="sans-serif" font-size="10" lengthAdjust="spacing" textLength="104.4873" x="777.19" y="351.4809">+badgeClass(): string</text></g><!--class DeleteModal--><g class="entity" data-qualified-name="Shared Components.DeleteModal" data-source-line="75" id="ent0007"><rect fill="#F1F1F1" height="169.7734" rx="2.5" ry="2.5" style="stroke:#181818;stroke-width:0.5;" width="196.3262" x="566.84" y="231.0383"/><ellipse cx="585.3336" cy="245.0383" fill="#ADD1B2" rx="9" ry="9" style="stroke:#181818;stroke-width:1;"/><path d="M586.6119,248.8283 Q586.2701,249.0041 585.8942,249.092 Q585.5182,249.1799 585.1031,249.1799 Q583.6285,249.1799 582.8522,248.2082 Q582.0758,247.2365 582.0758,245.4006 Q582.0758,243.5598 582.8522,242.5881 Q583.6285,241.6164 585.1031,241.6164 Q585.5182,241.6164 585.899,241.7043 Q586.2799,241.7922 586.6119,241.968 L586.6119,243.5695 Q586.2408,243.2277 585.8917,243.069 Q585.5426,242.9104 585.1715,242.9104 Q584.3805,242.9104 583.9776,243.5378 Q583.5748,244.1652 583.5748,245.4006 Q583.5748,246.6311 583.9776,247.2585 Q584.3805,247.8859 585.1715,247.8859 Q585.5426,247.8859 585.8917,247.7272 Q586.2408,247.5686 586.6119,247.2268 Z " fill="#000000"/><text fill="#000000" font-family="sans-serif" font-size="10" lengthAdjust="spacing" textLength="156.1182" x="598.5544" y="248.8176">DeleteConfirmModalComponent</text><line style="stroke:#181818;stroke-width:0.5;" x1="567.84" x2="762.1662" y1="259.0383" y2="259.0383"/><text fill="#000000" font-family="sans-serif" font-size="10" lengthAdjust="spacing" textLength="122.29" x="572.84" y="288.4836">+open: Signal&lt;boolean&gt;</text><text fill="#000000" font-family="sans-serif" font-size="10" lengthAdjust="spacing" textLength="106.4014" x="572.84" y="300.2609">+title: Signal&lt;string&gt;</text><text fill="#000000" font-family="sans-serif" font-size="10" lengthAdjust="spacing" textLength="130" x="572.84" y="312.0383">+message: Signal&lt;string&gt;</text><text fill="#000000" font-family="sans-serif" font-size="10" lengthAdjust="spacing" textLength="120.8984" x="572.84" y="323.8156">+busy: Signal&lt;boolean&gt;</text><line style="stroke:#181818;stroke-width:1;" x1="567.84" x2="627.8424" y1="272.927" y2="272.927"/><text fill="#000000" font-family="sans-serif" font-size="10" lengthAdjust="spacing" textLength="74.3213" x="627.8424" y="276.2063">Inputs (Signals)</text><line style="stroke:#181818;stroke-width:1;" x1="702.1637" x2="762.1662" y1="272.927" y2="272.927"/><text fill="#000000" font-family="sans-serif" font-size="10" lengthAdjust="spacing" textLength="184.3262" x="572.84" y="351.3703">+confirmed: OutputEmitterRef&lt;void&gt;</text><text fill="#000000" font-family="sans-serif" font-size="10" lengthAdjust="spacing" textLength="180.1855" x="572.84" y="363.1477">+cancelled: OutputEmitterRef&lt;void&gt;</text><line style="stroke:#181818;stroke-width:1;" x1="567.84" x2="645.4767" y1="335.8137" y2="335.8137"/><text fill="#000000" font-family="sans-serif" font-size="10" lengthAdjust="spacing" textLength="39.0527" x="645.4767" y="339.093">Outputs</text><line style="stroke:#181818;stroke-width:1;" x1="684.5295" x2="762.1662" y1="335.8137" y2="335.8137"/><line style="stroke:#181818;stroke-width:1;" x1="567.84" x2="762.1662" y1="369.257" y2="369.257"/><text fill="#000000" font-family="sans-serif" font-size="10" lengthAdjust="spacing" textLength="92.8955" x="572.84" y="382.925">+onConfirm(): void</text><text fill="#000000" font-family="sans-serif" font-size="10" lengthAdjust="spacing" textLength="85.8643" x="572.84" y="394.7023">+onCancel(): void</text></g><!--class ProfileSection--><g class="entity" data-qualified-name="Shared Components.ProfileSection" data-source-line="89" id="ent0008"><rect fill="#F1F1F1" height="157.9961" rx="2.5" ry="2.5" style="stroke:#181818;stroke-width:0.5;" width="280.5693" x="392.72" y="481.4683"/><ellipse cx="468.0511" cy="495.4683" fill="#ADD1B2" rx="9" ry="9" style="stroke:#181818;stroke-width:1;"/><path d="M469.3294,499.2583 Q468.9876,499.4341 468.6116,499.522 Q468.2356,499.6099 467.8206,499.6099 Q466.346,499.6099 465.5696,498.6382 Q464.7932,497.6665 464.7932,495.8306 Q464.7932,493.9898 465.5696,493.0181 Q466.346,492.0464 467.8206,492.0464 Q468.2356,492.0464 468.6165,492.1343 Q468.9973,492.2222 469.3294,492.398 L469.3294,493.9995 Q468.9583,493.6577 468.6092,493.499 Q468.26,493.3404 467.8889,493.3404 Q467.0979,493.3404 466.6951,493.9678 Q466.2923,494.5952 466.2923,495.8306 Q466.2923,497.0611 466.6951,497.6885 Q467.0979,498.3159 467.8889,498.3159 Q468.26,498.3159 468.6092,498.1572 Q468.9583,497.9986 469.3294,497.6568 Z " fill="#000000"/><text fill="#000000" font-family="sans-serif" font-size="10" lengthAdjust="spacing" textLength="122.4072" x="485.5511" y="499.2476">ProfileSectionComponent</text><line style="stroke:#181818;stroke-width:0.5;" x1="393.72" x2="672.2893" y1="509.4683" y2="509.4683"/><text fill="#000000" font-family="sans-serif" font-size="10" lengthAdjust="spacing" textLength="189.8242" x="398.72" y="538.9136">+username: Signal&lt;string&gt; &#171;required&#187;</text><text fill="#000000" font-family="sans-serif" font-size="10" lengthAdjust="spacing" textLength="160.918" x="398.72" y="550.6909">+role: Signal&lt;string&gt; &#171;required&#187;</text><text fill="#000000" font-family="sans-serif" font-size="10" lengthAdjust="spacing" textLength="174.292" x="398.72" y="562.4683">+showProfileLink: Signal&lt;boolean&gt;</text><line style="stroke:#181818;stroke-width:1;" x1="393.72" x2="495.844" y1="523.357" y2="523.357"/><text fill="#000000" font-family="sans-serif" font-size="10" lengthAdjust="spacing" textLength="74.3213" x="495.844" y="526.6363">Inputs (Signals)</text><line style="stroke:#181818;stroke-width:1;" x1="570.1653" x2="672.2893" y1="523.357" y2="523.357"/><text fill="#000000" font-family="sans-serif" font-size="10" lengthAdjust="spacing" textLength="217.2217" x="398.72" y="590.023">+profileRequested: OutputEmitterRef&lt;void&gt;</text><text fill="#000000" font-family="sans-serif" font-size="10" lengthAdjust="spacing" textLength="268.5693" x="398.72" y="601.8003">+passwordChangeRequested: OutputEmitterRef&lt;void&gt;</text><line style="stroke:#181818;stroke-width:1;" x1="393.72" x2="513.4783" y1="574.4663" y2="574.4663"/><text fill="#000000" font-family="sans-serif" font-size="10" lengthAdjust="spacing" textLength="39.0527" x="513.4783" y="577.7456">Outputs</text><line style="stroke:#181818;stroke-width:1;" x1="552.531" x2="672.2893" y1="574.4663" y2="574.4663"/><line style="stroke:#181818;stroke-width:1;" x1="393.72" x2="672.2893" y1="607.9097" y2="607.9097"/><text fill="#000000" font-family="sans-serif" font-size="10" lengthAdjust="spacing" textLength="202.9883" x="398.72" y="621.5777">+emitProfileRequested(event: Event): void</text><text fill="#000000" font-family="sans-serif" font-size="10" lengthAdjust="spacing" textLength="254.3359" x="398.72" y="633.355">+emitPasswordChangeRequested(event: Event): void</text></g><!--class ImpTag--><g class="entity" data-qualified-name="Shared Components.ImpTag" data-source-line="102" id="ent0009"><rect fill="#F1F1F1" height="67.5547" rx="2.5" ry="2.5" style="stroke:#181818;stroke-width:0.5;" width="172.7607" x="22.62" y="526.6883"/><ellipse cx="35.62" cy="540.6883" fill="#ADD1B2" rx="9" ry="9" style="stroke:#181818;stroke-width:1;"/><path d="M36.8983,544.4783 Q36.5565,544.6541 36.1805,544.742 Q35.8046,544.8299 35.3895,544.8299 Q33.9149,544.8299 33.1386,543.8582 Q32.3622,542.8865 32.3622,541.0506 Q32.3622,539.2098 33.1386,538.2381 Q33.9149,537.2664 35.3895,537.2664 Q35.8046,537.2664 36.1854,537.3543 Q36.5663,537.4422 36.8983,537.618 L36.8983,539.2195 Q36.5272,538.8777 36.1781,538.719 Q35.829,538.5604 35.4579,538.5604 Q34.6669,538.5604 34.264,539.1878 Q33.8612,539.8152 33.8612,541.0506 Q33.8612,542.2811 34.264,542.9085 Q34.6669,543.5359 35.4579,543.5359 Q35.829,543.5359 36.1781,543.3772 Q36.5272,543.2186 36.8983,542.8768 Z " fill="#000000"/><text fill="#000000" font-family="sans-serif" font-size="10" lengthAdjust="spacing" textLength="144.7607" x="47.62" y="544.4676">ImpersonationTagComponent</text><line style="stroke:#181818;stroke-width:0.5;" x1="23.62" x2="194.3807" y1="554.6883" y2="554.6883"/><line style="stroke:#181818;stroke-width:1;" x1="23.62" x2="194.3807" y1="562.6883" y2="562.6883"/><text fill="#000000" font-family="sans-serif" font-size="10" lengthAdjust="spacing" textLength="141.626" x="28.62" y="576.3563">// Static component showing</text><text fill="#000000" font-family="sans-serif" font-size="10" lengthAdjust="spacing" textLength="159.8486" x="28.62" y="588.1336">// "OBFUSCATED MODE" warning</text></g><!--class LogoutBtn--><g class="entity" data-qualified-name="Shared Components.LogoutBtn" data-source-line="108" id="ent0010"><rect fill="#F1F1F1" height="83.332" rx="2.5" ry="2.5" style="stroke:#181818;stroke-width:0.5;" width="180.7305" x="203.63" y="518.8083"/><ellipse cx="230.3941" cy="532.8083" fill="#ADD1B2" rx="9" ry="9" style="stroke:#181818;stroke-width:1;"/><path d="M231.6724,536.5983 Q231.3306,536.7741 230.9547,536.862 Q230.5787,536.9499 230.1636,536.9499 Q228.689,536.9499 227.9127,535.9782 Q227.1363,535.0065 227.1363,533.1706 Q227.1363,531.3298 227.9127,530.3581 Q228.689,529.3864 230.1636,529.3864 Q230.5787,529.3864 230.9595,529.4743 Q231.3404,529.5622 231.6724,529.738 L231.6724,531.3395 Q231.3013,530.9977 230.9522,530.839 Q230.6031,530.6804 230.232,530.6804 Q229.441,530.6804 229.0382,531.3078 Q228.6353,531.9352 228.6353,533.1706 Q228.6353,534.4011 229.0382,535.0285 Q229.441,535.6559 230.232,535.6559 Q230.6031,535.6559 230.9522,535.4972 Q231.3013,535.3386 231.6724,534.9968 Z " fill="#000000"/><text fill="#000000" font-family="sans-serif" font-size="10" lengthAdjust="spacing" textLength="122.1436" x="245.4528" y="536.5876">LogoutButtonComponent</text><line style="stroke:#181818;stroke-width:0.5;" x1="204.63" x2="383.3605" y1="546.8083" y2="546.8083"/><text fill="#000000" font-family="sans-serif" font-size="10" lengthAdjust="spacing" textLength="168.7305" x="209.63" y="576.2536">+clicked: OutputEmitterRef&lt;void&gt;</text><line style="stroke:#181818;stroke-width:1;" x1="204.63" x2="274.4689" y1="560.697" y2="560.697"/><text fill="#000000" font-family="sans-serif" font-size="10" lengthAdjust="spacing" textLength="39.0527" x="274.4689" y="563.9763">Outputs</text><line style="stroke:#181818;stroke-width:1;" x1="313.5216" x2="383.3605" y1="560.697" y2="560.697"/><line style="stroke:#181818;stroke-width:1;" x1="204.63" x2="383.3605" y1="582.363" y2="582.363"/><text fill="#000000" font-family="sans-serif" font-size="10" lengthAdjust="spacing" textLength="77.2998" x="209.63" y="596.0309">+onClick(): void</text></g><g class="entity" data-qualified-name="GMN15" data-source-line="124" id="ent0016"><path d="M40.32,43.4883 L40.32,112.375 A0,0 0 0 0 40.32,112.375 L164,112.375 L168,201.0883 L172,112.375 L295.6804,112.375 A0,0 0 0 0 295.6804,112.375 L295.6804,53.4883 L285.6804,43.4883 L40.32,43.4883 A0,0 0 0 0 40.32,43.4883" fill="#FEFFDD" style="stroke:#181818;stroke-width:0.5;"/><path d="M285.6804,43.4883 L285.6804,53.4883 L295.6804,53.4883 L285.6804,43.4883" fill="#FEFFDD" style="stroke:#181818;stroke-width:0.5;"/><text fill="#000000" font-family="sans-serif" font-size="10" lengthAdjust="spacing" textLength="184.0234" x="46.32" y="58.1563">Main navigation sidebar. Shows/hides</text><text fill="#000000" font-family="sans-serif" font-size="10" lengthAdjust="spacing" textLength="150.5664" x="46.32" y="69.9336">menu items based on user role</text><text fill="#000000" font-family="sans-serif" font-size="10" lengthAdjust="spacing" textLength="214.8291" x="46.32" y="81.7109">(tenant_user, tenant_admin, system_admin).</text><text fill="#000000" font-family="sans-serif" font-size="10" lengthAdjust="spacing" textLength="234.3604" x="46.32" y="93.4883">During impersonation: shows ImpersonationTag</text><text fill="#000000" font-family="sans-serif" font-size="10" lengthAdjust="spacing" textLength="158.7939" x="46.32" y="105.2656">and "Exit impersonation" button.</text></g><g class="entity" data-qualified-name="GMN18" data-source-line="132" id="ent0019"><path d="M1200.53,531.9183 L1200.53,589.0277 L1417.4724,589.0277 L1417.4724,541.9183 L1407.4724,531.9183 L1200.53,531.9183" fill="#FEFFDD" style="stroke:#181818;stroke-width:0.5;"/><path d="M1407.4724,531.9183 L1407.4724,541.9183 L1417.4724,541.9183 L1407.4724,531.9183" fill="#FEFFDD" style="stroke:#181818;stroke-width:1;"/><text fill="#000000" font-family="sans-serif" font-size="10" lengthAdjust="spacing" textLength="183.4521" x="1206.53" y="546.5863">Generic modal overlay with backdrop.</text><text fill="#000000" font-family="sans-serif" font-size="10" lengthAdjust="spacing" textLength="147.7295" x="1206.53" y="558.3636">Uses HTML &lt;dialog&gt; element.</text><text fill="#000000" font-family="sans-serif" font-size="10" lengthAdjust="spacing" textLength="195.9424" x="1206.53" y="570.1409">Listens to @HostListener clicks to detect</text><text fill="#000000" font-family="sans-serif" font-size="10" lengthAdjust="spacing" textLength="177.4951" x="1206.53" y="581.9183">when the dialog backdrop is clicked.</text></g><g class="entity" data-qualified-name="GMN21" data-source-line="139" id="ent0022"><path d="M946.74,287.3683 L946.74,344.4777 L1149.2634,344.4777 L1149.2634,297.3683 L1139.2634,287.3683 L946.74,287.3683" fill="#FEFFDD" style="stroke:#181818;stroke-width:0.5;"/><path d="M1139.2634,287.3683 L1139.2634,297.3683 L1149.2634,297.3683 L1139.2634,287.3683" fill="#FEFFDD" style="stroke:#181818;stroke-width:1;"/><text fill="#000000" font-family="sans-serif" font-size="10" lengthAdjust="spacing" textLength="181.5234" x="952.74" y="302.0363">Reusable multi-select dropdown with</text><text fill="#000000" font-family="sans-serif" font-size="10" lengthAdjust="spacing" textLength="173.8232" x="952.74" y="313.8136">integrated search. Opens/closes via</text><text fill="#000000" font-family="sans-serif" font-size="10" lengthAdjust="spacing" textLength="153.999" x="952.74" y="325.5909">document click and Escape key.</text><text fill="#000000" font-family="sans-serif" font-size="10" lengthAdjust="spacing" textLength="152.4219" x="952.74" y="337.3683">Fully driven by Angular Signals.</text></g><g class="entity" data-qualified-name="GMN24" data-source-line="146" id="ent0025"><path d="M947.16,520.1383 L947.16,600.8023 L1192.8475,600.8023 L1192.8475,530.1383 L1182.8475,520.1383 L947.16,520.1383" fill="#FEFFDD" style="stroke:#181818;stroke-width:0.5;"/><path d="M1182.8475,520.1383 L1182.8475,530.1383 L1192.8475,530.1383 L1182.8475,520.1383" fill="#FEFFDD" style="stroke:#181818;stroke-width:1;"/><text fill="#000000" font-family="sans-serif" font-size="10" lengthAdjust="spacing" textLength="175" x="953.16" y="534.8063">Colored badge component mapping</text><text fill="#000000" font-family="sans-serif" font-size="10" lengthAdjust="spacing" textLength="140.5566" x="953.16" y="546.5836">status strings to CSS classes:</text><text fill="#000000" font-family="sans-serif" font-size="10" lengthAdjust="spacing" textLength="106.5918" x="953.16" y="558.3609">- is-good: online, ack</text><text fill="#000000" font-family="sans-serif" font-size="10" lengthAdjust="spacing" textLength="196.626" x="953.16" y="570.1383">- is-warn: paused, provisioning, queued</text><text fill="#000000" font-family="sans-serif" font-size="10" lengthAdjust="spacing" textLength="224.6875" x="953.16" y="581.9156">- is-bad: offline, nack, expired, timeout, error</text><text fill="#000000" font-family="sans-serif" font-size="10" lengthAdjust="spacing" textLength="97.1826" x="953.16" y="593.693">- is-neutral: default</text></g><!--link Sidebar to ImpTag--><g class="link" data-entity-1="ent0003" data-entity-2="ent0009" data-link-type="dependency" data-source-line="116" id="lnk11"><path codeLine="116" d="M109.35,430.6783 C109.35,465.5483 109.35,495.2383 109.35,520.3483" fill="none" id="Sidebar-to-ImpTag" style="stroke:#181818;stroke-width:1;"/><polygon fill="#181818" points="109.35,526.3483,113.35,517.3483,109.35,521.3483,105.35,517.3483,109.35,526.3483" style="stroke:#181818;stroke-width:1;"/></g><!--link Sidebar to ProfileSection--><g class="link" data-entity-1="ent0003" data-entity-2="ent0008" data-link-type="dependency" data-source-line="117" id="lnk12"><path codeLine="117" d="M276.33,430.6983 C276.33,468.2283 276.33,500.4683 276.33,500.4683 C276.33,500.4683 326.49,500.4683 386.28,500.4683" fill="none" id="Sidebar-to-ProfileSection" style="stroke:#181818;stroke-width:1;"/><polygon fill="#181818" points="392.28,500.4683,383.28,496.4683,387.28,500.4683,383.28,504.4683,392.28,500.4683" style="stroke:#181818;stroke-width:1;"/></g><!--link Sidebar to LogoutBtn--><g class="link" data-entity-1="ent0003" data-entity-2="ent0010" data-link-type="dependency" data-source-line="118" id="lnk13"><path codeLine="118" d="M239.98,430.6783 C239.98,462.0783 239.98,488.1383 239.98,512.5383" fill="none" id="Sidebar-to-LogoutBtn" style="stroke:#181818;stroke-width:1;"/><polygon fill="#181818" points="239.98,518.5383,243.98,509.5383,239.98,513.5383,235.98,509.5383,239.98,518.5383" style="stroke:#181818;stroke-width:1;"/></g><!--link DeleteModal to ModalLayer--><g class="link" data-entity-1="ent0007" data-entity-2="ent0004" data-link-type="dependency" data-source-line="120" id="lnk14"><path codeLine="120" d="M724.2,401.1083 C724.2,433.2283 724.2,463.1183 724.2,492.6883" fill="none" id="DeleteModal-to-ModalLayer" style="stroke:#181818;stroke-width:1;"/><polygon fill="#181818" points="724.2,498.6883,728.2,489.6883,724.2,493.6883,720.2,489.6883,724.2,498.6883" style="stroke:#181818;stroke-width:1;"/></g><!--link ModalLayer to GMN18--><g class="link" data-entity-1="ent0004" data-entity-2="ent0019" data-link-type="association" data-source-line="132" id="lnk20"><path d="M911.09,611.4683 C1061.61,611.4683 1309,611.4683 1309,611.4683 C1309,611.4683 1309,600.8183 1309,589.2483" fill="none" id="ModalLayer-GMN18" style="stroke:#181818;stroke-width:1;stroke-dasharray:7,7;"/></g><!--link GMN21 to MultiSelect--><g class="link" data-entity-1="ent0022" data-entity-2="ent0005" data-link-type="association" data-source-line="139" id="lnk23"><path d="M1014.52,344.7283 C1014.52,380.6683 1014.52,437.4683 1014.52,437.4683 C1014.52,437.4683 727.32,437.4683 559.04,437.4683" fill="none" id="GMN21-MultiSelect" style="stroke:#181818;stroke-width:1;stroke-dasharray:7,7;"/></g><!--link StatusBadge to GMN24--><g class="link" data-entity-1="ent0006" data-entity-2="ent0025" data-link-type="association" data-source-line="146" id="lnk26"><path d="M915,351.4683 C985.34,351.4683 1081.89,351.4683 1081.89,351.4683 C1081.89,351.4683 1081.89,458.8483 1081.89,519.6783" fill="none" id="StatusBadge-GMN24" style="stroke:#181818;stroke-width:1;stroke-dasharray:7,7;"/></g><?plantuml-src lLTRJoCt57xFhpXA7ygg1EXRXL1K2A6B10KHLdrOhIfdV3Anuh6djYVPRDN_tkFBC3F9P8bKgGW9nkVpyRdxinDE8lokN--VuSvevL1n6C5ioGnocEYYr0gLiuE1NGbLCiCAcBDibHjTAJxHKXluuIxyj10S5woIxexqpSGtX9yl-eLf_qNuQK6KvcYnX5zQQuQfrUwQ50hTjaJGnYrrIv19PksrSqRCAuVtcLR1Zel1e2JZMOumt7Dn25TNBvWvfdA9up7yFG2Wtw2Au8BZd9at-12OXRGOe02Z4Tohid8MJcOYLqpQ3xGMH3y9Ur-KQAnMp0cLNq94NCsrbiZKEA8gYqQn0j_4bZnGUP8QWhv9FX7qXHR6zT5FbGjdroTAdUlAlU1V5Lg7_381feLmZhRYucgj1K-gHMCSXShfyiXzfT4B8V5OD4LoemsVB2d6HswgtIbGLVSE2tlouH8UqyVdBr68jFCX-EkbVdEpVd_GjNtiyuuxFOX-5ph0KLOPGoNYq-C5TQf8-C-WgQX7pPbyO5lSAQfc_OYwqYMg0yMKIMtnITrGmNEZotvKJ-7CquQ9ttzSShJwgAsRI96jJd1DZb2AD1NprF_VXARZFOq0CKD93NTBXt6zKJjXQ017nS6dr-uqpkSlAHOswF7UzCjBoJ9SQidHzFUUHMQovVDxCALVq9BXze7DKVPZkB1iBbksl9UGslXOSpq9wJf36cQEEUoTGa-XNlummdaRUkicklgAfjW3jlreSd-hiuhQy_ty1_JKPgp4RcSvdTFCzLtTNQzAJexCWa4dQoOhyZxQqBFzAPJ0Ts32pb8azq0f0kruawwGH6zHn4Kf3GWAE_9ud6t4QHYDb3O5atJT78Q4rjnnjzqSFd-LlM4ynvqBfn4SqHGse7khi6bsVuO_jUDdsvXR2eSZEzH2c28CfwvDKHu4_srWESz5-dkcG6jPVa0uh-psw6RAeX_lNLKPKnbAUVJyI-4vsIdsIL1p8Clfjfd5Oki6jIix8gw7g0EH6aEtbA2A7VVnYCCmkzIRPCQ3KAkZ8_p_SOBUAplDd_tHyxthktzJEraT6l7AycwwI4fhRsaAVyxFGxkA3B8Q2pwczIGX-V3fvkxJR7BzEhs5nwVRwH0spAZz5epSvgPoRhTEaiIrIcIlulrOFhwGmn3VYS6Fn64yQJOeW_zsAKfBHDw8DL7eXT4548Ca4cu9N9FYqMYSuhApsAtj7U6RG_xSzcZnmeOQ3SWkfUcI8q87Ub6he3sFJ2XGR2toO2hOA3cZDutUsFCbVNehFPy4uGablMU8vm11VG-1xmxF-q_eASIK-zCldaBwOBmGwXJibggcY5yVphoXbUyYwD3eov3jK1kToY4ueqVMSFfLkEwE8Sn3Yiy6_XNctKjE6f4ldNUp5G20tr1H1Z8eGdpq6eraMzW8juIQmtdRY7vQ-FZw-01NN31w5eo1mkelR2zz4EIAiXH7-DMJkFXDSGXb4zOvvI1pXDqiKO5R8aGzRwU0i92gRCzqYOjeUKFdIDCBLe44GU6NH_761Pw8OF21K8AUexaX1i0Xaf8pyFp5deVxqy9QC4BnH3-Y2I6saMF02hVUnRjAoYqffs9LCD_2jSehIUMMPkYUoNDDIIX2LJNNBUa9hrMo9ToPhQOkM5d6deqNRhf6G-mcirbiOhIN11XHg4QvrjIDMldNwobG36k1R_vBA1cL73y5cgDhOQaiIDSfqAIgaDT8Ce4qB1PHXI8Tfu1VIp--gLP5WTH3j6ACDlKMXPKpZ3XfUdytNlyB?></g></svg>